%FSLAX45Y45*%
G04 Gerber Fmt 4.5, Leading zero omitted, Abs format (unit mm)*
G04 Created by KiCad (PCBNEW (5.0.2)-1) date 8/17/2020 10:54:43 AM*
%MOMM*%
%LPD*%
G01*
G04 APERTURE LIST*
%ADD10C,0.200000*%
%ADD11C,0.300000*%
G04 APERTURE END LIST*
D10*
X-1270000Y-4480000D02*
X-1230000Y-4520000D01*
X-1230000Y-4480000D02*
X-1270000Y-4520000D01*
X-1218880Y-1651320D02*
X-1178880Y-1691320D01*
X-1178880Y-1651320D02*
X-1218880Y-1691320D01*
X-959800Y-1575120D02*
X-919800Y-1615120D01*
X-919800Y-1575120D02*
X-959800Y-1615120D01*
X-842960Y-4135440D02*
X-802960Y-4175440D01*
X-802960Y-4135440D02*
X-842960Y-4175440D01*
X-721040Y-4562160D02*
X-681040Y-4602160D01*
X-681040Y-4562160D02*
X-721040Y-4602160D01*
X-700720Y-4739960D02*
X-660720Y-4779960D01*
X-660720Y-4739960D02*
X-700720Y-4779960D01*
X-690560Y-4912680D02*
X-650560Y-4952680D01*
X-650560Y-4912680D02*
X-690560Y-4952680D01*
X-623172Y-4829410D02*
X-583172Y-4869410D01*
X-583172Y-4829410D02*
X-623172Y-4869410D01*
X-538160Y-2413320D02*
X-498160Y-2453320D01*
X-498160Y-2413320D02*
X-538160Y-2453320D01*
X-487360Y-1681800D02*
X-447360Y-1721800D01*
X-447360Y-1681800D02*
X-487360Y-1721800D01*
X-452983Y-4685901D02*
X-412983Y-4725901D01*
X-412983Y-4685901D02*
X-452983Y-4725901D01*
X-425000Y-5360000D02*
X-385000Y-5400000D01*
X-385000Y-5360000D02*
X-425000Y-5400000D01*
X-390840Y-1624099D02*
X-350840Y-1664099D01*
X-350840Y-1624099D02*
X-390840Y-1664099D01*
X-390840Y-4099880D02*
X-350840Y-4139880D01*
X-350840Y-4099880D02*
X-390840Y-4139880D01*
X-380680Y-2448880D02*
X-340680Y-2488880D01*
X-340680Y-2448880D02*
X-380680Y-2488880D01*
X-334960Y-4506280D02*
X-294960Y-4546280D01*
X-294960Y-4506280D02*
X-334960Y-4546280D01*
X-263840Y-2255840D02*
X-223840Y-2295840D01*
X-223840Y-2255840D02*
X-263840Y-2295840D01*
X-247044Y-4685901D02*
X-207044Y-4725901D01*
X-207044Y-4685901D02*
X-247044Y-4725901D01*
X-238440Y-3475040D02*
X-198440Y-3515040D01*
X-198440Y-3475040D02*
X-238440Y-3515040D01*
X-202880Y-3632520D02*
X-162880Y-3672520D01*
X-162880Y-3632520D02*
X-202880Y-3672520D01*
X-182560Y-2313541D02*
X-142560Y-2353541D01*
X-142560Y-2313541D02*
X-182560Y-2353541D01*
X-135510Y-1858197D02*
X-95510Y-1898197D01*
X-95510Y-1858197D02*
X-135510Y-1898197D01*
X-96200Y-3297240D02*
X-56200Y-3337240D01*
X-56200Y-3297240D02*
X-96200Y-3337240D01*
X-70800Y-3383600D02*
X-30800Y-3423600D01*
X-30800Y-3383600D02*
X-70800Y-3423600D01*
X-3828Y-1664746D02*
X36172Y-1704746D01*
X36172Y-1664746D02*
X-3828Y-1704746D01*
X399Y-4845911D02*
X40399Y-4885911D01*
X40399Y-4845911D02*
X399Y-4885911D01*
X86680Y-3342960D02*
X126680Y-3382960D01*
X126680Y-3342960D02*
X86680Y-3382960D01*
X113369Y-3655669D02*
X153369Y-3695669D01*
X153369Y-3655669D02*
X113369Y-3695669D01*
X115500Y-3575696D02*
X155501Y-3615696D01*
X155501Y-3575696D02*
X115500Y-3615696D01*
X126362Y-3734608D02*
X166362Y-3774608D01*
X166362Y-3734608D02*
X126362Y-3774608D01*
X142560Y-3063560D02*
X182560Y-3103560D01*
X182560Y-3063560D02*
X142560Y-3103560D01*
X171657Y-3800551D02*
X211657Y-3840551D01*
X211657Y-3800551D02*
X171657Y-3840551D01*
X229550Y-1635548D02*
X269550Y-1675548D01*
X269550Y-1635548D02*
X229550Y-1675548D01*
X294960Y-3952560D02*
X334960Y-3992560D01*
X334960Y-3952560D02*
X294960Y-3992560D01*
X418701Y-4521520D02*
X458701Y-4561520D01*
X458701Y-4521520D02*
X418701Y-4561520D01*
X438310Y-1922381D02*
X478310Y-1962381D01*
X478310Y-1922381D02*
X438310Y-1962381D01*
X498160Y-1493840D02*
X538160Y-1533840D01*
X538160Y-1493840D02*
X498160Y-1533840D01*
X498160Y-2291400D02*
X538160Y-2331400D01*
X538160Y-2291400D02*
X498160Y-2331400D01*
X503240Y-3388680D02*
X543240Y-3428680D01*
X543240Y-3388680D02*
X503240Y-3428680D01*
X571251Y-3760853D02*
X611251Y-3800853D01*
X611251Y-3760853D02*
X571251Y-3800853D01*
X574360Y-3642680D02*
X614360Y-3682680D01*
X614360Y-3642680D02*
X574360Y-3682680D01*
X606969Y-4685901D02*
X646969Y-4725901D01*
X646969Y-4685901D02*
X606969Y-4725901D01*
X620080Y-1551541D02*
X660080Y-1591541D01*
X660080Y-1551541D02*
X620080Y-1591541D01*
X625160Y-3419160D02*
X665160Y-3459160D01*
X665160Y-3419160D02*
X625160Y-3459160D01*
X650080Y-2438720D02*
X690080Y-2478720D01*
X690080Y-2438720D02*
X650080Y-2478720D01*
X659055Y-4845911D02*
X699055Y-4885911D01*
X699055Y-4845911D02*
X659055Y-4885911D01*
X794392Y-1765893D02*
X834392Y-1805893D01*
X834392Y-1765893D02*
X794392Y-1805893D01*
X808040Y-3092219D02*
X848040Y-3132219D01*
X848040Y-3092219D02*
X808040Y-3132219D01*
X869000Y-4389440D02*
X909000Y-4429440D01*
X909000Y-4389440D02*
X869000Y-4429440D01*
X894400Y-2474280D02*
X934400Y-2514280D01*
X934400Y-2474280D02*
X894400Y-2514280D01*
X899863Y-2767852D02*
X939863Y-2807852D01*
X939863Y-2767852D02*
X899863Y-2807852D01*
X909793Y-1768579D02*
X949793Y-1808579D01*
X949793Y-1768579D02*
X909793Y-1808579D01*
X919800Y-4587560D02*
X959800Y-4627560D01*
X959800Y-4587560D02*
X919800Y-4627560D01*
X968695Y-1714442D02*
X1008695Y-1754442D01*
X1008695Y-1714442D02*
X968695Y-1754442D01*
X971236Y-2587702D02*
X1011236Y-2627702D01*
X1011236Y-2587702D02*
X971236Y-2627702D01*
X996000Y-3896680D02*
X1036000Y-3936680D01*
X1036000Y-3896680D02*
X996000Y-3936680D01*
X1056960Y-5029520D02*
X1096960Y-5069520D01*
X1096960Y-5029520D02*
X1056960Y-5069520D01*
X1060062Y-3811884D02*
X1100062Y-3851884D01*
X1100062Y-3811884D02*
X1060062Y-3851884D01*
X1060073Y-1475374D02*
X1100073Y-1515374D01*
X1100073Y-1475374D02*
X1060073Y-1515374D01*
X1061731Y-1737993D02*
X1101731Y-1777993D01*
X1101731Y-1737993D02*
X1061731Y-1777993D01*
X1108544Y-1625852D02*
X1148544Y-1665852D01*
X1148544Y-1625852D02*
X1108544Y-1665852D01*
X1123000Y-4491040D02*
X1163000Y-4531040D01*
X1163000Y-4491040D02*
X1123000Y-4531040D01*
X1168806Y-1477897D02*
X1208806Y-1517897D01*
X1208806Y-1477897D02*
X1168806Y-1517897D01*
X1234760Y-4821240D02*
X1274760Y-4861240D01*
X1274760Y-4821240D02*
X1234760Y-4861240D01*
X1255080Y-1602341D02*
X1295080Y-1642341D01*
X1295080Y-1602341D02*
X1255080Y-1642341D01*
X1264957Y-3634732D02*
X1304957Y-3674732D01*
X1304957Y-3634732D02*
X1264957Y-3674732D01*
X1285560Y-4958400D02*
X1325560Y-4998400D01*
X1325560Y-4958400D02*
X1285560Y-4998400D01*
X1295939Y-3750040D02*
X1335939Y-3790040D01*
X1335939Y-3750040D02*
X1295939Y-3790040D01*
X1300800Y-1758000D02*
X1340800Y-1798000D01*
X1340800Y-1758000D02*
X1300800Y-1798000D01*
X1305880Y-2349101D02*
X1345880Y-2389101D01*
X1345880Y-2349101D02*
X1305880Y-2389101D01*
X1307701Y-2552301D02*
X1347701Y-2592301D01*
X1347701Y-2552301D02*
X1307701Y-2592301D01*
X1365019Y-3188155D02*
X1405019Y-3228155D01*
X1405019Y-3188155D02*
X1365019Y-3228155D01*
X1377000Y-1534480D02*
X1417000Y-1574480D01*
X1417000Y-1534480D02*
X1377000Y-1574480D01*
X1380358Y-3607247D02*
X1420358Y-3647247D01*
X1420358Y-3607247D02*
X1380358Y-3647247D01*
X1380358Y-3609394D02*
X1420358Y-3649394D01*
X1420358Y-3609394D02*
X1380358Y-3649394D01*
X1392240Y-3424240D02*
X1432240Y-3464240D01*
X1432240Y-3424240D02*
X1392240Y-3464240D01*
X1392240Y-4684080D02*
X1432240Y-4724080D01*
X1432240Y-4684080D02*
X1392240Y-4724080D01*
X1397320Y-3896680D02*
X1437320Y-3936680D01*
X1437320Y-3896680D02*
X1397320Y-3936680D01*
X1407480Y-4917760D02*
X1447480Y-4957760D01*
X1447480Y-4917760D02*
X1407480Y-4957760D01*
X1433320Y-3538067D02*
X1473320Y-3578067D01*
X1473320Y-3538067D02*
X1433320Y-3578067D01*
X1463360Y-3708720D02*
X1503360Y-3748720D01*
X1503360Y-3708720D02*
X1463360Y-3748720D01*
X1480421Y-3037474D02*
X1520421Y-3077474D01*
X1520421Y-3037474D02*
X1480421Y-3077474D01*
X1727520Y-2233699D02*
X1767520Y-2273699D01*
X1767520Y-2233699D02*
X1727520Y-2273699D01*
X1732600Y-1717360D02*
X1772600Y-1757360D01*
X1772600Y-1717360D02*
X1732600Y-1757360D01*
X1885000Y-4389440D02*
X1925000Y-4429440D01*
X1925000Y-4389440D02*
X1885000Y-4429440D01*
X1890080Y-1605600D02*
X1930080Y-1645600D01*
X1930080Y-1605600D02*
X1890080Y-1645600D01*
X1910400Y-3149920D02*
X1950400Y-3189920D01*
X1950400Y-3149920D02*
X1910400Y-3189920D01*
X1912154Y-3422323D02*
X1952154Y-3462323D01*
X1952154Y-3422323D02*
X1912154Y-3462323D01*
X1968101Y-1693781D02*
X2008101Y-1733781D01*
X2008101Y-1693781D02*
X1968101Y-1733781D01*
X1986600Y-3119440D02*
X2026600Y-3159440D01*
X2026600Y-3119440D02*
X1986600Y-3159440D01*
X2123760Y-3149920D02*
X2163760Y-3189920D01*
X2163760Y-3149920D02*
X2123760Y-3189920D01*
X2123760Y-4545258D02*
X2163760Y-4585258D01*
X2163760Y-4545258D02*
X2123760Y-4585258D01*
X2129449Y-1693781D02*
X2169449Y-1733781D01*
X2169449Y-1693781D02*
X2129449Y-1733781D01*
X2377760Y-4999040D02*
X2417760Y-5039040D01*
X2417760Y-4999040D02*
X2377760Y-5039040D01*
X2398080Y-4706221D02*
X2438080Y-4746221D01*
X2438080Y-4706221D02*
X2398080Y-4746221D01*
X2428560Y-1702120D02*
X2468560Y-1742120D01*
X2468560Y-1702120D02*
X2428560Y-1742120D01*
X2447133Y-1510519D02*
X2487133Y-1550519D01*
X2487133Y-1510519D02*
X2447133Y-1550519D01*
X2479360Y-3251520D02*
X2519360Y-3291520D01*
X2519360Y-3251520D02*
X2479360Y-3291520D01*
X2489520Y-4580659D02*
X2529520Y-4620659D01*
X2529520Y-4580659D02*
X2489520Y-4620659D01*
X2626680Y-3053400D02*
X2666680Y-3093400D01*
X2666680Y-3053400D02*
X2626680Y-3093400D01*
X2631760Y-4638360D02*
X2671760Y-4678360D01*
X2671760Y-4638360D02*
X2631760Y-4678360D01*
X2743520Y-2570800D02*
X2783520Y-2610800D01*
X2783520Y-2570800D02*
X2743520Y-2610800D01*
X2890840Y-2381019D02*
X2930840Y-2421019D01*
X2930840Y-2381019D02*
X2890840Y-2421019D01*
X2904063Y-1517896D02*
X2944063Y-1557896D01*
X2944063Y-1517896D02*
X2904063Y-1557896D01*
X2914696Y-1438604D02*
X2954696Y-1478604D01*
X2954696Y-1438604D02*
X2914696Y-1478604D01*
X3043240Y-2093280D02*
X3083240Y-2133280D01*
X3083240Y-2093280D02*
X3043240Y-2133280D01*
X3053400Y-2494600D02*
X3093400Y-2534600D01*
X3093400Y-2494600D02*
X3053400Y-2534600D01*
X3112010Y-2345211D02*
X3152010Y-2385211D01*
X3152010Y-2345211D02*
X3112010Y-2385211D01*
X3119440Y-1681800D02*
X3159440Y-1721800D01*
X3159440Y-1681800D02*
X3119440Y-1721800D01*
X3276920Y-2591120D02*
X3316920Y-2631120D01*
X3316920Y-2591120D02*
X3276920Y-2631120D01*
X3378520Y-3867001D02*
X3418520Y-3907001D01*
X3418520Y-3867001D02*
X3378520Y-3907001D01*
X3627440Y-2586040D02*
X3667440Y-2626040D01*
X3667440Y-2586040D02*
X3627440Y-2626040D01*
X3678240Y-4860059D02*
X3718240Y-4900059D01*
X3718240Y-4860059D02*
X3678240Y-4900059D01*
X3749360Y-2469200D02*
X3789360Y-2509200D01*
X3789360Y-2469200D02*
X3749360Y-2509200D01*
X3759400Y-1470038D02*
X3799400Y-1510038D01*
X3799400Y-1470038D02*
X3759400Y-1510038D01*
X3800160Y334960D02*
X3840160Y294960D01*
X3840160Y334960D02*
X3800160Y294960D01*
X3830510Y-1433383D02*
X3870510Y-1473383D01*
X3870510Y-1433383D02*
X3830510Y-1473383D01*
X3906840Y-4734880D02*
X3946840Y-4774880D01*
X3946840Y-4734880D02*
X3906840Y-4774880D01*
X3917000Y-4975461D02*
X3957000Y-5015461D01*
X3957000Y-4975461D02*
X3917000Y-5015461D01*
X3998280Y-1815223D02*
X4038280Y-1855223D01*
X4038280Y-1815223D02*
X3998280Y-1855223D01*
X4033299Y-3359547D02*
X4073299Y-3399547D01*
X4073299Y-3359547D02*
X4033299Y-3399547D01*
X4069400Y-2072960D02*
X4109400Y-2112960D01*
X4109400Y-2072960D02*
X4069400Y-2112960D01*
X4145600Y-279720D02*
X4185600Y-319720D01*
X4185600Y-279720D02*
X4145600Y-319720D01*
X4165920Y-4816160D02*
X4205920Y-4856160D01*
X4205920Y-4816160D02*
X4165920Y-4856160D01*
X4171000Y-1850625D02*
X4211000Y-1890625D01*
X4211000Y-1850625D02*
X4171000Y-1890625D01*
X4301185Y-1908326D02*
X4341185Y-1948326D01*
X4341185Y-1908326D02*
X4301185Y-1948326D01*
X4343720Y294320D02*
X4383720Y254320D01*
X4383720Y294320D02*
X4343720Y254320D01*
X4358960Y-3276920D02*
X4398960Y-3316920D01*
X4398960Y-3276920D02*
X4358960Y-3316920D01*
X4394520Y-4872040D02*
X4434520Y-4912040D01*
X4434520Y-4872040D02*
X4394520Y-4912040D01*
X4455480Y-3867001D02*
X4495480Y-3907001D01*
X4495480Y-3867001D02*
X4455480Y-3907001D01*
X4505000Y-2855280D02*
X4545000Y-2895280D01*
X4545000Y-2855280D02*
X4505000Y-2895280D01*
X4506280Y-2301560D02*
X4546280Y-2341560D01*
X4546280Y-2301560D02*
X4506280Y-2341560D01*
X4536760Y-3820480D02*
X4576760Y-3860480D01*
X4576760Y-3820480D02*
X4536760Y-3860480D01*
X4536760Y-4806000D02*
X4576760Y-4846000D01*
X4576760Y-4806000D02*
X4536760Y-4846000D01*
X4689160Y-1905320D02*
X4729160Y-1945320D01*
X4729160Y-1905320D02*
X4689160Y-1945320D01*
X4724720Y299400D02*
X4764720Y259400D01*
X4764720Y299400D02*
X4724720Y259400D01*
X4795840Y-2306640D02*
X4835840Y-2346640D01*
X4835840Y-2306640D02*
X4795840Y-2346640D01*
X4904449Y-1878004D02*
X4944449Y-1918004D01*
X4944449Y-1878004D02*
X4904449Y-1918004D01*
X5114286Y-1825543D02*
X5154286Y-1865543D01*
X5154286Y-1825543D02*
X5114286Y-1865543D01*
X5128412Y-4758579D02*
X5168412Y-4798579D01*
X5168412Y-4758579D02*
X5128412Y-4798579D01*
X5161600Y334960D02*
X5201600Y294960D01*
X5201600Y334960D02*
X5161600Y294960D01*
X5207320Y-2215200D02*
X5247320Y-2255200D01*
X5247320Y-2215200D02*
X5207320Y-2255200D01*
X5380040Y-3703640D02*
X5420040Y-3743640D01*
X5420040Y-3703640D02*
X5380040Y-3743640D01*
X5466400Y-1790142D02*
X5506400Y-1830142D01*
X5506400Y-1790142D02*
X5466400Y-1830142D01*
X5715320Y-4135440D02*
X5755320Y-4175440D01*
X5755320Y-4135440D02*
X5715320Y-4175440D01*
X5720400Y-1588698D02*
X5760400Y-1628698D01*
X5760400Y-1588698D02*
X5720400Y-1628698D01*
X5811680Y-3059080D02*
X5851680Y-3099080D01*
X5851680Y-3059080D02*
X5811680Y-3099080D01*
X5837240Y-3325899D02*
X5877240Y-3365899D01*
X5877240Y-3325899D02*
X5837240Y-3365899D01*
X5851680Y-1819080D02*
X5891680Y-1859080D01*
X5891680Y-1819080D02*
X5851680Y-1859080D01*
X5868000Y-4738001D02*
X5908000Y-4778001D01*
X5908000Y-4738001D02*
X5868000Y-4778001D01*
X5971680Y-2049080D02*
X6011680Y-2089080D01*
X6011680Y-2049080D02*
X5971680Y-2089080D01*
X6011680Y-2459080D02*
X6051680Y-2499080D01*
X6051680Y-2459080D02*
X6011680Y-2499080D01*
X6065840Y-1681800D02*
X6105840Y-1721800D01*
X6105840Y-1681800D02*
X6065840Y-1721800D01*
X6181680Y-2919080D02*
X6221680Y-2959080D01*
X6221680Y-2919080D02*
X6181680Y-2959080D01*
X6240656Y-4738001D02*
X6280656Y-4778001D01*
X6280656Y-4738001D02*
X6240656Y-4778001D01*
X6309680Y-1498920D02*
X6349680Y-1538920D01*
X6349680Y-1498920D02*
X6309680Y-1538920D01*
X6401120Y-2184080D02*
X6441120Y-2224080D01*
X6441120Y-2184080D02*
X6401120Y-2224080D01*
X6457000Y-1829120D02*
X6497000Y-1869120D01*
X6497000Y-1829120D02*
X6457000Y-1869120D01*
X6538280Y-2987360D02*
X6578280Y-3027360D01*
X6578280Y-2987360D02*
X6538280Y-3027360D01*
X6599240Y-3688400D02*
X6639240Y-3728400D01*
X6639240Y-3688400D02*
X6599240Y-3728400D01*
X6613284Y-4738001D02*
X6653284Y-4778001D01*
X6653284Y-4738001D02*
X6613284Y-4778001D01*
X6672762Y-1532659D02*
X6712762Y-1572659D01*
X6712762Y-1532659D02*
X6672762Y-1572659D01*
X6680520Y-3342960D02*
X6720520Y-3382960D01*
X6720520Y-3342960D02*
X6680520Y-3382960D01*
X6830912Y-2833521D02*
X6870912Y-2873521D01*
X6870912Y-2833521D02*
X6830912Y-2873521D01*
X6919280Y-1524320D02*
X6959280Y-1564320D01*
X6959280Y-1524320D02*
X6919280Y-1564320D01*
X7221680Y-2099080D02*
X7261680Y-2139080D01*
X7261680Y-2099080D02*
X7221680Y-2139080D01*
X7295200Y-1498920D02*
X7335200Y-1538920D01*
X7335200Y-1498920D02*
X7295200Y-1538920D01*
X7386640Y-3022920D02*
X7426640Y-3062920D01*
X7426640Y-3022920D02*
X7386640Y-3062920D01*
X7544120Y-1432880D02*
X7584120Y-1472880D01*
X7584120Y-1432880D02*
X7544120Y-1472880D01*
X7861511Y-3735941D02*
X7901511Y-3775941D01*
X7901511Y-3735941D02*
X7861511Y-3775941D01*
X8041960Y-3678240D02*
X8081960Y-3718240D01*
X8081960Y-3678240D02*
X8041960Y-3718240D01*
X8108000Y-1717360D02*
X8148000Y-1757360D01*
X8148000Y-1717360D02*
X8108000Y-1757360D01*
X8346760Y-2967040D02*
X8386760Y-3007040D01*
X8386760Y-2967040D02*
X8346760Y-3007040D01*
X2311000Y-4445000D02*
G75*
G03X2311000Y-4445000I-25000J0D01*
G01*
X2692000Y-4445000D02*
G75*
G03X2692000Y-4445000I-25000J0D01*
G01*
X-1422400Y-988500D02*
X-1422400Y-1043500D01*
X-1449900Y-1016000D02*
X-1394900Y-1016000D01*
X-1244600Y-988500D02*
X-1244600Y-1043500D01*
X-1272100Y-1016000D02*
X-1217100Y-1016000D01*
X-1117600Y-988500D02*
X-1117600Y-1043500D01*
X-1145100Y-1016000D02*
X-1090100Y-1016000D01*
X-965200Y-988500D02*
X-965200Y-1043500D01*
X-992700Y-1016000D02*
X-937700Y-1016000D01*
X-838200Y383100D02*
X-838200Y328100D01*
X-865700Y355600D02*
X-810700Y355600D01*
X-787400Y-378900D02*
X-787400Y-433900D01*
X-814900Y-406400D02*
X-759900Y-406400D01*
X-787400Y-988500D02*
X-787400Y-1043500D01*
X-814900Y-1016000D02*
X-759900Y-1016000D01*
X-782320Y-1257740D02*
X-782320Y-1312740D01*
X-809820Y-1285240D02*
X-754820Y-1285240D01*
X-762000Y-632900D02*
X-762000Y-687900D01*
X-789500Y-660400D02*
X-734500Y-660400D01*
X-635000Y-988500D02*
X-635000Y-1043500D01*
X-662500Y-1016000D02*
X-607500Y-1016000D01*
X-482600Y-988500D02*
X-482600Y-1043500D01*
X-510100Y-1016000D02*
X-455100Y-1016000D01*
X-457200Y383100D02*
X-457200Y328100D01*
X-484700Y355600D02*
X-429700Y355600D01*
X-330200Y-988500D02*
X-330200Y-1043500D01*
X-357700Y-1016000D02*
X-302700Y-1016000D01*
X-177800Y-988500D02*
X-177800Y-1043500D01*
X-205300Y-1016000D02*
X-150300Y-1016000D01*
X-76200Y357700D02*
X-76200Y302700D01*
X-103700Y330200D02*
X-48700Y330200D01*
X-25400Y-988500D02*
X-25400Y-1043500D01*
X-52900Y-1016000D02*
X2100Y-1016000D01*
X0Y-353500D02*
X0Y-408500D01*
X-27500Y-381000D02*
X27500Y-381000D01*
X0Y-632900D02*
X0Y-687900D01*
X-27500Y-660400D02*
X27500Y-660400D01*
X152400Y-988500D02*
X152400Y-1043500D01*
X124900Y-1016000D02*
X179900Y-1016000D01*
X304800Y332300D02*
X304800Y277300D01*
X277300Y304800D02*
X332300Y304800D01*
X304800Y-988500D02*
X304800Y-1043500D01*
X277300Y-1016000D02*
X332300Y-1016000D01*
X482600Y-988500D02*
X482600Y-1043500D01*
X455100Y-1016000D02*
X510100Y-1016000D01*
X685800Y306900D02*
X685800Y251900D01*
X658300Y279400D02*
X713300Y279400D01*
X685800Y-988500D02*
X685800Y-1043500D01*
X658300Y-1016000D02*
X713300Y-1016000D01*
X736600Y-277300D02*
X736600Y-332300D01*
X709100Y-304800D02*
X764100Y-304800D01*
X762000Y-582100D02*
X762000Y-637100D01*
X734500Y-609600D02*
X789500Y-609600D01*
X767080Y-1288220D02*
X767080Y-1343220D01*
X739580Y-1315720D02*
X794580Y-1315720D01*
X863600Y-988500D02*
X863600Y-1043500D01*
X836100Y-1016000D02*
X891100Y-1016000D01*
X1066800Y-988500D02*
X1066800Y-1043500D01*
X1039300Y-1016000D02*
X1094300Y-1016000D01*
X1117600Y408500D02*
X1117600Y353500D01*
X1090100Y381000D02*
X1145100Y381000D01*
X1188720Y-2817300D02*
X1188720Y-2872300D01*
X1161220Y-2844800D02*
X1216220Y-2844800D01*
X1244600Y-988500D02*
X1244600Y-1043500D01*
X1217100Y-1016000D02*
X1272100Y-1016000D01*
X1397000Y-988500D02*
X1397000Y-1043500D01*
X1369500Y-1016000D02*
X1424500Y-1016000D01*
X1498600Y357700D02*
X1498600Y302700D01*
X1471100Y330200D02*
X1526100Y330200D01*
X1549400Y-988500D02*
X1549400Y-1043500D01*
X1521900Y-1016000D02*
X1576900Y-1016000D01*
X1727200Y-988500D02*
X1727200Y-1043500D01*
X1699700Y-1016000D02*
X1754700Y-1016000D01*
X1828800Y357700D02*
X1828800Y302700D01*
X1801300Y330200D02*
X1856300Y330200D01*
X1955800Y-988500D02*
X1955800Y-1043500D01*
X1928300Y-1016000D02*
X1983300Y-1016000D01*
X2133600Y-988500D02*
X2133600Y-1043500D01*
X2106100Y-1016000D02*
X2161100Y-1016000D01*
X2184400Y383100D02*
X2184400Y328100D01*
X2156900Y355600D02*
X2211900Y355600D01*
X2311400Y-988500D02*
X2311400Y-1043500D01*
X2283900Y-1016000D02*
X2338900Y-1016000D01*
X2362200Y-328100D02*
X2362200Y-383100D01*
X2334700Y-355600D02*
X2389700Y-355600D01*
X2362200Y-582100D02*
X2362200Y-637100D01*
X2334700Y-609600D02*
X2389700Y-609600D01*
X2514600Y-988500D02*
X2514600Y-1043500D01*
X2487100Y-1016000D02*
X2542100Y-1016000D01*
X2540000Y383100D02*
X2540000Y328100D01*
X2512500Y355600D02*
X2567500Y355600D01*
X2692400Y-988500D02*
X2692400Y-1043500D01*
X2664900Y-1016000D02*
X2719900Y-1016000D01*
X2844800Y-963100D02*
X2844800Y-1018100D01*
X2817300Y-990600D02*
X2872300Y-990600D01*
X2997200Y-1013900D02*
X2997200Y-1068900D01*
X2969700Y-1041400D02*
X3024700Y-1041400D01*
X3937000Y-1242500D02*
X3937000Y-1297500D01*
X3909500Y-1270000D02*
X3964500Y-1270000D01*
X3962400Y-734500D02*
X3962400Y-789500D01*
X3934900Y-762000D02*
X3989900Y-762000D01*
X4089400Y-937700D02*
X4089400Y-992700D01*
X4061900Y-965200D02*
X4116900Y-965200D01*
X4292600Y-937700D02*
X4292600Y-992700D01*
X4265100Y-965200D02*
X4320100Y-965200D01*
X4394200Y-937700D02*
X4394200Y-992700D01*
X4366700Y-965200D02*
X4421700Y-965200D01*
X4597400Y-937700D02*
X4597400Y-992700D01*
X4569900Y-965200D02*
X4624900Y-965200D01*
X4826000Y-963100D02*
X4826000Y-1018100D01*
X4798500Y-990600D02*
X4853500Y-990600D01*
X5003800Y-937700D02*
X5003800Y-992700D01*
X4976300Y-965200D02*
X5031300Y-965200D01*
X5181600Y-937700D02*
X5181600Y-992700D01*
X5154100Y-965200D02*
X5209100Y-965200D01*
X5410200Y-937700D02*
X5410200Y-992700D01*
X5382700Y-965200D02*
X5437700Y-965200D01*
X5537200Y230700D02*
X5537200Y175700D01*
X5509700Y203200D02*
X5564700Y203200D01*
X5588000Y-937700D02*
X5588000Y-992700D01*
X5560500Y-965200D02*
X5615500Y-965200D01*
X5765800Y459300D02*
X5765800Y404300D01*
X5738300Y431800D02*
X5793300Y431800D01*
X5867400Y-937700D02*
X5867400Y-992700D01*
X5839900Y-965200D02*
X5894900Y-965200D01*
X6045200Y-937700D02*
X6045200Y-992700D01*
X6017700Y-965200D02*
X6072700Y-965200D01*
X6096000Y408500D02*
X6096000Y353500D01*
X6068500Y381000D02*
X6123500Y381000D01*
X6273800Y-937700D02*
X6273800Y-992700D01*
X6246300Y-965200D02*
X6301300Y-965200D01*
X6451600Y433900D02*
X6451600Y378900D01*
X6424100Y406400D02*
X6479100Y406400D01*
X6527800Y-937700D02*
X6527800Y-992700D01*
X6500300Y-965200D02*
X6555300Y-965200D01*
X6731000Y-937700D02*
X6731000Y-992700D01*
X6703500Y-965200D02*
X6758500Y-965200D01*
X6807200Y459300D02*
X6807200Y404300D01*
X6779700Y431800D02*
X6834700Y431800D01*
X6959600Y-937700D02*
X6959600Y-992700D01*
X6932100Y-965200D02*
X6987100Y-965200D01*
X7137400Y433900D02*
X7137400Y378900D01*
X7109900Y406400D02*
X7164900Y406400D01*
X7264400Y-937700D02*
X7264400Y-992700D01*
X7236900Y-965200D02*
X7291900Y-965200D01*
X7518400Y-937700D02*
X7518400Y-992700D01*
X7490900Y-965200D02*
X7545900Y-965200D01*
X7717120Y433900D02*
X7717120Y378900D01*
X7689620Y406400D02*
X7744620Y406400D01*
X8449639Y383100D02*
X8449639Y328100D01*
X8422139Y355600D02*
X8477139Y355600D01*
X5032085Y-2791805D02*
X5032085Y-2735236D01*
X4975516Y-2735236D01*
X4975516Y-2791805D01*
X5032085Y-2791805D01*
X5682324Y-2791805D02*
X5682324Y-2735236D01*
X5625755Y-2735236D01*
X5625755Y-2791805D01*
X5682324Y-2791805D01*
X6339964Y-2455365D02*
X6339964Y-2398796D01*
X6283395Y-2398796D01*
X6283395Y-2455365D01*
X6339964Y-2455365D01*
X6339964Y-3217364D02*
X6339964Y-3160795D01*
X6283395Y-3160795D01*
X6283395Y-3217364D01*
X6339964Y-3217364D01*
X6593964Y-2455365D02*
X6593964Y-2398796D01*
X6537395Y-2398796D01*
X6537395Y-2455365D01*
X6593964Y-2455365D01*
X6593964Y-3217364D02*
X6593964Y-3160795D01*
X6537395Y-3160795D01*
X6537395Y-3217364D01*
X6593964Y-3217364D01*
X6847964Y-2455365D02*
X6847964Y-2398796D01*
X6791395Y-2398796D01*
X6791395Y-2455365D01*
X6847964Y-2455365D01*
X6847964Y-3217364D02*
X6847964Y-3160795D01*
X6791395Y-3160795D01*
X6791395Y-3217364D01*
X6847964Y-3217364D01*
X7101964Y-2455365D02*
X7101964Y-2398796D01*
X7045395Y-2398796D01*
X7045395Y-2455365D01*
X7101964Y-2455365D01*
X7101964Y-3217364D02*
X7101964Y-3160795D01*
X7045395Y-3160795D01*
X7045395Y-3217364D01*
X7101964Y-3217364D01*
X7977680Y-2400460D02*
X8025180Y-2352960D01*
X7977680Y-2305460D01*
X7930180Y-2352960D01*
X7977680Y-2400460D01*
X7977680Y-2654460D02*
X8025180Y-2606960D01*
X7977680Y-2559460D01*
X7930180Y-2606960D01*
X7977680Y-2654460D01*
X7977680Y-2908460D02*
X8025180Y-2860960D01*
X7977680Y-2813460D01*
X7930180Y-2860960D01*
X7977680Y-2908460D01*
X8231680Y-2400460D02*
X8279180Y-2352960D01*
X8231680Y-2305460D01*
X8184180Y-2352960D01*
X8231680Y-2400460D01*
X8231680Y-2654460D02*
X8279180Y-2606960D01*
X8231680Y-2559460D01*
X8184180Y-2606960D01*
X8231680Y-2654460D01*
X8231680Y-2908460D02*
X8279180Y-2860960D01*
X8231680Y-2813460D01*
X8184180Y-2860960D01*
X8231680Y-2908460D01*
X112560Y-5299240D02*
X212560Y-5399240D01*
X212560Y-5299240D02*
X112560Y-5399240D01*
X212560Y-5349240D02*
G75*
G03X212560Y-5349240I-50000J0D01*
G01*
X366560Y-5299240D02*
X466560Y-5399240D01*
X466560Y-5299240D02*
X366560Y-5399240D01*
X466560Y-5349240D02*
G75*
G03X466560Y-5349240I-50000J0D01*
G01*
X620560Y-5299240D02*
X720560Y-5399240D01*
X720560Y-5299240D02*
X620560Y-5399240D01*
X720560Y-5349240D02*
G75*
G03X720560Y-5349240I-50000J0D01*
G01*
X-281648Y-4986312D02*
X-181648Y-5086312D01*
X-181648Y-4986312D02*
X-281648Y-5086312D01*
X-181648Y-5036312D02*
G75*
G03X-181648Y-5036312I-50000J0D01*
G01*
X-27648Y-4986312D02*
X72352Y-5086312D01*
X72352Y-4986312D02*
X-27648Y-5086312D01*
X72352Y-5036312D02*
G75*
G03X72352Y-5036312I-50000J0D01*
G01*
X226352Y-4986312D02*
X326352Y-5086312D01*
X326352Y-4986312D02*
X226352Y-5086312D01*
X326352Y-5036312D02*
G75*
G03X326352Y-5036312I-50000J0D01*
G01*
X480352Y-4986312D02*
X580352Y-5086312D01*
X580352Y-4986312D02*
X480352Y-5086312D01*
X580352Y-5036312D02*
G75*
G03X580352Y-5036312I-50000J0D01*
G01*
X734352Y-4986312D02*
X834352Y-5086312D01*
X834352Y-4986312D02*
X734352Y-5086312D01*
X834352Y-5036312D02*
G75*
G03X834352Y-5036312I-50000J0D01*
G01*
X1596000Y-3628000D02*
X1706000Y-3738000D01*
X1706000Y-3628000D02*
X1596000Y-3738000D01*
X1651000Y-3628000D02*
X1651000Y-3738000D01*
X1596000Y-3683000D02*
X1706000Y-3683000D01*
X1596000Y-5152000D02*
X1706000Y-5262000D01*
X1706000Y-5152000D02*
X1596000Y-5262000D01*
X1651000Y-5152000D02*
X1651000Y-5262000D01*
X1596000Y-5207000D02*
X1706000Y-5207000D01*
X1850000Y-3628000D02*
X1960000Y-3738000D01*
X1960000Y-3628000D02*
X1850000Y-3738000D01*
X1905000Y-3628000D02*
X1905000Y-3738000D01*
X1850000Y-3683000D02*
X1960000Y-3683000D01*
X1850000Y-3882000D02*
X1960000Y-3992000D01*
X1960000Y-3882000D02*
X1850000Y-3992000D01*
X1905000Y-3882000D02*
X1905000Y-3992000D01*
X1850000Y-3937000D02*
X1960000Y-3937000D01*
X1850000Y-5152000D02*
X1960000Y-5262000D01*
X1960000Y-5152000D02*
X1850000Y-5262000D01*
X1905000Y-5152000D02*
X1905000Y-5262000D01*
X1850000Y-5207000D02*
X1960000Y-5207000D01*
X2104000Y-3628000D02*
X2214000Y-3738000D01*
X2214000Y-3628000D02*
X2104000Y-3738000D01*
X2159000Y-3628000D02*
X2159000Y-3738000D01*
X2104000Y-3683000D02*
X2214000Y-3683000D01*
X2104000Y-5152000D02*
X2214000Y-5262000D01*
X2214000Y-5152000D02*
X2104000Y-5262000D01*
X2159000Y-5152000D02*
X2159000Y-5262000D01*
X2104000Y-5207000D02*
X2214000Y-5207000D01*
X2358000Y-3628000D02*
X2468000Y-3738000D01*
X2468000Y-3628000D02*
X2358000Y-3738000D01*
X2413000Y-3628000D02*
X2413000Y-3738000D01*
X2358000Y-3683000D02*
X2468000Y-3683000D01*
X2358000Y-3882000D02*
X2468000Y-3992000D01*
X2468000Y-3882000D02*
X2358000Y-3992000D01*
X2413000Y-3882000D02*
X2413000Y-3992000D01*
X2358000Y-3937000D02*
X2468000Y-3937000D01*
X2358000Y-5152000D02*
X2468000Y-5262000D01*
X2468000Y-5152000D02*
X2358000Y-5262000D01*
X2413000Y-5152000D02*
X2413000Y-5262000D01*
X2358000Y-5207000D02*
X2468000Y-5207000D01*
X2612000Y-3628000D02*
X2722000Y-3738000D01*
X2722000Y-3628000D02*
X2612000Y-3738000D01*
X2667000Y-3628000D02*
X2667000Y-3738000D01*
X2612000Y-3683000D02*
X2722000Y-3683000D01*
X2612000Y-3882000D02*
X2722000Y-3992000D01*
X2722000Y-3882000D02*
X2612000Y-3992000D01*
X2667000Y-3882000D02*
X2667000Y-3992000D01*
X2612000Y-3937000D02*
X2722000Y-3937000D01*
X2612000Y-5152000D02*
X2722000Y-5262000D01*
X2722000Y-5152000D02*
X2612000Y-5262000D01*
X2667000Y-5152000D02*
X2667000Y-5262000D01*
X2612000Y-5207000D02*
X2722000Y-5207000D01*
X2866000Y-3628000D02*
X2976000Y-3738000D01*
X2976000Y-3628000D02*
X2866000Y-3738000D01*
X2921000Y-3628000D02*
X2921000Y-3738000D01*
X2866000Y-3683000D02*
X2976000Y-3683000D01*
X2866000Y-3882000D02*
X2976000Y-3992000D01*
X2976000Y-3882000D02*
X2866000Y-3992000D01*
X2921000Y-3882000D02*
X2921000Y-3992000D01*
X2866000Y-3937000D02*
X2976000Y-3937000D01*
X2866000Y-5152000D02*
X2976000Y-5262000D01*
X2976000Y-5152000D02*
X2866000Y-5262000D01*
X2921000Y-5152000D02*
X2921000Y-5262000D01*
X2866000Y-5207000D02*
X2976000Y-5207000D01*
X3120000Y-3628000D02*
X3230000Y-3738000D01*
X3230000Y-3628000D02*
X3120000Y-3738000D01*
X3175000Y-3628000D02*
X3175000Y-3738000D01*
X3120000Y-3683000D02*
X3230000Y-3683000D01*
X3120000Y-4136000D02*
X3230000Y-4246000D01*
X3230000Y-4136000D02*
X3120000Y-4246000D01*
X3175000Y-4136000D02*
X3175000Y-4246000D01*
X3120000Y-4191000D02*
X3230000Y-4191000D01*
X3120000Y-4390000D02*
X3230000Y-4500000D01*
X3230000Y-4390000D02*
X3120000Y-4500000D01*
X3175000Y-4390000D02*
X3175000Y-4500000D01*
X3120000Y-4445000D02*
X3230000Y-4445000D01*
X3120000Y-5152000D02*
X3230000Y-5262000D01*
X3230000Y-5152000D02*
X3120000Y-5262000D01*
X3175000Y-5152000D02*
X3175000Y-5262000D01*
X3120000Y-5207000D02*
X3230000Y-5207000D01*
X3374000Y-3628000D02*
X3484000Y-3738000D01*
X3484000Y-3628000D02*
X3374000Y-3738000D01*
X3429000Y-3628000D02*
X3429000Y-3738000D01*
X3374000Y-3683000D02*
X3484000Y-3683000D01*
X3374000Y-4136000D02*
X3484000Y-4246000D01*
X3484000Y-4136000D02*
X3374000Y-4246000D01*
X3429000Y-4136000D02*
X3429000Y-4246000D01*
X3374000Y-4191000D02*
X3484000Y-4191000D01*
X3374000Y-4390000D02*
X3484000Y-4500000D01*
X3484000Y-4390000D02*
X3374000Y-4500000D01*
X3429000Y-4390000D02*
X3429000Y-4500000D01*
X3374000Y-4445000D02*
X3484000Y-4445000D01*
X3374000Y-5152000D02*
X3484000Y-5262000D01*
X3484000Y-5152000D02*
X3374000Y-5262000D01*
X3429000Y-5152000D02*
X3429000Y-5262000D01*
X3374000Y-5207000D02*
X3484000Y-5207000D01*
X3628000Y-3628000D02*
X3738000Y-3738000D01*
X3738000Y-3628000D02*
X3628000Y-3738000D01*
X3683000Y-3628000D02*
X3683000Y-3738000D01*
X3628000Y-3683000D02*
X3738000Y-3683000D01*
X3628000Y-4136000D02*
X3738000Y-4246000D01*
X3738000Y-4136000D02*
X3628000Y-4246000D01*
X3683000Y-4136000D02*
X3683000Y-4246000D01*
X3628000Y-4191000D02*
X3738000Y-4191000D01*
X3628000Y-4390000D02*
X3738000Y-4500000D01*
X3738000Y-4390000D02*
X3628000Y-4500000D01*
X3683000Y-4390000D02*
X3683000Y-4500000D01*
X3628000Y-4445000D02*
X3738000Y-4445000D01*
X3628000Y-5152000D02*
X3738000Y-5262000D01*
X3738000Y-5152000D02*
X3628000Y-5262000D01*
X3683000Y-5152000D02*
X3683000Y-5262000D01*
X3628000Y-5207000D02*
X3738000Y-5207000D01*
X3882000Y-3628000D02*
X3992000Y-3738000D01*
X3992000Y-3628000D02*
X3882000Y-3738000D01*
X3937000Y-3628000D02*
X3937000Y-3738000D01*
X3882000Y-3683000D02*
X3992000Y-3683000D01*
X3882000Y-4136000D02*
X3992000Y-4246000D01*
X3992000Y-4136000D02*
X3882000Y-4246000D01*
X3937000Y-4136000D02*
X3937000Y-4246000D01*
X3882000Y-4191000D02*
X3992000Y-4191000D01*
X3882000Y-4390000D02*
X3992000Y-4500000D01*
X3992000Y-4390000D02*
X3882000Y-4500000D01*
X3937000Y-4390000D02*
X3937000Y-4500000D01*
X3882000Y-4445000D02*
X3992000Y-4445000D01*
X3882000Y-5152000D02*
X3992000Y-5262000D01*
X3992000Y-5152000D02*
X3882000Y-5262000D01*
X3937000Y-5152000D02*
X3937000Y-5262000D01*
X3882000Y-5207000D02*
X3992000Y-5207000D01*
X4136000Y-3628000D02*
X4246000Y-3738000D01*
X4246000Y-3628000D02*
X4136000Y-3738000D01*
X4191000Y-3628000D02*
X4191000Y-3738000D01*
X4136000Y-3683000D02*
X4246000Y-3683000D01*
X4136000Y-4136000D02*
X4246000Y-4246000D01*
X4246000Y-4136000D02*
X4136000Y-4246000D01*
X4191000Y-4136000D02*
X4191000Y-4246000D01*
X4136000Y-4191000D02*
X4246000Y-4191000D01*
X4136000Y-4390000D02*
X4246000Y-4500000D01*
X4246000Y-4390000D02*
X4136000Y-4500000D01*
X4191000Y-4390000D02*
X4191000Y-4500000D01*
X4136000Y-4445000D02*
X4246000Y-4445000D01*
X4136000Y-5152000D02*
X4246000Y-5262000D01*
X4246000Y-5152000D02*
X4136000Y-5262000D01*
X4191000Y-5152000D02*
X4191000Y-5262000D01*
X4136000Y-5207000D02*
X4246000Y-5207000D01*
X4390000Y-3628000D02*
X4500000Y-3738000D01*
X4500000Y-3628000D02*
X4390000Y-3738000D01*
X4445000Y-3628000D02*
X4445000Y-3738000D01*
X4390000Y-3683000D02*
X4500000Y-3683000D01*
X4390000Y-4136000D02*
X4500000Y-4246000D01*
X4500000Y-4136000D02*
X4390000Y-4246000D01*
X4445000Y-4136000D02*
X4445000Y-4246000D01*
X4390000Y-4191000D02*
X4500000Y-4191000D01*
X4390000Y-4390000D02*
X4500000Y-4500000D01*
X4500000Y-4390000D02*
X4390000Y-4500000D01*
X4445000Y-4390000D02*
X4445000Y-4500000D01*
X4390000Y-4445000D02*
X4500000Y-4445000D01*
X4390000Y-5152000D02*
X4500000Y-5262000D01*
X4500000Y-5152000D02*
X4390000Y-5262000D01*
X4445000Y-5152000D02*
X4445000Y-5262000D01*
X4390000Y-5207000D02*
X4500000Y-5207000D01*
X4644000Y-3628000D02*
X4754000Y-3738000D01*
X4754000Y-3628000D02*
X4644000Y-3738000D01*
X4699000Y-3628000D02*
X4699000Y-3738000D01*
X4644000Y-3683000D02*
X4754000Y-3683000D01*
X4644000Y-4136000D02*
X4754000Y-4246000D01*
X4754000Y-4136000D02*
X4644000Y-4246000D01*
X4699000Y-4136000D02*
X4699000Y-4246000D01*
X4644000Y-4191000D02*
X4754000Y-4191000D01*
X4644000Y-4390000D02*
X4754000Y-4500000D01*
X4754000Y-4390000D02*
X4644000Y-4500000D01*
X4699000Y-4390000D02*
X4699000Y-4500000D01*
X4644000Y-4445000D02*
X4754000Y-4445000D01*
X4644000Y-5152000D02*
X4754000Y-5262000D01*
X4754000Y-5152000D02*
X4644000Y-5262000D01*
X4699000Y-5152000D02*
X4699000Y-5262000D01*
X4644000Y-5207000D02*
X4754000Y-5207000D01*
X4898000Y-3628000D02*
X5008000Y-3738000D01*
X5008000Y-3628000D02*
X4898000Y-3738000D01*
X4953000Y-3628000D02*
X4953000Y-3738000D01*
X4898000Y-3683000D02*
X5008000Y-3683000D01*
X4898000Y-3882000D02*
X5008000Y-3992000D01*
X5008000Y-3882000D02*
X4898000Y-3992000D01*
X4953000Y-3882000D02*
X4953000Y-3992000D01*
X4898000Y-3937000D02*
X5008000Y-3937000D01*
X4898000Y-4136000D02*
X5008000Y-4246000D01*
X5008000Y-4136000D02*
X4898000Y-4246000D01*
X4953000Y-4136000D02*
X4953000Y-4246000D01*
X4898000Y-4191000D02*
X5008000Y-4191000D01*
X4898000Y-4390000D02*
X5008000Y-4500000D01*
X5008000Y-4390000D02*
X4898000Y-4500000D01*
X4953000Y-4390000D02*
X4953000Y-4500000D01*
X4898000Y-4445000D02*
X5008000Y-4445000D01*
X4898000Y-4644000D02*
X5008000Y-4754000D01*
X5008000Y-4644000D02*
X4898000Y-4754000D01*
X4953000Y-4644000D02*
X4953000Y-4754000D01*
X4898000Y-4699000D02*
X5008000Y-4699000D01*
X4898000Y-4898000D02*
X5008000Y-5008000D01*
X5008000Y-4898000D02*
X4898000Y-5008000D01*
X4953000Y-4898000D02*
X4953000Y-5008000D01*
X4898000Y-4953000D02*
X5008000Y-4953000D01*
X4898000Y-5152000D02*
X5008000Y-5262000D01*
X5008000Y-5152000D02*
X4898000Y-5262000D01*
X4953000Y-5152000D02*
X4953000Y-5262000D01*
X4898000Y-5207000D02*
X5008000Y-5207000D01*
X5169160Y-4217040D02*
X5289160Y-4337040D01*
X5289160Y-4217040D02*
X5169160Y-4337040D01*
X5271587Y-4319467D02*
X5271587Y-4234613D01*
X5186733Y-4234613D01*
X5186733Y-4319467D01*
X5271587Y-4319467D01*
X5419160Y-3967040D02*
X5539160Y-4087040D01*
X5539160Y-3967040D02*
X5419160Y-4087040D01*
X5521587Y-4069467D02*
X5521587Y-3984613D01*
X5436733Y-3984613D01*
X5436733Y-4069467D01*
X5521587Y-4069467D01*
X5419160Y-5217040D02*
X5539160Y-5337040D01*
X5539160Y-5217040D02*
X5419160Y-5337040D01*
X5521587Y-5319467D02*
X5521587Y-5234613D01*
X5436733Y-5234613D01*
X5436733Y-5319467D01*
X5521587Y-5319467D01*
X5669160Y-5217040D02*
X5789160Y-5337040D01*
X5789160Y-5217040D02*
X5669160Y-5337040D01*
X5771587Y-5319467D02*
X5771587Y-5234613D01*
X5686733Y-5234613D01*
X5686733Y-5319467D01*
X5771587Y-5319467D01*
X5919160Y-4217040D02*
X6039160Y-4337040D01*
X6039160Y-4217040D02*
X5919160Y-4337040D01*
X6021587Y-4319467D02*
X6021587Y-4234613D01*
X5936733Y-4234613D01*
X5936733Y-4319467D01*
X6021587Y-4319467D01*
X6169160Y-5217040D02*
X6289160Y-5337040D01*
X6289160Y-5217040D02*
X6169160Y-5337040D01*
X6271587Y-5319467D02*
X6271587Y-5234613D01*
X6186733Y-5234613D01*
X6186733Y-5319467D01*
X6271587Y-5319467D01*
X6419160Y-3967040D02*
X6539160Y-4087040D01*
X6539160Y-3967040D02*
X6419160Y-4087040D01*
X6521587Y-4069467D02*
X6521587Y-3984613D01*
X6436733Y-3984613D01*
X6436733Y-4069467D01*
X6521587Y-4069467D01*
X6419160Y-5217040D02*
X6539160Y-5337040D01*
X6539160Y-5217040D02*
X6419160Y-5337040D01*
X6521587Y-5319467D02*
X6521587Y-5234613D01*
X6436733Y-5234613D01*
X6436733Y-5319467D01*
X6521587Y-5319467D01*
X6669160Y-4217040D02*
X6789160Y-4337040D01*
X6789160Y-4217040D02*
X6669160Y-4337040D01*
X6771587Y-4319467D02*
X6771587Y-4234613D01*
X6686733Y-4234613D01*
X6686733Y-4319467D01*
X6771587Y-4319467D01*
X6977640Y-4217040D02*
X7097640Y-4337040D01*
X7097640Y-4217040D02*
X6977640Y-4337040D01*
X7080067Y-4319467D02*
X7080067Y-4234613D01*
X6995213Y-4234613D01*
X6995213Y-4319467D01*
X7080067Y-4319467D01*
X7227640Y-3967040D02*
X7347640Y-4087040D01*
X7347640Y-3967040D02*
X7227640Y-4087040D01*
X7330067Y-4069467D02*
X7330067Y-3984613D01*
X7245213Y-3984613D01*
X7245213Y-4069467D01*
X7330067Y-4069467D01*
X7227640Y-5217040D02*
X7347640Y-5337040D01*
X7347640Y-5217040D02*
X7227640Y-5337040D01*
X7330067Y-5319467D02*
X7330067Y-5234613D01*
X7245213Y-5234613D01*
X7245213Y-5319467D01*
X7330067Y-5319467D01*
X7477640Y-5217040D02*
X7597640Y-5337040D01*
X7597640Y-5217040D02*
X7477640Y-5337040D01*
X7580067Y-5319467D02*
X7580067Y-5234613D01*
X7495213Y-5234613D01*
X7495213Y-5319467D01*
X7580067Y-5319467D01*
X7727640Y-4217040D02*
X7847640Y-4337040D01*
X7847640Y-4217040D02*
X7727640Y-4337040D01*
X7830067Y-4319467D02*
X7830067Y-4234613D01*
X7745213Y-4234613D01*
X7745213Y-4319467D01*
X7830067Y-4319467D01*
X7977640Y-5217040D02*
X8097640Y-5337040D01*
X8097640Y-5217040D02*
X7977640Y-5337040D01*
X8080067Y-5319467D02*
X8080067Y-5234613D01*
X7995213Y-5234613D01*
X7995213Y-5319467D01*
X8080067Y-5319467D01*
X8227640Y-3967040D02*
X8347640Y-4087040D01*
X8347640Y-3967040D02*
X8227640Y-4087040D01*
X8330067Y-4069467D02*
X8330067Y-3984613D01*
X8245213Y-3984613D01*
X8245213Y-4069467D01*
X8330067Y-4069467D01*
X8227640Y-5217040D02*
X8347640Y-5337040D01*
X8347640Y-5217040D02*
X8227640Y-5337040D01*
X8330067Y-5319467D02*
X8330067Y-5234613D01*
X8245213Y-5234613D01*
X8245213Y-5319467D01*
X8330067Y-5319467D01*
X8477640Y-4217040D02*
X8597640Y-4337040D01*
X8597640Y-4217040D02*
X8477640Y-4337040D01*
X8580067Y-4319467D02*
X8580067Y-4234613D01*
X8495213Y-4234613D01*
X8495213Y-4319467D01*
X8580067Y-4319467D01*
X2952600Y1644800D02*
X3092600Y1504800D01*
X3092600Y1644800D02*
X2952600Y1504800D01*
X3022600Y1504800D02*
X3092600Y1574800D01*
X3022600Y1644800D01*
X2952600Y1574800D01*
X3022600Y1504800D01*
X3943200Y1644800D02*
X4083200Y1504800D01*
X4083200Y1644800D02*
X3943200Y1504800D01*
X4013200Y1504800D02*
X4083200Y1574800D01*
X4013200Y1644800D01*
X3943200Y1574800D01*
X4013200Y1504800D01*
X7443320Y1619400D02*
X7583320Y1479400D01*
X7583320Y1619400D02*
X7443320Y1479400D01*
X7513320Y1479400D02*
X7583320Y1549400D01*
X7513320Y1619400D01*
X7443320Y1549400D01*
X7513320Y1479400D01*
X1776780Y76000D02*
X1776780Y-76000D01*
X1700780Y0D02*
X1852780Y0D01*
X1852780Y0D02*
G75*
G03X1852780Y0I-76000J0D01*
G01*
X2172780Y76000D02*
X2172780Y-76000D01*
X2096780Y0D02*
X2248780Y0D01*
X2248780Y0D02*
G75*
G03X2248780Y0I-76000J0D01*
G01*
X2568780Y76000D02*
X2568780Y-76000D01*
X2492780Y0D02*
X2644780Y0D01*
X2644780Y0D02*
G75*
G03X2644780Y0I-76000J0D01*
G01*
X2964780Y76000D02*
X2964780Y-76000D01*
X2888780Y0D02*
X3040780Y0D01*
X3040780Y0D02*
G75*
G03X3040780Y0I-76000J0D01*
G01*
X191820Y76000D02*
X191820Y-76000D01*
X115820Y0D02*
X267820Y0D01*
X267820Y0D02*
G75*
G03X267820Y0I-76000J0D01*
G01*
X587820Y76000D02*
X587820Y-76000D01*
X511820Y0D02*
X663820Y0D01*
X663820Y0D02*
G75*
G03X663820Y0I-76000J0D01*
G01*
X983820Y76000D02*
X983820Y-76000D01*
X907820Y0D02*
X1059820Y0D01*
X1059820Y0D02*
G75*
G03X1059820Y0I-76000J0D01*
G01*
X1379820Y76000D02*
X1379820Y-76000D01*
X1303820Y0D02*
X1455820Y0D01*
X1455820Y0D02*
G75*
G03X1455820Y0I-76000J0D01*
G01*
X8519520Y76000D02*
X8519520Y-76000D01*
X8443520Y0D02*
X8595520Y0D01*
X8595520Y0D02*
G75*
G03X8595520Y0I-76000J0D01*
G01*
X6935520Y76000D02*
X6935520Y-76000D01*
X6859520Y0D02*
X7011520Y0D01*
X7011520Y0D02*
G75*
G03X7011520Y0I-76000J0D01*
G01*
X7331520Y76000D02*
X7331520Y-76000D01*
X7255520Y0D02*
X7407520Y0D01*
X7407520Y0D02*
G75*
G03X7407520Y0I-76000J0D01*
G01*
X7727520Y76000D02*
X7727520Y-76000D01*
X7651520Y0D02*
X7803520Y0D01*
X7803520Y0D02*
G75*
G03X7803520Y0I-76000J0D01*
G01*
X8123520Y76000D02*
X8123520Y-76000D01*
X8047520Y0D02*
X8199520Y0D01*
X8199520Y0D02*
G75*
G03X8199520Y0I-76000J0D01*
G01*
X-1393140Y76000D02*
X-1393140Y-76000D01*
X-1469140Y0D02*
X-1317140Y0D01*
X-1317140Y0D02*
G75*
G03X-1317140Y0I-76000J0D01*
G01*
X-997140Y76000D02*
X-997140Y-76000D01*
X-1073140Y0D02*
X-921140Y0D01*
X-921140Y0D02*
G75*
G03X-921140Y0I-76000J0D01*
G01*
X-601140Y76000D02*
X-601140Y-76000D01*
X-677140Y0D02*
X-525140Y0D01*
X-525140Y0D02*
G75*
G03X-525140Y0I-76000J0D01*
G01*
X-205140Y76000D02*
X-205140Y-76000D01*
X-281140Y0D02*
X-129140Y0D01*
X-129140Y0D02*
G75*
G03X-129140Y0I-76000J0D01*
G01*
X3765600Y76000D02*
X3765600Y-76000D01*
X3689600Y0D02*
X3841600Y0D01*
X3841600Y0D02*
G75*
G03X3841600Y0I-76000J0D01*
G01*
X4161600Y76000D02*
X4161600Y-76000D01*
X4085600Y0D02*
X4237600Y0D01*
X4237600Y0D02*
G75*
G03X4237600Y0I-76000J0D01*
G01*
X4557600Y76000D02*
X4557600Y-76000D01*
X4481600Y0D02*
X4633600Y0D01*
X4633600Y0D02*
G75*
G03X4633600Y0I-76000J0D01*
G01*
X4953600Y76000D02*
X4953600Y-76000D01*
X4877600Y0D02*
X5029600Y0D01*
X5029600Y0D02*
G75*
G03X5029600Y0I-76000J0D01*
G01*
X5905500Y1663500D02*
X5905500Y1511500D01*
X5829500Y1587500D02*
X5981500Y1587500D01*
X5981500Y1587500D02*
G75*
G03X5981500Y1587500I-76000J0D01*
G01*
X5350560Y76000D02*
X5350560Y-76000D01*
X5274560Y0D02*
X5426560Y0D01*
X5426560Y0D02*
G75*
G03X5426560Y0I-76000J0D01*
G01*
X5746560Y76000D02*
X5746560Y-76000D01*
X5670560Y0D02*
X5822560Y0D01*
X5822560Y0D02*
G75*
G03X5822560Y0I-76000J0D01*
G01*
X6142560Y76000D02*
X6142560Y-76000D01*
X6066560Y0D02*
X6218560Y0D01*
X6218560Y0D02*
G75*
G03X6218560Y0I-76000J0D01*
G01*
X6538560Y76000D02*
X6538560Y-76000D01*
X6462560Y0D02*
X6614560Y0D01*
X6614560Y0D02*
G75*
G03X6614560Y0I-76000J0D01*
G01*
X2778687Y-2126415D02*
X2778687Y-2013277D01*
X2665549Y-2013277D01*
X2665549Y-2126415D01*
X2778687Y-2126415D01*
X2802118Y-2069846D02*
G75*
G03X2802118Y-2069846I-80000J0D01*
G01*
X3540687Y-2126415D02*
X3540687Y-2013277D01*
X3427549Y-2013277D01*
X3427549Y-2126415D01*
X3540687Y-2126415D01*
X3564118Y-2069846D02*
G75*
G03X3564118Y-2069846I-80000J0D01*
G01*
X3411220Y-3329305D02*
X3574415Y-3166110D01*
X3411220Y-3002915D01*
X3248025Y-3166110D01*
X3411220Y-3329305D01*
X3574415Y-3166110D02*
G75*
G03X3574415Y-3166110I-163195J0D01*
G01*
X-1087120Y-5126355D02*
X-923925Y-4963160D01*
X-1087120Y-4799965D01*
X-1250315Y-4963160D01*
X-1087120Y-5126355D01*
X-923925Y-4963160D02*
G75*
G03X-923925Y-4963160I-163195J0D01*
G01*
X8128000Y776605D02*
X8291195Y939800D01*
X8128000Y1102995D01*
X7964805Y939800D01*
X8128000Y776605D01*
X8291195Y939800D02*
G75*
G03X8291195Y939800I-163195J0D01*
G01*
X8122920Y-920115D02*
X8286115Y-756920D01*
X8122920Y-593725D01*
X7959725Y-756920D01*
X8122920Y-920115D01*
X8286115Y-756920D02*
G75*
G03X8286115Y-756920I-163195J0D01*
G01*
X-1148080Y-2433955D02*
X-984885Y-2270760D01*
X-1148080Y-2107565D01*
X-1311275Y-2270760D01*
X-1148080Y-2433955D01*
X-984885Y-2270760D02*
G75*
G03X-984885Y-2270760I-163195J0D01*
G01*
X-1183640Y913765D02*
X-1020445Y1076960D01*
X-1183640Y1240155D01*
X-1346835Y1076960D01*
X-1183640Y913765D01*
X-1020445Y1076960D02*
G75*
G03X-1020445Y1076960I-163195J0D01*
G01*
X3429000Y776605D02*
X3592195Y939800D01*
X3429000Y1102995D01*
X3265805Y939800D01*
X3429000Y776605D01*
X3592195Y939800D02*
G75*
G03X3592195Y939800I-163195J0D01*
G01*
D11*
X286429Y-465714D02*
X286429Y-165714D01*
X357857Y-165714D01*
X400714Y-180000D01*
X429286Y-208571D01*
X443571Y-237143D01*
X457857Y-294286D01*
X457857Y-337143D01*
X443571Y-394286D01*
X429286Y-422857D01*
X400714Y-451428D01*
X357857Y-465714D01*
X286429Y-465714D01*
X586429Y-465714D02*
X586429Y-265714D01*
X586429Y-322857D02*
X600714Y-294286D01*
X615000Y-280000D01*
X643571Y-265714D01*
X672143Y-265714D01*
X772143Y-465714D02*
X772143Y-265714D01*
X772143Y-165714D02*
X757857Y-180000D01*
X772143Y-194286D01*
X786428Y-180000D01*
X772143Y-165714D01*
X772143Y-194286D01*
X957857Y-465714D02*
X929286Y-451428D01*
X915000Y-422857D01*
X915000Y-165714D01*
X1115000Y-465714D02*
X1086429Y-451428D01*
X1072143Y-422857D01*
X1072143Y-165714D01*
X1457857Y-465714D02*
X1457857Y-165714D01*
X1557857Y-380000D01*
X1657857Y-165714D01*
X1657857Y-465714D01*
X1929286Y-465714D02*
X1929286Y-308571D01*
X1915000Y-280000D01*
X1886428Y-265714D01*
X1829286Y-265714D01*
X1800714Y-280000D01*
X1929286Y-451428D02*
X1900714Y-465714D01*
X1829286Y-465714D01*
X1800714Y-451428D01*
X1786428Y-422857D01*
X1786428Y-394286D01*
X1800714Y-365714D01*
X1829286Y-351428D01*
X1900714Y-351428D01*
X1929286Y-337143D01*
X2072143Y-265714D02*
X2072143Y-565714D01*
X2072143Y-280000D02*
X2100714Y-265714D01*
X2157857Y-265714D01*
X2186429Y-280000D01*
X2200714Y-294286D01*
X2215000Y-322857D01*
X2215000Y-408571D01*
X2200714Y-437143D01*
X2186429Y-451428D01*
X2157857Y-465714D01*
X2100714Y-465714D01*
X2072143Y-451428D01*
X2343571Y-437143D02*
X2357857Y-451428D01*
X2343571Y-465714D01*
X2329286Y-451428D01*
X2343571Y-437143D01*
X2343571Y-465714D01*
X2343571Y-280000D02*
X2357857Y-294286D01*
X2343571Y-308571D01*
X2329286Y-294286D01*
X2343571Y-280000D01*
X2343571Y-308571D01*
X-40000Y-940000D02*
X0Y-980000D01*
X0Y-940000D02*
X-40000Y-980000D01*
X343571Y-795714D02*
X372143Y-795714D01*
X400714Y-810000D01*
X415000Y-824286D01*
X429286Y-852857D01*
X443571Y-910000D01*
X443571Y-981428D01*
X429286Y-1038571D01*
X415000Y-1067143D01*
X400714Y-1081429D01*
X372143Y-1095714D01*
X343571Y-1095714D01*
X315000Y-1081429D01*
X300714Y-1067143D01*
X286429Y-1038571D01*
X272143Y-981428D01*
X272143Y-910000D01*
X286429Y-852857D01*
X300714Y-824286D01*
X315000Y-810000D01*
X343571Y-795714D01*
X572143Y-1067143D02*
X586429Y-1081429D01*
X572143Y-1095714D01*
X557857Y-1081429D01*
X572143Y-1067143D01*
X572143Y-1095714D01*
X843571Y-895714D02*
X843571Y-1095714D01*
X772143Y-781428D02*
X700714Y-995714D01*
X886428Y-995714D01*
X1057857Y-795714D02*
X1086429Y-795714D01*
X1115000Y-810000D01*
X1129286Y-824286D01*
X1143571Y-852857D01*
X1157857Y-910000D01*
X1157857Y-981428D01*
X1143571Y-1038571D01*
X1129286Y-1067143D01*
X1115000Y-1081429D01*
X1086429Y-1095714D01*
X1057857Y-1095714D01*
X1029286Y-1081429D01*
X1015000Y-1067143D01*
X1000714Y-1038571D01*
X986428Y-981428D01*
X986428Y-910000D01*
X1000714Y-852857D01*
X1015000Y-824286D01*
X1029286Y-810000D01*
X1057857Y-795714D01*
X1286429Y-1095714D02*
X1286429Y-895714D01*
X1286429Y-924286D02*
X1300714Y-910000D01*
X1329286Y-895714D01*
X1372143Y-895714D01*
X1400714Y-910000D01*
X1415000Y-938571D01*
X1415000Y-1095714D01*
X1415000Y-938571D02*
X1429286Y-910000D01*
X1457857Y-895714D01*
X1500714Y-895714D01*
X1529286Y-910000D01*
X1543571Y-938571D01*
X1543571Y-1095714D01*
X1686428Y-1095714D02*
X1686428Y-895714D01*
X1686428Y-924286D02*
X1700714Y-910000D01*
X1729286Y-895714D01*
X1772143Y-895714D01*
X1800714Y-910000D01*
X1815000Y-938571D01*
X1815000Y-1095714D01*
X1815000Y-938571D02*
X1829286Y-910000D01*
X1857857Y-895714D01*
X1900714Y-895714D01*
X1929286Y-910000D01*
X1943571Y-938571D01*
X1943571Y-1095714D01*
X2529286Y-781428D02*
X2272143Y-1167143D01*
X2915000Y-795714D02*
X2943571Y-795714D01*
X2972143Y-810000D01*
X2986428Y-824286D01*
X3000714Y-852857D01*
X3015000Y-910000D01*
X3015000Y-981428D01*
X3000714Y-1038571D01*
X2986428Y-1067143D01*
X2972143Y-1081429D01*
X2943571Y-1095714D01*
X2915000Y-1095714D01*
X2886428Y-1081429D01*
X2872143Y-1067143D01*
X2857857Y-1038571D01*
X2843571Y-981428D01*
X2843571Y-910000D01*
X2857857Y-852857D01*
X2872143Y-824286D01*
X2886428Y-810000D01*
X2915000Y-795714D01*
X3143571Y-1067143D02*
X3157857Y-1081429D01*
X3143571Y-1095714D01*
X3129286Y-1081429D01*
X3143571Y-1067143D01*
X3143571Y-1095714D01*
X3343571Y-795714D02*
X3372143Y-795714D01*
X3400714Y-810000D01*
X3415000Y-824286D01*
X3429286Y-852857D01*
X3443571Y-910000D01*
X3443571Y-981428D01*
X3429286Y-1038571D01*
X3415000Y-1067143D01*
X3400714Y-1081429D01*
X3372143Y-1095714D01*
X3343571Y-1095714D01*
X3315000Y-1081429D01*
X3300714Y-1067143D01*
X3286428Y-1038571D01*
X3272143Y-981428D01*
X3272143Y-910000D01*
X3286428Y-852857D01*
X3300714Y-824286D01*
X3315000Y-810000D01*
X3343571Y-795714D01*
X3729286Y-1095714D02*
X3557857Y-1095714D01*
X3643571Y-1095714D02*
X3643571Y-795714D01*
X3615000Y-838571D01*
X3586428Y-867143D01*
X3557857Y-881428D01*
X3986428Y-795714D02*
X3929286Y-795714D01*
X3900714Y-810000D01*
X3886428Y-824286D01*
X3857857Y-867143D01*
X3843571Y-924286D01*
X3843571Y-1038571D01*
X3857857Y-1067143D01*
X3872143Y-1081429D01*
X3900714Y-1095714D01*
X3957857Y-1095714D01*
X3986428Y-1081429D01*
X4000714Y-1067143D01*
X4015000Y-1038571D01*
X4015000Y-967143D01*
X4000714Y-938571D01*
X3986428Y-924286D01*
X3957857Y-910000D01*
X3900714Y-910000D01*
X3872143Y-924286D01*
X3857857Y-938571D01*
X3843571Y-967143D01*
X4129286Y-795714D02*
X4129286Y-852857D01*
X4243571Y-795714D02*
X4243571Y-852857D01*
X4686429Y-1210000D02*
X4672143Y-1195714D01*
X4643571Y-1152857D01*
X4629286Y-1124286D01*
X4615000Y-1081429D01*
X4600714Y-1010000D01*
X4600714Y-952857D01*
X4615000Y-881428D01*
X4629286Y-838571D01*
X4643571Y-810000D01*
X4672143Y-767143D01*
X4686429Y-752857D01*
X4957857Y-1095714D02*
X4786429Y-1095714D01*
X4872143Y-1095714D02*
X4872143Y-795714D01*
X4843571Y-838571D01*
X4815000Y-867143D01*
X4786429Y-881428D01*
X5057857Y-795714D02*
X5257857Y-795714D01*
X5129286Y-1095714D01*
X5343571Y-795714D02*
X5529286Y-795714D01*
X5429286Y-910000D01*
X5472143Y-910000D01*
X5500714Y-924286D01*
X5515000Y-938571D01*
X5529286Y-967143D01*
X5529286Y-1038571D01*
X5515000Y-1067143D01*
X5500714Y-1081429D01*
X5472143Y-1095714D01*
X5386429Y-1095714D01*
X5357857Y-1081429D01*
X5343571Y-1067143D01*
X5886428Y-1095714D02*
X5886428Y-795714D01*
X6015000Y-1095714D02*
X6015000Y-938571D01*
X6000714Y-910000D01*
X5972143Y-895714D01*
X5929286Y-895714D01*
X5900714Y-910000D01*
X5886428Y-924286D01*
X6200714Y-1095714D02*
X6172143Y-1081429D01*
X6157857Y-1067143D01*
X6143571Y-1038571D01*
X6143571Y-952857D01*
X6157857Y-924286D01*
X6172143Y-910000D01*
X6200714Y-895714D01*
X6243571Y-895714D01*
X6272143Y-910000D01*
X6286428Y-924286D01*
X6300714Y-952857D01*
X6300714Y-1038571D01*
X6286428Y-1067143D01*
X6272143Y-1081429D01*
X6243571Y-1095714D01*
X6200714Y-1095714D01*
X6472143Y-1095714D02*
X6443571Y-1081429D01*
X6429286Y-1052857D01*
X6429286Y-795714D01*
X6700714Y-1081429D02*
X6672143Y-1095714D01*
X6615000Y-1095714D01*
X6586428Y-1081429D01*
X6572143Y-1052857D01*
X6572143Y-938571D01*
X6586428Y-910000D01*
X6615000Y-895714D01*
X6672143Y-895714D01*
X6700714Y-910000D01*
X6715000Y-938571D01*
X6715000Y-967143D01*
X6572143Y-995714D01*
X6829286Y-1081429D02*
X6857857Y-1095714D01*
X6915000Y-1095714D01*
X6943571Y-1081429D01*
X6957857Y-1052857D01*
X6957857Y-1038571D01*
X6943571Y-1010000D01*
X6915000Y-995714D01*
X6872143Y-995714D01*
X6843571Y-981428D01*
X6829286Y-952857D01*
X6829286Y-938571D01*
X6843571Y-910000D01*
X6872143Y-895714D01*
X6915000Y-895714D01*
X6943571Y-910000D01*
X7057857Y-1210000D02*
X7072143Y-1195714D01*
X7100714Y-1152857D01*
X7115000Y-1124286D01*
X7129286Y-1081429D01*
X7143571Y-1010000D01*
X7143571Y-952857D01*
X7129286Y-881428D01*
X7115000Y-838571D01*
X7100714Y-810000D01*
X7072143Y-767143D01*
X7057857Y-752857D01*
X0Y-1356000D02*
G75*
G03X0Y-1356000I-25000J0D01*
G01*
X343571Y-1191714D02*
X372143Y-1191714D01*
X400714Y-1206000D01*
X415000Y-1220286D01*
X429286Y-1248857D01*
X443571Y-1306000D01*
X443571Y-1377429D01*
X429286Y-1434571D01*
X415000Y-1463143D01*
X400714Y-1477428D01*
X372143Y-1491714D01*
X343571Y-1491714D01*
X315000Y-1477428D01*
X300714Y-1463143D01*
X286429Y-1434571D01*
X272143Y-1377429D01*
X272143Y-1306000D01*
X286429Y-1248857D01*
X300714Y-1220286D01*
X315000Y-1206000D01*
X343571Y-1191714D01*
X572143Y-1463143D02*
X586429Y-1477428D01*
X572143Y-1491714D01*
X557857Y-1477428D01*
X572143Y-1463143D01*
X572143Y-1491714D01*
X857857Y-1191714D02*
X715000Y-1191714D01*
X700714Y-1334571D01*
X715000Y-1320286D01*
X743571Y-1306000D01*
X815000Y-1306000D01*
X843571Y-1320286D01*
X857857Y-1334571D01*
X872143Y-1363143D01*
X872143Y-1434571D01*
X857857Y-1463143D01*
X843571Y-1477428D01*
X815000Y-1491714D01*
X743571Y-1491714D01*
X715000Y-1477428D01*
X700714Y-1463143D01*
X1057857Y-1191714D02*
X1086429Y-1191714D01*
X1115000Y-1206000D01*
X1129286Y-1220286D01*
X1143571Y-1248857D01*
X1157857Y-1306000D01*
X1157857Y-1377429D01*
X1143571Y-1434571D01*
X1129286Y-1463143D01*
X1115000Y-1477428D01*
X1086429Y-1491714D01*
X1057857Y-1491714D01*
X1029286Y-1477428D01*
X1015000Y-1463143D01*
X1000714Y-1434571D01*
X986428Y-1377429D01*
X986428Y-1306000D01*
X1000714Y-1248857D01*
X1015000Y-1220286D01*
X1029286Y-1206000D01*
X1057857Y-1191714D01*
X1286429Y-1491714D02*
X1286429Y-1291714D01*
X1286429Y-1320286D02*
X1300714Y-1306000D01*
X1329286Y-1291714D01*
X1372143Y-1291714D01*
X1400714Y-1306000D01*
X1415000Y-1334571D01*
X1415000Y-1491714D01*
X1415000Y-1334571D02*
X1429286Y-1306000D01*
X1457857Y-1291714D01*
X1500714Y-1291714D01*
X1529286Y-1306000D01*
X1543571Y-1334571D01*
X1543571Y-1491714D01*
X1686428Y-1491714D02*
X1686428Y-1291714D01*
X1686428Y-1320286D02*
X1700714Y-1306000D01*
X1729286Y-1291714D01*
X1772143Y-1291714D01*
X1800714Y-1306000D01*
X1815000Y-1334571D01*
X1815000Y-1491714D01*
X1815000Y-1334571D02*
X1829286Y-1306000D01*
X1857857Y-1291714D01*
X1900714Y-1291714D01*
X1929286Y-1306000D01*
X1943571Y-1334571D01*
X1943571Y-1491714D01*
X2529286Y-1177429D02*
X2272143Y-1563143D01*
X2915000Y-1191714D02*
X2943571Y-1191714D01*
X2972143Y-1206000D01*
X2986428Y-1220286D01*
X3000714Y-1248857D01*
X3015000Y-1306000D01*
X3015000Y-1377429D01*
X3000714Y-1434571D01*
X2986428Y-1463143D01*
X2972143Y-1477428D01*
X2943571Y-1491714D01*
X2915000Y-1491714D01*
X2886428Y-1477428D01*
X2872143Y-1463143D01*
X2857857Y-1434571D01*
X2843571Y-1377429D01*
X2843571Y-1306000D01*
X2857857Y-1248857D01*
X2872143Y-1220286D01*
X2886428Y-1206000D01*
X2915000Y-1191714D01*
X3143571Y-1463143D02*
X3157857Y-1477428D01*
X3143571Y-1491714D01*
X3129286Y-1477428D01*
X3143571Y-1463143D01*
X3143571Y-1491714D01*
X3343571Y-1191714D02*
X3372143Y-1191714D01*
X3400714Y-1206000D01*
X3415000Y-1220286D01*
X3429286Y-1248857D01*
X3443571Y-1306000D01*
X3443571Y-1377429D01*
X3429286Y-1434571D01*
X3415000Y-1463143D01*
X3400714Y-1477428D01*
X3372143Y-1491714D01*
X3343571Y-1491714D01*
X3315000Y-1477428D01*
X3300714Y-1463143D01*
X3286428Y-1434571D01*
X3272143Y-1377429D01*
X3272143Y-1306000D01*
X3286428Y-1248857D01*
X3300714Y-1220286D01*
X3315000Y-1206000D01*
X3343571Y-1191714D01*
X3557857Y-1220286D02*
X3572143Y-1206000D01*
X3600714Y-1191714D01*
X3672143Y-1191714D01*
X3700714Y-1206000D01*
X3715000Y-1220286D01*
X3729286Y-1248857D01*
X3729286Y-1277429D01*
X3715000Y-1320286D01*
X3543571Y-1491714D01*
X3729286Y-1491714D01*
X3915000Y-1191714D02*
X3943571Y-1191714D01*
X3972143Y-1206000D01*
X3986428Y-1220286D01*
X4000714Y-1248857D01*
X4015000Y-1306000D01*
X4015000Y-1377429D01*
X4000714Y-1434571D01*
X3986428Y-1463143D01*
X3972143Y-1477428D01*
X3943571Y-1491714D01*
X3915000Y-1491714D01*
X3886428Y-1477428D01*
X3872143Y-1463143D01*
X3857857Y-1434571D01*
X3843571Y-1377429D01*
X3843571Y-1306000D01*
X3857857Y-1248857D01*
X3872143Y-1220286D01*
X3886428Y-1206000D01*
X3915000Y-1191714D01*
X4129286Y-1191714D02*
X4129286Y-1248857D01*
X4243571Y-1191714D02*
X4243571Y-1248857D01*
X4686429Y-1606000D02*
X4672143Y-1591714D01*
X4643571Y-1548857D01*
X4629286Y-1520286D01*
X4615000Y-1477428D01*
X4600714Y-1406000D01*
X4600714Y-1348857D01*
X4615000Y-1277429D01*
X4629286Y-1234571D01*
X4643571Y-1206000D01*
X4672143Y-1163143D01*
X4686429Y-1148857D01*
X4786429Y-1220286D02*
X4800714Y-1206000D01*
X4829286Y-1191714D01*
X4900714Y-1191714D01*
X4929286Y-1206000D01*
X4943571Y-1220286D01*
X4957857Y-1248857D01*
X4957857Y-1277429D01*
X4943571Y-1320286D01*
X4772143Y-1491714D01*
X4957857Y-1491714D01*
X5315000Y-1491714D02*
X5315000Y-1191714D01*
X5443571Y-1491714D02*
X5443571Y-1334571D01*
X5429286Y-1306000D01*
X5400714Y-1291714D01*
X5357857Y-1291714D01*
X5329286Y-1306000D01*
X5315000Y-1320286D01*
X5629286Y-1491714D02*
X5600714Y-1477428D01*
X5586429Y-1463143D01*
X5572143Y-1434571D01*
X5572143Y-1348857D01*
X5586429Y-1320286D01*
X5600714Y-1306000D01*
X5629286Y-1291714D01*
X5672143Y-1291714D01*
X5700714Y-1306000D01*
X5715000Y-1320286D01*
X5729286Y-1348857D01*
X5729286Y-1434571D01*
X5715000Y-1463143D01*
X5700714Y-1477428D01*
X5672143Y-1491714D01*
X5629286Y-1491714D01*
X5900714Y-1491714D02*
X5872143Y-1477428D01*
X5857857Y-1448857D01*
X5857857Y-1191714D01*
X6129286Y-1477428D02*
X6100714Y-1491714D01*
X6043571Y-1491714D01*
X6015000Y-1477428D01*
X6000714Y-1448857D01*
X6000714Y-1334571D01*
X6015000Y-1306000D01*
X6043571Y-1291714D01*
X6100714Y-1291714D01*
X6129286Y-1306000D01*
X6143571Y-1334571D01*
X6143571Y-1363143D01*
X6000714Y-1391714D01*
X6257857Y-1477428D02*
X6286428Y-1491714D01*
X6343571Y-1491714D01*
X6372143Y-1477428D01*
X6386428Y-1448857D01*
X6386428Y-1434571D01*
X6372143Y-1406000D01*
X6343571Y-1391714D01*
X6300714Y-1391714D01*
X6272143Y-1377429D01*
X6257857Y-1348857D01*
X6257857Y-1334571D01*
X6272143Y-1306000D01*
X6300714Y-1291714D01*
X6343571Y-1291714D01*
X6372143Y-1306000D01*
X6486428Y-1606000D02*
X6500714Y-1591714D01*
X6529286Y-1548857D01*
X6543571Y-1520286D01*
X6557857Y-1477428D01*
X6572143Y-1406000D01*
X6572143Y-1348857D01*
X6557857Y-1277429D01*
X6543571Y-1234571D01*
X6529286Y-1206000D01*
X6500714Y-1163143D01*
X6486428Y-1148857D01*
X-27500Y-1724500D02*
X-27500Y-1779500D01*
X-55000Y-1752000D02*
X0Y-1752000D01*
X343571Y-1587714D02*
X372143Y-1587714D01*
X400714Y-1602000D01*
X415000Y-1616286D01*
X429286Y-1644857D01*
X443571Y-1702000D01*
X443571Y-1773428D01*
X429286Y-1830571D01*
X415000Y-1859143D01*
X400714Y-1873428D01*
X372143Y-1887714D01*
X343571Y-1887714D01*
X315000Y-1873428D01*
X300714Y-1859143D01*
X286429Y-1830571D01*
X272143Y-1773428D01*
X272143Y-1702000D01*
X286429Y-1644857D01*
X300714Y-1616286D01*
X315000Y-1602000D01*
X343571Y-1587714D01*
X572143Y-1859143D02*
X586429Y-1873428D01*
X572143Y-1887714D01*
X557857Y-1873428D01*
X572143Y-1859143D01*
X572143Y-1887714D01*
X857857Y-1587714D02*
X715000Y-1587714D01*
X700714Y-1730571D01*
X715000Y-1716286D01*
X743571Y-1702000D01*
X815000Y-1702000D01*
X843571Y-1716286D01*
X857857Y-1730571D01*
X872143Y-1759143D01*
X872143Y-1830571D01*
X857857Y-1859143D01*
X843571Y-1873428D01*
X815000Y-1887714D01*
X743571Y-1887714D01*
X715000Y-1873428D01*
X700714Y-1859143D01*
X1143571Y-1587714D02*
X1000714Y-1587714D01*
X986428Y-1730571D01*
X1000714Y-1716286D01*
X1029286Y-1702000D01*
X1100714Y-1702000D01*
X1129286Y-1716286D01*
X1143571Y-1730571D01*
X1157857Y-1759143D01*
X1157857Y-1830571D01*
X1143571Y-1859143D01*
X1129286Y-1873428D01*
X1100714Y-1887714D01*
X1029286Y-1887714D01*
X1000714Y-1873428D01*
X986428Y-1859143D01*
X1286429Y-1887714D02*
X1286429Y-1687714D01*
X1286429Y-1716286D02*
X1300714Y-1702000D01*
X1329286Y-1687714D01*
X1372143Y-1687714D01*
X1400714Y-1702000D01*
X1415000Y-1730571D01*
X1415000Y-1887714D01*
X1415000Y-1730571D02*
X1429286Y-1702000D01*
X1457857Y-1687714D01*
X1500714Y-1687714D01*
X1529286Y-1702000D01*
X1543571Y-1730571D01*
X1543571Y-1887714D01*
X1686428Y-1887714D02*
X1686428Y-1687714D01*
X1686428Y-1716286D02*
X1700714Y-1702000D01*
X1729286Y-1687714D01*
X1772143Y-1687714D01*
X1800714Y-1702000D01*
X1815000Y-1730571D01*
X1815000Y-1887714D01*
X1815000Y-1730571D02*
X1829286Y-1702000D01*
X1857857Y-1687714D01*
X1900714Y-1687714D01*
X1929286Y-1702000D01*
X1943571Y-1730571D01*
X1943571Y-1887714D01*
X2529286Y-1573428D02*
X2272143Y-1959143D01*
X2915000Y-1587714D02*
X2943571Y-1587714D01*
X2972143Y-1602000D01*
X2986428Y-1616286D01*
X3000714Y-1644857D01*
X3015000Y-1702000D01*
X3015000Y-1773428D01*
X3000714Y-1830571D01*
X2986428Y-1859143D01*
X2972143Y-1873428D01*
X2943571Y-1887714D01*
X2915000Y-1887714D01*
X2886428Y-1873428D01*
X2872143Y-1859143D01*
X2857857Y-1830571D01*
X2843571Y-1773428D01*
X2843571Y-1702000D01*
X2857857Y-1644857D01*
X2872143Y-1616286D01*
X2886428Y-1602000D01*
X2915000Y-1587714D01*
X3143571Y-1859143D02*
X3157857Y-1873428D01*
X3143571Y-1887714D01*
X3129286Y-1873428D01*
X3143571Y-1859143D01*
X3143571Y-1887714D01*
X3343571Y-1587714D02*
X3372143Y-1587714D01*
X3400714Y-1602000D01*
X3415000Y-1616286D01*
X3429286Y-1644857D01*
X3443571Y-1702000D01*
X3443571Y-1773428D01*
X3429286Y-1830571D01*
X3415000Y-1859143D01*
X3400714Y-1873428D01*
X3372143Y-1887714D01*
X3343571Y-1887714D01*
X3315000Y-1873428D01*
X3300714Y-1859143D01*
X3286428Y-1830571D01*
X3272143Y-1773428D01*
X3272143Y-1702000D01*
X3286428Y-1644857D01*
X3300714Y-1616286D01*
X3315000Y-1602000D01*
X3343571Y-1587714D01*
X3557857Y-1616286D02*
X3572143Y-1602000D01*
X3600714Y-1587714D01*
X3672143Y-1587714D01*
X3700714Y-1602000D01*
X3715000Y-1616286D01*
X3729286Y-1644857D01*
X3729286Y-1673428D01*
X3715000Y-1716286D01*
X3543571Y-1887714D01*
X3729286Y-1887714D01*
X3843571Y-1616286D02*
X3857857Y-1602000D01*
X3886428Y-1587714D01*
X3957857Y-1587714D01*
X3986428Y-1602000D01*
X4000714Y-1616286D01*
X4015000Y-1644857D01*
X4015000Y-1673428D01*
X4000714Y-1716286D01*
X3829286Y-1887714D01*
X4015000Y-1887714D01*
X4129286Y-1587714D02*
X4129286Y-1644857D01*
X4243571Y-1587714D02*
X4243571Y-1644857D01*
X4686429Y-2002000D02*
X4672143Y-1987714D01*
X4643571Y-1944857D01*
X4629286Y-1916286D01*
X4615000Y-1873428D01*
X4600714Y-1802000D01*
X4600714Y-1744857D01*
X4615000Y-1673428D01*
X4629286Y-1630571D01*
X4643571Y-1602000D01*
X4672143Y-1559143D01*
X4686429Y-1544857D01*
X4772143Y-1587714D02*
X4972143Y-1587714D01*
X4843571Y-1887714D01*
X5229286Y-1587714D02*
X5086429Y-1587714D01*
X5072143Y-1730571D01*
X5086429Y-1716286D01*
X5115000Y-1702000D01*
X5186429Y-1702000D01*
X5215000Y-1716286D01*
X5229286Y-1730571D01*
X5243571Y-1759143D01*
X5243571Y-1830571D01*
X5229286Y-1859143D01*
X5215000Y-1873428D01*
X5186429Y-1887714D01*
X5115000Y-1887714D01*
X5086429Y-1873428D01*
X5072143Y-1859143D01*
X5600714Y-1887714D02*
X5600714Y-1587714D01*
X5729286Y-1887714D02*
X5729286Y-1730571D01*
X5715000Y-1702000D01*
X5686428Y-1687714D01*
X5643571Y-1687714D01*
X5615000Y-1702000D01*
X5600714Y-1716286D01*
X5915000Y-1887714D02*
X5886428Y-1873428D01*
X5872143Y-1859143D01*
X5857857Y-1830571D01*
X5857857Y-1744857D01*
X5872143Y-1716286D01*
X5886428Y-1702000D01*
X5915000Y-1687714D01*
X5957857Y-1687714D01*
X5986428Y-1702000D01*
X6000714Y-1716286D01*
X6015000Y-1744857D01*
X6015000Y-1830571D01*
X6000714Y-1859143D01*
X5986428Y-1873428D01*
X5957857Y-1887714D01*
X5915000Y-1887714D01*
X6186428Y-1887714D02*
X6157857Y-1873428D01*
X6143571Y-1844857D01*
X6143571Y-1587714D01*
X6415000Y-1873428D02*
X6386428Y-1887714D01*
X6329286Y-1887714D01*
X6300714Y-1873428D01*
X6286428Y-1844857D01*
X6286428Y-1730571D01*
X6300714Y-1702000D01*
X6329286Y-1687714D01*
X6386428Y-1687714D01*
X6415000Y-1702000D01*
X6429286Y-1730571D01*
X6429286Y-1759143D01*
X6286428Y-1787714D01*
X6543571Y-1873428D02*
X6572143Y-1887714D01*
X6629286Y-1887714D01*
X6657857Y-1873428D01*
X6672143Y-1844857D01*
X6672143Y-1830571D01*
X6657857Y-1802000D01*
X6629286Y-1787714D01*
X6586428Y-1787714D01*
X6557857Y-1773428D01*
X6543571Y-1744857D01*
X6543571Y-1730571D01*
X6557857Y-1702000D01*
X6586428Y-1687714D01*
X6629286Y-1687714D01*
X6657857Y-1702000D01*
X6772143Y-2002000D02*
X6786428Y-1987714D01*
X6815000Y-1944857D01*
X6829286Y-1916286D01*
X6843571Y-1873428D01*
X6857857Y-1802000D01*
X6857857Y-1744857D01*
X6843571Y-1673428D01*
X6829286Y-1630571D01*
X6815000Y-1602000D01*
X6786428Y-1559143D01*
X6772143Y-1544857D01*
X-11715Y-2176285D02*
X-11715Y-2119716D01*
X-68285Y-2119716D01*
X-68285Y-2176285D01*
X-11715Y-2176285D01*
X343571Y-1983714D02*
X372143Y-1983714D01*
X400714Y-1998000D01*
X415000Y-2012286D01*
X429286Y-2040857D01*
X443571Y-2098000D01*
X443571Y-2169429D01*
X429286Y-2226571D01*
X415000Y-2255143D01*
X400714Y-2269429D01*
X372143Y-2283714D01*
X343571Y-2283714D01*
X315000Y-2269429D01*
X300714Y-2255143D01*
X286429Y-2226571D01*
X272143Y-2169429D01*
X272143Y-2098000D01*
X286429Y-2040857D01*
X300714Y-2012286D01*
X315000Y-1998000D01*
X343571Y-1983714D01*
X572143Y-2255143D02*
X586429Y-2269429D01*
X572143Y-2283714D01*
X557857Y-2269429D01*
X572143Y-2255143D01*
X572143Y-2283714D01*
X757857Y-2112286D02*
X729286Y-2098000D01*
X715000Y-2083714D01*
X700714Y-2055143D01*
X700714Y-2040857D01*
X715000Y-2012286D01*
X729286Y-1998000D01*
X757857Y-1983714D01*
X815000Y-1983714D01*
X843571Y-1998000D01*
X857857Y-2012286D01*
X872143Y-2040857D01*
X872143Y-2055143D01*
X857857Y-2083714D01*
X843571Y-2098000D01*
X815000Y-2112286D01*
X757857Y-2112286D01*
X729286Y-2126571D01*
X715000Y-2140857D01*
X700714Y-2169429D01*
X700714Y-2226571D01*
X715000Y-2255143D01*
X729286Y-2269429D01*
X757857Y-2283714D01*
X815000Y-2283714D01*
X843571Y-2269429D01*
X857857Y-2255143D01*
X872143Y-2226571D01*
X872143Y-2169429D01*
X857857Y-2140857D01*
X843571Y-2126571D01*
X815000Y-2112286D01*
X1057857Y-1983714D02*
X1086429Y-1983714D01*
X1115000Y-1998000D01*
X1129286Y-2012286D01*
X1143571Y-2040857D01*
X1157857Y-2098000D01*
X1157857Y-2169429D01*
X1143571Y-2226571D01*
X1129286Y-2255143D01*
X1115000Y-2269429D01*
X1086429Y-2283714D01*
X1057857Y-2283714D01*
X1029286Y-2269429D01*
X1015000Y-2255143D01*
X1000714Y-2226571D01*
X986428Y-2169429D01*
X986428Y-2098000D01*
X1000714Y-2040857D01*
X1015000Y-2012286D01*
X1029286Y-1998000D01*
X1057857Y-1983714D01*
X1286429Y-2283714D02*
X1286429Y-2083714D01*
X1286429Y-2112286D02*
X1300714Y-2098000D01*
X1329286Y-2083714D01*
X1372143Y-2083714D01*
X1400714Y-2098000D01*
X1415000Y-2126571D01*
X1415000Y-2283714D01*
X1415000Y-2126571D02*
X1429286Y-2098000D01*
X1457857Y-2083714D01*
X1500714Y-2083714D01*
X1529286Y-2098000D01*
X1543571Y-2126571D01*
X1543571Y-2283714D01*
X1686428Y-2283714D02*
X1686428Y-2083714D01*
X1686428Y-2112286D02*
X1700714Y-2098000D01*
X1729286Y-2083714D01*
X1772143Y-2083714D01*
X1800714Y-2098000D01*
X1815000Y-2126571D01*
X1815000Y-2283714D01*
X1815000Y-2126571D02*
X1829286Y-2098000D01*
X1857857Y-2083714D01*
X1900714Y-2083714D01*
X1929286Y-2098000D01*
X1943571Y-2126571D01*
X1943571Y-2283714D01*
X2529286Y-1969428D02*
X2272143Y-2355143D01*
X2915000Y-1983714D02*
X2943571Y-1983714D01*
X2972143Y-1998000D01*
X2986428Y-2012286D01*
X3000714Y-2040857D01*
X3015000Y-2098000D01*
X3015000Y-2169429D01*
X3000714Y-2226571D01*
X2986428Y-2255143D01*
X2972143Y-2269429D01*
X2943571Y-2283714D01*
X2915000Y-2283714D01*
X2886428Y-2269429D01*
X2872143Y-2255143D01*
X2857857Y-2226571D01*
X2843571Y-2169429D01*
X2843571Y-2098000D01*
X2857857Y-2040857D01*
X2872143Y-2012286D01*
X2886428Y-1998000D01*
X2915000Y-1983714D01*
X3143571Y-2255143D02*
X3157857Y-2269429D01*
X3143571Y-2283714D01*
X3129286Y-2269429D01*
X3143571Y-2255143D01*
X3143571Y-2283714D01*
X3343571Y-1983714D02*
X3372143Y-1983714D01*
X3400714Y-1998000D01*
X3415000Y-2012286D01*
X3429286Y-2040857D01*
X3443571Y-2098000D01*
X3443571Y-2169429D01*
X3429286Y-2226571D01*
X3415000Y-2255143D01*
X3400714Y-2269429D01*
X3372143Y-2283714D01*
X3343571Y-2283714D01*
X3315000Y-2269429D01*
X3300714Y-2255143D01*
X3286428Y-2226571D01*
X3272143Y-2169429D01*
X3272143Y-2098000D01*
X3286428Y-2040857D01*
X3300714Y-2012286D01*
X3315000Y-1998000D01*
X3343571Y-1983714D01*
X3543571Y-1983714D02*
X3729286Y-1983714D01*
X3629286Y-2098000D01*
X3672143Y-2098000D01*
X3700714Y-2112286D01*
X3715000Y-2126571D01*
X3729286Y-2155143D01*
X3729286Y-2226571D01*
X3715000Y-2255143D01*
X3700714Y-2269429D01*
X3672143Y-2283714D01*
X3586428Y-2283714D01*
X3557857Y-2269429D01*
X3543571Y-2255143D01*
X4015000Y-2283714D02*
X3843571Y-2283714D01*
X3929286Y-2283714D02*
X3929286Y-1983714D01*
X3900714Y-2026571D01*
X3872143Y-2055143D01*
X3843571Y-2069428D01*
X4129286Y-1983714D02*
X4129286Y-2040857D01*
X4243571Y-1983714D02*
X4243571Y-2040857D01*
X4686429Y-2398000D02*
X4672143Y-2383714D01*
X4643571Y-2340857D01*
X4629286Y-2312286D01*
X4615000Y-2269429D01*
X4600714Y-2198000D01*
X4600714Y-2140857D01*
X4615000Y-2069428D01*
X4629286Y-2026571D01*
X4643571Y-1998000D01*
X4672143Y-1955143D01*
X4686429Y-1940857D01*
X4957857Y-2283714D02*
X4786429Y-2283714D01*
X4872143Y-2283714D02*
X4872143Y-1983714D01*
X4843571Y-2026571D01*
X4815000Y-2055143D01*
X4786429Y-2069428D01*
X5143571Y-1983714D02*
X5172143Y-1983714D01*
X5200714Y-1998000D01*
X5215000Y-2012286D01*
X5229286Y-2040857D01*
X5243571Y-2098000D01*
X5243571Y-2169429D01*
X5229286Y-2226571D01*
X5215000Y-2255143D01*
X5200714Y-2269429D01*
X5172143Y-2283714D01*
X5143571Y-2283714D01*
X5115000Y-2269429D01*
X5100714Y-2255143D01*
X5086429Y-2226571D01*
X5072143Y-2169429D01*
X5072143Y-2098000D01*
X5086429Y-2040857D01*
X5100714Y-2012286D01*
X5115000Y-1998000D01*
X5143571Y-1983714D01*
X5600714Y-2283714D02*
X5600714Y-1983714D01*
X5729286Y-2283714D02*
X5729286Y-2126571D01*
X5715000Y-2098000D01*
X5686428Y-2083714D01*
X5643571Y-2083714D01*
X5615000Y-2098000D01*
X5600714Y-2112286D01*
X5915000Y-2283714D02*
X5886428Y-2269429D01*
X5872143Y-2255143D01*
X5857857Y-2226571D01*
X5857857Y-2140857D01*
X5872143Y-2112286D01*
X5886428Y-2098000D01*
X5915000Y-2083714D01*
X5957857Y-2083714D01*
X5986428Y-2098000D01*
X6000714Y-2112286D01*
X6015000Y-2140857D01*
X6015000Y-2226571D01*
X6000714Y-2255143D01*
X5986428Y-2269429D01*
X5957857Y-2283714D01*
X5915000Y-2283714D01*
X6186428Y-2283714D02*
X6157857Y-2269429D01*
X6143571Y-2240857D01*
X6143571Y-1983714D01*
X6415000Y-2269429D02*
X6386428Y-2283714D01*
X6329286Y-2283714D01*
X6300714Y-2269429D01*
X6286428Y-2240857D01*
X6286428Y-2126571D01*
X6300714Y-2098000D01*
X6329286Y-2083714D01*
X6386428Y-2083714D01*
X6415000Y-2098000D01*
X6429286Y-2126571D01*
X6429286Y-2155143D01*
X6286428Y-2183714D01*
X6543571Y-2269429D02*
X6572143Y-2283714D01*
X6629286Y-2283714D01*
X6657857Y-2269429D01*
X6672143Y-2240857D01*
X6672143Y-2226571D01*
X6657857Y-2198000D01*
X6629286Y-2183714D01*
X6586428Y-2183714D01*
X6557857Y-2169429D01*
X6543571Y-2140857D01*
X6543571Y-2126571D01*
X6557857Y-2098000D01*
X6586428Y-2083714D01*
X6629286Y-2083714D01*
X6657857Y-2098000D01*
X6772143Y-2398000D02*
X6786428Y-2383714D01*
X6815000Y-2340857D01*
X6829286Y-2312286D01*
X6843571Y-2269429D01*
X6857857Y-2198000D01*
X6857857Y-2140857D01*
X6843571Y-2069428D01*
X6829286Y-2026571D01*
X6815000Y-1998000D01*
X6786428Y-1955143D01*
X6772143Y-1940857D01*
X-47500Y-2591500D02*
X0Y-2544000D01*
X-47500Y-2496500D01*
X-95000Y-2544000D01*
X-47500Y-2591500D01*
X343571Y-2379714D02*
X372143Y-2379714D01*
X400714Y-2394000D01*
X415000Y-2408286D01*
X429286Y-2436857D01*
X443571Y-2494000D01*
X443571Y-2565429D01*
X429286Y-2622571D01*
X415000Y-2651143D01*
X400714Y-2665429D01*
X372143Y-2679714D01*
X343571Y-2679714D01*
X315000Y-2665429D01*
X300714Y-2651143D01*
X286429Y-2622571D01*
X272143Y-2565429D01*
X272143Y-2494000D01*
X286429Y-2436857D01*
X300714Y-2408286D01*
X315000Y-2394000D01*
X343571Y-2379714D01*
X572143Y-2651143D02*
X586429Y-2665429D01*
X572143Y-2679714D01*
X557857Y-2665429D01*
X572143Y-2651143D01*
X572143Y-2679714D01*
X729286Y-2679714D02*
X786428Y-2679714D01*
X815000Y-2665429D01*
X829286Y-2651143D01*
X857857Y-2608286D01*
X872143Y-2551143D01*
X872143Y-2436857D01*
X857857Y-2408286D01*
X843571Y-2394000D01*
X815000Y-2379714D01*
X757857Y-2379714D01*
X729286Y-2394000D01*
X715000Y-2408286D01*
X700714Y-2436857D01*
X700714Y-2508286D01*
X715000Y-2536857D01*
X729286Y-2551143D01*
X757857Y-2565429D01*
X815000Y-2565429D01*
X843571Y-2551143D01*
X857857Y-2536857D01*
X872143Y-2508286D01*
X1143571Y-2379714D02*
X1000714Y-2379714D01*
X986428Y-2522571D01*
X1000714Y-2508286D01*
X1029286Y-2494000D01*
X1100714Y-2494000D01*
X1129286Y-2508286D01*
X1143571Y-2522571D01*
X1157857Y-2551143D01*
X1157857Y-2622571D01*
X1143571Y-2651143D01*
X1129286Y-2665429D01*
X1100714Y-2679714D01*
X1029286Y-2679714D01*
X1000714Y-2665429D01*
X986428Y-2651143D01*
X1286429Y-2679714D02*
X1286429Y-2479714D01*
X1286429Y-2508286D02*
X1300714Y-2494000D01*
X1329286Y-2479714D01*
X1372143Y-2479714D01*
X1400714Y-2494000D01*
X1415000Y-2522571D01*
X1415000Y-2679714D01*
X1415000Y-2522571D02*
X1429286Y-2494000D01*
X1457857Y-2479714D01*
X1500714Y-2479714D01*
X1529286Y-2494000D01*
X1543571Y-2522571D01*
X1543571Y-2679714D01*
X1686428Y-2679714D02*
X1686428Y-2479714D01*
X1686428Y-2508286D02*
X1700714Y-2494000D01*
X1729286Y-2479714D01*
X1772143Y-2479714D01*
X1800714Y-2494000D01*
X1815000Y-2522571D01*
X1815000Y-2679714D01*
X1815000Y-2522571D02*
X1829286Y-2494000D01*
X1857857Y-2479714D01*
X1900714Y-2479714D01*
X1929286Y-2494000D01*
X1943571Y-2522571D01*
X1943571Y-2679714D01*
X2529286Y-2365429D02*
X2272143Y-2751143D01*
X2915000Y-2379714D02*
X2943571Y-2379714D01*
X2972143Y-2394000D01*
X2986428Y-2408286D01*
X3000714Y-2436857D01*
X3015000Y-2494000D01*
X3015000Y-2565429D01*
X3000714Y-2622571D01*
X2986428Y-2651143D01*
X2972143Y-2665429D01*
X2943571Y-2679714D01*
X2915000Y-2679714D01*
X2886428Y-2665429D01*
X2872143Y-2651143D01*
X2857857Y-2622571D01*
X2843571Y-2565429D01*
X2843571Y-2494000D01*
X2857857Y-2436857D01*
X2872143Y-2408286D01*
X2886428Y-2394000D01*
X2915000Y-2379714D01*
X3143571Y-2651143D02*
X3157857Y-2665429D01*
X3143571Y-2679714D01*
X3129286Y-2665429D01*
X3143571Y-2651143D01*
X3143571Y-2679714D01*
X3343571Y-2379714D02*
X3372143Y-2379714D01*
X3400714Y-2394000D01*
X3415000Y-2408286D01*
X3429286Y-2436857D01*
X3443571Y-2494000D01*
X3443571Y-2565429D01*
X3429286Y-2622571D01*
X3415000Y-2651143D01*
X3400714Y-2665429D01*
X3372143Y-2679714D01*
X3343571Y-2679714D01*
X3315000Y-2665429D01*
X3300714Y-2651143D01*
X3286428Y-2622571D01*
X3272143Y-2565429D01*
X3272143Y-2494000D01*
X3286428Y-2436857D01*
X3300714Y-2408286D01*
X3315000Y-2394000D01*
X3343571Y-2379714D01*
X3543571Y-2379714D02*
X3729286Y-2379714D01*
X3629286Y-2494000D01*
X3672143Y-2494000D01*
X3700714Y-2508286D01*
X3715000Y-2522571D01*
X3729286Y-2551143D01*
X3729286Y-2622571D01*
X3715000Y-2651143D01*
X3700714Y-2665429D01*
X3672143Y-2679714D01*
X3586428Y-2679714D01*
X3557857Y-2665429D01*
X3543571Y-2651143D01*
X3829286Y-2379714D02*
X4029286Y-2379714D01*
X3900714Y-2679714D01*
X4129286Y-2379714D02*
X4129286Y-2436857D01*
X4243571Y-2379714D02*
X4243571Y-2436857D01*
X4686429Y-2794000D02*
X4672143Y-2779714D01*
X4643571Y-2736857D01*
X4629286Y-2708286D01*
X4615000Y-2665429D01*
X4600714Y-2594000D01*
X4600714Y-2536857D01*
X4615000Y-2465429D01*
X4629286Y-2422571D01*
X4643571Y-2394000D01*
X4672143Y-2351143D01*
X4686429Y-2336857D01*
X4929286Y-2379714D02*
X4872143Y-2379714D01*
X4843571Y-2394000D01*
X4829286Y-2408286D01*
X4800714Y-2451143D01*
X4786429Y-2508286D01*
X4786429Y-2622571D01*
X4800714Y-2651143D01*
X4815000Y-2665429D01*
X4843571Y-2679714D01*
X4900714Y-2679714D01*
X4929286Y-2665429D01*
X4943571Y-2651143D01*
X4957857Y-2622571D01*
X4957857Y-2551143D01*
X4943571Y-2522571D01*
X4929286Y-2508286D01*
X4900714Y-2494000D01*
X4843571Y-2494000D01*
X4815000Y-2508286D01*
X4800714Y-2522571D01*
X4786429Y-2551143D01*
X5315000Y-2679714D02*
X5315000Y-2379714D01*
X5443571Y-2679714D02*
X5443571Y-2522571D01*
X5429286Y-2494000D01*
X5400714Y-2479714D01*
X5357857Y-2479714D01*
X5329286Y-2494000D01*
X5315000Y-2508286D01*
X5629286Y-2679714D02*
X5600714Y-2665429D01*
X5586429Y-2651143D01*
X5572143Y-2622571D01*
X5572143Y-2536857D01*
X5586429Y-2508286D01*
X5600714Y-2494000D01*
X5629286Y-2479714D01*
X5672143Y-2479714D01*
X5700714Y-2494000D01*
X5715000Y-2508286D01*
X5729286Y-2536857D01*
X5729286Y-2622571D01*
X5715000Y-2651143D01*
X5700714Y-2665429D01*
X5672143Y-2679714D01*
X5629286Y-2679714D01*
X5900714Y-2679714D02*
X5872143Y-2665429D01*
X5857857Y-2636857D01*
X5857857Y-2379714D01*
X6129286Y-2665429D02*
X6100714Y-2679714D01*
X6043571Y-2679714D01*
X6015000Y-2665429D01*
X6000714Y-2636857D01*
X6000714Y-2522571D01*
X6015000Y-2494000D01*
X6043571Y-2479714D01*
X6100714Y-2479714D01*
X6129286Y-2494000D01*
X6143571Y-2522571D01*
X6143571Y-2551143D01*
X6000714Y-2579714D01*
X6257857Y-2665429D02*
X6286428Y-2679714D01*
X6343571Y-2679714D01*
X6372143Y-2665429D01*
X6386428Y-2636857D01*
X6386428Y-2622571D01*
X6372143Y-2594000D01*
X6343571Y-2579714D01*
X6300714Y-2579714D01*
X6272143Y-2565429D01*
X6257857Y-2536857D01*
X6257857Y-2522571D01*
X6272143Y-2494000D01*
X6300714Y-2479714D01*
X6343571Y-2479714D01*
X6372143Y-2494000D01*
X6486428Y-2794000D02*
X6500714Y-2779714D01*
X6529286Y-2736857D01*
X6543571Y-2708286D01*
X6557857Y-2665429D01*
X6572143Y-2594000D01*
X6572143Y-2536857D01*
X6557857Y-2465429D01*
X6543571Y-2422571D01*
X6529286Y-2394000D01*
X6500714Y-2351143D01*
X6486428Y-2336857D01*
X-100000Y-2890000D02*
X0Y-2990000D01*
X0Y-2890000D02*
X-100000Y-2990000D01*
X0Y-2940000D02*
G75*
G03X0Y-2940000I-50000J0D01*
G01*
X443571Y-3075714D02*
X272143Y-3075714D01*
X357857Y-3075714D02*
X357857Y-2775714D01*
X329286Y-2818571D01*
X300714Y-2847143D01*
X272143Y-2861428D01*
X572143Y-3047143D02*
X586429Y-3061428D01*
X572143Y-3075714D01*
X557857Y-3061428D01*
X572143Y-3047143D01*
X572143Y-3075714D01*
X772143Y-2775714D02*
X800714Y-2775714D01*
X829286Y-2790000D01*
X843571Y-2804286D01*
X857857Y-2832857D01*
X872143Y-2890000D01*
X872143Y-2961428D01*
X857857Y-3018571D01*
X843571Y-3047143D01*
X829286Y-3061428D01*
X800714Y-3075714D01*
X772143Y-3075714D01*
X743571Y-3061428D01*
X729286Y-3047143D01*
X715000Y-3018571D01*
X700714Y-2961428D01*
X700714Y-2890000D01*
X715000Y-2832857D01*
X729286Y-2804286D01*
X743571Y-2790000D01*
X772143Y-2775714D01*
X1057857Y-2775714D02*
X1086429Y-2775714D01*
X1115000Y-2790000D01*
X1129286Y-2804286D01*
X1143571Y-2832857D01*
X1157857Y-2890000D01*
X1157857Y-2961428D01*
X1143571Y-3018571D01*
X1129286Y-3047143D01*
X1115000Y-3061428D01*
X1086429Y-3075714D01*
X1057857Y-3075714D01*
X1029286Y-3061428D01*
X1015000Y-3047143D01*
X1000714Y-3018571D01*
X986428Y-2961428D01*
X986428Y-2890000D01*
X1000714Y-2832857D01*
X1015000Y-2804286D01*
X1029286Y-2790000D01*
X1057857Y-2775714D01*
X1286429Y-3075714D02*
X1286429Y-2875714D01*
X1286429Y-2904286D02*
X1300714Y-2890000D01*
X1329286Y-2875714D01*
X1372143Y-2875714D01*
X1400714Y-2890000D01*
X1415000Y-2918571D01*
X1415000Y-3075714D01*
X1415000Y-2918571D02*
X1429286Y-2890000D01*
X1457857Y-2875714D01*
X1500714Y-2875714D01*
X1529286Y-2890000D01*
X1543571Y-2918571D01*
X1543571Y-3075714D01*
X1686428Y-3075714D02*
X1686428Y-2875714D01*
X1686428Y-2904286D02*
X1700714Y-2890000D01*
X1729286Y-2875714D01*
X1772143Y-2875714D01*
X1800714Y-2890000D01*
X1815000Y-2918571D01*
X1815000Y-3075714D01*
X1815000Y-2918571D02*
X1829286Y-2890000D01*
X1857857Y-2875714D01*
X1900714Y-2875714D01*
X1929286Y-2890000D01*
X1943571Y-2918571D01*
X1943571Y-3075714D01*
X2529286Y-2761429D02*
X2272143Y-3147143D01*
X2915000Y-2775714D02*
X2943571Y-2775714D01*
X2972143Y-2790000D01*
X2986428Y-2804286D01*
X3000714Y-2832857D01*
X3015000Y-2890000D01*
X3015000Y-2961428D01*
X3000714Y-3018571D01*
X2986428Y-3047143D01*
X2972143Y-3061428D01*
X2943571Y-3075714D01*
X2915000Y-3075714D01*
X2886428Y-3061428D01*
X2872143Y-3047143D01*
X2857857Y-3018571D01*
X2843571Y-2961428D01*
X2843571Y-2890000D01*
X2857857Y-2832857D01*
X2872143Y-2804286D01*
X2886428Y-2790000D01*
X2915000Y-2775714D01*
X3143571Y-3047143D02*
X3157857Y-3061428D01*
X3143571Y-3075714D01*
X3129286Y-3061428D01*
X3143571Y-3047143D01*
X3143571Y-3075714D01*
X3343571Y-2775714D02*
X3372143Y-2775714D01*
X3400714Y-2790000D01*
X3415000Y-2804286D01*
X3429286Y-2832857D01*
X3443571Y-2890000D01*
X3443571Y-2961428D01*
X3429286Y-3018571D01*
X3415000Y-3047143D01*
X3400714Y-3061428D01*
X3372143Y-3075714D01*
X3343571Y-3075714D01*
X3315000Y-3061428D01*
X3300714Y-3047143D01*
X3286428Y-3018571D01*
X3272143Y-2961428D01*
X3272143Y-2890000D01*
X3286428Y-2832857D01*
X3300714Y-2804286D01*
X3315000Y-2790000D01*
X3343571Y-2775714D01*
X3543571Y-2775714D02*
X3729286Y-2775714D01*
X3629286Y-2890000D01*
X3672143Y-2890000D01*
X3700714Y-2904286D01*
X3715000Y-2918571D01*
X3729286Y-2947143D01*
X3729286Y-3018571D01*
X3715000Y-3047143D01*
X3700714Y-3061428D01*
X3672143Y-3075714D01*
X3586428Y-3075714D01*
X3557857Y-3061428D01*
X3543571Y-3047143D01*
X3872143Y-3075714D02*
X3929286Y-3075714D01*
X3957857Y-3061428D01*
X3972143Y-3047143D01*
X4000714Y-3004286D01*
X4015000Y-2947143D01*
X4015000Y-2832857D01*
X4000714Y-2804286D01*
X3986428Y-2790000D01*
X3957857Y-2775714D01*
X3900714Y-2775714D01*
X3872143Y-2790000D01*
X3857857Y-2804286D01*
X3843571Y-2832857D01*
X3843571Y-2904286D01*
X3857857Y-2932857D01*
X3872143Y-2947143D01*
X3900714Y-2961428D01*
X3957857Y-2961428D01*
X3986428Y-2947143D01*
X4000714Y-2932857D01*
X4015000Y-2904286D01*
X4129286Y-2775714D02*
X4129286Y-2832857D01*
X4243571Y-2775714D02*
X4243571Y-2832857D01*
X4686429Y-3190000D02*
X4672143Y-3175714D01*
X4643571Y-3132857D01*
X4629286Y-3104286D01*
X4615000Y-3061428D01*
X4600714Y-2990000D01*
X4600714Y-2932857D01*
X4615000Y-2861428D01*
X4629286Y-2818571D01*
X4643571Y-2790000D01*
X4672143Y-2747143D01*
X4686429Y-2732857D01*
X4843571Y-2904286D02*
X4815000Y-2890000D01*
X4800714Y-2875714D01*
X4786429Y-2847143D01*
X4786429Y-2832857D01*
X4800714Y-2804286D01*
X4815000Y-2790000D01*
X4843571Y-2775714D01*
X4900714Y-2775714D01*
X4929286Y-2790000D01*
X4943571Y-2804286D01*
X4957857Y-2832857D01*
X4957857Y-2847143D01*
X4943571Y-2875714D01*
X4929286Y-2890000D01*
X4900714Y-2904286D01*
X4843571Y-2904286D01*
X4815000Y-2918571D01*
X4800714Y-2932857D01*
X4786429Y-2961428D01*
X4786429Y-3018571D01*
X4800714Y-3047143D01*
X4815000Y-3061428D01*
X4843571Y-3075714D01*
X4900714Y-3075714D01*
X4929286Y-3061428D01*
X4943571Y-3047143D01*
X4957857Y-3018571D01*
X4957857Y-2961428D01*
X4943571Y-2932857D01*
X4929286Y-2918571D01*
X4900714Y-2904286D01*
X5315000Y-3075714D02*
X5315000Y-2775714D01*
X5443571Y-3075714D02*
X5443571Y-2918571D01*
X5429286Y-2890000D01*
X5400714Y-2875714D01*
X5357857Y-2875714D01*
X5329286Y-2890000D01*
X5315000Y-2904286D01*
X5629286Y-3075714D02*
X5600714Y-3061428D01*
X5586429Y-3047143D01*
X5572143Y-3018571D01*
X5572143Y-2932857D01*
X5586429Y-2904286D01*
X5600714Y-2890000D01*
X5629286Y-2875714D01*
X5672143Y-2875714D01*
X5700714Y-2890000D01*
X5715000Y-2904286D01*
X5729286Y-2932857D01*
X5729286Y-3018571D01*
X5715000Y-3047143D01*
X5700714Y-3061428D01*
X5672143Y-3075714D01*
X5629286Y-3075714D01*
X5900714Y-3075714D02*
X5872143Y-3061428D01*
X5857857Y-3032857D01*
X5857857Y-2775714D01*
X6129286Y-3061428D02*
X6100714Y-3075714D01*
X6043571Y-3075714D01*
X6015000Y-3061428D01*
X6000714Y-3032857D01*
X6000714Y-2918571D01*
X6015000Y-2890000D01*
X6043571Y-2875714D01*
X6100714Y-2875714D01*
X6129286Y-2890000D01*
X6143571Y-2918571D01*
X6143571Y-2947143D01*
X6000714Y-2975714D01*
X6257857Y-3061428D02*
X6286428Y-3075714D01*
X6343571Y-3075714D01*
X6372143Y-3061428D01*
X6386428Y-3032857D01*
X6386428Y-3018571D01*
X6372143Y-2990000D01*
X6343571Y-2975714D01*
X6300714Y-2975714D01*
X6272143Y-2961428D01*
X6257857Y-2932857D01*
X6257857Y-2918571D01*
X6272143Y-2890000D01*
X6300714Y-2875714D01*
X6343571Y-2875714D01*
X6372143Y-2890000D01*
X6486428Y-3190000D02*
X6500714Y-3175714D01*
X6529286Y-3132857D01*
X6543571Y-3104286D01*
X6557857Y-3061428D01*
X6572143Y-2990000D01*
X6572143Y-2932857D01*
X6557857Y-2861428D01*
X6543571Y-2818571D01*
X6529286Y-2790000D01*
X6500714Y-2747143D01*
X6486428Y-2732857D01*
X-110000Y-3281000D02*
X0Y-3391000D01*
X0Y-3281000D02*
X-110000Y-3391000D01*
X-55000Y-3281000D02*
X-55000Y-3391000D01*
X-110000Y-3336000D02*
X0Y-3336000D01*
X443571Y-3471714D02*
X272143Y-3471714D01*
X357857Y-3471714D02*
X357857Y-3171714D01*
X329286Y-3214571D01*
X300714Y-3243143D01*
X272143Y-3257428D01*
X572143Y-3443143D02*
X586429Y-3457428D01*
X572143Y-3471714D01*
X557857Y-3457428D01*
X572143Y-3443143D01*
X572143Y-3471714D01*
X872143Y-3471714D02*
X700714Y-3471714D01*
X786428Y-3471714D02*
X786428Y-3171714D01*
X757857Y-3214571D01*
X729286Y-3243143D01*
X700714Y-3257428D01*
X1057857Y-3171714D02*
X1086429Y-3171714D01*
X1115000Y-3186000D01*
X1129286Y-3200286D01*
X1143571Y-3228857D01*
X1157857Y-3286000D01*
X1157857Y-3357428D01*
X1143571Y-3414571D01*
X1129286Y-3443143D01*
X1115000Y-3457428D01*
X1086429Y-3471714D01*
X1057857Y-3471714D01*
X1029286Y-3457428D01*
X1015000Y-3443143D01*
X1000714Y-3414571D01*
X986428Y-3357428D01*
X986428Y-3286000D01*
X1000714Y-3228857D01*
X1015000Y-3200286D01*
X1029286Y-3186000D01*
X1057857Y-3171714D01*
X1286429Y-3471714D02*
X1286429Y-3271714D01*
X1286429Y-3300286D02*
X1300714Y-3286000D01*
X1329286Y-3271714D01*
X1372143Y-3271714D01*
X1400714Y-3286000D01*
X1415000Y-3314571D01*
X1415000Y-3471714D01*
X1415000Y-3314571D02*
X1429286Y-3286000D01*
X1457857Y-3271714D01*
X1500714Y-3271714D01*
X1529286Y-3286000D01*
X1543571Y-3314571D01*
X1543571Y-3471714D01*
X1686428Y-3471714D02*
X1686428Y-3271714D01*
X1686428Y-3300286D02*
X1700714Y-3286000D01*
X1729286Y-3271714D01*
X1772143Y-3271714D01*
X1800714Y-3286000D01*
X1815000Y-3314571D01*
X1815000Y-3471714D01*
X1815000Y-3314571D02*
X1829286Y-3286000D01*
X1857857Y-3271714D01*
X1900714Y-3271714D01*
X1929286Y-3286000D01*
X1943571Y-3314571D01*
X1943571Y-3471714D01*
X2529286Y-3157428D02*
X2272143Y-3543143D01*
X2915000Y-3171714D02*
X2943571Y-3171714D01*
X2972143Y-3186000D01*
X2986428Y-3200286D01*
X3000714Y-3228857D01*
X3015000Y-3286000D01*
X3015000Y-3357428D01*
X3000714Y-3414571D01*
X2986428Y-3443143D01*
X2972143Y-3457428D01*
X2943571Y-3471714D01*
X2915000Y-3471714D01*
X2886428Y-3457428D01*
X2872143Y-3443143D01*
X2857857Y-3414571D01*
X2843571Y-3357428D01*
X2843571Y-3286000D01*
X2857857Y-3228857D01*
X2872143Y-3200286D01*
X2886428Y-3186000D01*
X2915000Y-3171714D01*
X3143571Y-3443143D02*
X3157857Y-3457428D01*
X3143571Y-3471714D01*
X3129286Y-3457428D01*
X3143571Y-3443143D01*
X3143571Y-3471714D01*
X3343571Y-3171714D02*
X3372143Y-3171714D01*
X3400714Y-3186000D01*
X3415000Y-3200286D01*
X3429286Y-3228857D01*
X3443571Y-3286000D01*
X3443571Y-3357428D01*
X3429286Y-3414571D01*
X3415000Y-3443143D01*
X3400714Y-3457428D01*
X3372143Y-3471714D01*
X3343571Y-3471714D01*
X3315000Y-3457428D01*
X3300714Y-3443143D01*
X3286428Y-3414571D01*
X3272143Y-3357428D01*
X3272143Y-3286000D01*
X3286428Y-3228857D01*
X3300714Y-3200286D01*
X3315000Y-3186000D01*
X3343571Y-3171714D01*
X3700714Y-3271714D02*
X3700714Y-3471714D01*
X3629286Y-3157428D02*
X3557857Y-3371714D01*
X3743571Y-3371714D01*
X3829286Y-3171714D02*
X4015000Y-3171714D01*
X3915000Y-3286000D01*
X3957857Y-3286000D01*
X3986428Y-3300286D01*
X4000714Y-3314571D01*
X4015000Y-3343143D01*
X4015000Y-3414571D01*
X4000714Y-3443143D01*
X3986428Y-3457428D01*
X3957857Y-3471714D01*
X3872143Y-3471714D01*
X3843571Y-3457428D01*
X3829286Y-3443143D01*
X4129286Y-3171714D02*
X4129286Y-3228857D01*
X4243571Y-3171714D02*
X4243571Y-3228857D01*
X4686429Y-3586000D02*
X4672143Y-3571714D01*
X4643571Y-3528857D01*
X4629286Y-3500286D01*
X4615000Y-3457428D01*
X4600714Y-3386000D01*
X4600714Y-3328857D01*
X4615000Y-3257428D01*
X4629286Y-3214571D01*
X4643571Y-3186000D01*
X4672143Y-3143143D01*
X4686429Y-3128857D01*
X4943571Y-3171714D02*
X4800714Y-3171714D01*
X4786429Y-3314571D01*
X4800714Y-3300286D01*
X4829286Y-3286000D01*
X4900714Y-3286000D01*
X4929286Y-3300286D01*
X4943571Y-3314571D01*
X4957857Y-3343143D01*
X4957857Y-3414571D01*
X4943571Y-3443143D01*
X4929286Y-3457428D01*
X4900714Y-3471714D01*
X4829286Y-3471714D01*
X4800714Y-3457428D01*
X4786429Y-3443143D01*
X5243571Y-3471714D02*
X5072143Y-3471714D01*
X5157857Y-3471714D02*
X5157857Y-3171714D01*
X5129286Y-3214571D01*
X5100714Y-3243143D01*
X5072143Y-3257428D01*
X5600714Y-3471714D02*
X5600714Y-3171714D01*
X5729286Y-3471714D02*
X5729286Y-3314571D01*
X5715000Y-3286000D01*
X5686428Y-3271714D01*
X5643571Y-3271714D01*
X5615000Y-3286000D01*
X5600714Y-3300286D01*
X5915000Y-3471714D02*
X5886428Y-3457428D01*
X5872143Y-3443143D01*
X5857857Y-3414571D01*
X5857857Y-3328857D01*
X5872143Y-3300286D01*
X5886428Y-3286000D01*
X5915000Y-3271714D01*
X5957857Y-3271714D01*
X5986428Y-3286000D01*
X6000714Y-3300286D01*
X6015000Y-3328857D01*
X6015000Y-3414571D01*
X6000714Y-3443143D01*
X5986428Y-3457428D01*
X5957857Y-3471714D01*
X5915000Y-3471714D01*
X6186428Y-3471714D02*
X6157857Y-3457428D01*
X6143571Y-3428857D01*
X6143571Y-3171714D01*
X6415000Y-3457428D02*
X6386428Y-3471714D01*
X6329286Y-3471714D01*
X6300714Y-3457428D01*
X6286428Y-3428857D01*
X6286428Y-3314571D01*
X6300714Y-3286000D01*
X6329286Y-3271714D01*
X6386428Y-3271714D01*
X6415000Y-3286000D01*
X6429286Y-3314571D01*
X6429286Y-3343143D01*
X6286428Y-3371714D01*
X6543571Y-3457428D02*
X6572143Y-3471714D01*
X6629286Y-3471714D01*
X6657857Y-3457428D01*
X6672143Y-3428857D01*
X6672143Y-3414571D01*
X6657857Y-3386000D01*
X6629286Y-3371714D01*
X6586428Y-3371714D01*
X6557857Y-3357428D01*
X6543571Y-3328857D01*
X6543571Y-3314571D01*
X6557857Y-3286000D01*
X6586428Y-3271714D01*
X6629286Y-3271714D01*
X6657857Y-3286000D01*
X6772143Y-3586000D02*
X6786428Y-3571714D01*
X6815000Y-3528857D01*
X6829286Y-3500286D01*
X6843571Y-3457428D01*
X6857857Y-3386000D01*
X6857857Y-3328857D01*
X6843571Y-3257428D01*
X6829286Y-3214571D01*
X6815000Y-3186000D01*
X6786428Y-3143143D01*
X6772143Y-3128857D01*
X-120000Y-3672000D02*
X0Y-3792000D01*
X0Y-3672000D02*
X-120000Y-3792000D01*
X-17573Y-3774427D02*
X-17573Y-3689573D01*
X-102427Y-3689573D01*
X-102427Y-3774427D01*
X-17573Y-3774427D01*
X443571Y-3867714D02*
X272143Y-3867714D01*
X357857Y-3867714D02*
X357857Y-3567714D01*
X329286Y-3610571D01*
X300714Y-3639143D01*
X272143Y-3653428D01*
X572143Y-3839143D02*
X586429Y-3853428D01*
X572143Y-3867714D01*
X557857Y-3853428D01*
X572143Y-3839143D01*
X572143Y-3867714D01*
X700714Y-3596286D02*
X715000Y-3582000D01*
X743571Y-3567714D01*
X815000Y-3567714D01*
X843571Y-3582000D01*
X857857Y-3596286D01*
X872143Y-3624857D01*
X872143Y-3653428D01*
X857857Y-3696286D01*
X686429Y-3867714D01*
X872143Y-3867714D01*
X1057857Y-3567714D02*
X1086429Y-3567714D01*
X1115000Y-3582000D01*
X1129286Y-3596286D01*
X1143571Y-3624857D01*
X1157857Y-3682000D01*
X1157857Y-3753428D01*
X1143571Y-3810571D01*
X1129286Y-3839143D01*
X1115000Y-3853428D01*
X1086429Y-3867714D01*
X1057857Y-3867714D01*
X1029286Y-3853428D01*
X1015000Y-3839143D01*
X1000714Y-3810571D01*
X986428Y-3753428D01*
X986428Y-3682000D01*
X1000714Y-3624857D01*
X1015000Y-3596286D01*
X1029286Y-3582000D01*
X1057857Y-3567714D01*
X1286429Y-3867714D02*
X1286429Y-3667714D01*
X1286429Y-3696286D02*
X1300714Y-3682000D01*
X1329286Y-3667714D01*
X1372143Y-3667714D01*
X1400714Y-3682000D01*
X1415000Y-3710571D01*
X1415000Y-3867714D01*
X1415000Y-3710571D02*
X1429286Y-3682000D01*
X1457857Y-3667714D01*
X1500714Y-3667714D01*
X1529286Y-3682000D01*
X1543571Y-3710571D01*
X1543571Y-3867714D01*
X1686428Y-3867714D02*
X1686428Y-3667714D01*
X1686428Y-3696286D02*
X1700714Y-3682000D01*
X1729286Y-3667714D01*
X1772143Y-3667714D01*
X1800714Y-3682000D01*
X1815000Y-3710571D01*
X1815000Y-3867714D01*
X1815000Y-3710571D02*
X1829286Y-3682000D01*
X1857857Y-3667714D01*
X1900714Y-3667714D01*
X1929286Y-3682000D01*
X1943571Y-3710571D01*
X1943571Y-3867714D01*
X2529286Y-3553428D02*
X2272143Y-3939143D01*
X2915000Y-3567714D02*
X2943571Y-3567714D01*
X2972143Y-3582000D01*
X2986428Y-3596286D01*
X3000714Y-3624857D01*
X3015000Y-3682000D01*
X3015000Y-3753428D01*
X3000714Y-3810571D01*
X2986428Y-3839143D01*
X2972143Y-3853428D01*
X2943571Y-3867714D01*
X2915000Y-3867714D01*
X2886428Y-3853428D01*
X2872143Y-3839143D01*
X2857857Y-3810571D01*
X2843571Y-3753428D01*
X2843571Y-3682000D01*
X2857857Y-3624857D01*
X2872143Y-3596286D01*
X2886428Y-3582000D01*
X2915000Y-3567714D01*
X3143571Y-3839143D02*
X3157857Y-3853428D01*
X3143571Y-3867714D01*
X3129286Y-3853428D01*
X3143571Y-3839143D01*
X3143571Y-3867714D01*
X3343571Y-3567714D02*
X3372143Y-3567714D01*
X3400714Y-3582000D01*
X3415000Y-3596286D01*
X3429286Y-3624857D01*
X3443571Y-3682000D01*
X3443571Y-3753428D01*
X3429286Y-3810571D01*
X3415000Y-3839143D01*
X3400714Y-3853428D01*
X3372143Y-3867714D01*
X3343571Y-3867714D01*
X3315000Y-3853428D01*
X3300714Y-3839143D01*
X3286428Y-3810571D01*
X3272143Y-3753428D01*
X3272143Y-3682000D01*
X3286428Y-3624857D01*
X3300714Y-3596286D01*
X3315000Y-3582000D01*
X3343571Y-3567714D01*
X3700714Y-3667714D02*
X3700714Y-3867714D01*
X3629286Y-3553428D02*
X3557857Y-3767714D01*
X3743571Y-3767714D01*
X3829286Y-3567714D02*
X4029286Y-3567714D01*
X3900714Y-3867714D01*
X4129286Y-3567714D02*
X4129286Y-3624857D01*
X4243571Y-3567714D02*
X4243571Y-3624857D01*
X4686429Y-3982000D02*
X4672143Y-3967714D01*
X4643571Y-3924857D01*
X4629286Y-3896286D01*
X4615000Y-3853428D01*
X4600714Y-3782000D01*
X4600714Y-3724857D01*
X4615000Y-3653428D01*
X4629286Y-3610571D01*
X4643571Y-3582000D01*
X4672143Y-3539143D01*
X4686429Y-3524857D01*
X4957857Y-3867714D02*
X4786429Y-3867714D01*
X4872143Y-3867714D02*
X4872143Y-3567714D01*
X4843571Y-3610571D01*
X4815000Y-3639143D01*
X4786429Y-3653428D01*
X5129286Y-3696286D02*
X5100714Y-3682000D01*
X5086429Y-3667714D01*
X5072143Y-3639143D01*
X5072143Y-3624857D01*
X5086429Y-3596286D01*
X5100714Y-3582000D01*
X5129286Y-3567714D01*
X5186429Y-3567714D01*
X5215000Y-3582000D01*
X5229286Y-3596286D01*
X5243571Y-3624857D01*
X5243571Y-3639143D01*
X5229286Y-3667714D01*
X5215000Y-3682000D01*
X5186429Y-3696286D01*
X5129286Y-3696286D01*
X5100714Y-3710571D01*
X5086429Y-3724857D01*
X5072143Y-3753428D01*
X5072143Y-3810571D01*
X5086429Y-3839143D01*
X5100714Y-3853428D01*
X5129286Y-3867714D01*
X5186429Y-3867714D01*
X5215000Y-3853428D01*
X5229286Y-3839143D01*
X5243571Y-3810571D01*
X5243571Y-3753428D01*
X5229286Y-3724857D01*
X5215000Y-3710571D01*
X5186429Y-3696286D01*
X5600714Y-3867714D02*
X5600714Y-3567714D01*
X5729286Y-3867714D02*
X5729286Y-3710571D01*
X5715000Y-3682000D01*
X5686428Y-3667714D01*
X5643571Y-3667714D01*
X5615000Y-3682000D01*
X5600714Y-3696286D01*
X5915000Y-3867714D02*
X5886428Y-3853428D01*
X5872143Y-3839143D01*
X5857857Y-3810571D01*
X5857857Y-3724857D01*
X5872143Y-3696286D01*
X5886428Y-3682000D01*
X5915000Y-3667714D01*
X5957857Y-3667714D01*
X5986428Y-3682000D01*
X6000714Y-3696286D01*
X6015000Y-3724857D01*
X6015000Y-3810571D01*
X6000714Y-3839143D01*
X5986428Y-3853428D01*
X5957857Y-3867714D01*
X5915000Y-3867714D01*
X6186428Y-3867714D02*
X6157857Y-3853428D01*
X6143571Y-3824857D01*
X6143571Y-3567714D01*
X6415000Y-3853428D02*
X6386428Y-3867714D01*
X6329286Y-3867714D01*
X6300714Y-3853428D01*
X6286428Y-3824857D01*
X6286428Y-3710571D01*
X6300714Y-3682000D01*
X6329286Y-3667714D01*
X6386428Y-3667714D01*
X6415000Y-3682000D01*
X6429286Y-3710571D01*
X6429286Y-3739143D01*
X6286428Y-3767714D01*
X6543571Y-3853428D02*
X6572143Y-3867714D01*
X6629286Y-3867714D01*
X6657857Y-3853428D01*
X6672143Y-3824857D01*
X6672143Y-3810571D01*
X6657857Y-3782000D01*
X6629286Y-3767714D01*
X6586428Y-3767714D01*
X6557857Y-3753428D01*
X6543571Y-3724857D01*
X6543571Y-3710571D01*
X6557857Y-3682000D01*
X6586428Y-3667714D01*
X6629286Y-3667714D01*
X6657857Y-3682000D01*
X6772143Y-3982000D02*
X6786428Y-3967714D01*
X6815000Y-3924857D01*
X6829286Y-3896286D01*
X6843571Y-3853428D01*
X6857857Y-3782000D01*
X6857857Y-3724857D01*
X6843571Y-3653428D01*
X6829286Y-3610571D01*
X6815000Y-3582000D01*
X6786428Y-3539143D01*
X6772143Y-3524857D01*
X-140000Y-4058000D02*
X0Y-4198000D01*
X0Y-4058000D02*
X-140000Y-4198000D01*
X-70000Y-4198000D02*
X0Y-4128000D01*
X-70000Y-4058000D01*
X-140000Y-4128000D01*
X-70000Y-4198000D01*
X443571Y-4263714D02*
X272143Y-4263714D01*
X357857Y-4263714D02*
X357857Y-3963714D01*
X329286Y-4006571D01*
X300714Y-4035143D01*
X272143Y-4049428D01*
X572143Y-4235143D02*
X586429Y-4249429D01*
X572143Y-4263714D01*
X557857Y-4249429D01*
X572143Y-4235143D01*
X572143Y-4263714D01*
X843571Y-4063714D02*
X843571Y-4263714D01*
X772143Y-3949428D02*
X700714Y-4163714D01*
X886428Y-4163714D01*
X1057857Y-3963714D02*
X1086429Y-3963714D01*
X1115000Y-3978000D01*
X1129286Y-3992286D01*
X1143571Y-4020857D01*
X1157857Y-4078000D01*
X1157857Y-4149428D01*
X1143571Y-4206571D01*
X1129286Y-4235143D01*
X1115000Y-4249429D01*
X1086429Y-4263714D01*
X1057857Y-4263714D01*
X1029286Y-4249429D01*
X1015000Y-4235143D01*
X1000714Y-4206571D01*
X986428Y-4149428D01*
X986428Y-4078000D01*
X1000714Y-4020857D01*
X1015000Y-3992286D01*
X1029286Y-3978000D01*
X1057857Y-3963714D01*
X1286429Y-4263714D02*
X1286429Y-4063714D01*
X1286429Y-4092286D02*
X1300714Y-4078000D01*
X1329286Y-4063714D01*
X1372143Y-4063714D01*
X1400714Y-4078000D01*
X1415000Y-4106571D01*
X1415000Y-4263714D01*
X1415000Y-4106571D02*
X1429286Y-4078000D01*
X1457857Y-4063714D01*
X1500714Y-4063714D01*
X1529286Y-4078000D01*
X1543571Y-4106571D01*
X1543571Y-4263714D01*
X1686428Y-4263714D02*
X1686428Y-4063714D01*
X1686428Y-4092286D02*
X1700714Y-4078000D01*
X1729286Y-4063714D01*
X1772143Y-4063714D01*
X1800714Y-4078000D01*
X1815000Y-4106571D01*
X1815000Y-4263714D01*
X1815000Y-4106571D02*
X1829286Y-4078000D01*
X1857857Y-4063714D01*
X1900714Y-4063714D01*
X1929286Y-4078000D01*
X1943571Y-4106571D01*
X1943571Y-4263714D01*
X2529286Y-3949428D02*
X2272143Y-4335143D01*
X2915000Y-3963714D02*
X2943571Y-3963714D01*
X2972143Y-3978000D01*
X2986428Y-3992286D01*
X3000714Y-4020857D01*
X3015000Y-4078000D01*
X3015000Y-4149428D01*
X3000714Y-4206571D01*
X2986428Y-4235143D01*
X2972143Y-4249429D01*
X2943571Y-4263714D01*
X2915000Y-4263714D01*
X2886428Y-4249429D01*
X2872143Y-4235143D01*
X2857857Y-4206571D01*
X2843571Y-4149428D01*
X2843571Y-4078000D01*
X2857857Y-4020857D01*
X2872143Y-3992286D01*
X2886428Y-3978000D01*
X2915000Y-3963714D01*
X3143571Y-4235143D02*
X3157857Y-4249429D01*
X3143571Y-4263714D01*
X3129286Y-4249429D01*
X3143571Y-4235143D01*
X3143571Y-4263714D01*
X3343571Y-3963714D02*
X3372143Y-3963714D01*
X3400714Y-3978000D01*
X3415000Y-3992286D01*
X3429286Y-4020857D01*
X3443571Y-4078000D01*
X3443571Y-4149428D01*
X3429286Y-4206571D01*
X3415000Y-4235143D01*
X3400714Y-4249429D01*
X3372143Y-4263714D01*
X3343571Y-4263714D01*
X3315000Y-4249429D01*
X3300714Y-4235143D01*
X3286428Y-4206571D01*
X3272143Y-4149428D01*
X3272143Y-4078000D01*
X3286428Y-4020857D01*
X3300714Y-3992286D01*
X3315000Y-3978000D01*
X3343571Y-3963714D01*
X3715000Y-3963714D02*
X3572143Y-3963714D01*
X3557857Y-4106571D01*
X3572143Y-4092286D01*
X3600714Y-4078000D01*
X3672143Y-4078000D01*
X3700714Y-4092286D01*
X3715000Y-4106571D01*
X3729286Y-4135143D01*
X3729286Y-4206571D01*
X3715000Y-4235143D01*
X3700714Y-4249429D01*
X3672143Y-4263714D01*
X3600714Y-4263714D01*
X3572143Y-4249429D01*
X3557857Y-4235143D01*
X4000714Y-3963714D02*
X3857857Y-3963714D01*
X3843571Y-4106571D01*
X3857857Y-4092286D01*
X3886428Y-4078000D01*
X3957857Y-4078000D01*
X3986428Y-4092286D01*
X4000714Y-4106571D01*
X4015000Y-4135143D01*
X4015000Y-4206571D01*
X4000714Y-4235143D01*
X3986428Y-4249429D01*
X3957857Y-4263714D01*
X3886428Y-4263714D01*
X3857857Y-4249429D01*
X3843571Y-4235143D01*
X4129286Y-3963714D02*
X4129286Y-4020857D01*
X4243571Y-3963714D02*
X4243571Y-4020857D01*
X4686429Y-4378000D02*
X4672143Y-4363714D01*
X4643571Y-4320857D01*
X4629286Y-4292286D01*
X4615000Y-4249429D01*
X4600714Y-4178000D01*
X4600714Y-4120857D01*
X4615000Y-4049428D01*
X4629286Y-4006571D01*
X4643571Y-3978000D01*
X4672143Y-3935143D01*
X4686429Y-3920857D01*
X4772143Y-3963714D02*
X4957857Y-3963714D01*
X4857857Y-4078000D01*
X4900714Y-4078000D01*
X4929286Y-4092286D01*
X4943571Y-4106571D01*
X4957857Y-4135143D01*
X4957857Y-4206571D01*
X4943571Y-4235143D01*
X4929286Y-4249429D01*
X4900714Y-4263714D01*
X4815000Y-4263714D01*
X4786429Y-4249429D01*
X4772143Y-4235143D01*
X5315000Y-4263714D02*
X5315000Y-3963714D01*
X5443571Y-4263714D02*
X5443571Y-4106571D01*
X5429286Y-4078000D01*
X5400714Y-4063714D01*
X5357857Y-4063714D01*
X5329286Y-4078000D01*
X5315000Y-4092286D01*
X5629286Y-4263714D02*
X5600714Y-4249429D01*
X5586429Y-4235143D01*
X5572143Y-4206571D01*
X5572143Y-4120857D01*
X5586429Y-4092286D01*
X5600714Y-4078000D01*
X5629286Y-4063714D01*
X5672143Y-4063714D01*
X5700714Y-4078000D01*
X5715000Y-4092286D01*
X5729286Y-4120857D01*
X5729286Y-4206571D01*
X5715000Y-4235143D01*
X5700714Y-4249429D01*
X5672143Y-4263714D01*
X5629286Y-4263714D01*
X5900714Y-4263714D02*
X5872143Y-4249429D01*
X5857857Y-4220857D01*
X5857857Y-3963714D01*
X6129286Y-4249429D02*
X6100714Y-4263714D01*
X6043571Y-4263714D01*
X6015000Y-4249429D01*
X6000714Y-4220857D01*
X6000714Y-4106571D01*
X6015000Y-4078000D01*
X6043571Y-4063714D01*
X6100714Y-4063714D01*
X6129286Y-4078000D01*
X6143571Y-4106571D01*
X6143571Y-4135143D01*
X6000714Y-4163714D01*
X6257857Y-4249429D02*
X6286428Y-4263714D01*
X6343571Y-4263714D01*
X6372143Y-4249429D01*
X6386428Y-4220857D01*
X6386428Y-4206571D01*
X6372143Y-4178000D01*
X6343571Y-4163714D01*
X6300714Y-4163714D01*
X6272143Y-4149428D01*
X6257857Y-4120857D01*
X6257857Y-4106571D01*
X6272143Y-4078000D01*
X6300714Y-4063714D01*
X6343571Y-4063714D01*
X6372143Y-4078000D01*
X6486428Y-4378000D02*
X6500714Y-4363714D01*
X6529286Y-4320857D01*
X6543571Y-4292286D01*
X6557857Y-4249429D01*
X6572143Y-4178000D01*
X6572143Y-4120857D01*
X6557857Y-4049428D01*
X6543571Y-4006571D01*
X6529286Y-3978000D01*
X6500714Y-3935143D01*
X6486428Y-3920857D01*
X-76000Y-4448000D02*
X-76000Y-4600000D01*
X-152000Y-4524000D02*
X0Y-4524000D01*
X0Y-4524000D02*
G75*
G03X0Y-4524000I-76000J0D01*
G01*
X443571Y-4659714D02*
X272143Y-4659714D01*
X357857Y-4659714D02*
X357857Y-4359714D01*
X329286Y-4402571D01*
X300714Y-4431143D01*
X272143Y-4445429D01*
X572143Y-4631143D02*
X586429Y-4645429D01*
X572143Y-4659714D01*
X557857Y-4645429D01*
X572143Y-4631143D01*
X572143Y-4659714D01*
X857857Y-4359714D02*
X715000Y-4359714D01*
X700714Y-4502571D01*
X715000Y-4488286D01*
X743571Y-4474000D01*
X815000Y-4474000D01*
X843571Y-4488286D01*
X857857Y-4502571D01*
X872143Y-4531143D01*
X872143Y-4602571D01*
X857857Y-4631143D01*
X843571Y-4645429D01*
X815000Y-4659714D01*
X743571Y-4659714D01*
X715000Y-4645429D01*
X700714Y-4631143D01*
X986428Y-4388286D02*
X1000714Y-4374000D01*
X1029286Y-4359714D01*
X1100714Y-4359714D01*
X1129286Y-4374000D01*
X1143571Y-4388286D01*
X1157857Y-4416857D01*
X1157857Y-4445429D01*
X1143571Y-4488286D01*
X972143Y-4659714D01*
X1157857Y-4659714D01*
X1286429Y-4659714D02*
X1286429Y-4459714D01*
X1286429Y-4488286D02*
X1300714Y-4474000D01*
X1329286Y-4459714D01*
X1372143Y-4459714D01*
X1400714Y-4474000D01*
X1415000Y-4502571D01*
X1415000Y-4659714D01*
X1415000Y-4502571D02*
X1429286Y-4474000D01*
X1457857Y-4459714D01*
X1500714Y-4459714D01*
X1529286Y-4474000D01*
X1543571Y-4502571D01*
X1543571Y-4659714D01*
X1686428Y-4659714D02*
X1686428Y-4459714D01*
X1686428Y-4488286D02*
X1700714Y-4474000D01*
X1729286Y-4459714D01*
X1772143Y-4459714D01*
X1800714Y-4474000D01*
X1815000Y-4502571D01*
X1815000Y-4659714D01*
X1815000Y-4502571D02*
X1829286Y-4474000D01*
X1857857Y-4459714D01*
X1900714Y-4459714D01*
X1929286Y-4474000D01*
X1943571Y-4502571D01*
X1943571Y-4659714D01*
X2529286Y-4345429D02*
X2272143Y-4731143D01*
X2915000Y-4359714D02*
X2943571Y-4359714D01*
X2972143Y-4374000D01*
X2986428Y-4388286D01*
X3000714Y-4416857D01*
X3015000Y-4474000D01*
X3015000Y-4545429D01*
X3000714Y-4602571D01*
X2986428Y-4631143D01*
X2972143Y-4645429D01*
X2943571Y-4659714D01*
X2915000Y-4659714D01*
X2886428Y-4645429D01*
X2872143Y-4631143D01*
X2857857Y-4602571D01*
X2843571Y-4545429D01*
X2843571Y-4474000D01*
X2857857Y-4416857D01*
X2872143Y-4388286D01*
X2886428Y-4374000D01*
X2915000Y-4359714D01*
X3143571Y-4631143D02*
X3157857Y-4645429D01*
X3143571Y-4659714D01*
X3129286Y-4645429D01*
X3143571Y-4631143D01*
X3143571Y-4659714D01*
X3343571Y-4359714D02*
X3372143Y-4359714D01*
X3400714Y-4374000D01*
X3415000Y-4388286D01*
X3429286Y-4416857D01*
X3443571Y-4474000D01*
X3443571Y-4545429D01*
X3429286Y-4602571D01*
X3415000Y-4631143D01*
X3400714Y-4645429D01*
X3372143Y-4659714D01*
X3343571Y-4659714D01*
X3315000Y-4645429D01*
X3300714Y-4631143D01*
X3286428Y-4602571D01*
X3272143Y-4545429D01*
X3272143Y-4474000D01*
X3286428Y-4416857D01*
X3300714Y-4388286D01*
X3315000Y-4374000D01*
X3343571Y-4359714D01*
X3700714Y-4359714D02*
X3643571Y-4359714D01*
X3615000Y-4374000D01*
X3600714Y-4388286D01*
X3572143Y-4431143D01*
X3557857Y-4488286D01*
X3557857Y-4602571D01*
X3572143Y-4631143D01*
X3586428Y-4645429D01*
X3615000Y-4659714D01*
X3672143Y-4659714D01*
X3700714Y-4645429D01*
X3715000Y-4631143D01*
X3729286Y-4602571D01*
X3729286Y-4531143D01*
X3715000Y-4502571D01*
X3700714Y-4488286D01*
X3672143Y-4474000D01*
X3615000Y-4474000D01*
X3586428Y-4488286D01*
X3572143Y-4502571D01*
X3557857Y-4531143D01*
X3915000Y-4359714D02*
X3943571Y-4359714D01*
X3972143Y-4374000D01*
X3986428Y-4388286D01*
X4000714Y-4416857D01*
X4015000Y-4474000D01*
X4015000Y-4545429D01*
X4000714Y-4602571D01*
X3986428Y-4631143D01*
X3972143Y-4645429D01*
X3943571Y-4659714D01*
X3915000Y-4659714D01*
X3886428Y-4645429D01*
X3872143Y-4631143D01*
X3857857Y-4602571D01*
X3843571Y-4545429D01*
X3843571Y-4474000D01*
X3857857Y-4416857D01*
X3872143Y-4388286D01*
X3886428Y-4374000D01*
X3915000Y-4359714D01*
X4129286Y-4359714D02*
X4129286Y-4416857D01*
X4243571Y-4359714D02*
X4243571Y-4416857D01*
X4686429Y-4774000D02*
X4672143Y-4759714D01*
X4643571Y-4716857D01*
X4629286Y-4688286D01*
X4615000Y-4645429D01*
X4600714Y-4574000D01*
X4600714Y-4516857D01*
X4615000Y-4445429D01*
X4629286Y-4402571D01*
X4643571Y-4374000D01*
X4672143Y-4331143D01*
X4686429Y-4316857D01*
X4786429Y-4388286D02*
X4800714Y-4374000D01*
X4829286Y-4359714D01*
X4900714Y-4359714D01*
X4929286Y-4374000D01*
X4943571Y-4388286D01*
X4957857Y-4416857D01*
X4957857Y-4445429D01*
X4943571Y-4488286D01*
X4772143Y-4659714D01*
X4957857Y-4659714D01*
X5215000Y-4359714D02*
X5157857Y-4359714D01*
X5129286Y-4374000D01*
X5115000Y-4388286D01*
X5086429Y-4431143D01*
X5072143Y-4488286D01*
X5072143Y-4602571D01*
X5086429Y-4631143D01*
X5100714Y-4645429D01*
X5129286Y-4659714D01*
X5186429Y-4659714D01*
X5215000Y-4645429D01*
X5229286Y-4631143D01*
X5243571Y-4602571D01*
X5243571Y-4531143D01*
X5229286Y-4502571D01*
X5215000Y-4488286D01*
X5186429Y-4474000D01*
X5129286Y-4474000D01*
X5100714Y-4488286D01*
X5086429Y-4502571D01*
X5072143Y-4531143D01*
X5600714Y-4659714D02*
X5600714Y-4359714D01*
X5729286Y-4659714D02*
X5729286Y-4502571D01*
X5715000Y-4474000D01*
X5686428Y-4459714D01*
X5643571Y-4459714D01*
X5615000Y-4474000D01*
X5600714Y-4488286D01*
X5915000Y-4659714D02*
X5886428Y-4645429D01*
X5872143Y-4631143D01*
X5857857Y-4602571D01*
X5857857Y-4516857D01*
X5872143Y-4488286D01*
X5886428Y-4474000D01*
X5915000Y-4459714D01*
X5957857Y-4459714D01*
X5986428Y-4474000D01*
X6000714Y-4488286D01*
X6015000Y-4516857D01*
X6015000Y-4602571D01*
X6000714Y-4631143D01*
X5986428Y-4645429D01*
X5957857Y-4659714D01*
X5915000Y-4659714D01*
X6186428Y-4659714D02*
X6157857Y-4645429D01*
X6143571Y-4616857D01*
X6143571Y-4359714D01*
X6415000Y-4645429D02*
X6386428Y-4659714D01*
X6329286Y-4659714D01*
X6300714Y-4645429D01*
X6286428Y-4616857D01*
X6286428Y-4502571D01*
X6300714Y-4474000D01*
X6329286Y-4459714D01*
X6386428Y-4459714D01*
X6415000Y-4474000D01*
X6429286Y-4502571D01*
X6429286Y-4531143D01*
X6286428Y-4559714D01*
X6543571Y-4645429D02*
X6572143Y-4659714D01*
X6629286Y-4659714D01*
X6657857Y-4645429D01*
X6672143Y-4616857D01*
X6672143Y-4602571D01*
X6657857Y-4574000D01*
X6629286Y-4559714D01*
X6586428Y-4559714D01*
X6557857Y-4545429D01*
X6543571Y-4516857D01*
X6543571Y-4502571D01*
X6557857Y-4474000D01*
X6586428Y-4459714D01*
X6629286Y-4459714D01*
X6657857Y-4474000D01*
X6772143Y-4774000D02*
X6786428Y-4759714D01*
X6815000Y-4716857D01*
X6829286Y-4688286D01*
X6843571Y-4645429D01*
X6857857Y-4574000D01*
X6857857Y-4516857D01*
X6843571Y-4445429D01*
X6829286Y-4402571D01*
X6815000Y-4374000D01*
X6786428Y-4331143D01*
X6772143Y-4316857D01*
X-23431Y-4976569D02*
X-23431Y-4863431D01*
X-136569Y-4863431D01*
X-136569Y-4976569D01*
X-23431Y-4976569D01*
X0Y-4920000D02*
G75*
G03X0Y-4920000I-80000J0D01*
G01*
X443571Y-5055714D02*
X272143Y-5055714D01*
X357857Y-5055714D02*
X357857Y-4755714D01*
X329286Y-4798571D01*
X300714Y-4827143D01*
X272143Y-4841429D01*
X572143Y-5027143D02*
X586429Y-5041429D01*
X572143Y-5055714D01*
X557857Y-5041429D01*
X572143Y-5027143D01*
X572143Y-5055714D01*
X843571Y-4755714D02*
X786428Y-4755714D01*
X757857Y-4770000D01*
X743571Y-4784286D01*
X715000Y-4827143D01*
X700714Y-4884286D01*
X700714Y-4998571D01*
X715000Y-5027143D01*
X729286Y-5041429D01*
X757857Y-5055714D01*
X815000Y-5055714D01*
X843571Y-5041429D01*
X857857Y-5027143D01*
X872143Y-4998571D01*
X872143Y-4927143D01*
X857857Y-4898571D01*
X843571Y-4884286D01*
X815000Y-4870000D01*
X757857Y-4870000D01*
X729286Y-4884286D01*
X715000Y-4898571D01*
X700714Y-4927143D01*
X1057857Y-4755714D02*
X1086429Y-4755714D01*
X1115000Y-4770000D01*
X1129286Y-4784286D01*
X1143571Y-4812857D01*
X1157857Y-4870000D01*
X1157857Y-4941429D01*
X1143571Y-4998571D01*
X1129286Y-5027143D01*
X1115000Y-5041429D01*
X1086429Y-5055714D01*
X1057857Y-5055714D01*
X1029286Y-5041429D01*
X1015000Y-5027143D01*
X1000714Y-4998571D01*
X986428Y-4941429D01*
X986428Y-4870000D01*
X1000714Y-4812857D01*
X1015000Y-4784286D01*
X1029286Y-4770000D01*
X1057857Y-4755714D01*
X1286429Y-5055714D02*
X1286429Y-4855714D01*
X1286429Y-4884286D02*
X1300714Y-4870000D01*
X1329286Y-4855714D01*
X1372143Y-4855714D01*
X1400714Y-4870000D01*
X1415000Y-4898571D01*
X1415000Y-5055714D01*
X1415000Y-4898571D02*
X1429286Y-4870000D01*
X1457857Y-4855714D01*
X1500714Y-4855714D01*
X1529286Y-4870000D01*
X1543571Y-4898571D01*
X1543571Y-5055714D01*
X1686428Y-5055714D02*
X1686428Y-4855714D01*
X1686428Y-4884286D02*
X1700714Y-4870000D01*
X1729286Y-4855714D01*
X1772143Y-4855714D01*
X1800714Y-4870000D01*
X1815000Y-4898571D01*
X1815000Y-5055714D01*
X1815000Y-4898571D02*
X1829286Y-4870000D01*
X1857857Y-4855714D01*
X1900714Y-4855714D01*
X1929286Y-4870000D01*
X1943571Y-4898571D01*
X1943571Y-5055714D01*
X2529286Y-4741429D02*
X2272143Y-5127143D01*
X2915000Y-4755714D02*
X2943571Y-4755714D01*
X2972143Y-4770000D01*
X2986428Y-4784286D01*
X3000714Y-4812857D01*
X3015000Y-4870000D01*
X3015000Y-4941429D01*
X3000714Y-4998571D01*
X2986428Y-5027143D01*
X2972143Y-5041429D01*
X2943571Y-5055714D01*
X2915000Y-5055714D01*
X2886428Y-5041429D01*
X2872143Y-5027143D01*
X2857857Y-4998571D01*
X2843571Y-4941429D01*
X2843571Y-4870000D01*
X2857857Y-4812857D01*
X2872143Y-4784286D01*
X2886428Y-4770000D01*
X2915000Y-4755714D01*
X3143571Y-5027143D02*
X3157857Y-5041429D01*
X3143571Y-5055714D01*
X3129286Y-5041429D01*
X3143571Y-5027143D01*
X3143571Y-5055714D01*
X3343571Y-4755714D02*
X3372143Y-4755714D01*
X3400714Y-4770000D01*
X3415000Y-4784286D01*
X3429286Y-4812857D01*
X3443571Y-4870000D01*
X3443571Y-4941429D01*
X3429286Y-4998571D01*
X3415000Y-5027143D01*
X3400714Y-5041429D01*
X3372143Y-5055714D01*
X3343571Y-5055714D01*
X3315000Y-5041429D01*
X3300714Y-5027143D01*
X3286428Y-4998571D01*
X3272143Y-4941429D01*
X3272143Y-4870000D01*
X3286428Y-4812857D01*
X3300714Y-4784286D01*
X3315000Y-4770000D01*
X3343571Y-4755714D01*
X3700714Y-4755714D02*
X3643571Y-4755714D01*
X3615000Y-4770000D01*
X3600714Y-4784286D01*
X3572143Y-4827143D01*
X3557857Y-4884286D01*
X3557857Y-4998571D01*
X3572143Y-5027143D01*
X3586428Y-5041429D01*
X3615000Y-5055714D01*
X3672143Y-5055714D01*
X3700714Y-5041429D01*
X3715000Y-5027143D01*
X3729286Y-4998571D01*
X3729286Y-4927143D01*
X3715000Y-4898571D01*
X3700714Y-4884286D01*
X3672143Y-4870000D01*
X3615000Y-4870000D01*
X3586428Y-4884286D01*
X3572143Y-4898571D01*
X3557857Y-4927143D01*
X3829286Y-4755714D02*
X4015000Y-4755714D01*
X3915000Y-4870000D01*
X3957857Y-4870000D01*
X3986428Y-4884286D01*
X4000714Y-4898571D01*
X4015000Y-4927143D01*
X4015000Y-4998571D01*
X4000714Y-5027143D01*
X3986428Y-5041429D01*
X3957857Y-5055714D01*
X3872143Y-5055714D01*
X3843571Y-5041429D01*
X3829286Y-5027143D01*
X4129286Y-4755714D02*
X4129286Y-4812857D01*
X4243571Y-4755714D02*
X4243571Y-4812857D01*
X4686429Y-5170000D02*
X4672143Y-5155714D01*
X4643571Y-5112857D01*
X4629286Y-5084286D01*
X4615000Y-5041429D01*
X4600714Y-4970000D01*
X4600714Y-4912857D01*
X4615000Y-4841429D01*
X4629286Y-4798571D01*
X4643571Y-4770000D01*
X4672143Y-4727143D01*
X4686429Y-4712857D01*
X4786429Y-4784286D02*
X4800714Y-4770000D01*
X4829286Y-4755714D01*
X4900714Y-4755714D01*
X4929286Y-4770000D01*
X4943571Y-4784286D01*
X4957857Y-4812857D01*
X4957857Y-4841429D01*
X4943571Y-4884286D01*
X4772143Y-5055714D01*
X4957857Y-5055714D01*
X5315000Y-5055714D02*
X5315000Y-4755714D01*
X5443571Y-5055714D02*
X5443571Y-4898571D01*
X5429286Y-4870000D01*
X5400714Y-4855714D01*
X5357857Y-4855714D01*
X5329286Y-4870000D01*
X5315000Y-4884286D01*
X5629286Y-5055714D02*
X5600714Y-5041429D01*
X5586429Y-5027143D01*
X5572143Y-4998571D01*
X5572143Y-4912857D01*
X5586429Y-4884286D01*
X5600714Y-4870000D01*
X5629286Y-4855714D01*
X5672143Y-4855714D01*
X5700714Y-4870000D01*
X5715000Y-4884286D01*
X5729286Y-4912857D01*
X5729286Y-4998571D01*
X5715000Y-5027143D01*
X5700714Y-5041429D01*
X5672143Y-5055714D01*
X5629286Y-5055714D01*
X5900714Y-5055714D02*
X5872143Y-5041429D01*
X5857857Y-5012857D01*
X5857857Y-4755714D01*
X6129286Y-5041429D02*
X6100714Y-5055714D01*
X6043571Y-5055714D01*
X6015000Y-5041429D01*
X6000714Y-5012857D01*
X6000714Y-4898571D01*
X6015000Y-4870000D01*
X6043571Y-4855714D01*
X6100714Y-4855714D01*
X6129286Y-4870000D01*
X6143571Y-4898571D01*
X6143571Y-4927143D01*
X6000714Y-4955714D01*
X6257857Y-5041429D02*
X6286428Y-5055714D01*
X6343571Y-5055714D01*
X6372143Y-5041429D01*
X6386428Y-5012857D01*
X6386428Y-4998571D01*
X6372143Y-4970000D01*
X6343571Y-4955714D01*
X6300714Y-4955714D01*
X6272143Y-4941429D01*
X6257857Y-4912857D01*
X6257857Y-4898571D01*
X6272143Y-4870000D01*
X6300714Y-4855714D01*
X6343571Y-4855714D01*
X6372143Y-4870000D01*
X6486428Y-5170000D02*
X6500714Y-5155714D01*
X6529286Y-5112857D01*
X6543571Y-5084286D01*
X6557857Y-5041429D01*
X6572143Y-4970000D01*
X6572143Y-4912857D01*
X6557857Y-4841429D01*
X6543571Y-4798571D01*
X6529286Y-4770000D01*
X6500714Y-4727143D01*
X6486428Y-4712857D01*
X-163195Y-5479195D02*
X0Y-5316000D01*
X-163195Y-5152805D01*
X-326390Y-5316000D01*
X-163195Y-5479195D01*
X0Y-5316000D02*
G75*
G03X0Y-5316000I-163195J0D01*
G01*
X257857Y-5151714D02*
X443571Y-5151714D01*
X343571Y-5266000D01*
X386428Y-5266000D01*
X415000Y-5280286D01*
X429286Y-5294571D01*
X443571Y-5323143D01*
X443571Y-5394571D01*
X429286Y-5423143D01*
X415000Y-5437429D01*
X386428Y-5451714D01*
X300714Y-5451714D01*
X272143Y-5437429D01*
X257857Y-5423143D01*
X572143Y-5423143D02*
X586429Y-5437429D01*
X572143Y-5451714D01*
X557857Y-5437429D01*
X572143Y-5423143D01*
X572143Y-5451714D01*
X700714Y-5180286D02*
X715000Y-5166000D01*
X743571Y-5151714D01*
X815000Y-5151714D01*
X843571Y-5166000D01*
X857857Y-5180286D01*
X872143Y-5208857D01*
X872143Y-5237429D01*
X857857Y-5280286D01*
X686429Y-5451714D01*
X872143Y-5451714D01*
X1129286Y-5151714D02*
X1072143Y-5151714D01*
X1043571Y-5166000D01*
X1029286Y-5180286D01*
X1000714Y-5223143D01*
X986428Y-5280286D01*
X986428Y-5394571D01*
X1000714Y-5423143D01*
X1015000Y-5437429D01*
X1043571Y-5451714D01*
X1100714Y-5451714D01*
X1129286Y-5437429D01*
X1143571Y-5423143D01*
X1157857Y-5394571D01*
X1157857Y-5323143D01*
X1143571Y-5294571D01*
X1129286Y-5280286D01*
X1100714Y-5266000D01*
X1043571Y-5266000D01*
X1015000Y-5280286D01*
X1000714Y-5294571D01*
X986428Y-5323143D01*
X1286429Y-5451714D02*
X1286429Y-5251714D01*
X1286429Y-5280286D02*
X1300714Y-5266000D01*
X1329286Y-5251714D01*
X1372143Y-5251714D01*
X1400714Y-5266000D01*
X1415000Y-5294571D01*
X1415000Y-5451714D01*
X1415000Y-5294571D02*
X1429286Y-5266000D01*
X1457857Y-5251714D01*
X1500714Y-5251714D01*
X1529286Y-5266000D01*
X1543571Y-5294571D01*
X1543571Y-5451714D01*
X1686428Y-5451714D02*
X1686428Y-5251714D01*
X1686428Y-5280286D02*
X1700714Y-5266000D01*
X1729286Y-5251714D01*
X1772143Y-5251714D01*
X1800714Y-5266000D01*
X1815000Y-5294571D01*
X1815000Y-5451714D01*
X1815000Y-5294571D02*
X1829286Y-5266000D01*
X1857857Y-5251714D01*
X1900714Y-5251714D01*
X1929286Y-5266000D01*
X1943571Y-5294571D01*
X1943571Y-5451714D01*
X2529286Y-5137429D02*
X2272143Y-5523143D01*
X2915000Y-5151714D02*
X2943571Y-5151714D01*
X2972143Y-5166000D01*
X2986428Y-5180286D01*
X3000714Y-5208857D01*
X3015000Y-5266000D01*
X3015000Y-5337429D01*
X3000714Y-5394571D01*
X2986428Y-5423143D01*
X2972143Y-5437429D01*
X2943571Y-5451714D01*
X2915000Y-5451714D01*
X2886428Y-5437429D01*
X2872143Y-5423143D01*
X2857857Y-5394571D01*
X2843571Y-5337429D01*
X2843571Y-5266000D01*
X2857857Y-5208857D01*
X2872143Y-5180286D01*
X2886428Y-5166000D01*
X2915000Y-5151714D01*
X3143571Y-5423143D02*
X3157857Y-5437429D01*
X3143571Y-5451714D01*
X3129286Y-5437429D01*
X3143571Y-5423143D01*
X3143571Y-5451714D01*
X3443571Y-5451714D02*
X3272143Y-5451714D01*
X3357857Y-5451714D02*
X3357857Y-5151714D01*
X3329286Y-5194571D01*
X3300714Y-5223143D01*
X3272143Y-5237429D01*
X3557857Y-5180286D02*
X3572143Y-5166000D01*
X3600714Y-5151714D01*
X3672143Y-5151714D01*
X3700714Y-5166000D01*
X3715000Y-5180286D01*
X3729286Y-5208857D01*
X3729286Y-5237429D01*
X3715000Y-5280286D01*
X3543571Y-5451714D01*
X3729286Y-5451714D01*
X3872143Y-5451714D02*
X3929286Y-5451714D01*
X3957857Y-5437429D01*
X3972143Y-5423143D01*
X4000714Y-5380286D01*
X4015000Y-5323143D01*
X4015000Y-5208857D01*
X4000714Y-5180286D01*
X3986428Y-5166000D01*
X3957857Y-5151714D01*
X3900714Y-5151714D01*
X3872143Y-5166000D01*
X3857857Y-5180286D01*
X3843571Y-5208857D01*
X3843571Y-5280286D01*
X3857857Y-5308857D01*
X3872143Y-5323143D01*
X3900714Y-5337429D01*
X3957857Y-5337429D01*
X3986428Y-5323143D01*
X4000714Y-5308857D01*
X4015000Y-5280286D01*
X4129286Y-5151714D02*
X4129286Y-5208857D01*
X4243571Y-5151714D02*
X4243571Y-5208857D01*
X4686429Y-5566000D02*
X4672143Y-5551714D01*
X4643571Y-5508857D01*
X4629286Y-5480286D01*
X4615000Y-5437429D01*
X4600714Y-5366000D01*
X4600714Y-5308857D01*
X4615000Y-5237429D01*
X4629286Y-5194571D01*
X4643571Y-5166000D01*
X4672143Y-5123143D01*
X4686429Y-5108857D01*
X4772143Y-5151714D02*
X4972143Y-5151714D01*
X4843571Y-5451714D01*
X5315000Y-5451714D02*
X5315000Y-5151714D01*
X5443571Y-5451714D02*
X5443571Y-5294571D01*
X5429286Y-5266000D01*
X5400714Y-5251714D01*
X5357857Y-5251714D01*
X5329286Y-5266000D01*
X5315000Y-5280286D01*
X5629286Y-5451714D02*
X5600714Y-5437429D01*
X5586429Y-5423143D01*
X5572143Y-5394571D01*
X5572143Y-5308857D01*
X5586429Y-5280286D01*
X5600714Y-5266000D01*
X5629286Y-5251714D01*
X5672143Y-5251714D01*
X5700714Y-5266000D01*
X5715000Y-5280286D01*
X5729286Y-5308857D01*
X5729286Y-5394571D01*
X5715000Y-5423143D01*
X5700714Y-5437429D01*
X5672143Y-5451714D01*
X5629286Y-5451714D01*
X5900714Y-5451714D02*
X5872143Y-5437429D01*
X5857857Y-5408857D01*
X5857857Y-5151714D01*
X6129286Y-5437429D02*
X6100714Y-5451714D01*
X6043571Y-5451714D01*
X6015000Y-5437429D01*
X6000714Y-5408857D01*
X6000714Y-5294571D01*
X6015000Y-5266000D01*
X6043571Y-5251714D01*
X6100714Y-5251714D01*
X6129286Y-5266000D01*
X6143571Y-5294571D01*
X6143571Y-5323143D01*
X6000714Y-5351714D01*
X6257857Y-5437429D02*
X6286428Y-5451714D01*
X6343571Y-5451714D01*
X6372143Y-5437429D01*
X6386428Y-5408857D01*
X6386428Y-5394571D01*
X6372143Y-5366000D01*
X6343571Y-5351714D01*
X6300714Y-5351714D01*
X6272143Y-5337429D01*
X6257857Y-5308857D01*
X6257857Y-5294571D01*
X6272143Y-5266000D01*
X6300714Y-5251714D01*
X6343571Y-5251714D01*
X6372143Y-5266000D01*
X6486428Y-5566000D02*
X6500714Y-5551714D01*
X6529286Y-5508857D01*
X6543571Y-5480286D01*
X6557857Y-5437429D01*
X6572143Y-5366000D01*
X6572143Y-5308857D01*
X6557857Y-5237429D01*
X6543571Y-5194571D01*
X6529286Y-5166000D01*
X6500714Y-5123143D01*
X6486428Y-5108857D01*
M02*
