M48
;DRILL file {KiCad (5.0.2)-1} date 8/27/2019 10:16:35 AM
;FORMAT={-:-/ absolute / metric / decimal}
FMAT,2
METRIC,TZ
T1C0.400
T2C0.800
T3C0.889
T4C0.914
T5C1.000
T6C1.100
T7C1.520
T8C1.600
T9C2.286
T10C3.264
T11C1.000
%
G90
G05
T1
X46.038Y-50.127
X46.289Y-195.46
X46.901Y-50.914
X47.041Y-51.943
X47.993Y-196.037
X52.807Y-50.101
X53.061Y-50.965
X53.434Y-121.1
X53.434Y-123.75
X53.5Y-175.55
X53.523Y-78.288
X53.55Y-94.
X53.563Y-86.359
X53.586Y-84.511
X53.784Y-51.651
X53.84Y-106.609
X54.1Y-137.1
X54.102Y-83.21
X54.15Y-149.1
X54.208Y-86.949
X54.25Y-160.9
X54.313Y-93.059
X54.47Y-130.802
X54.475Y-115.943
X54.539Y-107.18
X54.539Y-123.881
X54.712Y-141.694
X54.75Y-85.86
X54.763Y-54.809
X54.763Y-60.109
X54.763Y-68.669
X54.768Y-124.843
X54.85Y-103.5
X54.92Y-145.09
X54.963Y-94.009
X55.131Y-199.593
X55.15Y-116.5
X55.214Y-43.663
X55.283Y-111.874
X55.296Y-167.361
X55.301Y-73.652
X55.428Y-78.288
X55.555Y-174.173
X55.606Y-125.675
X55.618Y-169.283
X55.629Y-88.701
X55.778Y-159.461
X55.778Y-178.562
X55.791Y-42.697
X55.809Y-154.424
X56.016Y-86.311
X56.389Y-43.534
X56.512Y-121.4
X56.634Y-131.056
X56.82Y-155.905
X57.125Y-123.165
X57.205Y-157.536
X57.25Y-164.3
X57.302Y-47.6
X57.556Y-161.817
X57.777Y-131.12
X58.05Y-90.65
X58.568Y-209.669
X58.6Y-192.9
X58.814Y-210.731
X58.878Y-116.832
X58.95Y-107.1
X59.Y-145.09
X59.05Y-93.716
X59.1Y-78.2
X59.113Y-188.079
X59.119Y-97.309
X59.15Y-68.895
X59.36Y-111.874
X59.555Y-174.109
X59.6Y-167.4
X59.8Y-64.1
X59.894Y-186.497
X60.063Y-178.618
X60.127Y-131.31
X60.25Y-123.25
X60.255Y-156.406
X61.206Y-122.611
X61.239Y-47.193
X61.443Y-90.983
X61.7Y-88.25
X61.733Y-159.146
X61.95Y-160.5
X61.976Y-119.913
X62.103Y-123.914
X62.23Y-164.679
X62.35Y-107.6
X62.65Y-200.65
X62.65Y-155.069
X62.713Y-52.811
X62.73Y-55.682
X62.73Y-187.952
X62.812Y-157.862
X62.921Y-192.524
X62.95Y-47.1
X62.979Y-41.123
X62.984Y-74.605
X62.984Y-97.782
X62.984Y-173.855
X62.984Y-178.554
X63.043Y-44.628
X63.048Y-73.271
X63.052Y-124.827
X63.111Y-106.926
X63.137Y-125.981
X63.2Y-164.35
X63.302Y-148.836
X63.325Y-94.117
X63.365Y-77.272
X63.365Y-116.578
X63.371Y-93.147
X63.4Y-64.
X63.475Y-194.158
X63.556Y-174.877
X63.563Y-204.749
X63.619Y-131.628
X63.8Y-128.95
X64.1Y-86.2
X64.1Y-90.15
X64.254Y-154.742
X64.254Y-196.715
X64.269Y-161.79
X64.672Y-85.296
X65.05Y-78.326
X65.158Y-120.015
X65.397Y-116.965
X65.588Y-130.929
X65.755Y-156.769
X65.85Y-123.35
X66.05Y-155.55
X66.15Y-160.45
X66.25Y-92.25
X66.396Y-127.737
X66.421Y-176.86
X66.523Y-74.605
X66.75Y-61.9
X66.75Y-107.4
X66.906Y-193.165
X66.921Y-148.9
X67.Y-112.2
X67.05Y-150.45
X67.113Y-60.809
X67.15Y-168.95
X67.206Y-83.393
X67.259Y-90.373
X67.31Y-184.252
X67.31Y-194.259
X67.4Y-74.
X67.447Y-92.951
X67.45Y-72.05
X67.612Y-174.979
X67.619Y-53.719
X67.64Y-47.955
X68.001Y-131.241
X68.05Y-50.75
X68.174Y-155.651
X69.Y-197.3
X69.6Y-122.75
X69.888Y-47.169
X69.927Y-164.8
X70.028Y-119.634
X70.033Y-90.998
X70.045Y-79.621
X70.286Y-169.093
X70.307Y-82.601
X70.496Y-192.973
X70.497Y-117.054
X70.604Y-55.237
X70.688Y-88.544
X70.691Y-208.122
X70.702Y-78.293
X70.795Y-156.456
X70.815Y-47.061
X70.823Y-60.909
X70.917Y-160.833
X71.Y-200.17
X71.018Y-140.843
X71.049Y-173.03
X71.049Y-191.889
X71.05Y-164.35
X71.082Y-107.264
X71.176Y-136.835
X71.303Y-147.947
X71.408Y-93.155
X71.501Y-124.816
X71.557Y-115.943
X71.656Y-210.009
X71.874Y-78.478
X71.933Y-194.31
X71.99Y-169.918
X72.1Y-51.4
X72.2Y-129.05
X72.205Y-93.083
X72.644Y-47.879
X72.7Y-50.05
X72.758Y-204.749
X72.873Y-164.059
X72.89Y-196.017
X72.974Y-83.414
X73.271Y-154.805
X73.35Y-123.
X73.355Y-87.158
X73.393Y-85.296
X73.45Y-80.821
X73.65Y-119.55
X73.716Y-131.183
X74.605Y-187.186
X74.605Y-148.011
X74.676Y-127.457
X74.778Y-160.774
X74.9Y-106.245
X74.986Y-155.504
X75.05Y-166.95
X75.113Y-72.054
X75.176Y-93.147
X75.195Y-78.647
X75.24Y-94.544
X75.24Y-169.618
X75.263Y-59.509
X75.514Y-90.322
X75.55Y-131.249
X75.85Y-80.45
X75.882Y-83.167
X76.224Y-140.386
X76.686Y-49.72
X76.8Y-123.05
X77.013Y-41.567
X77.14Y-54.788
X77.521Y-89.332
X77.85Y-123.287
X77.902Y-90.361
X78.105Y-83.744
X78.105Y-119.685
X78.113Y-157.092
X78.4Y-186.936
X78.542Y-55.364
X78.612Y-73.97
X78.649Y-88.808
X78.732Y-150.487
X78.813Y-59.059
X78.923Y-68.191
X78.923Y-112.514
X78.95Y-108.2
X79.02Y-200.17
X79.05Y-102.15
X79.113Y-96.449
X79.113Y-140.369
X79.129Y-189.501
X79.177Y-173.601
X79.189Y-79.9
X79.24Y-136.136
X79.24Y-191.953
X79.55Y-129.15
X79.558Y-116.965
X79.6Y-167.1
X79.69Y-155.372
X79.732Y-92.937
X79.765Y-169.412
X79.858Y-194.437
X80.2Y-164.4
X80.32Y-78.324
X80.696Y-49.403
X80.696Y-157.201
X80.763Y-51.159
X80.828Y-54.856
X81.145Y-52.443
X81.159Y-155.603
X81.336Y-169.326
X81.432Y-129.337
X81.61Y-199.136
X81.7Y-89.725
X81.89Y-202.794
X81.9Y-183.4
X82.1Y-88.2
X82.1Y-124.924
X82.157Y-107.688
X82.194Y-85.138
X82.3Y-81.55
X82.316Y-120.584
X82.4Y-119.2
X82.485Y-82.903
X82.525Y-150.741
X82.669Y-154.3
X82.925Y-149.601
X82.931Y-68.318
X82.931Y-142.367
X82.95Y-94.35
X83.Y-125.3
X83.Y-156.95
X83.05Y-96.322
X83.1Y-162.05
X83.177Y-169.135
X83.302Y-55.009
X83.386Y-79.664
X83.799Y-154.3
X84.709Y-83.388
X84.772Y-202.31
X84.891Y-157.031
X84.9Y-167.
X85.014Y-129.311
X85.293Y-51.714
X85.971Y-154.932
X86.2Y-183.5
X86.385Y-54.331
X86.479Y-71.62
X86.538Y-119.05
X86.639Y-200.228
X86.721Y-82.903
X86.797Y-149.408
X86.855Y-58.255
X86.97Y-47.066
X87.018Y-55.633
X87.08Y-57.365
X87.178Y-113.091
X87.241Y-189.413
X87.427Y-194.386
X87.427Y-194.386
X87.47Y-182.566
X87.505Y-120.26
X87.55Y-75.8
X87.55Y-81.05
X87.578Y-125.923
X87.655Y-70.028
X87.686Y-190.683
X87.695Y-55.009
X87.8Y-94.6
X87.957Y-133.423
X88.003Y-183.888
X88.067Y-189.032
X88.272Y-54.412
X88.275Y-55.901
X88.384Y-117.848
X88.5Y-199.9
X88.511Y-145.265
X88.523Y-120.26
X88.538Y-87.027
X88.575Y-68.895
X88.575Y-130.548
X88.638Y-132.707
X88.644Y-194.992
X88.696Y-97.981
X88.702Y-82.923
X88.752Y-157.031
X88.773Y-142.265
X88.821Y-159.276
X88.826Y-91.107
X88.849Y-63.741
X88.956Y-187.889
X89.088Y-197.477
X89.146Y-117.132
X89.164Y-103.712
X89.165Y-162.32
X89.233Y-102.049
X89.272Y-134.
X89.273Y-113.091
X89.337Y-129.913
X89.382Y-50.718
X89.4Y-148.773
X89.408Y-118.897
X89.464Y-193.011
X89.524Y-73.778
X89.527Y-94.798
X89.586Y-141.351
X89.606Y-90.217
X89.733Y-198.234
X89.75Y-160.458
X89.751Y-107.688
X89.802Y-46.584
X89.85Y-96.899
X89.854Y-103.308
X89.878Y-51.829
X89.878Y-57.848
X89.878Y-62.7
X89.882Y-83.053
X90.162Y-174.998
X90.226Y-91.305
X90.226Y-113.445
X90.226Y-180.026
X90.353Y-49.776
X90.363Y-60.109
X90.48Y-186.936
X90.493Y-107.988
X90.5Y-152.578
X90.543Y-68.318
X90.551Y-195.419
X90.576Y-154.838
X90.607Y-126.145
X90.622Y-75.055
X90.631Y-155.837
X90.651Y-160.315
X90.739Y-72.319
X90.786Y-103.358
X90.852Y-157.307
X90.861Y-147.82
X90.865Y-168.386
X90.895Y-122.888
X90.96Y-198.796
X91.05Y-117.5
X91.135Y-51.714
X91.222Y-83.053
X91.222Y-107.334
X91.25Y-92.286
X91.25Y-69.4
X91.559Y-74.922
X91.742Y-197.909
X92.004Y-159.372
X92.024Y-126.086
X92.055Y-102.65
X92.1Y-141.323
X92.258Y-179.358
X92.42Y-170.686
X92.506Y-82.345
X92.632Y-120.952
X92.7Y-75.15
X92.71Y-209.779
X93.147Y-94.226
X93.263Y-57.409
X93.296Y-134.
X93.312Y-160.315
X93.337Y-141.323
X93.337Y-188.455
X93.401Y-113.445
X93.401Y-151.694
X93.401Y-179.316
X93.401Y-197.604
X93.426Y-103.258
X93.453Y-121.422
X93.463Y-65.009
X93.473Y-74.254
X93.659Y-83.139
X94.05Y-126.75
X94.544Y-141.323
X94.607Y-133.723
X94.607Y-179.253
X94.615Y-57.011
X94.663Y-64.709
X94.671Y-113.276
X94.671Y-151.694
X94.671Y-170.363
X94.694Y-189.418
X94.702Y-162.32
X94.734Y-74.922
X94.734Y-84.083
X94.771Y-198.07
X94.784Y-103.966
X94.798Y-94.607
X94.798Y-121.776
X95.623Y-95.369
X95.623Y-121.15
X95.702Y-141.592
X95.75Y-133.787
X95.75Y-160.526
X95.814Y-180.026
X95.877Y-103.878
X95.877Y-151.694
X95.877Y-170.426
X95.877Y-188.651
X95.941Y-114.038
X95.948Y-201.27
X95.99Y-86.023
X96.004Y-49.649
X96.188Y-198.562
X96.535Y-144.201
X96.576Y-104.958
X96.672Y-64.872
X97.209Y-55.037
X97.209Y-61.372
X97.211Y-71.176
X97.244Y-210.668
X97.3Y-153.8
X97.4Y-117.35
X97.511Y-49.949
X97.525Y-96.425
X97.8Y-100.2
X97.803Y-205.88
X97.875Y-86.277
X98.05Y-103.8
X98.15Y-166.6
X98.15Y-170.95
X98.192Y-98.176
X98.24Y-93.679
X98.25Y-80.85
X98.338Y-76.9
X98.354Y-112.514
X98.354Y-121.826
X98.472Y-141.211
X98.527Y-51.765
X98.544Y-131.818
X98.55Y-73.8
X98.6Y-197.1
X98.65Y-152.1
X98.7Y-156.25
X98.708Y-86.791
X98.798Y-102.418
X98.8Y-186.45
X98.8Y-193.5
X98.806Y-57.087
X98.819Y-64.706
X98.85Y-68.25
X98.857Y-61.366
X98.95Y-50.85
X98.971Y-70.256
X99.301Y-97.675
X99.308Y-87.945
X99.4Y-118.25
X99.466Y-203.136
X99.702Y-162.625
X99.878Y-98.973
X99.878Y-175.443
X99.975Y-92.956
X100.95Y-53.129
X101.628Y-84.059
X101.7Y-73.8
X101.8Y-76.95
X101.8Y-80.2
X101.846Y-192.657
X102.053Y-116.223
X102.1Y-154.297
X102.164Y-175.443
X102.227Y-141.788
X102.291Y-102.481
X102.3Y-165.
X102.349Y-47.061
X102.35Y-49.05
X102.514Y-205.588
X102.635Y-123.347
X102.735Y-199.832
X102.799Y-159.949
X102.888Y-53.085
X102.973Y-83.462
X103.25Y-86.3
X103.28Y-122.85
X103.497Y-98.232
X103.497Y-141.47
X103.497Y-174.3
X103.511Y-48.432
X103.548Y-198.88
X103.55Y-96.35
X103.561Y-168.712
X103.688Y-162.177
X103.7Y-167.5
X103.8Y-53.45
X103.886Y-200.749
X103.991Y-47.793
X104.125Y-192.875
X104.181Y-121.484
X104.203Y-201.625
X104.6Y-123.7
X104.64Y-77.716
X104.64Y-116.388
X104.64Y-192.085
X104.675Y-148.75
X104.675Y-187.2
X104.704Y-97.719
X104.704Y-163.251
X104.75Y-134.6
X104.767Y-156.774
X104.775Y-90.625
X104.8Y-110.9
X104.825Y-166.35
X104.831Y-72.192
X105.402Y-172.77
X105.423Y-98.973
X105.804Y-205.334
X105.847Y-136.771
X105.974Y-154.742
X105.974Y-194.62
X105.985Y-52.873
X106.Y-97.75
X106.037Y-74.033
X106.101Y-85.273
X106.101Y-96.703
X106.101Y-161.023
X106.101Y-192.298
X106.164Y-115.562
X106.164Y-135.559
X106.207Y-173.924
X106.228Y-57.079
X106.248Y-46.525
X106.261Y-122.689
X106.482Y-163.436
X106.609Y-87.368
X106.609Y-153.218
X106.672Y-191.641
X106.825Y-47.631
X106.863Y-117.15
X107.186Y-154.742
X107.2Y-110.9
X107.244Y-79.05
X107.244Y-115.562
X107.255Y-96.703
X107.315Y-185.166
X107.323Y-48.627
X107.361Y-135.559
X107.382Y-57.142
X107.498Y-74.16
X107.645Y-203.111
X107.75Y-174.017
X107.757Y-192.298
X107.85Y-122.35
X107.895Y-160.044
X107.998Y-93.016
X108.044Y-53.586
X108.366Y-123.545
X108.45Y-136.136
X108.45Y-173.347
X108.539Y-198.31
X108.641Y-84.828
X108.723Y-124.261
X109.116Y-188.392
X109.22Y-201.6
X109.372Y-205.486
X109.474Y-155.94
X109.52Y-47.871
X109.59Y-123.347
X109.784Y-164.013
X109.79Y-191.601
X109.847Y-78.224
X109.875Y-89.425
X110.166Y-122.062
X110.528Y-214.871
X110.7Y-198.2
X110.8Y-154.95
X110.851Y-124.97
X110.858Y-191.364
X111.05Y-80.05
X111.08Y-194.101
X111.1Y-63.164
X111.15Y-59.5
X111.15Y-99.55
X111.15Y-160.2
X111.15Y-192.575
X111.2Y-84.2
X111.2Y-97.9
X111.2Y-141.475
X111.2Y-179.275
X111.25Y-181.3
X111.3Y-103.15
X111.3Y-117.8
X111.379Y-43.98
X111.45Y-148.7
X111.5Y-174.7
X111.519Y-212.471
X111.531Y-210.597
X111.55Y-121.6
X111.7Y-169.1
X111.85Y-166.55
X111.958Y-72.192
X112.35Y-90.625
X112.45Y-99.275
X112.5Y-187.2
X112.662Y-63.805
X112.834Y-82.048
X112.834Y-101.65
X112.834Y-105.899
X112.85Y-134.6
X113.112Y-74.432
X113.113Y-197.434
X113.2Y-59.35
X113.25Y-62.85
X113.347Y-206.413
X113.474Y-120.167
X113.779Y-209.271
X113.85Y-43.8
X114.173Y-196.583
X114.45Y-194.
X114.9Y-198.25
X116.002Y-48.627
X117.271Y-207.181
X118.028Y-48.931
X118.65Y-76.85
X118.75Y-73.8
X118.783Y-210.597
X119.05Y-97.75
X119.1Y-125.95
X119.2Y-154.725
X119.35Y-62.
X119.35Y-77.675
X119.35Y-99.225
X119.375Y-152.925
X119.4Y-125.15
X119.45Y-59.9
X119.475Y-100.375
X119.479Y-151.454
X119.675Y-156.425
X119.775Y-49.285
X119.85Y-70.45
X119.875Y-212.534
X120.036Y-124.475
X120.075Y-68.075
X120.125Y-103.6
X120.142Y-217.487
X120.15Y-63.725
X120.39Y-122.425
X120.625Y-171.05
X120.968Y-147.752
X121.323Y-120.218
X121.545Y-126.708
X121.55Y-103.35
X121.6Y-99.9
X121.8Y-92.3
X121.875Y-125.75
X121.9Y-84.35
X121.95Y-66.2
X122.Y-57.6
X122.Y-116.75
X122.3Y-108.6
X122.504Y-147.752
X122.65Y-88.5
X122.7Y-140.75
X122.85Y-112.9
X122.9Y-61.9
X123.081Y-156.464
X123.1Y-75.14
X123.175Y-125.025
X123.25Y-132.7
X123.375Y-99.775
X123.4Y-101.
X123.406Y-215.456
X123.5Y-84.25
X123.5Y-92.4
X123.6Y-136.7
X123.65Y-57.55
X123.671Y-49.285
X123.7Y-44.15
X123.7Y-108.55
X123.888Y-206.197
X123.9Y-116.65
X124.Y-66.3
X124.206Y-164.211
X124.275Y-77.075
X124.3Y-150.45
X124.356Y-75.337
X124.675Y-101.1
X124.7Y-140.85
X124.725Y-99.825
X124.775Y-124.475
X124.813Y-48.601
X124.85Y-57.05
X124.9Y-76.425
X124.977Y-154.614
X125.Y-108.319
X125.Y-132.7
X125.082Y-212.534
X125.4Y-125.525
X125.45Y-92.3
X125.55Y-84.25
X125.825Y-76.275
X125.85Y-116.7
X126.025Y-48.625
X126.1Y-67.
X126.15Y-152.225
X126.35Y-88.5
X126.45Y-124.65
X126.45Y-132.55
X126.55Y-112.8
X126.7Y-141.
X126.822Y-213.36
X126.95Y-61.95
X127.Y-201.193
X127.179Y-166.535
X127.35Y-92.25
X127.4Y-99.225
X127.4Y-151.275
X127.5Y-122.425
X127.559Y-206.197
X127.65Y-136.7
X127.675Y-102.975
X127.675Y-125.1
X127.8Y-46.9
X127.8Y-48.775
X127.8Y-116.55
X127.9Y-155.4
X128.Y-56.35
X128.Y-79.6
X128.05Y-67.45
X128.05Y-82.5
X128.1Y-106.95
X128.425Y-47.525
X128.5Y-69.45
X128.7Y-73.75
X128.7Y-141.
X129.023Y-130.739
X129.05Y-125.9
X129.064Y-204.354
X129.184Y-210.02
X129.6Y-62.2
X129.891Y-108.664
X129.975Y-124.1
X130.2Y-163.195
X130.2Y-174.815
X130.429Y-181.3
X130.85Y-84.15
X130.9Y-125.225
X130.912Y-126.797
X131.4Y-57.55
X132.05Y-83.
X132.1Y-84.4
X132.2Y-130.7
X132.4Y-79.8
X132.487Y-108.75
X132.5Y-106.95
X132.6Y-57.1
X132.65Y-58.123
X132.75Y-53.65
X133.175Y-75.425
X133.25Y-84.75
X133.7Y-131.5
X133.75Y-109.25
X133.775Y-101.125
X133.85Y-58.7
X133.95Y-49.525
X133.95Y-113.425
X134.225Y-52.875
X134.33Y-76.
X134.375Y-63.875
X134.459Y-180.733
X134.75Y-89.975
X134.767Y-122.357
X134.95Y-130.75
X135.05Y-132.3
X135.099Y-114.002
X135.1Y-99.925
X135.115Y-191.198
X135.15Y-127.65
X135.275Y-78.475
X135.3Y-65.819
X135.42Y-198.844
X135.58Y-75.3
X136.106Y-200.876
X136.15Y-76.
X136.175Y-101.275
X136.2Y-103.7
X136.25Y-133.
X136.381Y-114.41
X136.45Y-53.8
X136.55Y-91.85
X136.575Y-122.75
X136.995Y-166.205
X137.Y-66.173
X137.Y-78.5
X137.05Y-79.7
X137.05Y-148.6
X137.4Y-99.975
X137.4Y-114.002
X137.575Y-132.425
X137.583Y-164.627
X137.65Y-108.85
X137.8Y-53.152
X137.825Y-49.45
X137.858Y-153.454
X138.074Y-211.277
X138.095Y-90.956
X138.35Y-79.95
X138.407Y-171.842
X138.459Y-91.668
X138.475Y-84.325
X138.506Y-168.974
X138.519Y-170.205
X138.65Y-141.
X138.7Y-133.
X138.775Y-103.123
X138.8Y-57.975
X138.8Y-122.8
X138.85Y-114.002
X139.Y-66.75
X139.05Y-148.55
X139.3Y-157.05
X139.35Y-75.2
X139.446Y-166.56
X139.45Y-140.15
X139.725Y-80.05
X139.85Y-127.5
X140.Y-50.
X140.05Y-63.875
X140.1Y-130.75
X140.15Y-48.25
X140.15Y-83.75
X140.275Y-90.025
X140.35Y-52.1
X140.35Y-139.35
X140.375Y-122.625
X140.425Y-113.675
X140.8Y-67.35
X140.95Y-88.95
X141.Y-91.95
X141.1Y-59.65
X141.1Y-75.35
X141.118Y-181.146
X141.15Y-99.575
X141.211Y-170.583
X141.275Y-132.675
X141.3Y-56.5
X141.35Y-64.75
X141.4Y-114.85
X141.6Y-46.05
X141.6Y-85.75
X141.65Y-138.45
X141.75Y-84.05
X141.75Y-121.2
X141.775Y-160.777
X141.834Y-159.423
X141.91Y-168.948
X142.3Y-130.85
X142.375Y-76.3
X142.45Y-133.8
X142.45Y-137.5
X142.481Y-166.916
X142.5Y-80.
X142.761Y-169.786
X142.8Y-47.673
X143.302Y-55.55
X143.51Y-191.364
X143.8Y-48.725
X143.929Y-168.148
X143.967Y-198.564
X144.Y-85.75
X144.577Y-130.75
X144.6Y-78.85
X144.6Y-79.7
X144.6Y-110.5
X144.6Y-129.65
X144.615Y-174.676
X144.666Y-153.441
X144.821Y-108.996
X144.844Y-172.199
X144.95Y-53.4
X144.95Y-98.95
X145.136Y-214.338
X145.148Y-200.215
X145.15Y-133.325
X145.223Y-134.755
X145.35Y-48.7
X145.4Y-54.248
X145.4Y-75.723
X145.4Y-80.373
X145.402Y-104.674
X145.416Y-149.854
X145.594Y-109.202
X145.821Y-216.91
X145.878Y-103.852
X145.95Y-131.87
X146.05Y-57.15
X146.05Y-58.55
X146.05Y-78.075
X146.05Y-84.775
X146.05Y-111.25
X146.55Y-45.625
X146.65Y-122.775
X146.65Y-127.975
X146.65Y-148.25
X146.756Y-150.094
X146.8Y-52.627
X147.125Y-99.65
X147.125Y-102.15
X147.434Y-152.756
X147.65Y-74.85
X147.7Y-93.8
X147.75Y-141.55
X147.85Y-48.
X147.85Y-52.05
X148.1Y-132.35
X148.175Y-126.75
X148.3Y-64.45
X148.3Y-98.9
X148.399Y-135.89
X148.4Y-59.9
X148.5Y-56.05
X148.7Y-72.9
X148.85Y-52.575
X148.85Y-81.2
X149.05Y-115.05
X149.1Y-121.2
X149.161Y-181.61
X149.35Y-102.125
X149.401Y-167.986
X149.739Y-182.486
X149.739Y-190.017
X149.739Y-193.586
X149.746Y-207.734
X149.75Y-128.275
X149.784Y-164.744
X149.789Y-111.627
X149.847Y-217.399
X149.885Y-200.114
X149.916Y-85.527
X149.987Y-138.049
X150.2Y-75.15
X150.444Y-179.807
X150.495Y-192.621
X150.508Y-176.098
X150.614Y-112.204
X150.635Y-172.466
X150.685Y-165.684
X151.Y-103.1
X151.028Y-178.587
X151.028Y-178.587
X151.064Y-191.169
X151.122Y-84.892
X151.13Y-135.953
X151.13Y-202.794
X151.168Y-210.566
X151.186Y-86.098
X151.2Y-80.7
X151.217Y-187.181
X151.32Y-138.367
X151.409Y-183.058
X151.45Y-128.5
X151.5Y-132.4
X151.765Y-188.824
X151.77Y-112.781
X151.821Y-111.627
X151.841Y-216.713
X151.854Y-195.897
X151.884Y-59.047
X151.922Y-168.656
X152.146Y-107.7
X152.206Y-75.448
X152.222Y-211.709
X152.392Y-86.733
X152.4Y-136.1
X152.456Y-58.026
X152.565Y-167.919
X152.59Y-138.493
X152.692Y-214.173
X152.7Y-132.05
X152.75Y-49.5
X152.85Y-45.1
X153.027Y-112.959
X153.073Y-210.604
X153.154Y-59.111
X153.213Y-202.59
X153.243Y-102.2
X153.314Y-211.391
X153.325Y-91.475
X153.45Y-128.475
X153.683Y-178.498
X153.708Y-176.162
X153.725Y-80.225
X153.912Y-74.971
X153.916Y-60.
X153.925Y-118.575
X153.949Y-165.9
X153.949Y-172.415
X153.95Y-54.825
X153.95Y-135.2
X153.994Y-189.146
X154.05Y-50.25
X154.114Y-145.478
X154.129Y-184.848
X154.292Y-213.042
X154.375Y-130.55
X154.375Y-132.
X154.394Y-196.304
X154.394Y-196.304
X154.5Y-107.55
X154.555Y-75.448
X154.572Y-207.061
X154.864Y-216.23
X154.978Y-195.313
X155.025Y-66.025
X155.025Y-80.225
X155.059Y-94.607
X155.105Y-178.829
X155.15Y-102.225
X155.186Y-120.452
X155.2Y-54.6
X155.308Y-206.197
X155.5Y-79.375
X155.55Y-107.625
X155.575Y-145.351
X155.591Y-128.204
X155.664Y-50.027
X155.804Y-176.847
X155.948Y-93.909
X155.994Y-156.261
X156.139Y-67.6
X156.175Y-78.475
X156.256Y-129.973
X156.275Y-75.075
X156.439Y-174.79
X156.45Y-135.85
X156.71Y-120.579
X156.725Y-76.025
X156.837Y-93.337
X156.877Y-156.862
X156.95Y-110.473
X156.972Y-145.987
X157.155Y-66.794
X157.22Y-163.385
X157.5Y-47.35
X157.5Y-50.05
X157.518Y-182.512
X157.525Y-129.55
X157.55Y-77.875
X157.8Y-54.5
X157.8Y-131.85
X157.875Y-121.318
X158.325Y-110.5
X158.369Y-146.05
X158.488Y-93.337
X158.552Y-67.302
X158.75Y-118.725
X158.806Y-80.6
X158.877Y-120.587
X158.9Y-57.65
X159.225Y-91.5
X159.233Y-151.575
X159.25Y-143.3
X159.822Y-67.239
X159.85Y-65.275
X159.85Y-77.95
X160.1Y-103.
X160.25Y-83.6
X160.275Y-60.4
X160.35Y-64.175
X160.4Y-89.8
X160.45Y-126.725
X160.5Y-74.85
X160.7Y-65.9
X161.2Y-49.325
X161.404Y-165.176
X161.544Y-137.313
X161.607Y-147.066
X161.7Y-134.6
X162.243Y-187.058
X162.255Y-152.044
X162.4Y-54.7
X162.55Y-128.75
X162.65Y-143.25
X162.877Y-199.111
X162.9Y-83.5
X162.925Y-130.45
X162.95Y-74.8
X162.997Y-94.29
X163.1Y-71.05
X163.1Y-77.9
X163.15Y-50.35
X163.15Y-54.3
X163.195Y-120.713
X163.309Y-177.711
X163.319Y-111.393
X163.487Y-196.418
X163.512Y-194.627
X163.576Y-147.13
X163.678Y-197.383
X163.69Y-203.568
X163.695Y-57.991
X163.8Y-75.725
X163.825Y-103.975
X163.85Y-76.975
X163.906Y-173.609
X163.949Y-84.892
X163.975Y-131.15
X164.076Y-67.81
X164.1Y-90.25
X164.1Y-129.425
X164.147Y-137.853
X164.2Y-116.35
X164.224Y-207.251
X164.4Y-102.7
X164.5Y-48.225
X164.575Y-49.25
X164.6Y-62.75
X164.795Y-176.301
X164.859Y-206.451
X165.156Y-94.417
X165.219Y-121.15
X165.25Y-128.725
X165.275Y-77.602
X165.283Y-85.485
X165.346Y-67.175
X165.35Y-75.398
X165.417Y-147.066
X165.55Y-131.275
X165.557Y-111.828
X165.671Y-139.406
X165.675Y-102.325
X165.675Y-104.175
X165.775Y-49.825
X165.854Y-58.412
X166.45Y-143.1
X166.7Y-74.825
X166.7Y-128.675
X166.807Y-121.214
X166.997Y-85.654
X167.Y-50.5
X167.025Y-101.834
X167.061Y-67.112
X167.061Y-94.29
X167.124Y-58.412
X167.25Y-104.05
X167.251Y-111.879
X167.45Y-139.129
X167.576Y-147.13
X167.625Y-75.1
X168.Y-67.85
X168.2Y-116.25
X168.394Y-58.476
X168.458Y-94.544
X168.5Y-51.025
X168.738Y-112.073
X168.75Y-133.95
X168.834Y-166.522
X168.948Y-159.182
X169.037Y-196.532
X169.05Y-190.411
X169.058Y-74.483
X169.093Y-120.706
X169.156Y-85.971
X169.198Y-72.669
X169.253Y-206.896
X169.325Y-132.875
X169.475Y-100.
X169.9Y-132.048
X169.95Y-54.25
X170.1Y-107.575
X170.25Y-131.075
X170.332Y-106.316
X170.35Y-105.375
X170.593Y-103.692
X170.65Y-77.602
X171.Y-62.55
X171.082Y-187.185
X171.1Y-130.1
X171.2Y-91.55
X171.25Y-129.1
X171.295Y-103.308
X171.3Y-51.275
X171.4Y-76.575
X171.742Y-207.429
X171.87Y-102.4
X172.025Y-50.725
X172.342Y-203.886
X173.685Y-196.571
X174.193Y-191.173
X174.475Y-48.55
X176.225Y-49.55
X176.433Y-73.183
X176.558Y-74.357
X178.803Y-141.63
X178.943Y-204.559
X179.045Y-165.57
X179.337Y-153.924
T2
X56.952Y-142.931
X57.015Y-104.831
X57.683Y-180.962
X58.039Y-66.633
X58.413Y-54.859
X60.889Y-142.931
X60.952Y-104.831
X61.112Y-180.899
X61.968Y-66.667
X65.113Y-180.95
X65.207Y-104.831
X65.334Y-142.931
X65.905Y-66.667
X68.89Y-142.931
X68.953Y-104.831
X69.037Y-180.95
X69.842Y-66.667
X72.636Y-104.831
X73.Y-181.
X73.208Y-142.931
X73.843Y-66.667
X76.683Y-180.937
X76.949Y-104.775
X77.018Y-142.931
X77.716Y-66.667
X80.51Y-104.831
X80.828Y-142.931
X80.874Y-180.975
X81.78Y-66.667
X84.701Y-142.931
X84.836Y-181.051
X85.019Y-104.831
X85.908Y-66.667
X97.846Y-66.667
X99.425Y-138.025
X100.275Y-50.425
X100.647Y-207.947
X105.652Y-50.471
X106.845Y-218.097
X106.899Y-207.947
X116.117Y-208.111
X125.171Y-208.293
X128.778Y-160.782
X129.55Y-107.125
X130.838Y-76.788
X132.25Y-50.025
X133.675Y-124.125
X138.547Y-160.178
X138.75Y-162.628
X147.298Y-124.075
X147.95Y-129.225
X149.563Y-77.177
X150.6Y-104.9
X151.45Y-51.15
X160.366Y-129.4
X160.415Y-76.775
X161.12Y-51.22
X161.72Y-104.75
X166.294Y-163.512
X169.799Y-169.904
X169.799Y-178.905
X171.082Y-197.663
X172.834Y-209.22
X173.279Y-216.865
X102.128Y-143.744
X102.799Y-145.344
X105.299Y-145.344
X105.97Y-146.944
X102.001Y-181.526
X102.672Y-183.126
X105.172Y-183.126
X105.843Y-184.726
X102.445Y-105.834
X103.116Y-107.434
X105.616Y-107.434
X106.287Y-109.034
X102.382Y-66.655
X103.053Y-68.255
X105.553Y-68.255
X106.224Y-69.855
T3
X156.815Y-42.73
X156.815Y-45.27
X159.355Y-42.73
X159.355Y-45.27
X161.895Y-42.73
X161.895Y-45.27
X164.435Y-42.73
X164.435Y-45.27
X65.849Y-42.596
X65.849Y-45.136
X68.389Y-42.596
X68.389Y-45.136
X70.929Y-42.596
X70.929Y-45.136
X158.23Y-171.19
X158.23Y-173.73
X158.23Y-176.27
X158.23Y-178.81
X160.77Y-171.19
X160.77Y-173.73
X160.77Y-176.27
X160.77Y-178.81
X136.51Y-151.75
X139.05Y-151.75
X141.59Y-151.75
X161.176Y-155.181
X161.176Y-157.721
X161.176Y-160.261
X163.716Y-155.181
X163.716Y-157.721
X163.716Y-160.261
X83.425Y-42.596
X83.425Y-45.136
X85.965Y-42.596
X85.965Y-45.136
X88.505Y-42.596
X88.505Y-45.136
X91.045Y-42.596
X91.045Y-45.136
X158.23Y-190.19
X158.23Y-192.73
X158.23Y-195.27
X158.23Y-197.81
X160.77Y-190.19
X160.77Y-192.73
X160.77Y-195.27
X160.77Y-197.81
X113.69Y-213.73
X113.69Y-216.27
X116.23Y-213.73
X116.23Y-216.27
X118.77Y-213.73
X118.77Y-216.27
X121.31Y-213.73
X121.31Y-216.27
X130.115Y-42.73
X130.115Y-45.27
X132.655Y-42.73
X132.655Y-45.27
X135.195Y-42.73
X135.195Y-45.27
X137.735Y-42.73
X137.735Y-45.27
X94.69Y-212.73
X94.69Y-215.27
X97.23Y-212.73
X97.23Y-215.27
X99.77Y-212.73
X99.77Y-215.27
X102.31Y-212.73
X102.31Y-215.27
X102.425Y-42.596
X102.425Y-45.136
X104.965Y-42.596
X104.965Y-45.136
X107.505Y-42.596
X107.505Y-45.136
X110.045Y-42.596
X110.045Y-45.136
X113.69Y-201.73
X113.69Y-204.27
X116.23Y-201.73
X116.23Y-204.27
X118.77Y-201.73
X118.77Y-204.27
X121.31Y-201.73
X121.31Y-204.27
T4
X162.961Y-209.753
X162.961Y-211.734
X165.461Y-209.753
X165.461Y-211.734
T5
X125.539Y-191.668
X125.539Y-194.208
X128.079Y-191.668
X128.079Y-194.208
T6
X132.08Y-156.997
X132.08Y-159.537
X132.08Y-162.077
X132.08Y-164.617
X132.08Y-167.157
X132.08Y-169.697
X132.08Y-172.237
X132.08Y-174.777
X132.08Y-177.317
X132.08Y-179.857
X132.08Y-182.397
X132.08Y-184.937
X132.08Y-187.477
X132.08Y-190.017
X132.08Y-192.557
X132.08Y-195.097
X132.08Y-197.637
X132.08Y-200.177
X132.08Y-202.717
X132.08Y-205.257
X132.08Y-207.797
X132.08Y-210.337
X132.08Y-212.877
X132.08Y-215.417
X134.62Y-202.717
X135.08Y-163.347
X135.08Y-165.887
X135.08Y-168.427
X135.08Y-170.967
X135.08Y-173.507
X137.16Y-202.717
X139.7Y-172.237
X139.7Y-174.777
X139.7Y-177.317
X139.7Y-179.857
X139.7Y-195.097
X139.7Y-197.637
X139.7Y-200.177
X139.7Y-202.717
X139.7Y-205.257
X139.7Y-207.797
X139.7Y-210.337
X139.7Y-212.877
X139.7Y-215.417
X142.24Y-172.237
X142.24Y-174.777
X142.24Y-177.317
X142.24Y-179.857
X142.24Y-195.097
X142.24Y-197.637
X142.24Y-200.177
X142.24Y-202.717
X142.24Y-205.257
X142.24Y-207.797
X142.24Y-210.337
X142.24Y-212.877
X142.24Y-215.417
X144.78Y-159.537
X144.78Y-164.617
X144.78Y-167.157
X144.78Y-169.697
X144.78Y-202.717
X147.32Y-156.997
X147.32Y-159.537
X147.32Y-162.077
X147.32Y-164.617
X147.32Y-167.157
X147.32Y-169.697
X147.32Y-172.237
X147.32Y-174.777
X147.32Y-177.317
X147.32Y-179.857
X147.32Y-182.397
X147.32Y-184.937
X147.32Y-187.477
X147.32Y-190.017
X147.32Y-192.557
X147.32Y-195.097
X147.32Y-197.637
X147.32Y-200.177
X147.32Y-202.717
X147.32Y-205.257
X147.32Y-207.797
X147.32Y-210.337
X147.32Y-212.877
X147.32Y-215.417
T7
X57.265Y-190.5
X61.225Y-190.5
X65.185Y-190.5
X69.145Y-190.5
X73.105Y-190.5
X77.065Y-190.5
X81.025Y-190.5
X84.985Y-190.5
X116.002Y-159.17
X116.002Y-163.13
X116.002Y-167.09
X116.002Y-171.05
X116.002Y-175.01
X116.002Y-178.97
X116.002Y-182.93
X116.002Y-186.89
X174.422Y-123.508
X174.422Y-127.468
X174.422Y-131.428
X174.422Y-135.388
X174.422Y-139.348
X174.422Y-143.308
X174.422Y-147.268
X174.422Y-151.228
X50.203Y-161.684
X49.45Y-187.8
X57.265Y-171.45
X61.225Y-171.45
X65.185Y-171.45
X69.145Y-171.45
X73.105Y-171.45
X77.065Y-171.45
X81.025Y-171.45
X84.985Y-171.45
X48.831Y-57.696
X116.002Y-87.846
X116.002Y-91.806
X116.002Y-95.766
X116.002Y-99.726
X116.002Y-103.686
X116.002Y-107.646
X116.002Y-111.606
X116.002Y-115.566
X174.422Y-87.846
X174.422Y-91.806
X174.422Y-95.766
X174.422Y-99.726
X174.422Y-103.686
X174.422Y-107.646
X174.422Y-111.606
X174.422Y-115.566
X174.42Y-52.185
X174.42Y-56.145
X174.42Y-60.105
X174.42Y-64.065
X174.42Y-68.025
X174.42Y-71.985
X174.42Y-75.945
X174.42Y-79.905
X125.133Y-173.571
X116.002Y-123.508
X116.002Y-127.468
X116.002Y-131.428
X116.002Y-135.388
X116.002Y-139.348
X116.002Y-143.308
X116.002Y-147.268
X116.002Y-151.228
X51.27Y-214.008
X57.265Y-57.15
X61.225Y-57.15
X65.185Y-57.15
X69.145Y-57.15
X73.105Y-57.15
X77.065Y-57.15
X81.025Y-57.15
X84.985Y-57.15
X174.422Y-159.17
X174.422Y-163.13
X174.422Y-167.09
X174.422Y-171.05
X174.422Y-175.01
X174.422Y-178.97
X174.422Y-182.93
X174.422Y-186.89
X57.265Y-114.3
X61.225Y-114.3
X65.185Y-114.3
X69.145Y-114.3
X73.105Y-114.3
X77.065Y-114.3
X81.025Y-114.3
X84.985Y-114.3
X57.265Y-76.2
X61.225Y-76.2
X65.185Y-76.2
X69.145Y-76.2
X73.105Y-76.2
X77.065Y-76.2
X81.025Y-76.2
X84.985Y-76.2
X98.5Y-127.45
X116.002Y-52.185
X116.002Y-56.145
X116.002Y-60.105
X116.002Y-64.065
X116.002Y-68.025
X116.002Y-71.985
X116.002Y-75.945
X116.002Y-79.905
X51.054Y-143.142
X57.265Y-95.25
X61.225Y-95.25
X65.185Y-95.25
X69.145Y-95.25
X73.105Y-95.25
X77.065Y-95.25
X81.025Y-95.25
X84.985Y-95.25
X167.725Y-185.1
X91.694Y-204.064
X57.265Y-133.35
X61.225Y-133.35
X65.185Y-133.35
X69.145Y-133.35
X73.105Y-133.35
X77.065Y-133.35
X81.025Y-133.35
X84.985Y-133.35
X57.265Y-152.4
X61.225Y-152.4
X65.185Y-152.4
X69.145Y-152.4
X73.105Y-152.4
X77.065Y-152.4
X81.025Y-152.4
X84.985Y-152.4
T8
X77.45Y-214.9
X85.07Y-214.9
T9
X158.191Y-214.452
X170.231Y-214.452
T10
X176.85Y-44.625
X178.Y-120.
X120.Y-45.
X50.Y-205.
X105.25Y-127.1
X178.219Y-214.351
X118.825Y-194.175
X50.Y-45.
X50.Y-125.
T11
X177.426Y-194.181
X177.426Y-202.161
T2
X64.3Y-213.1G85X64.3Y-210.9
G05
X68.4Y-216.8G85X66.2Y-216.8
G05
X70.3Y-213.35G85X70.3Y-210.65
G05
T0
M30
