G04 #@! TF.GenerationSoftware,KiCad,Pcbnew,(5.0.2)-1*
G04 #@! TF.CreationDate,2019-08-27T10:16:31-07:00*
G04 #@! TF.ProjectId,SamDriver32,53616d44-7269-4766-9572-33322e6b6963,rev?*
G04 #@! TF.SameCoordinates,Original*
G04 #@! TF.FileFunction,Legend,Bot*
G04 #@! TF.FilePolarity,Positive*
%FSLAX46Y46*%
G04 Gerber Fmt 4.6, Leading zero omitted, Abs format (unit mm)*
G04 Created by KiCad (PCBNEW (5.0.2)-1) date 8/27/2019 10:16:31 AM*
%MOMM*%
%LPD*%
G01*
G04 APERTURE LIST*
%ADD10C,0.127000*%
%ADD11C,0.150000*%
%ADD12C,2.000000*%
%ADD13R,2.000000X2.000000*%
%ADD14O,2.940000X2.940000*%
%ADD15R,2.051000X2.051000*%
%ADD16C,2.051000*%
%ADD17C,2.076400*%
%ADD18C,3.702000*%
%ADD19C,3.663900*%
%ADD20R,2.940000X2.940000*%
%ADD21C,2.940000*%
%ADD22O,2.400000X5.100000*%
%ADD23O,2.400000X4.600000*%
%ADD24O,4.600000X2.400000*%
%ADD25R,2.100000X2.100000*%
%ADD26O,2.100000X2.100000*%
%ADD27R,1.997660X1.100000*%
%ADD28R,1.800000X1.600000*%
%ADD29R,2.600000X1.600000*%
%ADD30R,2.599640X1.799540*%
%ADD31R,1.800000X2.198320*%
%ADD32C,1.400000*%
G04 APERTURE END LIST*
D10*
G04 #@! TO.C,SD1*
X182000800Y-206510600D02*
X178350800Y-206510600D01*
X182000800Y-206510600D02*
X182000800Y-204060600D01*
X181300800Y-199110600D02*
X181300800Y-191710600D01*
X175675800Y-206510600D02*
X168350800Y-206510600D01*
X167275800Y-204909400D02*
X167275800Y-201810600D01*
X167275800Y-200861260D02*
X167275800Y-200660600D01*
X167275800Y-199761260D02*
X167275800Y-199560600D01*
X167275800Y-198661260D02*
X167275800Y-198460600D01*
X167275800Y-197561260D02*
X167275800Y-197360600D01*
X167275800Y-196461260D02*
X167275800Y-196260600D01*
X167275800Y-195361260D02*
X167275800Y-195160600D01*
X167275800Y-194261260D02*
X167275800Y-194060600D01*
X167275800Y-193161260D02*
X167275800Y-192960600D01*
X168325800Y-191710600D02*
X175675800Y-191710600D01*
X178375800Y-191710600D02*
X181300800Y-191710600D01*
X177741905Y-194180600D02*
G75*
G03X177741905Y-194180600I-316105J0D01*
G01*
X176975800Y-194185600D02*
X177877500Y-194185600D01*
X177425800Y-193736440D02*
X177425800Y-194635600D01*
X177741905Y-202160600D02*
G75*
G03X177741905Y-202160600I-316105J0D01*
G01*
X176975800Y-202160600D02*
X177877500Y-202160600D01*
X177425800Y-201709020D02*
X177425800Y-202608180D01*
X181817710Y-203063019D02*
G75*
G02X182000800Y-204060600I-2626150J-997581D01*
G01*
X181825800Y-203110600D02*
G75*
G02X181299354Y-199111846I14923554J3998754D01*
G01*
D11*
X175887704Y-209515361D02*
X175744847Y-209562980D01*
X175506752Y-209562980D01*
X175411514Y-209515361D01*
X175363895Y-209467742D01*
X175316276Y-209372504D01*
X175316276Y-209277266D01*
X175363895Y-209182028D01*
X175411514Y-209134409D01*
X175506752Y-209086790D01*
X175697228Y-209039171D01*
X175792466Y-208991552D01*
X175840085Y-208943933D01*
X175887704Y-208848695D01*
X175887704Y-208753457D01*
X175840085Y-208658219D01*
X175792466Y-208610600D01*
X175697228Y-208562980D01*
X175459133Y-208562980D01*
X175316276Y-208610600D01*
X174887704Y-209562980D02*
X174887704Y-208562980D01*
X174649609Y-208562980D01*
X174506752Y-208610600D01*
X174411514Y-208705838D01*
X174363895Y-208801076D01*
X174316276Y-208991552D01*
X174316276Y-209134409D01*
X174363895Y-209324885D01*
X174411514Y-209420123D01*
X174506752Y-209515361D01*
X174649609Y-209562980D01*
X174887704Y-209562980D01*
X173363895Y-209562980D02*
X173935323Y-209562980D01*
X173649609Y-209562980D02*
X173649609Y-208562980D01*
X173744847Y-208705838D01*
X173840085Y-208801076D01*
X173935323Y-208848695D01*
G04 #@! TD*
%LPC*%
D12*
G04 #@! TO.C,U1*
X132080000Y-197637400D03*
X132080000Y-200177400D03*
X132080000Y-202717400D03*
X132080000Y-205257400D03*
X132080000Y-195097400D03*
X132080000Y-192557400D03*
X132080000Y-190017400D03*
X132080000Y-207797400D03*
X132080000Y-210337400D03*
X132080000Y-212877400D03*
X132080000Y-215417400D03*
X134620000Y-202717400D03*
X137160000Y-202717400D03*
X139700000Y-202717400D03*
X142240000Y-202717400D03*
X144780000Y-202717400D03*
X147320000Y-215417400D03*
X147320000Y-212877400D03*
X147320000Y-210337400D03*
X147320000Y-207797400D03*
X147320000Y-205257400D03*
X147320000Y-202717400D03*
X147320000Y-200177400D03*
X147320000Y-197637400D03*
X132080000Y-187477400D03*
X132080000Y-184937400D03*
X132080000Y-182397400D03*
X132080000Y-179857400D03*
X132080000Y-177317400D03*
X132080000Y-174777400D03*
X132080000Y-172237400D03*
X132080000Y-169697400D03*
X132080000Y-167157400D03*
X132080000Y-164617400D03*
X132080000Y-162077400D03*
X132080000Y-159537400D03*
D13*
X132080000Y-156997400D03*
D12*
X147320000Y-195097400D03*
X147320000Y-192557400D03*
X147320000Y-190017400D03*
X147320000Y-187477400D03*
X147320000Y-184937400D03*
X147320000Y-182397400D03*
X147320000Y-179857400D03*
X147320000Y-177317400D03*
X147320000Y-174777400D03*
X147320000Y-172237400D03*
X147320000Y-169697400D03*
X147320000Y-167157400D03*
X147320000Y-164617400D03*
X147320000Y-162077400D03*
X147320000Y-159537400D03*
X147320000Y-156997400D03*
X144780000Y-159537400D03*
X144780000Y-164617400D03*
X144780000Y-167157400D03*
X144780000Y-169697400D03*
X139700000Y-172237400D03*
X139700000Y-174777400D03*
X139700000Y-177317400D03*
X139700000Y-179857400D03*
X139700000Y-195097400D03*
X139700000Y-197637400D03*
X139700000Y-200177400D03*
X139700000Y-205257400D03*
X139700000Y-207797400D03*
X139700000Y-210337400D03*
X139700000Y-212877400D03*
X139700000Y-215417400D03*
X142240000Y-215417400D03*
X142240000Y-212877400D03*
X142240000Y-210337400D03*
X142240000Y-207797400D03*
X142240000Y-205257400D03*
X142240000Y-200177400D03*
X142240000Y-197637400D03*
X142240000Y-195097400D03*
X142240000Y-179857400D03*
X142240000Y-177317400D03*
X142240000Y-174777400D03*
X142240000Y-172237400D03*
X135080000Y-163347400D03*
X135080000Y-165887400D03*
X135080000Y-168427400D03*
X135080000Y-170967400D03*
X135080000Y-173507400D03*
G04 #@! TD*
D14*
G04 #@! TO.C,J21*
X84984800Y-57150000D03*
X81024800Y-57150000D03*
X77064800Y-57150000D03*
X73104800Y-57150000D03*
X69144800Y-57150000D03*
X65184800Y-57150000D03*
X61224800Y-57150000D03*
X57264800Y-57150000D03*
G04 #@! TD*
G04 #@! TO.C,J22*
X57264800Y-76200000D03*
X61224800Y-76200000D03*
X65184800Y-76200000D03*
X69144800Y-76200000D03*
X73104800Y-76200000D03*
X77064800Y-76200000D03*
X81024800Y-76200000D03*
X84984800Y-76200000D03*
G04 #@! TD*
D15*
G04 #@! TO.C,InChIn1*
X156815000Y-45270000D03*
D16*
X159355000Y-45270000D03*
X161895000Y-45270000D03*
X164435000Y-45270000D03*
X164435000Y-42730000D03*
X161895000Y-42730000D03*
X159355000Y-42730000D03*
X156815000Y-42730000D03*
G04 #@! TD*
G04 #@! TO.C,InChOut1*
X130115000Y-42730000D03*
X132655000Y-42730000D03*
X135195000Y-42730000D03*
X137735000Y-42730000D03*
X137735000Y-45270000D03*
X135195000Y-45270000D03*
X132655000Y-45270000D03*
D15*
X130115000Y-45270000D03*
G04 #@! TD*
D16*
G04 #@! TO.C,J2*
X158230000Y-197810000D03*
X158230000Y-195270000D03*
X158230000Y-192730000D03*
X158230000Y-190190000D03*
X160770000Y-190190000D03*
X160770000Y-192730000D03*
X160770000Y-195270000D03*
D15*
X160770000Y-197810000D03*
G04 #@! TD*
D16*
G04 #@! TO.C,J4*
X141590000Y-151750000D03*
X139050000Y-151750000D03*
D15*
X136510000Y-151750000D03*
G04 #@! TD*
D14*
G04 #@! TO.C,J6*
X48831500Y-57696100D03*
G04 #@! TD*
G04 #@! TO.C,J7*
X167725000Y-185100000D03*
G04 #@! TD*
G04 #@! TO.C,J8*
X125133100Y-173570900D03*
G04 #@! TD*
G04 #@! TO.C,J9*
X91694000Y-204063600D03*
G04 #@! TD*
G04 #@! TO.C,J10*
X98500000Y-127450000D03*
G04 #@! TD*
G04 #@! TO.C,J15*
X174420000Y-52184800D03*
X174420000Y-56144800D03*
X174420000Y-60104800D03*
X174420000Y-64064800D03*
X174420000Y-68024800D03*
X174420000Y-71984800D03*
X174420000Y-75944800D03*
X174420000Y-79904800D03*
G04 #@! TD*
G04 #@! TO.C,J16*
X174421800Y-115566400D03*
X174421800Y-111606400D03*
X174421800Y-107646400D03*
X174421800Y-103686400D03*
X174421800Y-99726400D03*
X174421800Y-95766400D03*
X174421800Y-91806400D03*
X174421800Y-87846400D03*
G04 #@! TD*
G04 #@! TO.C,J17*
X174421800Y-123508000D03*
X174421800Y-127468000D03*
X174421800Y-131428000D03*
X174421800Y-135388000D03*
X174421800Y-139348000D03*
X174421800Y-143308000D03*
X174421800Y-147268000D03*
X174421800Y-151228000D03*
G04 #@! TD*
G04 #@! TO.C,J18*
X174421800Y-186889600D03*
X174421800Y-182929600D03*
X174421800Y-178969600D03*
X174421800Y-175009600D03*
X174421800Y-171049600D03*
X174421800Y-167089600D03*
X174421800Y-163129600D03*
X174421800Y-159169600D03*
G04 #@! TD*
G04 #@! TO.C,J19*
X116001800Y-52184800D03*
X116001800Y-56144800D03*
X116001800Y-60104800D03*
X116001800Y-64064800D03*
X116001800Y-68024800D03*
X116001800Y-71984800D03*
X116001800Y-75944800D03*
X116001800Y-79904800D03*
G04 #@! TD*
G04 #@! TO.C,J20*
X116001800Y-115566400D03*
X116001800Y-111606400D03*
X116001800Y-107646400D03*
X116001800Y-103686400D03*
X116001800Y-99726400D03*
X116001800Y-95766400D03*
X116001800Y-91806400D03*
X116001800Y-87846400D03*
G04 #@! TD*
G04 #@! TO.C,J23*
X84984800Y-114300000D03*
X81024800Y-114300000D03*
X77064800Y-114300000D03*
X73104800Y-114300000D03*
X69144800Y-114300000D03*
X65184800Y-114300000D03*
X61224800Y-114300000D03*
X57264800Y-114300000D03*
G04 #@! TD*
G04 #@! TO.C,J24*
X57264800Y-133350000D03*
X61224800Y-133350000D03*
X65184800Y-133350000D03*
X69144800Y-133350000D03*
X73104800Y-133350000D03*
X77064800Y-133350000D03*
X81024800Y-133350000D03*
X84984800Y-133350000D03*
G04 #@! TD*
G04 #@! TO.C,J25*
X57264800Y-152400000D03*
X61224800Y-152400000D03*
X65184800Y-152400000D03*
X69144800Y-152400000D03*
X73104800Y-152400000D03*
X77064800Y-152400000D03*
X81024800Y-152400000D03*
X84984800Y-152400000D03*
G04 #@! TD*
G04 #@! TO.C,J26*
X84984800Y-171450000D03*
X81024800Y-171450000D03*
X77064800Y-171450000D03*
X73104800Y-171450000D03*
X69144800Y-171450000D03*
X65184800Y-171450000D03*
X61224800Y-171450000D03*
X57264800Y-171450000D03*
G04 #@! TD*
G04 #@! TO.C,J27*
X84984800Y-190500000D03*
X81024800Y-190500000D03*
X77064800Y-190500000D03*
X73104800Y-190500000D03*
X69144800Y-190500000D03*
X65184800Y-190500000D03*
X61224800Y-190500000D03*
X57264800Y-190500000D03*
G04 #@! TD*
D17*
G04 #@! TO.C,JP1*
X162961320Y-211734400D03*
X162961320Y-209753200D03*
X165460680Y-211734400D03*
D18*
X170230800Y-214452200D03*
X158191200Y-214452200D03*
D17*
X165460680Y-209753200D03*
G04 #@! TD*
D19*
G04 #@! TO.C,M1*
X176850000Y-44625000D03*
G04 #@! TD*
G04 #@! TO.C,M2*
X50000000Y-125000000D03*
G04 #@! TD*
G04 #@! TO.C,M3*
X50000000Y-45000000D03*
G04 #@! TD*
G04 #@! TO.C,M4*
X50000000Y-205000000D03*
G04 #@! TD*
G04 #@! TO.C,M5*
X118825000Y-194175000D03*
G04 #@! TD*
G04 #@! TO.C,M6*
X178219100Y-214350600D03*
G04 #@! TD*
G04 #@! TO.C,M7*
X178000000Y-120000000D03*
G04 #@! TD*
D14*
G04 #@! TO.C,J12*
X116001800Y-123508000D03*
X116001800Y-127468000D03*
X116001800Y-131428000D03*
X116001800Y-135388000D03*
X116001800Y-139348000D03*
X116001800Y-143308000D03*
X116001800Y-147268000D03*
X116001800Y-151228000D03*
G04 #@! TD*
G04 #@! TO.C,J13*
X116001800Y-186889600D03*
X116001800Y-182929600D03*
X116001800Y-178969600D03*
X116001800Y-175009600D03*
X116001800Y-171049600D03*
X116001800Y-167089600D03*
X116001800Y-163129600D03*
X116001800Y-159169600D03*
G04 #@! TD*
G04 #@! TO.C,J14*
X57264800Y-95250000D03*
X61224800Y-95250000D03*
X65184800Y-95250000D03*
X69144800Y-95250000D03*
X73104800Y-95250000D03*
X77064800Y-95250000D03*
X81024800Y-95250000D03*
X84984800Y-95250000D03*
G04 #@! TD*
D20*
G04 #@! TO.C,J28*
X77450000Y-214900000D03*
D21*
X85070000Y-214900000D03*
G04 #@! TD*
D12*
G04 #@! TO.C,C82*
X106287317Y-109034380D03*
D13*
X102445443Y-105834380D03*
D12*
X105616380Y-107434380D03*
D13*
X103116380Y-107434380D03*
G04 #@! TD*
D12*
G04 #@! TO.C,C83*
X106223817Y-69854880D03*
D13*
X102381943Y-66654880D03*
D12*
X105552880Y-68254880D03*
D13*
X103052880Y-68254880D03*
G04 #@! TD*
G04 #@! TO.C,C84*
X102798880Y-145343880D03*
D12*
X105298880Y-145343880D03*
D13*
X102127943Y-143743880D03*
D12*
X105969817Y-146943880D03*
G04 #@! TD*
G04 #@! TO.C,C85*
X105842817Y-184726380D03*
D13*
X102000943Y-181526380D03*
D12*
X105171880Y-183126380D03*
D13*
X102671880Y-183126380D03*
G04 #@! TD*
D19*
G04 #@! TO.C,M9*
X105250000Y-127100000D03*
G04 #@! TD*
G04 #@! TO.C,M10*
X120000000Y-45000000D03*
G04 #@! TD*
D14*
G04 #@! TO.C,J29*
X49450000Y-187800000D03*
G04 #@! TD*
G04 #@! TO.C,J30*
X50203100Y-161683700D03*
G04 #@! TD*
D22*
G04 #@! TO.C,J1*
X70300000Y-212000000D03*
D23*
X64300000Y-212000000D03*
D24*
X67300000Y-216800000D03*
G04 #@! TD*
D25*
G04 #@! TO.C,J3*
X125539500Y-194208400D03*
D26*
X128079500Y-194208400D03*
X125539500Y-191668400D03*
X128079500Y-191668400D03*
G04 #@! TD*
D14*
G04 #@! TO.C,J5*
X51269900Y-214007700D03*
G04 #@! TD*
G04 #@! TO.C,J11*
X51054000Y-143141700D03*
G04 #@! TD*
D16*
G04 #@! TO.C,KCH0*
X113690000Y-201730000D03*
X116230000Y-201730000D03*
X118770000Y-201730000D03*
X121310000Y-201730000D03*
X121310000Y-204270000D03*
X118770000Y-204270000D03*
X116230000Y-204270000D03*
D15*
X113690000Y-204270000D03*
G04 #@! TD*
G04 #@! TO.C,KCH1*
X113690000Y-216270000D03*
D16*
X116230000Y-216270000D03*
X118770000Y-216270000D03*
X121310000Y-216270000D03*
X121310000Y-213730000D03*
X118770000Y-213730000D03*
X116230000Y-213730000D03*
X113690000Y-213730000D03*
G04 #@! TD*
D15*
G04 #@! TO.C,Ser0*
X83425500Y-45135800D03*
D16*
X85965500Y-45135800D03*
X88505500Y-45135800D03*
X91045500Y-45135800D03*
X91045500Y-42595800D03*
X88505500Y-42595800D03*
X85965500Y-42595800D03*
X83425500Y-42595800D03*
G04 #@! TD*
G04 #@! TO.C,Ser1*
X160770000Y-171190000D03*
X160770000Y-173730000D03*
X160770000Y-176270000D03*
X160770000Y-178810000D03*
X158230000Y-178810000D03*
X158230000Y-176270000D03*
X158230000Y-173730000D03*
D15*
X158230000Y-171190000D03*
G04 #@! TD*
G04 #@! TO.C,OutChIn2*
X102425500Y-45135800D03*
D16*
X104965500Y-45135800D03*
X107505500Y-45135800D03*
X110045500Y-45135800D03*
X110045500Y-42595800D03*
X107505500Y-42595800D03*
X104965500Y-42595800D03*
X102425500Y-42595800D03*
G04 #@! TD*
G04 #@! TO.C,OutChOUT2*
X94690000Y-212730000D03*
X97230000Y-212730000D03*
X99770000Y-212730000D03*
X102310000Y-212730000D03*
X102310000Y-215270000D03*
X99770000Y-215270000D03*
X97230000Y-215270000D03*
D15*
X94690000Y-215270000D03*
G04 #@! TD*
D16*
G04 #@! TO.C,J31*
X65849500Y-45135800D03*
X68389500Y-45135800D03*
X70929500Y-45135800D03*
X70929500Y-42595800D03*
X68389500Y-42595800D03*
D15*
X65849500Y-42595800D03*
G04 #@! TD*
G04 #@! TO.C,J32*
X163715700Y-155181300D03*
D16*
X163715700Y-157721300D03*
X163715700Y-160261300D03*
X161175700Y-160261300D03*
X161175700Y-157721300D03*
X161175700Y-155181300D03*
G04 #@! TD*
D27*
G04 #@! TO.C,SD1*
X166975800Y-201310600D03*
X166975800Y-200210600D03*
X166975800Y-199110600D03*
X166975800Y-198010600D03*
X166975800Y-196910600D03*
X166975800Y-195810600D03*
X166975800Y-194710600D03*
X166975800Y-193610600D03*
X166975800Y-192510600D03*
D28*
X167425800Y-191360600D03*
D29*
X177025800Y-191360600D03*
D30*
X177025800Y-206860600D03*
D31*
X167425800Y-205960600D03*
D32*
X177425800Y-202160600D03*
X177425800Y-194180600D03*
G04 #@! TD*
M02*
