G04 #@! TF.GenerationSoftware,KiCad,Pcbnew,(5.0.2)-1*
G04 #@! TF.CreationDate,2019-08-27T10:16:31-07:00*
G04 #@! TF.ProjectId,SamDriver32,53616d44-7269-4766-9572-33322e6b6963,rev?*
G04 #@! TF.SameCoordinates,Original*
G04 #@! TF.FileFunction,Paste,Bot*
G04 #@! TF.FilePolarity,Positive*
%FSLAX46Y46*%
G04 Gerber Fmt 4.6, Leading zero omitted, Abs format (unit mm)*
G04 Created by KiCad (PCBNEW (5.0.2)-1) date 8/27/2019 10:16:31 AM*
%MOMM*%
%LPD*%
G01*
G04 APERTURE LIST*
%ADD10R,1.651000X1.651000*%
%ADD11C,1.651000*%
%ADD12C,1.676400*%
%ADD13C,3.302000*%
%ADD14R,1.597660X0.700000*%
%ADD15R,1.400000X1.200000*%
%ADD16R,2.200000X1.200000*%
%ADD17R,2.199640X1.399540*%
%ADD18R,1.400000X1.798320*%
G04 APERTURE END LIST*
D10*
G04 #@! TO.C,InChIn1*
X156815000Y-45270000D03*
D11*
X159355000Y-45270000D03*
X161895000Y-45270000D03*
X164435000Y-45270000D03*
X164435000Y-42730000D03*
X161895000Y-42730000D03*
X159355000Y-42730000D03*
X156815000Y-42730000D03*
G04 #@! TD*
G04 #@! TO.C,InChOut1*
X130115000Y-42730000D03*
X132655000Y-42730000D03*
X135195000Y-42730000D03*
X137735000Y-42730000D03*
X137735000Y-45270000D03*
X135195000Y-45270000D03*
X132655000Y-45270000D03*
D10*
X130115000Y-45270000D03*
G04 #@! TD*
D11*
G04 #@! TO.C,J2*
X158230000Y-197810000D03*
X158230000Y-195270000D03*
X158230000Y-192730000D03*
X158230000Y-190190000D03*
X160770000Y-190190000D03*
X160770000Y-192730000D03*
X160770000Y-195270000D03*
D10*
X160770000Y-197810000D03*
G04 #@! TD*
D11*
G04 #@! TO.C,J4*
X141590000Y-151750000D03*
X139050000Y-151750000D03*
D10*
X136510000Y-151750000D03*
G04 #@! TD*
D12*
G04 #@! TO.C,JP1*
X162961320Y-211734400D03*
X162961320Y-209753200D03*
X165460680Y-211734400D03*
D13*
X170230800Y-214452200D03*
X158191200Y-214452200D03*
D12*
X165460680Y-209753200D03*
G04 #@! TD*
D11*
G04 #@! TO.C,KCH0*
X113690000Y-201730000D03*
X116230000Y-201730000D03*
X118770000Y-201730000D03*
X121310000Y-201730000D03*
X121310000Y-204270000D03*
X118770000Y-204270000D03*
X116230000Y-204270000D03*
D10*
X113690000Y-204270000D03*
G04 #@! TD*
G04 #@! TO.C,KCH1*
X113690000Y-216270000D03*
D11*
X116230000Y-216270000D03*
X118770000Y-216270000D03*
X121310000Y-216270000D03*
X121310000Y-213730000D03*
X118770000Y-213730000D03*
X116230000Y-213730000D03*
X113690000Y-213730000D03*
G04 #@! TD*
D10*
G04 #@! TO.C,Ser0*
X83425500Y-45135800D03*
D11*
X85965500Y-45135800D03*
X88505500Y-45135800D03*
X91045500Y-45135800D03*
X91045500Y-42595800D03*
X88505500Y-42595800D03*
X85965500Y-42595800D03*
X83425500Y-42595800D03*
G04 #@! TD*
G04 #@! TO.C,Ser1*
X160770000Y-171190000D03*
X160770000Y-173730000D03*
X160770000Y-176270000D03*
X160770000Y-178810000D03*
X158230000Y-178810000D03*
X158230000Y-176270000D03*
X158230000Y-173730000D03*
D10*
X158230000Y-171190000D03*
G04 #@! TD*
G04 #@! TO.C,OutChIn2*
X102425500Y-45135800D03*
D11*
X104965500Y-45135800D03*
X107505500Y-45135800D03*
X110045500Y-45135800D03*
X110045500Y-42595800D03*
X107505500Y-42595800D03*
X104965500Y-42595800D03*
X102425500Y-42595800D03*
G04 #@! TD*
G04 #@! TO.C,OutChOUT2*
X94690000Y-212730000D03*
X97230000Y-212730000D03*
X99770000Y-212730000D03*
X102310000Y-212730000D03*
X102310000Y-215270000D03*
X99770000Y-215270000D03*
X97230000Y-215270000D03*
D10*
X94690000Y-215270000D03*
G04 #@! TD*
D14*
G04 #@! TO.C,SD1*
X166975800Y-201310600D03*
X166975800Y-200210600D03*
X166975800Y-199110600D03*
X166975800Y-198010600D03*
X166975800Y-196910600D03*
X166975800Y-195810600D03*
X166975800Y-194710600D03*
X166975800Y-193610600D03*
X166975800Y-192510600D03*
D15*
X167425800Y-191360600D03*
D16*
X177025800Y-191360600D03*
D17*
X177025800Y-206860600D03*
D18*
X167425800Y-205960600D03*
G04 #@! TD*
M02*
