%TF.GenerationSoftware,KiCad,Pcbnew,(5.1.7)-1*%
%TF.CreationDate,2022-01-28T11:54:27-08:00*%
%TF.ProjectId,PowerDistribution,506f7765-7244-4697-9374-726962757469,rev?*%
%TF.SameCoordinates,Original*%
%TF.FileFunction,Soldermask,Top*%
%TF.FilePolarity,Negative*%
%FSLAX46Y46*%
G04 Gerber Fmt 4.6, Leading zero omitted, Abs format (unit mm)*
G04 Created by KiCad (PCBNEW (5.1.7)-1) date 2022-01-28 11:54:27*
%MOMM*%
%LPD*%
G01*
G04 APERTURE LIST*
%ADD10C,2.600000*%
%ADD11C,3.500000*%
%ADD12O,2.700000X3.300000*%
%ADD13C,3.000000*%
%ADD14R,2.400000X2.400000*%
%ADD15C,2.400000*%
%ADD16C,3.200000*%
%ADD17C,1.800000*%
%ADD18R,1.800000X1.800000*%
%ADD19O,1.400000X1.400000*%
%ADD20C,1.400000*%
%ADD21R,1.700000X1.700000*%
%ADD22O,1.700000X1.700000*%
G04 APERTURE END LIST*
D10*
%TO.C,F4*%
X179300000Y-92950000D03*
X182700000Y-92950000D03*
X182700000Y-96750000D03*
X179300000Y-96750000D03*
X179300000Y-83250000D03*
X182700000Y-83250000D03*
D11*
X181000000Y-95150000D03*
X181000000Y-85950000D03*
X181000000Y-90050000D03*
X181000000Y-80850000D03*
%TD*%
D10*
%TO.C,F2*%
X170300000Y-103950000D03*
X173700000Y-103950000D03*
X173700000Y-107750000D03*
X170300000Y-107750000D03*
X170300000Y-94250000D03*
X173700000Y-94250000D03*
D11*
X172000000Y-106150000D03*
X172000000Y-96950000D03*
X172000000Y-101050000D03*
X172000000Y-91850000D03*
%TD*%
D10*
%TO.C,F3*%
X159300000Y-104950000D03*
X162700000Y-104950000D03*
X162700000Y-108750000D03*
X159300000Y-108750000D03*
X159300000Y-95250000D03*
X162700000Y-95250000D03*
D11*
X161000000Y-107150000D03*
X161000000Y-97950000D03*
X161000000Y-102050000D03*
X161000000Y-92850000D03*
%TD*%
D10*
%TO.C,F5*%
X124300000Y-104950000D03*
X127700000Y-104950000D03*
X127700000Y-108750000D03*
X124300000Y-108750000D03*
X124300000Y-95250000D03*
X127700000Y-95250000D03*
D11*
X126000000Y-107150000D03*
X126000000Y-97950000D03*
X126000000Y-102050000D03*
X126000000Y-92850000D03*
%TD*%
D10*
%TO.C,F6*%
X126050000Y-124300000D03*
X126050000Y-127700000D03*
X122250000Y-127700000D03*
X122250000Y-124300000D03*
X135750000Y-124300000D03*
X135750000Y-127700000D03*
D11*
X123850000Y-126000000D03*
X133050000Y-126000000D03*
X128950000Y-126000000D03*
X138150000Y-126000000D03*
%TD*%
D10*
%TO.C,F7*%
X126050000Y-115300000D03*
X126050000Y-118700000D03*
X122250000Y-118700000D03*
X122250000Y-115300000D03*
X135750000Y-115300000D03*
X135750000Y-118700000D03*
D11*
X123850000Y-117000000D03*
X133050000Y-117000000D03*
X128950000Y-117000000D03*
X138150000Y-117000000D03*
%TD*%
%TO.C,J1*%
G36*
G01*
X114875001Y-82175000D02*
X114875001Y-79375002D01*
G75*
G02*
X115125002Y-79125001I250001J0D01*
G01*
X117325000Y-79125001D01*
G75*
G02*
X117575001Y-79375002I0J-250001D01*
G01*
X117575001Y-82175000D01*
G75*
G02*
X117325000Y-82425001I-250001J0D01*
G01*
X115125002Y-82425001D01*
G75*
G02*
X114875001Y-82175000I0J250001D01*
G01*
G37*
D12*
X120425001Y-80775001D03*
X124625001Y-80775001D03*
X128825001Y-80775001D03*
X133025001Y-80775001D03*
X137225001Y-80775001D03*
X141425001Y-80775001D03*
X145625001Y-80775001D03*
X149825001Y-80775001D03*
X154025001Y-80775001D03*
X158225001Y-80775001D03*
X162425001Y-80775001D03*
X116225001Y-86275001D03*
X120425001Y-86275001D03*
X124625001Y-86275001D03*
X128825001Y-86275001D03*
X133025001Y-86275001D03*
X137225001Y-86275001D03*
X141425001Y-86275001D03*
X145625001Y-86275001D03*
X149825001Y-86275001D03*
X154025001Y-86275001D03*
X158225001Y-86275001D03*
X162425001Y-86275001D03*
D13*
X111525001Y-85815001D03*
X167125001Y-85815001D03*
%TD*%
D12*
%TO.C,EPS1*%
X128600000Y-71000000D03*
X124400000Y-71000000D03*
X120200000Y-71000000D03*
X116000000Y-71000000D03*
X128600000Y-65500000D03*
X124400000Y-65500000D03*
X120200000Y-65500000D03*
G36*
G01*
X114650000Y-66899999D02*
X114650000Y-64100001D01*
G75*
G02*
X114900001Y-63850000I250001J0D01*
G01*
X117099999Y-63850000D01*
G75*
G02*
X117350000Y-64100001I0J-250001D01*
G01*
X117350000Y-66899999D01*
G75*
G02*
X117099999Y-67150000I-250001J0D01*
G01*
X114900001Y-67150000D01*
G75*
G02*
X114650000Y-66899999I0J250001D01*
G01*
G37*
%TD*%
%TO.C,EPS2*%
G36*
G01*
X136150000Y-66899999D02*
X136150000Y-64100001D01*
G75*
G02*
X136400001Y-63850000I250001J0D01*
G01*
X138599999Y-63850000D01*
G75*
G02*
X138850000Y-64100001I0J-250001D01*
G01*
X138850000Y-66899999D01*
G75*
G02*
X138599999Y-67150000I-250001J0D01*
G01*
X136400001Y-67150000D01*
G75*
G02*
X136150000Y-66899999I0J250001D01*
G01*
G37*
X141700000Y-65500000D03*
X145900000Y-65500000D03*
X150100000Y-65500000D03*
X137500000Y-71000000D03*
X141700000Y-71000000D03*
X145900000Y-71000000D03*
X150100000Y-71000000D03*
%TD*%
D13*
%TO.C,J2*%
X143500000Y-138500000D03*
X148500000Y-138500000D03*
X148500000Y-145500000D03*
X143500000Y-145500000D03*
%TD*%
%TO.C,J3*%
X128500000Y-138500000D03*
X123500000Y-138500000D03*
X123500000Y-145500000D03*
X128500000Y-145500000D03*
%TD*%
%TO.C,J4*%
X174500000Y-138500000D03*
X179500000Y-138500000D03*
X179500000Y-145500000D03*
X174500000Y-145500000D03*
%TD*%
%TO.C,J5*%
X195500000Y-112500000D03*
X190500000Y-112500000D03*
X190500000Y-119500000D03*
X195500000Y-119500000D03*
%TD*%
%TO.C,J6*%
X179500000Y-112500000D03*
X184500000Y-112500000D03*
X184500000Y-119500000D03*
X179500000Y-119500000D03*
%TD*%
%TO.C,J7*%
X190500000Y-131500000D03*
X195500000Y-131500000D03*
X195500000Y-124500000D03*
X190500000Y-124500000D03*
%TD*%
%TO.C,J8*%
X173500000Y-131500000D03*
X168500000Y-131500000D03*
X168500000Y-124500000D03*
X173500000Y-124500000D03*
%TD*%
%TO.C,J9*%
X173500000Y-112500000D03*
X168500000Y-112500000D03*
X168500000Y-119500000D03*
X173500000Y-119500000D03*
%TD*%
%TO.C,J10*%
X184500000Y-131500000D03*
X179500000Y-131500000D03*
X179500000Y-124500000D03*
X184500000Y-124500000D03*
%TD*%
%TO.C,J11*%
X189500000Y-89500000D03*
X189500000Y-94500000D03*
X196500000Y-94500000D03*
X196500000Y-89500000D03*
%TD*%
%TO.C,J12*%
X189500000Y-105500000D03*
X189500000Y-100500000D03*
X196500000Y-100500000D03*
X196500000Y-105500000D03*
%TD*%
%TO.C,J13*%
X196500000Y-83500000D03*
X196500000Y-78500000D03*
X189500000Y-78500000D03*
X189500000Y-83500000D03*
%TD*%
D14*
%TO.C,J14*%
X115500000Y-103000000D03*
D15*
X115500000Y-99500000D03*
X115500000Y-96000000D03*
%TD*%
D13*
%TO.C,J15*%
X118500000Y-124500000D03*
X118500000Y-129500000D03*
X111500000Y-129500000D03*
X111500000Y-124500000D03*
%TD*%
%TO.C,J16*%
X111500000Y-114500000D03*
X111500000Y-119500000D03*
X118500000Y-119500000D03*
X118500000Y-114500000D03*
%TD*%
D12*
%TO.C,PCIE1*%
X175600000Y-66500000D03*
X179800000Y-66500000D03*
X184000000Y-66500000D03*
X175600000Y-72000000D03*
X179800000Y-72000000D03*
G36*
G01*
X185350000Y-70600001D02*
X185350000Y-73399999D01*
G75*
G02*
X185099999Y-73650000I-250001J0D01*
G01*
X182900001Y-73650000D01*
G75*
G02*
X182650000Y-73399999I0J250001D01*
G01*
X182650000Y-70600001D01*
G75*
G02*
X182900001Y-70350000I250001J0D01*
G01*
X185099999Y-70350000D01*
G75*
G02*
X185350000Y-70600001I0J-250001D01*
G01*
G37*
%TD*%
%TO.C,PCIE2*%
G36*
G01*
X168350000Y-70600001D02*
X168350000Y-73399999D01*
G75*
G02*
X168099999Y-73650000I-250001J0D01*
G01*
X165900001Y-73650000D01*
G75*
G02*
X165650000Y-73399999I0J250001D01*
G01*
X165650000Y-70600001D01*
G75*
G02*
X165900001Y-70350000I250001J0D01*
G01*
X168099999Y-70350000D01*
G75*
G02*
X168350000Y-70600001I0J-250001D01*
G01*
G37*
X162800000Y-72000000D03*
X158600000Y-72000000D03*
X167000000Y-66500000D03*
X162800000Y-66500000D03*
X158600000Y-66500000D03*
%TD*%
D13*
%TO.C,J17*%
X133500000Y-138500000D03*
X138500000Y-138500000D03*
X138500000Y-145500000D03*
X133500000Y-145500000D03*
%TD*%
%TO.C,J18*%
X154500000Y-145500000D03*
X159500000Y-145500000D03*
X159500000Y-138500000D03*
X154500000Y-138500000D03*
%TD*%
%TO.C,J19*%
X164500000Y-138500000D03*
X169500000Y-138500000D03*
X169500000Y-145500000D03*
X164500000Y-145500000D03*
%TD*%
D16*
%TO.C,H1*%
X108000000Y-58000000D03*
%TD*%
%TO.C,H2*%
X108000000Y-142000000D03*
%TD*%
%TO.C,H3*%
X192000000Y-58000000D03*
%TD*%
%TO.C,H4*%
X192000000Y-142000000D03*
%TD*%
D17*
%TO.C,D1*%
X143460000Y-127000000D03*
D18*
X146000000Y-127000000D03*
%TD*%
%TO.C,D2*%
X146000000Y-117000000D03*
D17*
X143460000Y-117000000D03*
%TD*%
%TO.C,D3*%
X180540000Y-107000000D03*
D18*
X178000000Y-107000000D03*
%TD*%
%TO.C,D4*%
X174000000Y-83000000D03*
D17*
X174000000Y-85540000D03*
%TD*%
D18*
%TO.C,D5*%
X152000000Y-107000000D03*
D17*
X154540000Y-107000000D03*
%TD*%
%TO.C,D6*%
X132460000Y-106000000D03*
D18*
X135000000Y-106000000D03*
%TD*%
D16*
%TO.C,H6*%
X144000000Y-101000000D03*
%TD*%
D19*
%TO.C,R1*%
X150000000Y-127080000D03*
D20*
X150000000Y-122000000D03*
%TD*%
%TO.C,R2*%
X150000000Y-113000000D03*
D19*
X150000000Y-118080000D03*
%TD*%
D20*
%TO.C,R3*%
X183000000Y-102000000D03*
D19*
X177920000Y-102000000D03*
%TD*%
%TO.C,R4*%
X174879000Y-79883000D03*
D20*
X169799000Y-79883000D03*
%TD*%
D19*
%TO.C,R5*%
X152000000Y-101080000D03*
D20*
X152000000Y-96000000D03*
%TD*%
%TO.C,R6*%
X135000000Y-96000000D03*
D19*
X135000000Y-101080000D03*
%TD*%
D16*
%TO.C,H5*%
X158000000Y-58000000D03*
%TD*%
D21*
%TO.C,J20*%
X114046000Y-108331000D03*
D22*
X116586000Y-108331000D03*
%TD*%
M02*
