%TF.GenerationSoftware,KiCad,Pcbnew,(5.1.7)-1*%
%TF.CreationDate,2022-01-28T11:54:27-08:00*%
%TF.ProjectId,PowerDistribution,506f7765-7244-4697-9374-726962757469,rev?*%
%TF.SameCoordinates,Original*%
%TF.FileFunction,Legend,Top*%
%TF.FilePolarity,Positive*%
%FSLAX46Y46*%
G04 Gerber Fmt 4.6, Leading zero omitted, Abs format (unit mm)*
G04 Created by KiCad (PCBNEW (5.1.7)-1) date 2022-01-28 11:54:27*
%MOMM*%
%LPD*%
G01*
G04 APERTURE LIST*
%ADD10C,0.200000*%
%ADD11C,0.300000*%
%ADD12C,0.120000*%
%ADD13C,0.400000*%
%ADD14C,0.150000*%
G04 APERTURE END LIST*
D10*
X130860071Y-53764571D02*
X130860071Y-52264571D01*
X131431500Y-52264571D01*
X131574357Y-52336000D01*
X131645785Y-52407428D01*
X131717214Y-52550285D01*
X131717214Y-52764571D01*
X131645785Y-52907428D01*
X131574357Y-52978857D01*
X131431500Y-53050285D01*
X130860071Y-53050285D01*
X132574357Y-53764571D02*
X132431500Y-53693142D01*
X132360071Y-53621714D01*
X132288642Y-53478857D01*
X132288642Y-53050285D01*
X132360071Y-52907428D01*
X132431500Y-52836000D01*
X132574357Y-52764571D01*
X132788642Y-52764571D01*
X132931500Y-52836000D01*
X133002928Y-52907428D01*
X133074357Y-53050285D01*
X133074357Y-53478857D01*
X133002928Y-53621714D01*
X132931500Y-53693142D01*
X132788642Y-53764571D01*
X132574357Y-53764571D01*
X133574357Y-52764571D02*
X133860071Y-53764571D01*
X134145785Y-53050285D01*
X134431500Y-53764571D01*
X134717214Y-52764571D01*
X135860071Y-53693142D02*
X135717214Y-53764571D01*
X135431500Y-53764571D01*
X135288642Y-53693142D01*
X135217214Y-53550285D01*
X135217214Y-52978857D01*
X135288642Y-52836000D01*
X135431500Y-52764571D01*
X135717214Y-52764571D01*
X135860071Y-52836000D01*
X135931500Y-52978857D01*
X135931500Y-53121714D01*
X135217214Y-53264571D01*
X136574357Y-53764571D02*
X136574357Y-52764571D01*
X136574357Y-53050285D02*
X136645785Y-52907428D01*
X136717214Y-52836000D01*
X136860071Y-52764571D01*
X137002928Y-52764571D01*
X137502928Y-53764571D02*
X137502928Y-52264571D01*
X137860071Y-52264571D01*
X138074357Y-52336000D01*
X138217214Y-52478857D01*
X138288642Y-52621714D01*
X138360071Y-52907428D01*
X138360071Y-53121714D01*
X138288642Y-53407428D01*
X138217214Y-53550285D01*
X138074357Y-53693142D01*
X137860071Y-53764571D01*
X137502928Y-53764571D01*
X139002928Y-53764571D02*
X139002928Y-52764571D01*
X139002928Y-52264571D02*
X138931500Y-52336000D01*
X139002928Y-52407428D01*
X139074357Y-52336000D01*
X139002928Y-52264571D01*
X139002928Y-52407428D01*
X139645785Y-53693142D02*
X139788642Y-53764571D01*
X140074357Y-53764571D01*
X140217214Y-53693142D01*
X140288642Y-53550285D01*
X140288642Y-53478857D01*
X140217214Y-53336000D01*
X140074357Y-53264571D01*
X139860071Y-53264571D01*
X139717214Y-53193142D01*
X139645785Y-53050285D01*
X139645785Y-52978857D01*
X139717214Y-52836000D01*
X139860071Y-52764571D01*
X140074357Y-52764571D01*
X140217214Y-52836000D01*
X140717214Y-52764571D02*
X141288642Y-52764571D01*
X140931500Y-52264571D02*
X140931500Y-53550285D01*
X141002928Y-53693142D01*
X141145785Y-53764571D01*
X141288642Y-53764571D01*
X141788642Y-53764571D02*
X141788642Y-52764571D01*
X141788642Y-53050285D02*
X141860071Y-52907428D01*
X141931500Y-52836000D01*
X142074357Y-52764571D01*
X142217214Y-52764571D01*
X142717214Y-53764571D02*
X142717214Y-52764571D01*
X142717214Y-52264571D02*
X142645785Y-52336000D01*
X142717214Y-52407428D01*
X142788642Y-52336000D01*
X142717214Y-52264571D01*
X142717214Y-52407428D01*
X143431500Y-53764571D02*
X143431500Y-52264571D01*
X143431500Y-52836000D02*
X143574357Y-52764571D01*
X143860071Y-52764571D01*
X144002928Y-52836000D01*
X144074357Y-52907428D01*
X144145785Y-53050285D01*
X144145785Y-53478857D01*
X144074357Y-53621714D01*
X144002928Y-53693142D01*
X143860071Y-53764571D01*
X143574357Y-53764571D01*
X143431500Y-53693142D01*
X145431500Y-52764571D02*
X145431500Y-53764571D01*
X144788642Y-52764571D02*
X144788642Y-53550285D01*
X144860071Y-53693142D01*
X145002928Y-53764571D01*
X145217214Y-53764571D01*
X145360071Y-53693142D01*
X145431500Y-53621714D01*
X145931500Y-52764571D02*
X146502928Y-52764571D01*
X146145785Y-52264571D02*
X146145785Y-53550285D01*
X146217214Y-53693142D01*
X146360071Y-53764571D01*
X146502928Y-53764571D01*
X147002928Y-53764571D02*
X147002928Y-52764571D01*
X147002928Y-52264571D02*
X146931500Y-52336000D01*
X147002928Y-52407428D01*
X147074357Y-52336000D01*
X147002928Y-52264571D01*
X147002928Y-52407428D01*
X147931500Y-53764571D02*
X147788642Y-53693142D01*
X147717214Y-53621714D01*
X147645785Y-53478857D01*
X147645785Y-53050285D01*
X147717214Y-52907428D01*
X147788642Y-52836000D01*
X147931500Y-52764571D01*
X148145785Y-52764571D01*
X148288642Y-52836000D01*
X148360071Y-52907428D01*
X148431500Y-53050285D01*
X148431500Y-53478857D01*
X148360071Y-53621714D01*
X148288642Y-53693142D01*
X148145785Y-53764571D01*
X147931500Y-53764571D01*
X149074357Y-52764571D02*
X149074357Y-53764571D01*
X149074357Y-52907428D02*
X149145785Y-52836000D01*
X149288642Y-52764571D01*
X149502928Y-52764571D01*
X149645785Y-52836000D01*
X149717214Y-52978857D01*
X149717214Y-53764571D01*
X152431500Y-53764571D02*
X151931500Y-53050285D01*
X151574357Y-53764571D02*
X151574357Y-52264571D01*
X152145785Y-52264571D01*
X152288642Y-52336000D01*
X152360071Y-52407428D01*
X152431500Y-52550285D01*
X152431500Y-52764571D01*
X152360071Y-52907428D01*
X152288642Y-52978857D01*
X152145785Y-53050285D01*
X151574357Y-53050285D01*
X153645785Y-53693142D02*
X153502928Y-53764571D01*
X153217214Y-53764571D01*
X153074357Y-53693142D01*
X153002928Y-53550285D01*
X153002928Y-52978857D01*
X153074357Y-52836000D01*
X153217214Y-52764571D01*
X153502928Y-52764571D01*
X153645785Y-52836000D01*
X153717214Y-52978857D01*
X153717214Y-53121714D01*
X153002928Y-53264571D01*
X154217214Y-52764571D02*
X154574357Y-53764571D01*
X154931500Y-52764571D01*
X157145785Y-52978857D02*
X157360071Y-53050285D01*
X157431500Y-53121714D01*
X157502928Y-53264571D01*
X157502928Y-53478857D01*
X157431500Y-53621714D01*
X157360071Y-53693142D01*
X157217214Y-53764571D01*
X156645785Y-53764571D01*
X156645785Y-52264571D01*
X157145785Y-52264571D01*
X157288642Y-52336000D01*
X157360071Y-52407428D01*
X157431500Y-52550285D01*
X157431500Y-52693142D01*
X157360071Y-52836000D01*
X157288642Y-52907428D01*
X157145785Y-52978857D01*
X156645785Y-52978857D01*
X159217214Y-52407428D02*
X159288642Y-52336000D01*
X159431500Y-52264571D01*
X159788642Y-52264571D01*
X159931500Y-52336000D01*
X160002928Y-52407428D01*
X160074357Y-52550285D01*
X160074357Y-52693142D01*
X160002928Y-52907428D01*
X159145785Y-53764571D01*
X160074357Y-53764571D01*
X161002928Y-52264571D02*
X161145785Y-52264571D01*
X161288642Y-52336000D01*
X161360071Y-52407428D01*
X161431500Y-52550285D01*
X161502928Y-52836000D01*
X161502928Y-53193142D01*
X161431500Y-53478857D01*
X161360071Y-53621714D01*
X161288642Y-53693142D01*
X161145785Y-53764571D01*
X161002928Y-53764571D01*
X160860071Y-53693142D01*
X160788642Y-53621714D01*
X160717214Y-53478857D01*
X160645785Y-53193142D01*
X160645785Y-52836000D01*
X160717214Y-52550285D01*
X160788642Y-52407428D01*
X160860071Y-52336000D01*
X161002928Y-52264571D01*
X162074357Y-52407428D02*
X162145785Y-52336000D01*
X162288642Y-52264571D01*
X162645785Y-52264571D01*
X162788642Y-52336000D01*
X162860071Y-52407428D01*
X162931500Y-52550285D01*
X162931500Y-52693142D01*
X162860071Y-52907428D01*
X162002928Y-53764571D01*
X162931500Y-53764571D01*
X163502928Y-52407428D02*
X163574357Y-52336000D01*
X163717214Y-52264571D01*
X164074357Y-52264571D01*
X164217214Y-52336000D01*
X164288642Y-52407428D01*
X164360071Y-52550285D01*
X164360071Y-52693142D01*
X164288642Y-52907428D01*
X163431500Y-53764571D01*
X164360071Y-53764571D01*
X165288642Y-52264571D02*
X165431500Y-52264571D01*
X165574357Y-52336000D01*
X165645785Y-52407428D01*
X165717214Y-52550285D01*
X165788642Y-52836000D01*
X165788642Y-53193142D01*
X165717214Y-53478857D01*
X165645785Y-53621714D01*
X165574357Y-53693142D01*
X165431500Y-53764571D01*
X165288642Y-53764571D01*
X165145785Y-53693142D01*
X165074357Y-53621714D01*
X165002928Y-53478857D01*
X164931500Y-53193142D01*
X164931500Y-52836000D01*
X165002928Y-52550285D01*
X165074357Y-52407428D01*
X165145785Y-52336000D01*
X165288642Y-52264571D01*
X167217214Y-53764571D02*
X166360071Y-53764571D01*
X166788642Y-53764571D02*
X166788642Y-52264571D01*
X166645785Y-52478857D01*
X166502928Y-52621714D01*
X166360071Y-52693142D01*
X167788642Y-52407428D02*
X167860071Y-52336000D01*
X168002928Y-52264571D01*
X168360071Y-52264571D01*
X168502928Y-52336000D01*
X168574357Y-52407428D01*
X168645785Y-52550285D01*
X168645785Y-52693142D01*
X168574357Y-52907428D01*
X167717214Y-53764571D01*
X168645785Y-53764571D01*
X169502928Y-52907428D02*
X169360071Y-52836000D01*
X169288642Y-52764571D01*
X169217214Y-52621714D01*
X169217214Y-52550285D01*
X169288642Y-52407428D01*
X169360071Y-52336000D01*
X169502928Y-52264571D01*
X169788642Y-52264571D01*
X169931500Y-52336000D01*
X170002928Y-52407428D01*
X170074357Y-52550285D01*
X170074357Y-52621714D01*
X170002928Y-52764571D01*
X169931500Y-52836000D01*
X169788642Y-52907428D01*
X169502928Y-52907428D01*
X169360071Y-52978857D01*
X169288642Y-53050285D01*
X169217214Y-53193142D01*
X169217214Y-53478857D01*
X169288642Y-53621714D01*
X169360071Y-53693142D01*
X169502928Y-53764571D01*
X169788642Y-53764571D01*
X169931500Y-53693142D01*
X170002928Y-53621714D01*
X170074357Y-53478857D01*
X170074357Y-53193142D01*
X170002928Y-53050285D01*
X169931500Y-52978857D01*
X169788642Y-52907428D01*
D11*
X104476190Y-94700000D02*
X104285714Y-94604761D01*
X104000000Y-94604761D01*
X103714285Y-94700000D01*
X103523809Y-94890476D01*
X103428571Y-95080952D01*
X103333333Y-95461904D01*
X103333333Y-95747619D01*
X103428571Y-96128571D01*
X103523809Y-96319047D01*
X103714285Y-96509523D01*
X104000000Y-96604761D01*
X104190476Y-96604761D01*
X104476190Y-96509523D01*
X104571428Y-96414285D01*
X104571428Y-95747619D01*
X104190476Y-95747619D01*
X105428571Y-96604761D02*
X105428571Y-94604761D01*
X106571428Y-96604761D01*
X106571428Y-94604761D01*
X107523809Y-96604761D02*
X107523809Y-94604761D01*
X108000000Y-94604761D01*
X108285714Y-94700000D01*
X108476190Y-94890476D01*
X108571428Y-95080952D01*
X108666666Y-95461904D01*
X108666666Y-95747619D01*
X108571428Y-96128571D01*
X108476190Y-96319047D01*
X108285714Y-96509523D01*
X108000000Y-96604761D01*
X107523809Y-96604761D01*
X102904761Y-97904761D02*
X101952380Y-97904761D01*
X101857142Y-98857142D01*
X101952380Y-98761904D01*
X102142857Y-98666666D01*
X102619047Y-98666666D01*
X102809523Y-98761904D01*
X102904761Y-98857142D01*
X103000000Y-99047619D01*
X103000000Y-99523809D01*
X102904761Y-99714285D01*
X102809523Y-99809523D01*
X102619047Y-99904761D01*
X102142857Y-99904761D01*
X101952380Y-99809523D01*
X101857142Y-99714285D01*
X103571428Y-97904761D02*
X104238095Y-99904761D01*
X104904761Y-97904761D01*
X105476190Y-99809523D02*
X105761904Y-99904761D01*
X106238095Y-99904761D01*
X106428571Y-99809523D01*
X106523809Y-99714285D01*
X106619047Y-99523809D01*
X106619047Y-99333333D01*
X106523809Y-99142857D01*
X106428571Y-99047619D01*
X106238095Y-98952380D01*
X105857142Y-98857142D01*
X105666666Y-98761904D01*
X105571428Y-98666666D01*
X105476190Y-98476190D01*
X105476190Y-98285714D01*
X105571428Y-98095238D01*
X105666666Y-98000000D01*
X105857142Y-97904761D01*
X106333333Y-97904761D01*
X106619047Y-98000000D01*
X107190476Y-97904761D02*
X108333333Y-97904761D01*
X107761904Y-99904761D02*
X107761904Y-97904761D01*
X109000000Y-99904761D02*
X109000000Y-97904761D01*
X109476190Y-97904761D01*
X109761904Y-98000000D01*
X109952380Y-98190476D01*
X110047619Y-98380952D01*
X110142857Y-98761904D01*
X110142857Y-99047619D01*
X110047619Y-99428571D01*
X109952380Y-99619047D01*
X109761904Y-99809523D01*
X109476190Y-99904761D01*
X109000000Y-99904761D01*
X101523809Y-101871428D02*
X101523809Y-103204761D01*
X101523809Y-102061904D02*
X101619047Y-101966666D01*
X101809523Y-101871428D01*
X102095238Y-101871428D01*
X102285714Y-101966666D01*
X102380952Y-102157142D01*
X102380952Y-103204761D01*
X103333333Y-103204761D02*
X103333333Y-101204761D01*
X104095238Y-101204761D01*
X104285714Y-101300000D01*
X104380952Y-101395238D01*
X104476190Y-101585714D01*
X104476190Y-101871428D01*
X104380952Y-102061904D01*
X104285714Y-102157142D01*
X104095238Y-102252380D01*
X103333333Y-102252380D01*
X105238095Y-103109523D02*
X105523809Y-103204761D01*
X106000000Y-103204761D01*
X106190476Y-103109523D01*
X106285714Y-103014285D01*
X106380952Y-102823809D01*
X106380952Y-102633333D01*
X106285714Y-102442857D01*
X106190476Y-102347619D01*
X106000000Y-102252380D01*
X105619047Y-102157142D01*
X105428571Y-102061904D01*
X105333333Y-101966666D01*
X105238095Y-101776190D01*
X105238095Y-101585714D01*
X105333333Y-101395238D01*
X105428571Y-101300000D01*
X105619047Y-101204761D01*
X106095238Y-101204761D01*
X106380952Y-101300000D01*
X107619047Y-101204761D02*
X108000000Y-101204761D01*
X108190476Y-101300000D01*
X108380952Y-101490476D01*
X108476190Y-101871428D01*
X108476190Y-102538095D01*
X108380952Y-102919047D01*
X108190476Y-103109523D01*
X108000000Y-103204761D01*
X107619047Y-103204761D01*
X107428571Y-103109523D01*
X107238095Y-102919047D01*
X107142857Y-102538095D01*
X107142857Y-101871428D01*
X107238095Y-101490476D01*
X107428571Y-101300000D01*
X107619047Y-101204761D01*
X109333333Y-103204761D02*
X109333333Y-101204761D01*
X110476190Y-103204761D01*
X110476190Y-101204761D01*
D12*
X148000000Y-132000000D02*
X148000000Y-121000000D01*
X101000000Y-132000000D02*
X148000000Y-132000000D01*
X101000000Y-121000000D02*
X101000000Y-132000000D01*
X101000000Y-121000000D02*
X101000000Y-112000000D01*
X148000000Y-121000000D02*
X101000000Y-121000000D01*
X148000000Y-112000000D02*
X148000000Y-121000000D01*
X101000000Y-112000000D02*
X148000000Y-112000000D01*
X183000000Y-78000000D02*
X186000000Y-77000000D01*
X183000000Y-76000000D02*
X183000000Y-78000000D01*
X186000000Y-77000000D02*
X183000000Y-76000000D01*
X174000000Y-77000000D02*
X186000000Y-77000000D01*
X174000000Y-82000000D02*
X174000000Y-77000000D01*
X154000000Y-115000000D02*
X161000000Y-115000000D01*
X154000000Y-109000000D02*
X154000000Y-115000000D01*
X181000000Y-106000000D02*
X186000000Y-106000000D01*
X185000000Y-89000000D02*
X186000000Y-88000000D01*
X185000000Y-87000000D02*
X185000000Y-89000000D01*
X186000000Y-88000000D02*
X185000000Y-87000000D01*
X183000000Y-88000000D02*
X186000000Y-88000000D01*
X187000000Y-98000000D02*
X187000000Y-110000000D01*
X186000000Y-98000000D02*
X187000000Y-98000000D01*
X186000000Y-75000000D02*
X186000000Y-98000000D01*
X187000000Y-108000000D02*
X186000000Y-110000000D01*
X185000000Y-108000000D02*
X187000000Y-108000000D01*
X186000000Y-110000000D02*
X185000000Y-108000000D01*
X186000000Y-99000000D02*
X186000000Y-110000000D01*
X174000000Y-99000000D02*
X186000000Y-99000000D01*
X177000000Y-110000000D02*
X199000000Y-110000000D01*
X189000000Y-133000000D02*
X198000000Y-133000000D01*
X164000000Y-116000000D02*
X166000000Y-115000000D01*
X164000000Y-114000000D02*
X164000000Y-116000000D01*
X166000000Y-115000000D02*
X164000000Y-114000000D01*
X161000000Y-115000000D02*
X166000000Y-115000000D01*
X161000000Y-110000000D02*
X161000000Y-115000000D01*
X177000000Y-110000000D02*
X166000000Y-110000000D01*
X177000000Y-122000000D02*
X177000000Y-110000000D01*
X187000000Y-122000000D02*
X177000000Y-122000000D01*
X187000000Y-133000000D02*
X187000000Y-122000000D01*
X166000000Y-133000000D02*
X187000000Y-133000000D01*
X166000000Y-110000000D02*
X166000000Y-133000000D01*
D13*
X152000000Y-90000000D02*
X152000000Y-134000000D01*
X166000000Y-90000000D02*
X152000000Y-90000000D01*
X166000000Y-75000000D02*
X166000000Y-90000000D01*
X199000000Y-75000000D02*
X166000000Y-75000000D01*
X199000000Y-134000000D02*
X199000000Y-75000000D01*
X152000000Y-134000000D02*
X199000000Y-134000000D01*
D12*
X152000000Y-111000000D02*
X152000000Y-134000000D01*
D13*
X153714285Y-121214285D02*
X156000000Y-121214285D01*
X154857142Y-122357142D02*
X154857142Y-120071428D01*
X159000000Y-122357142D02*
X157285714Y-122357142D01*
X158142857Y-122357142D02*
X158142857Y-119357142D01*
X157857142Y-119785714D01*
X157571428Y-120071428D01*
X157285714Y-120214285D01*
X160142857Y-119642857D02*
X160285714Y-119500000D01*
X160571428Y-119357142D01*
X161285714Y-119357142D01*
X161571428Y-119500000D01*
X161714285Y-119642857D01*
X161857142Y-119928571D01*
X161857142Y-120214285D01*
X161714285Y-120642857D01*
X160000000Y-122357142D01*
X161857142Y-122357142D01*
X162714285Y-119357142D02*
X163714285Y-122357142D01*
X164714285Y-119357142D01*
D11*
X113714285Y-139500000D02*
X113428571Y-139357142D01*
X113000000Y-139357142D01*
X112571428Y-139500000D01*
X112285714Y-139785714D01*
X112142857Y-140071428D01*
X112000000Y-140642857D01*
X112000000Y-141071428D01*
X112142857Y-141642857D01*
X112285714Y-141928571D01*
X112571428Y-142214285D01*
X113000000Y-142357142D01*
X113285714Y-142357142D01*
X113714285Y-142214285D01*
X113857142Y-142071428D01*
X113857142Y-141071428D01*
X113285714Y-141071428D01*
X115142857Y-142357142D02*
X115142857Y-139357142D01*
X116857142Y-142357142D01*
X116857142Y-139357142D01*
X118285714Y-142357142D02*
X118285714Y-139357142D01*
X119000000Y-139357142D01*
X119428571Y-139500000D01*
X119714285Y-139785714D01*
X119857142Y-140071428D01*
X120000000Y-140642857D01*
X120000000Y-141071428D01*
X119857142Y-141642857D01*
X119714285Y-141928571D01*
X119428571Y-142214285D01*
X119000000Y-142357142D01*
X118285714Y-142357142D01*
X104619047Y-125904761D02*
X103666666Y-125904761D01*
X103571428Y-126857142D01*
X103666666Y-126761904D01*
X103857142Y-126666666D01*
X104333333Y-126666666D01*
X104523809Y-126761904D01*
X104619047Y-126857142D01*
X104714285Y-127047619D01*
X104714285Y-127523809D01*
X104619047Y-127714285D01*
X104523809Y-127809523D01*
X104333333Y-127904761D01*
X103857142Y-127904761D01*
X103666666Y-127809523D01*
X103571428Y-127714285D01*
X105285714Y-125904761D02*
X105952380Y-127904761D01*
X106619047Y-125904761D01*
X102523809Y-115904761D02*
X103761904Y-115904761D01*
X103095238Y-116666666D01*
X103380952Y-116666666D01*
X103571428Y-116761904D01*
X103666666Y-116857142D01*
X103761904Y-117047619D01*
X103761904Y-117523809D01*
X103666666Y-117714285D01*
X103571428Y-117809523D01*
X103380952Y-117904761D01*
X102809523Y-117904761D01*
X102619047Y-117809523D01*
X102523809Y-117714285D01*
X104333333Y-115904761D02*
X105000000Y-117904761D01*
X105666666Y-115904761D01*
X106142857Y-115904761D02*
X107380952Y-115904761D01*
X106714285Y-116666666D01*
X107000000Y-116666666D01*
X107190476Y-116761904D01*
X107285714Y-116857142D01*
X107380952Y-117047619D01*
X107380952Y-117523809D01*
X107285714Y-117714285D01*
X107190476Y-117809523D01*
X107000000Y-117904761D01*
X106428571Y-117904761D01*
X106238095Y-117809523D01*
X106142857Y-117714285D01*
D12*
%TO.C,J1*%
X113175001Y-78175001D02*
X113175001Y-81025001D01*
X116025001Y-78175001D02*
X113175001Y-78175001D01*
X141135001Y-89635001D02*
X139325001Y-89635001D01*
X141135001Y-88235001D02*
X141135001Y-89635001D01*
X165235001Y-88235001D02*
X141135001Y-88235001D01*
X165235001Y-78415001D02*
X165235001Y-88235001D01*
X139325001Y-78415001D02*
X165235001Y-78415001D01*
X137515001Y-89635001D02*
X139325001Y-89635001D01*
X137515001Y-88235001D02*
X137515001Y-89635001D01*
X113415001Y-88235001D02*
X137515001Y-88235001D01*
X113415001Y-78415001D02*
X113415001Y-88235001D01*
X139325001Y-78415001D02*
X113415001Y-78415001D01*
X167125001Y-87575001D02*
X165235001Y-87575001D01*
X167125001Y-84055001D02*
X165235001Y-84055001D01*
X111525001Y-87575001D02*
X113415001Y-87575001D01*
X111525001Y-84055001D02*
X113415001Y-84055001D01*
X111525001Y-84055001D02*
G75*
G03*
X111525001Y-87575001I0J-1760000D01*
G01*
X167125001Y-87575001D02*
G75*
G03*
X167125001Y-84055001I0J1760000D01*
G01*
%TO.C,EPS1*%
X112950000Y-62900000D02*
X112950000Y-65750000D01*
X115800000Y-62900000D02*
X112950000Y-62900000D01*
X124110000Y-74360000D02*
X122300000Y-74360000D01*
X124110000Y-72960000D02*
X124110000Y-74360000D01*
X131410000Y-72960000D02*
X124110000Y-72960000D01*
X131410000Y-63140000D02*
X131410000Y-72960000D01*
X122300000Y-63140000D02*
X131410000Y-63140000D01*
X120490000Y-74360000D02*
X122300000Y-74360000D01*
X120490000Y-72960000D02*
X120490000Y-74360000D01*
X113190000Y-72960000D02*
X120490000Y-72960000D01*
X113190000Y-63140000D02*
X113190000Y-72960000D01*
X122300000Y-63140000D02*
X113190000Y-63140000D01*
%TO.C,EPS2*%
X143800000Y-63140000D02*
X134690000Y-63140000D01*
X134690000Y-63140000D02*
X134690000Y-72960000D01*
X134690000Y-72960000D02*
X141990000Y-72960000D01*
X141990000Y-72960000D02*
X141990000Y-74360000D01*
X141990000Y-74360000D02*
X143800000Y-74360000D01*
X143800000Y-63140000D02*
X152910000Y-63140000D01*
X152910000Y-63140000D02*
X152910000Y-72960000D01*
X152910000Y-72960000D02*
X145610000Y-72960000D01*
X145610000Y-72960000D02*
X145610000Y-74360000D01*
X145610000Y-74360000D02*
X143800000Y-74360000D01*
X137300000Y-62900000D02*
X134450000Y-62900000D01*
X134450000Y-62900000D02*
X134450000Y-65750000D01*
%TO.C,J2*%
X142000000Y-138000000D02*
X142000000Y-146000000D01*
X150000000Y-138000000D02*
X150000000Y-146000000D01*
%TO.C,J3*%
X122000000Y-146000000D02*
X122000000Y-138000000D01*
X130000000Y-146000000D02*
X130000000Y-138000000D01*
%TO.C,J4*%
X173000000Y-138000000D02*
X173000000Y-146000000D01*
X181000000Y-138000000D02*
X181000000Y-146000000D01*
%TO.C,J5*%
X189000000Y-120000000D02*
X189000000Y-112000000D01*
X197000000Y-120000000D02*
X197000000Y-112000000D01*
%TO.C,J6*%
X178000000Y-112000000D02*
X178000000Y-120000000D01*
X186000000Y-112000000D02*
X186000000Y-120000000D01*
%TO.C,J7*%
X197000000Y-124000000D02*
X197000000Y-132000000D01*
X189000000Y-124000000D02*
X189000000Y-132000000D01*
%TO.C,J8*%
X175000000Y-132000000D02*
X175000000Y-124000000D01*
X167000000Y-132000000D02*
X167000000Y-124000000D01*
%TO.C,J9*%
X167000000Y-120000000D02*
X167000000Y-112000000D01*
X175000000Y-120000000D02*
X175000000Y-112000000D01*
%TO.C,J10*%
X186000000Y-132000000D02*
X186000000Y-124000000D01*
X178000000Y-132000000D02*
X178000000Y-124000000D01*
%TO.C,J11*%
X197000000Y-96000000D02*
X189000000Y-96000000D01*
X197000000Y-88000000D02*
X189000000Y-88000000D01*
%TO.C,J12*%
X189000000Y-107000000D02*
X197000000Y-107000000D01*
X189000000Y-99000000D02*
X197000000Y-99000000D01*
%TO.C,J13*%
X189000000Y-77000000D02*
X197000000Y-77000000D01*
X189000000Y-85000000D02*
X197000000Y-85000000D01*
%TO.C,J14*%
X117180000Y-99500000D02*
G75*
G03*
X117180000Y-99500000I-1680000J0D01*
G01*
X117180000Y-96000000D02*
G75*
G03*
X117180000Y-96000000I-1680000J0D01*
G01*
X119600000Y-104810000D02*
X119600000Y-94190000D01*
X118500000Y-104810000D02*
X118500000Y-94190000D01*
X112340000Y-104810000D02*
X112340000Y-94190000D01*
X120060000Y-104810000D02*
X120060000Y-94190000D01*
X112340000Y-104810000D02*
X120060000Y-104810000D01*
X112340000Y-94190000D02*
X120060000Y-94190000D01*
X114431000Y-98225000D02*
X114559000Y-98354000D01*
X116681000Y-100475000D02*
X116774000Y-100569000D01*
X114225000Y-98430000D02*
X114319000Y-98524000D01*
X116441000Y-100645000D02*
X116569000Y-100774000D01*
X114431000Y-94725000D02*
X114559000Y-94854000D01*
X116681000Y-96975000D02*
X116774000Y-97069000D01*
X114225000Y-94930000D02*
X114319000Y-95024000D01*
X116441000Y-97145000D02*
X116569000Y-97274000D01*
X119660000Y-105050000D02*
X120300000Y-105050000D01*
X120300000Y-105050000D02*
X120300000Y-104650000D01*
X116924721Y-102109736D02*
G75*
G02*
X117180000Y-103000000I-1424721J-890264D01*
G01*
X114609807Y-101574495D02*
G75*
G02*
X116391000Y-101575000I890193J-1425505D01*
G01*
X114074642Y-103889894D02*
G75*
G02*
X114060000Y-102134000I1425358J889894D01*
G01*
X116389894Y-104425358D02*
G75*
G02*
X114634000Y-104440000I-889894J1425358D01*
G01*
X117180099Y-102971326D02*
G75*
G02*
X116940000Y-103866000I-1680099J-28674D01*
G01*
%TO.C,J15*%
X119000000Y-123000000D02*
X111000000Y-123000000D01*
X119000000Y-131000000D02*
X111000000Y-131000000D01*
%TO.C,J16*%
X119000000Y-121000000D02*
X111000000Y-121000000D01*
X119000000Y-113000000D02*
X111000000Y-113000000D01*
%TO.C,PCIE1*%
X187050000Y-74600000D02*
X187050000Y-71750000D01*
X184200000Y-74600000D02*
X187050000Y-74600000D01*
X177990000Y-63140000D02*
X179800000Y-63140000D01*
X177990000Y-64540000D02*
X177990000Y-63140000D01*
X172790000Y-64540000D02*
X177990000Y-64540000D01*
X172790000Y-74360000D02*
X172790000Y-64540000D01*
X179800000Y-74360000D02*
X172790000Y-74360000D01*
X181610000Y-63140000D02*
X179800000Y-63140000D01*
X181610000Y-64540000D02*
X181610000Y-63140000D01*
X186810000Y-64540000D02*
X181610000Y-64540000D01*
X186810000Y-74360000D02*
X186810000Y-64540000D01*
X179800000Y-74360000D02*
X186810000Y-74360000D01*
%TO.C,PCIE2*%
X162800000Y-74360000D02*
X169810000Y-74360000D01*
X169810000Y-74360000D02*
X169810000Y-64540000D01*
X169810000Y-64540000D02*
X164610000Y-64540000D01*
X164610000Y-64540000D02*
X164610000Y-63140000D01*
X164610000Y-63140000D02*
X162800000Y-63140000D01*
X162800000Y-74360000D02*
X155790000Y-74360000D01*
X155790000Y-74360000D02*
X155790000Y-64540000D01*
X155790000Y-64540000D02*
X160990000Y-64540000D01*
X160990000Y-64540000D02*
X160990000Y-63140000D01*
X160990000Y-63140000D02*
X162800000Y-63140000D01*
X167200000Y-74600000D02*
X170050000Y-74600000D01*
X170050000Y-74600000D02*
X170050000Y-71750000D01*
%TO.C,J17*%
X132000000Y-138000000D02*
X132000000Y-146000000D01*
X140000000Y-138000000D02*
X140000000Y-146000000D01*
%TO.C,J18*%
X161000000Y-138000000D02*
X161000000Y-146000000D01*
X153000000Y-138000000D02*
X153000000Y-146000000D01*
%TO.C,J19*%
X163000000Y-138000000D02*
X163000000Y-146000000D01*
X171000000Y-138000000D02*
X171000000Y-146000000D01*
%TO.C,D1*%
X146290000Y-125920000D02*
X146290000Y-125764000D01*
X146290000Y-128236000D02*
X146290000Y-128080000D01*
X143688870Y-125920163D02*
G75*
G02*
X145770961Y-125920000I1041130J-1079837D01*
G01*
X143688870Y-128079837D02*
G75*
G03*
X145770961Y-128080000I1041130J1079837D01*
G01*
X143057665Y-125921392D02*
G75*
G02*
X146290000Y-125764484I1672335J-1078608D01*
G01*
X143057665Y-128078608D02*
G75*
G03*
X146290000Y-128235516I1672335J1078608D01*
G01*
%TO.C,D2*%
X146290000Y-118236000D02*
X146290000Y-118080000D01*
X146290000Y-115920000D02*
X146290000Y-115764000D01*
X143057665Y-118078608D02*
G75*
G03*
X146290000Y-118235516I1672335J1078608D01*
G01*
X143057665Y-115921392D02*
G75*
G02*
X146290000Y-115764484I1672335J-1078608D01*
G01*
X143688870Y-118079837D02*
G75*
G03*
X145770961Y-118080000I1041130J1079837D01*
G01*
X143688870Y-115920163D02*
G75*
G02*
X145770961Y-115920000I1041130J-1079837D01*
G01*
%TO.C,D3*%
X177710000Y-108080000D02*
X177710000Y-108236000D01*
X177710000Y-105764000D02*
X177710000Y-105920000D01*
X180311130Y-108079837D02*
G75*
G02*
X178229039Y-108080000I-1041130J1079837D01*
G01*
X180311130Y-105920163D02*
G75*
G03*
X178229039Y-105920000I-1041130J-1079837D01*
G01*
X180942335Y-108078608D02*
G75*
G02*
X177710000Y-108235516I-1672335J1078608D01*
G01*
X180942335Y-105921392D02*
G75*
G03*
X177710000Y-105764484I-1672335J-1078608D01*
G01*
%TO.C,D4*%
X175236000Y-82710000D02*
X175080000Y-82710000D01*
X172920000Y-82710000D02*
X172764000Y-82710000D01*
X175078608Y-85942335D02*
G75*
G03*
X175235516Y-82710000I-1078608J1672335D01*
G01*
X172921392Y-85942335D02*
G75*
G02*
X172764484Y-82710000I1078608J1672335D01*
G01*
X175079837Y-85311130D02*
G75*
G03*
X175080000Y-83229039I-1079837J1041130D01*
G01*
X172920163Y-85311130D02*
G75*
G02*
X172920000Y-83229039I1079837J1041130D01*
G01*
%TO.C,D5*%
X151710000Y-105764000D02*
X151710000Y-105920000D01*
X151710000Y-108080000D02*
X151710000Y-108236000D01*
X154942335Y-105921392D02*
G75*
G03*
X151710000Y-105764484I-1672335J-1078608D01*
G01*
X154942335Y-108078608D02*
G75*
G02*
X151710000Y-108235516I-1672335J1078608D01*
G01*
X154311130Y-105920163D02*
G75*
G03*
X152229039Y-105920000I-1041130J-1079837D01*
G01*
X154311130Y-108079837D02*
G75*
G02*
X152229039Y-108080000I-1041130J1079837D01*
G01*
%TO.C,D6*%
X135290000Y-104920000D02*
X135290000Y-104764000D01*
X135290000Y-107236000D02*
X135290000Y-107080000D01*
X132688870Y-104920163D02*
G75*
G02*
X134770961Y-104920000I1041130J-1079837D01*
G01*
X132688870Y-107079837D02*
G75*
G03*
X134770961Y-107080000I1041130J1079837D01*
G01*
X132057665Y-104921392D02*
G75*
G02*
X135290000Y-104764484I1672335J-1078608D01*
G01*
X132057665Y-107078608D02*
G75*
G03*
X135290000Y-107235516I1672335J1078608D01*
G01*
%TO.C,R1*%
X149080000Y-122620000D02*
X149080000Y-126460000D01*
X150920000Y-122620000D02*
X150920000Y-126460000D01*
%TO.C,R2*%
X150920000Y-113620000D02*
X150920000Y-117460000D01*
X149080000Y-113620000D02*
X149080000Y-117460000D01*
%TO.C,R3*%
X182380000Y-102920000D02*
X178540000Y-102920000D01*
X182380000Y-101080000D02*
X178540000Y-101080000D01*
%TO.C,R4*%
X170419000Y-80803000D02*
X174259000Y-80803000D01*
X170419000Y-78963000D02*
X174259000Y-78963000D01*
%TO.C,R5*%
X151080000Y-96620000D02*
X151080000Y-100460000D01*
X152920000Y-96620000D02*
X152920000Y-100460000D01*
%TO.C,R6*%
X135920000Y-96620000D02*
X135920000Y-100460000D01*
X134080000Y-96620000D02*
X134080000Y-100460000D01*
%TO.C,J20*%
X112716000Y-109661000D02*
X112716000Y-108331000D01*
X114046000Y-109661000D02*
X112716000Y-109661000D01*
X115316000Y-109661000D02*
X115316000Y-107001000D01*
X115316000Y-107001000D02*
X117916000Y-107001000D01*
X115316000Y-109661000D02*
X117916000Y-109661000D01*
X117916000Y-109661000D02*
X117916000Y-107001000D01*
%TO.C,F4*%
D14*
X180428571Y-88333333D02*
X180428571Y-88666666D01*
X180952380Y-88666666D02*
X179952380Y-88666666D01*
X179952380Y-88190476D01*
X180285714Y-87380952D02*
X180952380Y-87380952D01*
X179904761Y-87619047D02*
X180619047Y-87857142D01*
X180619047Y-87238095D01*
%TO.C,F2*%
X171428571Y-99333333D02*
X171428571Y-99666666D01*
X171952380Y-99666666D02*
X170952380Y-99666666D01*
X170952380Y-99190476D01*
X171047619Y-98857142D02*
X171000000Y-98809523D01*
X170952380Y-98714285D01*
X170952380Y-98476190D01*
X171000000Y-98380952D01*
X171047619Y-98333333D01*
X171142857Y-98285714D01*
X171238095Y-98285714D01*
X171380952Y-98333333D01*
X171952380Y-98904761D01*
X171952380Y-98285714D01*
%TO.C,F3*%
X160428571Y-100333333D02*
X160428571Y-100666666D01*
X160952380Y-100666666D02*
X159952380Y-100666666D01*
X159952380Y-100190476D01*
X159952380Y-99904761D02*
X159952380Y-99285714D01*
X160333333Y-99619047D01*
X160333333Y-99476190D01*
X160380952Y-99380952D01*
X160428571Y-99333333D01*
X160523809Y-99285714D01*
X160761904Y-99285714D01*
X160857142Y-99333333D01*
X160904761Y-99380952D01*
X160952380Y-99476190D01*
X160952380Y-99761904D01*
X160904761Y-99857142D01*
X160857142Y-99904761D01*
%TO.C,F5*%
X125428571Y-100333333D02*
X125428571Y-100666666D01*
X125952380Y-100666666D02*
X124952380Y-100666666D01*
X124952380Y-100190476D01*
X124952380Y-99333333D02*
X124952380Y-99809523D01*
X125428571Y-99857142D01*
X125380952Y-99809523D01*
X125333333Y-99714285D01*
X125333333Y-99476190D01*
X125380952Y-99380952D01*
X125428571Y-99333333D01*
X125523809Y-99285714D01*
X125761904Y-99285714D01*
X125857142Y-99333333D01*
X125904761Y-99380952D01*
X125952380Y-99476190D01*
X125952380Y-99714285D01*
X125904761Y-99809523D01*
X125857142Y-99857142D01*
%TO.C,F6*%
X130666666Y-125428571D02*
X130333333Y-125428571D01*
X130333333Y-125952380D02*
X130333333Y-124952380D01*
X130809523Y-124952380D01*
X131619047Y-124952380D02*
X131428571Y-124952380D01*
X131333333Y-125000000D01*
X131285714Y-125047619D01*
X131190476Y-125190476D01*
X131142857Y-125380952D01*
X131142857Y-125761904D01*
X131190476Y-125857142D01*
X131238095Y-125904761D01*
X131333333Y-125952380D01*
X131523809Y-125952380D01*
X131619047Y-125904761D01*
X131666666Y-125857142D01*
X131714285Y-125761904D01*
X131714285Y-125523809D01*
X131666666Y-125428571D01*
X131619047Y-125380952D01*
X131523809Y-125333333D01*
X131333333Y-125333333D01*
X131238095Y-125380952D01*
X131190476Y-125428571D01*
X131142857Y-125523809D01*
%TO.C,F7*%
X130666666Y-116428571D02*
X130333333Y-116428571D01*
X130333333Y-116952380D02*
X130333333Y-115952380D01*
X130809523Y-115952380D01*
X131095238Y-115952380D02*
X131761904Y-115952380D01*
X131333333Y-116952380D01*
%TO.C,J1*%
X138991667Y-76777381D02*
X138991667Y-77491667D01*
X138944048Y-77634524D01*
X138848810Y-77729762D01*
X138705953Y-77777381D01*
X138610715Y-77777381D01*
X139991667Y-77777381D02*
X139420239Y-77777381D01*
X139705953Y-77777381D02*
X139705953Y-76777381D01*
X139610715Y-76920239D01*
X139515477Y-77015477D01*
X139420239Y-77063096D01*
%TO.C,EPS1*%
D13*
X117300000Y-58785714D02*
X118300000Y-58785714D01*
X118728571Y-60357142D02*
X117300000Y-60357142D01*
X117300000Y-57357142D01*
X118728571Y-57357142D01*
X120014285Y-60357142D02*
X120014285Y-57357142D01*
X121157142Y-57357142D01*
X121442857Y-57500000D01*
X121585714Y-57642857D01*
X121728571Y-57928571D01*
X121728571Y-58357142D01*
X121585714Y-58642857D01*
X121442857Y-58785714D01*
X121157142Y-58928571D01*
X120014285Y-58928571D01*
X122871428Y-60214285D02*
X123300000Y-60357142D01*
X124014285Y-60357142D01*
X124300000Y-60214285D01*
X124442857Y-60071428D01*
X124585714Y-59785714D01*
X124585714Y-59500000D01*
X124442857Y-59214285D01*
X124300000Y-59071428D01*
X124014285Y-58928571D01*
X123442857Y-58785714D01*
X123157142Y-58642857D01*
X123014285Y-58500000D01*
X122871428Y-58214285D01*
X122871428Y-57928571D01*
X123014285Y-57642857D01*
X123157142Y-57500000D01*
X123442857Y-57357142D01*
X124157142Y-57357142D01*
X124585714Y-57500000D01*
X127442857Y-60357142D02*
X125728571Y-60357142D01*
X126585714Y-60357142D02*
X126585714Y-57357142D01*
X126300000Y-57785714D01*
X126014285Y-58071428D01*
X125728571Y-58214285D01*
%TO.C,EPS2*%
X138800000Y-58785714D02*
X139800000Y-58785714D01*
X140228571Y-60357142D02*
X138800000Y-60357142D01*
X138800000Y-57357142D01*
X140228571Y-57357142D01*
X141514285Y-60357142D02*
X141514285Y-57357142D01*
X142657142Y-57357142D01*
X142942857Y-57500000D01*
X143085714Y-57642857D01*
X143228571Y-57928571D01*
X143228571Y-58357142D01*
X143085714Y-58642857D01*
X142942857Y-58785714D01*
X142657142Y-58928571D01*
X141514285Y-58928571D01*
X144371428Y-60214285D02*
X144800000Y-60357142D01*
X145514285Y-60357142D01*
X145800000Y-60214285D01*
X145942857Y-60071428D01*
X146085714Y-59785714D01*
X146085714Y-59500000D01*
X145942857Y-59214285D01*
X145800000Y-59071428D01*
X145514285Y-58928571D01*
X144942857Y-58785714D01*
X144657142Y-58642857D01*
X144514285Y-58500000D01*
X144371428Y-58214285D01*
X144371428Y-57928571D01*
X144514285Y-57642857D01*
X144657142Y-57500000D01*
X144942857Y-57357142D01*
X145657142Y-57357142D01*
X146085714Y-57500000D01*
X147228571Y-57642857D02*
X147371428Y-57500000D01*
X147657142Y-57357142D01*
X148371428Y-57357142D01*
X148657142Y-57500000D01*
X148800000Y-57642857D01*
X148942857Y-57928571D01*
X148942857Y-58214285D01*
X148800000Y-58642857D01*
X147085714Y-60357142D01*
X148942857Y-60357142D01*
%TO.C,J2*%
D14*
X145666666Y-141952380D02*
X145666666Y-142666666D01*
X145619047Y-142809523D01*
X145523809Y-142904761D01*
X145380952Y-142952380D01*
X145285714Y-142952380D01*
X146095238Y-142047619D02*
X146142857Y-142000000D01*
X146238095Y-141952380D01*
X146476190Y-141952380D01*
X146571428Y-142000000D01*
X146619047Y-142047619D01*
X146666666Y-142142857D01*
X146666666Y-142238095D01*
X146619047Y-142380952D01*
X146047619Y-142952380D01*
X146666666Y-142952380D01*
%TO.C,J3*%
X125666666Y-140952380D02*
X125666666Y-141666666D01*
X125619047Y-141809523D01*
X125523809Y-141904761D01*
X125380952Y-141952380D01*
X125285714Y-141952380D01*
X126047619Y-140952380D02*
X126666666Y-140952380D01*
X126333333Y-141333333D01*
X126476190Y-141333333D01*
X126571428Y-141380952D01*
X126619047Y-141428571D01*
X126666666Y-141523809D01*
X126666666Y-141761904D01*
X126619047Y-141857142D01*
X126571428Y-141904761D01*
X126476190Y-141952380D01*
X126190476Y-141952380D01*
X126095238Y-141904761D01*
X126047619Y-141857142D01*
%TO.C,J4*%
X176666666Y-141952380D02*
X176666666Y-142666666D01*
X176619047Y-142809523D01*
X176523809Y-142904761D01*
X176380952Y-142952380D01*
X176285714Y-142952380D01*
X177571428Y-142285714D02*
X177571428Y-142952380D01*
X177333333Y-141904761D02*
X177095238Y-142619047D01*
X177714285Y-142619047D01*
%TO.C,J5*%
X192666666Y-114952380D02*
X192666666Y-115666666D01*
X192619047Y-115809523D01*
X192523809Y-115904761D01*
X192380952Y-115952380D01*
X192285714Y-115952380D01*
X193619047Y-114952380D02*
X193142857Y-114952380D01*
X193095238Y-115428571D01*
X193142857Y-115380952D01*
X193238095Y-115333333D01*
X193476190Y-115333333D01*
X193571428Y-115380952D01*
X193619047Y-115428571D01*
X193666666Y-115523809D01*
X193666666Y-115761904D01*
X193619047Y-115857142D01*
X193571428Y-115904761D01*
X193476190Y-115952380D01*
X193238095Y-115952380D01*
X193142857Y-115904761D01*
X193095238Y-115857142D01*
%TO.C,J6*%
X181666666Y-115952380D02*
X181666666Y-116666666D01*
X181619047Y-116809523D01*
X181523809Y-116904761D01*
X181380952Y-116952380D01*
X181285714Y-116952380D01*
X182571428Y-115952380D02*
X182380952Y-115952380D01*
X182285714Y-116000000D01*
X182238095Y-116047619D01*
X182142857Y-116190476D01*
X182095238Y-116380952D01*
X182095238Y-116761904D01*
X182142857Y-116857142D01*
X182190476Y-116904761D01*
X182285714Y-116952380D01*
X182476190Y-116952380D01*
X182571428Y-116904761D01*
X182619047Y-116857142D01*
X182666666Y-116761904D01*
X182666666Y-116523809D01*
X182619047Y-116428571D01*
X182571428Y-116380952D01*
X182476190Y-116333333D01*
X182285714Y-116333333D01*
X182190476Y-116380952D01*
X182142857Y-116428571D01*
X182095238Y-116523809D01*
%TO.C,J7*%
X192666666Y-127952380D02*
X192666666Y-128666666D01*
X192619047Y-128809523D01*
X192523809Y-128904761D01*
X192380952Y-128952380D01*
X192285714Y-128952380D01*
X193047619Y-127952380D02*
X193714285Y-127952380D01*
X193285714Y-128952380D01*
%TO.C,J8*%
X170666666Y-126952380D02*
X170666666Y-127666666D01*
X170619047Y-127809523D01*
X170523809Y-127904761D01*
X170380952Y-127952380D01*
X170285714Y-127952380D01*
X171285714Y-127380952D02*
X171190476Y-127333333D01*
X171142857Y-127285714D01*
X171095238Y-127190476D01*
X171095238Y-127142857D01*
X171142857Y-127047619D01*
X171190476Y-127000000D01*
X171285714Y-126952380D01*
X171476190Y-126952380D01*
X171571428Y-127000000D01*
X171619047Y-127047619D01*
X171666666Y-127142857D01*
X171666666Y-127190476D01*
X171619047Y-127285714D01*
X171571428Y-127333333D01*
X171476190Y-127380952D01*
X171285714Y-127380952D01*
X171190476Y-127428571D01*
X171142857Y-127476190D01*
X171095238Y-127571428D01*
X171095238Y-127761904D01*
X171142857Y-127857142D01*
X171190476Y-127904761D01*
X171285714Y-127952380D01*
X171476190Y-127952380D01*
X171571428Y-127904761D01*
X171619047Y-127857142D01*
X171666666Y-127761904D01*
X171666666Y-127571428D01*
X171619047Y-127476190D01*
X171571428Y-127428571D01*
X171476190Y-127380952D01*
%TO.C,J9*%
X170666666Y-114952380D02*
X170666666Y-115666666D01*
X170619047Y-115809523D01*
X170523809Y-115904761D01*
X170380952Y-115952380D01*
X170285714Y-115952380D01*
X171190476Y-115952380D02*
X171380952Y-115952380D01*
X171476190Y-115904761D01*
X171523809Y-115857142D01*
X171619047Y-115714285D01*
X171666666Y-115523809D01*
X171666666Y-115142857D01*
X171619047Y-115047619D01*
X171571428Y-115000000D01*
X171476190Y-114952380D01*
X171285714Y-114952380D01*
X171190476Y-115000000D01*
X171142857Y-115047619D01*
X171095238Y-115142857D01*
X171095238Y-115380952D01*
X171142857Y-115476190D01*
X171190476Y-115523809D01*
X171285714Y-115571428D01*
X171476190Y-115571428D01*
X171571428Y-115523809D01*
X171619047Y-115476190D01*
X171666666Y-115380952D01*
%TO.C,J10*%
X181190476Y-126952380D02*
X181190476Y-127666666D01*
X181142857Y-127809523D01*
X181047619Y-127904761D01*
X180904761Y-127952380D01*
X180809523Y-127952380D01*
X182190476Y-127952380D02*
X181619047Y-127952380D01*
X181904761Y-127952380D02*
X181904761Y-126952380D01*
X181809523Y-127095238D01*
X181714285Y-127190476D01*
X181619047Y-127238095D01*
X182809523Y-126952380D02*
X182904761Y-126952380D01*
X183000000Y-127000000D01*
X183047619Y-127047619D01*
X183095238Y-127142857D01*
X183142857Y-127333333D01*
X183142857Y-127571428D01*
X183095238Y-127761904D01*
X183047619Y-127857142D01*
X183000000Y-127904761D01*
X182904761Y-127952380D01*
X182809523Y-127952380D01*
X182714285Y-127904761D01*
X182666666Y-127857142D01*
X182619047Y-127761904D01*
X182571428Y-127571428D01*
X182571428Y-127333333D01*
X182619047Y-127142857D01*
X182666666Y-127047619D01*
X182714285Y-127000000D01*
X182809523Y-126952380D01*
%TO.C,J11*%
X191952380Y-92809523D02*
X192666666Y-92809523D01*
X192809523Y-92857142D01*
X192904761Y-92952380D01*
X192952380Y-93095238D01*
X192952380Y-93190476D01*
X192952380Y-91809523D02*
X192952380Y-92380952D01*
X192952380Y-92095238D02*
X191952380Y-92095238D01*
X192095238Y-92190476D01*
X192190476Y-92285714D01*
X192238095Y-92380952D01*
X192952380Y-90857142D02*
X192952380Y-91428571D01*
X192952380Y-91142857D02*
X191952380Y-91142857D01*
X192095238Y-91238095D01*
X192190476Y-91333333D01*
X192238095Y-91428571D01*
%TO.C,J12*%
X192952380Y-103809523D02*
X193666666Y-103809523D01*
X193809523Y-103857142D01*
X193904761Y-103952380D01*
X193952380Y-104095238D01*
X193952380Y-104190476D01*
X193952380Y-102809523D02*
X193952380Y-103380952D01*
X193952380Y-103095238D02*
X192952380Y-103095238D01*
X193095238Y-103190476D01*
X193190476Y-103285714D01*
X193238095Y-103380952D01*
X193047619Y-102428571D02*
X193000000Y-102380952D01*
X192952380Y-102285714D01*
X192952380Y-102047619D01*
X193000000Y-101952380D01*
X193047619Y-101904761D01*
X193142857Y-101857142D01*
X193238095Y-101857142D01*
X193380952Y-101904761D01*
X193952380Y-102476190D01*
X193952380Y-101857142D01*
%TO.C,J13*%
X192952380Y-81809523D02*
X193666666Y-81809523D01*
X193809523Y-81857142D01*
X193904761Y-81952380D01*
X193952380Y-82095238D01*
X193952380Y-82190476D01*
X193952380Y-80809523D02*
X193952380Y-81380952D01*
X193952380Y-81095238D02*
X192952380Y-81095238D01*
X193095238Y-81190476D01*
X193190476Y-81285714D01*
X193238095Y-81380952D01*
X192952380Y-80476190D02*
X192952380Y-79857142D01*
X193333333Y-80190476D01*
X193333333Y-80047619D01*
X193380952Y-79952380D01*
X193428571Y-79904761D01*
X193523809Y-79857142D01*
X193761904Y-79857142D01*
X193857142Y-79904761D01*
X193904761Y-79952380D01*
X193952380Y-80047619D01*
X193952380Y-80333333D01*
X193904761Y-80428571D01*
X193857142Y-80476190D01*
%TO.C,J14*%
X110792380Y-100309523D02*
X111506666Y-100309523D01*
X111649523Y-100357142D01*
X111744761Y-100452380D01*
X111792380Y-100595238D01*
X111792380Y-100690476D01*
X111792380Y-99309523D02*
X111792380Y-99880952D01*
X111792380Y-99595238D02*
X110792380Y-99595238D01*
X110935238Y-99690476D01*
X111030476Y-99785714D01*
X111078095Y-99880952D01*
X111125714Y-98452380D02*
X111792380Y-98452380D01*
X110744761Y-98690476D02*
X111459047Y-98928571D01*
X111459047Y-98309523D01*
%TO.C,J15*%
X113952380Y-127809523D02*
X114666666Y-127809523D01*
X114809523Y-127857142D01*
X114904761Y-127952380D01*
X114952380Y-128095238D01*
X114952380Y-128190476D01*
X114952380Y-126809523D02*
X114952380Y-127380952D01*
X114952380Y-127095238D02*
X113952380Y-127095238D01*
X114095238Y-127190476D01*
X114190476Y-127285714D01*
X114238095Y-127380952D01*
X113952380Y-125904761D02*
X113952380Y-126380952D01*
X114428571Y-126428571D01*
X114380952Y-126380952D01*
X114333333Y-126285714D01*
X114333333Y-126047619D01*
X114380952Y-125952380D01*
X114428571Y-125904761D01*
X114523809Y-125857142D01*
X114761904Y-125857142D01*
X114857142Y-125904761D01*
X114904761Y-125952380D01*
X114952380Y-126047619D01*
X114952380Y-126285714D01*
X114904761Y-126380952D01*
X114857142Y-126428571D01*
%TO.C,J16*%
X113952380Y-117809523D02*
X114666666Y-117809523D01*
X114809523Y-117857142D01*
X114904761Y-117952380D01*
X114952380Y-118095238D01*
X114952380Y-118190476D01*
X114952380Y-116809523D02*
X114952380Y-117380952D01*
X114952380Y-117095238D02*
X113952380Y-117095238D01*
X114095238Y-117190476D01*
X114190476Y-117285714D01*
X114238095Y-117380952D01*
X113952380Y-115952380D02*
X113952380Y-116142857D01*
X114000000Y-116238095D01*
X114047619Y-116285714D01*
X114190476Y-116380952D01*
X114380952Y-116428571D01*
X114761904Y-116428571D01*
X114857142Y-116380952D01*
X114904761Y-116333333D01*
X114952380Y-116238095D01*
X114952380Y-116047619D01*
X114904761Y-115952380D01*
X114857142Y-115904761D01*
X114761904Y-115857142D01*
X114523809Y-115857142D01*
X114428571Y-115904761D01*
X114380952Y-115952380D01*
X114333333Y-116047619D01*
X114333333Y-116238095D01*
X114380952Y-116333333D01*
X114428571Y-116380952D01*
X114523809Y-116428571D01*
%TO.C,PCIE1*%
D13*
X176214285Y-61357142D02*
X176214285Y-58357142D01*
X177357142Y-58357142D01*
X177642857Y-58500000D01*
X177785714Y-58642857D01*
X177928571Y-58928571D01*
X177928571Y-59357142D01*
X177785714Y-59642857D01*
X177642857Y-59785714D01*
X177357142Y-59928571D01*
X176214285Y-59928571D01*
X180928571Y-61071428D02*
X180785714Y-61214285D01*
X180357142Y-61357142D01*
X180071428Y-61357142D01*
X179642857Y-61214285D01*
X179357142Y-60928571D01*
X179214285Y-60642857D01*
X179071428Y-60071428D01*
X179071428Y-59642857D01*
X179214285Y-59071428D01*
X179357142Y-58785714D01*
X179642857Y-58500000D01*
X180071428Y-58357142D01*
X180357142Y-58357142D01*
X180785714Y-58500000D01*
X180928571Y-58642857D01*
X182214285Y-61357142D02*
X182214285Y-58357142D01*
X183642857Y-59785714D02*
X184642857Y-59785714D01*
X185071428Y-61357142D02*
X183642857Y-61357142D01*
X183642857Y-58357142D01*
X185071428Y-58357142D01*
X187928571Y-61357142D02*
X186214285Y-61357142D01*
X187071428Y-61357142D02*
X187071428Y-58357142D01*
X186785714Y-58785714D01*
X186500000Y-59071428D01*
X186214285Y-59214285D01*
%TO.C,PCIE2*%
X161214285Y-62357142D02*
X161214285Y-59357142D01*
X162357142Y-59357142D01*
X162642857Y-59500000D01*
X162785714Y-59642857D01*
X162928571Y-59928571D01*
X162928571Y-60357142D01*
X162785714Y-60642857D01*
X162642857Y-60785714D01*
X162357142Y-60928571D01*
X161214285Y-60928571D01*
X165928571Y-62071428D02*
X165785714Y-62214285D01*
X165357142Y-62357142D01*
X165071428Y-62357142D01*
X164642857Y-62214285D01*
X164357142Y-61928571D01*
X164214285Y-61642857D01*
X164071428Y-61071428D01*
X164071428Y-60642857D01*
X164214285Y-60071428D01*
X164357142Y-59785714D01*
X164642857Y-59500000D01*
X165071428Y-59357142D01*
X165357142Y-59357142D01*
X165785714Y-59500000D01*
X165928571Y-59642857D01*
X167214285Y-62357142D02*
X167214285Y-59357142D01*
X168642857Y-60785714D02*
X169642857Y-60785714D01*
X170071428Y-62357142D02*
X168642857Y-62357142D01*
X168642857Y-59357142D01*
X170071428Y-59357142D01*
X171214285Y-59642857D02*
X171357142Y-59500000D01*
X171642857Y-59357142D01*
X172357142Y-59357142D01*
X172642857Y-59500000D01*
X172785714Y-59642857D01*
X172928571Y-59928571D01*
X172928571Y-60214285D01*
X172785714Y-60642857D01*
X171071428Y-62357142D01*
X172928571Y-62357142D01*
%TO.C,J17*%
D14*
X135190476Y-141952380D02*
X135190476Y-142666666D01*
X135142857Y-142809523D01*
X135047619Y-142904761D01*
X134904761Y-142952380D01*
X134809523Y-142952380D01*
X136190476Y-142952380D02*
X135619047Y-142952380D01*
X135904761Y-142952380D02*
X135904761Y-141952380D01*
X135809523Y-142095238D01*
X135714285Y-142190476D01*
X135619047Y-142238095D01*
X136523809Y-141952380D02*
X137190476Y-141952380D01*
X136761904Y-142952380D01*
%TO.C,J18*%
X156190476Y-141952380D02*
X156190476Y-142666666D01*
X156142857Y-142809523D01*
X156047619Y-142904761D01*
X155904761Y-142952380D01*
X155809523Y-142952380D01*
X157190476Y-142952380D02*
X156619047Y-142952380D01*
X156904761Y-142952380D02*
X156904761Y-141952380D01*
X156809523Y-142095238D01*
X156714285Y-142190476D01*
X156619047Y-142238095D01*
X157761904Y-142380952D02*
X157666666Y-142333333D01*
X157619047Y-142285714D01*
X157571428Y-142190476D01*
X157571428Y-142142857D01*
X157619047Y-142047619D01*
X157666666Y-142000000D01*
X157761904Y-141952380D01*
X157952380Y-141952380D01*
X158047619Y-142000000D01*
X158095238Y-142047619D01*
X158142857Y-142142857D01*
X158142857Y-142190476D01*
X158095238Y-142285714D01*
X158047619Y-142333333D01*
X157952380Y-142380952D01*
X157761904Y-142380952D01*
X157666666Y-142428571D01*
X157619047Y-142476190D01*
X157571428Y-142571428D01*
X157571428Y-142761904D01*
X157619047Y-142857142D01*
X157666666Y-142904761D01*
X157761904Y-142952380D01*
X157952380Y-142952380D01*
X158047619Y-142904761D01*
X158095238Y-142857142D01*
X158142857Y-142761904D01*
X158142857Y-142571428D01*
X158095238Y-142476190D01*
X158047619Y-142428571D01*
X157952380Y-142380952D01*
%TO.C,J19*%
X166190476Y-141952380D02*
X166190476Y-142666666D01*
X166142857Y-142809523D01*
X166047619Y-142904761D01*
X165904761Y-142952380D01*
X165809523Y-142952380D01*
X167190476Y-142952380D02*
X166619047Y-142952380D01*
X166904761Y-142952380D02*
X166904761Y-141952380D01*
X166809523Y-142095238D01*
X166714285Y-142190476D01*
X166619047Y-142238095D01*
X167666666Y-142952380D02*
X167857142Y-142952380D01*
X167952380Y-142904761D01*
X168000000Y-142857142D01*
X168095238Y-142714285D01*
X168142857Y-142523809D01*
X168142857Y-142142857D01*
X168095238Y-142047619D01*
X168047619Y-142000000D01*
X167952380Y-141952380D01*
X167761904Y-141952380D01*
X167666666Y-142000000D01*
X167619047Y-142047619D01*
X167571428Y-142142857D01*
X167571428Y-142380952D01*
X167619047Y-142476190D01*
X167666666Y-142523809D01*
X167761904Y-142571428D01*
X167952380Y-142571428D01*
X168047619Y-142523809D01*
X168095238Y-142476190D01*
X168142857Y-142380952D01*
%TO.C,H1*%
X107238095Y-58452380D02*
X107238095Y-57452380D01*
X107238095Y-57928571D02*
X107809523Y-57928571D01*
X107809523Y-58452380D02*
X107809523Y-57452380D01*
X108809523Y-58452380D02*
X108238095Y-58452380D01*
X108523809Y-58452380D02*
X108523809Y-57452380D01*
X108428571Y-57595238D01*
X108333333Y-57690476D01*
X108238095Y-57738095D01*
%TO.C,H2*%
X107238095Y-142452380D02*
X107238095Y-141452380D01*
X107238095Y-141928571D02*
X107809523Y-141928571D01*
X107809523Y-142452380D02*
X107809523Y-141452380D01*
X108238095Y-141547619D02*
X108285714Y-141500000D01*
X108380952Y-141452380D01*
X108619047Y-141452380D01*
X108714285Y-141500000D01*
X108761904Y-141547619D01*
X108809523Y-141642857D01*
X108809523Y-141738095D01*
X108761904Y-141880952D01*
X108190476Y-142452380D01*
X108809523Y-142452380D01*
%TO.C,H3*%
X191238095Y-57452380D02*
X191238095Y-56452380D01*
X191238095Y-56928571D02*
X191809523Y-56928571D01*
X191809523Y-57452380D02*
X191809523Y-56452380D01*
X192190476Y-56452380D02*
X192809523Y-56452380D01*
X192476190Y-56833333D01*
X192619047Y-56833333D01*
X192714285Y-56880952D01*
X192761904Y-56928571D01*
X192809523Y-57023809D01*
X192809523Y-57261904D01*
X192761904Y-57357142D01*
X192714285Y-57404761D01*
X192619047Y-57452380D01*
X192333333Y-57452380D01*
X192238095Y-57404761D01*
X192190476Y-57357142D01*
%TO.C,H4*%
X191238095Y-142452380D02*
X191238095Y-141452380D01*
X191238095Y-141928571D02*
X191809523Y-141928571D01*
X191809523Y-142452380D02*
X191809523Y-141452380D01*
X192714285Y-141785714D02*
X192714285Y-142452380D01*
X192476190Y-141404761D02*
X192238095Y-142119047D01*
X192857142Y-142119047D01*
%TO.C,D1*%
X143991904Y-130412380D02*
X143991904Y-129412380D01*
X144230000Y-129412380D01*
X144372857Y-129460000D01*
X144468095Y-129555238D01*
X144515714Y-129650476D01*
X144563333Y-129840952D01*
X144563333Y-129983809D01*
X144515714Y-130174285D01*
X144468095Y-130269523D01*
X144372857Y-130364761D01*
X144230000Y-130412380D01*
X143991904Y-130412380D01*
X145515714Y-130412380D02*
X144944285Y-130412380D01*
X145230000Y-130412380D02*
X145230000Y-129412380D01*
X145134761Y-129555238D01*
X145039523Y-129650476D01*
X144944285Y-129698095D01*
%TO.C,D2*%
X143991904Y-120412380D02*
X143991904Y-119412380D01*
X144230000Y-119412380D01*
X144372857Y-119460000D01*
X144468095Y-119555238D01*
X144515714Y-119650476D01*
X144563333Y-119840952D01*
X144563333Y-119983809D01*
X144515714Y-120174285D01*
X144468095Y-120269523D01*
X144372857Y-120364761D01*
X144230000Y-120412380D01*
X143991904Y-120412380D01*
X144944285Y-119507619D02*
X144991904Y-119460000D01*
X145087142Y-119412380D01*
X145325238Y-119412380D01*
X145420476Y-119460000D01*
X145468095Y-119507619D01*
X145515714Y-119602857D01*
X145515714Y-119698095D01*
X145468095Y-119840952D01*
X144896666Y-120412380D01*
X145515714Y-120412380D01*
%TO.C,D3*%
X178531904Y-104492380D02*
X178531904Y-103492380D01*
X178770000Y-103492380D01*
X178912857Y-103540000D01*
X179008095Y-103635238D01*
X179055714Y-103730476D01*
X179103333Y-103920952D01*
X179103333Y-104063809D01*
X179055714Y-104254285D01*
X179008095Y-104349523D01*
X178912857Y-104444761D01*
X178770000Y-104492380D01*
X178531904Y-104492380D01*
X179436666Y-103492380D02*
X180055714Y-103492380D01*
X179722380Y-103873333D01*
X179865238Y-103873333D01*
X179960476Y-103920952D01*
X180008095Y-103968571D01*
X180055714Y-104063809D01*
X180055714Y-104301904D01*
X180008095Y-104397142D01*
X179960476Y-104444761D01*
X179865238Y-104492380D01*
X179579523Y-104492380D01*
X179484285Y-104444761D01*
X179436666Y-104397142D01*
%TO.C,D4*%
X177412380Y-85008095D02*
X176412380Y-85008095D01*
X176412380Y-84770000D01*
X176460000Y-84627142D01*
X176555238Y-84531904D01*
X176650476Y-84484285D01*
X176840952Y-84436666D01*
X176983809Y-84436666D01*
X177174285Y-84484285D01*
X177269523Y-84531904D01*
X177364761Y-84627142D01*
X177412380Y-84770000D01*
X177412380Y-85008095D01*
X176745714Y-83579523D02*
X177412380Y-83579523D01*
X176364761Y-83817619D02*
X177079047Y-84055714D01*
X177079047Y-83436666D01*
%TO.C,D5*%
X152531904Y-104492380D02*
X152531904Y-103492380D01*
X152770000Y-103492380D01*
X152912857Y-103540000D01*
X153008095Y-103635238D01*
X153055714Y-103730476D01*
X153103333Y-103920952D01*
X153103333Y-104063809D01*
X153055714Y-104254285D01*
X153008095Y-104349523D01*
X152912857Y-104444761D01*
X152770000Y-104492380D01*
X152531904Y-104492380D01*
X154008095Y-103492380D02*
X153531904Y-103492380D01*
X153484285Y-103968571D01*
X153531904Y-103920952D01*
X153627142Y-103873333D01*
X153865238Y-103873333D01*
X153960476Y-103920952D01*
X154008095Y-103968571D01*
X154055714Y-104063809D01*
X154055714Y-104301904D01*
X154008095Y-104397142D01*
X153960476Y-104444761D01*
X153865238Y-104492380D01*
X153627142Y-104492380D01*
X153531904Y-104444761D01*
X153484285Y-104397142D01*
%TO.C,D6*%
X132991904Y-109412380D02*
X132991904Y-108412380D01*
X133230000Y-108412380D01*
X133372857Y-108460000D01*
X133468095Y-108555238D01*
X133515714Y-108650476D01*
X133563333Y-108840952D01*
X133563333Y-108983809D01*
X133515714Y-109174285D01*
X133468095Y-109269523D01*
X133372857Y-109364761D01*
X133230000Y-109412380D01*
X132991904Y-109412380D01*
X134420476Y-108412380D02*
X134230000Y-108412380D01*
X134134761Y-108460000D01*
X134087142Y-108507619D01*
X133991904Y-108650476D01*
X133944285Y-108840952D01*
X133944285Y-109221904D01*
X133991904Y-109317142D01*
X134039523Y-109364761D01*
X134134761Y-109412380D01*
X134325238Y-109412380D01*
X134420476Y-109364761D01*
X134468095Y-109317142D01*
X134515714Y-109221904D01*
X134515714Y-108983809D01*
X134468095Y-108888571D01*
X134420476Y-108840952D01*
X134325238Y-108793333D01*
X134134761Y-108793333D01*
X134039523Y-108840952D01*
X133991904Y-108888571D01*
X133944285Y-108983809D01*
%TO.C,H6*%
X143238095Y-101452380D02*
X143238095Y-100452380D01*
X143238095Y-100928571D02*
X143809523Y-100928571D01*
X143809523Y-101452380D02*
X143809523Y-100452380D01*
X144714285Y-100452380D02*
X144523809Y-100452380D01*
X144428571Y-100500000D01*
X144380952Y-100547619D01*
X144285714Y-100690476D01*
X144238095Y-100880952D01*
X144238095Y-101261904D01*
X144285714Y-101357142D01*
X144333333Y-101404761D01*
X144428571Y-101452380D01*
X144619047Y-101452380D01*
X144714285Y-101404761D01*
X144761904Y-101357142D01*
X144809523Y-101261904D01*
X144809523Y-101023809D01*
X144761904Y-100928571D01*
X144714285Y-100880952D01*
X144619047Y-100833333D01*
X144428571Y-100833333D01*
X144333333Y-100880952D01*
X144285714Y-100928571D01*
X144238095Y-101023809D01*
%TO.C,R1*%
X150452380Y-124706666D02*
X149976190Y-125040000D01*
X150452380Y-125278095D02*
X149452380Y-125278095D01*
X149452380Y-124897142D01*
X149500000Y-124801904D01*
X149547619Y-124754285D01*
X149642857Y-124706666D01*
X149785714Y-124706666D01*
X149880952Y-124754285D01*
X149928571Y-124801904D01*
X149976190Y-124897142D01*
X149976190Y-125278095D01*
X150452380Y-123754285D02*
X150452380Y-124325714D01*
X150452380Y-124040000D02*
X149452380Y-124040000D01*
X149595238Y-124135238D01*
X149690476Y-124230476D01*
X149738095Y-124325714D01*
%TO.C,R2*%
X150452380Y-115166666D02*
X149976190Y-115500000D01*
X150452380Y-115738095D02*
X149452380Y-115738095D01*
X149452380Y-115357142D01*
X149500000Y-115261904D01*
X149547619Y-115214285D01*
X149642857Y-115166666D01*
X149785714Y-115166666D01*
X149880952Y-115214285D01*
X149928571Y-115261904D01*
X149976190Y-115357142D01*
X149976190Y-115738095D01*
X149547619Y-114785714D02*
X149500000Y-114738095D01*
X149452380Y-114642857D01*
X149452380Y-114404761D01*
X149500000Y-114309523D01*
X149547619Y-114261904D01*
X149642857Y-114214285D01*
X149738095Y-114214285D01*
X149880952Y-114261904D01*
X150452380Y-114833333D01*
X150452380Y-114214285D01*
%TO.C,R3*%
X180293333Y-100452380D02*
X179960000Y-99976190D01*
X179721904Y-100452380D02*
X179721904Y-99452380D01*
X180102857Y-99452380D01*
X180198095Y-99500000D01*
X180245714Y-99547619D01*
X180293333Y-99642857D01*
X180293333Y-99785714D01*
X180245714Y-99880952D01*
X180198095Y-99928571D01*
X180102857Y-99976190D01*
X179721904Y-99976190D01*
X180626666Y-99452380D02*
X181245714Y-99452380D01*
X180912380Y-99833333D01*
X181055238Y-99833333D01*
X181150476Y-99880952D01*
X181198095Y-99928571D01*
X181245714Y-100023809D01*
X181245714Y-100261904D01*
X181198095Y-100357142D01*
X181150476Y-100404761D01*
X181055238Y-100452380D01*
X180769523Y-100452380D01*
X180674285Y-100404761D01*
X180626666Y-100357142D01*
%TO.C,R4*%
X172172333Y-78415380D02*
X171839000Y-77939190D01*
X171600904Y-78415380D02*
X171600904Y-77415380D01*
X171981857Y-77415380D01*
X172077095Y-77463000D01*
X172124714Y-77510619D01*
X172172333Y-77605857D01*
X172172333Y-77748714D01*
X172124714Y-77843952D01*
X172077095Y-77891571D01*
X171981857Y-77939190D01*
X171600904Y-77939190D01*
X173029476Y-77748714D02*
X173029476Y-78415380D01*
X172791380Y-77367761D02*
X172553285Y-78082047D01*
X173172333Y-78082047D01*
%TO.C,R5*%
X154372380Y-98706666D02*
X153896190Y-99040000D01*
X154372380Y-99278095D02*
X153372380Y-99278095D01*
X153372380Y-98897142D01*
X153420000Y-98801904D01*
X153467619Y-98754285D01*
X153562857Y-98706666D01*
X153705714Y-98706666D01*
X153800952Y-98754285D01*
X153848571Y-98801904D01*
X153896190Y-98897142D01*
X153896190Y-99278095D01*
X153372380Y-97801904D02*
X153372380Y-98278095D01*
X153848571Y-98325714D01*
X153800952Y-98278095D01*
X153753333Y-98182857D01*
X153753333Y-97944761D01*
X153800952Y-97849523D01*
X153848571Y-97801904D01*
X153943809Y-97754285D01*
X154181904Y-97754285D01*
X154277142Y-97801904D01*
X154324761Y-97849523D01*
X154372380Y-97944761D01*
X154372380Y-98182857D01*
X154324761Y-98278095D01*
X154277142Y-98325714D01*
%TO.C,R6*%
X137372380Y-98706666D02*
X136896190Y-99040000D01*
X137372380Y-99278095D02*
X136372380Y-99278095D01*
X136372380Y-98897142D01*
X136420000Y-98801904D01*
X136467619Y-98754285D01*
X136562857Y-98706666D01*
X136705714Y-98706666D01*
X136800952Y-98754285D01*
X136848571Y-98801904D01*
X136896190Y-98897142D01*
X136896190Y-99278095D01*
X136372380Y-97849523D02*
X136372380Y-98040000D01*
X136420000Y-98135238D01*
X136467619Y-98182857D01*
X136610476Y-98278095D01*
X136800952Y-98325714D01*
X137181904Y-98325714D01*
X137277142Y-98278095D01*
X137324761Y-98230476D01*
X137372380Y-98135238D01*
X137372380Y-97944761D01*
X137324761Y-97849523D01*
X137277142Y-97801904D01*
X137181904Y-97754285D01*
X136943809Y-97754285D01*
X136848571Y-97801904D01*
X136800952Y-97849523D01*
X136753333Y-97944761D01*
X136753333Y-98135238D01*
X136800952Y-98230476D01*
X136848571Y-98278095D01*
X136943809Y-98325714D01*
%TO.C,H5*%
X157238095Y-58452380D02*
X157238095Y-57452380D01*
X157238095Y-57928571D02*
X157809523Y-57928571D01*
X157809523Y-58452380D02*
X157809523Y-57452380D01*
X158761904Y-57452380D02*
X158285714Y-57452380D01*
X158238095Y-57928571D01*
X158285714Y-57880952D01*
X158380952Y-57833333D01*
X158619047Y-57833333D01*
X158714285Y-57880952D01*
X158761904Y-57928571D01*
X158809523Y-58023809D01*
X158809523Y-58261904D01*
X158761904Y-58357142D01*
X158714285Y-58404761D01*
X158619047Y-58452380D01*
X158380952Y-58452380D01*
X158285714Y-58404761D01*
X158238095Y-58357142D01*
%TO.C,J20*%
X111168380Y-109140523D02*
X111882666Y-109140523D01*
X112025523Y-109188142D01*
X112120761Y-109283380D01*
X112168380Y-109426238D01*
X112168380Y-109521476D01*
X111263619Y-108711952D02*
X111216000Y-108664333D01*
X111168380Y-108569095D01*
X111168380Y-108331000D01*
X111216000Y-108235761D01*
X111263619Y-108188142D01*
X111358857Y-108140523D01*
X111454095Y-108140523D01*
X111596952Y-108188142D01*
X112168380Y-108759571D01*
X112168380Y-108140523D01*
X111168380Y-107521476D02*
X111168380Y-107426238D01*
X111216000Y-107331000D01*
X111263619Y-107283380D01*
X111358857Y-107235761D01*
X111549333Y-107188142D01*
X111787428Y-107188142D01*
X111977904Y-107235761D01*
X112073142Y-107283380D01*
X112120761Y-107331000D01*
X112168380Y-107426238D01*
X112168380Y-107521476D01*
X112120761Y-107616714D01*
X112073142Y-107664333D01*
X111977904Y-107711952D01*
X111787428Y-107759571D01*
X111549333Y-107759571D01*
X111358857Y-107711952D01*
X111263619Y-107664333D01*
X111216000Y-107616714D01*
X111168380Y-107521476D01*
%TD*%
M02*
