M48
; DRILL file {KiCad (5.1.7)-1} date 01/28/22 11:54:29
; FORMAT={-:-/ absolute / metric / decimal}
; #@! TF.CreationDate,2022-01-28T11:54:29-08:00
; #@! TF.GenerationSoftware,Kicad,Pcbnew,(5.1.7)-1
FMAT,2
METRIC
T1C0.400
T2C0.700
T3C0.800
T4C0.900
T5C1.000
T6C1.200
T7C1.400
T8C1.600
T9C1.900
T10C2.540
T11C3.000
T12C3.200
%
G90
G05
T1
X104.0Y-68.0
X104.0Y-72.0
X104.0Y-78.0
X104.0Y-84.0
X105.0Y-92.0
X106.0Y-107.0
X106.0Y-130.0
X107.0Y-65.0
X107.0Y-122.0
X108.0Y-75.0
X109.0Y-70.0
X109.0Y-81.0
X109.0Y-87.0
X110.0Y-92.0
X116.713Y-110.871
X118.0Y-91.0
X119.0Y-92.0
X119.0Y-103.0
X130.0Y-122.0
X130.0Y-130.0
X131.0Y-101.0
X132.0Y-97.0
X133.0Y-92.0
X134.0Y-122.0
X138.0Y-92.0
X138.0Y-110.0
X140.0Y-103.0
X142.0Y-109.0
X143.0Y-92.0
X165.163Y-78.803
T2
X152.0Y-96.0
X152.0Y-101.08
X150.0Y-113.0
X150.0Y-118.08
X169.799Y-79.883
X174.879Y-79.883
X150.0Y-122.0
X150.0Y-127.08
X135.0Y-96.0
X135.0Y-101.08
X177.92Y-102.0
X183.0Y-102.0
T3
X146.0Y-95.0
T4
X132.46Y-106.0
X135.0Y-106.0
X174.0Y-83.0
X174.0Y-85.54
X143.46Y-127.0
X146.0Y-127.0
X152.0Y-107.0
X154.54Y-107.0
X178.0Y-107.0
X180.54Y-107.0
X143.46Y-117.0
X146.0Y-117.0
T5
X114.046Y-108.331
X116.586Y-108.331
T6
X115.5Y-96.0
X115.5Y-99.5
X115.5Y-103.0
T7
X116.0Y-65.5
X116.0Y-71.0
X120.2Y-65.5
X120.2Y-71.0
X124.4Y-65.5
X124.4Y-71.0
X128.6Y-65.5
X128.6Y-71.0
X116.225Y-80.775
X116.225Y-86.275
X120.425Y-80.775
X120.425Y-86.275
X124.625Y-80.775
X124.625Y-86.275
X128.825Y-80.775
X128.825Y-86.275
X133.025Y-80.775
X133.025Y-86.275
X137.225Y-80.775
X137.225Y-86.275
X141.425Y-80.775
X141.425Y-86.275
X145.625Y-80.775
X145.625Y-86.275
X149.825Y-80.775
X149.825Y-86.275
X154.025Y-80.775
X154.025Y-86.275
X158.225Y-80.775
X158.225Y-86.275
X162.425Y-80.775
X162.425Y-86.275
X175.6Y-66.5
X175.6Y-72.0
X179.8Y-66.5
X179.8Y-72.0
X184.0Y-66.5
X184.0Y-72.0
X137.5Y-65.5
X137.5Y-71.0
X141.7Y-65.5
X141.7Y-71.0
X145.9Y-65.5
X145.9Y-71.0
X150.1Y-65.5
X150.1Y-71.0
X158.6Y-66.5
X158.6Y-72.0
X162.8Y-66.5
X162.8Y-72.0
X167.0Y-66.5
X167.0Y-72.0
T8
X159.3Y-95.25
X159.3Y-104.95
X159.3Y-108.75
X162.7Y-95.25
X162.7Y-104.95
X162.7Y-108.75
X170.3Y-94.25
X170.3Y-103.95
X170.3Y-107.75
X173.7Y-94.25
X173.7Y-103.95
X173.7Y-107.75
X179.3Y-83.25
X179.3Y-92.95
X179.3Y-96.75
X182.7Y-83.25
X182.7Y-92.95
X182.7Y-96.75
X122.25Y-115.3
X122.25Y-118.7
X126.05Y-115.3
X126.05Y-118.7
X135.75Y-115.3
X135.75Y-118.7
X122.25Y-124.3
X122.25Y-127.7
X126.05Y-124.3
X126.05Y-127.7
X135.75Y-124.3
X135.75Y-127.7
X124.3Y-95.25
X124.3Y-104.95
X124.3Y-108.75
X127.7Y-95.25
X127.7Y-104.95
X127.7Y-108.75
T9
X189.5Y-89.5
X189.5Y-94.5
X196.5Y-89.5
X196.5Y-94.5
X111.5Y-114.5
X111.5Y-119.5
X118.5Y-114.5
X118.5Y-119.5
X189.5Y-100.5
X189.5Y-105.5
X196.5Y-100.5
X196.5Y-105.5
X179.5Y-124.5
X179.5Y-131.5
X184.5Y-124.5
X184.5Y-131.5
X179.5Y-112.5
X179.5Y-119.5
X184.5Y-112.5
X184.5Y-119.5
X189.5Y-78.5
X189.5Y-83.5
X196.5Y-78.5
X196.5Y-83.5
X168.5Y-124.5
X168.5Y-131.5
X173.5Y-124.5
X173.5Y-131.5
X164.5Y-138.5
X164.5Y-145.5
X169.5Y-138.5
X169.5Y-145.5
X123.5Y-138.5
X123.5Y-145.5
X128.5Y-138.5
X128.5Y-145.5
X174.5Y-138.5
X174.5Y-145.5
X179.5Y-138.5
X179.5Y-145.5
X168.5Y-112.5
X168.5Y-119.5
X173.5Y-112.5
X173.5Y-119.5
X190.5Y-124.5
X190.5Y-131.5
X195.5Y-124.5
X195.5Y-131.5
X154.5Y-138.5
X154.5Y-145.5
X159.5Y-138.5
X159.5Y-145.5
X143.5Y-138.5
X143.5Y-145.5
X148.5Y-138.5
X148.5Y-145.5
X190.5Y-112.5
X190.5Y-119.5
X195.5Y-112.5
X195.5Y-119.5
X111.5Y-124.5
X111.5Y-129.5
X118.5Y-124.5
X118.5Y-129.5
X133.5Y-138.5
X133.5Y-145.5
X138.5Y-138.5
X138.5Y-145.5
T10
X161.0Y-92.85
X161.0Y-97.95
X161.0Y-102.05
X161.0Y-107.15
X172.0Y-91.85
X172.0Y-96.95
X172.0Y-101.05
X172.0Y-106.15
X181.0Y-80.85
X181.0Y-85.95
X181.0Y-90.05
X181.0Y-95.15
X123.85Y-117.0
X128.95Y-117.0
X133.05Y-117.0
X138.15Y-117.0
X123.85Y-126.0
X128.95Y-126.0
X133.05Y-126.0
X138.15Y-126.0
X126.0Y-92.85
X126.0Y-97.95
X126.0Y-102.05
X126.0Y-107.15
T11
X111.525Y-85.815
X167.125Y-85.815
T12
X144.0Y-101.0
X192.0Y-142.0
X192.0Y-58.0
X158.0Y-58.0
X108.0Y-58.0
X108.0Y-142.0
T0
M30
