%TF.GenerationSoftware,KiCad,Pcbnew,8.0.5*%
%TF.CreationDate,2024-09-24T16:47:16-07:00*%
%TF.ProjectId,TFTDriver,54465444-7269-4766-9572-2e6b69636164,rev?*%
%TF.SameCoordinates,Original*%
%TF.FileFunction,Legend,Top*%
%TF.FilePolarity,Positive*%
%FSLAX46Y46*%
G04 Gerber Fmt 4.6, Leading zero omitted, Abs format (unit mm)*
G04 Created by KiCad (PCBNEW 8.0.5) date 2024-09-24 16:47:16*
%MOMM*%
%LPD*%
G01*
G04 APERTURE LIST*
%ADD10C,0.150000*%
%ADD11C,0.101600*%
%ADD12C,0.025400*%
%ADD13C,0.120000*%
%ADD14C,0.100000*%
%ADD15C,0.066040*%
%ADD16C,0.127000*%
%ADD17C,0.203200*%
G04 APERTURE END LIST*
D10*
X149695238Y-117687438D02*
X149695238Y-115687438D01*
X149695238Y-115687438D02*
X150361905Y-117116009D01*
X150361905Y-117116009D02*
X151028571Y-115687438D01*
X151028571Y-115687438D02*
X151028571Y-117687438D01*
X151980952Y-117687438D02*
X151980952Y-115687438D01*
X152933333Y-117687438D02*
X152933333Y-115687438D01*
X152933333Y-115687438D02*
X153409523Y-115687438D01*
X153409523Y-115687438D02*
X153695238Y-115782676D01*
X153695238Y-115782676D02*
X153885714Y-115973152D01*
X153885714Y-115973152D02*
X153980952Y-116163628D01*
X153980952Y-116163628D02*
X154076190Y-116544580D01*
X154076190Y-116544580D02*
X154076190Y-116830295D01*
X154076190Y-116830295D02*
X153980952Y-117211247D01*
X153980952Y-117211247D02*
X153885714Y-117401723D01*
X153885714Y-117401723D02*
X153695238Y-117592200D01*
X153695238Y-117592200D02*
X153409523Y-117687438D01*
X153409523Y-117687438D02*
X152933333Y-117687438D01*
X154933333Y-117687438D02*
X154933333Y-115687438D01*
X157409524Y-117687438D02*
X157409524Y-115687438D01*
X158361905Y-117687438D02*
X158361905Y-115687438D01*
X158361905Y-115687438D02*
X159504762Y-117687438D01*
X159504762Y-117687438D02*
X159504762Y-115687438D01*
X105414285Y-76644875D02*
X105985713Y-76644875D01*
X105699999Y-77644875D02*
X105699999Y-76644875D01*
X106652380Y-77121065D02*
X106319047Y-77121065D01*
X106319047Y-77644875D02*
X106319047Y-76644875D01*
X106319047Y-76644875D02*
X106795237Y-76644875D01*
X107033333Y-76644875D02*
X107604761Y-76644875D01*
X107319047Y-77644875D02*
X107319047Y-76644875D01*
X107938095Y-77644875D02*
X107938095Y-76644875D01*
X107938095Y-76644875D02*
X108176190Y-76644875D01*
X108176190Y-76644875D02*
X108319047Y-76692494D01*
X108319047Y-76692494D02*
X108414285Y-76787732D01*
X108414285Y-76787732D02*
X108461904Y-76882970D01*
X108461904Y-76882970D02*
X108509523Y-77073446D01*
X108509523Y-77073446D02*
X108509523Y-77216303D01*
X108509523Y-77216303D02*
X108461904Y-77406779D01*
X108461904Y-77406779D02*
X108414285Y-77502017D01*
X108414285Y-77502017D02*
X108319047Y-77597256D01*
X108319047Y-77597256D02*
X108176190Y-77644875D01*
X108176190Y-77644875D02*
X107938095Y-77644875D01*
X108938095Y-77644875D02*
X108938095Y-76978208D01*
X108938095Y-77168684D02*
X108985714Y-77073446D01*
X108985714Y-77073446D02*
X109033333Y-77025827D01*
X109033333Y-77025827D02*
X109128571Y-76978208D01*
X109128571Y-76978208D02*
X109223809Y-76978208D01*
X109557143Y-77644875D02*
X109557143Y-76978208D01*
X109557143Y-76644875D02*
X109509524Y-76692494D01*
X109509524Y-76692494D02*
X109557143Y-76740113D01*
X109557143Y-76740113D02*
X109604762Y-76692494D01*
X109604762Y-76692494D02*
X109557143Y-76644875D01*
X109557143Y-76644875D02*
X109557143Y-76740113D01*
X109938095Y-76978208D02*
X110176190Y-77644875D01*
X110176190Y-77644875D02*
X110414285Y-76978208D01*
X111176190Y-77597256D02*
X111080952Y-77644875D01*
X111080952Y-77644875D02*
X110890476Y-77644875D01*
X110890476Y-77644875D02*
X110795238Y-77597256D01*
X110795238Y-77597256D02*
X110747619Y-77502017D01*
X110747619Y-77502017D02*
X110747619Y-77121065D01*
X110747619Y-77121065D02*
X110795238Y-77025827D01*
X110795238Y-77025827D02*
X110890476Y-76978208D01*
X110890476Y-76978208D02*
X111080952Y-76978208D01*
X111080952Y-76978208D02*
X111176190Y-77025827D01*
X111176190Y-77025827D02*
X111223809Y-77121065D01*
X111223809Y-77121065D02*
X111223809Y-77216303D01*
X111223809Y-77216303D02*
X110747619Y-77311541D01*
X111652381Y-77644875D02*
X111652381Y-76978208D01*
X111652381Y-77168684D02*
X111700000Y-77073446D01*
X111700000Y-77073446D02*
X111747619Y-77025827D01*
X111747619Y-77025827D02*
X111842857Y-76978208D01*
X111842857Y-76978208D02*
X111938095Y-76978208D01*
X113604762Y-77644875D02*
X113271429Y-77168684D01*
X113033334Y-77644875D02*
X113033334Y-76644875D01*
X113033334Y-76644875D02*
X113414286Y-76644875D01*
X113414286Y-76644875D02*
X113509524Y-76692494D01*
X113509524Y-76692494D02*
X113557143Y-76740113D01*
X113557143Y-76740113D02*
X113604762Y-76835351D01*
X113604762Y-76835351D02*
X113604762Y-76978208D01*
X113604762Y-76978208D02*
X113557143Y-77073446D01*
X113557143Y-77073446D02*
X113509524Y-77121065D01*
X113509524Y-77121065D02*
X113414286Y-77168684D01*
X113414286Y-77168684D02*
X113033334Y-77168684D01*
X114414286Y-77597256D02*
X114319048Y-77644875D01*
X114319048Y-77644875D02*
X114128572Y-77644875D01*
X114128572Y-77644875D02*
X114033334Y-77597256D01*
X114033334Y-77597256D02*
X113985715Y-77502017D01*
X113985715Y-77502017D02*
X113985715Y-77121065D01*
X113985715Y-77121065D02*
X114033334Y-77025827D01*
X114033334Y-77025827D02*
X114128572Y-76978208D01*
X114128572Y-76978208D02*
X114319048Y-76978208D01*
X114319048Y-76978208D02*
X114414286Y-77025827D01*
X114414286Y-77025827D02*
X114461905Y-77121065D01*
X114461905Y-77121065D02*
X114461905Y-77216303D01*
X114461905Y-77216303D02*
X113985715Y-77311541D01*
X114795239Y-76978208D02*
X115033334Y-77644875D01*
X115033334Y-77644875D02*
X115271429Y-76978208D01*
X116414287Y-77121065D02*
X116747620Y-77121065D01*
X116890477Y-77644875D02*
X116414287Y-77644875D01*
X116414287Y-77644875D02*
X116414287Y-76644875D01*
X116414287Y-76644875D02*
X116890477Y-76644875D01*
X107295238Y-78350057D02*
X107342857Y-78302438D01*
X107342857Y-78302438D02*
X107438095Y-78254819D01*
X107438095Y-78254819D02*
X107676190Y-78254819D01*
X107676190Y-78254819D02*
X107771428Y-78302438D01*
X107771428Y-78302438D02*
X107819047Y-78350057D01*
X107819047Y-78350057D02*
X107866666Y-78445295D01*
X107866666Y-78445295D02*
X107866666Y-78540533D01*
X107866666Y-78540533D02*
X107819047Y-78683390D01*
X107819047Y-78683390D02*
X107247619Y-79254819D01*
X107247619Y-79254819D02*
X107866666Y-79254819D01*
X108485714Y-78254819D02*
X108580952Y-78254819D01*
X108580952Y-78254819D02*
X108676190Y-78302438D01*
X108676190Y-78302438D02*
X108723809Y-78350057D01*
X108723809Y-78350057D02*
X108771428Y-78445295D01*
X108771428Y-78445295D02*
X108819047Y-78635771D01*
X108819047Y-78635771D02*
X108819047Y-78873866D01*
X108819047Y-78873866D02*
X108771428Y-79064342D01*
X108771428Y-79064342D02*
X108723809Y-79159580D01*
X108723809Y-79159580D02*
X108676190Y-79207200D01*
X108676190Y-79207200D02*
X108580952Y-79254819D01*
X108580952Y-79254819D02*
X108485714Y-79254819D01*
X108485714Y-79254819D02*
X108390476Y-79207200D01*
X108390476Y-79207200D02*
X108342857Y-79159580D01*
X108342857Y-79159580D02*
X108295238Y-79064342D01*
X108295238Y-79064342D02*
X108247619Y-78873866D01*
X108247619Y-78873866D02*
X108247619Y-78635771D01*
X108247619Y-78635771D02*
X108295238Y-78445295D01*
X108295238Y-78445295D02*
X108342857Y-78350057D01*
X108342857Y-78350057D02*
X108390476Y-78302438D01*
X108390476Y-78302438D02*
X108485714Y-78254819D01*
X109200000Y-78350057D02*
X109247619Y-78302438D01*
X109247619Y-78302438D02*
X109342857Y-78254819D01*
X109342857Y-78254819D02*
X109580952Y-78254819D01*
X109580952Y-78254819D02*
X109676190Y-78302438D01*
X109676190Y-78302438D02*
X109723809Y-78350057D01*
X109723809Y-78350057D02*
X109771428Y-78445295D01*
X109771428Y-78445295D02*
X109771428Y-78540533D01*
X109771428Y-78540533D02*
X109723809Y-78683390D01*
X109723809Y-78683390D02*
X109152381Y-79254819D01*
X109152381Y-79254819D02*
X109771428Y-79254819D01*
X110628571Y-78588152D02*
X110628571Y-79254819D01*
X110390476Y-78207200D02*
X110152381Y-78921485D01*
X110152381Y-78921485D02*
X110771428Y-78921485D01*
X111961905Y-79254819D02*
X112152381Y-79254819D01*
X112152381Y-79254819D02*
X112247619Y-79207200D01*
X112247619Y-79207200D02*
X112295238Y-79159580D01*
X112295238Y-79159580D02*
X112390476Y-79016723D01*
X112390476Y-79016723D02*
X112438095Y-78826247D01*
X112438095Y-78826247D02*
X112438095Y-78445295D01*
X112438095Y-78445295D02*
X112390476Y-78350057D01*
X112390476Y-78350057D02*
X112342857Y-78302438D01*
X112342857Y-78302438D02*
X112247619Y-78254819D01*
X112247619Y-78254819D02*
X112057143Y-78254819D01*
X112057143Y-78254819D02*
X111961905Y-78302438D01*
X111961905Y-78302438D02*
X111914286Y-78350057D01*
X111914286Y-78350057D02*
X111866667Y-78445295D01*
X111866667Y-78445295D02*
X111866667Y-78683390D01*
X111866667Y-78683390D02*
X111914286Y-78778628D01*
X111914286Y-78778628D02*
X111961905Y-78826247D01*
X111961905Y-78826247D02*
X112057143Y-78873866D01*
X112057143Y-78873866D02*
X112247619Y-78873866D01*
X112247619Y-78873866D02*
X112342857Y-78826247D01*
X112342857Y-78826247D02*
X112390476Y-78778628D01*
X112390476Y-78778628D02*
X112438095Y-78683390D01*
X113580953Y-78350057D02*
X113628572Y-78302438D01*
X113628572Y-78302438D02*
X113723810Y-78254819D01*
X113723810Y-78254819D02*
X113961905Y-78254819D01*
X113961905Y-78254819D02*
X114057143Y-78302438D01*
X114057143Y-78302438D02*
X114104762Y-78350057D01*
X114104762Y-78350057D02*
X114152381Y-78445295D01*
X114152381Y-78445295D02*
X114152381Y-78540533D01*
X114152381Y-78540533D02*
X114104762Y-78683390D01*
X114104762Y-78683390D02*
X113533334Y-79254819D01*
X113533334Y-79254819D02*
X114152381Y-79254819D01*
X115009524Y-78588152D02*
X115009524Y-79254819D01*
X114771429Y-78207200D02*
X114533334Y-78921485D01*
X114533334Y-78921485D02*
X115152381Y-78921485D01*
X105961904Y-80864763D02*
X105390476Y-80864763D01*
X105676190Y-80864763D02*
X105676190Y-79864763D01*
X105676190Y-79864763D02*
X105580952Y-80007620D01*
X105580952Y-80007620D02*
X105485714Y-80102858D01*
X105485714Y-80102858D02*
X105390476Y-80150477D01*
X106390476Y-80483810D02*
X107152381Y-80483810D01*
X107819047Y-79864763D02*
X107914285Y-79864763D01*
X107914285Y-79864763D02*
X108009523Y-79912382D01*
X108009523Y-79912382D02*
X108057142Y-79960001D01*
X108057142Y-79960001D02*
X108104761Y-80055239D01*
X108104761Y-80055239D02*
X108152380Y-80245715D01*
X108152380Y-80245715D02*
X108152380Y-80483810D01*
X108152380Y-80483810D02*
X108104761Y-80674286D01*
X108104761Y-80674286D02*
X108057142Y-80769524D01*
X108057142Y-80769524D02*
X108009523Y-80817144D01*
X108009523Y-80817144D02*
X107914285Y-80864763D01*
X107914285Y-80864763D02*
X107819047Y-80864763D01*
X107819047Y-80864763D02*
X107723809Y-80817144D01*
X107723809Y-80817144D02*
X107676190Y-80769524D01*
X107676190Y-80769524D02*
X107628571Y-80674286D01*
X107628571Y-80674286D02*
X107580952Y-80483810D01*
X107580952Y-80483810D02*
X107580952Y-80245715D01*
X107580952Y-80245715D02*
X107628571Y-80055239D01*
X107628571Y-80055239D02*
X107676190Y-79960001D01*
X107676190Y-79960001D02*
X107723809Y-79912382D01*
X107723809Y-79912382D02*
X107819047Y-79864763D01*
X108771428Y-79864763D02*
X108866666Y-79864763D01*
X108866666Y-79864763D02*
X108961904Y-79912382D01*
X108961904Y-79912382D02*
X109009523Y-79960001D01*
X109009523Y-79960001D02*
X109057142Y-80055239D01*
X109057142Y-80055239D02*
X109104761Y-80245715D01*
X109104761Y-80245715D02*
X109104761Y-80483810D01*
X109104761Y-80483810D02*
X109057142Y-80674286D01*
X109057142Y-80674286D02*
X109009523Y-80769524D01*
X109009523Y-80769524D02*
X108961904Y-80817144D01*
X108961904Y-80817144D02*
X108866666Y-80864763D01*
X108866666Y-80864763D02*
X108771428Y-80864763D01*
X108771428Y-80864763D02*
X108676190Y-80817144D01*
X108676190Y-80817144D02*
X108628571Y-80769524D01*
X108628571Y-80769524D02*
X108580952Y-80674286D01*
X108580952Y-80674286D02*
X108533333Y-80483810D01*
X108533333Y-80483810D02*
X108533333Y-80245715D01*
X108533333Y-80245715D02*
X108580952Y-80055239D01*
X108580952Y-80055239D02*
X108628571Y-79960001D01*
X108628571Y-79960001D02*
X108676190Y-79912382D01*
X108676190Y-79912382D02*
X108771428Y-79864763D01*
X109723809Y-79864763D02*
X109819047Y-79864763D01*
X109819047Y-79864763D02*
X109914285Y-79912382D01*
X109914285Y-79912382D02*
X109961904Y-79960001D01*
X109961904Y-79960001D02*
X110009523Y-80055239D01*
X110009523Y-80055239D02*
X110057142Y-80245715D01*
X110057142Y-80245715D02*
X110057142Y-80483810D01*
X110057142Y-80483810D02*
X110009523Y-80674286D01*
X110009523Y-80674286D02*
X109961904Y-80769524D01*
X109961904Y-80769524D02*
X109914285Y-80817144D01*
X109914285Y-80817144D02*
X109819047Y-80864763D01*
X109819047Y-80864763D02*
X109723809Y-80864763D01*
X109723809Y-80864763D02*
X109628571Y-80817144D01*
X109628571Y-80817144D02*
X109580952Y-80769524D01*
X109580952Y-80769524D02*
X109533333Y-80674286D01*
X109533333Y-80674286D02*
X109485714Y-80483810D01*
X109485714Y-80483810D02*
X109485714Y-80245715D01*
X109485714Y-80245715D02*
X109533333Y-80055239D01*
X109533333Y-80055239D02*
X109580952Y-79960001D01*
X109580952Y-79960001D02*
X109628571Y-79912382D01*
X109628571Y-79912382D02*
X109723809Y-79864763D01*
X110676190Y-79864763D02*
X110771428Y-79864763D01*
X110771428Y-79864763D02*
X110866666Y-79912382D01*
X110866666Y-79912382D02*
X110914285Y-79960001D01*
X110914285Y-79960001D02*
X110961904Y-80055239D01*
X110961904Y-80055239D02*
X111009523Y-80245715D01*
X111009523Y-80245715D02*
X111009523Y-80483810D01*
X111009523Y-80483810D02*
X110961904Y-80674286D01*
X110961904Y-80674286D02*
X110914285Y-80769524D01*
X110914285Y-80769524D02*
X110866666Y-80817144D01*
X110866666Y-80817144D02*
X110771428Y-80864763D01*
X110771428Y-80864763D02*
X110676190Y-80864763D01*
X110676190Y-80864763D02*
X110580952Y-80817144D01*
X110580952Y-80817144D02*
X110533333Y-80769524D01*
X110533333Y-80769524D02*
X110485714Y-80674286D01*
X110485714Y-80674286D02*
X110438095Y-80483810D01*
X110438095Y-80483810D02*
X110438095Y-80245715D01*
X110438095Y-80245715D02*
X110485714Y-80055239D01*
X110485714Y-80055239D02*
X110533333Y-79960001D01*
X110533333Y-79960001D02*
X110580952Y-79912382D01*
X110580952Y-79912382D02*
X110676190Y-79864763D01*
X111628571Y-79864763D02*
X111723809Y-79864763D01*
X111723809Y-79864763D02*
X111819047Y-79912382D01*
X111819047Y-79912382D02*
X111866666Y-79960001D01*
X111866666Y-79960001D02*
X111914285Y-80055239D01*
X111914285Y-80055239D02*
X111961904Y-80245715D01*
X111961904Y-80245715D02*
X111961904Y-80483810D01*
X111961904Y-80483810D02*
X111914285Y-80674286D01*
X111914285Y-80674286D02*
X111866666Y-80769524D01*
X111866666Y-80769524D02*
X111819047Y-80817144D01*
X111819047Y-80817144D02*
X111723809Y-80864763D01*
X111723809Y-80864763D02*
X111628571Y-80864763D01*
X111628571Y-80864763D02*
X111533333Y-80817144D01*
X111533333Y-80817144D02*
X111485714Y-80769524D01*
X111485714Y-80769524D02*
X111438095Y-80674286D01*
X111438095Y-80674286D02*
X111390476Y-80483810D01*
X111390476Y-80483810D02*
X111390476Y-80245715D01*
X111390476Y-80245715D02*
X111438095Y-80055239D01*
X111438095Y-80055239D02*
X111485714Y-79960001D01*
X111485714Y-79960001D02*
X111533333Y-79912382D01*
X111533333Y-79912382D02*
X111628571Y-79864763D01*
X112914285Y-80864763D02*
X112342857Y-80864763D01*
X112628571Y-80864763D02*
X112628571Y-79864763D01*
X112628571Y-79864763D02*
X112533333Y-80007620D01*
X112533333Y-80007620D02*
X112438095Y-80102858D01*
X112438095Y-80102858D02*
X112342857Y-80150477D01*
X113342857Y-80483810D02*
X114104762Y-80483810D01*
X114771428Y-79864763D02*
X114866666Y-79864763D01*
X114866666Y-79864763D02*
X114961904Y-79912382D01*
X114961904Y-79912382D02*
X115009523Y-79960001D01*
X115009523Y-79960001D02*
X115057142Y-80055239D01*
X115057142Y-80055239D02*
X115104761Y-80245715D01*
X115104761Y-80245715D02*
X115104761Y-80483810D01*
X115104761Y-80483810D02*
X115057142Y-80674286D01*
X115057142Y-80674286D02*
X115009523Y-80769524D01*
X115009523Y-80769524D02*
X114961904Y-80817144D01*
X114961904Y-80817144D02*
X114866666Y-80864763D01*
X114866666Y-80864763D02*
X114771428Y-80864763D01*
X114771428Y-80864763D02*
X114676190Y-80817144D01*
X114676190Y-80817144D02*
X114628571Y-80769524D01*
X114628571Y-80769524D02*
X114580952Y-80674286D01*
X114580952Y-80674286D02*
X114533333Y-80483810D01*
X114533333Y-80483810D02*
X114533333Y-80245715D01*
X114533333Y-80245715D02*
X114580952Y-80055239D01*
X114580952Y-80055239D02*
X114628571Y-79960001D01*
X114628571Y-79960001D02*
X114676190Y-79912382D01*
X114676190Y-79912382D02*
X114771428Y-79864763D01*
X115723809Y-79864763D02*
X115819047Y-79864763D01*
X115819047Y-79864763D02*
X115914285Y-79912382D01*
X115914285Y-79912382D02*
X115961904Y-79960001D01*
X115961904Y-79960001D02*
X116009523Y-80055239D01*
X116009523Y-80055239D02*
X116057142Y-80245715D01*
X116057142Y-80245715D02*
X116057142Y-80483810D01*
X116057142Y-80483810D02*
X116009523Y-80674286D01*
X116009523Y-80674286D02*
X115961904Y-80769524D01*
X115961904Y-80769524D02*
X115914285Y-80817144D01*
X115914285Y-80817144D02*
X115819047Y-80864763D01*
X115819047Y-80864763D02*
X115723809Y-80864763D01*
X115723809Y-80864763D02*
X115628571Y-80817144D01*
X115628571Y-80817144D02*
X115580952Y-80769524D01*
X115580952Y-80769524D02*
X115533333Y-80674286D01*
X115533333Y-80674286D02*
X115485714Y-80483810D01*
X115485714Y-80483810D02*
X115485714Y-80245715D01*
X115485714Y-80245715D02*
X115533333Y-80055239D01*
X115533333Y-80055239D02*
X115580952Y-79960001D01*
X115580952Y-79960001D02*
X115628571Y-79912382D01*
X115628571Y-79912382D02*
X115723809Y-79864763D01*
X116961904Y-79864763D02*
X116485714Y-79864763D01*
X116485714Y-79864763D02*
X116438095Y-80340953D01*
X116438095Y-80340953D02*
X116485714Y-80293334D01*
X116485714Y-80293334D02*
X116580952Y-80245715D01*
X116580952Y-80245715D02*
X116819047Y-80245715D01*
X116819047Y-80245715D02*
X116914285Y-80293334D01*
X116914285Y-80293334D02*
X116961904Y-80340953D01*
X116961904Y-80340953D02*
X117009523Y-80436191D01*
X117009523Y-80436191D02*
X117009523Y-80674286D01*
X117009523Y-80674286D02*
X116961904Y-80769524D01*
X116961904Y-80769524D02*
X116914285Y-80817144D01*
X116914285Y-80817144D02*
X116819047Y-80864763D01*
X116819047Y-80864763D02*
X116580952Y-80864763D01*
X116580952Y-80864763D02*
X116485714Y-80817144D01*
X116485714Y-80817144D02*
X116438095Y-80769524D01*
X145059403Y-72572700D02*
X145059403Y-70572700D01*
X145059403Y-70572700D02*
X145726070Y-72001271D01*
X145726070Y-72001271D02*
X146392736Y-70572700D01*
X146392736Y-70572700D02*
X146392736Y-72572700D01*
X147345117Y-72572700D02*
X147345117Y-70572700D01*
X148297498Y-72572700D02*
X148297498Y-70572700D01*
X148297498Y-70572700D02*
X148773688Y-70572700D01*
X148773688Y-70572700D02*
X149059403Y-70667938D01*
X149059403Y-70667938D02*
X149249879Y-70858414D01*
X149249879Y-70858414D02*
X149345117Y-71048890D01*
X149345117Y-71048890D02*
X149440355Y-71429842D01*
X149440355Y-71429842D02*
X149440355Y-71715557D01*
X149440355Y-71715557D02*
X149345117Y-72096509D01*
X149345117Y-72096509D02*
X149249879Y-72286985D01*
X149249879Y-72286985D02*
X149059403Y-72477462D01*
X149059403Y-72477462D02*
X148773688Y-72572700D01*
X148773688Y-72572700D02*
X148297498Y-72572700D01*
X150297498Y-72572700D02*
X150297498Y-70572700D01*
X153154641Y-70572700D02*
X153535594Y-70572700D01*
X153535594Y-70572700D02*
X153726070Y-70667938D01*
X153726070Y-70667938D02*
X153916546Y-70858414D01*
X153916546Y-70858414D02*
X154011784Y-71239366D01*
X154011784Y-71239366D02*
X154011784Y-71906033D01*
X154011784Y-71906033D02*
X153916546Y-72286985D01*
X153916546Y-72286985D02*
X153726070Y-72477462D01*
X153726070Y-72477462D02*
X153535594Y-72572700D01*
X153535594Y-72572700D02*
X153154641Y-72572700D01*
X153154641Y-72572700D02*
X152964165Y-72477462D01*
X152964165Y-72477462D02*
X152773689Y-72286985D01*
X152773689Y-72286985D02*
X152678451Y-71906033D01*
X152678451Y-71906033D02*
X152678451Y-71239366D01*
X152678451Y-71239366D02*
X152773689Y-70858414D01*
X152773689Y-70858414D02*
X152964165Y-70667938D01*
X152964165Y-70667938D02*
X153154641Y-70572700D01*
X154868927Y-70572700D02*
X154868927Y-72191747D01*
X154868927Y-72191747D02*
X154964165Y-72382223D01*
X154964165Y-72382223D02*
X155059403Y-72477462D01*
X155059403Y-72477462D02*
X155249879Y-72572700D01*
X155249879Y-72572700D02*
X155630832Y-72572700D01*
X155630832Y-72572700D02*
X155821308Y-72477462D01*
X155821308Y-72477462D02*
X155916546Y-72382223D01*
X155916546Y-72382223D02*
X156011784Y-72191747D01*
X156011784Y-72191747D02*
X156011784Y-70572700D01*
X156678451Y-70572700D02*
X157821308Y-70572700D01*
X157249879Y-72572700D02*
X157249879Y-70572700D01*
X75769642Y-69254819D02*
X75436309Y-68778628D01*
X75198214Y-69254819D02*
X75198214Y-68254819D01*
X75198214Y-68254819D02*
X75579166Y-68254819D01*
X75579166Y-68254819D02*
X75674404Y-68302438D01*
X75674404Y-68302438D02*
X75722023Y-68350057D01*
X75722023Y-68350057D02*
X75769642Y-68445295D01*
X75769642Y-68445295D02*
X75769642Y-68588152D01*
X75769642Y-68588152D02*
X75722023Y-68683390D01*
X75722023Y-68683390D02*
X75674404Y-68731009D01*
X75674404Y-68731009D02*
X75579166Y-68778628D01*
X75579166Y-68778628D02*
X75198214Y-68778628D01*
X76626785Y-68588152D02*
X76626785Y-69254819D01*
X76388690Y-68207200D02*
X76150595Y-68921485D01*
X76150595Y-68921485D02*
X76769642Y-68921485D01*
X77579166Y-68254819D02*
X77388690Y-68254819D01*
X77388690Y-68254819D02*
X77293452Y-68302438D01*
X77293452Y-68302438D02*
X77245833Y-68350057D01*
X77245833Y-68350057D02*
X77150595Y-68492914D01*
X77150595Y-68492914D02*
X77102976Y-68683390D01*
X77102976Y-68683390D02*
X77102976Y-69064342D01*
X77102976Y-69064342D02*
X77150595Y-69159580D01*
X77150595Y-69159580D02*
X77198214Y-69207200D01*
X77198214Y-69207200D02*
X77293452Y-69254819D01*
X77293452Y-69254819D02*
X77483928Y-69254819D01*
X77483928Y-69254819D02*
X77579166Y-69207200D01*
X77579166Y-69207200D02*
X77626785Y-69159580D01*
X77626785Y-69159580D02*
X77674404Y-69064342D01*
X77674404Y-69064342D02*
X77674404Y-68826247D01*
X77674404Y-68826247D02*
X77626785Y-68731009D01*
X77626785Y-68731009D02*
X77579166Y-68683390D01*
X77579166Y-68683390D02*
X77483928Y-68635771D01*
X77483928Y-68635771D02*
X77293452Y-68635771D01*
X77293452Y-68635771D02*
X77198214Y-68683390D01*
X77198214Y-68683390D02*
X77150595Y-68731009D01*
X77150595Y-68731009D02*
X77102976Y-68826247D01*
X156657142Y-151854819D02*
X156323809Y-151378628D01*
X156085714Y-151854819D02*
X156085714Y-150854819D01*
X156085714Y-150854819D02*
X156466666Y-150854819D01*
X156466666Y-150854819D02*
X156561904Y-150902438D01*
X156561904Y-150902438D02*
X156609523Y-150950057D01*
X156609523Y-150950057D02*
X156657142Y-151045295D01*
X156657142Y-151045295D02*
X156657142Y-151188152D01*
X156657142Y-151188152D02*
X156609523Y-151283390D01*
X156609523Y-151283390D02*
X156561904Y-151331009D01*
X156561904Y-151331009D02*
X156466666Y-151378628D01*
X156466666Y-151378628D02*
X156085714Y-151378628D01*
X157514285Y-151188152D02*
X157514285Y-151854819D01*
X157276190Y-150807200D02*
X157038095Y-151521485D01*
X157038095Y-151521485D02*
X157657142Y-151521485D01*
X158514285Y-150854819D02*
X158038095Y-150854819D01*
X158038095Y-150854819D02*
X157990476Y-151331009D01*
X157990476Y-151331009D02*
X158038095Y-151283390D01*
X158038095Y-151283390D02*
X158133333Y-151235771D01*
X158133333Y-151235771D02*
X158371428Y-151235771D01*
X158371428Y-151235771D02*
X158466666Y-151283390D01*
X158466666Y-151283390D02*
X158514285Y-151331009D01*
X158514285Y-151331009D02*
X158561904Y-151426247D01*
X158561904Y-151426247D02*
X158561904Y-151664342D01*
X158561904Y-151664342D02*
X158514285Y-151759580D01*
X158514285Y-151759580D02*
X158466666Y-151807200D01*
X158466666Y-151807200D02*
X158371428Y-151854819D01*
X158371428Y-151854819D02*
X158133333Y-151854819D01*
X158133333Y-151854819D02*
X158038095Y-151807200D01*
X158038095Y-151807200D02*
X157990476Y-151759580D01*
X107194819Y-118676904D02*
X108004342Y-118676904D01*
X108004342Y-118676904D02*
X108099580Y-118629285D01*
X108099580Y-118629285D02*
X108147200Y-118581666D01*
X108147200Y-118581666D02*
X108194819Y-118486428D01*
X108194819Y-118486428D02*
X108194819Y-118295952D01*
X108194819Y-118295952D02*
X108147200Y-118200714D01*
X108147200Y-118200714D02*
X108099580Y-118153095D01*
X108099580Y-118153095D02*
X108004342Y-118105476D01*
X108004342Y-118105476D02*
X107194819Y-118105476D01*
X108194819Y-117105476D02*
X108194819Y-117676904D01*
X108194819Y-117391190D02*
X107194819Y-117391190D01*
X107194819Y-117391190D02*
X107337676Y-117486428D01*
X107337676Y-117486428D02*
X107432914Y-117581666D01*
X107432914Y-117581666D02*
X107480533Y-117676904D01*
X119844019Y-139690323D02*
X120653542Y-139690323D01*
X120653542Y-139690323D02*
X120748780Y-139642704D01*
X120748780Y-139642704D02*
X120796400Y-139595085D01*
X120796400Y-139595085D02*
X120844019Y-139499847D01*
X120844019Y-139499847D02*
X120844019Y-139309371D01*
X120844019Y-139309371D02*
X120796400Y-139214133D01*
X120796400Y-139214133D02*
X120748780Y-139166514D01*
X120748780Y-139166514D02*
X120653542Y-139118895D01*
X120653542Y-139118895D02*
X119844019Y-139118895D01*
X120796400Y-138690323D02*
X120844019Y-138547466D01*
X120844019Y-138547466D02*
X120844019Y-138309371D01*
X120844019Y-138309371D02*
X120796400Y-138214133D01*
X120796400Y-138214133D02*
X120748780Y-138166514D01*
X120748780Y-138166514D02*
X120653542Y-138118895D01*
X120653542Y-138118895D02*
X120558304Y-138118895D01*
X120558304Y-138118895D02*
X120463066Y-138166514D01*
X120463066Y-138166514D02*
X120415447Y-138214133D01*
X120415447Y-138214133D02*
X120367828Y-138309371D01*
X120367828Y-138309371D02*
X120320209Y-138499847D01*
X120320209Y-138499847D02*
X120272590Y-138595085D01*
X120272590Y-138595085D02*
X120224971Y-138642704D01*
X120224971Y-138642704D02*
X120129733Y-138690323D01*
X120129733Y-138690323D02*
X120034495Y-138690323D01*
X120034495Y-138690323D02*
X119939257Y-138642704D01*
X119939257Y-138642704D02*
X119891638Y-138595085D01*
X119891638Y-138595085D02*
X119844019Y-138499847D01*
X119844019Y-138499847D02*
X119844019Y-138261752D01*
X119844019Y-138261752D02*
X119891638Y-138118895D01*
X120320209Y-137356990D02*
X120367828Y-137214133D01*
X120367828Y-137214133D02*
X120415447Y-137166514D01*
X120415447Y-137166514D02*
X120510685Y-137118895D01*
X120510685Y-137118895D02*
X120653542Y-137118895D01*
X120653542Y-137118895D02*
X120748780Y-137166514D01*
X120748780Y-137166514D02*
X120796400Y-137214133D01*
X120796400Y-137214133D02*
X120844019Y-137309371D01*
X120844019Y-137309371D02*
X120844019Y-137690323D01*
X120844019Y-137690323D02*
X119844019Y-137690323D01*
X119844019Y-137690323D02*
X119844019Y-137356990D01*
X119844019Y-137356990D02*
X119891638Y-137261752D01*
X119891638Y-137261752D02*
X119939257Y-137214133D01*
X119939257Y-137214133D02*
X120034495Y-137166514D01*
X120034495Y-137166514D02*
X120129733Y-137166514D01*
X120129733Y-137166514D02*
X120224971Y-137214133D01*
X120224971Y-137214133D02*
X120272590Y-137261752D01*
X120272590Y-137261752D02*
X120320209Y-137356990D01*
X120320209Y-137356990D02*
X120320209Y-137690323D01*
X120844019Y-135928418D02*
X119844019Y-135928418D01*
X120320209Y-135928418D02*
X120320209Y-135356990D01*
X120844019Y-135356990D02*
X119844019Y-135356990D01*
X120844019Y-134737942D02*
X120796400Y-134833180D01*
X120796400Y-134833180D02*
X120748780Y-134880799D01*
X120748780Y-134880799D02*
X120653542Y-134928418D01*
X120653542Y-134928418D02*
X120367828Y-134928418D01*
X120367828Y-134928418D02*
X120272590Y-134880799D01*
X120272590Y-134880799D02*
X120224971Y-134833180D01*
X120224971Y-134833180D02*
X120177352Y-134737942D01*
X120177352Y-134737942D02*
X120177352Y-134595085D01*
X120177352Y-134595085D02*
X120224971Y-134499847D01*
X120224971Y-134499847D02*
X120272590Y-134452228D01*
X120272590Y-134452228D02*
X120367828Y-134404609D01*
X120367828Y-134404609D02*
X120653542Y-134404609D01*
X120653542Y-134404609D02*
X120748780Y-134452228D01*
X120748780Y-134452228D02*
X120796400Y-134499847D01*
X120796400Y-134499847D02*
X120844019Y-134595085D01*
X120844019Y-134595085D02*
X120844019Y-134737942D01*
X120796400Y-134023656D02*
X120844019Y-133928418D01*
X120844019Y-133928418D02*
X120844019Y-133737942D01*
X120844019Y-133737942D02*
X120796400Y-133642704D01*
X120796400Y-133642704D02*
X120701161Y-133595085D01*
X120701161Y-133595085D02*
X120653542Y-133595085D01*
X120653542Y-133595085D02*
X120558304Y-133642704D01*
X120558304Y-133642704D02*
X120510685Y-133737942D01*
X120510685Y-133737942D02*
X120510685Y-133880799D01*
X120510685Y-133880799D02*
X120463066Y-133976037D01*
X120463066Y-133976037D02*
X120367828Y-134023656D01*
X120367828Y-134023656D02*
X120320209Y-134023656D01*
X120320209Y-134023656D02*
X120224971Y-133976037D01*
X120224971Y-133976037D02*
X120177352Y-133880799D01*
X120177352Y-133880799D02*
X120177352Y-133737942D01*
X120177352Y-133737942D02*
X120224971Y-133642704D01*
X120177352Y-133309370D02*
X120177352Y-132928418D01*
X119844019Y-133166513D02*
X120701161Y-133166513D01*
X120701161Y-133166513D02*
X120796400Y-133118894D01*
X120796400Y-133118894D02*
X120844019Y-133023656D01*
X120844019Y-133023656D02*
X120844019Y-132928418D01*
X116638095Y-144039819D02*
X116638095Y-144849342D01*
X116638095Y-144849342D02*
X116685714Y-144944580D01*
X116685714Y-144944580D02*
X116733333Y-144992200D01*
X116733333Y-144992200D02*
X116828571Y-145039819D01*
X116828571Y-145039819D02*
X117019047Y-145039819D01*
X117019047Y-145039819D02*
X117114285Y-144992200D01*
X117114285Y-144992200D02*
X117161904Y-144944580D01*
X117161904Y-144944580D02*
X117209523Y-144849342D01*
X117209523Y-144849342D02*
X117209523Y-144039819D01*
X117638095Y-144992200D02*
X117780952Y-145039819D01*
X117780952Y-145039819D02*
X118019047Y-145039819D01*
X118019047Y-145039819D02*
X118114285Y-144992200D01*
X118114285Y-144992200D02*
X118161904Y-144944580D01*
X118161904Y-144944580D02*
X118209523Y-144849342D01*
X118209523Y-144849342D02*
X118209523Y-144754104D01*
X118209523Y-144754104D02*
X118161904Y-144658866D01*
X118161904Y-144658866D02*
X118114285Y-144611247D01*
X118114285Y-144611247D02*
X118019047Y-144563628D01*
X118019047Y-144563628D02*
X117828571Y-144516009D01*
X117828571Y-144516009D02*
X117733333Y-144468390D01*
X117733333Y-144468390D02*
X117685714Y-144420771D01*
X117685714Y-144420771D02*
X117638095Y-144325533D01*
X117638095Y-144325533D02*
X117638095Y-144230295D01*
X117638095Y-144230295D02*
X117685714Y-144135057D01*
X117685714Y-144135057D02*
X117733333Y-144087438D01*
X117733333Y-144087438D02*
X117828571Y-144039819D01*
X117828571Y-144039819D02*
X118066666Y-144039819D01*
X118066666Y-144039819D02*
X118209523Y-144087438D01*
X118971428Y-144516009D02*
X119114285Y-144563628D01*
X119114285Y-144563628D02*
X119161904Y-144611247D01*
X119161904Y-144611247D02*
X119209523Y-144706485D01*
X119209523Y-144706485D02*
X119209523Y-144849342D01*
X119209523Y-144849342D02*
X119161904Y-144944580D01*
X119161904Y-144944580D02*
X119114285Y-144992200D01*
X119114285Y-144992200D02*
X119019047Y-145039819D01*
X119019047Y-145039819D02*
X118638095Y-145039819D01*
X118638095Y-145039819D02*
X118638095Y-144039819D01*
X118638095Y-144039819D02*
X118971428Y-144039819D01*
X118971428Y-144039819D02*
X119066666Y-144087438D01*
X119066666Y-144087438D02*
X119114285Y-144135057D01*
X119114285Y-144135057D02*
X119161904Y-144230295D01*
X119161904Y-144230295D02*
X119161904Y-144325533D01*
X119161904Y-144325533D02*
X119114285Y-144420771D01*
X119114285Y-144420771D02*
X119066666Y-144468390D01*
X119066666Y-144468390D02*
X118971428Y-144516009D01*
X118971428Y-144516009D02*
X118638095Y-144516009D01*
X118354819Y-96904047D02*
X117354819Y-96904047D01*
X117354819Y-96904047D02*
X118069104Y-96570714D01*
X118069104Y-96570714D02*
X117354819Y-96237381D01*
X117354819Y-96237381D02*
X118354819Y-96237381D01*
X118354819Y-95761190D02*
X117688152Y-95761190D01*
X117354819Y-95761190D02*
X117402438Y-95808809D01*
X117402438Y-95808809D02*
X117450057Y-95761190D01*
X117450057Y-95761190D02*
X117402438Y-95713571D01*
X117402438Y-95713571D02*
X117354819Y-95761190D01*
X117354819Y-95761190D02*
X117450057Y-95761190D01*
X118307200Y-94856429D02*
X118354819Y-94951667D01*
X118354819Y-94951667D02*
X118354819Y-95142143D01*
X118354819Y-95142143D02*
X118307200Y-95237381D01*
X118307200Y-95237381D02*
X118259580Y-95285000D01*
X118259580Y-95285000D02*
X118164342Y-95332619D01*
X118164342Y-95332619D02*
X117878628Y-95332619D01*
X117878628Y-95332619D02*
X117783390Y-95285000D01*
X117783390Y-95285000D02*
X117735771Y-95237381D01*
X117735771Y-95237381D02*
X117688152Y-95142143D01*
X117688152Y-95142143D02*
X117688152Y-94951667D01*
X117688152Y-94951667D02*
X117735771Y-94856429D01*
X118354819Y-94427857D02*
X117688152Y-94427857D01*
X117878628Y-94427857D02*
X117783390Y-94380238D01*
X117783390Y-94380238D02*
X117735771Y-94332619D01*
X117735771Y-94332619D02*
X117688152Y-94237381D01*
X117688152Y-94237381D02*
X117688152Y-94142143D01*
X118354819Y-93665952D02*
X118307200Y-93761190D01*
X118307200Y-93761190D02*
X118259580Y-93808809D01*
X118259580Y-93808809D02*
X118164342Y-93856428D01*
X118164342Y-93856428D02*
X117878628Y-93856428D01*
X117878628Y-93856428D02*
X117783390Y-93808809D01*
X117783390Y-93808809D02*
X117735771Y-93761190D01*
X117735771Y-93761190D02*
X117688152Y-93665952D01*
X117688152Y-93665952D02*
X117688152Y-93523095D01*
X117688152Y-93523095D02*
X117735771Y-93427857D01*
X117735771Y-93427857D02*
X117783390Y-93380238D01*
X117783390Y-93380238D02*
X117878628Y-93332619D01*
X117878628Y-93332619D02*
X118164342Y-93332619D01*
X118164342Y-93332619D02*
X118259580Y-93380238D01*
X118259580Y-93380238D02*
X118307200Y-93427857D01*
X118307200Y-93427857D02*
X118354819Y-93523095D01*
X118354819Y-93523095D02*
X118354819Y-93665952D01*
X118307200Y-92189761D02*
X118354819Y-92046904D01*
X118354819Y-92046904D02*
X118354819Y-91808809D01*
X118354819Y-91808809D02*
X118307200Y-91713571D01*
X118307200Y-91713571D02*
X118259580Y-91665952D01*
X118259580Y-91665952D02*
X118164342Y-91618333D01*
X118164342Y-91618333D02*
X118069104Y-91618333D01*
X118069104Y-91618333D02*
X117973866Y-91665952D01*
X117973866Y-91665952D02*
X117926247Y-91713571D01*
X117926247Y-91713571D02*
X117878628Y-91808809D01*
X117878628Y-91808809D02*
X117831009Y-91999285D01*
X117831009Y-91999285D02*
X117783390Y-92094523D01*
X117783390Y-92094523D02*
X117735771Y-92142142D01*
X117735771Y-92142142D02*
X117640533Y-92189761D01*
X117640533Y-92189761D02*
X117545295Y-92189761D01*
X117545295Y-92189761D02*
X117450057Y-92142142D01*
X117450057Y-92142142D02*
X117402438Y-92094523D01*
X117402438Y-92094523D02*
X117354819Y-91999285D01*
X117354819Y-91999285D02*
X117354819Y-91761190D01*
X117354819Y-91761190D02*
X117402438Y-91618333D01*
X118354819Y-91189761D02*
X117354819Y-91189761D01*
X117354819Y-91189761D02*
X117354819Y-90951666D01*
X117354819Y-90951666D02*
X117402438Y-90808809D01*
X117402438Y-90808809D02*
X117497676Y-90713571D01*
X117497676Y-90713571D02*
X117592914Y-90665952D01*
X117592914Y-90665952D02*
X117783390Y-90618333D01*
X117783390Y-90618333D02*
X117926247Y-90618333D01*
X117926247Y-90618333D02*
X118116723Y-90665952D01*
X118116723Y-90665952D02*
X118211961Y-90713571D01*
X118211961Y-90713571D02*
X118307200Y-90808809D01*
X118307200Y-90808809D02*
X118354819Y-90951666D01*
X118354819Y-90951666D02*
X118354819Y-91189761D01*
X111766256Y-129911009D02*
X112099589Y-129911009D01*
X112242446Y-130434819D02*
X111766256Y-130434819D01*
X111766256Y-130434819D02*
X111766256Y-129434819D01*
X111766256Y-129434819D02*
X112242446Y-129434819D01*
X112528161Y-129768152D02*
X112909113Y-129768152D01*
X112671018Y-129434819D02*
X112671018Y-130291961D01*
X112671018Y-130291961D02*
X112718637Y-130387200D01*
X112718637Y-130387200D02*
X112813875Y-130434819D01*
X112813875Y-130434819D02*
X112909113Y-130434819D01*
X113242447Y-130434819D02*
X113242447Y-129434819D01*
X113671018Y-130434819D02*
X113671018Y-129911009D01*
X113671018Y-129911009D02*
X113623399Y-129815771D01*
X113623399Y-129815771D02*
X113528161Y-129768152D01*
X113528161Y-129768152D02*
X113385304Y-129768152D01*
X113385304Y-129768152D02*
X113290066Y-129815771D01*
X113290066Y-129815771D02*
X113242447Y-129863390D01*
X114528161Y-130387200D02*
X114432923Y-130434819D01*
X114432923Y-130434819D02*
X114242447Y-130434819D01*
X114242447Y-130434819D02*
X114147209Y-130387200D01*
X114147209Y-130387200D02*
X114099590Y-130291961D01*
X114099590Y-130291961D02*
X114099590Y-129911009D01*
X114099590Y-129911009D02*
X114147209Y-129815771D01*
X114147209Y-129815771D02*
X114242447Y-129768152D01*
X114242447Y-129768152D02*
X114432923Y-129768152D01*
X114432923Y-129768152D02*
X114528161Y-129815771D01*
X114528161Y-129815771D02*
X114575780Y-129911009D01*
X114575780Y-129911009D02*
X114575780Y-130006247D01*
X114575780Y-130006247D02*
X114099590Y-130101485D01*
X115004352Y-130434819D02*
X115004352Y-129768152D01*
X115004352Y-129958628D02*
X115051971Y-129863390D01*
X115051971Y-129863390D02*
X115099590Y-129815771D01*
X115099590Y-129815771D02*
X115194828Y-129768152D01*
X115194828Y-129768152D02*
X115290066Y-129768152D01*
X115623400Y-129768152D02*
X115623400Y-130434819D01*
X115623400Y-129863390D02*
X115671019Y-129815771D01*
X115671019Y-129815771D02*
X115766257Y-129768152D01*
X115766257Y-129768152D02*
X115909114Y-129768152D01*
X115909114Y-129768152D02*
X116004352Y-129815771D01*
X116004352Y-129815771D02*
X116051971Y-129911009D01*
X116051971Y-129911009D02*
X116051971Y-130434819D01*
X116909114Y-130387200D02*
X116813876Y-130434819D01*
X116813876Y-130434819D02*
X116623400Y-130434819D01*
X116623400Y-130434819D02*
X116528162Y-130387200D01*
X116528162Y-130387200D02*
X116480543Y-130291961D01*
X116480543Y-130291961D02*
X116480543Y-129911009D01*
X116480543Y-129911009D02*
X116528162Y-129815771D01*
X116528162Y-129815771D02*
X116623400Y-129768152D01*
X116623400Y-129768152D02*
X116813876Y-129768152D01*
X116813876Y-129768152D02*
X116909114Y-129815771D01*
X116909114Y-129815771D02*
X116956733Y-129911009D01*
X116956733Y-129911009D02*
X116956733Y-130006247D01*
X116956733Y-130006247D02*
X116480543Y-130101485D01*
X117242448Y-129768152D02*
X117623400Y-129768152D01*
X117385305Y-129434819D02*
X117385305Y-130291961D01*
X117385305Y-130291961D02*
X117432924Y-130387200D01*
X117432924Y-130387200D02*
X117528162Y-130434819D01*
X117528162Y-130434819D02*
X117623400Y-130434819D01*
X158364318Y-82206095D02*
X159078603Y-82206095D01*
X159078603Y-82206095D02*
X159221460Y-82253714D01*
X159221460Y-82253714D02*
X159316699Y-82348952D01*
X159316699Y-82348952D02*
X159364318Y-82491809D01*
X159364318Y-82491809D02*
X159364318Y-82587047D01*
X158364318Y-81825142D02*
X158364318Y-81158476D01*
X158364318Y-81158476D02*
X159364318Y-81587047D01*
X154202260Y-97105319D02*
X154107022Y-97057700D01*
X154107022Y-97057700D02*
X154011784Y-96962462D01*
X154011784Y-96962462D02*
X153868927Y-96819604D01*
X153868927Y-96819604D02*
X153773689Y-96771985D01*
X153773689Y-96771985D02*
X153678451Y-96771985D01*
X153726070Y-97010081D02*
X153630832Y-96962462D01*
X153630832Y-96962462D02*
X153535594Y-96867223D01*
X153535594Y-96867223D02*
X153487975Y-96676747D01*
X153487975Y-96676747D02*
X153487975Y-96343414D01*
X153487975Y-96343414D02*
X153535594Y-96152938D01*
X153535594Y-96152938D02*
X153630832Y-96057700D01*
X153630832Y-96057700D02*
X153726070Y-96010081D01*
X153726070Y-96010081D02*
X153916546Y-96010081D01*
X153916546Y-96010081D02*
X154011784Y-96057700D01*
X154011784Y-96057700D02*
X154107022Y-96152938D01*
X154107022Y-96152938D02*
X154154641Y-96343414D01*
X154154641Y-96343414D02*
X154154641Y-96676747D01*
X154154641Y-96676747D02*
X154107022Y-96867223D01*
X154107022Y-96867223D02*
X154011784Y-96962462D01*
X154011784Y-96962462D02*
X153916546Y-97010081D01*
X153916546Y-97010081D02*
X153726070Y-97010081D01*
X155107022Y-97010081D02*
X154535594Y-97010081D01*
X154821308Y-97010081D02*
X154821308Y-96010081D01*
X154821308Y-96010081D02*
X154726070Y-96152938D01*
X154726070Y-96152938D02*
X154630832Y-96248176D01*
X154630832Y-96248176D02*
X154535594Y-96295795D01*
X144130832Y-95610081D02*
X143797499Y-95133890D01*
X143559404Y-95610081D02*
X143559404Y-94610081D01*
X143559404Y-94610081D02*
X143940356Y-94610081D01*
X143940356Y-94610081D02*
X144035594Y-94657700D01*
X144035594Y-94657700D02*
X144083213Y-94705319D01*
X144083213Y-94705319D02*
X144130832Y-94800557D01*
X144130832Y-94800557D02*
X144130832Y-94943414D01*
X144130832Y-94943414D02*
X144083213Y-95038652D01*
X144083213Y-95038652D02*
X144035594Y-95086271D01*
X144035594Y-95086271D02*
X143940356Y-95133890D01*
X143940356Y-95133890D02*
X143559404Y-95133890D01*
X144511785Y-94705319D02*
X144559404Y-94657700D01*
X144559404Y-94657700D02*
X144654642Y-94610081D01*
X144654642Y-94610081D02*
X144892737Y-94610081D01*
X144892737Y-94610081D02*
X144987975Y-94657700D01*
X144987975Y-94657700D02*
X145035594Y-94705319D01*
X145035594Y-94705319D02*
X145083213Y-94800557D01*
X145083213Y-94800557D02*
X145083213Y-94895795D01*
X145083213Y-94895795D02*
X145035594Y-95038652D01*
X145035594Y-95038652D02*
X144464166Y-95610081D01*
X144464166Y-95610081D02*
X145083213Y-95610081D01*
X144130832Y-100110081D02*
X143797499Y-99633890D01*
X143559404Y-100110081D02*
X143559404Y-99110081D01*
X143559404Y-99110081D02*
X143940356Y-99110081D01*
X143940356Y-99110081D02*
X144035594Y-99157700D01*
X144035594Y-99157700D02*
X144083213Y-99205319D01*
X144083213Y-99205319D02*
X144130832Y-99300557D01*
X144130832Y-99300557D02*
X144130832Y-99443414D01*
X144130832Y-99443414D02*
X144083213Y-99538652D01*
X144083213Y-99538652D02*
X144035594Y-99586271D01*
X144035594Y-99586271D02*
X143940356Y-99633890D01*
X143940356Y-99633890D02*
X143559404Y-99633890D01*
X144464166Y-99110081D02*
X145083213Y-99110081D01*
X145083213Y-99110081D02*
X144749880Y-99491033D01*
X144749880Y-99491033D02*
X144892737Y-99491033D01*
X144892737Y-99491033D02*
X144987975Y-99538652D01*
X144987975Y-99538652D02*
X145035594Y-99586271D01*
X145035594Y-99586271D02*
X145083213Y-99681509D01*
X145083213Y-99681509D02*
X145083213Y-99919604D01*
X145083213Y-99919604D02*
X145035594Y-100014842D01*
X145035594Y-100014842D02*
X144987975Y-100062462D01*
X144987975Y-100062462D02*
X144892737Y-100110081D01*
X144892737Y-100110081D02*
X144607023Y-100110081D01*
X144607023Y-100110081D02*
X144511785Y-100062462D01*
X144511785Y-100062462D02*
X144464166Y-100014842D01*
X144130832Y-109540081D02*
X143797499Y-109063890D01*
X143559404Y-109540081D02*
X143559404Y-108540081D01*
X143559404Y-108540081D02*
X143940356Y-108540081D01*
X143940356Y-108540081D02*
X144035594Y-108587700D01*
X144035594Y-108587700D02*
X144083213Y-108635319D01*
X144083213Y-108635319D02*
X144130832Y-108730557D01*
X144130832Y-108730557D02*
X144130832Y-108873414D01*
X144130832Y-108873414D02*
X144083213Y-108968652D01*
X144083213Y-108968652D02*
X144035594Y-109016271D01*
X144035594Y-109016271D02*
X143940356Y-109063890D01*
X143940356Y-109063890D02*
X143559404Y-109063890D01*
X144987975Y-108873414D02*
X144987975Y-109540081D01*
X144749880Y-108492462D02*
X144511785Y-109206747D01*
X144511785Y-109206747D02*
X145130832Y-109206747D01*
X145583333Y-110904819D02*
X145250000Y-110428628D01*
X145011905Y-110904819D02*
X145011905Y-109904819D01*
X145011905Y-109904819D02*
X145392857Y-109904819D01*
X145392857Y-109904819D02*
X145488095Y-109952438D01*
X145488095Y-109952438D02*
X145535714Y-110000057D01*
X145535714Y-110000057D02*
X145583333Y-110095295D01*
X145583333Y-110095295D02*
X145583333Y-110238152D01*
X145583333Y-110238152D02*
X145535714Y-110333390D01*
X145535714Y-110333390D02*
X145488095Y-110381009D01*
X145488095Y-110381009D02*
X145392857Y-110428628D01*
X145392857Y-110428628D02*
X145011905Y-110428628D01*
X146488095Y-109904819D02*
X146011905Y-109904819D01*
X146011905Y-109904819D02*
X145964286Y-110381009D01*
X145964286Y-110381009D02*
X146011905Y-110333390D01*
X146011905Y-110333390D02*
X146107143Y-110285771D01*
X146107143Y-110285771D02*
X146345238Y-110285771D01*
X146345238Y-110285771D02*
X146440476Y-110333390D01*
X146440476Y-110333390D02*
X146488095Y-110381009D01*
X146488095Y-110381009D02*
X146535714Y-110476247D01*
X146535714Y-110476247D02*
X146535714Y-110714342D01*
X146535714Y-110714342D02*
X146488095Y-110809580D01*
X146488095Y-110809580D02*
X146440476Y-110857200D01*
X146440476Y-110857200D02*
X146345238Y-110904819D01*
X146345238Y-110904819D02*
X146107143Y-110904819D01*
X146107143Y-110904819D02*
X146011905Y-110857200D01*
X146011905Y-110857200D02*
X145964286Y-110809580D01*
X144230832Y-105540081D02*
X143897499Y-105063890D01*
X143659404Y-105540081D02*
X143659404Y-104540081D01*
X143659404Y-104540081D02*
X144040356Y-104540081D01*
X144040356Y-104540081D02*
X144135594Y-104587700D01*
X144135594Y-104587700D02*
X144183213Y-104635319D01*
X144183213Y-104635319D02*
X144230832Y-104730557D01*
X144230832Y-104730557D02*
X144230832Y-104873414D01*
X144230832Y-104873414D02*
X144183213Y-104968652D01*
X144183213Y-104968652D02*
X144135594Y-105016271D01*
X144135594Y-105016271D02*
X144040356Y-105063890D01*
X144040356Y-105063890D02*
X143659404Y-105063890D01*
X145087975Y-104540081D02*
X144897499Y-104540081D01*
X144897499Y-104540081D02*
X144802261Y-104587700D01*
X144802261Y-104587700D02*
X144754642Y-104635319D01*
X144754642Y-104635319D02*
X144659404Y-104778176D01*
X144659404Y-104778176D02*
X144611785Y-104968652D01*
X144611785Y-104968652D02*
X144611785Y-105349604D01*
X144611785Y-105349604D02*
X144659404Y-105444842D01*
X144659404Y-105444842D02*
X144707023Y-105492462D01*
X144707023Y-105492462D02*
X144802261Y-105540081D01*
X144802261Y-105540081D02*
X144992737Y-105540081D01*
X144992737Y-105540081D02*
X145087975Y-105492462D01*
X145087975Y-105492462D02*
X145135594Y-105444842D01*
X145135594Y-105444842D02*
X145183213Y-105349604D01*
X145183213Y-105349604D02*
X145183213Y-105111509D01*
X145183213Y-105111509D02*
X145135594Y-105016271D01*
X145135594Y-105016271D02*
X145087975Y-104968652D01*
X145087975Y-104968652D02*
X144992737Y-104921033D01*
X144992737Y-104921033D02*
X144802261Y-104921033D01*
X144802261Y-104921033D02*
X144707023Y-104968652D01*
X144707023Y-104968652D02*
X144659404Y-105016271D01*
X144659404Y-105016271D02*
X144611785Y-105111509D01*
X157035594Y-101110081D02*
X157035594Y-101919604D01*
X157035594Y-101919604D02*
X157083213Y-102014842D01*
X157083213Y-102014842D02*
X157130832Y-102062462D01*
X157130832Y-102062462D02*
X157226070Y-102110081D01*
X157226070Y-102110081D02*
X157416546Y-102110081D01*
X157416546Y-102110081D02*
X157511784Y-102062462D01*
X157511784Y-102062462D02*
X157559403Y-102014842D01*
X157559403Y-102014842D02*
X157607022Y-101919604D01*
X157607022Y-101919604D02*
X157607022Y-101110081D01*
X158035594Y-101205319D02*
X158083213Y-101157700D01*
X158083213Y-101157700D02*
X158178451Y-101110081D01*
X158178451Y-101110081D02*
X158416546Y-101110081D01*
X158416546Y-101110081D02*
X158511784Y-101157700D01*
X158511784Y-101157700D02*
X158559403Y-101205319D01*
X158559403Y-101205319D02*
X158607022Y-101300557D01*
X158607022Y-101300557D02*
X158607022Y-101395795D01*
X158607022Y-101395795D02*
X158559403Y-101538652D01*
X158559403Y-101538652D02*
X157987975Y-102110081D01*
X157987975Y-102110081D02*
X158607022Y-102110081D01*
X157254819Y-127133333D02*
X157969104Y-127133333D01*
X157969104Y-127133333D02*
X158111961Y-127180952D01*
X158111961Y-127180952D02*
X158207200Y-127276190D01*
X158207200Y-127276190D02*
X158254819Y-127419047D01*
X158254819Y-127419047D02*
X158254819Y-127514285D01*
X157683390Y-126514285D02*
X157635771Y-126609523D01*
X157635771Y-126609523D02*
X157588152Y-126657142D01*
X157588152Y-126657142D02*
X157492914Y-126704761D01*
X157492914Y-126704761D02*
X157445295Y-126704761D01*
X157445295Y-126704761D02*
X157350057Y-126657142D01*
X157350057Y-126657142D02*
X157302438Y-126609523D01*
X157302438Y-126609523D02*
X157254819Y-126514285D01*
X157254819Y-126514285D02*
X157254819Y-126323809D01*
X157254819Y-126323809D02*
X157302438Y-126228571D01*
X157302438Y-126228571D02*
X157350057Y-126180952D01*
X157350057Y-126180952D02*
X157445295Y-126133333D01*
X157445295Y-126133333D02*
X157492914Y-126133333D01*
X157492914Y-126133333D02*
X157588152Y-126180952D01*
X157588152Y-126180952D02*
X157635771Y-126228571D01*
X157635771Y-126228571D02*
X157683390Y-126323809D01*
X157683390Y-126323809D02*
X157683390Y-126514285D01*
X157683390Y-126514285D02*
X157731009Y-126609523D01*
X157731009Y-126609523D02*
X157778628Y-126657142D01*
X157778628Y-126657142D02*
X157873866Y-126704761D01*
X157873866Y-126704761D02*
X158064342Y-126704761D01*
X158064342Y-126704761D02*
X158159580Y-126657142D01*
X158159580Y-126657142D02*
X158207200Y-126609523D01*
X158207200Y-126609523D02*
X158254819Y-126514285D01*
X158254819Y-126514285D02*
X158254819Y-126323809D01*
X158254819Y-126323809D02*
X158207200Y-126228571D01*
X158207200Y-126228571D02*
X158159580Y-126180952D01*
X158159580Y-126180952D02*
X158064342Y-126133333D01*
X158064342Y-126133333D02*
X157873866Y-126133333D01*
X157873866Y-126133333D02*
X157778628Y-126180952D01*
X157778628Y-126180952D02*
X157731009Y-126228571D01*
X157731009Y-126228571D02*
X157683390Y-126323809D01*
D11*
X156501165Y-91322747D02*
X156501165Y-91957747D01*
X156501165Y-91957747D02*
X156458832Y-92084747D01*
X156458832Y-92084747D02*
X156374165Y-92169414D01*
X156374165Y-92169414D02*
X156247165Y-92211747D01*
X156247165Y-92211747D02*
X156162499Y-92211747D01*
X157305498Y-91322747D02*
X157136165Y-91322747D01*
X157136165Y-91322747D02*
X157051498Y-91365080D01*
X157051498Y-91365080D02*
X157009165Y-91407414D01*
X157009165Y-91407414D02*
X156924498Y-91534414D01*
X156924498Y-91534414D02*
X156882165Y-91703747D01*
X156882165Y-91703747D02*
X156882165Y-92042414D01*
X156882165Y-92042414D02*
X156924498Y-92127080D01*
X156924498Y-92127080D02*
X156966832Y-92169414D01*
X156966832Y-92169414D02*
X157051498Y-92211747D01*
X157051498Y-92211747D02*
X157220832Y-92211747D01*
X157220832Y-92211747D02*
X157305498Y-92169414D01*
X157305498Y-92169414D02*
X157347832Y-92127080D01*
X157347832Y-92127080D02*
X157390165Y-92042414D01*
X157390165Y-92042414D02*
X157390165Y-91830747D01*
X157390165Y-91830747D02*
X157347832Y-91746080D01*
X157347832Y-91746080D02*
X157305498Y-91703747D01*
X157305498Y-91703747D02*
X157220832Y-91661414D01*
X157220832Y-91661414D02*
X157051498Y-91661414D01*
X157051498Y-91661414D02*
X156966832Y-91703747D01*
X156966832Y-91703747D02*
X156924498Y-91746080D01*
X156924498Y-91746080D02*
X156882165Y-91830747D01*
D10*
X156353571Y-137779819D02*
X156924999Y-137779819D01*
X156639285Y-138779819D02*
X156639285Y-137779819D01*
X157591666Y-138256009D02*
X157258333Y-138256009D01*
X157258333Y-138779819D02*
X157258333Y-137779819D01*
X157258333Y-137779819D02*
X157734523Y-137779819D01*
X157972619Y-137779819D02*
X158544047Y-137779819D01*
X158258333Y-138779819D02*
X158258333Y-137779819D01*
X159067857Y-137779819D02*
X159163095Y-137779819D01*
X159163095Y-137779819D02*
X159258333Y-137827438D01*
X159258333Y-137827438D02*
X159305952Y-137875057D01*
X159305952Y-137875057D02*
X159353571Y-137970295D01*
X159353571Y-137970295D02*
X159401190Y-138160771D01*
X159401190Y-138160771D02*
X159401190Y-138398866D01*
X159401190Y-138398866D02*
X159353571Y-138589342D01*
X159353571Y-138589342D02*
X159305952Y-138684580D01*
X159305952Y-138684580D02*
X159258333Y-138732200D01*
X159258333Y-138732200D02*
X159163095Y-138779819D01*
X159163095Y-138779819D02*
X159067857Y-138779819D01*
X159067857Y-138779819D02*
X158972619Y-138732200D01*
X158972619Y-138732200D02*
X158925000Y-138684580D01*
X158925000Y-138684580D02*
X158877381Y-138589342D01*
X158877381Y-138589342D02*
X158829762Y-138398866D01*
X158829762Y-138398866D02*
X158829762Y-138160771D01*
X158829762Y-138160771D02*
X158877381Y-137970295D01*
X158877381Y-137970295D02*
X158925000Y-137875057D01*
X158925000Y-137875057D02*
X158972619Y-137827438D01*
X158972619Y-137827438D02*
X159067857Y-137779819D01*
X99433333Y-74069104D02*
X99909523Y-74069104D01*
X99338095Y-74354819D02*
X99671428Y-73354819D01*
X99671428Y-73354819D02*
X100004761Y-74354819D01*
X100338095Y-74354819D02*
X100338095Y-73354819D01*
X100338095Y-73354819D02*
X100909523Y-74354819D01*
X100909523Y-74354819D02*
X100909523Y-73354819D01*
X101338095Y-74069104D02*
X101814285Y-74069104D01*
X101242857Y-74354819D02*
X101576190Y-73354819D01*
X101576190Y-73354819D02*
X101909523Y-74354819D01*
X102433333Y-73354819D02*
X102528571Y-73354819D01*
X102528571Y-73354819D02*
X102623809Y-73402438D01*
X102623809Y-73402438D02*
X102671428Y-73450057D01*
X102671428Y-73450057D02*
X102719047Y-73545295D01*
X102719047Y-73545295D02*
X102766666Y-73735771D01*
X102766666Y-73735771D02*
X102766666Y-73973866D01*
X102766666Y-73973866D02*
X102719047Y-74164342D01*
X102719047Y-74164342D02*
X102671428Y-74259580D01*
X102671428Y-74259580D02*
X102623809Y-74307200D01*
X102623809Y-74307200D02*
X102528571Y-74354819D01*
X102528571Y-74354819D02*
X102433333Y-74354819D01*
X102433333Y-74354819D02*
X102338095Y-74307200D01*
X102338095Y-74307200D02*
X102290476Y-74259580D01*
X102290476Y-74259580D02*
X102242857Y-74164342D01*
X102242857Y-74164342D02*
X102195238Y-73973866D01*
X102195238Y-73973866D02*
X102195238Y-73735771D01*
X102195238Y-73735771D02*
X102242857Y-73545295D01*
X102242857Y-73545295D02*
X102290476Y-73450057D01*
X102290476Y-73450057D02*
X102338095Y-73402438D01*
X102338095Y-73402438D02*
X102433333Y-73354819D01*
X104710714Y-74382200D02*
X104853571Y-74429819D01*
X104853571Y-74429819D02*
X105091666Y-74429819D01*
X105091666Y-74429819D02*
X105186904Y-74382200D01*
X105186904Y-74382200D02*
X105234523Y-74334580D01*
X105234523Y-74334580D02*
X105282142Y-74239342D01*
X105282142Y-74239342D02*
X105282142Y-74144104D01*
X105282142Y-74144104D02*
X105234523Y-74048866D01*
X105234523Y-74048866D02*
X105186904Y-74001247D01*
X105186904Y-74001247D02*
X105091666Y-73953628D01*
X105091666Y-73953628D02*
X104901190Y-73906009D01*
X104901190Y-73906009D02*
X104805952Y-73858390D01*
X104805952Y-73858390D02*
X104758333Y-73810771D01*
X104758333Y-73810771D02*
X104710714Y-73715533D01*
X104710714Y-73715533D02*
X104710714Y-73620295D01*
X104710714Y-73620295D02*
X104758333Y-73525057D01*
X104758333Y-73525057D02*
X104805952Y-73477438D01*
X104805952Y-73477438D02*
X104901190Y-73429819D01*
X104901190Y-73429819D02*
X105139285Y-73429819D01*
X105139285Y-73429819D02*
X105282142Y-73477438D01*
X105710714Y-73906009D02*
X106044047Y-73906009D01*
X106186904Y-74429819D02*
X105710714Y-74429819D01*
X105710714Y-74429819D02*
X105710714Y-73429819D01*
X105710714Y-73429819D02*
X106186904Y-73429819D01*
X107186904Y-74429819D02*
X106853571Y-73953628D01*
X106615476Y-74429819D02*
X106615476Y-73429819D01*
X106615476Y-73429819D02*
X106996428Y-73429819D01*
X106996428Y-73429819D02*
X107091666Y-73477438D01*
X107091666Y-73477438D02*
X107139285Y-73525057D01*
X107139285Y-73525057D02*
X107186904Y-73620295D01*
X107186904Y-73620295D02*
X107186904Y-73763152D01*
X107186904Y-73763152D02*
X107139285Y-73858390D01*
X107139285Y-73858390D02*
X107091666Y-73906009D01*
X107091666Y-73906009D02*
X106996428Y-73953628D01*
X106996428Y-73953628D02*
X106615476Y-73953628D01*
X107805952Y-73429819D02*
X107901190Y-73429819D01*
X107901190Y-73429819D02*
X107996428Y-73477438D01*
X107996428Y-73477438D02*
X108044047Y-73525057D01*
X108044047Y-73525057D02*
X108091666Y-73620295D01*
X108091666Y-73620295D02*
X108139285Y-73810771D01*
X108139285Y-73810771D02*
X108139285Y-74048866D01*
X108139285Y-74048866D02*
X108091666Y-74239342D01*
X108091666Y-74239342D02*
X108044047Y-74334580D01*
X108044047Y-74334580D02*
X107996428Y-74382200D01*
X107996428Y-74382200D02*
X107901190Y-74429819D01*
X107901190Y-74429819D02*
X107805952Y-74429819D01*
X107805952Y-74429819D02*
X107710714Y-74382200D01*
X107710714Y-74382200D02*
X107663095Y-74334580D01*
X107663095Y-74334580D02*
X107615476Y-74239342D01*
X107615476Y-74239342D02*
X107567857Y-74048866D01*
X107567857Y-74048866D02*
X107567857Y-73810771D01*
X107567857Y-73810771D02*
X107615476Y-73620295D01*
X107615476Y-73620295D02*
X107663095Y-73525057D01*
X107663095Y-73525057D02*
X107710714Y-73477438D01*
X107710714Y-73477438D02*
X107805952Y-73429819D01*
X74459580Y-128290476D02*
X74507200Y-128338095D01*
X74507200Y-128338095D02*
X74554819Y-128480952D01*
X74554819Y-128480952D02*
X74554819Y-128576190D01*
X74554819Y-128576190D02*
X74507200Y-128719047D01*
X74507200Y-128719047D02*
X74411961Y-128814285D01*
X74411961Y-128814285D02*
X74316723Y-128861904D01*
X74316723Y-128861904D02*
X74126247Y-128909523D01*
X74126247Y-128909523D02*
X73983390Y-128909523D01*
X73983390Y-128909523D02*
X73792914Y-128861904D01*
X73792914Y-128861904D02*
X73697676Y-128814285D01*
X73697676Y-128814285D02*
X73602438Y-128719047D01*
X73602438Y-128719047D02*
X73554819Y-128576190D01*
X73554819Y-128576190D02*
X73554819Y-128480952D01*
X73554819Y-128480952D02*
X73602438Y-128338095D01*
X73602438Y-128338095D02*
X73650057Y-128290476D01*
X74554819Y-127861904D02*
X73554819Y-127861904D01*
X74031009Y-127861904D02*
X74031009Y-127290476D01*
X74554819Y-127290476D02*
X73554819Y-127290476D01*
X73554819Y-126909523D02*
X73554819Y-126290476D01*
X73554819Y-126290476D02*
X73935771Y-126623809D01*
X73935771Y-126623809D02*
X73935771Y-126480952D01*
X73935771Y-126480952D02*
X73983390Y-126385714D01*
X73983390Y-126385714D02*
X74031009Y-126338095D01*
X74031009Y-126338095D02*
X74126247Y-126290476D01*
X74126247Y-126290476D02*
X74364342Y-126290476D01*
X74364342Y-126290476D02*
X74459580Y-126338095D01*
X74459580Y-126338095D02*
X74507200Y-126385714D01*
X74507200Y-126385714D02*
X74554819Y-126480952D01*
X74554819Y-126480952D02*
X74554819Y-126766666D01*
X74554819Y-126766666D02*
X74507200Y-126861904D01*
X74507200Y-126861904D02*
X74459580Y-126909523D01*
X85582142Y-82274819D02*
X85248809Y-81798628D01*
X85010714Y-82274819D02*
X85010714Y-81274819D01*
X85010714Y-81274819D02*
X85391666Y-81274819D01*
X85391666Y-81274819D02*
X85486904Y-81322438D01*
X85486904Y-81322438D02*
X85534523Y-81370057D01*
X85534523Y-81370057D02*
X85582142Y-81465295D01*
X85582142Y-81465295D02*
X85582142Y-81608152D01*
X85582142Y-81608152D02*
X85534523Y-81703390D01*
X85534523Y-81703390D02*
X85486904Y-81751009D01*
X85486904Y-81751009D02*
X85391666Y-81798628D01*
X85391666Y-81798628D02*
X85010714Y-81798628D01*
X85963095Y-81370057D02*
X86010714Y-81322438D01*
X86010714Y-81322438D02*
X86105952Y-81274819D01*
X86105952Y-81274819D02*
X86344047Y-81274819D01*
X86344047Y-81274819D02*
X86439285Y-81322438D01*
X86439285Y-81322438D02*
X86486904Y-81370057D01*
X86486904Y-81370057D02*
X86534523Y-81465295D01*
X86534523Y-81465295D02*
X86534523Y-81560533D01*
X86534523Y-81560533D02*
X86486904Y-81703390D01*
X86486904Y-81703390D02*
X85915476Y-82274819D01*
X85915476Y-82274819D02*
X86534523Y-82274819D01*
X86915476Y-81370057D02*
X86963095Y-81322438D01*
X86963095Y-81322438D02*
X87058333Y-81274819D01*
X87058333Y-81274819D02*
X87296428Y-81274819D01*
X87296428Y-81274819D02*
X87391666Y-81322438D01*
X87391666Y-81322438D02*
X87439285Y-81370057D01*
X87439285Y-81370057D02*
X87486904Y-81465295D01*
X87486904Y-81465295D02*
X87486904Y-81560533D01*
X87486904Y-81560533D02*
X87439285Y-81703390D01*
X87439285Y-81703390D02*
X86867857Y-82274819D01*
X86867857Y-82274819D02*
X87486904Y-82274819D01*
X79354819Y-122042857D02*
X78878628Y-122376190D01*
X79354819Y-122614285D02*
X78354819Y-122614285D01*
X78354819Y-122614285D02*
X78354819Y-122233333D01*
X78354819Y-122233333D02*
X78402438Y-122138095D01*
X78402438Y-122138095D02*
X78450057Y-122090476D01*
X78450057Y-122090476D02*
X78545295Y-122042857D01*
X78545295Y-122042857D02*
X78688152Y-122042857D01*
X78688152Y-122042857D02*
X78783390Y-122090476D01*
X78783390Y-122090476D02*
X78831009Y-122138095D01*
X78831009Y-122138095D02*
X78878628Y-122233333D01*
X78878628Y-122233333D02*
X78878628Y-122614285D01*
X79354819Y-121090476D02*
X79354819Y-121661904D01*
X79354819Y-121376190D02*
X78354819Y-121376190D01*
X78354819Y-121376190D02*
X78497676Y-121471428D01*
X78497676Y-121471428D02*
X78592914Y-121566666D01*
X78592914Y-121566666D02*
X78640533Y-121661904D01*
X78354819Y-120757142D02*
X78354819Y-120090476D01*
X78354819Y-120090476D02*
X79354819Y-120519047D01*
X77854819Y-111042857D02*
X77378628Y-111376190D01*
X77854819Y-111614285D02*
X76854819Y-111614285D01*
X76854819Y-111614285D02*
X76854819Y-111233333D01*
X76854819Y-111233333D02*
X76902438Y-111138095D01*
X76902438Y-111138095D02*
X76950057Y-111090476D01*
X76950057Y-111090476D02*
X77045295Y-111042857D01*
X77045295Y-111042857D02*
X77188152Y-111042857D01*
X77188152Y-111042857D02*
X77283390Y-111090476D01*
X77283390Y-111090476D02*
X77331009Y-111138095D01*
X77331009Y-111138095D02*
X77378628Y-111233333D01*
X77378628Y-111233333D02*
X77378628Y-111614285D01*
X77854819Y-110090476D02*
X77854819Y-110661904D01*
X77854819Y-110376190D02*
X76854819Y-110376190D01*
X76854819Y-110376190D02*
X76997676Y-110471428D01*
X76997676Y-110471428D02*
X77092914Y-110566666D01*
X77092914Y-110566666D02*
X77140533Y-110661904D01*
X76854819Y-109185714D02*
X76854819Y-109661904D01*
X76854819Y-109661904D02*
X77331009Y-109709523D01*
X77331009Y-109709523D02*
X77283390Y-109661904D01*
X77283390Y-109661904D02*
X77235771Y-109566666D01*
X77235771Y-109566666D02*
X77235771Y-109328571D01*
X77235771Y-109328571D02*
X77283390Y-109233333D01*
X77283390Y-109233333D02*
X77331009Y-109185714D01*
X77331009Y-109185714D02*
X77426247Y-109138095D01*
X77426247Y-109138095D02*
X77664342Y-109138095D01*
X77664342Y-109138095D02*
X77759580Y-109185714D01*
X77759580Y-109185714D02*
X77807200Y-109233333D01*
X77807200Y-109233333D02*
X77854819Y-109328571D01*
X77854819Y-109328571D02*
X77854819Y-109566666D01*
X77854819Y-109566666D02*
X77807200Y-109661904D01*
X77807200Y-109661904D02*
X77759580Y-109709523D01*
X83582142Y-85624819D02*
X83248809Y-85148628D01*
X83010714Y-85624819D02*
X83010714Y-84624819D01*
X83010714Y-84624819D02*
X83391666Y-84624819D01*
X83391666Y-84624819D02*
X83486904Y-84672438D01*
X83486904Y-84672438D02*
X83534523Y-84720057D01*
X83534523Y-84720057D02*
X83582142Y-84815295D01*
X83582142Y-84815295D02*
X83582142Y-84958152D01*
X83582142Y-84958152D02*
X83534523Y-85053390D01*
X83534523Y-85053390D02*
X83486904Y-85101009D01*
X83486904Y-85101009D02*
X83391666Y-85148628D01*
X83391666Y-85148628D02*
X83010714Y-85148628D01*
X83963095Y-84720057D02*
X84010714Y-84672438D01*
X84010714Y-84672438D02*
X84105952Y-84624819D01*
X84105952Y-84624819D02*
X84344047Y-84624819D01*
X84344047Y-84624819D02*
X84439285Y-84672438D01*
X84439285Y-84672438D02*
X84486904Y-84720057D01*
X84486904Y-84720057D02*
X84534523Y-84815295D01*
X84534523Y-84815295D02*
X84534523Y-84910533D01*
X84534523Y-84910533D02*
X84486904Y-85053390D01*
X84486904Y-85053390D02*
X83915476Y-85624819D01*
X83915476Y-85624819D02*
X84534523Y-85624819D01*
X85486904Y-85624819D02*
X84915476Y-85624819D01*
X85201190Y-85624819D02*
X85201190Y-84624819D01*
X85201190Y-84624819D02*
X85105952Y-84767676D01*
X85105952Y-84767676D02*
X85010714Y-84862914D01*
X85010714Y-84862914D02*
X84915476Y-84910533D01*
X111104819Y-154713094D02*
X110104819Y-154713094D01*
X110104819Y-154713094D02*
X110104819Y-154474999D01*
X110104819Y-154474999D02*
X110152438Y-154332142D01*
X110152438Y-154332142D02*
X110247676Y-154236904D01*
X110247676Y-154236904D02*
X110342914Y-154189285D01*
X110342914Y-154189285D02*
X110533390Y-154141666D01*
X110533390Y-154141666D02*
X110676247Y-154141666D01*
X110676247Y-154141666D02*
X110866723Y-154189285D01*
X110866723Y-154189285D02*
X110961961Y-154236904D01*
X110961961Y-154236904D02*
X111057200Y-154332142D01*
X111057200Y-154332142D02*
X111104819Y-154474999D01*
X111104819Y-154474999D02*
X111104819Y-154713094D01*
X110438152Y-153284523D02*
X111104819Y-153284523D01*
X110057200Y-153522618D02*
X110771485Y-153760713D01*
X110771485Y-153760713D02*
X110771485Y-153141666D01*
X92479819Y-76142857D02*
X92003628Y-76476190D01*
X92479819Y-76714285D02*
X91479819Y-76714285D01*
X91479819Y-76714285D02*
X91479819Y-76333333D01*
X91479819Y-76333333D02*
X91527438Y-76238095D01*
X91527438Y-76238095D02*
X91575057Y-76190476D01*
X91575057Y-76190476D02*
X91670295Y-76142857D01*
X91670295Y-76142857D02*
X91813152Y-76142857D01*
X91813152Y-76142857D02*
X91908390Y-76190476D01*
X91908390Y-76190476D02*
X91956009Y-76238095D01*
X91956009Y-76238095D02*
X92003628Y-76333333D01*
X92003628Y-76333333D02*
X92003628Y-76714285D01*
X91575057Y-75761904D02*
X91527438Y-75714285D01*
X91527438Y-75714285D02*
X91479819Y-75619047D01*
X91479819Y-75619047D02*
X91479819Y-75380952D01*
X91479819Y-75380952D02*
X91527438Y-75285714D01*
X91527438Y-75285714D02*
X91575057Y-75238095D01*
X91575057Y-75238095D02*
X91670295Y-75190476D01*
X91670295Y-75190476D02*
X91765533Y-75190476D01*
X91765533Y-75190476D02*
X91908390Y-75238095D01*
X91908390Y-75238095D02*
X92479819Y-75809523D01*
X92479819Y-75809523D02*
X92479819Y-75190476D01*
X91908390Y-74619047D02*
X91860771Y-74714285D01*
X91860771Y-74714285D02*
X91813152Y-74761904D01*
X91813152Y-74761904D02*
X91717914Y-74809523D01*
X91717914Y-74809523D02*
X91670295Y-74809523D01*
X91670295Y-74809523D02*
X91575057Y-74761904D01*
X91575057Y-74761904D02*
X91527438Y-74714285D01*
X91527438Y-74714285D02*
X91479819Y-74619047D01*
X91479819Y-74619047D02*
X91479819Y-74428571D01*
X91479819Y-74428571D02*
X91527438Y-74333333D01*
X91527438Y-74333333D02*
X91575057Y-74285714D01*
X91575057Y-74285714D02*
X91670295Y-74238095D01*
X91670295Y-74238095D02*
X91717914Y-74238095D01*
X91717914Y-74238095D02*
X91813152Y-74285714D01*
X91813152Y-74285714D02*
X91860771Y-74333333D01*
X91860771Y-74333333D02*
X91908390Y-74428571D01*
X91908390Y-74428571D02*
X91908390Y-74619047D01*
X91908390Y-74619047D02*
X91956009Y-74714285D01*
X91956009Y-74714285D02*
X92003628Y-74761904D01*
X92003628Y-74761904D02*
X92098866Y-74809523D01*
X92098866Y-74809523D02*
X92289342Y-74809523D01*
X92289342Y-74809523D02*
X92384580Y-74761904D01*
X92384580Y-74761904D02*
X92432200Y-74714285D01*
X92432200Y-74714285D02*
X92479819Y-74619047D01*
X92479819Y-74619047D02*
X92479819Y-74428571D01*
X92479819Y-74428571D02*
X92432200Y-74333333D01*
X92432200Y-74333333D02*
X92384580Y-74285714D01*
X92384580Y-74285714D02*
X92289342Y-74238095D01*
X92289342Y-74238095D02*
X92098866Y-74238095D01*
X92098866Y-74238095D02*
X92003628Y-74285714D01*
X92003628Y-74285714D02*
X91956009Y-74333333D01*
X91956009Y-74333333D02*
X91908390Y-74428571D01*
X90261905Y-131254819D02*
X90261905Y-130254819D01*
X90261905Y-130254819D02*
X90500000Y-130254819D01*
X90500000Y-130254819D02*
X90642857Y-130302438D01*
X90642857Y-130302438D02*
X90738095Y-130397676D01*
X90738095Y-130397676D02*
X90785714Y-130492914D01*
X90785714Y-130492914D02*
X90833333Y-130683390D01*
X90833333Y-130683390D02*
X90833333Y-130826247D01*
X90833333Y-130826247D02*
X90785714Y-131016723D01*
X90785714Y-131016723D02*
X90738095Y-131111961D01*
X90738095Y-131111961D02*
X90642857Y-131207200D01*
X90642857Y-131207200D02*
X90500000Y-131254819D01*
X90500000Y-131254819D02*
X90261905Y-131254819D01*
X91214286Y-130350057D02*
X91261905Y-130302438D01*
X91261905Y-130302438D02*
X91357143Y-130254819D01*
X91357143Y-130254819D02*
X91595238Y-130254819D01*
X91595238Y-130254819D02*
X91690476Y-130302438D01*
X91690476Y-130302438D02*
X91738095Y-130350057D01*
X91738095Y-130350057D02*
X91785714Y-130445295D01*
X91785714Y-130445295D02*
X91785714Y-130540533D01*
X91785714Y-130540533D02*
X91738095Y-130683390D01*
X91738095Y-130683390D02*
X91166667Y-131254819D01*
X91166667Y-131254819D02*
X91785714Y-131254819D01*
X88183333Y-114479580D02*
X88135714Y-114527200D01*
X88135714Y-114527200D02*
X87992857Y-114574819D01*
X87992857Y-114574819D02*
X87897619Y-114574819D01*
X87897619Y-114574819D02*
X87754762Y-114527200D01*
X87754762Y-114527200D02*
X87659524Y-114431961D01*
X87659524Y-114431961D02*
X87611905Y-114336723D01*
X87611905Y-114336723D02*
X87564286Y-114146247D01*
X87564286Y-114146247D02*
X87564286Y-114003390D01*
X87564286Y-114003390D02*
X87611905Y-113812914D01*
X87611905Y-113812914D02*
X87659524Y-113717676D01*
X87659524Y-113717676D02*
X87754762Y-113622438D01*
X87754762Y-113622438D02*
X87897619Y-113574819D01*
X87897619Y-113574819D02*
X87992857Y-113574819D01*
X87992857Y-113574819D02*
X88135714Y-113622438D01*
X88135714Y-113622438D02*
X88183333Y-113670057D01*
X88516667Y-113574819D02*
X89135714Y-113574819D01*
X89135714Y-113574819D02*
X88802381Y-113955771D01*
X88802381Y-113955771D02*
X88945238Y-113955771D01*
X88945238Y-113955771D02*
X89040476Y-114003390D01*
X89040476Y-114003390D02*
X89088095Y-114051009D01*
X89088095Y-114051009D02*
X89135714Y-114146247D01*
X89135714Y-114146247D02*
X89135714Y-114384342D01*
X89135714Y-114384342D02*
X89088095Y-114479580D01*
X89088095Y-114479580D02*
X89040476Y-114527200D01*
X89040476Y-114527200D02*
X88945238Y-114574819D01*
X88945238Y-114574819D02*
X88659524Y-114574819D01*
X88659524Y-114574819D02*
X88564286Y-114527200D01*
X88564286Y-114527200D02*
X88516667Y-114479580D01*
X141957142Y-150754819D02*
X141623809Y-150278628D01*
X141385714Y-150754819D02*
X141385714Y-149754819D01*
X141385714Y-149754819D02*
X141766666Y-149754819D01*
X141766666Y-149754819D02*
X141861904Y-149802438D01*
X141861904Y-149802438D02*
X141909523Y-149850057D01*
X141909523Y-149850057D02*
X141957142Y-149945295D01*
X141957142Y-149945295D02*
X141957142Y-150088152D01*
X141957142Y-150088152D02*
X141909523Y-150183390D01*
X141909523Y-150183390D02*
X141861904Y-150231009D01*
X141861904Y-150231009D02*
X141766666Y-150278628D01*
X141766666Y-150278628D02*
X141385714Y-150278628D01*
X142814285Y-150088152D02*
X142814285Y-150754819D01*
X142576190Y-149707200D02*
X142338095Y-150421485D01*
X142338095Y-150421485D02*
X142957142Y-150421485D01*
X143766666Y-150088152D02*
X143766666Y-150754819D01*
X143528571Y-149707200D02*
X143290476Y-150421485D01*
X143290476Y-150421485D02*
X143909523Y-150421485D01*
X76354819Y-122042857D02*
X75878628Y-122376190D01*
X76354819Y-122614285D02*
X75354819Y-122614285D01*
X75354819Y-122614285D02*
X75354819Y-122233333D01*
X75354819Y-122233333D02*
X75402438Y-122138095D01*
X75402438Y-122138095D02*
X75450057Y-122090476D01*
X75450057Y-122090476D02*
X75545295Y-122042857D01*
X75545295Y-122042857D02*
X75688152Y-122042857D01*
X75688152Y-122042857D02*
X75783390Y-122090476D01*
X75783390Y-122090476D02*
X75831009Y-122138095D01*
X75831009Y-122138095D02*
X75878628Y-122233333D01*
X75878628Y-122233333D02*
X75878628Y-122614285D01*
X76354819Y-121090476D02*
X76354819Y-121661904D01*
X76354819Y-121376190D02*
X75354819Y-121376190D01*
X75354819Y-121376190D02*
X75497676Y-121471428D01*
X75497676Y-121471428D02*
X75592914Y-121566666D01*
X75592914Y-121566666D02*
X75640533Y-121661904D01*
X75783390Y-120519047D02*
X75735771Y-120614285D01*
X75735771Y-120614285D02*
X75688152Y-120661904D01*
X75688152Y-120661904D02*
X75592914Y-120709523D01*
X75592914Y-120709523D02*
X75545295Y-120709523D01*
X75545295Y-120709523D02*
X75450057Y-120661904D01*
X75450057Y-120661904D02*
X75402438Y-120614285D01*
X75402438Y-120614285D02*
X75354819Y-120519047D01*
X75354819Y-120519047D02*
X75354819Y-120328571D01*
X75354819Y-120328571D02*
X75402438Y-120233333D01*
X75402438Y-120233333D02*
X75450057Y-120185714D01*
X75450057Y-120185714D02*
X75545295Y-120138095D01*
X75545295Y-120138095D02*
X75592914Y-120138095D01*
X75592914Y-120138095D02*
X75688152Y-120185714D01*
X75688152Y-120185714D02*
X75735771Y-120233333D01*
X75735771Y-120233333D02*
X75783390Y-120328571D01*
X75783390Y-120328571D02*
X75783390Y-120519047D01*
X75783390Y-120519047D02*
X75831009Y-120614285D01*
X75831009Y-120614285D02*
X75878628Y-120661904D01*
X75878628Y-120661904D02*
X75973866Y-120709523D01*
X75973866Y-120709523D02*
X76164342Y-120709523D01*
X76164342Y-120709523D02*
X76259580Y-120661904D01*
X76259580Y-120661904D02*
X76307200Y-120614285D01*
X76307200Y-120614285D02*
X76354819Y-120519047D01*
X76354819Y-120519047D02*
X76354819Y-120328571D01*
X76354819Y-120328571D02*
X76307200Y-120233333D01*
X76307200Y-120233333D02*
X76259580Y-120185714D01*
X76259580Y-120185714D02*
X76164342Y-120138095D01*
X76164342Y-120138095D02*
X75973866Y-120138095D01*
X75973866Y-120138095D02*
X75878628Y-120185714D01*
X75878628Y-120185714D02*
X75831009Y-120233333D01*
X75831009Y-120233333D02*
X75783390Y-120328571D01*
X76354819Y-111042857D02*
X75878628Y-111376190D01*
X76354819Y-111614285D02*
X75354819Y-111614285D01*
X75354819Y-111614285D02*
X75354819Y-111233333D01*
X75354819Y-111233333D02*
X75402438Y-111138095D01*
X75402438Y-111138095D02*
X75450057Y-111090476D01*
X75450057Y-111090476D02*
X75545295Y-111042857D01*
X75545295Y-111042857D02*
X75688152Y-111042857D01*
X75688152Y-111042857D02*
X75783390Y-111090476D01*
X75783390Y-111090476D02*
X75831009Y-111138095D01*
X75831009Y-111138095D02*
X75878628Y-111233333D01*
X75878628Y-111233333D02*
X75878628Y-111614285D01*
X76354819Y-110090476D02*
X76354819Y-110661904D01*
X76354819Y-110376190D02*
X75354819Y-110376190D01*
X75354819Y-110376190D02*
X75497676Y-110471428D01*
X75497676Y-110471428D02*
X75592914Y-110566666D01*
X75592914Y-110566666D02*
X75640533Y-110661904D01*
X75688152Y-109233333D02*
X76354819Y-109233333D01*
X75307200Y-109471428D02*
X76021485Y-109709523D01*
X76021485Y-109709523D02*
X76021485Y-109090476D01*
X148490476Y-157134819D02*
X148490476Y-157849104D01*
X148490476Y-157849104D02*
X148442857Y-157991961D01*
X148442857Y-157991961D02*
X148347619Y-158087200D01*
X148347619Y-158087200D02*
X148204762Y-158134819D01*
X148204762Y-158134819D02*
X148109524Y-158134819D01*
X149490476Y-158134819D02*
X148919048Y-158134819D01*
X149204762Y-158134819D02*
X149204762Y-157134819D01*
X149204762Y-157134819D02*
X149109524Y-157277676D01*
X149109524Y-157277676D02*
X149014286Y-157372914D01*
X149014286Y-157372914D02*
X148919048Y-157420533D01*
X149823810Y-157134819D02*
X150490476Y-157134819D01*
X150490476Y-157134819D02*
X150061905Y-158134819D01*
X94708333Y-129409580D02*
X94660714Y-129457200D01*
X94660714Y-129457200D02*
X94517857Y-129504819D01*
X94517857Y-129504819D02*
X94422619Y-129504819D01*
X94422619Y-129504819D02*
X94279762Y-129457200D01*
X94279762Y-129457200D02*
X94184524Y-129361961D01*
X94184524Y-129361961D02*
X94136905Y-129266723D01*
X94136905Y-129266723D02*
X94089286Y-129076247D01*
X94089286Y-129076247D02*
X94089286Y-128933390D01*
X94089286Y-128933390D02*
X94136905Y-128742914D01*
X94136905Y-128742914D02*
X94184524Y-128647676D01*
X94184524Y-128647676D02*
X94279762Y-128552438D01*
X94279762Y-128552438D02*
X94422619Y-128504819D01*
X94422619Y-128504819D02*
X94517857Y-128504819D01*
X94517857Y-128504819D02*
X94660714Y-128552438D01*
X94660714Y-128552438D02*
X94708333Y-128600057D01*
X95660714Y-129504819D02*
X95089286Y-129504819D01*
X95375000Y-129504819D02*
X95375000Y-128504819D01*
X95375000Y-128504819D02*
X95279762Y-128647676D01*
X95279762Y-128647676D02*
X95184524Y-128742914D01*
X95184524Y-128742914D02*
X95089286Y-128790533D01*
X144157142Y-116514819D02*
X143823809Y-116038628D01*
X143585714Y-116514819D02*
X143585714Y-115514819D01*
X143585714Y-115514819D02*
X143966666Y-115514819D01*
X143966666Y-115514819D02*
X144061904Y-115562438D01*
X144061904Y-115562438D02*
X144109523Y-115610057D01*
X144109523Y-115610057D02*
X144157142Y-115705295D01*
X144157142Y-115705295D02*
X144157142Y-115848152D01*
X144157142Y-115848152D02*
X144109523Y-115943390D01*
X144109523Y-115943390D02*
X144061904Y-115991009D01*
X144061904Y-115991009D02*
X143966666Y-116038628D01*
X143966666Y-116038628D02*
X143585714Y-116038628D01*
X144490476Y-115514819D02*
X145109523Y-115514819D01*
X145109523Y-115514819D02*
X144776190Y-115895771D01*
X144776190Y-115895771D02*
X144919047Y-115895771D01*
X144919047Y-115895771D02*
X145014285Y-115943390D01*
X145014285Y-115943390D02*
X145061904Y-115991009D01*
X145061904Y-115991009D02*
X145109523Y-116086247D01*
X145109523Y-116086247D02*
X145109523Y-116324342D01*
X145109523Y-116324342D02*
X145061904Y-116419580D01*
X145061904Y-116419580D02*
X145014285Y-116467200D01*
X145014285Y-116467200D02*
X144919047Y-116514819D01*
X144919047Y-116514819D02*
X144633333Y-116514819D01*
X144633333Y-116514819D02*
X144538095Y-116467200D01*
X144538095Y-116467200D02*
X144490476Y-116419580D01*
X145442857Y-115514819D02*
X146061904Y-115514819D01*
X146061904Y-115514819D02*
X145728571Y-115895771D01*
X145728571Y-115895771D02*
X145871428Y-115895771D01*
X145871428Y-115895771D02*
X145966666Y-115943390D01*
X145966666Y-115943390D02*
X146014285Y-115991009D01*
X146014285Y-115991009D02*
X146061904Y-116086247D01*
X146061904Y-116086247D02*
X146061904Y-116324342D01*
X146061904Y-116324342D02*
X146014285Y-116419580D01*
X146014285Y-116419580D02*
X145966666Y-116467200D01*
X145966666Y-116467200D02*
X145871428Y-116514819D01*
X145871428Y-116514819D02*
X145585714Y-116514819D01*
X145585714Y-116514819D02*
X145490476Y-116467200D01*
X145490476Y-116467200D02*
X145442857Y-116419580D01*
X76954819Y-102230357D02*
X76478628Y-102563690D01*
X76954819Y-102801785D02*
X75954819Y-102801785D01*
X75954819Y-102801785D02*
X75954819Y-102420833D01*
X75954819Y-102420833D02*
X76002438Y-102325595D01*
X76002438Y-102325595D02*
X76050057Y-102277976D01*
X76050057Y-102277976D02*
X76145295Y-102230357D01*
X76145295Y-102230357D02*
X76288152Y-102230357D01*
X76288152Y-102230357D02*
X76383390Y-102277976D01*
X76383390Y-102277976D02*
X76431009Y-102325595D01*
X76431009Y-102325595D02*
X76478628Y-102420833D01*
X76478628Y-102420833D02*
X76478628Y-102801785D01*
X76954819Y-101277976D02*
X76954819Y-101849404D01*
X76954819Y-101563690D02*
X75954819Y-101563690D01*
X75954819Y-101563690D02*
X76097676Y-101658928D01*
X76097676Y-101658928D02*
X76192914Y-101754166D01*
X76192914Y-101754166D02*
X76240533Y-101849404D01*
X76954819Y-100325595D02*
X76954819Y-100897023D01*
X76954819Y-100611309D02*
X75954819Y-100611309D01*
X75954819Y-100611309D02*
X76097676Y-100706547D01*
X76097676Y-100706547D02*
X76192914Y-100801785D01*
X76192914Y-100801785D02*
X76240533Y-100897023D01*
X147132142Y-101629819D02*
X146798809Y-101153628D01*
X146560714Y-101629819D02*
X146560714Y-100629819D01*
X146560714Y-100629819D02*
X146941666Y-100629819D01*
X146941666Y-100629819D02*
X147036904Y-100677438D01*
X147036904Y-100677438D02*
X147084523Y-100725057D01*
X147084523Y-100725057D02*
X147132142Y-100820295D01*
X147132142Y-100820295D02*
X147132142Y-100963152D01*
X147132142Y-100963152D02*
X147084523Y-101058390D01*
X147084523Y-101058390D02*
X147036904Y-101106009D01*
X147036904Y-101106009D02*
X146941666Y-101153628D01*
X146941666Y-101153628D02*
X146560714Y-101153628D01*
X147465476Y-100629819D02*
X148084523Y-100629819D01*
X148084523Y-100629819D02*
X147751190Y-101010771D01*
X147751190Y-101010771D02*
X147894047Y-101010771D01*
X147894047Y-101010771D02*
X147989285Y-101058390D01*
X147989285Y-101058390D02*
X148036904Y-101106009D01*
X148036904Y-101106009D02*
X148084523Y-101201247D01*
X148084523Y-101201247D02*
X148084523Y-101439342D01*
X148084523Y-101439342D02*
X148036904Y-101534580D01*
X148036904Y-101534580D02*
X147989285Y-101582200D01*
X147989285Y-101582200D02*
X147894047Y-101629819D01*
X147894047Y-101629819D02*
X147608333Y-101629819D01*
X147608333Y-101629819D02*
X147513095Y-101582200D01*
X147513095Y-101582200D02*
X147465476Y-101534580D01*
X148417857Y-100629819D02*
X149084523Y-100629819D01*
X149084523Y-100629819D02*
X148655952Y-101629819D01*
X96445833Y-126859580D02*
X96398214Y-126907200D01*
X96398214Y-126907200D02*
X96255357Y-126954819D01*
X96255357Y-126954819D02*
X96160119Y-126954819D01*
X96160119Y-126954819D02*
X96017262Y-126907200D01*
X96017262Y-126907200D02*
X95922024Y-126811961D01*
X95922024Y-126811961D02*
X95874405Y-126716723D01*
X95874405Y-126716723D02*
X95826786Y-126526247D01*
X95826786Y-126526247D02*
X95826786Y-126383390D01*
X95826786Y-126383390D02*
X95874405Y-126192914D01*
X95874405Y-126192914D02*
X95922024Y-126097676D01*
X95922024Y-126097676D02*
X96017262Y-126002438D01*
X96017262Y-126002438D02*
X96160119Y-125954819D01*
X96160119Y-125954819D02*
X96255357Y-125954819D01*
X96255357Y-125954819D02*
X96398214Y-126002438D01*
X96398214Y-126002438D02*
X96445833Y-126050057D01*
X96826786Y-126050057D02*
X96874405Y-126002438D01*
X96874405Y-126002438D02*
X96969643Y-125954819D01*
X96969643Y-125954819D02*
X97207738Y-125954819D01*
X97207738Y-125954819D02*
X97302976Y-126002438D01*
X97302976Y-126002438D02*
X97350595Y-126050057D01*
X97350595Y-126050057D02*
X97398214Y-126145295D01*
X97398214Y-126145295D02*
X97398214Y-126240533D01*
X97398214Y-126240533D02*
X97350595Y-126383390D01*
X97350595Y-126383390D02*
X96779167Y-126954819D01*
X96779167Y-126954819D02*
X97398214Y-126954819D01*
X127729819Y-152142857D02*
X127253628Y-152476190D01*
X127729819Y-152714285D02*
X126729819Y-152714285D01*
X126729819Y-152714285D02*
X126729819Y-152333333D01*
X126729819Y-152333333D02*
X126777438Y-152238095D01*
X126777438Y-152238095D02*
X126825057Y-152190476D01*
X126825057Y-152190476D02*
X126920295Y-152142857D01*
X126920295Y-152142857D02*
X127063152Y-152142857D01*
X127063152Y-152142857D02*
X127158390Y-152190476D01*
X127158390Y-152190476D02*
X127206009Y-152238095D01*
X127206009Y-152238095D02*
X127253628Y-152333333D01*
X127253628Y-152333333D02*
X127253628Y-152714285D01*
X127063152Y-151285714D02*
X127729819Y-151285714D01*
X126682200Y-151523809D02*
X127396485Y-151761904D01*
X127396485Y-151761904D02*
X127396485Y-151142857D01*
X126825057Y-150809523D02*
X126777438Y-150761904D01*
X126777438Y-150761904D02*
X126729819Y-150666666D01*
X126729819Y-150666666D02*
X126729819Y-150428571D01*
X126729819Y-150428571D02*
X126777438Y-150333333D01*
X126777438Y-150333333D02*
X126825057Y-150285714D01*
X126825057Y-150285714D02*
X126920295Y-150238095D01*
X126920295Y-150238095D02*
X127015533Y-150238095D01*
X127015533Y-150238095D02*
X127158390Y-150285714D01*
X127158390Y-150285714D02*
X127729819Y-150857142D01*
X127729819Y-150857142D02*
X127729819Y-150238095D01*
X78464819Y-102230357D02*
X77988628Y-102563690D01*
X78464819Y-102801785D02*
X77464819Y-102801785D01*
X77464819Y-102801785D02*
X77464819Y-102420833D01*
X77464819Y-102420833D02*
X77512438Y-102325595D01*
X77512438Y-102325595D02*
X77560057Y-102277976D01*
X77560057Y-102277976D02*
X77655295Y-102230357D01*
X77655295Y-102230357D02*
X77798152Y-102230357D01*
X77798152Y-102230357D02*
X77893390Y-102277976D01*
X77893390Y-102277976D02*
X77941009Y-102325595D01*
X77941009Y-102325595D02*
X77988628Y-102420833D01*
X77988628Y-102420833D02*
X77988628Y-102801785D01*
X78464819Y-101277976D02*
X78464819Y-101849404D01*
X78464819Y-101563690D02*
X77464819Y-101563690D01*
X77464819Y-101563690D02*
X77607676Y-101658928D01*
X77607676Y-101658928D02*
X77702914Y-101754166D01*
X77702914Y-101754166D02*
X77750533Y-101849404D01*
X77560057Y-100897023D02*
X77512438Y-100849404D01*
X77512438Y-100849404D02*
X77464819Y-100754166D01*
X77464819Y-100754166D02*
X77464819Y-100516071D01*
X77464819Y-100516071D02*
X77512438Y-100420833D01*
X77512438Y-100420833D02*
X77560057Y-100373214D01*
X77560057Y-100373214D02*
X77655295Y-100325595D01*
X77655295Y-100325595D02*
X77750533Y-100325595D01*
X77750533Y-100325595D02*
X77893390Y-100373214D01*
X77893390Y-100373214D02*
X78464819Y-100944642D01*
X78464819Y-100944642D02*
X78464819Y-100325595D01*
X93361905Y-131354819D02*
X93361905Y-130354819D01*
X93361905Y-130354819D02*
X93600000Y-130354819D01*
X93600000Y-130354819D02*
X93742857Y-130402438D01*
X93742857Y-130402438D02*
X93838095Y-130497676D01*
X93838095Y-130497676D02*
X93885714Y-130592914D01*
X93885714Y-130592914D02*
X93933333Y-130783390D01*
X93933333Y-130783390D02*
X93933333Y-130926247D01*
X93933333Y-130926247D02*
X93885714Y-131116723D01*
X93885714Y-131116723D02*
X93838095Y-131211961D01*
X93838095Y-131211961D02*
X93742857Y-131307200D01*
X93742857Y-131307200D02*
X93600000Y-131354819D01*
X93600000Y-131354819D02*
X93361905Y-131354819D01*
X94885714Y-131354819D02*
X94314286Y-131354819D01*
X94600000Y-131354819D02*
X94600000Y-130354819D01*
X94600000Y-130354819D02*
X94504762Y-130497676D01*
X94504762Y-130497676D02*
X94409524Y-130592914D01*
X94409524Y-130592914D02*
X94314286Y-130640533D01*
X89384819Y-99554857D02*
X88908628Y-99888190D01*
X89384819Y-100126285D02*
X88384819Y-100126285D01*
X88384819Y-100126285D02*
X88384819Y-99745333D01*
X88384819Y-99745333D02*
X88432438Y-99650095D01*
X88432438Y-99650095D02*
X88480057Y-99602476D01*
X88480057Y-99602476D02*
X88575295Y-99554857D01*
X88575295Y-99554857D02*
X88718152Y-99554857D01*
X88718152Y-99554857D02*
X88813390Y-99602476D01*
X88813390Y-99602476D02*
X88861009Y-99650095D01*
X88861009Y-99650095D02*
X88908628Y-99745333D01*
X88908628Y-99745333D02*
X88908628Y-100126285D01*
X88384819Y-99221523D02*
X88384819Y-98602476D01*
X88384819Y-98602476D02*
X88765771Y-98935809D01*
X88765771Y-98935809D02*
X88765771Y-98792952D01*
X88765771Y-98792952D02*
X88813390Y-98697714D01*
X88813390Y-98697714D02*
X88861009Y-98650095D01*
X88861009Y-98650095D02*
X88956247Y-98602476D01*
X88956247Y-98602476D02*
X89194342Y-98602476D01*
X89194342Y-98602476D02*
X89289580Y-98650095D01*
X89289580Y-98650095D02*
X89337200Y-98697714D01*
X89337200Y-98697714D02*
X89384819Y-98792952D01*
X89384819Y-98792952D02*
X89384819Y-99078666D01*
X89384819Y-99078666D02*
X89337200Y-99173904D01*
X89337200Y-99173904D02*
X89289580Y-99221523D01*
X88813390Y-98031047D02*
X88765771Y-98126285D01*
X88765771Y-98126285D02*
X88718152Y-98173904D01*
X88718152Y-98173904D02*
X88622914Y-98221523D01*
X88622914Y-98221523D02*
X88575295Y-98221523D01*
X88575295Y-98221523D02*
X88480057Y-98173904D01*
X88480057Y-98173904D02*
X88432438Y-98126285D01*
X88432438Y-98126285D02*
X88384819Y-98031047D01*
X88384819Y-98031047D02*
X88384819Y-97840571D01*
X88384819Y-97840571D02*
X88432438Y-97745333D01*
X88432438Y-97745333D02*
X88480057Y-97697714D01*
X88480057Y-97697714D02*
X88575295Y-97650095D01*
X88575295Y-97650095D02*
X88622914Y-97650095D01*
X88622914Y-97650095D02*
X88718152Y-97697714D01*
X88718152Y-97697714D02*
X88765771Y-97745333D01*
X88765771Y-97745333D02*
X88813390Y-97840571D01*
X88813390Y-97840571D02*
X88813390Y-98031047D01*
X88813390Y-98031047D02*
X88861009Y-98126285D01*
X88861009Y-98126285D02*
X88908628Y-98173904D01*
X88908628Y-98173904D02*
X89003866Y-98221523D01*
X89003866Y-98221523D02*
X89194342Y-98221523D01*
X89194342Y-98221523D02*
X89289580Y-98173904D01*
X89289580Y-98173904D02*
X89337200Y-98126285D01*
X89337200Y-98126285D02*
X89384819Y-98031047D01*
X89384819Y-98031047D02*
X89384819Y-97840571D01*
X89384819Y-97840571D02*
X89337200Y-97745333D01*
X89337200Y-97745333D02*
X89289580Y-97697714D01*
X89289580Y-97697714D02*
X89194342Y-97650095D01*
X89194342Y-97650095D02*
X89003866Y-97650095D01*
X89003866Y-97650095D02*
X88908628Y-97697714D01*
X88908628Y-97697714D02*
X88861009Y-97745333D01*
X88861009Y-97745333D02*
X88813390Y-97840571D01*
X131459580Y-102790476D02*
X131507200Y-102838095D01*
X131507200Y-102838095D02*
X131554819Y-102980952D01*
X131554819Y-102980952D02*
X131554819Y-103076190D01*
X131554819Y-103076190D02*
X131507200Y-103219047D01*
X131507200Y-103219047D02*
X131411961Y-103314285D01*
X131411961Y-103314285D02*
X131316723Y-103361904D01*
X131316723Y-103361904D02*
X131126247Y-103409523D01*
X131126247Y-103409523D02*
X130983390Y-103409523D01*
X130983390Y-103409523D02*
X130792914Y-103361904D01*
X130792914Y-103361904D02*
X130697676Y-103314285D01*
X130697676Y-103314285D02*
X130602438Y-103219047D01*
X130602438Y-103219047D02*
X130554819Y-103076190D01*
X130554819Y-103076190D02*
X130554819Y-102980952D01*
X130554819Y-102980952D02*
X130602438Y-102838095D01*
X130602438Y-102838095D02*
X130650057Y-102790476D01*
X131554819Y-102361904D02*
X130554819Y-102361904D01*
X131031009Y-102361904D02*
X131031009Y-101790476D01*
X131554819Y-101790476D02*
X130554819Y-101790476D01*
X130554819Y-100838095D02*
X130554819Y-101314285D01*
X130554819Y-101314285D02*
X131031009Y-101361904D01*
X131031009Y-101361904D02*
X130983390Y-101314285D01*
X130983390Y-101314285D02*
X130935771Y-101219047D01*
X130935771Y-101219047D02*
X130935771Y-100980952D01*
X130935771Y-100980952D02*
X130983390Y-100885714D01*
X130983390Y-100885714D02*
X131031009Y-100838095D01*
X131031009Y-100838095D02*
X131126247Y-100790476D01*
X131126247Y-100790476D02*
X131364342Y-100790476D01*
X131364342Y-100790476D02*
X131459580Y-100838095D01*
X131459580Y-100838095D02*
X131507200Y-100885714D01*
X131507200Y-100885714D02*
X131554819Y-100980952D01*
X131554819Y-100980952D02*
X131554819Y-101219047D01*
X131554819Y-101219047D02*
X131507200Y-101314285D01*
X131507200Y-101314285D02*
X131459580Y-101361904D01*
X79454819Y-90666666D02*
X78978628Y-90999999D01*
X79454819Y-91238094D02*
X78454819Y-91238094D01*
X78454819Y-91238094D02*
X78454819Y-90857142D01*
X78454819Y-90857142D02*
X78502438Y-90761904D01*
X78502438Y-90761904D02*
X78550057Y-90714285D01*
X78550057Y-90714285D02*
X78645295Y-90666666D01*
X78645295Y-90666666D02*
X78788152Y-90666666D01*
X78788152Y-90666666D02*
X78883390Y-90714285D01*
X78883390Y-90714285D02*
X78931009Y-90761904D01*
X78931009Y-90761904D02*
X78978628Y-90857142D01*
X78978628Y-90857142D02*
X78978628Y-91238094D01*
X79454819Y-89714285D02*
X79454819Y-90285713D01*
X79454819Y-89999999D02*
X78454819Y-89999999D01*
X78454819Y-89999999D02*
X78597676Y-90095237D01*
X78597676Y-90095237D02*
X78692914Y-90190475D01*
X78692914Y-90190475D02*
X78740533Y-90285713D01*
X76454819Y-91166666D02*
X75978628Y-91499999D01*
X76454819Y-91738094D02*
X75454819Y-91738094D01*
X75454819Y-91738094D02*
X75454819Y-91357142D01*
X75454819Y-91357142D02*
X75502438Y-91261904D01*
X75502438Y-91261904D02*
X75550057Y-91214285D01*
X75550057Y-91214285D02*
X75645295Y-91166666D01*
X75645295Y-91166666D02*
X75788152Y-91166666D01*
X75788152Y-91166666D02*
X75883390Y-91214285D01*
X75883390Y-91214285D02*
X75931009Y-91261904D01*
X75931009Y-91261904D02*
X75978628Y-91357142D01*
X75978628Y-91357142D02*
X75978628Y-91738094D01*
X75454819Y-90833332D02*
X75454819Y-90166666D01*
X75454819Y-90166666D02*
X76454819Y-90595237D01*
X97033333Y-96709580D02*
X96985714Y-96757200D01*
X96985714Y-96757200D02*
X96842857Y-96804819D01*
X96842857Y-96804819D02*
X96747619Y-96804819D01*
X96747619Y-96804819D02*
X96604762Y-96757200D01*
X96604762Y-96757200D02*
X96509524Y-96661961D01*
X96509524Y-96661961D02*
X96461905Y-96566723D01*
X96461905Y-96566723D02*
X96414286Y-96376247D01*
X96414286Y-96376247D02*
X96414286Y-96233390D01*
X96414286Y-96233390D02*
X96461905Y-96042914D01*
X96461905Y-96042914D02*
X96509524Y-95947676D01*
X96509524Y-95947676D02*
X96604762Y-95852438D01*
X96604762Y-95852438D02*
X96747619Y-95804819D01*
X96747619Y-95804819D02*
X96842857Y-95804819D01*
X96842857Y-95804819D02*
X96985714Y-95852438D01*
X96985714Y-95852438D02*
X97033333Y-95900057D01*
X97890476Y-96138152D02*
X97890476Y-96804819D01*
X97652381Y-95757200D02*
X97414286Y-96471485D01*
X97414286Y-96471485D02*
X98033333Y-96471485D01*
X141657142Y-157454819D02*
X141323809Y-156978628D01*
X141085714Y-157454819D02*
X141085714Y-156454819D01*
X141085714Y-156454819D02*
X141466666Y-156454819D01*
X141466666Y-156454819D02*
X141561904Y-156502438D01*
X141561904Y-156502438D02*
X141609523Y-156550057D01*
X141609523Y-156550057D02*
X141657142Y-156645295D01*
X141657142Y-156645295D02*
X141657142Y-156788152D01*
X141657142Y-156788152D02*
X141609523Y-156883390D01*
X141609523Y-156883390D02*
X141561904Y-156931009D01*
X141561904Y-156931009D02*
X141466666Y-156978628D01*
X141466666Y-156978628D02*
X141085714Y-156978628D01*
X142514285Y-156788152D02*
X142514285Y-157454819D01*
X142276190Y-156407200D02*
X142038095Y-157121485D01*
X142038095Y-157121485D02*
X142657142Y-157121485D01*
X142942857Y-156454819D02*
X143561904Y-156454819D01*
X143561904Y-156454819D02*
X143228571Y-156835771D01*
X143228571Y-156835771D02*
X143371428Y-156835771D01*
X143371428Y-156835771D02*
X143466666Y-156883390D01*
X143466666Y-156883390D02*
X143514285Y-156931009D01*
X143514285Y-156931009D02*
X143561904Y-157026247D01*
X143561904Y-157026247D02*
X143561904Y-157264342D01*
X143561904Y-157264342D02*
X143514285Y-157359580D01*
X143514285Y-157359580D02*
X143466666Y-157407200D01*
X143466666Y-157407200D02*
X143371428Y-157454819D01*
X143371428Y-157454819D02*
X143085714Y-157454819D01*
X143085714Y-157454819D02*
X142990476Y-157407200D01*
X142990476Y-157407200D02*
X142942857Y-157359580D01*
X83357142Y-95954819D02*
X83023809Y-95478628D01*
X82785714Y-95954819D02*
X82785714Y-94954819D01*
X82785714Y-94954819D02*
X83166666Y-94954819D01*
X83166666Y-94954819D02*
X83261904Y-95002438D01*
X83261904Y-95002438D02*
X83309523Y-95050057D01*
X83309523Y-95050057D02*
X83357142Y-95145295D01*
X83357142Y-95145295D02*
X83357142Y-95288152D01*
X83357142Y-95288152D02*
X83309523Y-95383390D01*
X83309523Y-95383390D02*
X83261904Y-95431009D01*
X83261904Y-95431009D02*
X83166666Y-95478628D01*
X83166666Y-95478628D02*
X82785714Y-95478628D01*
X83738095Y-95050057D02*
X83785714Y-95002438D01*
X83785714Y-95002438D02*
X83880952Y-94954819D01*
X83880952Y-94954819D02*
X84119047Y-94954819D01*
X84119047Y-94954819D02*
X84214285Y-95002438D01*
X84214285Y-95002438D02*
X84261904Y-95050057D01*
X84261904Y-95050057D02*
X84309523Y-95145295D01*
X84309523Y-95145295D02*
X84309523Y-95240533D01*
X84309523Y-95240533D02*
X84261904Y-95383390D01*
X84261904Y-95383390D02*
X83690476Y-95954819D01*
X83690476Y-95954819D02*
X84309523Y-95954819D01*
X85166666Y-95288152D02*
X85166666Y-95954819D01*
X84928571Y-94907200D02*
X84690476Y-95621485D01*
X84690476Y-95621485D02*
X85309523Y-95621485D01*
X79504819Y-110955357D02*
X79028628Y-111288690D01*
X79504819Y-111526785D02*
X78504819Y-111526785D01*
X78504819Y-111526785D02*
X78504819Y-111145833D01*
X78504819Y-111145833D02*
X78552438Y-111050595D01*
X78552438Y-111050595D02*
X78600057Y-111002976D01*
X78600057Y-111002976D02*
X78695295Y-110955357D01*
X78695295Y-110955357D02*
X78838152Y-110955357D01*
X78838152Y-110955357D02*
X78933390Y-111002976D01*
X78933390Y-111002976D02*
X78981009Y-111050595D01*
X78981009Y-111050595D02*
X79028628Y-111145833D01*
X79028628Y-111145833D02*
X79028628Y-111526785D01*
X79504819Y-110002976D02*
X79504819Y-110574404D01*
X79504819Y-110288690D02*
X78504819Y-110288690D01*
X78504819Y-110288690D02*
X78647676Y-110383928D01*
X78647676Y-110383928D02*
X78742914Y-110479166D01*
X78742914Y-110479166D02*
X78790533Y-110574404D01*
X78504819Y-109669642D02*
X78504819Y-109050595D01*
X78504819Y-109050595D02*
X78885771Y-109383928D01*
X78885771Y-109383928D02*
X78885771Y-109241071D01*
X78885771Y-109241071D02*
X78933390Y-109145833D01*
X78933390Y-109145833D02*
X78981009Y-109098214D01*
X78981009Y-109098214D02*
X79076247Y-109050595D01*
X79076247Y-109050595D02*
X79314342Y-109050595D01*
X79314342Y-109050595D02*
X79409580Y-109098214D01*
X79409580Y-109098214D02*
X79457200Y-109145833D01*
X79457200Y-109145833D02*
X79504819Y-109241071D01*
X79504819Y-109241071D02*
X79504819Y-109526785D01*
X79504819Y-109526785D02*
X79457200Y-109622023D01*
X79457200Y-109622023D02*
X79409580Y-109669642D01*
X117790476Y-154354819D02*
X117790476Y-155069104D01*
X117790476Y-155069104D02*
X117742857Y-155211961D01*
X117742857Y-155211961D02*
X117647619Y-155307200D01*
X117647619Y-155307200D02*
X117504762Y-155354819D01*
X117504762Y-155354819D02*
X117409524Y-155354819D01*
X118790476Y-155354819D02*
X118219048Y-155354819D01*
X118504762Y-155354819D02*
X118504762Y-154354819D01*
X118504762Y-154354819D02*
X118409524Y-154497676D01*
X118409524Y-154497676D02*
X118314286Y-154592914D01*
X118314286Y-154592914D02*
X118219048Y-154640533D01*
X119266667Y-155354819D02*
X119457143Y-155354819D01*
X119457143Y-155354819D02*
X119552381Y-155307200D01*
X119552381Y-155307200D02*
X119600000Y-155259580D01*
X119600000Y-155259580D02*
X119695238Y-155116723D01*
X119695238Y-155116723D02*
X119742857Y-154926247D01*
X119742857Y-154926247D02*
X119742857Y-154545295D01*
X119742857Y-154545295D02*
X119695238Y-154450057D01*
X119695238Y-154450057D02*
X119647619Y-154402438D01*
X119647619Y-154402438D02*
X119552381Y-154354819D01*
X119552381Y-154354819D02*
X119361905Y-154354819D01*
X119361905Y-154354819D02*
X119266667Y-154402438D01*
X119266667Y-154402438D02*
X119219048Y-154450057D01*
X119219048Y-154450057D02*
X119171429Y-154545295D01*
X119171429Y-154545295D02*
X119171429Y-154783390D01*
X119171429Y-154783390D02*
X119219048Y-154878628D01*
X119219048Y-154878628D02*
X119266667Y-154926247D01*
X119266667Y-154926247D02*
X119361905Y-154973866D01*
X119361905Y-154973866D02*
X119552381Y-154973866D01*
X119552381Y-154973866D02*
X119647619Y-154926247D01*
X119647619Y-154926247D02*
X119695238Y-154878628D01*
X119695238Y-154878628D02*
X119742857Y-154783390D01*
X132079819Y-124151189D02*
X131079819Y-124151189D01*
X131079819Y-124151189D02*
X131079819Y-123770237D01*
X131079819Y-123770237D02*
X131127438Y-123674999D01*
X131127438Y-123674999D02*
X131175057Y-123627380D01*
X131175057Y-123627380D02*
X131270295Y-123579761D01*
X131270295Y-123579761D02*
X131413152Y-123579761D01*
X131413152Y-123579761D02*
X131508390Y-123627380D01*
X131508390Y-123627380D02*
X131556009Y-123674999D01*
X131556009Y-123674999D02*
X131603628Y-123770237D01*
X131603628Y-123770237D02*
X131603628Y-124151189D01*
X131984580Y-122579761D02*
X132032200Y-122627380D01*
X132032200Y-122627380D02*
X132079819Y-122770237D01*
X132079819Y-122770237D02*
X132079819Y-122865475D01*
X132079819Y-122865475D02*
X132032200Y-123008332D01*
X132032200Y-123008332D02*
X131936961Y-123103570D01*
X131936961Y-123103570D02*
X131841723Y-123151189D01*
X131841723Y-123151189D02*
X131651247Y-123198808D01*
X131651247Y-123198808D02*
X131508390Y-123198808D01*
X131508390Y-123198808D02*
X131317914Y-123151189D01*
X131317914Y-123151189D02*
X131222676Y-123103570D01*
X131222676Y-123103570D02*
X131127438Y-123008332D01*
X131127438Y-123008332D02*
X131079819Y-122865475D01*
X131079819Y-122865475D02*
X131079819Y-122770237D01*
X131079819Y-122770237D02*
X131127438Y-122627380D01*
X131127438Y-122627380D02*
X131175057Y-122579761D01*
X132079819Y-122151189D02*
X131079819Y-122151189D01*
X131079819Y-121484523D02*
X131079819Y-121389285D01*
X131079819Y-121389285D02*
X131127438Y-121294047D01*
X131127438Y-121294047D02*
X131175057Y-121246428D01*
X131175057Y-121246428D02*
X131270295Y-121198809D01*
X131270295Y-121198809D02*
X131460771Y-121151190D01*
X131460771Y-121151190D02*
X131698866Y-121151190D01*
X131698866Y-121151190D02*
X131889342Y-121198809D01*
X131889342Y-121198809D02*
X131984580Y-121246428D01*
X131984580Y-121246428D02*
X132032200Y-121294047D01*
X132032200Y-121294047D02*
X132079819Y-121389285D01*
X132079819Y-121389285D02*
X132079819Y-121484523D01*
X132079819Y-121484523D02*
X132032200Y-121579761D01*
X132032200Y-121579761D02*
X131984580Y-121627380D01*
X131984580Y-121627380D02*
X131889342Y-121674999D01*
X131889342Y-121674999D02*
X131698866Y-121722618D01*
X131698866Y-121722618D02*
X131460771Y-121722618D01*
X131460771Y-121722618D02*
X131270295Y-121674999D01*
X131270295Y-121674999D02*
X131175057Y-121627380D01*
X131175057Y-121627380D02*
X131127438Y-121579761D01*
X131127438Y-121579761D02*
X131079819Y-121484523D01*
X103874819Y-128292857D02*
X103398628Y-128626190D01*
X103874819Y-128864285D02*
X102874819Y-128864285D01*
X102874819Y-128864285D02*
X102874819Y-128483333D01*
X102874819Y-128483333D02*
X102922438Y-128388095D01*
X102922438Y-128388095D02*
X102970057Y-128340476D01*
X102970057Y-128340476D02*
X103065295Y-128292857D01*
X103065295Y-128292857D02*
X103208152Y-128292857D01*
X103208152Y-128292857D02*
X103303390Y-128340476D01*
X103303390Y-128340476D02*
X103351009Y-128388095D01*
X103351009Y-128388095D02*
X103398628Y-128483333D01*
X103398628Y-128483333D02*
X103398628Y-128864285D01*
X103208152Y-127435714D02*
X103874819Y-127435714D01*
X102827200Y-127673809D02*
X103541485Y-127911904D01*
X103541485Y-127911904D02*
X103541485Y-127292857D01*
X102874819Y-126721428D02*
X102874819Y-126626190D01*
X102874819Y-126626190D02*
X102922438Y-126530952D01*
X102922438Y-126530952D02*
X102970057Y-126483333D01*
X102970057Y-126483333D02*
X103065295Y-126435714D01*
X103065295Y-126435714D02*
X103255771Y-126388095D01*
X103255771Y-126388095D02*
X103493866Y-126388095D01*
X103493866Y-126388095D02*
X103684342Y-126435714D01*
X103684342Y-126435714D02*
X103779580Y-126483333D01*
X103779580Y-126483333D02*
X103827200Y-126530952D01*
X103827200Y-126530952D02*
X103874819Y-126626190D01*
X103874819Y-126626190D02*
X103874819Y-126721428D01*
X103874819Y-126721428D02*
X103827200Y-126816666D01*
X103827200Y-126816666D02*
X103779580Y-126864285D01*
X103779580Y-126864285D02*
X103684342Y-126911904D01*
X103684342Y-126911904D02*
X103493866Y-126959523D01*
X103493866Y-126959523D02*
X103255771Y-126959523D01*
X103255771Y-126959523D02*
X103065295Y-126911904D01*
X103065295Y-126911904D02*
X102970057Y-126864285D01*
X102970057Y-126864285D02*
X102922438Y-126816666D01*
X102922438Y-126816666D02*
X102874819Y-126721428D01*
X123454819Y-80642857D02*
X122978628Y-80976190D01*
X123454819Y-81214285D02*
X122454819Y-81214285D01*
X122454819Y-81214285D02*
X122454819Y-80833333D01*
X122454819Y-80833333D02*
X122502438Y-80738095D01*
X122502438Y-80738095D02*
X122550057Y-80690476D01*
X122550057Y-80690476D02*
X122645295Y-80642857D01*
X122645295Y-80642857D02*
X122788152Y-80642857D01*
X122788152Y-80642857D02*
X122883390Y-80690476D01*
X122883390Y-80690476D02*
X122931009Y-80738095D01*
X122931009Y-80738095D02*
X122978628Y-80833333D01*
X122978628Y-80833333D02*
X122978628Y-81214285D01*
X122550057Y-80261904D02*
X122502438Y-80214285D01*
X122502438Y-80214285D02*
X122454819Y-80119047D01*
X122454819Y-80119047D02*
X122454819Y-79880952D01*
X122454819Y-79880952D02*
X122502438Y-79785714D01*
X122502438Y-79785714D02*
X122550057Y-79738095D01*
X122550057Y-79738095D02*
X122645295Y-79690476D01*
X122645295Y-79690476D02*
X122740533Y-79690476D01*
X122740533Y-79690476D02*
X122883390Y-79738095D01*
X122883390Y-79738095D02*
X123454819Y-80309523D01*
X123454819Y-80309523D02*
X123454819Y-79690476D01*
X122454819Y-79071428D02*
X122454819Y-78976190D01*
X122454819Y-78976190D02*
X122502438Y-78880952D01*
X122502438Y-78880952D02*
X122550057Y-78833333D01*
X122550057Y-78833333D02*
X122645295Y-78785714D01*
X122645295Y-78785714D02*
X122835771Y-78738095D01*
X122835771Y-78738095D02*
X123073866Y-78738095D01*
X123073866Y-78738095D02*
X123264342Y-78785714D01*
X123264342Y-78785714D02*
X123359580Y-78833333D01*
X123359580Y-78833333D02*
X123407200Y-78880952D01*
X123407200Y-78880952D02*
X123454819Y-78976190D01*
X123454819Y-78976190D02*
X123454819Y-79071428D01*
X123454819Y-79071428D02*
X123407200Y-79166666D01*
X123407200Y-79166666D02*
X123359580Y-79214285D01*
X123359580Y-79214285D02*
X123264342Y-79261904D01*
X123264342Y-79261904D02*
X123073866Y-79309523D01*
X123073866Y-79309523D02*
X122835771Y-79309523D01*
X122835771Y-79309523D02*
X122645295Y-79261904D01*
X122645295Y-79261904D02*
X122550057Y-79214285D01*
X122550057Y-79214285D02*
X122502438Y-79166666D01*
X122502438Y-79166666D02*
X122454819Y-79071428D01*
X149217142Y-138154819D02*
X148883809Y-137678628D01*
X148645714Y-138154819D02*
X148645714Y-137154819D01*
X148645714Y-137154819D02*
X149026666Y-137154819D01*
X149026666Y-137154819D02*
X149121904Y-137202438D01*
X149121904Y-137202438D02*
X149169523Y-137250057D01*
X149169523Y-137250057D02*
X149217142Y-137345295D01*
X149217142Y-137345295D02*
X149217142Y-137488152D01*
X149217142Y-137488152D02*
X149169523Y-137583390D01*
X149169523Y-137583390D02*
X149121904Y-137631009D01*
X149121904Y-137631009D02*
X149026666Y-137678628D01*
X149026666Y-137678628D02*
X148645714Y-137678628D01*
X149550476Y-137154819D02*
X150169523Y-137154819D01*
X150169523Y-137154819D02*
X149836190Y-137535771D01*
X149836190Y-137535771D02*
X149979047Y-137535771D01*
X149979047Y-137535771D02*
X150074285Y-137583390D01*
X150074285Y-137583390D02*
X150121904Y-137631009D01*
X150121904Y-137631009D02*
X150169523Y-137726247D01*
X150169523Y-137726247D02*
X150169523Y-137964342D01*
X150169523Y-137964342D02*
X150121904Y-138059580D01*
X150121904Y-138059580D02*
X150074285Y-138107200D01*
X150074285Y-138107200D02*
X149979047Y-138154819D01*
X149979047Y-138154819D02*
X149693333Y-138154819D01*
X149693333Y-138154819D02*
X149598095Y-138107200D01*
X149598095Y-138107200D02*
X149550476Y-138059580D01*
X151026666Y-137488152D02*
X151026666Y-138154819D01*
X150788571Y-137107200D02*
X150550476Y-137821485D01*
X150550476Y-137821485D02*
X151169523Y-137821485D01*
X76657142Y-66354819D02*
X76323809Y-65878628D01*
X76085714Y-66354819D02*
X76085714Y-65354819D01*
X76085714Y-65354819D02*
X76466666Y-65354819D01*
X76466666Y-65354819D02*
X76561904Y-65402438D01*
X76561904Y-65402438D02*
X76609523Y-65450057D01*
X76609523Y-65450057D02*
X76657142Y-65545295D01*
X76657142Y-65545295D02*
X76657142Y-65688152D01*
X76657142Y-65688152D02*
X76609523Y-65783390D01*
X76609523Y-65783390D02*
X76561904Y-65831009D01*
X76561904Y-65831009D02*
X76466666Y-65878628D01*
X76466666Y-65878628D02*
X76085714Y-65878628D01*
X77038095Y-65450057D02*
X77085714Y-65402438D01*
X77085714Y-65402438D02*
X77180952Y-65354819D01*
X77180952Y-65354819D02*
X77419047Y-65354819D01*
X77419047Y-65354819D02*
X77514285Y-65402438D01*
X77514285Y-65402438D02*
X77561904Y-65450057D01*
X77561904Y-65450057D02*
X77609523Y-65545295D01*
X77609523Y-65545295D02*
X77609523Y-65640533D01*
X77609523Y-65640533D02*
X77561904Y-65783390D01*
X77561904Y-65783390D02*
X76990476Y-66354819D01*
X76990476Y-66354819D02*
X77609523Y-66354819D01*
X78514285Y-65354819D02*
X78038095Y-65354819D01*
X78038095Y-65354819D02*
X77990476Y-65831009D01*
X77990476Y-65831009D02*
X78038095Y-65783390D01*
X78038095Y-65783390D02*
X78133333Y-65735771D01*
X78133333Y-65735771D02*
X78371428Y-65735771D01*
X78371428Y-65735771D02*
X78466666Y-65783390D01*
X78466666Y-65783390D02*
X78514285Y-65831009D01*
X78514285Y-65831009D02*
X78561904Y-65926247D01*
X78561904Y-65926247D02*
X78561904Y-66164342D01*
X78561904Y-66164342D02*
X78514285Y-66259580D01*
X78514285Y-66259580D02*
X78466666Y-66307200D01*
X78466666Y-66307200D02*
X78371428Y-66354819D01*
X78371428Y-66354819D02*
X78133333Y-66354819D01*
X78133333Y-66354819D02*
X78038095Y-66307200D01*
X78038095Y-66307200D02*
X77990476Y-66259580D01*
D12*
X95067087Y-140133050D02*
X95357373Y-140133050D01*
X95357373Y-140133050D02*
X95415430Y-140152403D01*
X95415430Y-140152403D02*
X95454135Y-140191107D01*
X95454135Y-140191107D02*
X95473487Y-140249165D01*
X95473487Y-140249165D02*
X95473487Y-140287869D01*
X95473487Y-139726650D02*
X95473487Y-139958879D01*
X95473487Y-139842765D02*
X95067087Y-139842765D01*
X95067087Y-139842765D02*
X95125144Y-139881469D01*
X95125144Y-139881469D02*
X95163849Y-139920174D01*
X95163849Y-139920174D02*
X95183201Y-139958879D01*
X95473487Y-139339602D02*
X95473487Y-139571831D01*
X95473487Y-139455717D02*
X95067087Y-139455717D01*
X95067087Y-139455717D02*
X95125144Y-139494421D01*
X95125144Y-139494421D02*
X95163849Y-139533126D01*
X95163849Y-139533126D02*
X95183201Y-139571831D01*
D10*
X85204819Y-76067857D02*
X84728628Y-76401190D01*
X85204819Y-76639285D02*
X84204819Y-76639285D01*
X84204819Y-76639285D02*
X84204819Y-76258333D01*
X84204819Y-76258333D02*
X84252438Y-76163095D01*
X84252438Y-76163095D02*
X84300057Y-76115476D01*
X84300057Y-76115476D02*
X84395295Y-76067857D01*
X84395295Y-76067857D02*
X84538152Y-76067857D01*
X84538152Y-76067857D02*
X84633390Y-76115476D01*
X84633390Y-76115476D02*
X84681009Y-76163095D01*
X84681009Y-76163095D02*
X84728628Y-76258333D01*
X84728628Y-76258333D02*
X84728628Y-76639285D01*
X84300057Y-75686904D02*
X84252438Y-75639285D01*
X84252438Y-75639285D02*
X84204819Y-75544047D01*
X84204819Y-75544047D02*
X84204819Y-75305952D01*
X84204819Y-75305952D02*
X84252438Y-75210714D01*
X84252438Y-75210714D02*
X84300057Y-75163095D01*
X84300057Y-75163095D02*
X84395295Y-75115476D01*
X84395295Y-75115476D02*
X84490533Y-75115476D01*
X84490533Y-75115476D02*
X84633390Y-75163095D01*
X84633390Y-75163095D02*
X85204819Y-75734523D01*
X85204819Y-75734523D02*
X85204819Y-75115476D01*
X85204819Y-74639285D02*
X85204819Y-74448809D01*
X85204819Y-74448809D02*
X85157200Y-74353571D01*
X85157200Y-74353571D02*
X85109580Y-74305952D01*
X85109580Y-74305952D02*
X84966723Y-74210714D01*
X84966723Y-74210714D02*
X84776247Y-74163095D01*
X84776247Y-74163095D02*
X84395295Y-74163095D01*
X84395295Y-74163095D02*
X84300057Y-74210714D01*
X84300057Y-74210714D02*
X84252438Y-74258333D01*
X84252438Y-74258333D02*
X84204819Y-74353571D01*
X84204819Y-74353571D02*
X84204819Y-74544047D01*
X84204819Y-74544047D02*
X84252438Y-74639285D01*
X84252438Y-74639285D02*
X84300057Y-74686904D01*
X84300057Y-74686904D02*
X84395295Y-74734523D01*
X84395295Y-74734523D02*
X84633390Y-74734523D01*
X84633390Y-74734523D02*
X84728628Y-74686904D01*
X84728628Y-74686904D02*
X84776247Y-74639285D01*
X84776247Y-74639285D02*
X84823866Y-74544047D01*
X84823866Y-74544047D02*
X84823866Y-74353571D01*
X84823866Y-74353571D02*
X84776247Y-74258333D01*
X84776247Y-74258333D02*
X84728628Y-74210714D01*
X84728628Y-74210714D02*
X84633390Y-74163095D01*
X87265819Y-106394857D02*
X86789628Y-106728190D01*
X87265819Y-106966285D02*
X86265819Y-106966285D01*
X86265819Y-106966285D02*
X86265819Y-106585333D01*
X86265819Y-106585333D02*
X86313438Y-106490095D01*
X86313438Y-106490095D02*
X86361057Y-106442476D01*
X86361057Y-106442476D02*
X86456295Y-106394857D01*
X86456295Y-106394857D02*
X86599152Y-106394857D01*
X86599152Y-106394857D02*
X86694390Y-106442476D01*
X86694390Y-106442476D02*
X86742009Y-106490095D01*
X86742009Y-106490095D02*
X86789628Y-106585333D01*
X86789628Y-106585333D02*
X86789628Y-106966285D01*
X86265819Y-106061523D02*
X86265819Y-105442476D01*
X86265819Y-105442476D02*
X86646771Y-105775809D01*
X86646771Y-105775809D02*
X86646771Y-105632952D01*
X86646771Y-105632952D02*
X86694390Y-105537714D01*
X86694390Y-105537714D02*
X86742009Y-105490095D01*
X86742009Y-105490095D02*
X86837247Y-105442476D01*
X86837247Y-105442476D02*
X87075342Y-105442476D01*
X87075342Y-105442476D02*
X87170580Y-105490095D01*
X87170580Y-105490095D02*
X87218200Y-105537714D01*
X87218200Y-105537714D02*
X87265819Y-105632952D01*
X87265819Y-105632952D02*
X87265819Y-105918666D01*
X87265819Y-105918666D02*
X87218200Y-106013904D01*
X87218200Y-106013904D02*
X87170580Y-106061523D01*
X86265819Y-104537714D02*
X86265819Y-105013904D01*
X86265819Y-105013904D02*
X86742009Y-105061523D01*
X86742009Y-105061523D02*
X86694390Y-105013904D01*
X86694390Y-105013904D02*
X86646771Y-104918666D01*
X86646771Y-104918666D02*
X86646771Y-104680571D01*
X86646771Y-104680571D02*
X86694390Y-104585333D01*
X86694390Y-104585333D02*
X86742009Y-104537714D01*
X86742009Y-104537714D02*
X86837247Y-104490095D01*
X86837247Y-104490095D02*
X87075342Y-104490095D01*
X87075342Y-104490095D02*
X87170580Y-104537714D01*
X87170580Y-104537714D02*
X87218200Y-104585333D01*
X87218200Y-104585333D02*
X87265819Y-104680571D01*
X87265819Y-104680571D02*
X87265819Y-104918666D01*
X87265819Y-104918666D02*
X87218200Y-105013904D01*
X87218200Y-105013904D02*
X87170580Y-105061523D01*
X93954819Y-89688094D02*
X94764342Y-89688094D01*
X94764342Y-89688094D02*
X94859580Y-89640475D01*
X94859580Y-89640475D02*
X94907200Y-89592856D01*
X94907200Y-89592856D02*
X94954819Y-89497618D01*
X94954819Y-89497618D02*
X94954819Y-89307142D01*
X94954819Y-89307142D02*
X94907200Y-89211904D01*
X94907200Y-89211904D02*
X94859580Y-89164285D01*
X94859580Y-89164285D02*
X94764342Y-89116666D01*
X94764342Y-89116666D02*
X93954819Y-89116666D01*
X94954819Y-88116666D02*
X94954819Y-88688094D01*
X94954819Y-88402380D02*
X93954819Y-88402380D01*
X93954819Y-88402380D02*
X94097676Y-88497618D01*
X94097676Y-88497618D02*
X94192914Y-88592856D01*
X94192914Y-88592856D02*
X94240533Y-88688094D01*
X94954819Y-87640475D02*
X94954819Y-87449999D01*
X94954819Y-87449999D02*
X94907200Y-87354761D01*
X94907200Y-87354761D02*
X94859580Y-87307142D01*
X94859580Y-87307142D02*
X94716723Y-87211904D01*
X94716723Y-87211904D02*
X94526247Y-87164285D01*
X94526247Y-87164285D02*
X94145295Y-87164285D01*
X94145295Y-87164285D02*
X94050057Y-87211904D01*
X94050057Y-87211904D02*
X94002438Y-87259523D01*
X94002438Y-87259523D02*
X93954819Y-87354761D01*
X93954819Y-87354761D02*
X93954819Y-87545237D01*
X93954819Y-87545237D02*
X94002438Y-87640475D01*
X94002438Y-87640475D02*
X94050057Y-87688094D01*
X94050057Y-87688094D02*
X94145295Y-87735713D01*
X94145295Y-87735713D02*
X94383390Y-87735713D01*
X94383390Y-87735713D02*
X94478628Y-87688094D01*
X94478628Y-87688094D02*
X94526247Y-87640475D01*
X94526247Y-87640475D02*
X94573866Y-87545237D01*
X94573866Y-87545237D02*
X94573866Y-87354761D01*
X94573866Y-87354761D02*
X94526247Y-87259523D01*
X94526247Y-87259523D02*
X94478628Y-87211904D01*
X94478628Y-87211904D02*
X94383390Y-87164285D01*
X131634580Y-83340476D02*
X131682200Y-83388095D01*
X131682200Y-83388095D02*
X131729819Y-83530952D01*
X131729819Y-83530952D02*
X131729819Y-83626190D01*
X131729819Y-83626190D02*
X131682200Y-83769047D01*
X131682200Y-83769047D02*
X131586961Y-83864285D01*
X131586961Y-83864285D02*
X131491723Y-83911904D01*
X131491723Y-83911904D02*
X131301247Y-83959523D01*
X131301247Y-83959523D02*
X131158390Y-83959523D01*
X131158390Y-83959523D02*
X130967914Y-83911904D01*
X130967914Y-83911904D02*
X130872676Y-83864285D01*
X130872676Y-83864285D02*
X130777438Y-83769047D01*
X130777438Y-83769047D02*
X130729819Y-83626190D01*
X130729819Y-83626190D02*
X130729819Y-83530952D01*
X130729819Y-83530952D02*
X130777438Y-83388095D01*
X130777438Y-83388095D02*
X130825057Y-83340476D01*
X131729819Y-82911904D02*
X130729819Y-82911904D01*
X131206009Y-82911904D02*
X131206009Y-82340476D01*
X131729819Y-82340476D02*
X130729819Y-82340476D01*
X131063152Y-81435714D02*
X131729819Y-81435714D01*
X130682200Y-81673809D02*
X131396485Y-81911904D01*
X131396485Y-81911904D02*
X131396485Y-81292857D01*
D12*
X78217087Y-140133050D02*
X78507373Y-140133050D01*
X78507373Y-140133050D02*
X78565430Y-140152403D01*
X78565430Y-140152403D02*
X78604135Y-140191107D01*
X78604135Y-140191107D02*
X78623487Y-140249165D01*
X78623487Y-140249165D02*
X78623487Y-140287869D01*
X78623487Y-139726650D02*
X78623487Y-139958879D01*
X78623487Y-139842765D02*
X78217087Y-139842765D01*
X78217087Y-139842765D02*
X78275144Y-139881469D01*
X78275144Y-139881469D02*
X78313849Y-139920174D01*
X78313849Y-139920174D02*
X78333201Y-139958879D01*
X78217087Y-139591183D02*
X78217087Y-139339602D01*
X78217087Y-139339602D02*
X78371906Y-139475069D01*
X78371906Y-139475069D02*
X78371906Y-139417012D01*
X78371906Y-139417012D02*
X78391258Y-139378307D01*
X78391258Y-139378307D02*
X78410611Y-139358955D01*
X78410611Y-139358955D02*
X78449315Y-139339602D01*
X78449315Y-139339602D02*
X78546077Y-139339602D01*
X78546077Y-139339602D02*
X78584782Y-139358955D01*
X78584782Y-139358955D02*
X78604135Y-139378307D01*
X78604135Y-139378307D02*
X78623487Y-139417012D01*
X78623487Y-139417012D02*
X78623487Y-139533126D01*
X78623487Y-139533126D02*
X78604135Y-139571831D01*
X78604135Y-139571831D02*
X78584782Y-139591183D01*
D10*
X74684580Y-107265476D02*
X74732200Y-107313095D01*
X74732200Y-107313095D02*
X74779819Y-107455952D01*
X74779819Y-107455952D02*
X74779819Y-107551190D01*
X74779819Y-107551190D02*
X74732200Y-107694047D01*
X74732200Y-107694047D02*
X74636961Y-107789285D01*
X74636961Y-107789285D02*
X74541723Y-107836904D01*
X74541723Y-107836904D02*
X74351247Y-107884523D01*
X74351247Y-107884523D02*
X74208390Y-107884523D01*
X74208390Y-107884523D02*
X74017914Y-107836904D01*
X74017914Y-107836904D02*
X73922676Y-107789285D01*
X73922676Y-107789285D02*
X73827438Y-107694047D01*
X73827438Y-107694047D02*
X73779819Y-107551190D01*
X73779819Y-107551190D02*
X73779819Y-107455952D01*
X73779819Y-107455952D02*
X73827438Y-107313095D01*
X73827438Y-107313095D02*
X73875057Y-107265476D01*
X74779819Y-106836904D02*
X73779819Y-106836904D01*
X74256009Y-106836904D02*
X74256009Y-106265476D01*
X74779819Y-106265476D02*
X73779819Y-106265476D01*
X73875057Y-105836904D02*
X73827438Y-105789285D01*
X73827438Y-105789285D02*
X73779819Y-105694047D01*
X73779819Y-105694047D02*
X73779819Y-105455952D01*
X73779819Y-105455952D02*
X73827438Y-105360714D01*
X73827438Y-105360714D02*
X73875057Y-105313095D01*
X73875057Y-105313095D02*
X73970295Y-105265476D01*
X73970295Y-105265476D02*
X74065533Y-105265476D01*
X74065533Y-105265476D02*
X74208390Y-105313095D01*
X74208390Y-105313095D02*
X74779819Y-105884523D01*
X74779819Y-105884523D02*
X74779819Y-105265476D01*
X82757142Y-116854819D02*
X82423809Y-116378628D01*
X82185714Y-116854819D02*
X82185714Y-115854819D01*
X82185714Y-115854819D02*
X82566666Y-115854819D01*
X82566666Y-115854819D02*
X82661904Y-115902438D01*
X82661904Y-115902438D02*
X82709523Y-115950057D01*
X82709523Y-115950057D02*
X82757142Y-116045295D01*
X82757142Y-116045295D02*
X82757142Y-116188152D01*
X82757142Y-116188152D02*
X82709523Y-116283390D01*
X82709523Y-116283390D02*
X82661904Y-116331009D01*
X82661904Y-116331009D02*
X82566666Y-116378628D01*
X82566666Y-116378628D02*
X82185714Y-116378628D01*
X83138095Y-115950057D02*
X83185714Y-115902438D01*
X83185714Y-115902438D02*
X83280952Y-115854819D01*
X83280952Y-115854819D02*
X83519047Y-115854819D01*
X83519047Y-115854819D02*
X83614285Y-115902438D01*
X83614285Y-115902438D02*
X83661904Y-115950057D01*
X83661904Y-115950057D02*
X83709523Y-116045295D01*
X83709523Y-116045295D02*
X83709523Y-116140533D01*
X83709523Y-116140533D02*
X83661904Y-116283390D01*
X83661904Y-116283390D02*
X83090476Y-116854819D01*
X83090476Y-116854819D02*
X83709523Y-116854819D01*
X84566666Y-115854819D02*
X84376190Y-115854819D01*
X84376190Y-115854819D02*
X84280952Y-115902438D01*
X84280952Y-115902438D02*
X84233333Y-115950057D01*
X84233333Y-115950057D02*
X84138095Y-116092914D01*
X84138095Y-116092914D02*
X84090476Y-116283390D01*
X84090476Y-116283390D02*
X84090476Y-116664342D01*
X84090476Y-116664342D02*
X84138095Y-116759580D01*
X84138095Y-116759580D02*
X84185714Y-116807200D01*
X84185714Y-116807200D02*
X84280952Y-116854819D01*
X84280952Y-116854819D02*
X84471428Y-116854819D01*
X84471428Y-116854819D02*
X84566666Y-116807200D01*
X84566666Y-116807200D02*
X84614285Y-116759580D01*
X84614285Y-116759580D02*
X84661904Y-116664342D01*
X84661904Y-116664342D02*
X84661904Y-116426247D01*
X84661904Y-116426247D02*
X84614285Y-116331009D01*
X84614285Y-116331009D02*
X84566666Y-116283390D01*
X84566666Y-116283390D02*
X84471428Y-116235771D01*
X84471428Y-116235771D02*
X84280952Y-116235771D01*
X84280952Y-116235771D02*
X84185714Y-116283390D01*
X84185714Y-116283390D02*
X84138095Y-116331009D01*
X84138095Y-116331009D02*
X84090476Y-116426247D01*
X90732142Y-80199819D02*
X90398809Y-79723628D01*
X90160714Y-80199819D02*
X90160714Y-79199819D01*
X90160714Y-79199819D02*
X90541666Y-79199819D01*
X90541666Y-79199819D02*
X90636904Y-79247438D01*
X90636904Y-79247438D02*
X90684523Y-79295057D01*
X90684523Y-79295057D02*
X90732142Y-79390295D01*
X90732142Y-79390295D02*
X90732142Y-79533152D01*
X90732142Y-79533152D02*
X90684523Y-79628390D01*
X90684523Y-79628390D02*
X90636904Y-79676009D01*
X90636904Y-79676009D02*
X90541666Y-79723628D01*
X90541666Y-79723628D02*
X90160714Y-79723628D01*
X91684523Y-80199819D02*
X91113095Y-80199819D01*
X91398809Y-80199819D02*
X91398809Y-79199819D01*
X91398809Y-79199819D02*
X91303571Y-79342676D01*
X91303571Y-79342676D02*
X91208333Y-79437914D01*
X91208333Y-79437914D02*
X91113095Y-79485533D01*
X92541666Y-79199819D02*
X92351190Y-79199819D01*
X92351190Y-79199819D02*
X92255952Y-79247438D01*
X92255952Y-79247438D02*
X92208333Y-79295057D01*
X92208333Y-79295057D02*
X92113095Y-79437914D01*
X92113095Y-79437914D02*
X92065476Y-79628390D01*
X92065476Y-79628390D02*
X92065476Y-80009342D01*
X92065476Y-80009342D02*
X92113095Y-80104580D01*
X92113095Y-80104580D02*
X92160714Y-80152200D01*
X92160714Y-80152200D02*
X92255952Y-80199819D01*
X92255952Y-80199819D02*
X92446428Y-80199819D01*
X92446428Y-80199819D02*
X92541666Y-80152200D01*
X92541666Y-80152200D02*
X92589285Y-80104580D01*
X92589285Y-80104580D02*
X92636904Y-80009342D01*
X92636904Y-80009342D02*
X92636904Y-79771247D01*
X92636904Y-79771247D02*
X92589285Y-79676009D01*
X92589285Y-79676009D02*
X92541666Y-79628390D01*
X92541666Y-79628390D02*
X92446428Y-79580771D01*
X92446428Y-79580771D02*
X92255952Y-79580771D01*
X92255952Y-79580771D02*
X92160714Y-79628390D01*
X92160714Y-79628390D02*
X92113095Y-79676009D01*
X92113095Y-79676009D02*
X92065476Y-79771247D01*
X153858333Y-151549819D02*
X153525000Y-151073628D01*
X153286905Y-151549819D02*
X153286905Y-150549819D01*
X153286905Y-150549819D02*
X153667857Y-150549819D01*
X153667857Y-150549819D02*
X153763095Y-150597438D01*
X153763095Y-150597438D02*
X153810714Y-150645057D01*
X153810714Y-150645057D02*
X153858333Y-150740295D01*
X153858333Y-150740295D02*
X153858333Y-150883152D01*
X153858333Y-150883152D02*
X153810714Y-150978390D01*
X153810714Y-150978390D02*
X153763095Y-151026009D01*
X153763095Y-151026009D02*
X153667857Y-151073628D01*
X153667857Y-151073628D02*
X153286905Y-151073628D01*
X154334524Y-151549819D02*
X154525000Y-151549819D01*
X154525000Y-151549819D02*
X154620238Y-151502200D01*
X154620238Y-151502200D02*
X154667857Y-151454580D01*
X154667857Y-151454580D02*
X154763095Y-151311723D01*
X154763095Y-151311723D02*
X154810714Y-151121247D01*
X154810714Y-151121247D02*
X154810714Y-150740295D01*
X154810714Y-150740295D02*
X154763095Y-150645057D01*
X154763095Y-150645057D02*
X154715476Y-150597438D01*
X154715476Y-150597438D02*
X154620238Y-150549819D01*
X154620238Y-150549819D02*
X154429762Y-150549819D01*
X154429762Y-150549819D02*
X154334524Y-150597438D01*
X154334524Y-150597438D02*
X154286905Y-150645057D01*
X154286905Y-150645057D02*
X154239286Y-150740295D01*
X154239286Y-150740295D02*
X154239286Y-150978390D01*
X154239286Y-150978390D02*
X154286905Y-151073628D01*
X154286905Y-151073628D02*
X154334524Y-151121247D01*
X154334524Y-151121247D02*
X154429762Y-151168866D01*
X154429762Y-151168866D02*
X154620238Y-151168866D01*
X154620238Y-151168866D02*
X154715476Y-151121247D01*
X154715476Y-151121247D02*
X154763095Y-151073628D01*
X154763095Y-151073628D02*
X154810714Y-150978390D01*
X76349819Y-134238094D02*
X75349819Y-134238094D01*
X75349819Y-134238094D02*
X75349819Y-133999999D01*
X75349819Y-133999999D02*
X75397438Y-133857142D01*
X75397438Y-133857142D02*
X75492676Y-133761904D01*
X75492676Y-133761904D02*
X75587914Y-133714285D01*
X75587914Y-133714285D02*
X75778390Y-133666666D01*
X75778390Y-133666666D02*
X75921247Y-133666666D01*
X75921247Y-133666666D02*
X76111723Y-133714285D01*
X76111723Y-133714285D02*
X76206961Y-133761904D01*
X76206961Y-133761904D02*
X76302200Y-133857142D01*
X76302200Y-133857142D02*
X76349819Y-133999999D01*
X76349819Y-133999999D02*
X76349819Y-134238094D01*
X75349819Y-133333332D02*
X75349819Y-132714285D01*
X75349819Y-132714285D02*
X75730771Y-133047618D01*
X75730771Y-133047618D02*
X75730771Y-132904761D01*
X75730771Y-132904761D02*
X75778390Y-132809523D01*
X75778390Y-132809523D02*
X75826009Y-132761904D01*
X75826009Y-132761904D02*
X75921247Y-132714285D01*
X75921247Y-132714285D02*
X76159342Y-132714285D01*
X76159342Y-132714285D02*
X76254580Y-132761904D01*
X76254580Y-132761904D02*
X76302200Y-132809523D01*
X76302200Y-132809523D02*
X76349819Y-132904761D01*
X76349819Y-132904761D02*
X76349819Y-133190475D01*
X76349819Y-133190475D02*
X76302200Y-133285713D01*
X76302200Y-133285713D02*
X76254580Y-133333332D01*
X88704819Y-76142857D02*
X88228628Y-76476190D01*
X88704819Y-76714285D02*
X87704819Y-76714285D01*
X87704819Y-76714285D02*
X87704819Y-76333333D01*
X87704819Y-76333333D02*
X87752438Y-76238095D01*
X87752438Y-76238095D02*
X87800057Y-76190476D01*
X87800057Y-76190476D02*
X87895295Y-76142857D01*
X87895295Y-76142857D02*
X88038152Y-76142857D01*
X88038152Y-76142857D02*
X88133390Y-76190476D01*
X88133390Y-76190476D02*
X88181009Y-76238095D01*
X88181009Y-76238095D02*
X88228628Y-76333333D01*
X88228628Y-76333333D02*
X88228628Y-76714285D01*
X87704819Y-75809523D02*
X87704819Y-75190476D01*
X87704819Y-75190476D02*
X88085771Y-75523809D01*
X88085771Y-75523809D02*
X88085771Y-75380952D01*
X88085771Y-75380952D02*
X88133390Y-75285714D01*
X88133390Y-75285714D02*
X88181009Y-75238095D01*
X88181009Y-75238095D02*
X88276247Y-75190476D01*
X88276247Y-75190476D02*
X88514342Y-75190476D01*
X88514342Y-75190476D02*
X88609580Y-75238095D01*
X88609580Y-75238095D02*
X88657200Y-75285714D01*
X88657200Y-75285714D02*
X88704819Y-75380952D01*
X88704819Y-75380952D02*
X88704819Y-75666666D01*
X88704819Y-75666666D02*
X88657200Y-75761904D01*
X88657200Y-75761904D02*
X88609580Y-75809523D01*
X88704819Y-74238095D02*
X88704819Y-74809523D01*
X88704819Y-74523809D02*
X87704819Y-74523809D01*
X87704819Y-74523809D02*
X87847676Y-74619047D01*
X87847676Y-74619047D02*
X87942914Y-74714285D01*
X87942914Y-74714285D02*
X87990533Y-74809523D01*
X144057142Y-114654819D02*
X143723809Y-114178628D01*
X143485714Y-114654819D02*
X143485714Y-113654819D01*
X143485714Y-113654819D02*
X143866666Y-113654819D01*
X143866666Y-113654819D02*
X143961904Y-113702438D01*
X143961904Y-113702438D02*
X144009523Y-113750057D01*
X144009523Y-113750057D02*
X144057142Y-113845295D01*
X144057142Y-113845295D02*
X144057142Y-113988152D01*
X144057142Y-113988152D02*
X144009523Y-114083390D01*
X144009523Y-114083390D02*
X143961904Y-114131009D01*
X143961904Y-114131009D02*
X143866666Y-114178628D01*
X143866666Y-114178628D02*
X143485714Y-114178628D01*
X144390476Y-113654819D02*
X145009523Y-113654819D01*
X145009523Y-113654819D02*
X144676190Y-114035771D01*
X144676190Y-114035771D02*
X144819047Y-114035771D01*
X144819047Y-114035771D02*
X144914285Y-114083390D01*
X144914285Y-114083390D02*
X144961904Y-114131009D01*
X144961904Y-114131009D02*
X145009523Y-114226247D01*
X145009523Y-114226247D02*
X145009523Y-114464342D01*
X145009523Y-114464342D02*
X144961904Y-114559580D01*
X144961904Y-114559580D02*
X144914285Y-114607200D01*
X144914285Y-114607200D02*
X144819047Y-114654819D01*
X144819047Y-114654819D02*
X144533333Y-114654819D01*
X144533333Y-114654819D02*
X144438095Y-114607200D01*
X144438095Y-114607200D02*
X144390476Y-114559580D01*
X145390476Y-113750057D02*
X145438095Y-113702438D01*
X145438095Y-113702438D02*
X145533333Y-113654819D01*
X145533333Y-113654819D02*
X145771428Y-113654819D01*
X145771428Y-113654819D02*
X145866666Y-113702438D01*
X145866666Y-113702438D02*
X145914285Y-113750057D01*
X145914285Y-113750057D02*
X145961904Y-113845295D01*
X145961904Y-113845295D02*
X145961904Y-113940533D01*
X145961904Y-113940533D02*
X145914285Y-114083390D01*
X145914285Y-114083390D02*
X145342857Y-114654819D01*
X145342857Y-114654819D02*
X145961904Y-114654819D01*
X74759580Y-65790476D02*
X74807200Y-65838095D01*
X74807200Y-65838095D02*
X74854819Y-65980952D01*
X74854819Y-65980952D02*
X74854819Y-66076190D01*
X74854819Y-66076190D02*
X74807200Y-66219047D01*
X74807200Y-66219047D02*
X74711961Y-66314285D01*
X74711961Y-66314285D02*
X74616723Y-66361904D01*
X74616723Y-66361904D02*
X74426247Y-66409523D01*
X74426247Y-66409523D02*
X74283390Y-66409523D01*
X74283390Y-66409523D02*
X74092914Y-66361904D01*
X74092914Y-66361904D02*
X73997676Y-66314285D01*
X73997676Y-66314285D02*
X73902438Y-66219047D01*
X73902438Y-66219047D02*
X73854819Y-66076190D01*
X73854819Y-66076190D02*
X73854819Y-65980952D01*
X73854819Y-65980952D02*
X73902438Y-65838095D01*
X73902438Y-65838095D02*
X73950057Y-65790476D01*
X74854819Y-65361904D02*
X73854819Y-65361904D01*
X74331009Y-65361904D02*
X74331009Y-64790476D01*
X74854819Y-64790476D02*
X73854819Y-64790476D01*
X73854819Y-64123809D02*
X73854819Y-64028571D01*
X73854819Y-64028571D02*
X73902438Y-63933333D01*
X73902438Y-63933333D02*
X73950057Y-63885714D01*
X73950057Y-63885714D02*
X74045295Y-63838095D01*
X74045295Y-63838095D02*
X74235771Y-63790476D01*
X74235771Y-63790476D02*
X74473866Y-63790476D01*
X74473866Y-63790476D02*
X74664342Y-63838095D01*
X74664342Y-63838095D02*
X74759580Y-63885714D01*
X74759580Y-63885714D02*
X74807200Y-63933333D01*
X74807200Y-63933333D02*
X74854819Y-64028571D01*
X74854819Y-64028571D02*
X74854819Y-64123809D01*
X74854819Y-64123809D02*
X74807200Y-64219047D01*
X74807200Y-64219047D02*
X74759580Y-64266666D01*
X74759580Y-64266666D02*
X74664342Y-64314285D01*
X74664342Y-64314285D02*
X74473866Y-64361904D01*
X74473866Y-64361904D02*
X74235771Y-64361904D01*
X74235771Y-64361904D02*
X74045295Y-64314285D01*
X74045295Y-64314285D02*
X73950057Y-64266666D01*
X73950057Y-64266666D02*
X73902438Y-64219047D01*
X73902438Y-64219047D02*
X73854819Y-64123809D01*
X95829819Y-76067857D02*
X95353628Y-76401190D01*
X95829819Y-76639285D02*
X94829819Y-76639285D01*
X94829819Y-76639285D02*
X94829819Y-76258333D01*
X94829819Y-76258333D02*
X94877438Y-76163095D01*
X94877438Y-76163095D02*
X94925057Y-76115476D01*
X94925057Y-76115476D02*
X95020295Y-76067857D01*
X95020295Y-76067857D02*
X95163152Y-76067857D01*
X95163152Y-76067857D02*
X95258390Y-76115476D01*
X95258390Y-76115476D02*
X95306009Y-76163095D01*
X95306009Y-76163095D02*
X95353628Y-76258333D01*
X95353628Y-76258333D02*
X95353628Y-76639285D01*
X94829819Y-75734523D02*
X94829819Y-75115476D01*
X94829819Y-75115476D02*
X95210771Y-75448809D01*
X95210771Y-75448809D02*
X95210771Y-75305952D01*
X95210771Y-75305952D02*
X95258390Y-75210714D01*
X95258390Y-75210714D02*
X95306009Y-75163095D01*
X95306009Y-75163095D02*
X95401247Y-75115476D01*
X95401247Y-75115476D02*
X95639342Y-75115476D01*
X95639342Y-75115476D02*
X95734580Y-75163095D01*
X95734580Y-75163095D02*
X95782200Y-75210714D01*
X95782200Y-75210714D02*
X95829819Y-75305952D01*
X95829819Y-75305952D02*
X95829819Y-75591666D01*
X95829819Y-75591666D02*
X95782200Y-75686904D01*
X95782200Y-75686904D02*
X95734580Y-75734523D01*
X94829819Y-74496428D02*
X94829819Y-74401190D01*
X94829819Y-74401190D02*
X94877438Y-74305952D01*
X94877438Y-74305952D02*
X94925057Y-74258333D01*
X94925057Y-74258333D02*
X95020295Y-74210714D01*
X95020295Y-74210714D02*
X95210771Y-74163095D01*
X95210771Y-74163095D02*
X95448866Y-74163095D01*
X95448866Y-74163095D02*
X95639342Y-74210714D01*
X95639342Y-74210714D02*
X95734580Y-74258333D01*
X95734580Y-74258333D02*
X95782200Y-74305952D01*
X95782200Y-74305952D02*
X95829819Y-74401190D01*
X95829819Y-74401190D02*
X95829819Y-74496428D01*
X95829819Y-74496428D02*
X95782200Y-74591666D01*
X95782200Y-74591666D02*
X95734580Y-74639285D01*
X95734580Y-74639285D02*
X95639342Y-74686904D01*
X95639342Y-74686904D02*
X95448866Y-74734523D01*
X95448866Y-74734523D02*
X95210771Y-74734523D01*
X95210771Y-74734523D02*
X95020295Y-74686904D01*
X95020295Y-74686904D02*
X94925057Y-74639285D01*
X94925057Y-74639285D02*
X94877438Y-74591666D01*
X94877438Y-74591666D02*
X94829819Y-74496428D01*
X91386819Y-106314857D02*
X90910628Y-106648190D01*
X91386819Y-106886285D02*
X90386819Y-106886285D01*
X90386819Y-106886285D02*
X90386819Y-106505333D01*
X90386819Y-106505333D02*
X90434438Y-106410095D01*
X90434438Y-106410095D02*
X90482057Y-106362476D01*
X90482057Y-106362476D02*
X90577295Y-106314857D01*
X90577295Y-106314857D02*
X90720152Y-106314857D01*
X90720152Y-106314857D02*
X90815390Y-106362476D01*
X90815390Y-106362476D02*
X90863009Y-106410095D01*
X90863009Y-106410095D02*
X90910628Y-106505333D01*
X90910628Y-106505333D02*
X90910628Y-106886285D01*
X90386819Y-105981523D02*
X90386819Y-105362476D01*
X90386819Y-105362476D02*
X90767771Y-105695809D01*
X90767771Y-105695809D02*
X90767771Y-105552952D01*
X90767771Y-105552952D02*
X90815390Y-105457714D01*
X90815390Y-105457714D02*
X90863009Y-105410095D01*
X90863009Y-105410095D02*
X90958247Y-105362476D01*
X90958247Y-105362476D02*
X91196342Y-105362476D01*
X91196342Y-105362476D02*
X91291580Y-105410095D01*
X91291580Y-105410095D02*
X91339200Y-105457714D01*
X91339200Y-105457714D02*
X91386819Y-105552952D01*
X91386819Y-105552952D02*
X91386819Y-105838666D01*
X91386819Y-105838666D02*
X91339200Y-105933904D01*
X91339200Y-105933904D02*
X91291580Y-105981523D01*
X91386819Y-104886285D02*
X91386819Y-104695809D01*
X91386819Y-104695809D02*
X91339200Y-104600571D01*
X91339200Y-104600571D02*
X91291580Y-104552952D01*
X91291580Y-104552952D02*
X91148723Y-104457714D01*
X91148723Y-104457714D02*
X90958247Y-104410095D01*
X90958247Y-104410095D02*
X90577295Y-104410095D01*
X90577295Y-104410095D02*
X90482057Y-104457714D01*
X90482057Y-104457714D02*
X90434438Y-104505333D01*
X90434438Y-104505333D02*
X90386819Y-104600571D01*
X90386819Y-104600571D02*
X90386819Y-104791047D01*
X90386819Y-104791047D02*
X90434438Y-104886285D01*
X90434438Y-104886285D02*
X90482057Y-104933904D01*
X90482057Y-104933904D02*
X90577295Y-104981523D01*
X90577295Y-104981523D02*
X90815390Y-104981523D01*
X90815390Y-104981523D02*
X90910628Y-104933904D01*
X90910628Y-104933904D02*
X90958247Y-104886285D01*
X90958247Y-104886285D02*
X91005866Y-104791047D01*
X91005866Y-104791047D02*
X91005866Y-104600571D01*
X91005866Y-104600571D02*
X90958247Y-104505333D01*
X90958247Y-104505333D02*
X90910628Y-104457714D01*
X90910628Y-104457714D02*
X90815390Y-104410095D01*
X77854819Y-122042857D02*
X77378628Y-122376190D01*
X77854819Y-122614285D02*
X76854819Y-122614285D01*
X76854819Y-122614285D02*
X76854819Y-122233333D01*
X76854819Y-122233333D02*
X76902438Y-122138095D01*
X76902438Y-122138095D02*
X76950057Y-122090476D01*
X76950057Y-122090476D02*
X77045295Y-122042857D01*
X77045295Y-122042857D02*
X77188152Y-122042857D01*
X77188152Y-122042857D02*
X77283390Y-122090476D01*
X77283390Y-122090476D02*
X77331009Y-122138095D01*
X77331009Y-122138095D02*
X77378628Y-122233333D01*
X77378628Y-122233333D02*
X77378628Y-122614285D01*
X77854819Y-121090476D02*
X77854819Y-121661904D01*
X77854819Y-121376190D02*
X76854819Y-121376190D01*
X76854819Y-121376190D02*
X76997676Y-121471428D01*
X76997676Y-121471428D02*
X77092914Y-121566666D01*
X77092914Y-121566666D02*
X77140533Y-121661904D01*
X77854819Y-120614285D02*
X77854819Y-120423809D01*
X77854819Y-120423809D02*
X77807200Y-120328571D01*
X77807200Y-120328571D02*
X77759580Y-120280952D01*
X77759580Y-120280952D02*
X77616723Y-120185714D01*
X77616723Y-120185714D02*
X77426247Y-120138095D01*
X77426247Y-120138095D02*
X77045295Y-120138095D01*
X77045295Y-120138095D02*
X76950057Y-120185714D01*
X76950057Y-120185714D02*
X76902438Y-120233333D01*
X76902438Y-120233333D02*
X76854819Y-120328571D01*
X76854819Y-120328571D02*
X76854819Y-120519047D01*
X76854819Y-120519047D02*
X76902438Y-120614285D01*
X76902438Y-120614285D02*
X76950057Y-120661904D01*
X76950057Y-120661904D02*
X77045295Y-120709523D01*
X77045295Y-120709523D02*
X77283390Y-120709523D01*
X77283390Y-120709523D02*
X77378628Y-120661904D01*
X77378628Y-120661904D02*
X77426247Y-120614285D01*
X77426247Y-120614285D02*
X77473866Y-120519047D01*
X77473866Y-120519047D02*
X77473866Y-120328571D01*
X77473866Y-120328571D02*
X77426247Y-120233333D01*
X77426247Y-120233333D02*
X77378628Y-120185714D01*
X77378628Y-120185714D02*
X77283390Y-120138095D01*
X144315476Y-149899819D02*
X144315476Y-150614104D01*
X144315476Y-150614104D02*
X144267857Y-150756961D01*
X144267857Y-150756961D02*
X144172619Y-150852200D01*
X144172619Y-150852200D02*
X144029762Y-150899819D01*
X144029762Y-150899819D02*
X143934524Y-150899819D01*
X144744048Y-149995057D02*
X144791667Y-149947438D01*
X144791667Y-149947438D02*
X144886905Y-149899819D01*
X144886905Y-149899819D02*
X145125000Y-149899819D01*
X145125000Y-149899819D02*
X145220238Y-149947438D01*
X145220238Y-149947438D02*
X145267857Y-149995057D01*
X145267857Y-149995057D02*
X145315476Y-150090295D01*
X145315476Y-150090295D02*
X145315476Y-150185533D01*
X145315476Y-150185533D02*
X145267857Y-150328390D01*
X145267857Y-150328390D02*
X144696429Y-150899819D01*
X144696429Y-150899819D02*
X145315476Y-150899819D01*
X145934524Y-149899819D02*
X146029762Y-149899819D01*
X146029762Y-149899819D02*
X146125000Y-149947438D01*
X146125000Y-149947438D02*
X146172619Y-149995057D01*
X146172619Y-149995057D02*
X146220238Y-150090295D01*
X146220238Y-150090295D02*
X146267857Y-150280771D01*
X146267857Y-150280771D02*
X146267857Y-150518866D01*
X146267857Y-150518866D02*
X146220238Y-150709342D01*
X146220238Y-150709342D02*
X146172619Y-150804580D01*
X146172619Y-150804580D02*
X146125000Y-150852200D01*
X146125000Y-150852200D02*
X146029762Y-150899819D01*
X146029762Y-150899819D02*
X145934524Y-150899819D01*
X145934524Y-150899819D02*
X145839286Y-150852200D01*
X145839286Y-150852200D02*
X145791667Y-150804580D01*
X145791667Y-150804580D02*
X145744048Y-150709342D01*
X145744048Y-150709342D02*
X145696429Y-150518866D01*
X145696429Y-150518866D02*
X145696429Y-150280771D01*
X145696429Y-150280771D02*
X145744048Y-150090295D01*
X145744048Y-150090295D02*
X145791667Y-149995057D01*
X145791667Y-149995057D02*
X145839286Y-149947438D01*
X145839286Y-149947438D02*
X145934524Y-149899819D01*
X122588095Y-151104819D02*
X122588095Y-151914342D01*
X122588095Y-151914342D02*
X122635714Y-152009580D01*
X122635714Y-152009580D02*
X122683333Y-152057200D01*
X122683333Y-152057200D02*
X122778571Y-152104819D01*
X122778571Y-152104819D02*
X122969047Y-152104819D01*
X122969047Y-152104819D02*
X123064285Y-152057200D01*
X123064285Y-152057200D02*
X123111904Y-152009580D01*
X123111904Y-152009580D02*
X123159523Y-151914342D01*
X123159523Y-151914342D02*
X123159523Y-151104819D01*
X124064285Y-151438152D02*
X124064285Y-152104819D01*
X123826190Y-151057200D02*
X123588095Y-151771485D01*
X123588095Y-151771485D02*
X124207142Y-151771485D01*
X125354819Y-80642857D02*
X124878628Y-80976190D01*
X125354819Y-81214285D02*
X124354819Y-81214285D01*
X124354819Y-81214285D02*
X124354819Y-80833333D01*
X124354819Y-80833333D02*
X124402438Y-80738095D01*
X124402438Y-80738095D02*
X124450057Y-80690476D01*
X124450057Y-80690476D02*
X124545295Y-80642857D01*
X124545295Y-80642857D02*
X124688152Y-80642857D01*
X124688152Y-80642857D02*
X124783390Y-80690476D01*
X124783390Y-80690476D02*
X124831009Y-80738095D01*
X124831009Y-80738095D02*
X124878628Y-80833333D01*
X124878628Y-80833333D02*
X124878628Y-81214285D01*
X124450057Y-80261904D02*
X124402438Y-80214285D01*
X124402438Y-80214285D02*
X124354819Y-80119047D01*
X124354819Y-80119047D02*
X124354819Y-79880952D01*
X124354819Y-79880952D02*
X124402438Y-79785714D01*
X124402438Y-79785714D02*
X124450057Y-79738095D01*
X124450057Y-79738095D02*
X124545295Y-79690476D01*
X124545295Y-79690476D02*
X124640533Y-79690476D01*
X124640533Y-79690476D02*
X124783390Y-79738095D01*
X124783390Y-79738095D02*
X125354819Y-80309523D01*
X125354819Y-80309523D02*
X125354819Y-79690476D01*
X124354819Y-79357142D02*
X124354819Y-78738095D01*
X124354819Y-78738095D02*
X124735771Y-79071428D01*
X124735771Y-79071428D02*
X124735771Y-78928571D01*
X124735771Y-78928571D02*
X124783390Y-78833333D01*
X124783390Y-78833333D02*
X124831009Y-78785714D01*
X124831009Y-78785714D02*
X124926247Y-78738095D01*
X124926247Y-78738095D02*
X125164342Y-78738095D01*
X125164342Y-78738095D02*
X125259580Y-78785714D01*
X125259580Y-78785714D02*
X125307200Y-78833333D01*
X125307200Y-78833333D02*
X125354819Y-78928571D01*
X125354819Y-78928571D02*
X125354819Y-79214285D01*
X125354819Y-79214285D02*
X125307200Y-79309523D01*
X125307200Y-79309523D02*
X125259580Y-79357142D01*
X137257142Y-75824819D02*
X136923809Y-75348628D01*
X136685714Y-75824819D02*
X136685714Y-74824819D01*
X136685714Y-74824819D02*
X137066666Y-74824819D01*
X137066666Y-74824819D02*
X137161904Y-74872438D01*
X137161904Y-74872438D02*
X137209523Y-74920057D01*
X137209523Y-74920057D02*
X137257142Y-75015295D01*
X137257142Y-75015295D02*
X137257142Y-75158152D01*
X137257142Y-75158152D02*
X137209523Y-75253390D01*
X137209523Y-75253390D02*
X137161904Y-75301009D01*
X137161904Y-75301009D02*
X137066666Y-75348628D01*
X137066666Y-75348628D02*
X136685714Y-75348628D01*
X137590476Y-74824819D02*
X138209523Y-74824819D01*
X138209523Y-74824819D02*
X137876190Y-75205771D01*
X137876190Y-75205771D02*
X138019047Y-75205771D01*
X138019047Y-75205771D02*
X138114285Y-75253390D01*
X138114285Y-75253390D02*
X138161904Y-75301009D01*
X138161904Y-75301009D02*
X138209523Y-75396247D01*
X138209523Y-75396247D02*
X138209523Y-75634342D01*
X138209523Y-75634342D02*
X138161904Y-75729580D01*
X138161904Y-75729580D02*
X138114285Y-75777200D01*
X138114285Y-75777200D02*
X138019047Y-75824819D01*
X138019047Y-75824819D02*
X137733333Y-75824819D01*
X137733333Y-75824819D02*
X137638095Y-75777200D01*
X137638095Y-75777200D02*
X137590476Y-75729580D01*
X139066666Y-74824819D02*
X138876190Y-74824819D01*
X138876190Y-74824819D02*
X138780952Y-74872438D01*
X138780952Y-74872438D02*
X138733333Y-74920057D01*
X138733333Y-74920057D02*
X138638095Y-75062914D01*
X138638095Y-75062914D02*
X138590476Y-75253390D01*
X138590476Y-75253390D02*
X138590476Y-75634342D01*
X138590476Y-75634342D02*
X138638095Y-75729580D01*
X138638095Y-75729580D02*
X138685714Y-75777200D01*
X138685714Y-75777200D02*
X138780952Y-75824819D01*
X138780952Y-75824819D02*
X138971428Y-75824819D01*
X138971428Y-75824819D02*
X139066666Y-75777200D01*
X139066666Y-75777200D02*
X139114285Y-75729580D01*
X139114285Y-75729580D02*
X139161904Y-75634342D01*
X139161904Y-75634342D02*
X139161904Y-75396247D01*
X139161904Y-75396247D02*
X139114285Y-75301009D01*
X139114285Y-75301009D02*
X139066666Y-75253390D01*
X139066666Y-75253390D02*
X138971428Y-75205771D01*
X138971428Y-75205771D02*
X138780952Y-75205771D01*
X138780952Y-75205771D02*
X138685714Y-75253390D01*
X138685714Y-75253390D02*
X138638095Y-75301009D01*
X138638095Y-75301009D02*
X138590476Y-75396247D01*
X128896666Y-74359819D02*
X128896666Y-75074104D01*
X128896666Y-75074104D02*
X128849047Y-75216961D01*
X128849047Y-75216961D02*
X128753809Y-75312200D01*
X128753809Y-75312200D02*
X128610952Y-75359819D01*
X128610952Y-75359819D02*
X128515714Y-75359819D01*
X129896666Y-75359819D02*
X129325238Y-75359819D01*
X129610952Y-75359819D02*
X129610952Y-74359819D01*
X129610952Y-74359819D02*
X129515714Y-74502676D01*
X129515714Y-74502676D02*
X129420476Y-74597914D01*
X129420476Y-74597914D02*
X129325238Y-74645533D01*
X123822619Y-74429819D02*
X123822619Y-73429819D01*
X124251190Y-73525057D02*
X124298809Y-73477438D01*
X124298809Y-73477438D02*
X124394047Y-73429819D01*
X124394047Y-73429819D02*
X124632142Y-73429819D01*
X124632142Y-73429819D02*
X124727380Y-73477438D01*
X124727380Y-73477438D02*
X124774999Y-73525057D01*
X124774999Y-73525057D02*
X124822618Y-73620295D01*
X124822618Y-73620295D02*
X124822618Y-73715533D01*
X124822618Y-73715533D02*
X124774999Y-73858390D01*
X124774999Y-73858390D02*
X124203571Y-74429819D01*
X124203571Y-74429819D02*
X124822618Y-74429819D01*
X125822618Y-74334580D02*
X125774999Y-74382200D01*
X125774999Y-74382200D02*
X125632142Y-74429819D01*
X125632142Y-74429819D02*
X125536904Y-74429819D01*
X125536904Y-74429819D02*
X125394047Y-74382200D01*
X125394047Y-74382200D02*
X125298809Y-74286961D01*
X125298809Y-74286961D02*
X125251190Y-74191723D01*
X125251190Y-74191723D02*
X125203571Y-74001247D01*
X125203571Y-74001247D02*
X125203571Y-73858390D01*
X125203571Y-73858390D02*
X125251190Y-73667914D01*
X125251190Y-73667914D02*
X125298809Y-73572676D01*
X125298809Y-73572676D02*
X125394047Y-73477438D01*
X125394047Y-73477438D02*
X125536904Y-73429819D01*
X125536904Y-73429819D02*
X125632142Y-73429819D01*
X125632142Y-73429819D02*
X125774999Y-73477438D01*
X125774999Y-73477438D02*
X125822618Y-73525057D01*
X126441666Y-73429819D02*
X126536904Y-73429819D01*
X126536904Y-73429819D02*
X126632142Y-73477438D01*
X126632142Y-73477438D02*
X126679761Y-73525057D01*
X126679761Y-73525057D02*
X126727380Y-73620295D01*
X126727380Y-73620295D02*
X126774999Y-73810771D01*
X126774999Y-73810771D02*
X126774999Y-74048866D01*
X126774999Y-74048866D02*
X126727380Y-74239342D01*
X126727380Y-74239342D02*
X126679761Y-74334580D01*
X126679761Y-74334580D02*
X126632142Y-74382200D01*
X126632142Y-74382200D02*
X126536904Y-74429819D01*
X126536904Y-74429819D02*
X126441666Y-74429819D01*
X126441666Y-74429819D02*
X126346428Y-74382200D01*
X126346428Y-74382200D02*
X126298809Y-74334580D01*
X126298809Y-74334580D02*
X126251190Y-74239342D01*
X126251190Y-74239342D02*
X126203571Y-74048866D01*
X126203571Y-74048866D02*
X126203571Y-73810771D01*
X126203571Y-73810771D02*
X126251190Y-73620295D01*
X126251190Y-73620295D02*
X126298809Y-73525057D01*
X126298809Y-73525057D02*
X126346428Y-73477438D01*
X126346428Y-73477438D02*
X126441666Y-73429819D01*
X134904761Y-151175057D02*
X134809523Y-151127438D01*
X134809523Y-151127438D02*
X134714285Y-151032200D01*
X134714285Y-151032200D02*
X134571428Y-150889342D01*
X134571428Y-150889342D02*
X134476190Y-150841723D01*
X134476190Y-150841723D02*
X134380952Y-150841723D01*
X134428571Y-151079819D02*
X134333333Y-151032200D01*
X134333333Y-151032200D02*
X134238095Y-150936961D01*
X134238095Y-150936961D02*
X134190476Y-150746485D01*
X134190476Y-150746485D02*
X134190476Y-150413152D01*
X134190476Y-150413152D02*
X134238095Y-150222676D01*
X134238095Y-150222676D02*
X134333333Y-150127438D01*
X134333333Y-150127438D02*
X134428571Y-150079819D01*
X134428571Y-150079819D02*
X134619047Y-150079819D01*
X134619047Y-150079819D02*
X134714285Y-150127438D01*
X134714285Y-150127438D02*
X134809523Y-150222676D01*
X134809523Y-150222676D02*
X134857142Y-150413152D01*
X134857142Y-150413152D02*
X134857142Y-150746485D01*
X134857142Y-150746485D02*
X134809523Y-150936961D01*
X134809523Y-150936961D02*
X134714285Y-151032200D01*
X134714285Y-151032200D02*
X134619047Y-151079819D01*
X134619047Y-151079819D02*
X134428571Y-151079819D01*
X135238095Y-150175057D02*
X135285714Y-150127438D01*
X135285714Y-150127438D02*
X135380952Y-150079819D01*
X135380952Y-150079819D02*
X135619047Y-150079819D01*
X135619047Y-150079819D02*
X135714285Y-150127438D01*
X135714285Y-150127438D02*
X135761904Y-150175057D01*
X135761904Y-150175057D02*
X135809523Y-150270295D01*
X135809523Y-150270295D02*
X135809523Y-150365533D01*
X135809523Y-150365533D02*
X135761904Y-150508390D01*
X135761904Y-150508390D02*
X135190476Y-151079819D01*
X135190476Y-151079819D02*
X135809523Y-151079819D01*
X74559580Y-89890476D02*
X74607200Y-89938095D01*
X74607200Y-89938095D02*
X74654819Y-90080952D01*
X74654819Y-90080952D02*
X74654819Y-90176190D01*
X74654819Y-90176190D02*
X74607200Y-90319047D01*
X74607200Y-90319047D02*
X74511961Y-90414285D01*
X74511961Y-90414285D02*
X74416723Y-90461904D01*
X74416723Y-90461904D02*
X74226247Y-90509523D01*
X74226247Y-90509523D02*
X74083390Y-90509523D01*
X74083390Y-90509523D02*
X73892914Y-90461904D01*
X73892914Y-90461904D02*
X73797676Y-90414285D01*
X73797676Y-90414285D02*
X73702438Y-90319047D01*
X73702438Y-90319047D02*
X73654819Y-90176190D01*
X73654819Y-90176190D02*
X73654819Y-90080952D01*
X73654819Y-90080952D02*
X73702438Y-89938095D01*
X73702438Y-89938095D02*
X73750057Y-89890476D01*
X74654819Y-89461904D02*
X73654819Y-89461904D01*
X74131009Y-89461904D02*
X74131009Y-88890476D01*
X74654819Y-88890476D02*
X73654819Y-88890476D01*
X74654819Y-87890476D02*
X74654819Y-88461904D01*
X74654819Y-88176190D02*
X73654819Y-88176190D01*
X73654819Y-88176190D02*
X73797676Y-88271428D01*
X73797676Y-88271428D02*
X73892914Y-88366666D01*
X73892914Y-88366666D02*
X73940533Y-88461904D01*
X130532142Y-149504819D02*
X130198809Y-149028628D01*
X129960714Y-149504819D02*
X129960714Y-148504819D01*
X129960714Y-148504819D02*
X130341666Y-148504819D01*
X130341666Y-148504819D02*
X130436904Y-148552438D01*
X130436904Y-148552438D02*
X130484523Y-148600057D01*
X130484523Y-148600057D02*
X130532142Y-148695295D01*
X130532142Y-148695295D02*
X130532142Y-148838152D01*
X130532142Y-148838152D02*
X130484523Y-148933390D01*
X130484523Y-148933390D02*
X130436904Y-148981009D01*
X130436904Y-148981009D02*
X130341666Y-149028628D01*
X130341666Y-149028628D02*
X129960714Y-149028628D01*
X131389285Y-148838152D02*
X131389285Y-149504819D01*
X131151190Y-148457200D02*
X130913095Y-149171485D01*
X130913095Y-149171485D02*
X131532142Y-149171485D01*
X132436904Y-149504819D02*
X131865476Y-149504819D01*
X132151190Y-149504819D02*
X132151190Y-148504819D01*
X132151190Y-148504819D02*
X132055952Y-148647676D01*
X132055952Y-148647676D02*
X131960714Y-148742914D01*
X131960714Y-148742914D02*
X131865476Y-148790533D01*
X82054819Y-122561904D02*
X82864342Y-122561904D01*
X82864342Y-122561904D02*
X82959580Y-122514285D01*
X82959580Y-122514285D02*
X83007200Y-122466666D01*
X83007200Y-122466666D02*
X83054819Y-122371428D01*
X83054819Y-122371428D02*
X83054819Y-122180952D01*
X83054819Y-122180952D02*
X83007200Y-122085714D01*
X83007200Y-122085714D02*
X82959580Y-122038095D01*
X82959580Y-122038095D02*
X82864342Y-121990476D01*
X82864342Y-121990476D02*
X82054819Y-121990476D01*
X82054819Y-121609523D02*
X82054819Y-120990476D01*
X82054819Y-120990476D02*
X82435771Y-121323809D01*
X82435771Y-121323809D02*
X82435771Y-121180952D01*
X82435771Y-121180952D02*
X82483390Y-121085714D01*
X82483390Y-121085714D02*
X82531009Y-121038095D01*
X82531009Y-121038095D02*
X82626247Y-120990476D01*
X82626247Y-120990476D02*
X82864342Y-120990476D01*
X82864342Y-120990476D02*
X82959580Y-121038095D01*
X82959580Y-121038095D02*
X83007200Y-121085714D01*
X83007200Y-121085714D02*
X83054819Y-121180952D01*
X83054819Y-121180952D02*
X83054819Y-121466666D01*
X83054819Y-121466666D02*
X83007200Y-121561904D01*
X83007200Y-121561904D02*
X82959580Y-121609523D01*
X79257142Y-129854819D02*
X78923809Y-129378628D01*
X78685714Y-129854819D02*
X78685714Y-128854819D01*
X78685714Y-128854819D02*
X79066666Y-128854819D01*
X79066666Y-128854819D02*
X79161904Y-128902438D01*
X79161904Y-128902438D02*
X79209523Y-128950057D01*
X79209523Y-128950057D02*
X79257142Y-129045295D01*
X79257142Y-129045295D02*
X79257142Y-129188152D01*
X79257142Y-129188152D02*
X79209523Y-129283390D01*
X79209523Y-129283390D02*
X79161904Y-129331009D01*
X79161904Y-129331009D02*
X79066666Y-129378628D01*
X79066666Y-129378628D02*
X78685714Y-129378628D01*
X79638095Y-128950057D02*
X79685714Y-128902438D01*
X79685714Y-128902438D02*
X79780952Y-128854819D01*
X79780952Y-128854819D02*
X80019047Y-128854819D01*
X80019047Y-128854819D02*
X80114285Y-128902438D01*
X80114285Y-128902438D02*
X80161904Y-128950057D01*
X80161904Y-128950057D02*
X80209523Y-129045295D01*
X80209523Y-129045295D02*
X80209523Y-129140533D01*
X80209523Y-129140533D02*
X80161904Y-129283390D01*
X80161904Y-129283390D02*
X79590476Y-129854819D01*
X79590476Y-129854819D02*
X80209523Y-129854819D01*
X80542857Y-128854819D02*
X81209523Y-128854819D01*
X81209523Y-128854819D02*
X80780952Y-129854819D01*
X79954819Y-102642857D02*
X79478628Y-102976190D01*
X79954819Y-103214285D02*
X78954819Y-103214285D01*
X78954819Y-103214285D02*
X78954819Y-102833333D01*
X78954819Y-102833333D02*
X79002438Y-102738095D01*
X79002438Y-102738095D02*
X79050057Y-102690476D01*
X79050057Y-102690476D02*
X79145295Y-102642857D01*
X79145295Y-102642857D02*
X79288152Y-102642857D01*
X79288152Y-102642857D02*
X79383390Y-102690476D01*
X79383390Y-102690476D02*
X79431009Y-102738095D01*
X79431009Y-102738095D02*
X79478628Y-102833333D01*
X79478628Y-102833333D02*
X79478628Y-103214285D01*
X79954819Y-101690476D02*
X79954819Y-102261904D01*
X79954819Y-101976190D02*
X78954819Y-101976190D01*
X78954819Y-101976190D02*
X79097676Y-102071428D01*
X79097676Y-102071428D02*
X79192914Y-102166666D01*
X79192914Y-102166666D02*
X79240533Y-102261904D01*
X78954819Y-101071428D02*
X78954819Y-100976190D01*
X78954819Y-100976190D02*
X79002438Y-100880952D01*
X79002438Y-100880952D02*
X79050057Y-100833333D01*
X79050057Y-100833333D02*
X79145295Y-100785714D01*
X79145295Y-100785714D02*
X79335771Y-100738095D01*
X79335771Y-100738095D02*
X79573866Y-100738095D01*
X79573866Y-100738095D02*
X79764342Y-100785714D01*
X79764342Y-100785714D02*
X79859580Y-100833333D01*
X79859580Y-100833333D02*
X79907200Y-100880952D01*
X79907200Y-100880952D02*
X79954819Y-100976190D01*
X79954819Y-100976190D02*
X79954819Y-101071428D01*
X79954819Y-101071428D02*
X79907200Y-101166666D01*
X79907200Y-101166666D02*
X79859580Y-101214285D01*
X79859580Y-101214285D02*
X79764342Y-101261904D01*
X79764342Y-101261904D02*
X79573866Y-101309523D01*
X79573866Y-101309523D02*
X79335771Y-101309523D01*
X79335771Y-101309523D02*
X79145295Y-101261904D01*
X79145295Y-101261904D02*
X79050057Y-101214285D01*
X79050057Y-101214285D02*
X79002438Y-101166666D01*
X79002438Y-101166666D02*
X78954819Y-101071428D01*
X77954819Y-91166666D02*
X77478628Y-91499999D01*
X77954819Y-91738094D02*
X76954819Y-91738094D01*
X76954819Y-91738094D02*
X76954819Y-91357142D01*
X76954819Y-91357142D02*
X77002438Y-91261904D01*
X77002438Y-91261904D02*
X77050057Y-91214285D01*
X77050057Y-91214285D02*
X77145295Y-91166666D01*
X77145295Y-91166666D02*
X77288152Y-91166666D01*
X77288152Y-91166666D02*
X77383390Y-91214285D01*
X77383390Y-91214285D02*
X77431009Y-91261904D01*
X77431009Y-91261904D02*
X77478628Y-91357142D01*
X77478628Y-91357142D02*
X77478628Y-91738094D01*
X77383390Y-90595237D02*
X77335771Y-90690475D01*
X77335771Y-90690475D02*
X77288152Y-90738094D01*
X77288152Y-90738094D02*
X77192914Y-90785713D01*
X77192914Y-90785713D02*
X77145295Y-90785713D01*
X77145295Y-90785713D02*
X77050057Y-90738094D01*
X77050057Y-90738094D02*
X77002438Y-90690475D01*
X77002438Y-90690475D02*
X76954819Y-90595237D01*
X76954819Y-90595237D02*
X76954819Y-90404761D01*
X76954819Y-90404761D02*
X77002438Y-90309523D01*
X77002438Y-90309523D02*
X77050057Y-90261904D01*
X77050057Y-90261904D02*
X77145295Y-90214285D01*
X77145295Y-90214285D02*
X77192914Y-90214285D01*
X77192914Y-90214285D02*
X77288152Y-90261904D01*
X77288152Y-90261904D02*
X77335771Y-90309523D01*
X77335771Y-90309523D02*
X77383390Y-90404761D01*
X77383390Y-90404761D02*
X77383390Y-90595237D01*
X77383390Y-90595237D02*
X77431009Y-90690475D01*
X77431009Y-90690475D02*
X77478628Y-90738094D01*
X77478628Y-90738094D02*
X77573866Y-90785713D01*
X77573866Y-90785713D02*
X77764342Y-90785713D01*
X77764342Y-90785713D02*
X77859580Y-90738094D01*
X77859580Y-90738094D02*
X77907200Y-90690475D01*
X77907200Y-90690475D02*
X77954819Y-90595237D01*
X77954819Y-90595237D02*
X77954819Y-90404761D01*
X77954819Y-90404761D02*
X77907200Y-90309523D01*
X77907200Y-90309523D02*
X77859580Y-90261904D01*
X77859580Y-90261904D02*
X77764342Y-90214285D01*
X77764342Y-90214285D02*
X77573866Y-90214285D01*
X77573866Y-90214285D02*
X77478628Y-90261904D01*
X77478628Y-90261904D02*
X77431009Y-90309523D01*
X77431009Y-90309523D02*
X77383390Y-90404761D01*
D13*
%TO.C,R46*%
X76245276Y-69777500D02*
X76754724Y-69777500D01*
X76245276Y-70822500D02*
X76754724Y-70822500D01*
%TO.C,R45*%
X158210000Y-153772936D02*
X158210000Y-155227064D01*
X156390000Y-153772936D02*
X156390000Y-155227064D01*
D10*
%TO.C,U1*%
X119170000Y-103945000D02*
X119170000Y-107755000D01*
X111548400Y-131165000D02*
X111548400Y-135165000D01*
X121199200Y-129395800D02*
X123739200Y-129395800D01*
X116630000Y-103945000D02*
X119170000Y-103945000D01*
X109010000Y-148395000D02*
X109010000Y-87435000D01*
X114090000Y-149665000D02*
X114090000Y-148395000D01*
X123739200Y-129395800D02*
X123739200Y-142095800D01*
X123739200Y-142095800D02*
X121199200Y-142095800D01*
X124250000Y-125535000D02*
X124250000Y-112835000D01*
X121710000Y-149665000D02*
X114090000Y-149665000D01*
X121710000Y-148395000D02*
X121710000Y-149665000D01*
X111798400Y-135165000D02*
X117798400Y-135165000D01*
X109010000Y-87435000D02*
X126790000Y-87435000D01*
X117798400Y-131165000D02*
X111548400Y-131165000D01*
X111550000Y-100135000D02*
X124250000Y-100135000D01*
X114090000Y-143315000D02*
X114090000Y-148395000D01*
X122980000Y-88705000D02*
X122980000Y-87435000D01*
X112820000Y-87435000D02*
X112820000Y-88705000D01*
X121199200Y-142095800D02*
X121199200Y-129395800D01*
X121710000Y-143315000D02*
X114090000Y-143315000D01*
X121710000Y-143315000D02*
X121710000Y-148395000D01*
X111550000Y-87435000D02*
X111550000Y-100135000D01*
X124250000Y-112835000D02*
X111550000Y-112835000D01*
X124250000Y-100135000D02*
X124250000Y-87435000D01*
X126790000Y-148395000D02*
X109010000Y-148395000D01*
X121199200Y-139555800D02*
X123739200Y-139555800D01*
X121199200Y-142095800D02*
X121199200Y-139555800D01*
X111550000Y-112835000D02*
X111550000Y-125535000D01*
X117798400Y-135165000D02*
X117798400Y-131165000D01*
X116630000Y-107755000D02*
X116630000Y-103945000D01*
X111550000Y-125535000D02*
X124250000Y-125535000D01*
X111548400Y-135165000D02*
X111798400Y-135165000D01*
X119170000Y-107755000D02*
X116630000Y-107755000D01*
X112820000Y-88705000D02*
X122980000Y-88705000D01*
X126790000Y-87435000D02*
X126790000Y-148395000D01*
X118798026Y-105850000D02*
G75*
G02*
X117001974Y-105850000I-898026J0D01*
G01*
X117001974Y-105850000D02*
G75*
G02*
X118798026Y-105850000I898026J0D01*
G01*
D14*
X117847000Y-114972000D02*
X117466000Y-115226000D01*
X117212000Y-114972000D01*
X117593000Y-114718000D01*
X117847000Y-114972000D01*
G36*
X117847000Y-114972000D02*
G01*
X117466000Y-115226000D01*
X117212000Y-114972000D01*
X117593000Y-114718000D01*
X117847000Y-114972000D01*
G37*
X117593000Y-116496000D02*
X117212000Y-116750000D01*
X116958000Y-116496000D01*
X117339000Y-116242000D01*
X117593000Y-116496000D01*
G36*
X117593000Y-116496000D02*
G01*
X117212000Y-116750000D01*
X116958000Y-116496000D01*
X117339000Y-116242000D01*
X117593000Y-116496000D01*
G37*
X118482000Y-116496000D02*
X118101000Y-116750000D01*
X117847000Y-116496000D01*
X118228000Y-116242000D01*
X118482000Y-116496000D01*
G36*
X118482000Y-116496000D02*
G01*
X118101000Y-116750000D01*
X117847000Y-116496000D01*
X118228000Y-116242000D01*
X118482000Y-116496000D01*
G37*
X117466000Y-117258000D02*
X117085000Y-117512000D01*
X116831000Y-117258000D01*
X117212000Y-117004000D01*
X117466000Y-117258000D01*
G36*
X117466000Y-117258000D02*
G01*
X117085000Y-117512000D01*
X116831000Y-117258000D01*
X117212000Y-117004000D01*
X117466000Y-117258000D01*
G37*
X118609000Y-115734000D02*
X118228000Y-115988000D01*
X117974000Y-115734000D01*
X118355000Y-115480000D01*
X118609000Y-115734000D01*
G36*
X118609000Y-115734000D02*
G01*
X118228000Y-115988000D01*
X117974000Y-115734000D01*
X118355000Y-115480000D01*
X118609000Y-115734000D01*
G37*
X118101000Y-116115000D02*
X117720000Y-116369000D01*
X117466000Y-116115000D01*
X117847000Y-115861000D01*
X118101000Y-116115000D01*
G36*
X118101000Y-116115000D02*
G01*
X117720000Y-116369000D01*
X117466000Y-116115000D01*
X117847000Y-115861000D01*
X118101000Y-116115000D01*
G37*
X118228000Y-115353000D02*
X117847000Y-115607000D01*
X117593000Y-115353000D01*
X117974000Y-115099000D01*
X118228000Y-115353000D01*
G36*
X118228000Y-115353000D02*
G01*
X117847000Y-115607000D01*
X117593000Y-115353000D01*
X117974000Y-115099000D01*
X118228000Y-115353000D01*
G37*
X117974000Y-116877000D02*
X117593000Y-117131000D01*
X117339000Y-116877000D01*
X117720000Y-116623000D01*
X117974000Y-116877000D01*
G36*
X117974000Y-116877000D02*
G01*
X117593000Y-117131000D01*
X117339000Y-116877000D01*
X117720000Y-116623000D01*
X117974000Y-116877000D01*
G37*
D10*
%TO.C,J7*%
X160097499Y-90955262D02*
X160097499Y-72955262D01*
X160097499Y-72955262D02*
X142597499Y-72955262D01*
X142597499Y-72955262D02*
X142597499Y-90955262D01*
X142597499Y-90955262D02*
X160097499Y-90955262D01*
D13*
%TO.C,Q1*%
X155057499Y-97475262D02*
X151897499Y-97475262D01*
X155057499Y-100635262D02*
X153597499Y-100635262D01*
X155057499Y-97475262D02*
X155057499Y-98405262D01*
X155057499Y-100635262D02*
X155057499Y-99705262D01*
%TO.C,R2*%
X144042775Y-93877762D02*
X144552223Y-93877762D01*
X144042775Y-92832762D02*
X144552223Y-92832762D01*
%TO.C,R3*%
X144652223Y-98577762D02*
X144142775Y-98577762D01*
X144652223Y-97532762D02*
X144142775Y-97532762D01*
%TO.C,R4*%
X144552223Y-107132762D02*
X144042775Y-107132762D01*
X144552223Y-108177762D02*
X144042775Y-108177762D01*
%TO.C,R5*%
X144652223Y-112377762D02*
X144142775Y-112377762D01*
X144652223Y-111332762D02*
X144142775Y-111332762D01*
%TO.C,R6*%
X144652223Y-103132762D02*
X144142775Y-103132762D01*
X144652223Y-104177762D02*
X144142775Y-104177762D01*
%TO.C,U2*%
X158527499Y-104815262D02*
X148247499Y-104815262D01*
X158527499Y-110115262D02*
X158527499Y-108465262D01*
X158527499Y-106465262D02*
X158527499Y-104815262D01*
X148247499Y-104815262D02*
X148247499Y-110115262D01*
X148247499Y-110115262D02*
X158527499Y-110115262D01*
X158527499Y-108465262D02*
G75*
G02*
X158527499Y-106465262I0J1000000D01*
G01*
D10*
%TO.C,J8*%
X160097499Y-135955262D02*
X160097499Y-117955262D01*
X142597499Y-117955262D02*
X142597499Y-135955262D01*
X160097499Y-117955262D02*
X142597499Y-117955262D01*
X142597499Y-135955262D02*
X160097499Y-135955262D01*
D15*
%TO.C,J6*%
X150787499Y-95425262D02*
X158407499Y-95425262D01*
D16*
X150787499Y-95425262D02*
X150787499Y-92885262D01*
D15*
X158407499Y-92885262D02*
X158407499Y-95425262D01*
D14*
X150787499Y-95425262D02*
X150787499Y-92885262D01*
D16*
X158407499Y-92885262D02*
X158407499Y-95425262D01*
D14*
X158407499Y-92885262D02*
X158407499Y-95425262D01*
D15*
X150787499Y-92885262D02*
X150787499Y-95425262D01*
D14*
X150787499Y-92885262D02*
X158407499Y-92885262D01*
X158407499Y-95425262D02*
X150787499Y-95425262D01*
D16*
X158407499Y-95425262D02*
X150787499Y-95425262D01*
X150787499Y-92885262D02*
X158407499Y-92885262D01*
D15*
X150787499Y-92885262D02*
X158407499Y-92885262D01*
D13*
%TO.C,TFT0*%
X160417500Y-139265000D02*
X159017500Y-139265000D01*
X132587500Y-139535000D02*
X157047500Y-139535000D01*
X132587500Y-148735000D02*
X132587500Y-139535000D01*
X160417500Y-140665000D02*
X160417500Y-139265000D01*
X160047500Y-142535000D02*
X160047500Y-148735000D01*
X160047500Y-148735000D02*
X132587500Y-148735000D01*
%TO.C,ANA0*%
X102257500Y-66435000D02*
X102257500Y-72635000D01*
X102627500Y-64565000D02*
X102627500Y-63165000D01*
X79877500Y-63435000D02*
X99257500Y-63435000D01*
X102257500Y-72635000D02*
X79877500Y-72635000D01*
X79877500Y-72635000D02*
X79877500Y-63435000D01*
X102627500Y-63165000D02*
X101227500Y-63165000D01*
%TO.C,SER0*%
X104140000Y-69415000D02*
X104140000Y-63215000D01*
X104140000Y-63215000D02*
X118940000Y-63215000D01*
X103770000Y-71285000D02*
X103770000Y-72685000D01*
X118940000Y-63215000D02*
X118940000Y-72415000D01*
X103770000Y-72685000D02*
X105170000Y-72685000D01*
X118940000Y-72415000D02*
X107140000Y-72415000D01*
%TO.C,CH3*%
X73100000Y-145380000D02*
X63900000Y-145380000D01*
X73100000Y-125500000D02*
X73100000Y-145380000D01*
X63900000Y-145380000D02*
X63900000Y-128500000D01*
X65030000Y-125130000D02*
X63630000Y-125130000D01*
X66900000Y-125500000D02*
X73100000Y-125500000D01*
X63630000Y-125130000D02*
X63630000Y-126530000D01*
%TO.C,R22*%
X85970276Y-83772500D02*
X86479724Y-83772500D01*
X85970276Y-82727500D02*
X86479724Y-82727500D01*
%TO.C,R17*%
X78377500Y-125154724D02*
X78377500Y-124645276D01*
X79422500Y-125154724D02*
X79422500Y-124645276D01*
%TO.C,R15*%
X76877500Y-113654724D02*
X76877500Y-113145276D01*
X77922500Y-113654724D02*
X77922500Y-113145276D01*
%TO.C,R21*%
X83970276Y-86077500D02*
X84479724Y-86077500D01*
X83970276Y-87122500D02*
X84479724Y-87122500D01*
%TO.C,D4*%
X106500000Y-149575000D02*
X106500000Y-156475000D01*
X109800000Y-149575000D02*
X109800000Y-156475000D01*
X109800000Y-149575000D02*
X106500000Y-149575000D01*
%TO.C,R28*%
X94022500Y-75754724D02*
X94022500Y-75245276D01*
X92977500Y-75754724D02*
X92977500Y-75245276D01*
%TO.C,D2*%
X91900000Y-135150000D02*
X91900000Y-131850000D01*
X91900000Y-135150000D02*
X85000000Y-135150000D01*
X91900000Y-131850000D02*
X85000000Y-131850000D01*
%TO.C,C3*%
X88088748Y-115065000D02*
X88611252Y-115065000D01*
X88088748Y-116535000D02*
X88611252Y-116535000D01*
%TO.C,R44*%
X139754724Y-149927500D02*
X139245276Y-149927500D01*
X139754724Y-150972500D02*
X139245276Y-150972500D01*
%TO.C,R18*%
X76422500Y-125154724D02*
X76422500Y-124645276D01*
X75377500Y-125154724D02*
X75377500Y-124645276D01*
%TO.C,R14*%
X76422500Y-113654724D02*
X76422500Y-113145276D01*
X75377500Y-113654724D02*
X75377500Y-113145276D01*
%TO.C,J17*%
X150630000Y-151480000D02*
X147970000Y-151480000D01*
X150630000Y-154080000D02*
X147970000Y-154080000D01*
X150630000Y-154080000D02*
X150630000Y-151480000D01*
X147970000Y-154080000D02*
X147970000Y-151480000D01*
X150630000Y-155350000D02*
X150630000Y-156680000D01*
X150630000Y-156680000D02*
X149300000Y-156680000D01*
%TO.C,C1*%
X92103733Y-129510000D02*
X92396267Y-129510000D01*
X92103733Y-128490000D02*
X92396267Y-128490000D01*
%TO.C,R33*%
X147915276Y-115527500D02*
X148424724Y-115527500D01*
X147915276Y-116572500D02*
X148424724Y-116572500D01*
%TO.C,R11*%
X75977500Y-98245276D02*
X75977500Y-98754724D01*
X77022500Y-98245276D02*
X77022500Y-98754724D01*
%TO.C,R37*%
X144654724Y-100627500D02*
X144145276Y-100627500D01*
X144654724Y-101672500D02*
X144145276Y-101672500D01*
%TO.C,C2*%
X93201248Y-127335000D02*
X93723752Y-127335000D01*
X93201248Y-125865000D02*
X93723752Y-125865000D01*
%TO.C,R42*%
X129297500Y-151270276D02*
X129297500Y-151779724D01*
X128252500Y-151270276D02*
X128252500Y-151779724D01*
%TO.C,R12*%
X77477500Y-98245276D02*
X77477500Y-98754724D01*
X78522500Y-98245276D02*
X78522500Y-98754724D01*
%TO.C,D1*%
X93100000Y-135150000D02*
X100000000Y-135150000D01*
X93100000Y-131850000D02*
X100000000Y-131850000D01*
X93100000Y-131850000D02*
X93100000Y-135150000D01*
%TO.C,R38*%
X88377500Y-102616724D02*
X88377500Y-102107276D01*
X89422500Y-102616724D02*
X89422500Y-102107276D01*
%TO.C,CH5*%
X132190000Y-99600000D02*
X132190000Y-101000000D01*
X133590000Y-99600000D02*
X132190000Y-99600000D01*
X132460000Y-119850000D02*
X132460000Y-102970000D01*
X141660000Y-99970000D02*
X141660000Y-119850000D01*
X135460000Y-99970000D02*
X141660000Y-99970000D01*
X141660000Y-119850000D02*
X132460000Y-119850000D01*
%TO.C,R1*%
X79522500Y-87745276D02*
X79522500Y-88254724D01*
X78477500Y-87745276D02*
X78477500Y-88254724D01*
%TO.C,R7*%
X76522500Y-87745276D02*
X76522500Y-88254724D01*
X75477500Y-87745276D02*
X75477500Y-88254724D01*
%TO.C,C4*%
X94053733Y-95690000D02*
X94346267Y-95690000D01*
X94053733Y-96710000D02*
X94346267Y-96710000D01*
%TO.C,R43*%
X142522500Y-154245276D02*
X142522500Y-154754724D01*
X141477500Y-154245276D02*
X141477500Y-154754724D01*
%TO.C,R24*%
X80754724Y-96022500D02*
X80245276Y-96022500D01*
X80754724Y-94977500D02*
X80245276Y-94977500D01*
%TO.C,R13*%
X78377500Y-113654724D02*
X78377500Y-113145276D01*
X79422500Y-113654724D02*
X79422500Y-113145276D01*
%TO.C,J19*%
X115700000Y-153100000D02*
X114900000Y-153100000D01*
X114900000Y-154000000D02*
X114900000Y-153100000D01*
%TO.C,PCI0*%
X142210000Y-135865000D02*
X133010000Y-135865000D01*
X133010000Y-135865000D02*
X133010000Y-124065000D01*
X134140000Y-120695000D02*
X132740000Y-120695000D01*
X136010000Y-121065000D02*
X142210000Y-121065000D01*
X132740000Y-120695000D02*
X132740000Y-122095000D01*
X142210000Y-121065000D02*
X142210000Y-135865000D01*
%TO.C,R40*%
X104327500Y-127904724D02*
X104327500Y-127395276D01*
X105372500Y-127904724D02*
X105372500Y-127395276D01*
%TO.C,R20*%
X123522500Y-76754724D02*
X123522500Y-76245276D01*
X122477500Y-76754724D02*
X122477500Y-76245276D01*
%TO.C,R34*%
X146075276Y-137237500D02*
X146584724Y-137237500D01*
X146075276Y-138282500D02*
X146584724Y-138282500D01*
%TO.C,R25*%
X76704724Y-66927500D02*
X76195276Y-66927500D01*
X76704724Y-67972500D02*
X76195276Y-67972500D01*
D17*
%TO.C,J11*%
X105299480Y-140149500D02*
X105299480Y-136250600D01*
X93300520Y-148147960D02*
X93300520Y-144348120D01*
X93300520Y-136250600D02*
X93300520Y-140149500D01*
X105299480Y-136250600D02*
X93300520Y-136250600D01*
X105299480Y-148147960D02*
X105299480Y-144348120D01*
D13*
%TO.C,R29*%
X87022500Y-75754724D02*
X87022500Y-75245276D01*
X85977500Y-75754724D02*
X85977500Y-75245276D01*
%TO.C,R35*%
X87263500Y-102107276D02*
X87263500Y-102616724D01*
X86218500Y-102107276D02*
X86218500Y-102616724D01*
D10*
%TO.C,U19*%
X86625000Y-88675000D02*
X86625000Y-93325000D01*
X86625000Y-93325000D02*
X86650000Y-93325000D01*
X93450000Y-93325000D02*
X93350000Y-93325000D01*
X93450000Y-87600000D02*
X93450000Y-93325000D01*
X86625000Y-88675000D02*
X86650000Y-88675000D01*
D13*
%TO.C,CH4*%
X141660000Y-99175000D02*
X132460000Y-99175000D01*
X141660000Y-79295000D02*
X141660000Y-99175000D01*
X135460000Y-79295000D02*
X141660000Y-79295000D01*
X132460000Y-99175000D02*
X132460000Y-82295000D01*
X133590000Y-78925000D02*
X132190000Y-78925000D01*
X132190000Y-78925000D02*
X132190000Y-80325000D01*
D17*
%TO.C,J13*%
X88449480Y-148147960D02*
X88449480Y-144348120D01*
X76450520Y-136250600D02*
X76450520Y-140149500D01*
X76450520Y-148147960D02*
X76450520Y-144348120D01*
X88449480Y-136250600D02*
X76450520Y-136250600D01*
X88449480Y-140149500D02*
X88449480Y-136250600D01*
D13*
%TO.C,CH2*%
X63900000Y-124880000D02*
X63900000Y-108000000D01*
X73100000Y-105000000D02*
X73100000Y-124880000D01*
X66900000Y-105000000D02*
X73100000Y-105000000D01*
X73100000Y-124880000D02*
X63900000Y-124880000D01*
X63630000Y-104630000D02*
X63630000Y-106030000D01*
X65030000Y-104630000D02*
X63630000Y-104630000D01*
%TO.C,R26*%
X80154724Y-115877500D02*
X79645276Y-115877500D01*
X80154724Y-116922500D02*
X79645276Y-116922500D01*
%TO.C,R16*%
X91120276Y-80652500D02*
X91629724Y-80652500D01*
X91120276Y-81697500D02*
X91629724Y-81697500D01*
%TO.C,R9*%
X152695000Y-154695000D02*
X155355000Y-154695000D01*
X155355000Y-154695000D02*
X155355000Y-157295000D01*
X152695000Y-154695000D02*
X152695000Y-157295000D01*
X152695000Y-153425000D02*
X152695000Y-152095000D01*
X152695000Y-157295000D02*
X155355000Y-157295000D01*
X152695000Y-152095000D02*
X154025000Y-152095000D01*
%TO.C,D3*%
X82095000Y-134830000D02*
X82095000Y-132170000D01*
X79495000Y-134830000D02*
X82095000Y-134830000D01*
X79495000Y-134830000D02*
X79495000Y-132170000D01*
X78225000Y-134830000D02*
X76895000Y-134830000D01*
X79495000Y-132170000D02*
X82095000Y-132170000D01*
X76895000Y-134830000D02*
X76895000Y-133500000D01*
%TO.C,R31*%
X90522500Y-75754724D02*
X90522500Y-75245276D01*
X89477500Y-75754724D02*
X89477500Y-75245276D01*
%TO.C,R32*%
X147975276Y-114802500D02*
X148484724Y-114802500D01*
X147975276Y-113757500D02*
X148484724Y-113757500D01*
%TO.C,CH0*%
X63630000Y-62630000D02*
X63630000Y-64030000D01*
X63900000Y-82880000D02*
X63900000Y-66000000D01*
X65030000Y-62630000D02*
X63630000Y-62630000D01*
X73100000Y-82880000D02*
X63900000Y-82880000D01*
X66900000Y-63000000D02*
X73100000Y-63000000D01*
X73100000Y-63000000D02*
X73100000Y-82880000D01*
%TO.C,R30*%
X97522500Y-75754724D02*
X97522500Y-75245276D01*
X96477500Y-75754724D02*
X96477500Y-75245276D01*
%TO.C,R39*%
X90409500Y-102107276D02*
X90409500Y-102616724D01*
X91454500Y-102107276D02*
X91454500Y-102616724D01*
%TO.C,R19*%
X76877500Y-125154724D02*
X76877500Y-124645276D01*
X77922500Y-125154724D02*
X77922500Y-124645276D01*
%TO.C,J20*%
X143795000Y-152775000D02*
X143795000Y-151445000D01*
X143795000Y-151445000D02*
X145125000Y-151445000D01*
X146455000Y-154045000D02*
X146455000Y-156645000D01*
X143795000Y-154045000D02*
X146455000Y-154045000D01*
X143795000Y-154045000D02*
X143795000Y-156645000D01*
X143795000Y-156645000D02*
X146455000Y-156645000D01*
%TO.C,U4*%
X122450000Y-156160000D02*
X124250000Y-156160000D01*
X124250000Y-152940000D02*
X121300000Y-152940000D01*
%TO.C,R23*%
X123977500Y-76754724D02*
X123977500Y-76245276D01*
X125022500Y-76754724D02*
X125022500Y-76245276D01*
%TO.C,R36*%
X137645276Y-77322500D02*
X138154724Y-77322500D01*
X137645276Y-76277500D02*
X138154724Y-76277500D01*
%TO.C,J1*%
X129830000Y-79245000D02*
X129830000Y-84385000D01*
X127170000Y-79245000D02*
X129830000Y-79245000D01*
X127170000Y-76645000D02*
X128500000Y-76645000D01*
X127170000Y-77975000D02*
X127170000Y-76645000D01*
X127170000Y-84385000D02*
X129830000Y-84385000D01*
X127170000Y-79245000D02*
X127170000Y-84385000D01*
%TO.C,I2C0*%
X141505000Y-72715000D02*
X127165000Y-72715000D01*
X123795000Y-71585000D02*
X123795000Y-72985000D01*
X124165000Y-63515000D02*
X141505000Y-63515000D01*
X141505000Y-63515000D02*
X141505000Y-72715000D01*
X124165000Y-69715000D02*
X124165000Y-63515000D01*
X123795000Y-72985000D02*
X125195000Y-72985000D01*
%TO.C,Q2*%
X136975000Y-156835000D02*
X138925000Y-156835000D01*
X136975000Y-151715000D02*
X138925000Y-151715000D01*
X136975000Y-156835000D02*
X135025000Y-156835000D01*
X136975000Y-151715000D02*
X133525000Y-151715000D01*
%TO.C,CH1*%
X73100000Y-84000000D02*
X73100000Y-103880000D01*
X65030000Y-83630000D02*
X63630000Y-83630000D01*
X63900000Y-103880000D02*
X63900000Y-87000000D01*
X63630000Y-83630000D02*
X63630000Y-85030000D01*
X66900000Y-84000000D02*
X73100000Y-84000000D01*
X73100000Y-103880000D02*
X63900000Y-103880000D01*
%TO.C,R41*%
X131654724Y-150002500D02*
X131145276Y-150002500D01*
X131654724Y-151047500D02*
X131145276Y-151047500D01*
%TO.C,U3*%
X83590000Y-126100000D02*
X83590000Y-120090000D01*
X90410000Y-120090000D02*
X89150000Y-120090000D01*
X90410000Y-123850000D02*
X90410000Y-120090000D01*
X83590000Y-120090000D02*
X84850000Y-120090000D01*
%TO.C,R27*%
X80154724Y-128422500D02*
X79645276Y-128422500D01*
X80154724Y-127377500D02*
X79645276Y-127377500D01*
%TO.C,R10*%
X78977500Y-98245276D02*
X78977500Y-98754724D01*
X80022500Y-98245276D02*
X80022500Y-98754724D01*
%TO.C,R8*%
X76977500Y-87745276D02*
X76977500Y-88254724D01*
X78022500Y-87745276D02*
X78022500Y-88254724D01*
%TD*%
M02*
