%TF.GenerationSoftware,KiCad,Pcbnew,8.0.5*%
%TF.CreationDate,2024-09-24T16:47:16-07:00*%
%TF.ProjectId,TFTDriver,54465444-7269-4766-9572-2e6b69636164,rev?*%
%TF.SameCoordinates,Original*%
%TF.FileFunction,Soldermask,Bot*%
%TF.FilePolarity,Negative*%
%FSLAX46Y46*%
G04 Gerber Fmt 4.6, Leading zero omitted, Abs format (unit mm)*
G04 Created by KiCad (PCBNEW 8.0.5) date 2024-09-24 16:47:16*
%MOMM*%
%LPD*%
G01*
G04 APERTURE LIST*
%ADD10R,1.600000X1.600000*%
%ADD11C,1.600000*%
%ADD12C,6.000000*%
%ADD13C,2.124000*%
%ADD14O,1.600000X1.600000*%
%ADD15R,1.651000X1.651000*%
%ADD16C,1.651000*%
%ADD17R,1.700000X1.700000*%
%ADD18C,1.700000*%
%ADD19O,1.700000X1.700000*%
%ADD20C,1.676400*%
%ADD21C,3.302000*%
G04 APERTURE END LIST*
D10*
%TO.C,U1*%
X125520000Y-147125000D03*
D11*
X125520000Y-144585000D03*
X125520000Y-142045000D03*
X125520000Y-139505000D03*
X125520000Y-136965000D03*
X125520000Y-134425000D03*
X125520000Y-131885000D03*
X125520000Y-129345000D03*
X125520000Y-126805000D03*
X125520000Y-124265000D03*
X125520000Y-121725000D03*
X125520000Y-119185000D03*
X125520000Y-116645000D03*
X125520000Y-114105000D03*
X125520000Y-111565000D03*
X125520000Y-109025000D03*
X125520000Y-106485000D03*
X125520000Y-103945000D03*
X125520000Y-101405000D03*
X125520000Y-98865000D03*
X125520000Y-96325000D03*
X125520000Y-93785000D03*
X125520000Y-91245000D03*
X125520000Y-88705000D03*
X110280000Y-88705000D03*
X110280000Y-91245000D03*
X110280000Y-93785000D03*
X110280000Y-96325000D03*
X110280000Y-98865000D03*
X110280000Y-101405000D03*
X110280000Y-103945000D03*
X110280000Y-106485000D03*
X110280000Y-109025000D03*
X110280000Y-111565000D03*
X110280000Y-114105000D03*
X110280000Y-116645000D03*
X110280000Y-119185000D03*
X110280000Y-121725000D03*
X110280000Y-124265000D03*
X110280000Y-126805000D03*
X110280000Y-129345000D03*
X110280000Y-131885000D03*
X110280000Y-134425000D03*
X110280000Y-136965000D03*
X110280000Y-139505000D03*
X110280000Y-142045000D03*
X110280000Y-144585000D03*
X110280000Y-147125000D03*
%TD*%
D12*
%TO.C,M2*%
X151600000Y-66100000D03*
%TD*%
D13*
%TO.C,J7*%
X147597499Y-74455262D03*
X145097499Y-76955262D03*
X147597499Y-81955262D03*
X145097499Y-86955262D03*
X147597499Y-89455262D03*
X157597499Y-76955262D03*
X157597499Y-86955262D03*
X157597499Y-79455262D03*
X157597499Y-84455262D03*
%TD*%
D10*
%TO.C,U2*%
X157197499Y-103655262D03*
D14*
X154657499Y-103655262D03*
X152117499Y-103655262D03*
X149577499Y-103655262D03*
X149577499Y-111275262D03*
X152117499Y-111275262D03*
X154657499Y-111275262D03*
X157197499Y-111275262D03*
%TD*%
D13*
%TO.C,J8*%
X147597499Y-119455262D03*
X145097499Y-121955262D03*
X147597499Y-126955262D03*
X145097499Y-131955262D03*
X147597499Y-134455262D03*
X157597499Y-121955262D03*
X157597499Y-131955262D03*
X157597499Y-124455262D03*
X157597499Y-129455262D03*
%TD*%
D15*
%TO.C,J6*%
X157137499Y-94155262D03*
D16*
X154597499Y-94155262D03*
X152057499Y-94155262D03*
%TD*%
D17*
%TO.C,TFT0*%
X155147500Y-142835000D03*
D18*
X155147500Y-145375000D03*
X152607500Y-142835000D03*
X152607500Y-145375000D03*
X150067500Y-142835000D03*
X150067500Y-145375000D03*
X147527500Y-142835000D03*
X147527500Y-145375000D03*
X144987500Y-142835000D03*
X144987500Y-145375000D03*
X142447500Y-142835000D03*
X142447500Y-145375000D03*
X139907500Y-142835000D03*
X139907500Y-145375000D03*
X137367500Y-142835000D03*
X137367500Y-145375000D03*
%TD*%
D17*
%TO.C,ANA0*%
X97357500Y-66735000D03*
D18*
X97357500Y-69275000D03*
X94817500Y-66735000D03*
X94817500Y-69275000D03*
X92277500Y-66735000D03*
X92277500Y-69275000D03*
X89737500Y-66735000D03*
X89737500Y-69275000D03*
X87197500Y-66735000D03*
X87197500Y-69275000D03*
X84657500Y-66735000D03*
X84657500Y-69275000D03*
%TD*%
D17*
%TO.C,SER0*%
X109040000Y-69115000D03*
D18*
X109040000Y-66575000D03*
X111580000Y-69115000D03*
X111580000Y-66575000D03*
X114120000Y-69115000D03*
X114120000Y-66575000D03*
%TD*%
D17*
%TO.C,CH3*%
X67200000Y-130400000D03*
D18*
X69740000Y-130400000D03*
X67200000Y-132940000D03*
X69740000Y-132940000D03*
X67200000Y-135480000D03*
X69740000Y-135480000D03*
X67200000Y-138020000D03*
X69740000Y-138020000D03*
X67200000Y-140560000D03*
X69740000Y-140560000D03*
%TD*%
D12*
%TO.C,M3*%
X78500000Y-77500000D03*
%TD*%
D17*
%TO.C,J17*%
X149300000Y-155350000D03*
D19*
X149300000Y-152810000D03*
%TD*%
D17*
%TO.C,CH5*%
X135760000Y-104870000D03*
D18*
X138300000Y-104870000D03*
X135760000Y-107410000D03*
X138300000Y-107410000D03*
X135760000Y-109950000D03*
X138300000Y-109950000D03*
X135760000Y-112490000D03*
X138300000Y-112490000D03*
X135760000Y-115030000D03*
X138300000Y-115030000D03*
%TD*%
D17*
%TO.C,PCI0*%
X136310000Y-125965000D03*
D18*
X138850000Y-125965000D03*
X136310000Y-128505000D03*
X138850000Y-128505000D03*
X136310000Y-131045000D03*
X138850000Y-131045000D03*
%TD*%
D20*
%TO.C,J11*%
X98050320Y-139550060D03*
X98050320Y-137568860D03*
X100549680Y-139550060D03*
D21*
X105319800Y-142267860D03*
X93280200Y-142267860D03*
D20*
X100549680Y-137568860D03*
%TD*%
D17*
%TO.C,CH4*%
X135760000Y-84195000D03*
D18*
X138300000Y-84195000D03*
X135760000Y-86735000D03*
X138300000Y-86735000D03*
X135760000Y-89275000D03*
X138300000Y-89275000D03*
X135760000Y-91815000D03*
X138300000Y-91815000D03*
X135760000Y-94355000D03*
X138300000Y-94355000D03*
%TD*%
D20*
%TO.C,J13*%
X81200320Y-139550060D03*
X81200320Y-137568860D03*
X83699680Y-139550060D03*
D21*
X88469800Y-142267860D03*
X76430200Y-142267860D03*
D20*
X83699680Y-137568860D03*
%TD*%
D17*
%TO.C,CH2*%
X67200000Y-109900000D03*
D18*
X69740000Y-109900000D03*
X67200000Y-112440000D03*
X69740000Y-112440000D03*
X67200000Y-114980000D03*
X69740000Y-114980000D03*
X67200000Y-117520000D03*
X69740000Y-117520000D03*
X67200000Y-120060000D03*
X69740000Y-120060000D03*
%TD*%
D17*
%TO.C,R9*%
X154025000Y-153425000D03*
D19*
X154025000Y-155965000D03*
%TD*%
D17*
%TO.C,D3*%
X78225000Y-133500000D03*
D19*
X80765000Y-133500000D03*
%TD*%
D17*
%TO.C,CH0*%
X67200000Y-67900000D03*
D18*
X69740000Y-67900000D03*
X67200000Y-70440000D03*
X69740000Y-70440000D03*
X67200000Y-72980000D03*
X69740000Y-72980000D03*
X67200000Y-75520000D03*
X69740000Y-75520000D03*
X67200000Y-78060000D03*
X69740000Y-78060000D03*
%TD*%
D12*
%TO.C,M4*%
X68100000Y-153000000D03*
%TD*%
D17*
%TO.C,J20*%
X145125000Y-152775000D03*
D19*
X145125000Y-155315000D03*
%TD*%
D17*
%TO.C,J1*%
X128500000Y-77975000D03*
D19*
X128500000Y-80515000D03*
X128500000Y-83055000D03*
%TD*%
D17*
%TO.C,I2C0*%
X129065000Y-69415000D03*
D18*
X131605000Y-69415000D03*
X134145000Y-69415000D03*
X136685000Y-69415000D03*
X136685000Y-66875000D03*
X134145000Y-66875000D03*
X131605000Y-66875000D03*
X129065000Y-66875000D03*
%TD*%
D17*
%TO.C,CH1*%
X67200000Y-88900000D03*
D18*
X69740000Y-88900000D03*
X67200000Y-91440000D03*
X69740000Y-91440000D03*
X67200000Y-93980000D03*
X69740000Y-93980000D03*
X67200000Y-96520000D03*
X69740000Y-96520000D03*
X67200000Y-99060000D03*
X69740000Y-99060000D03*
%TD*%
M02*
