%TF.GenerationSoftware,KiCad,Pcbnew,8.0.5*%
%TF.CreationDate,2024-09-24T16:47:16-07:00*%
%TF.ProjectId,TFTDriver,54465444-7269-4766-9572-2e6b69636164,rev?*%
%TF.SameCoordinates,Original*%
%TF.FileFunction,Paste,Top*%
%TF.FilePolarity,Positive*%
%FSLAX46Y46*%
G04 Gerber Fmt 4.6, Leading zero omitted, Abs format (unit mm)*
G04 Created by KiCad (PCBNEW 8.0.5) date 2024-09-24 16:47:16*
%MOMM*%
%LPD*%
G01*
G04 APERTURE LIST*
G04 Aperture macros list*
%AMRoundRect*
0 Rectangle with rounded corners*
0 $1 Rounding radius*
0 $2 $3 $4 $5 $6 $7 $8 $9 X,Y pos of 4 corners*
0 Add a 4 corners polygon primitive as box body*
4,1,4,$2,$3,$4,$5,$6,$7,$8,$9,$2,$3,0*
0 Add four circle primitives for the rounded corners*
1,1,$1+$1,$2,$3*
1,1,$1+$1,$4,$5*
1,1,$1+$1,$6,$7*
1,1,$1+$1,$8,$9*
0 Add four rect primitives between the rounded corners*
20,1,$1+$1,$2,$3,$4,$5,0*
20,1,$1+$1,$4,$5,$6,$7,0*
20,1,$1+$1,$6,$7,$8,$9,0*
20,1,$1+$1,$8,$9,$2,$3,0*%
G04 Aperture macros list end*
%ADD10RoundRect,0.237500X-0.250000X-0.237500X0.250000X-0.237500X0.250000X0.237500X-0.250000X0.237500X0*%
%ADD11RoundRect,0.250000X-0.625000X0.400000X-0.625000X-0.400000X0.625000X-0.400000X0.625000X0.400000X0*%
%ADD12R,1.900000X0.800000*%
%ADD13RoundRect,0.237500X0.250000X0.237500X-0.250000X0.237500X-0.250000X-0.237500X0.250000X-0.237500X0*%
%ADD14R,1.651000X1.651000*%
%ADD15C,1.651000*%
%ADD16RoundRect,0.237500X0.237500X-0.250000X0.237500X0.250000X-0.237500X0.250000X-0.237500X-0.250000X0*%
%ADD17R,0.600000X1.450000*%
%ADD18R,3.500000X1.800000*%
%ADD19RoundRect,0.250000X-0.337500X-0.475000X0.337500X-0.475000X0.337500X0.475000X-0.337500X0.475000X0*%
%ADD20RoundRect,0.237500X-0.300000X-0.237500X0.300000X-0.237500X0.300000X0.237500X-0.300000X0.237500X0*%
%ADD21RoundRect,0.237500X-0.237500X0.250000X-0.237500X-0.250000X0.237500X-0.250000X0.237500X0.250000X0*%
%ADD22R,1.000000X1.000000*%
%ADD23C,1.676400*%
%ADD24C,3.302000*%
%ADD25R,0.400000X1.000000*%
%ADD26R,1.560000X0.650000*%
%ADD27RoundRect,0.150000X-0.825000X-0.150000X0.825000X-0.150000X0.825000X0.150000X-0.825000X0.150000X0*%
%ADD28R,1.500000X2.000000*%
%ADD29R,3.800000X2.000000*%
G04 APERTURE END LIST*
D10*
%TO.C,R46*%
X75587500Y-70300000D03*
X77412500Y-70300000D03*
%TD*%
D11*
%TO.C,R45*%
X157300000Y-152950000D03*
X157300000Y-156050000D03*
%TD*%
D12*
%TO.C,Q1*%
X152797499Y-98105262D03*
X152797499Y-100005262D03*
X155797499Y-99055262D03*
%TD*%
D10*
%TO.C,R2*%
X143384999Y-93355262D03*
X145209999Y-93355262D03*
%TD*%
D13*
%TO.C,R3*%
X145309999Y-98055262D03*
X143484999Y-98055262D03*
%TD*%
%TO.C,R4*%
X145209999Y-107655262D03*
X143384999Y-107655262D03*
%TD*%
%TO.C,R5*%
X145309999Y-111855262D03*
X143484999Y-111855262D03*
%TD*%
%TO.C,R6*%
X145309999Y-103655262D03*
X143484999Y-103655262D03*
%TD*%
D14*
%TO.C,J6*%
X157137499Y-94155262D03*
D15*
X154597499Y-94155262D03*
X152057499Y-94155262D03*
%TD*%
D10*
%TO.C,R22*%
X85312500Y-83250000D03*
X87137500Y-83250000D03*
%TD*%
D16*
%TO.C,R17*%
X78900000Y-125812500D03*
X78900000Y-123987500D03*
%TD*%
%TO.C,R15*%
X77400000Y-114312500D03*
X77400000Y-112487500D03*
%TD*%
D10*
%TO.C,R21*%
X83312500Y-86600000D03*
X85137500Y-86600000D03*
%TD*%
D17*
%TO.C,D4*%
X107700000Y-157350000D03*
X108600000Y-155600000D03*
X107700000Y-155600000D03*
X108600000Y-157350000D03*
X108600000Y-150600000D03*
X107700000Y-150600000D03*
X108600000Y-152350000D03*
X107700000Y-152350000D03*
%TD*%
D16*
%TO.C,R28*%
X93500000Y-76412500D03*
X93500000Y-74587500D03*
%TD*%
D18*
%TO.C,D2*%
X85000000Y-133500000D03*
X90000000Y-133500000D03*
%TD*%
D19*
%TO.C,C3*%
X87312500Y-115800000D03*
X89387500Y-115800000D03*
%TD*%
D13*
%TO.C,R44*%
X140412500Y-150450000D03*
X138587500Y-150450000D03*
%TD*%
D16*
%TO.C,R18*%
X75900000Y-125812500D03*
X75900000Y-123987500D03*
%TD*%
%TO.C,R14*%
X75900000Y-114312500D03*
X75900000Y-112487500D03*
%TD*%
D20*
%TO.C,C1*%
X91387500Y-129000000D03*
X93112500Y-129000000D03*
%TD*%
D10*
%TO.C,R33*%
X147257500Y-116050000D03*
X149082500Y-116050000D03*
%TD*%
D21*
%TO.C,R11*%
X76500000Y-97587500D03*
X76500000Y-99412500D03*
%TD*%
D13*
%TO.C,R37*%
X145312500Y-101150000D03*
X143487500Y-101150000D03*
%TD*%
D19*
%TO.C,C2*%
X92425000Y-126600000D03*
X94500000Y-126600000D03*
%TD*%
D21*
%TO.C,R42*%
X128775000Y-150612500D03*
X128775000Y-152437500D03*
%TD*%
%TO.C,R12*%
X78000000Y-97587500D03*
X78000000Y-99412500D03*
%TD*%
D18*
%TO.C,D1*%
X100000000Y-133500000D03*
X95000000Y-133500000D03*
%TD*%
D16*
%TO.C,R38*%
X88900000Y-103274500D03*
X88900000Y-101449500D03*
%TD*%
D21*
%TO.C,R1*%
X79000000Y-87087500D03*
X79000000Y-88912500D03*
%TD*%
%TO.C,R7*%
X76000000Y-87087500D03*
X76000000Y-88912500D03*
%TD*%
D20*
%TO.C,C4*%
X93337500Y-96200000D03*
X95062500Y-96200000D03*
%TD*%
D21*
%TO.C,R43*%
X142000000Y-153587500D03*
X142000000Y-155412500D03*
%TD*%
D13*
%TO.C,R24*%
X81412500Y-95500000D03*
X79587500Y-95500000D03*
%TD*%
D16*
%TO.C,R13*%
X78900000Y-114312500D03*
X78900000Y-112487500D03*
%TD*%
D22*
%TO.C,J19*%
X115900000Y-154000000D03*
X115900000Y-155540000D03*
X115900000Y-157080000D03*
%TD*%
D16*
%TO.C,R40*%
X104850000Y-128562500D03*
X104850000Y-126737500D03*
%TD*%
%TO.C,R20*%
X123000000Y-77412500D03*
X123000000Y-75587500D03*
%TD*%
D10*
%TO.C,R34*%
X145417500Y-137760000D03*
X147242500Y-137760000D03*
%TD*%
D13*
%TO.C,R25*%
X77362500Y-67450000D03*
X75537500Y-67450000D03*
%TD*%
D23*
%TO.C,J11*%
X98050320Y-139550060D03*
X98050320Y-137568860D03*
X100549680Y-139550060D03*
D24*
X105319800Y-142267860D03*
X93280200Y-142267860D03*
D23*
X100549680Y-137568860D03*
%TD*%
D16*
%TO.C,R29*%
X86500000Y-76412500D03*
X86500000Y-74587500D03*
%TD*%
D21*
%TO.C,R35*%
X86741000Y-101449500D03*
X86741000Y-103274500D03*
%TD*%
D25*
%TO.C,U19*%
X92925000Y-88100000D03*
X92275000Y-88100000D03*
X91625000Y-88100000D03*
X90975000Y-88100000D03*
X90325000Y-88100000D03*
X89675000Y-88100000D03*
X89025000Y-88100000D03*
X88375000Y-88100000D03*
X87725000Y-88100000D03*
X87075000Y-88100000D03*
X87075000Y-93900000D03*
X87725000Y-93900000D03*
X88375000Y-93900000D03*
X89025000Y-93900000D03*
X89675000Y-93900000D03*
X90325000Y-93900000D03*
X90975000Y-93900000D03*
X91625000Y-93900000D03*
X92275000Y-93900000D03*
X92925000Y-93900000D03*
%TD*%
D23*
%TO.C,J13*%
X81200320Y-139550060D03*
X81200320Y-137568860D03*
X83699680Y-139550060D03*
D24*
X88469800Y-142267860D03*
X76430200Y-142267860D03*
D23*
X83699680Y-137568860D03*
%TD*%
D13*
%TO.C,R26*%
X80812500Y-116400000D03*
X78987500Y-116400000D03*
%TD*%
D10*
%TO.C,R16*%
X90462500Y-81175000D03*
X92287500Y-81175000D03*
%TD*%
D16*
%TO.C,R31*%
X90000000Y-76412500D03*
X90000000Y-74587500D03*
%TD*%
D10*
%TO.C,R32*%
X147317500Y-114280000D03*
X149142500Y-114280000D03*
%TD*%
D16*
%TO.C,R30*%
X97000000Y-76412500D03*
X97000000Y-74587500D03*
%TD*%
D21*
%TO.C,R39*%
X90932000Y-101449500D03*
X90932000Y-103274500D03*
%TD*%
D16*
%TO.C,R19*%
X77400000Y-125812500D03*
X77400000Y-123987500D03*
%TD*%
D26*
%TO.C,U4*%
X122000000Y-153600000D03*
X122000000Y-154550000D03*
X122000000Y-155500000D03*
X124700000Y-155500000D03*
X124700000Y-154550000D03*
X124700000Y-153600000D03*
%TD*%
D16*
%TO.C,R23*%
X124500000Y-77412500D03*
X124500000Y-75587500D03*
%TD*%
D10*
%TO.C,R36*%
X136987500Y-76800000D03*
X138812500Y-76800000D03*
%TD*%
D27*
%TO.C,Q2*%
X134500000Y-152370000D03*
X134500000Y-153640000D03*
X134500000Y-154910000D03*
X134500000Y-156180000D03*
X139450000Y-156180000D03*
X139450000Y-154910000D03*
X139450000Y-153640000D03*
X139450000Y-152370000D03*
%TD*%
D13*
%TO.C,R41*%
X132312500Y-150525000D03*
X130487500Y-150525000D03*
%TD*%
D28*
%TO.C,U3*%
X84700000Y-125150000D03*
X87000000Y-125150000D03*
X89300000Y-125150000D03*
D29*
X87000000Y-118850000D03*
%TD*%
D13*
%TO.C,R27*%
X80812500Y-127900000D03*
X78987500Y-127900000D03*
%TD*%
D21*
%TO.C,R10*%
X79500000Y-97587500D03*
X79500000Y-99412500D03*
%TD*%
%TO.C,R8*%
X77500000Y-87087500D03*
X77500000Y-88912500D03*
%TD*%
M02*
