M48
; DRILL file {KiCad 8.0.5} date 2024-09-24T16:47:19-0700
; FORMAT={-:-/ absolute / metric / decimal}
; #@! TF.CreationDate,2024-09-24T16:47:19-07:00
; #@! TF.GenerationSoftware,Kicad,Pcbnew,8.0.5
; #@! TF.FileFunction,MixedPlating,1,2
FMAT,2
METRIC
; #@! TA.AperFunction,Plated,PTH,ViaDrill
T1C0.400
; #@! TA.AperFunction,Plated,PTH,ViaDrill
T2C0.600
; #@! TA.AperFunction,Plated,PTH,ViaDrill
T3C0.800
; #@! TA.AperFunction,Plated,PTH,ComponentDrill
T4C0.800
; #@! TA.AperFunction,Plated,PTH,ComponentDrill
T5C0.889
; #@! TA.AperFunction,Plated,PTH,ComponentDrill
T6C0.914
; #@! TA.AperFunction,Plated,PTH,ComponentDrill
T7C0.950
; #@! TA.AperFunction,Plated,PTH,ComponentDrill
T8C1.000
; #@! TA.AperFunction,Plated,PTH,ComponentDrill
T9C1.100
; #@! TA.AperFunction,Plated,PTH,ComponentDrill
T10C1.200
; #@! TA.AperFunction,Plated,PTH,ComponentDrill
T11C2.286
; #@! TA.AperFunction,Plated,PTH,ComponentDrill
T12C4.000
%
G90
G05
T1
X66.1Y-83.85
X66.7Y-146.85
X67.4Y-128.175
X69.175Y-102.525
X71.05Y-85.45
X71.55Y-127.527
X71.575Y-83.0
X72.05Y-97.3
X72.2Y-118.0
X72.4Y-136.5
X73.6Y-81.4
X74.3Y-128.15
X74.9Y-118.625
X75.1Y-139.2
X75.25Y-135.25
X75.3Y-104.35
X75.45Y-65.325
X75.5Y-71.6
X75.6Y-121.65
X75.8Y-115.5
X75.9Y-108.9
X75.95Y-91.45
X76.0Y-85.35
X76.241Y-104.95
X76.3Y-93.95
X76.529Y-84.05
X76.6Y-102.15
X76.8Y-130.45
X77.25Y-116.25
X77.405Y-128.155
X77.425Y-110.675
X77.45Y-156.925
X77.5Y-120.7
X77.675Y-83.35
X77.7Y-94.35
X77.95Y-95.7
X78.0Y-69.3
X78.02Y-101.45
X78.55Y-119.75
X78.75Y-93.2
X78.9Y-118.0
X79.1Y-107.8
X79.563Y-100.85
X79.575Y-109.975
X79.8Y-90.55
X80.4Y-96.967
X80.812Y-123.212
X81.0Y-105.05
X81.025Y-106.8
X81.8Y-102.25
X82.1Y-70.1
X82.325Y-143.875
X82.6Y-91.55
X82.75Y-127.025
X82.775Y-65.15
X82.8Y-74.5
X82.85Y-101.65
X83.05Y-113.0
X83.107Y-90.688
X83.2Y-67.9
X83.45Y-85.3
X83.475Y-115.9
X83.65Y-101.0
X83.816Y-89.984
X84.0Y-83.75
X84.425Y-129.7
X84.5Y-128.325
X84.7Y-106.4
X84.9Y-73.55
X85.0Y-88.4
X85.225Y-114.05
X85.7Y-108.4
X85.9Y-109.9
X85.979Y-97.049
X86.047Y-71.153
X86.275Y-156.425
X86.3Y-86.275
X87.1Y-97.55
X87.677Y-90.001
X88.325Y-83.3
X88.65Y-86.975
X88.675Y-89.4
X88.9Y-78.7
X88.95Y-91.25
X89.0Y-98.2
X89.075Y-95.224
X89.15Y-104.35
X89.2Y-81.125
X89.65Y-84.15
X89.737Y-72.462
X89.95Y-99.0
X90.35Y-92.15
X90.45Y-90.6
X90.9Y-89.55
X90.95Y-96.35
X90.975Y-86.175
X90.975Y-113.675
X91.075Y-116.9
X91.225Y-130.875
X91.575Y-125.175
X91.575Y-92.765
X92.35Y-83.9
X93.382Y-71.799
X94.375Y-130.9
X95.025Y-91.925
X95.1Y-102.6
X95.1Y-106.5
X95.1Y-109.9
X95.2Y-99.0
X95.425Y-115.9
X95.525Y-94.175
X95.625Y-87.15
X96.175Y-125.025
X96.475Y-157.45
X96.8Y-145.3
X97.05Y-93.35
X97.05Y-119.55
X97.125Y-128.1
X97.55Y-120.95
X97.692Y-72.851
X98.15Y-153.75
X98.37Y-88.85
X98.45Y-121.45
X98.5Y-91.75
X99.189Y-122.2
X99.3Y-84.599
X100.125Y-119.15
X100.175Y-112.8
X100.5Y-78.8
X100.8Y-129.85
X100.95Y-89.75
X101.007Y-109.15
X101.3Y-67.0
X101.4Y-86.7
X101.649Y-98.25
X101.737Y-102.748
X102.3Y-106.3
X102.35Y-95.675
X102.675Y-92.675
X102.706Y-107.25
X104.1Y-134.7
X104.2Y-106.5
X104.3Y-71.1
X105.0Y-109.0
X105.099Y-72.499
X105.175Y-119.775
X105.4Y-113.475
X105.4Y-131.75
X105.7Y-139.1
X106.8Y-86.9
X107.0Y-101.4
X107.1Y-79.4
X107.1Y-99.0
X107.2Y-103.9
X107.3Y-108.0
X107.3Y-109.9
X107.325Y-92.625
X107.575Y-95.9
X108.9Y-86.2
X110.1Y-86.8
X111.85Y-89.385
X111.85Y-95.325
X111.85Y-112.594
X112.5Y-74.2
X112.5Y-127.3
X113.6Y-90.0
X113.7Y-93.0
X113.8Y-124.5
X114.4Y-80.2
X114.65Y-136.85
X114.8Y-84.0
X115.125Y-141.975
X115.8Y-106.3
X115.8Y-108.9
X115.8Y-112.8
X116.6Y-135.3
X116.925Y-121.425
X116.95Y-119.35
X116.95Y-145.75
X116.975Y-152.425
X117.025Y-128.875
X117.125Y-124.275
X117.175Y-126.65
X117.5Y-116.8
X117.525Y-71.763
X117.646Y-72.95
X117.725Y-139.4
X118.3Y-118.4
X118.5Y-109.3
X118.55Y-97.65
X118.6Y-113.8
X119.35Y-134.425
X119.7Y-73.625
X120.1Y-144.75
X120.299Y-110.565
X120.9Y-68.2
X121.3Y-146.0
X121.5Y-116.7
X121.95Y-94.95
X121.999Y-122.698
X121.999Y-129.201
X122.125Y-112.675
X122.2Y-106.2
X122.3Y-90.0
X122.5Y-82.0
X122.5Y-124.1
X122.7Y-136.0
X122.8Y-139.5
X122.9Y-72.7
X123.0Y-143.275
X123.225Y-121.75
X123.275Y-118.85
X123.75Y-126.65
X123.75Y-131.725
X124.5Y-73.4
X124.6Y-78.55
X125.325Y-84.975
X127.025Y-152.3
X127.3Y-117.3
X127.3Y-128.925
X127.6Y-96.431
X127.7Y-104.0
X127.8Y-100.9
X127.8Y-110.9
X127.8Y-119.2
X127.9Y-86.271
X128.0Y-136.8
X128.3Y-91.35
X128.325Y-97.925
X129.0Y-116.649
X129.4Y-149.3
X129.9Y-148.0
X130.2Y-139.3
X130.2Y-127.8
X130.325Y-134.35
X130.8Y-124.775
X130.8Y-130.2
X131.225Y-140.125
X131.6Y-87.2
X131.6Y-99.0
X131.6Y-115.1
X131.675Y-144.275
X131.732Y-139.02
X131.75Y-102.675
X131.9Y-112.425
X132.18Y-152.37
X132.3Y-114.4
X132.5Y-138.799
X132.625Y-108.825
X132.675Y-105.1
X132.8Y-122.0
X132.925Y-85.875
X132.932Y-137.7
X133.0Y-94.025
X133.275Y-107.525
X133.41Y-104.4
X134.31Y-96.14
X134.31Y-103.215
X134.4Y-73.2
X135.8Y-143.875
X135.85Y-101.125
X136.6Y-72.6
X137.275Y-122.6
X137.525Y-118.375
X137.65Y-133.375
X138.3Y-98.3
X138.725Y-78.15
X139.824Y-138.799
X140.1Y-148.0
X140.45Y-88.125
X140.55Y-96.0
X140.7Y-91.975
X140.775Y-104.65
X140.925Y-141.325
X141.661Y-156.489
X142.25Y-103.35
X142.3Y-101.1
X142.4Y-135.201
X142.4Y-147.4
X142.5Y-68.9
X142.91Y-116.649
X143.025Y-109.875
X143.075Y-118.725
X143.325Y-91.9
X143.69Y-140.89
X143.85Y-125.9
X144.651Y-114.111
X144.7Y-138.799
X144.72Y-135.52
X145.297Y-106.168
X145.397Y-99.355
X145.8Y-119.925
X146.518Y-112.24
X146.74Y-117.15
X147.27Y-102.47
X147.4Y-139.0
X148.175Y-116.75
X148.86Y-140.52
X149.988Y-146.857
X150.1Y-137.7
X150.78Y-131.81
X151.325Y-133.425
X151.35Y-140.62
X152.097Y-113.055
X152.6Y-137.1
X153.5Y-121.6
X153.68Y-140.35
X154.697Y-106.255
X156.697Y-114.555
X157.425Y-137.475
X157.897Y-99.255
T2
X93.6Y-123.4
X109.825Y-157.725
X111.975Y-156.975
X119.525Y-154.7
X126.925Y-154.475
X128.85Y-153.6
X130.108Y-154.901
X136.55Y-149.3
X140.438Y-157.15
X147.55Y-148.1
X154.35Y-148.1
X154.75Y-130.1
X156.8Y-149.1
X157.925Y-157.95
T3
X64.0Y-112.2
X64.0Y-123.3
X64.04Y-91.44
X89.75Y-63.5
X97.6Y-63.5
X107.1Y-123.4
X110.775Y-150.225
X117.2Y-63.65
X125.1Y-63.55
X134.4Y-150.5
X134.45Y-78.3
X147.8Y-150.6
T4
X149.577Y-103.655
X149.577Y-111.275
X152.117Y-103.655
X152.117Y-111.275
X154.657Y-103.655
X154.657Y-111.275
X157.197Y-103.655
X157.197Y-111.275
T5
X152.057Y-94.155
X154.597Y-94.155
X157.137Y-94.155
T6
X81.2Y-137.569
X81.2Y-139.55
X83.7Y-137.569
X83.7Y-139.55
X98.05Y-137.569
X98.05Y-139.55
X100.55Y-137.569
X100.55Y-139.55
T7
X67.2Y-67.9
X67.2Y-70.44
X67.2Y-72.98
X67.2Y-75.52
X67.2Y-78.06
X67.2Y-88.9
X67.2Y-91.44
X67.2Y-93.98
X67.2Y-96.52
X67.2Y-99.06
X67.2Y-109.9
X67.2Y-112.44
X67.2Y-114.98
X67.2Y-117.52
X67.2Y-120.06
X67.2Y-130.4
X67.2Y-132.94
X67.2Y-135.48
X67.2Y-138.02
X67.2Y-140.56
X69.74Y-67.9
X69.74Y-70.44
X69.74Y-72.98
X69.74Y-75.52
X69.74Y-78.06
X69.74Y-88.9
X69.74Y-91.44
X69.74Y-93.98
X69.74Y-96.52
X69.74Y-99.06
X69.74Y-109.9
X69.74Y-112.44
X69.74Y-114.98
X69.74Y-117.52
X69.74Y-120.06
X69.74Y-130.4
X69.74Y-132.94
X69.74Y-135.48
X69.74Y-138.02
X69.74Y-140.56
X84.657Y-66.735
X84.657Y-69.275
X87.197Y-66.735
X87.197Y-69.275
X89.737Y-66.735
X89.737Y-69.275
X92.277Y-66.735
X92.277Y-69.275
X94.817Y-66.735
X94.817Y-69.275
X97.358Y-66.735
X97.358Y-69.275
X109.04Y-66.575
X109.04Y-69.115
X111.58Y-66.575
X111.58Y-69.115
X114.12Y-66.575
X114.12Y-69.115
X129.065Y-66.875
X129.065Y-69.415
X131.605Y-66.875
X131.605Y-69.415
X134.145Y-66.875
X134.145Y-69.415
X135.76Y-84.195
X135.76Y-86.735
X135.76Y-89.275
X135.76Y-91.815
X135.76Y-94.355
X135.76Y-104.87
X135.76Y-107.41
X135.76Y-109.95
X135.76Y-112.49
X135.76Y-115.03
X136.31Y-125.965
X136.31Y-128.505
X136.31Y-131.045
X136.685Y-66.875
X136.685Y-69.415
X137.368Y-142.835
X137.368Y-145.375
X138.3Y-84.195
X138.3Y-86.735
X138.3Y-89.275
X138.3Y-91.815
X138.3Y-94.355
X138.3Y-104.87
X138.3Y-107.41
X138.3Y-109.95
X138.3Y-112.49
X138.3Y-115.03
X138.85Y-125.965
X138.85Y-128.505
X138.85Y-131.045
X139.907Y-142.835
X139.907Y-145.375
X142.447Y-142.835
X142.447Y-145.375
X144.987Y-142.835
X144.987Y-145.375
X147.528Y-142.835
X147.528Y-145.375
X150.067Y-142.835
X150.067Y-145.375
X152.607Y-142.835
X152.607Y-145.375
X155.147Y-142.835
X155.147Y-145.375
T8
X78.225Y-133.5
X80.765Y-133.5
X128.5Y-77.975
X128.5Y-80.515
X128.5Y-83.055
X145.125Y-152.775
X145.125Y-155.315
X149.3Y-152.81
X149.3Y-155.35
X154.025Y-153.425
X154.025Y-155.965
T9
X110.28Y-88.705
X110.28Y-91.245
X110.28Y-93.785
X110.28Y-96.325
X110.28Y-98.865
X110.28Y-101.405
X110.28Y-103.945
X110.28Y-106.485
X110.28Y-109.025
X110.28Y-111.565
X110.28Y-114.105
X110.28Y-116.645
X110.28Y-119.185
X110.28Y-121.725
X110.28Y-124.265
X110.28Y-126.805
X110.28Y-129.345
X110.28Y-131.885
X110.28Y-134.425
X110.28Y-136.965
X110.28Y-139.505
X110.28Y-142.045
X110.28Y-144.585
X110.28Y-147.125
X125.52Y-88.705
X125.52Y-91.245
X125.52Y-93.785
X125.52Y-96.325
X125.52Y-98.865
X125.52Y-101.405
X125.52Y-103.945
X125.52Y-106.485
X125.52Y-109.025
X125.52Y-111.565
X125.52Y-114.105
X125.52Y-116.645
X125.52Y-119.185
X125.52Y-121.725
X125.52Y-124.265
X125.52Y-126.805
X125.52Y-129.345
X125.52Y-131.885
X125.52Y-134.425
X125.52Y-136.965
X125.52Y-139.505
X125.52Y-142.045
X125.52Y-144.585
X125.52Y-147.125
T10
X145.097Y-76.955
X145.097Y-86.955
X145.097Y-121.955
X145.097Y-131.955
X147.597Y-74.455
X147.597Y-81.955
X147.597Y-89.455
X147.597Y-119.455
X147.597Y-126.955
X147.597Y-134.455
X157.597Y-76.955
X157.597Y-79.455
X157.597Y-84.455
X157.597Y-86.955
X157.597Y-121.955
X157.597Y-124.455
X157.597Y-129.455
X157.597Y-131.955
T11
X76.43Y-142.268
X88.47Y-142.268
X93.28Y-142.268
X105.32Y-142.268
T12
X68.1Y-153.0
X78.5Y-77.5
X151.6Y-66.1
M30
