%TF.GenerationSoftware,KiCad,Pcbnew,(6.0.9)*%
%TF.CreationDate,2023-05-25T12:40:49-07:00*%
%TF.ProjectId,24InputUC,3234496e-7075-4745-9543-2e6b69636164,rev?*%
%TF.SameCoordinates,Original*%
%TF.FileFunction,Soldermask,Bot*%
%TF.FilePolarity,Negative*%
%FSLAX46Y46*%
G04 Gerber Fmt 4.6, Leading zero omitted, Abs format (unit mm)*
G04 Created by KiCad (PCBNEW (6.0.9)) date 2023-05-25 12:40:49*
%MOMM*%
%LPD*%
G01*
G04 APERTURE LIST*
%TA.AperFunction,Profile*%
%ADD10C,0.150000*%
%TD*%
%ADD11R,1.700000X1.700000*%
%ADD12O,1.700000X1.700000*%
%ADD13C,3.263900*%
%ADD14O,2.540000X2.540000*%
%ADD15C,1.700000*%
G04 APERTURE END LIST*
D10*
X150000000Y-70700000D02*
X150000000Y-166300000D01*
X100500000Y-70700000D02*
X150000000Y-70700000D01*
X150000000Y-166300000D02*
X100500000Y-166300000D01*
X100500000Y-166300000D02*
X100500000Y-70700000D01*
D11*
X104190800Y-148869400D03*
D12*
X106740000Y-148847200D03*
D11*
X131200000Y-143150000D03*
D12*
X131200000Y-145690000D03*
X131200000Y-148230000D03*
X131200000Y-150770000D03*
X131200000Y-153310000D03*
X131200000Y-155850000D03*
D13*
X104800000Y-74800000D03*
X134100000Y-74400000D03*
D14*
X147320000Y-116510000D03*
X147320000Y-112550000D03*
X147320000Y-108590000D03*
X147320000Y-104630000D03*
X147320000Y-100670000D03*
X147320000Y-96710000D03*
X147320000Y-92750000D03*
X147320000Y-88790000D03*
X147320000Y-84830000D03*
X147320000Y-80870000D03*
X147320000Y-76910000D03*
X147320000Y-72950000D03*
D11*
X120000000Y-119100000D03*
D15*
X120000000Y-116560000D03*
X122540000Y-119100000D03*
X122540000Y-116560000D03*
X125080000Y-119100000D03*
X125080000Y-116560000D03*
X127620000Y-119100000D03*
X127620000Y-116560000D03*
X130160000Y-119100000D03*
X130160000Y-116560000D03*
X132700000Y-119100000D03*
X132700000Y-116560000D03*
D14*
X124500000Y-92000000D03*
D13*
X135900000Y-162800000D03*
D11*
X105345000Y-92365000D03*
D15*
X105345000Y-89825000D03*
X107885000Y-92365000D03*
X107885000Y-89825000D03*
X110425000Y-92365000D03*
X110425000Y-89825000D03*
X112965000Y-92365000D03*
X112965000Y-89825000D03*
X115505000Y-92365000D03*
X115505000Y-89825000D03*
D11*
X104190000Y-115860000D03*
D15*
X106730000Y-115860000D03*
X104190000Y-118400000D03*
X106730000Y-118400000D03*
X104190000Y-120940000D03*
X106730000Y-120940000D03*
X104190000Y-123480000D03*
X106730000Y-123480000D03*
X104190000Y-126020000D03*
X106730000Y-126020000D03*
X104190000Y-128560000D03*
X106730000Y-128560000D03*
X104190000Y-131100000D03*
X106730000Y-131100000D03*
X104190000Y-133640000D03*
X106730000Y-133640000D03*
X104190000Y-136180000D03*
X106730000Y-136180000D03*
X104190000Y-138720000D03*
X106730000Y-138720000D03*
X104190000Y-141260000D03*
X106730000Y-141260000D03*
X104190000Y-143800000D03*
X106730000Y-143800000D03*
X104190000Y-146340000D03*
X106730000Y-146340000D03*
D11*
X107600000Y-106300000D03*
D15*
X107600000Y-103760000D03*
X110140000Y-106300000D03*
X110140000Y-103760000D03*
X112680000Y-106300000D03*
X112680000Y-103760000D03*
D11*
X120000000Y-132900000D03*
D15*
X120000000Y-130360000D03*
X122540000Y-132900000D03*
X122540000Y-130360000D03*
X125080000Y-132900000D03*
X125080000Y-130360000D03*
X127620000Y-132900000D03*
X127620000Y-130360000D03*
X130160000Y-132900000D03*
X130160000Y-130360000D03*
X132700000Y-132900000D03*
X132700000Y-130360000D03*
D14*
X147320000Y-164020000D03*
X147320000Y-160060000D03*
X147320000Y-156100000D03*
X147320000Y-152140000D03*
X147320000Y-148180000D03*
X147320000Y-144220000D03*
X147320000Y-140260000D03*
X147320000Y-136300000D03*
X147320000Y-132340000D03*
X147320000Y-128380000D03*
X147320000Y-124420000D03*
X147320000Y-120460000D03*
X124460000Y-73660000D03*
D11*
X111526630Y-78600000D03*
D12*
X111526630Y-81140000D03*
X111526630Y-83680000D03*
M02*
