%TF.GenerationSoftware,KiCad,Pcbnew,(6.0.9)*%
%TF.CreationDate,2023-05-25T12:40:49-07:00*%
%TF.ProjectId,24InputUC,3234496e-7075-4745-9543-2e6b69636164,rev?*%
%TF.SameCoordinates,Original*%
%TF.FileFunction,Legend,Top*%
%TF.FilePolarity,Positive*%
%FSLAX46Y46*%
G04 Gerber Fmt 4.6, Leading zero omitted, Abs format (unit mm)*
G04 Created by KiCad (PCBNEW (6.0.9)) date 2023-05-25 12:40:49*
%MOMM*%
%LPD*%
G01*
G04 APERTURE LIST*
%TA.AperFunction,Profile*%
%ADD10C,0.150000*%
%TD*%
%ADD11C,0.150000*%
%ADD12C,0.120000*%
G04 APERTURE END LIST*
D10*
X150000000Y-70700000D02*
X150000000Y-166300000D01*
X100500000Y-70700000D02*
X150000000Y-70700000D01*
X150000000Y-166300000D02*
X100500000Y-166300000D01*
X100500000Y-166300000D02*
X100500000Y-70700000D01*
D11*
X135233333Y-83437619D02*
X135280952Y-83390000D01*
X135376190Y-83342380D01*
X135614285Y-83342380D01*
X135709523Y-83390000D01*
X135757142Y-83437619D01*
X135804761Y-83532857D01*
X135804761Y-83628095D01*
X135757142Y-83770952D01*
X135185714Y-84342380D01*
X135804761Y-84342380D01*
X136661904Y-83675714D02*
X136661904Y-84342380D01*
X136423809Y-83294761D02*
X136185714Y-84009047D01*
X136804761Y-84009047D01*
X137185714Y-84342380D02*
X137185714Y-83342380D01*
X137661904Y-83675714D02*
X137661904Y-84342380D01*
X137661904Y-83770952D02*
X137709523Y-83723333D01*
X137804761Y-83675714D01*
X137947619Y-83675714D01*
X138042857Y-83723333D01*
X138090476Y-83818571D01*
X138090476Y-84342380D01*
X138566666Y-83675714D02*
X138566666Y-84675714D01*
X138566666Y-83723333D02*
X138661904Y-83675714D01*
X138852380Y-83675714D01*
X138947619Y-83723333D01*
X138995238Y-83770952D01*
X139042857Y-83866190D01*
X139042857Y-84151904D01*
X138995238Y-84247142D01*
X138947619Y-84294761D01*
X138852380Y-84342380D01*
X138661904Y-84342380D01*
X138566666Y-84294761D01*
X139900000Y-83675714D02*
X139900000Y-84342380D01*
X139471428Y-83675714D02*
X139471428Y-84199523D01*
X139519047Y-84294761D01*
X139614285Y-84342380D01*
X139757142Y-84342380D01*
X139852380Y-84294761D01*
X139900000Y-84247142D01*
X140233333Y-83675714D02*
X140614285Y-83675714D01*
X140376190Y-83342380D02*
X140376190Y-84199523D01*
X140423809Y-84294761D01*
X140519047Y-84342380D01*
X140614285Y-84342380D01*
X140947619Y-83342380D02*
X140947619Y-84151904D01*
X140995238Y-84247142D01*
X141042857Y-84294761D01*
X141138095Y-84342380D01*
X141328571Y-84342380D01*
X141423809Y-84294761D01*
X141471428Y-84247142D01*
X141519047Y-84151904D01*
X141519047Y-83342380D01*
X142566666Y-84247142D02*
X142519047Y-84294761D01*
X142376190Y-84342380D01*
X142280952Y-84342380D01*
X142138095Y-84294761D01*
X142042857Y-84199523D01*
X141995238Y-84104285D01*
X141947619Y-83913809D01*
X141947619Y-83770952D01*
X141995238Y-83580476D01*
X142042857Y-83485238D01*
X142138095Y-83390000D01*
X142280952Y-83342380D01*
X142376190Y-83342380D01*
X142519047Y-83390000D01*
X142566666Y-83437619D01*
X137519047Y-85952380D02*
X137185714Y-85476190D01*
X136947619Y-85952380D02*
X136947619Y-84952380D01*
X137328571Y-84952380D01*
X137423809Y-85000000D01*
X137471428Y-85047619D01*
X137519047Y-85142857D01*
X137519047Y-85285714D01*
X137471428Y-85380952D01*
X137423809Y-85428571D01*
X137328571Y-85476190D01*
X136947619Y-85476190D01*
X138328571Y-85904761D02*
X138233333Y-85952380D01*
X138042857Y-85952380D01*
X137947619Y-85904761D01*
X137900000Y-85809523D01*
X137900000Y-85428571D01*
X137947619Y-85333333D01*
X138042857Y-85285714D01*
X138233333Y-85285714D01*
X138328571Y-85333333D01*
X138376190Y-85428571D01*
X138376190Y-85523809D01*
X137900000Y-85619047D01*
X138709523Y-85285714D02*
X138947619Y-85952380D01*
X139185714Y-85285714D01*
X140900000Y-85857142D02*
X140852380Y-85904761D01*
X140709523Y-85952380D01*
X140614285Y-85952380D01*
X140471428Y-85904761D01*
X140376190Y-85809523D01*
X140328571Y-85714285D01*
X140280952Y-85523809D01*
X140280952Y-85380952D01*
X140328571Y-85190476D01*
X140376190Y-85095238D01*
X140471428Y-85000000D01*
X140614285Y-84952380D01*
X140709523Y-84952380D01*
X140852380Y-85000000D01*
X140900000Y-85047619D01*
X135280952Y-86657619D02*
X135328571Y-86610000D01*
X135423809Y-86562380D01*
X135661904Y-86562380D01*
X135757142Y-86610000D01*
X135804761Y-86657619D01*
X135852380Y-86752857D01*
X135852380Y-86848095D01*
X135804761Y-86990952D01*
X135233333Y-87562380D01*
X135852380Y-87562380D01*
X136471428Y-86562380D02*
X136566666Y-86562380D01*
X136661904Y-86610000D01*
X136709523Y-86657619D01*
X136757142Y-86752857D01*
X136804761Y-86943333D01*
X136804761Y-87181428D01*
X136757142Y-87371904D01*
X136709523Y-87467142D01*
X136661904Y-87514761D01*
X136566666Y-87562380D01*
X136471428Y-87562380D01*
X136376190Y-87514761D01*
X136328571Y-87467142D01*
X136280952Y-87371904D01*
X136233333Y-87181428D01*
X136233333Y-86943333D01*
X136280952Y-86752857D01*
X136328571Y-86657619D01*
X136376190Y-86610000D01*
X136471428Y-86562380D01*
X137185714Y-86657619D02*
X137233333Y-86610000D01*
X137328571Y-86562380D01*
X137566666Y-86562380D01*
X137661904Y-86610000D01*
X137709523Y-86657619D01*
X137757142Y-86752857D01*
X137757142Y-86848095D01*
X137709523Y-86990952D01*
X137138095Y-87562380D01*
X137757142Y-87562380D01*
X138090476Y-86562380D02*
X138709523Y-86562380D01*
X138376190Y-86943333D01*
X138519047Y-86943333D01*
X138614285Y-86990952D01*
X138661904Y-87038571D01*
X138709523Y-87133809D01*
X138709523Y-87371904D01*
X138661904Y-87467142D01*
X138614285Y-87514761D01*
X138519047Y-87562380D01*
X138233333Y-87562380D01*
X138138095Y-87514761D01*
X138090476Y-87467142D01*
X139328571Y-86562380D02*
X139423809Y-86562380D01*
X139519047Y-86610000D01*
X139566666Y-86657619D01*
X139614285Y-86752857D01*
X139661904Y-86943333D01*
X139661904Y-87181428D01*
X139614285Y-87371904D01*
X139566666Y-87467142D01*
X139519047Y-87514761D01*
X139423809Y-87562380D01*
X139328571Y-87562380D01*
X139233333Y-87514761D01*
X139185714Y-87467142D01*
X139138095Y-87371904D01*
X139090476Y-87181428D01*
X139090476Y-86943333D01*
X139138095Y-86752857D01*
X139185714Y-86657619D01*
X139233333Y-86610000D01*
X139328571Y-86562380D01*
X140566666Y-86562380D02*
X140090476Y-86562380D01*
X140042857Y-87038571D01*
X140090476Y-86990952D01*
X140185714Y-86943333D01*
X140423809Y-86943333D01*
X140519047Y-86990952D01*
X140566666Y-87038571D01*
X140614285Y-87133809D01*
X140614285Y-87371904D01*
X140566666Y-87467142D01*
X140519047Y-87514761D01*
X140423809Y-87562380D01*
X140185714Y-87562380D01*
X140090476Y-87514761D01*
X140042857Y-87467142D01*
X140995238Y-86657619D02*
X141042857Y-86610000D01*
X141138095Y-86562380D01*
X141376190Y-86562380D01*
X141471428Y-86610000D01*
X141519047Y-86657619D01*
X141566666Y-86752857D01*
X141566666Y-86848095D01*
X141519047Y-86990952D01*
X140947619Y-87562380D01*
X141566666Y-87562380D01*
X142423809Y-86895714D02*
X142423809Y-87562380D01*
X142185714Y-86514761D02*
X141947619Y-87229047D01*
X142566666Y-87229047D01*
X125876190Y-74795238D02*
X125971428Y-74700000D01*
X126161904Y-74604761D01*
X126638095Y-74604761D01*
X126828571Y-74700000D01*
X126923809Y-74795238D01*
X127019047Y-74985714D01*
X127019047Y-75176190D01*
X126923809Y-75461904D01*
X125780952Y-76604761D01*
X127019047Y-76604761D01*
X128828571Y-74604761D02*
X127876190Y-74604761D01*
X127780952Y-75557142D01*
X127876190Y-75461904D01*
X128066666Y-75366666D01*
X128542857Y-75366666D01*
X128733333Y-75461904D01*
X128828571Y-75557142D01*
X128923809Y-75747619D01*
X128923809Y-76223809D01*
X128828571Y-76414285D01*
X128733333Y-76509523D01*
X128542857Y-76604761D01*
X128066666Y-76604761D01*
X127876190Y-76509523D01*
X127780952Y-76414285D01*
X141095238Y-74203809D02*
X141000000Y-74108571D01*
X140904761Y-73918095D01*
X140904761Y-73441904D01*
X141000000Y-73251428D01*
X141095238Y-73156190D01*
X141285714Y-73060952D01*
X141476190Y-73060952D01*
X141761904Y-73156190D01*
X142904761Y-74299047D01*
X142904761Y-73060952D01*
X141571428Y-71346666D02*
X142904761Y-71346666D01*
X140809523Y-71822857D02*
X142238095Y-72299047D01*
X142238095Y-71060952D01*
X141884761Y-164068571D02*
X141884761Y-165211428D01*
X141884761Y-164640000D02*
X139884761Y-164640000D01*
X140170476Y-164830476D01*
X140360952Y-165020952D01*
X140456190Y-165211428D01*
X102990476Y-151552380D02*
X102990476Y-152266666D01*
X102942857Y-152409523D01*
X102847619Y-152504761D01*
X102704761Y-152552380D01*
X102609523Y-152552380D01*
X103990476Y-152552380D02*
X103419047Y-152552380D01*
X103704761Y-152552380D02*
X103704761Y-151552380D01*
X103609523Y-151695238D01*
X103514285Y-151790476D01*
X103419047Y-151838095D01*
X104942857Y-152552380D02*
X104371428Y-152552380D01*
X104657142Y-152552380D02*
X104657142Y-151552380D01*
X104561904Y-151695238D01*
X104466666Y-151790476D01*
X104371428Y-151838095D01*
X128433333Y-80357142D02*
X128385714Y-80404761D01*
X128242857Y-80452380D01*
X128147619Y-80452380D01*
X128004761Y-80404761D01*
X127909523Y-80309523D01*
X127861904Y-80214285D01*
X127814285Y-80023809D01*
X127814285Y-79880952D01*
X127861904Y-79690476D01*
X127909523Y-79595238D01*
X128004761Y-79500000D01*
X128147619Y-79452380D01*
X128242857Y-79452380D01*
X128385714Y-79500000D01*
X128433333Y-79547619D01*
X129385714Y-80452380D02*
X128814285Y-80452380D01*
X129100000Y-80452380D02*
X129100000Y-79452380D01*
X129004761Y-79595238D01*
X128909523Y-79690476D01*
X128814285Y-79738095D01*
X127133333Y-152357142D02*
X127085714Y-152404761D01*
X126942857Y-152452380D01*
X126847619Y-152452380D01*
X126704761Y-152404761D01*
X126609523Y-152309523D01*
X126561904Y-152214285D01*
X126514285Y-152023809D01*
X126514285Y-151880952D01*
X126561904Y-151690476D01*
X126609523Y-151595238D01*
X126704761Y-151500000D01*
X126847619Y-151452380D01*
X126942857Y-151452380D01*
X127085714Y-151500000D01*
X127133333Y-151547619D01*
X127466666Y-151452380D02*
X128085714Y-151452380D01*
X127752380Y-151833333D01*
X127895238Y-151833333D01*
X127990476Y-151880952D01*
X128038095Y-151928571D01*
X128085714Y-152023809D01*
X128085714Y-152261904D01*
X128038095Y-152357142D01*
X127990476Y-152404761D01*
X127895238Y-152452380D01*
X127609523Y-152452380D01*
X127514285Y-152404761D01*
X127466666Y-152357142D01*
X129927380Y-140708333D02*
X130641666Y-140708333D01*
X130784523Y-140755952D01*
X130879761Y-140851190D01*
X130927380Y-140994047D01*
X130927380Y-141089285D01*
X129927380Y-140327380D02*
X129927380Y-139708333D01*
X130308333Y-140041666D01*
X130308333Y-139898809D01*
X130355952Y-139803571D01*
X130403571Y-139755952D01*
X130498809Y-139708333D01*
X130736904Y-139708333D01*
X130832142Y-139755952D01*
X130879761Y-139803571D01*
X130927380Y-139898809D01*
X130927380Y-140184523D01*
X130879761Y-140279761D01*
X130832142Y-140327380D01*
X116838095Y-77552380D02*
X116838095Y-78361904D01*
X116885714Y-78457142D01*
X116933333Y-78504761D01*
X117028571Y-78552380D01*
X117219047Y-78552380D01*
X117314285Y-78504761D01*
X117361904Y-78457142D01*
X117409523Y-78361904D01*
X117409523Y-77552380D01*
X117838095Y-77647619D02*
X117885714Y-77600000D01*
X117980952Y-77552380D01*
X118219047Y-77552380D01*
X118314285Y-77600000D01*
X118361904Y-77647619D01*
X118409523Y-77742857D01*
X118409523Y-77838095D01*
X118361904Y-77980952D01*
X117790476Y-78552380D01*
X118409523Y-78552380D01*
X108233333Y-160257142D02*
X108185714Y-160304761D01*
X108042857Y-160352380D01*
X107947619Y-160352380D01*
X107804761Y-160304761D01*
X107709523Y-160209523D01*
X107661904Y-160114285D01*
X107614285Y-159923809D01*
X107614285Y-159780952D01*
X107661904Y-159590476D01*
X107709523Y-159495238D01*
X107804761Y-159400000D01*
X107947619Y-159352380D01*
X108042857Y-159352380D01*
X108185714Y-159400000D01*
X108233333Y-159447619D01*
X108614285Y-159447619D02*
X108661904Y-159400000D01*
X108757142Y-159352380D01*
X108995238Y-159352380D01*
X109090476Y-159400000D01*
X109138095Y-159447619D01*
X109185714Y-159542857D01*
X109185714Y-159638095D01*
X109138095Y-159780952D01*
X108566666Y-160352380D01*
X109185714Y-160352380D01*
X128283333Y-84707142D02*
X128235714Y-84754761D01*
X128092857Y-84802380D01*
X127997619Y-84802380D01*
X127854761Y-84754761D01*
X127759523Y-84659523D01*
X127711904Y-84564285D01*
X127664285Y-84373809D01*
X127664285Y-84230952D01*
X127711904Y-84040476D01*
X127759523Y-83945238D01*
X127854761Y-83850000D01*
X127997619Y-83802380D01*
X128092857Y-83802380D01*
X128235714Y-83850000D01*
X128283333Y-83897619D01*
X129140476Y-84135714D02*
X129140476Y-84802380D01*
X128902380Y-83754761D02*
X128664285Y-84469047D01*
X129283333Y-84469047D01*
X108674026Y-154551522D02*
X109246446Y-155123942D01*
X109347461Y-155157614D01*
X109414805Y-155157614D01*
X109515820Y-155123942D01*
X109650507Y-154989255D01*
X109684179Y-154888240D01*
X109684179Y-154820896D01*
X109650507Y-154719881D01*
X109078087Y-154147461D01*
X109953553Y-153743400D02*
X110424957Y-154214805D01*
X109515820Y-153642385D02*
X109852538Y-154315820D01*
X110290270Y-153878087D01*
X104090476Y-76452380D02*
X104090476Y-75452380D01*
X104423809Y-76166666D01*
X104757142Y-75452380D01*
X104757142Y-76452380D01*
X105185714Y-75547619D02*
X105233333Y-75500000D01*
X105328571Y-75452380D01*
X105566666Y-75452380D01*
X105661904Y-75500000D01*
X105709523Y-75547619D01*
X105757142Y-75642857D01*
X105757142Y-75738095D01*
X105709523Y-75880952D01*
X105138095Y-76452380D01*
X105757142Y-76452380D01*
X129152380Y-109690476D02*
X128676190Y-110023809D01*
X129152380Y-110261904D02*
X128152380Y-110261904D01*
X128152380Y-109880952D01*
X128200000Y-109785714D01*
X128247619Y-109738095D01*
X128342857Y-109690476D01*
X128485714Y-109690476D01*
X128580952Y-109738095D01*
X128628571Y-109785714D01*
X128676190Y-109880952D01*
X128676190Y-110261904D01*
X129152380Y-109261904D02*
X128152380Y-109261904D01*
X129152380Y-108690476D01*
X128152380Y-108690476D01*
X128485714Y-107785714D02*
X129152380Y-107785714D01*
X128104761Y-108023809D02*
X128819047Y-108261904D01*
X128819047Y-107642857D01*
X119452380Y-141090476D02*
X118976190Y-141423809D01*
X119452380Y-141661904D02*
X118452380Y-141661904D01*
X118452380Y-141280952D01*
X118500000Y-141185714D01*
X118547619Y-141138095D01*
X118642857Y-141090476D01*
X118785714Y-141090476D01*
X118880952Y-141138095D01*
X118928571Y-141185714D01*
X118976190Y-141280952D01*
X118976190Y-141661904D01*
X119452380Y-140661904D02*
X118452380Y-140661904D01*
X119452380Y-140090476D01*
X118452380Y-140090476D01*
X118547619Y-139661904D02*
X118500000Y-139614285D01*
X118452380Y-139519047D01*
X118452380Y-139280952D01*
X118500000Y-139185714D01*
X118547619Y-139138095D01*
X118642857Y-139090476D01*
X118738095Y-139090476D01*
X118880952Y-139138095D01*
X119452380Y-139709523D01*
X119452380Y-139090476D01*
X133390476Y-76052380D02*
X133390476Y-75052380D01*
X133723809Y-75766666D01*
X134057142Y-75052380D01*
X134057142Y-76052380D01*
X134438095Y-75052380D02*
X135057142Y-75052380D01*
X134723809Y-75433333D01*
X134866666Y-75433333D01*
X134961904Y-75480952D01*
X135009523Y-75528571D01*
X135057142Y-75623809D01*
X135057142Y-75861904D01*
X135009523Y-75957142D01*
X134961904Y-76004761D01*
X134866666Y-76052380D01*
X134580952Y-76052380D01*
X134485714Y-76004761D01*
X134438095Y-75957142D01*
X116833333Y-73022380D02*
X116500000Y-72546190D01*
X116261904Y-73022380D02*
X116261904Y-72022380D01*
X116642857Y-72022380D01*
X116738095Y-72070000D01*
X116785714Y-72117619D01*
X116833333Y-72212857D01*
X116833333Y-72355714D01*
X116785714Y-72450952D01*
X116738095Y-72498571D01*
X116642857Y-72546190D01*
X116261904Y-72546190D01*
X117785714Y-73022380D02*
X117214285Y-73022380D01*
X117500000Y-73022380D02*
X117500000Y-72022380D01*
X117404761Y-72165238D01*
X117309523Y-72260476D01*
X117214285Y-72308095D01*
X143692857Y-95130000D02*
X144550000Y-95130000D01*
X144721428Y-95187142D01*
X144835714Y-95301428D01*
X144892857Y-95472857D01*
X144892857Y-95587142D01*
X143692857Y-93987142D02*
X143692857Y-94558571D01*
X144264285Y-94615714D01*
X144207142Y-94558571D01*
X144150000Y-94444285D01*
X144150000Y-94158571D01*
X144207142Y-94044285D01*
X144264285Y-93987142D01*
X144378571Y-93930000D01*
X144664285Y-93930000D01*
X144778571Y-93987142D01*
X144835714Y-94044285D01*
X144892857Y-94158571D01*
X144892857Y-94444285D01*
X144835714Y-94558571D01*
X144778571Y-94615714D01*
X138952380Y-98690476D02*
X138476190Y-99023809D01*
X138952380Y-99261904D02*
X137952380Y-99261904D01*
X137952380Y-98880952D01*
X138000000Y-98785714D01*
X138047619Y-98738095D01*
X138142857Y-98690476D01*
X138285714Y-98690476D01*
X138380952Y-98738095D01*
X138428571Y-98785714D01*
X138476190Y-98880952D01*
X138476190Y-99261904D01*
X138952380Y-98261904D02*
X137952380Y-98261904D01*
X138952380Y-97690476D01*
X137952380Y-97690476D01*
X137952380Y-97309523D02*
X137952380Y-96690476D01*
X138333333Y-97023809D01*
X138333333Y-96880952D01*
X138380952Y-96785714D01*
X138428571Y-96738095D01*
X138523809Y-96690476D01*
X138761904Y-96690476D01*
X138857142Y-96738095D01*
X138904761Y-96785714D01*
X138952380Y-96880952D01*
X138952380Y-97166666D01*
X138904761Y-97261904D01*
X138857142Y-97309523D01*
X115690476Y-123152380D02*
X115690476Y-123866666D01*
X115642857Y-124009523D01*
X115547619Y-124104761D01*
X115404761Y-124152380D01*
X115309523Y-124152380D01*
X116690476Y-124152380D02*
X116119047Y-124152380D01*
X116404761Y-124152380D02*
X116404761Y-123152380D01*
X116309523Y-123295238D01*
X116214285Y-123390476D01*
X116119047Y-123438095D01*
X117309523Y-123152380D02*
X117404761Y-123152380D01*
X117500000Y-123200000D01*
X117547619Y-123247619D01*
X117595238Y-123342857D01*
X117642857Y-123533333D01*
X117642857Y-123771428D01*
X117595238Y-123961904D01*
X117547619Y-124057142D01*
X117500000Y-124104761D01*
X117404761Y-124152380D01*
X117309523Y-124152380D01*
X117214285Y-124104761D01*
X117166666Y-124057142D01*
X117119047Y-123961904D01*
X117071428Y-123771428D01*
X117071428Y-123533333D01*
X117119047Y-123342857D01*
X117166666Y-123247619D01*
X117214285Y-123200000D01*
X117309523Y-123152380D01*
X123014285Y-88430000D02*
X122900000Y-88372857D01*
X122728571Y-88372857D01*
X122557142Y-88430000D01*
X122442857Y-88544285D01*
X122385714Y-88658571D01*
X122328571Y-88887142D01*
X122328571Y-89058571D01*
X122385714Y-89287142D01*
X122442857Y-89401428D01*
X122557142Y-89515714D01*
X122728571Y-89572857D01*
X122842857Y-89572857D01*
X123014285Y-89515714D01*
X123071428Y-89458571D01*
X123071428Y-89058571D01*
X122842857Y-89058571D01*
X123585714Y-89572857D02*
X123585714Y-88372857D01*
X124271428Y-89572857D01*
X124271428Y-88372857D01*
X124842857Y-89572857D02*
X124842857Y-88372857D01*
X125128571Y-88372857D01*
X125300000Y-88430000D01*
X125414285Y-88544285D01*
X125471428Y-88658571D01*
X125528571Y-88887142D01*
X125528571Y-89058571D01*
X125471428Y-89287142D01*
X125414285Y-89401428D01*
X125300000Y-89515714D01*
X125128571Y-89572857D01*
X124842857Y-89572857D01*
X126671428Y-89572857D02*
X125985714Y-89572857D01*
X126328571Y-89572857D02*
X126328571Y-88372857D01*
X126214285Y-88544285D01*
X126100000Y-88658571D01*
X125985714Y-88715714D01*
X135190476Y-164452380D02*
X135190476Y-163452380D01*
X135523809Y-164166666D01*
X135857142Y-163452380D01*
X135857142Y-164452380D01*
X136857142Y-164452380D02*
X136285714Y-164452380D01*
X136571428Y-164452380D02*
X136571428Y-163452380D01*
X136476190Y-163595238D01*
X136380952Y-163690476D01*
X136285714Y-163738095D01*
X102966666Y-96952380D02*
X102966666Y-97666666D01*
X102919047Y-97809523D01*
X102823809Y-97904761D01*
X102680952Y-97952380D01*
X102585714Y-97952380D01*
X103395238Y-97047619D02*
X103442857Y-97000000D01*
X103538095Y-96952380D01*
X103776190Y-96952380D01*
X103871428Y-97000000D01*
X103919047Y-97047619D01*
X103966666Y-97142857D01*
X103966666Y-97238095D01*
X103919047Y-97380952D01*
X103347619Y-97952380D01*
X103966666Y-97952380D01*
X111666666Y-111052380D02*
X111666666Y-111766666D01*
X111619047Y-111909523D01*
X111523809Y-112004761D01*
X111380952Y-112052380D01*
X111285714Y-112052380D01*
X112047619Y-111052380D02*
X112714285Y-111052380D01*
X112285714Y-112052380D01*
X101166666Y-106752380D02*
X101166666Y-107466666D01*
X101119047Y-107609523D01*
X101023809Y-107704761D01*
X100880952Y-107752380D01*
X100785714Y-107752380D01*
X101785714Y-107180952D02*
X101690476Y-107133333D01*
X101642857Y-107085714D01*
X101595238Y-106990476D01*
X101595238Y-106942857D01*
X101642857Y-106847619D01*
X101690476Y-106800000D01*
X101785714Y-106752380D01*
X101976190Y-106752380D01*
X102071428Y-106800000D01*
X102119047Y-106847619D01*
X102166666Y-106942857D01*
X102166666Y-106990476D01*
X102119047Y-107085714D01*
X102071428Y-107133333D01*
X101976190Y-107180952D01*
X101785714Y-107180952D01*
X101690476Y-107228571D01*
X101642857Y-107276190D01*
X101595238Y-107371428D01*
X101595238Y-107561904D01*
X101642857Y-107657142D01*
X101690476Y-107704761D01*
X101785714Y-107752380D01*
X101976190Y-107752380D01*
X102071428Y-107704761D01*
X102119047Y-107657142D01*
X102166666Y-107561904D01*
X102166666Y-107371428D01*
X102119047Y-107276190D01*
X102071428Y-107228571D01*
X101976190Y-107180952D01*
X115666666Y-137152380D02*
X115666666Y-137866666D01*
X115619047Y-138009523D01*
X115523809Y-138104761D01*
X115380952Y-138152380D01*
X115285714Y-138152380D01*
X116571428Y-137485714D02*
X116571428Y-138152380D01*
X116333333Y-137104761D02*
X116095238Y-137819047D01*
X116714285Y-137819047D01*
X142822857Y-141520000D02*
X143680000Y-141520000D01*
X143851428Y-141577142D01*
X143965714Y-141691428D01*
X144022857Y-141862857D01*
X144022857Y-141977142D01*
X144022857Y-140320000D02*
X144022857Y-141005714D01*
X144022857Y-140662857D02*
X142822857Y-140662857D01*
X142994285Y-140777142D01*
X143108571Y-140891428D01*
X143165714Y-141005714D01*
X120870000Y-73012857D02*
X120870000Y-73870000D01*
X120812857Y-74041428D01*
X120698571Y-74155714D01*
X120527142Y-74212857D01*
X120412857Y-74212857D01*
X121955714Y-73012857D02*
X121727142Y-73012857D01*
X121612857Y-73070000D01*
X121555714Y-73127142D01*
X121441428Y-73298571D01*
X121384285Y-73527142D01*
X121384285Y-73984285D01*
X121441428Y-74098571D01*
X121498571Y-74155714D01*
X121612857Y-74212857D01*
X121841428Y-74212857D01*
X121955714Y-74155714D01*
X122012857Y-74098571D01*
X122070000Y-73984285D01*
X122070000Y-73698571D01*
X122012857Y-73584285D01*
X121955714Y-73527142D01*
X121841428Y-73470000D01*
X121612857Y-73470000D01*
X121498571Y-73527142D01*
X121441428Y-73584285D01*
X121384285Y-73698571D01*
D12*
X104200000Y-150177200D02*
X102870000Y-150177200D01*
X108070000Y-150177200D02*
X108070000Y-147517200D01*
X105470000Y-150177200D02*
X108070000Y-150177200D01*
X105470000Y-150177200D02*
X105470000Y-147517200D01*
X102870000Y-150177200D02*
X102870000Y-148847200D01*
X105470000Y-147517200D02*
X108070000Y-147517200D01*
X125665000Y-80161252D02*
X125665000Y-79638748D01*
X127135000Y-80161252D02*
X127135000Y-79638748D01*
X126315000Y-149661252D02*
X126315000Y-149138748D01*
X127785000Y-149661252D02*
X127785000Y-149138748D01*
X132530000Y-144420000D02*
X132530000Y-157180000D01*
X129870000Y-144420000D02*
X132530000Y-144420000D01*
X129870000Y-144420000D02*
X129870000Y-157180000D01*
X129870000Y-143150000D02*
X129870000Y-141820000D01*
X129870000Y-141820000D02*
X131200000Y-141820000D01*
X129870000Y-157180000D02*
X132530000Y-157180000D01*
X120926630Y-79390000D02*
X117166630Y-79390000D01*
X117166630Y-79390000D02*
X117166630Y-80650000D01*
X117166630Y-86210000D02*
X117166630Y-84950000D01*
X123176630Y-86210000D02*
X117166630Y-86210000D01*
X110860000Y-159946267D02*
X110860000Y-159653733D01*
X109840000Y-159946267D02*
X109840000Y-159653733D01*
X125990000Y-84253733D02*
X125990000Y-84546267D01*
X127010000Y-84253733D02*
X127010000Y-84546267D01*
D11*
X118700000Y-161818555D02*
X118222703Y-161341258D01*
X111381445Y-154500000D02*
X111858742Y-154022703D01*
X111381445Y-154500000D02*
X111788031Y-154906586D01*
X126018555Y-154500000D02*
X125541258Y-154022703D01*
X126018555Y-154500000D02*
X125541258Y-154977297D01*
X118700000Y-147181445D02*
X118222703Y-147658742D01*
X111788031Y-154906586D02*
X110886470Y-155808148D01*
X118700000Y-161818555D02*
X119177297Y-161341258D01*
X118700000Y-147181445D02*
X119177297Y-147658742D01*
D12*
X120350001Y-110190000D02*
X120350001Y-103610000D01*
X127249999Y-109390000D02*
X126449999Y-110190000D01*
X120350001Y-103610000D02*
X127249999Y-103610000D01*
X127249999Y-103610000D02*
X127249999Y-109390000D01*
X126449999Y-110190000D02*
X120350001Y-110190000D01*
X126949999Y-144590000D02*
X120050001Y-144590000D01*
X120850001Y-138010000D02*
X126949999Y-138010000D01*
X126949999Y-138010000D02*
X126949999Y-144590000D01*
X120050001Y-144590000D02*
X120050001Y-138810000D01*
X120050001Y-138810000D02*
X120850001Y-138010000D01*
X116745276Y-74522500D02*
X117254724Y-74522500D01*
X116745276Y-73477500D02*
X117254724Y-73477500D01*
D11*
X145550000Y-118890000D02*
X145550000Y-70570000D01*
X149090000Y-117890000D02*
X148090000Y-118890000D01*
X148090000Y-118890000D02*
X145550000Y-118890000D01*
X145550000Y-70570000D02*
X149090000Y-70570000D01*
X149090000Y-70570000D02*
X149090000Y-117890000D01*
D12*
X130550001Y-99290000D02*
X130550001Y-92710000D01*
X137449999Y-92710000D02*
X137449999Y-98490000D01*
X137449999Y-98490000D02*
X136649999Y-99290000D01*
X136649999Y-99290000D02*
X130550001Y-99290000D01*
X130550001Y-92710000D02*
X137449999Y-92710000D01*
X114730000Y-121270000D02*
X114730000Y-122670000D01*
X115100000Y-119400000D02*
X115100000Y-113200000D01*
X115100000Y-113200000D02*
X137480000Y-113200000D01*
X114730000Y-122670000D02*
X116130000Y-122670000D01*
X137480000Y-113200000D02*
X137480000Y-122400000D01*
X137480000Y-122400000D02*
X118100000Y-122400000D01*
X100075000Y-94535000D02*
X100075000Y-95935000D01*
X100445000Y-92665000D02*
X100445000Y-86465000D01*
X120325000Y-95665000D02*
X103445000Y-95665000D01*
X100445000Y-86465000D02*
X120325000Y-86465000D01*
X100075000Y-95935000D02*
X101475000Y-95935000D01*
X120325000Y-86465000D02*
X120325000Y-95665000D01*
X100890000Y-151120000D02*
X100890000Y-113960000D01*
X110090000Y-110960000D02*
X110090000Y-151120000D01*
X102020000Y-110590000D02*
X100620000Y-110590000D01*
X100620000Y-110590000D02*
X100620000Y-111990000D01*
X110090000Y-151120000D02*
X100890000Y-151120000D01*
X103890000Y-110960000D02*
X110090000Y-110960000D01*
X102700000Y-106600000D02*
X102700000Y-100400000D01*
X117500000Y-109600000D02*
X105700000Y-109600000D01*
X102700000Y-100400000D02*
X117500000Y-100400000D01*
X102330000Y-109870000D02*
X103730000Y-109870000D01*
X102330000Y-108470000D02*
X102330000Y-109870000D01*
X117500000Y-100400000D02*
X117500000Y-109600000D01*
X114730000Y-135070000D02*
X114730000Y-136470000D01*
X137480000Y-136200000D02*
X118100000Y-136200000D01*
X115100000Y-127000000D02*
X137480000Y-127000000D01*
X115100000Y-133200000D02*
X115100000Y-127000000D01*
X137480000Y-127000000D02*
X137480000Y-136200000D01*
X114730000Y-136470000D02*
X116130000Y-136470000D01*
D11*
X149090000Y-165400000D02*
X148090000Y-166400000D01*
X145550000Y-166400000D02*
X145550000Y-118080000D01*
X149090000Y-118080000D02*
X149090000Y-165400000D01*
X148090000Y-166400000D02*
X145550000Y-166400000D01*
X145550000Y-118080000D02*
X149090000Y-118080000D01*
M02*
