%TF.GenerationSoftware,KiCad,Pcbnew,(6.0.9)*%
%TF.CreationDate,2023-05-25T12:40:49-07:00*%
%TF.ProjectId,24InputUC,3234496e-7075-4745-9543-2e6b69636164,rev?*%
%TF.SameCoordinates,Original*%
%TF.FileFunction,Legend,Bot*%
%TF.FilePolarity,Positive*%
%FSLAX46Y46*%
G04 Gerber Fmt 4.6, Leading zero omitted, Abs format (unit mm)*
G04 Created by KiCad (PCBNEW (6.0.9)) date 2023-05-25 12:40:49*
%MOMM*%
%LPD*%
G01*
G04 APERTURE LIST*
%TA.AperFunction,Profile*%
%ADD10C,0.150000*%
%TD*%
%ADD11C,0.150000*%
%ADD12C,0.120000*%
G04 APERTURE END LIST*
D10*
X150000000Y-70700000D02*
X150000000Y-166300000D01*
X100500000Y-70700000D02*
X150000000Y-70700000D01*
X150000000Y-166300000D02*
X100500000Y-166300000D01*
X100500000Y-166300000D02*
X100500000Y-70700000D01*
D11*
X111859963Y-75722380D02*
X111859963Y-76436666D01*
X111907582Y-76579523D01*
X112002820Y-76674761D01*
X112145677Y-76722380D01*
X112240915Y-76722380D01*
X111336153Y-76722380D02*
X111145677Y-76722380D01*
X111050439Y-76674761D01*
X111002820Y-76627142D01*
X110907582Y-76484285D01*
X110859963Y-76293809D01*
X110859963Y-75912857D01*
X110907582Y-75817619D01*
X110955201Y-75770000D01*
X111050439Y-75722380D01*
X111240915Y-75722380D01*
X111336153Y-75770000D01*
X111383772Y-75817619D01*
X111431391Y-75912857D01*
X111431391Y-76150952D01*
X111383772Y-76246190D01*
X111336153Y-76293809D01*
X111240915Y-76341428D01*
X111050439Y-76341428D01*
X110955201Y-76293809D01*
X110907582Y-76246190D01*
X110859963Y-76150952D01*
D12*
X112856630Y-79870000D02*
X112856630Y-85010000D01*
X112856630Y-79870000D02*
X110196630Y-79870000D01*
X112856630Y-77270000D02*
X111526630Y-77270000D01*
X110196630Y-79870000D02*
X110196630Y-85010000D01*
X112856630Y-85010000D02*
X110196630Y-85010000D01*
X112856630Y-78600000D02*
X112856630Y-77270000D01*
M02*
