%TF.GenerationSoftware,KiCad,Pcbnew,(6.0.9)*%
%TF.CreationDate,2023-05-25T12:40:49-07:00*%
%TF.ProjectId,24InputUC,3234496e-7075-4745-9543-2e6b69636164,rev?*%
%TF.SameCoordinates,Original*%
%TF.FileFunction,Paste,Top*%
%TF.FilePolarity,Positive*%
%FSLAX46Y46*%
G04 Gerber Fmt 4.6, Leading zero omitted, Abs format (unit mm)*
G04 Created by KiCad (PCBNEW (6.0.9)) date 2023-05-25 12:40:49*
%MOMM*%
%LPD*%
G01*
G04 APERTURE LIST*
G04 Aperture macros list*
%AMRoundRect*
0 Rectangle with rounded corners*
0 $1 Rounding radius*
0 $2 $3 $4 $5 $6 $7 $8 $9 X,Y pos of 4 corners*
0 Add a 4 corners polygon primitive as box body*
4,1,4,$2,$3,$4,$5,$6,$7,$8,$9,$2,$3,0*
0 Add four circle primitives for the rounded corners*
1,1,$1+$1,$2,$3*
1,1,$1+$1,$4,$5*
1,1,$1+$1,$6,$7*
1,1,$1+$1,$8,$9*
0 Add four rect primitives between the rounded corners*
20,1,$1+$1,$2,$3,$4,$5,0*
20,1,$1+$1,$4,$5,$6,$7,0*
20,1,$1+$1,$6,$7,$8,$9,0*
20,1,$1+$1,$8,$9,$2,$3,0*%
%AMRotRect*
0 Rectangle, with rotation*
0 The origin of the aperture is its center*
0 $1 length*
0 $2 width*
0 $3 Rotation angle, in degrees counterclockwise*
0 Add horizontal line*
21,1,$1,$2,0,0,$3*%
G04 Aperture macros list end*
%TA.AperFunction,Profile*%
%ADD10C,0.150000*%
%TD*%
%ADD11RoundRect,0.250000X0.475000X-0.337500X0.475000X0.337500X-0.475000X0.337500X-0.475000X-0.337500X0*%
%ADD12R,2.000000X1.500000*%
%ADD13R,2.000000X3.800000*%
%ADD14RoundRect,0.237500X0.237500X-0.300000X0.237500X0.300000X-0.237500X0.300000X-0.237500X-0.300000X0*%
%ADD15RoundRect,0.237500X-0.237500X0.300000X-0.237500X-0.300000X0.237500X-0.300000X0.237500X0.300000X0*%
%ADD16RotRect,1.500000X0.550000X45.000000*%
%ADD17RotRect,1.500000X0.550000X135.000000*%
%ADD18R,1.800000X0.500000*%
%ADD19RoundRect,0.237500X-0.250000X-0.237500X0.250000X-0.237500X0.250000X0.237500X-0.250000X0.237500X0*%
G04 APERTURE END LIST*
D10*
X150000000Y-70700000D02*
X150000000Y-166300000D01*
X100500000Y-70700000D02*
X150000000Y-70700000D01*
X150000000Y-166300000D02*
X100500000Y-166300000D01*
X100500000Y-166300000D02*
X100500000Y-70700000D01*
D11*
X126400000Y-80937500D03*
X126400000Y-78862500D03*
X127050000Y-150437500D03*
X127050000Y-148362500D03*
D12*
X122226630Y-85100000D03*
X122226630Y-82800000D03*
D13*
X115926630Y-82800000D03*
D12*
X122226630Y-80500000D03*
D14*
X110350000Y-160662500D03*
X110350000Y-158937500D03*
D15*
X126500000Y-83537500D03*
X126500000Y-85262500D03*
D16*
X111841064Y-155702082D03*
X112406750Y-156267767D03*
X112972435Y-156833452D03*
X113538120Y-157399138D03*
X114103806Y-157964823D03*
X114669491Y-158530509D03*
X115235177Y-159096194D03*
X115800862Y-159661880D03*
X116366548Y-160227565D03*
X116932233Y-160793250D03*
X117497918Y-161358936D03*
D17*
X119902082Y-161358936D03*
X120467767Y-160793250D03*
X121033452Y-160227565D03*
X121599138Y-159661880D03*
X122164823Y-159096194D03*
X122730509Y-158530509D03*
X123296194Y-157964823D03*
X123861880Y-157399138D03*
X124427565Y-156833452D03*
X124993250Y-156267767D03*
X125558936Y-155702082D03*
D16*
X125558936Y-153297918D03*
X124993250Y-152732233D03*
X124427565Y-152166548D03*
X123861880Y-151600862D03*
X123296194Y-151035177D03*
X122730509Y-150469491D03*
X122164823Y-149903806D03*
X121599138Y-149338120D03*
X121033452Y-148772435D03*
X120467767Y-148206750D03*
X119902082Y-147641064D03*
D17*
X117497918Y-147641064D03*
X116932233Y-148206750D03*
X116366548Y-148772435D03*
X115800862Y-149338120D03*
X115235177Y-149903806D03*
X114669491Y-150469491D03*
X114103806Y-151035177D03*
X113538120Y-151600862D03*
X112972435Y-152166548D03*
X112406750Y-152732233D03*
X111841064Y-153297918D03*
D18*
X125849999Y-109440000D03*
X125849999Y-108170000D03*
X125849999Y-106900000D03*
X125849999Y-105630000D03*
X125849999Y-104360000D03*
X121750001Y-104360000D03*
X121750001Y-105630000D03*
X121750001Y-106900000D03*
X121750001Y-108170000D03*
X121750001Y-109440000D03*
X121450001Y-138760000D03*
X121450001Y-140030000D03*
X121450001Y-141300000D03*
X121450001Y-142570000D03*
X121450001Y-143840000D03*
X125549999Y-143840000D03*
X125549999Y-142570000D03*
X125549999Y-141300000D03*
X125549999Y-140030000D03*
X125549999Y-138760000D03*
D19*
X116087500Y-74000000D03*
X117912500Y-74000000D03*
D18*
X136049999Y-98540000D03*
X136049999Y-97270000D03*
X136049999Y-96000000D03*
X136049999Y-94730000D03*
X136049999Y-93460000D03*
X131950001Y-93460000D03*
X131950001Y-94730000D03*
X131950001Y-96000000D03*
X131950001Y-97270000D03*
X131950001Y-98540000D03*
M02*
