%TF.GenerationSoftware,KiCad,Pcbnew,(6.0.9)*%
%TF.CreationDate,2023-05-25T12:40:49-07:00*%
%TF.ProjectId,24InputUC,3234496e-7075-4745-9543-2e6b69636164,rev?*%
%TF.SameCoordinates,Original*%
%TF.FileFunction,Soldermask,Top*%
%TF.FilePolarity,Negative*%
%FSLAX46Y46*%
G04 Gerber Fmt 4.6, Leading zero omitted, Abs format (unit mm)*
G04 Created by KiCad (PCBNEW (6.0.9)) date 2023-05-25 12:40:49*
%MOMM*%
%LPD*%
G01*
G04 APERTURE LIST*
G04 Aperture macros list*
%AMRoundRect*
0 Rectangle with rounded corners*
0 $1 Rounding radius*
0 $2 $3 $4 $5 $6 $7 $8 $9 X,Y pos of 4 corners*
0 Add a 4 corners polygon primitive as box body*
4,1,4,$2,$3,$4,$5,$6,$7,$8,$9,$2,$3,0*
0 Add four circle primitives for the rounded corners*
1,1,$1+$1,$2,$3*
1,1,$1+$1,$4,$5*
1,1,$1+$1,$6,$7*
1,1,$1+$1,$8,$9*
0 Add four rect primitives between the rounded corners*
20,1,$1+$1,$2,$3,$4,$5,0*
20,1,$1+$1,$4,$5,$6,$7,0*
20,1,$1+$1,$6,$7,$8,$9,0*
20,1,$1+$1,$8,$9,$2,$3,0*%
%AMRotRect*
0 Rectangle, with rotation*
0 The origin of the aperture is its center*
0 $1 length*
0 $2 width*
0 $3 Rotation angle, in degrees counterclockwise*
0 Add horizontal line*
21,1,$1,$2,0,0,$3*%
G04 Aperture macros list end*
%TA.AperFunction,Profile*%
%ADD10C,0.150000*%
%TD*%
%ADD11R,1.700000X1.700000*%
%ADD12O,1.700000X1.700000*%
%ADD13RoundRect,0.250000X0.475000X-0.337500X0.475000X0.337500X-0.475000X0.337500X-0.475000X-0.337500X0*%
%ADD14R,2.000000X1.500000*%
%ADD15R,2.000000X3.800000*%
%ADD16RoundRect,0.237500X0.237500X-0.300000X0.237500X0.300000X-0.237500X0.300000X-0.237500X-0.300000X0*%
%ADD17RoundRect,0.237500X-0.237500X0.300000X-0.237500X-0.300000X0.237500X-0.300000X0.237500X0.300000X0*%
%ADD18RotRect,1.500000X0.550000X45.000000*%
%ADD19RotRect,1.500000X0.550000X135.000000*%
%ADD20C,3.263900*%
%ADD21R,1.800000X0.500000*%
%ADD22RoundRect,0.237500X-0.250000X-0.237500X0.250000X-0.237500X0.250000X0.237500X-0.250000X0.237500X0*%
%ADD23O,2.540000X2.540000*%
%ADD24C,1.700000*%
G04 APERTURE END LIST*
D10*
X150000000Y-70700000D02*
X150000000Y-166300000D01*
X100500000Y-70700000D02*
X150000000Y-70700000D01*
X150000000Y-166300000D02*
X100500000Y-166300000D01*
X100500000Y-166300000D02*
X100500000Y-70700000D01*
D11*
X104190800Y-148869400D03*
D12*
X106740000Y-148847200D03*
D13*
X126400000Y-80937500D03*
X126400000Y-78862500D03*
X127050000Y-150437500D03*
X127050000Y-148362500D03*
D11*
X131200000Y-143150000D03*
D12*
X131200000Y-145690000D03*
X131200000Y-148230000D03*
X131200000Y-150770000D03*
X131200000Y-153310000D03*
X131200000Y-155850000D03*
D14*
X122226630Y-85100000D03*
X122226630Y-82800000D03*
D15*
X115926630Y-82800000D03*
D14*
X122226630Y-80500000D03*
D16*
X110350000Y-160662500D03*
X110350000Y-158937500D03*
D17*
X126500000Y-83537500D03*
X126500000Y-85262500D03*
D18*
X111841064Y-155702082D03*
X112406750Y-156267767D03*
X112972435Y-156833452D03*
X113538120Y-157399138D03*
X114103806Y-157964823D03*
X114669491Y-158530509D03*
X115235177Y-159096194D03*
X115800862Y-159661880D03*
X116366548Y-160227565D03*
X116932233Y-160793250D03*
X117497918Y-161358936D03*
D19*
X119902082Y-161358936D03*
X120467767Y-160793250D03*
X121033452Y-160227565D03*
X121599138Y-159661880D03*
X122164823Y-159096194D03*
X122730509Y-158530509D03*
X123296194Y-157964823D03*
X123861880Y-157399138D03*
X124427565Y-156833452D03*
X124993250Y-156267767D03*
X125558936Y-155702082D03*
D18*
X125558936Y-153297918D03*
X124993250Y-152732233D03*
X124427565Y-152166548D03*
X123861880Y-151600862D03*
X123296194Y-151035177D03*
X122730509Y-150469491D03*
X122164823Y-149903806D03*
X121599138Y-149338120D03*
X121033452Y-148772435D03*
X120467767Y-148206750D03*
X119902082Y-147641064D03*
D19*
X117497918Y-147641064D03*
X116932233Y-148206750D03*
X116366548Y-148772435D03*
X115800862Y-149338120D03*
X115235177Y-149903806D03*
X114669491Y-150469491D03*
X114103806Y-151035177D03*
X113538120Y-151600862D03*
X112972435Y-152166548D03*
X112406750Y-152732233D03*
X111841064Y-153297918D03*
D20*
X104800000Y-74800000D03*
D21*
X125849999Y-109440000D03*
X125849999Y-108170000D03*
X125849999Y-106900000D03*
X125849999Y-105630000D03*
X125849999Y-104360000D03*
X121750001Y-104360000D03*
X121750001Y-105630000D03*
X121750001Y-106900000D03*
X121750001Y-108170000D03*
X121750001Y-109440000D03*
X121450001Y-138760000D03*
X121450001Y-140030000D03*
X121450001Y-141300000D03*
X121450001Y-142570000D03*
X121450001Y-143840000D03*
X125549999Y-143840000D03*
X125549999Y-142570000D03*
X125549999Y-141300000D03*
X125549999Y-140030000D03*
X125549999Y-138760000D03*
D20*
X134100000Y-74400000D03*
D22*
X116087500Y-74000000D03*
X117912500Y-74000000D03*
D23*
X147320000Y-116510000D03*
X147320000Y-112550000D03*
X147320000Y-108590000D03*
X147320000Y-104630000D03*
X147320000Y-100670000D03*
X147320000Y-96710000D03*
X147320000Y-92750000D03*
X147320000Y-88790000D03*
X147320000Y-84830000D03*
X147320000Y-80870000D03*
X147320000Y-76910000D03*
X147320000Y-72950000D03*
D21*
X136049999Y-98540000D03*
X136049999Y-97270000D03*
X136049999Y-96000000D03*
X136049999Y-94730000D03*
X136049999Y-93460000D03*
X131950001Y-93460000D03*
X131950001Y-94730000D03*
X131950001Y-96000000D03*
X131950001Y-97270000D03*
X131950001Y-98540000D03*
D11*
X120000000Y-119100000D03*
D24*
X120000000Y-116560000D03*
X122540000Y-119100000D03*
X122540000Y-116560000D03*
X125080000Y-119100000D03*
X125080000Y-116560000D03*
X127620000Y-119100000D03*
X127620000Y-116560000D03*
X130160000Y-119100000D03*
X130160000Y-116560000D03*
X132700000Y-119100000D03*
X132700000Y-116560000D03*
D23*
X124500000Y-92000000D03*
D20*
X135900000Y-162800000D03*
D11*
X105345000Y-92365000D03*
D24*
X105345000Y-89825000D03*
X107885000Y-92365000D03*
X107885000Y-89825000D03*
X110425000Y-92365000D03*
X110425000Y-89825000D03*
X112965000Y-92365000D03*
X112965000Y-89825000D03*
X115505000Y-92365000D03*
X115505000Y-89825000D03*
D11*
X104190000Y-115860000D03*
D24*
X106730000Y-115860000D03*
X104190000Y-118400000D03*
X106730000Y-118400000D03*
X104190000Y-120940000D03*
X106730000Y-120940000D03*
X104190000Y-123480000D03*
X106730000Y-123480000D03*
X104190000Y-126020000D03*
X106730000Y-126020000D03*
X104190000Y-128560000D03*
X106730000Y-128560000D03*
X104190000Y-131100000D03*
X106730000Y-131100000D03*
X104190000Y-133640000D03*
X106730000Y-133640000D03*
X104190000Y-136180000D03*
X106730000Y-136180000D03*
X104190000Y-138720000D03*
X106730000Y-138720000D03*
X104190000Y-141260000D03*
X106730000Y-141260000D03*
X104190000Y-143800000D03*
X106730000Y-143800000D03*
X104190000Y-146340000D03*
X106730000Y-146340000D03*
D11*
X107600000Y-106300000D03*
D24*
X107600000Y-103760000D03*
X110140000Y-106300000D03*
X110140000Y-103760000D03*
X112680000Y-106300000D03*
X112680000Y-103760000D03*
D11*
X120000000Y-132900000D03*
D24*
X120000000Y-130360000D03*
X122540000Y-132900000D03*
X122540000Y-130360000D03*
X125080000Y-132900000D03*
X125080000Y-130360000D03*
X127620000Y-132900000D03*
X127620000Y-130360000D03*
X130160000Y-132900000D03*
X130160000Y-130360000D03*
X132700000Y-132900000D03*
X132700000Y-130360000D03*
D23*
X147320000Y-164020000D03*
X147320000Y-160060000D03*
X147320000Y-156100000D03*
X147320000Y-152140000D03*
X147320000Y-148180000D03*
X147320000Y-144220000D03*
X147320000Y-140260000D03*
X147320000Y-136300000D03*
X147320000Y-132340000D03*
X147320000Y-128380000D03*
X147320000Y-124420000D03*
X147320000Y-120460000D03*
X124460000Y-73660000D03*
D11*
X111526630Y-78600000D03*
D12*
X111526630Y-81140000D03*
X111526630Y-83680000D03*
M02*
