M48
; DRILL file {KiCad (6.0.9)} date Thu May 25 12:40:53 2023
; FORMAT={-:-/ absolute / metric / decimal}
; #@! TF.CreationDate,2023-05-25T12:40:53-07:00
; #@! TF.GenerationSoftware,Kicad,Pcbnew,(6.0.9)
; #@! TF.FileFunction,MixedPlating,1,2
FMAT,2
METRIC
; #@! TA.AperFunction,Plated,PTH,ViaDrill
T1C0.300
; #@! TA.AperFunction,Plated,PTH,ViaDrill
T2C0.400
; #@! TA.AperFunction,Plated,PTH,ViaDrill
T3C0.800
; #@! TA.AperFunction,Plated,PTH,ComponentDrill
T4C0.950
; #@! TA.AperFunction,Plated,PTH,ComponentDrill
T5C1.000
; #@! TA.AperFunction,Plated,PTH,ComponentDrill
T6C1.520
; #@! TA.AperFunction,Plated,PTH,ComponentDrill
T7C3.264
%
G90
G05
T1
X102.4Y-161.6
X102.899Y-98.487
X103.093Y-162.307
X104.2Y-152.5
X104.7Y-112.6
X105.0Y-159.0
X105.4Y-94.1
X105.5Y-101.9
X106.0Y-164.4
X106.1Y-108.1
X106.7Y-152.1
X106.775Y-157.696
X106.8Y-86.6
X107.169Y-161.123
X108.249Y-162.052
X108.5Y-73.2
X108.6Y-108.1
X109.076Y-121.871
X109.076Y-134.343
X109.076Y-156.4
X109.1Y-94.2
X109.2Y-159.3
X109.5Y-146.4
X109.5Y-155.2
X109.571Y-136.505
X109.876Y-114.409
X110.163Y-98.099
X110.2Y-151.2
X110.652Y-141.448
X110.672Y-120.224
X111.049Y-150.311
X111.2Y-112.9
X111.248Y-138.552
X111.627Y-151.057
X111.724Y-133.56
X112.024Y-116.185
X112.154Y-119.238
X112.2Y-94.14
X112.2Y-102.1
X112.2Y-158.5
X112.3Y-150.2
X112.591Y-128.409
X112.7Y-110.6
X112.8Y-127.1
X112.876Y-135.792
X112.9Y-101.4
X113.323Y-149.271
X113.395Y-121.49
X113.58Y-143.936
X113.6Y-74.2
X113.6Y-94.3
X113.7Y-100.7
X113.7Y-154.9
X113.731Y-125.444
X113.9Y-112.3
X114.076Y-148.217
X114.1Y-115.0
X114.4Y-155.5
X114.484Y-122.784
X114.6Y-147.1
X115.161Y-123.735
X115.253Y-148.121
X115.5Y-99.0
X115.6Y-103.2
X115.6Y-126.9
X115.772Y-134.59
X115.779Y-146.665
X115.8Y-109.2
X116.352Y-123.272
X116.411Y-146.176
X116.424Y-128.985
X116.5Y-120.8
X116.5Y-151.7
X116.9Y-111.1
X117.0Y-114.4
X117.0Y-142.6
X117.3Y-144.1
X117.576Y-136.005
X117.6Y-107.2
X117.6Y-138.8
X118.2Y-136.9
X118.38Y-130.901
X118.4Y-94.6
X118.4Y-159.7
X118.48Y-127.534
X118.7Y-162.8
X118.8Y-157.9
X119.0Y-155.2
X119.176Y-135.098
X119.252Y-107.239
X119.3Y-76.9
X119.476Y-102.875
X119.5Y-138.7
X119.6Y-88.8
X119.8Y-110.6
X119.8Y-142.6
X119.828Y-105.523
X120.0Y-155.9
X120.2Y-111.3
X120.2Y-150.1
X120.234Y-135.651
X120.273Y-126.173
X120.7Y-146.4
X120.9Y-157.3
X120.976Y-154.043
X121.1Y-135.4
X121.414Y-136.586
X121.9Y-94.7
X122.056Y-154.676
X122.5Y-100.524
X122.724Y-139.952
X122.782Y-114.533
X123.0Y-77.4
X123.1Y-148.1
X123.3Y-141.2
X123.3Y-153.4
X123.4Y-143.1
X123.4Y-145.1
X123.545Y-160.462
X123.6Y-96.4
X123.64Y-136.824
X123.7Y-162.2
X123.9Y-109.4
X123.976Y-142.376
X124.0Y-108.2
X124.0Y-124.7
X124.176Y-104.783
X124.217Y-137.483
X124.261Y-160.975
X124.587Y-150.061
X124.622Y-115.076
X124.639Y-102.875
X124.9Y-128.628
X124.9Y-146.8
X125.0Y-87.3
X125.825Y-150.4
X125.857Y-157.695
X125.9Y-145.3
X125.931Y-122.876
X126.446Y-160.468
X126.858Y-137.294
X126.876Y-152.257
X126.889Y-156.639
X127.2Y-154.2
X127.309Y-136.524
X127.5Y-91.8
X127.5Y-121.376
X127.5Y-141.3
X127.5Y-164.4
X127.7Y-108.2
X127.7Y-123.2
X127.741Y-135.851
X127.835Y-143.235
X127.9Y-110.6
X128.0Y-147.6
X128.1Y-139.9
X128.103Y-143.988
X128.3Y-81.9
X128.5Y-114.5
X128.581Y-134.824
X128.672Y-93.51
X128.726Y-104.741
X128.81Y-157.63
X128.935Y-128.276
X128.98Y-136.405
X129.024Y-92.652
X129.024Y-99.193
X129.5Y-106.9
X129.5Y-138.7
X129.6Y-81.0
X130.16Y-113.84
X130.243Y-84.657
X130.3Y-135.3
X130.3Y-160.9
X130.5Y-121.9
X130.7Y-123.3
X130.876Y-103.834
X131.001Y-161.599
X131.1Y-79.7
X131.3Y-105.8
X131.7Y-78.2
X132.2Y-140.4
X132.422Y-120.872
X132.485Y-158.701
X132.7Y-123.5
X132.7Y-127.7
X132.7Y-134.7
X132.944Y-102.945
X133.175Y-121.141
X133.683Y-157.834
X133.8Y-94.7
X133.8Y-96.1
X134.075Y-102.554
X134.524Y-101.785
X134.8Y-86.9
X135.2Y-101.2
X135.5Y-82.0
X135.6Y-90.3
X135.776Y-111.233
X135.846Y-113.176
X136.0Y-149.6
X136.291Y-147.393
X136.376Y-118.283
X136.376Y-124.585
X136.5Y-115.4
X136.572Y-136.353
X136.7Y-108.2
X136.8Y-104.2
X136.8Y-128.7
X136.937Y-144.439
X137.325Y-151.9
X137.5Y-112.4
X137.706Y-144.79
X138.13Y-151.205
X138.46Y-94.74
X138.463Y-78.608
X138.494Y-108.714
X138.6Y-120.5
X138.7Y-148.1
X138.755Y-126.127
X138.806Y-95.577
X138.828Y-137.225
X139.0Y-118.344
X139.6Y-72.9
X140.799Y-95.49
X140.799Y-123.72
X140.799Y-132.211
X141.2Y-154.4
X141.247Y-97.855
X141.3Y-164.3
X141.513Y-98.608
X141.594Y-132.304
X142.89Y-128.4
X143.1Y-135.9
X143.1Y-150.6
X143.2Y-93.8
X143.2Y-140.5
X143.2Y-145.7
X143.3Y-86.1
X143.3Y-90.0
X143.3Y-130.7
X143.8Y-79.1
X143.8Y-99.2
X144.0Y-82.7
X144.0Y-126.6
X144.1Y-115.2
X144.1Y-157.4
X144.2Y-120.0
X144.2Y-123.2
X144.4Y-75.6
X144.4Y-104.1
X144.4Y-107.0
X144.5Y-109.9
X144.58Y-164.02
T2
X114.104Y-120.828
X114.78Y-119.534
X115.327Y-118.237
X115.972Y-125.921
X117.976Y-116.676
X118.128Y-131.819
X119.794Y-122.125
X141.251Y-125.087
T3
X101.9Y-151.2
X102.0Y-97.2
X102.3Y-83.9
X106.8Y-109.2
X107.9Y-97.2
X111.6Y-97.4
X112.9Y-109.0
X129.117Y-150.33
X139.6Y-83.5
X139.9Y-145.7
T4
X104.19Y-115.86
X104.19Y-118.4
X104.19Y-120.94
X104.19Y-123.48
X104.19Y-126.02
X104.19Y-128.56
X104.19Y-131.1
X104.19Y-133.64
X104.19Y-136.18
X104.19Y-138.72
X104.19Y-141.26
X104.19Y-143.8
X104.19Y-146.34
X105.345Y-89.825
X105.345Y-92.365
X106.73Y-115.86
X106.73Y-118.4
X106.73Y-120.94
X106.73Y-123.48
X106.73Y-126.02
X106.73Y-128.56
X106.73Y-131.1
X106.73Y-133.64
X106.73Y-136.18
X106.73Y-138.72
X106.73Y-141.26
X106.73Y-143.8
X106.73Y-146.34
X107.6Y-103.76
X107.6Y-106.3
X107.885Y-89.825
X107.885Y-92.365
X110.14Y-103.76
X110.14Y-106.3
X110.425Y-89.825
X110.425Y-92.365
X112.68Y-103.76
X112.68Y-106.3
X112.965Y-89.825
X112.965Y-92.365
X115.505Y-89.825
X115.505Y-92.365
X120.0Y-116.56
X120.0Y-119.1
X120.0Y-130.36
X120.0Y-132.9
X122.54Y-116.56
X122.54Y-119.1
X122.54Y-130.36
X122.54Y-132.9
X125.08Y-116.56
X125.08Y-119.1
X125.08Y-130.36
X125.08Y-132.9
X127.62Y-116.56
X127.62Y-119.1
X127.62Y-130.36
X127.62Y-132.9
X130.16Y-116.56
X130.16Y-119.1
X130.16Y-130.36
X130.16Y-132.9
X132.7Y-116.56
X132.7Y-119.1
X132.7Y-130.36
X132.7Y-132.9
T5
X104.191Y-148.869
X106.74Y-148.847
X111.527Y-78.6
X111.527Y-81.14
X111.527Y-83.68
X131.2Y-143.15
X131.2Y-145.69
X131.2Y-148.23
X131.2Y-150.77
X131.2Y-153.31
X131.2Y-155.85
T6
X124.46Y-73.66
X124.5Y-92.0
X147.32Y-72.95
X147.32Y-76.91
X147.32Y-80.87
X147.32Y-84.83
X147.32Y-88.79
X147.32Y-92.75
X147.32Y-96.71
X147.32Y-100.67
X147.32Y-104.63
X147.32Y-108.59
X147.32Y-112.55
X147.32Y-116.51
X147.32Y-120.46
X147.32Y-124.42
X147.32Y-128.38
X147.32Y-132.34
X147.32Y-136.3
X147.32Y-140.26
X147.32Y-144.22
X147.32Y-148.18
X147.32Y-152.14
X147.32Y-156.1
X147.32Y-160.06
X147.32Y-164.02
T7
X104.8Y-74.8
X134.1Y-74.4
X135.9Y-162.8
T0
M30
