M48
; DRILL file {KiCad (6.0.9)} date Thu May 25 14:52:02 2023
; FORMAT={-:-/ absolute / metric / decimal}
; #@! TF.CreationDate,2023-05-25T14:52:02-07:00
; #@! TF.GenerationSoftware,Kicad,Pcbnew,(6.0.9)
; #@! TF.FileFunction,MixedPlating,1,2
FMAT,2
METRIC
; #@! TA.AperFunction,Plated,PTH,ViaDrill
T1C0.400
; #@! TA.AperFunction,Plated,PTH,ComponentDrill
T2C0.760
; #@! TA.AperFunction,Plated,PTH,ViaDrill
T3C0.800
; #@! TA.AperFunction,Plated,PTH,ComponentDrill
T4C0.800
; #@! TA.AperFunction,Plated,PTH,ComponentDrill
T5C0.889
; #@! TA.AperFunction,Plated,PTH,ComponentDrill
T6C0.914
; #@! TA.AperFunction,Plated,PTH,ComponentDrill
T7C0.950
; #@! TA.AperFunction,Plated,PTH,ComponentDrill
T8C1.000
; #@! TA.AperFunction,Plated,PTH,ComponentDrill
T9C1.200
; #@! TA.AperFunction,Plated,PTH,ComponentDrill
T10C1.520
; #@! TA.AperFunction,Plated,PTH,ComponentDrill
T11C2.286
; #@! TA.AperFunction,Plated,PTH,ComponentDrill
T12C3.400
; #@! TA.AperFunction,NonPlated,NPTH,ComponentDrill
T13C3.200
%
G90
G05
T1
X47.5Y-55.0
X57.569Y-41.478
X58.259Y-66.514
X58.982Y-54.725
X59.0Y-50.0
X59.0Y-64.5
X62.759Y-66.014
X67.0Y-64.0
X68.259Y-65.014
X68.6Y-54.3
X68.975Y-56.45
X69.939Y-50.8
X70.231Y-79.654
X73.444Y-55.372
X74.257Y-58.217
X74.486Y-43.777
X74.9Y-54.9
X74.9Y-56.325
X76.5Y-71.0
X79.5Y-79.5
X79.625Y-59.275
X79.675Y-50.4
X83.0Y-63.0
X83.75Y-74.55
X84.06Y-48.671
X85.1Y-67.934
X85.356Y-45.958
X85.85Y-63.925
X86.5Y-53.5
X86.5Y-58.5
X89.0Y-75.5
X91.0Y-65.25
X91.896Y-53.396
X92.0Y-65.0
X93.0Y-79.0
X93.603Y-58.853
X94.0Y-74.0
X94.5Y-46.0
X96.304Y-58.941
X99.9Y-52.5
X100.0Y-66.5
X100.3Y-60.8
X101.3Y-50.95
X102.75Y-57.6
X104.292Y-61.125
X110.63Y-42.189
X110.769Y-49.568
T2
X53.25Y-51.15
X53.25Y-53.69
X53.25Y-56.23
X53.25Y-58.77
X55.79Y-52.42
X55.79Y-54.96
X55.79Y-57.5
X55.79Y-60.04
T3
X71.8Y-47.0
X71.85Y-59.1
X73.343Y-67.739
X73.75Y-74.0
X79.0Y-47.0
X80.124Y-72.809
T4
X82.055Y-52.255
X82.055Y-54.795
X82.055Y-57.335
X82.055Y-59.875
X89.675Y-52.255
X89.675Y-54.795
X89.675Y-57.335
X89.675Y-59.875
T5
X63.53Y-53.41
X63.53Y-55.95
X63.53Y-58.49
X63.68Y-41.71
X63.68Y-44.25
X63.68Y-46.79
X66.07Y-53.41
X66.07Y-55.95
X66.07Y-58.49
X66.22Y-41.71
X66.22Y-44.25
X66.22Y-46.79
X68.609Y-70.23
X68.609Y-72.77
X78.75Y-63.96
X78.75Y-66.5
X78.75Y-69.04
X83.56Y-70.55
X86.1Y-70.55
X86.21Y-48.5
X88.64Y-70.55
X88.75Y-48.5
X91.29Y-48.5
X99.175Y-55.03
X99.175Y-57.57
T6
X52.9Y-70.85
X52.9Y-73.35
X54.881Y-70.85
X54.881Y-73.35
T7
X89.93Y-39.585
X89.93Y-42.125
X92.47Y-39.585
X92.47Y-42.125
X95.01Y-39.585
X95.01Y-42.125
T8
X80.475Y-38.225
X80.475Y-40.765
X80.475Y-43.305
X83.015Y-38.225
X83.015Y-40.765
X83.015Y-43.305
T9
X103.8Y-40.3
X103.8Y-50.3
X103.8Y-67.8
X103.8Y-77.8
X106.3Y-37.8
X106.3Y-45.3
X106.3Y-52.8
X106.3Y-65.3
X106.3Y-72.8
X106.3Y-80.3
X116.3Y-40.3
X116.3Y-42.8
X116.3Y-47.8
X116.3Y-50.3
X116.3Y-67.8
X116.3Y-70.3
X116.3Y-75.3
X116.3Y-77.8
T10
X90.27Y-77.3
X94.232Y-77.3
T11
X50.182Y-66.08
X50.182Y-78.12
T12
X50.75Y-40.75
X62.5Y-78.25
X110.75Y-58.75
T13
X46.9Y-49.88
X46.9Y-61.31
T0
M30
