G04 #@! TF.GenerationSoftware,KiCad,Pcbnew,(5.0.2)-1*
G04 #@! TF.CreationDate,2020-11-24T14:27:36-08:00*
G04 #@! TF.ProjectId,MIDIExtender,4d494449-4578-4746-956e-6465722e6b69,rev?*
G04 #@! TF.SameCoordinates,Original*
G04 #@! TF.FileFunction,Paste,Top*
G04 #@! TF.FilePolarity,Positive*
%FSLAX46Y46*%
G04 Gerber Fmt 4.6, Leading zero omitted, Abs format (unit mm)*
G04 Created by KiCad (PCBNEW (5.0.2)-1) date 11/24/2020 2:27:36 PM*
%MOMM*%
%LPD*%
G01*
G04 APERTURE LIST*
%ADD10R,1.300000X1.500000*%
%ADD11R,1.651000X1.651000*%
%ADD12C,1.651000*%
%ADD13C,1.676400*%
%ADD14C,3.302000*%
%ADD15R,1.550000X0.600000*%
%ADD16R,1.500000X1.300000*%
%ADD17C,0.100000*%
%ADD18C,1.150000*%
%ADD19R,0.900000X0.800000*%
%ADD20R,2.000000X1.500000*%
%ADD21R,2.000000X3.800000*%
G04 APERTURE END LIST*
D10*
G04 #@! TO.C,R3*
X94975000Y-109325000D03*
X94975000Y-106625000D03*
G04 #@! TD*
D11*
G04 #@! TO.C,J2*
X68608700Y-113693600D03*
D12*
X68608700Y-116233600D03*
G04 #@! TD*
D13*
G04 #@! TO.C,JP1*
X54881200Y-119349680D03*
D14*
X50182200Y-112080200D03*
X50182200Y-124119800D03*
D13*
X52900000Y-119349680D03*
X54881200Y-116850320D03*
X52900000Y-116850320D03*
G04 #@! TD*
D11*
G04 #@! TO.C,J10*
X99175000Y-103570000D03*
D12*
X99175000Y-101030000D03*
G04 #@! TD*
D15*
G04 #@! TO.C,U4*
X71800000Y-91905000D03*
X71800000Y-90635000D03*
X71800000Y-89365000D03*
X71800000Y-88095000D03*
X77200000Y-88095000D03*
X77200000Y-89365000D03*
X77200000Y-90635000D03*
X77200000Y-91905000D03*
G04 #@! TD*
D16*
G04 #@! TO.C,R10*
X81175000Y-122075000D03*
X83875000Y-122075000D03*
G04 #@! TD*
D17*
G04 #@! TO.C,C3*
G36*
X75226705Y-115183604D02*
X75250973Y-115187204D01*
X75274772Y-115193165D01*
X75297871Y-115201430D01*
X75320050Y-115211920D01*
X75341093Y-115224532D01*
X75360799Y-115239147D01*
X75378977Y-115255623D01*
X75395453Y-115273801D01*
X75410068Y-115293507D01*
X75422680Y-115314550D01*
X75433170Y-115336729D01*
X75441435Y-115359828D01*
X75447396Y-115383627D01*
X75450996Y-115407895D01*
X75452200Y-115432399D01*
X75452200Y-116082401D01*
X75450996Y-116106905D01*
X75447396Y-116131173D01*
X75441435Y-116154972D01*
X75433170Y-116178071D01*
X75422680Y-116200250D01*
X75410068Y-116221293D01*
X75395453Y-116240999D01*
X75378977Y-116259177D01*
X75360799Y-116275653D01*
X75341093Y-116290268D01*
X75320050Y-116302880D01*
X75297871Y-116313370D01*
X75274772Y-116321635D01*
X75250973Y-116327596D01*
X75226705Y-116331196D01*
X75202201Y-116332400D01*
X74302199Y-116332400D01*
X74277695Y-116331196D01*
X74253427Y-116327596D01*
X74229628Y-116321635D01*
X74206529Y-116313370D01*
X74184350Y-116302880D01*
X74163307Y-116290268D01*
X74143601Y-116275653D01*
X74125423Y-116259177D01*
X74108947Y-116240999D01*
X74094332Y-116221293D01*
X74081720Y-116200250D01*
X74071230Y-116178071D01*
X74062965Y-116154972D01*
X74057004Y-116131173D01*
X74053404Y-116106905D01*
X74052200Y-116082401D01*
X74052200Y-115432399D01*
X74053404Y-115407895D01*
X74057004Y-115383627D01*
X74062965Y-115359828D01*
X74071230Y-115336729D01*
X74081720Y-115314550D01*
X74094332Y-115293507D01*
X74108947Y-115273801D01*
X74125423Y-115255623D01*
X74143601Y-115239147D01*
X74163307Y-115224532D01*
X74184350Y-115211920D01*
X74206529Y-115201430D01*
X74229628Y-115193165D01*
X74253427Y-115187204D01*
X74277695Y-115183604D01*
X74302199Y-115182400D01*
X75202201Y-115182400D01*
X75226705Y-115183604D01*
X75226705Y-115183604D01*
G37*
D18*
X74752200Y-115757400D03*
D17*
G36*
X75226705Y-113133604D02*
X75250973Y-113137204D01*
X75274772Y-113143165D01*
X75297871Y-113151430D01*
X75320050Y-113161920D01*
X75341093Y-113174532D01*
X75360799Y-113189147D01*
X75378977Y-113205623D01*
X75395453Y-113223801D01*
X75410068Y-113243507D01*
X75422680Y-113264550D01*
X75433170Y-113286729D01*
X75441435Y-113309828D01*
X75447396Y-113333627D01*
X75450996Y-113357895D01*
X75452200Y-113382399D01*
X75452200Y-114032401D01*
X75450996Y-114056905D01*
X75447396Y-114081173D01*
X75441435Y-114104972D01*
X75433170Y-114128071D01*
X75422680Y-114150250D01*
X75410068Y-114171293D01*
X75395453Y-114190999D01*
X75378977Y-114209177D01*
X75360799Y-114225653D01*
X75341093Y-114240268D01*
X75320050Y-114252880D01*
X75297871Y-114263370D01*
X75274772Y-114271635D01*
X75250973Y-114277596D01*
X75226705Y-114281196D01*
X75202201Y-114282400D01*
X74302199Y-114282400D01*
X74277695Y-114281196D01*
X74253427Y-114277596D01*
X74229628Y-114271635D01*
X74206529Y-114263370D01*
X74184350Y-114252880D01*
X74163307Y-114240268D01*
X74143601Y-114225653D01*
X74125423Y-114209177D01*
X74108947Y-114190999D01*
X74094332Y-114171293D01*
X74081720Y-114150250D01*
X74071230Y-114128071D01*
X74062965Y-114104972D01*
X74057004Y-114081173D01*
X74053404Y-114056905D01*
X74052200Y-114032401D01*
X74052200Y-113382399D01*
X74053404Y-113357895D01*
X74057004Y-113333627D01*
X74062965Y-113309828D01*
X74071230Y-113286729D01*
X74081720Y-113264550D01*
X74094332Y-113243507D01*
X74108947Y-113223801D01*
X74125423Y-113205623D01*
X74143601Y-113189147D01*
X74163307Y-113174532D01*
X74184350Y-113161920D01*
X74206529Y-113151430D01*
X74229628Y-113143165D01*
X74253427Y-113137204D01*
X74277695Y-113133604D01*
X74302199Y-113132400D01*
X75202201Y-113132400D01*
X75226705Y-113133604D01*
X75226705Y-113133604D01*
G37*
D18*
X74752200Y-113707400D03*
G04 #@! TD*
D15*
G04 #@! TO.C,U1*
X71850000Y-103305000D03*
X71850000Y-102035000D03*
X71850000Y-100765000D03*
X71850000Y-99495000D03*
X77250000Y-99495000D03*
X77250000Y-100765000D03*
X77250000Y-102035000D03*
X77250000Y-103305000D03*
G04 #@! TD*
D17*
G04 #@! TO.C,C5*
G36*
X74374505Y-93801204D02*
X74398773Y-93804804D01*
X74422572Y-93810765D01*
X74445671Y-93819030D01*
X74467850Y-93829520D01*
X74488893Y-93842132D01*
X74508599Y-93856747D01*
X74526777Y-93873223D01*
X74543253Y-93891401D01*
X74557868Y-93911107D01*
X74570480Y-93932150D01*
X74580970Y-93954329D01*
X74589235Y-93977428D01*
X74595196Y-94001227D01*
X74598796Y-94025495D01*
X74600000Y-94049999D01*
X74600000Y-94950001D01*
X74598796Y-94974505D01*
X74595196Y-94998773D01*
X74589235Y-95022572D01*
X74580970Y-95045671D01*
X74570480Y-95067850D01*
X74557868Y-95088893D01*
X74543253Y-95108599D01*
X74526777Y-95126777D01*
X74508599Y-95143253D01*
X74488893Y-95157868D01*
X74467850Y-95170480D01*
X74445671Y-95180970D01*
X74422572Y-95189235D01*
X74398773Y-95195196D01*
X74374505Y-95198796D01*
X74350001Y-95200000D01*
X73699999Y-95200000D01*
X73675495Y-95198796D01*
X73651227Y-95195196D01*
X73627428Y-95189235D01*
X73604329Y-95180970D01*
X73582150Y-95170480D01*
X73561107Y-95157868D01*
X73541401Y-95143253D01*
X73523223Y-95126777D01*
X73506747Y-95108599D01*
X73492132Y-95088893D01*
X73479520Y-95067850D01*
X73469030Y-95045671D01*
X73460765Y-95022572D01*
X73454804Y-94998773D01*
X73451204Y-94974505D01*
X73450000Y-94950001D01*
X73450000Y-94049999D01*
X73451204Y-94025495D01*
X73454804Y-94001227D01*
X73460765Y-93977428D01*
X73469030Y-93954329D01*
X73479520Y-93932150D01*
X73492132Y-93911107D01*
X73506747Y-93891401D01*
X73523223Y-93873223D01*
X73541401Y-93856747D01*
X73561107Y-93842132D01*
X73582150Y-93829520D01*
X73604329Y-93819030D01*
X73627428Y-93810765D01*
X73651227Y-93804804D01*
X73675495Y-93801204D01*
X73699999Y-93800000D01*
X74350001Y-93800000D01*
X74374505Y-93801204D01*
X74374505Y-93801204D01*
G37*
D18*
X74025000Y-94500000D03*
D17*
G36*
X72324505Y-93801204D02*
X72348773Y-93804804D01*
X72372572Y-93810765D01*
X72395671Y-93819030D01*
X72417850Y-93829520D01*
X72438893Y-93842132D01*
X72458599Y-93856747D01*
X72476777Y-93873223D01*
X72493253Y-93891401D01*
X72507868Y-93911107D01*
X72520480Y-93932150D01*
X72530970Y-93954329D01*
X72539235Y-93977428D01*
X72545196Y-94001227D01*
X72548796Y-94025495D01*
X72550000Y-94049999D01*
X72550000Y-94950001D01*
X72548796Y-94974505D01*
X72545196Y-94998773D01*
X72539235Y-95022572D01*
X72530970Y-95045671D01*
X72520480Y-95067850D01*
X72507868Y-95088893D01*
X72493253Y-95108599D01*
X72476777Y-95126777D01*
X72458599Y-95143253D01*
X72438893Y-95157868D01*
X72417850Y-95170480D01*
X72395671Y-95180970D01*
X72372572Y-95189235D01*
X72348773Y-95195196D01*
X72324505Y-95198796D01*
X72300001Y-95200000D01*
X71649999Y-95200000D01*
X71625495Y-95198796D01*
X71601227Y-95195196D01*
X71577428Y-95189235D01*
X71554329Y-95180970D01*
X71532150Y-95170480D01*
X71511107Y-95157868D01*
X71491401Y-95143253D01*
X71473223Y-95126777D01*
X71456747Y-95108599D01*
X71442132Y-95088893D01*
X71429520Y-95067850D01*
X71419030Y-95045671D01*
X71410765Y-95022572D01*
X71404804Y-94998773D01*
X71401204Y-94974505D01*
X71400000Y-94950001D01*
X71400000Y-94049999D01*
X71401204Y-94025495D01*
X71404804Y-94001227D01*
X71410765Y-93977428D01*
X71419030Y-93954329D01*
X71429520Y-93932150D01*
X71442132Y-93911107D01*
X71456747Y-93891401D01*
X71473223Y-93873223D01*
X71491401Y-93856747D01*
X71511107Y-93842132D01*
X71532150Y-93829520D01*
X71554329Y-93819030D01*
X71577428Y-93810765D01*
X71601227Y-93804804D01*
X71625495Y-93801204D01*
X71649999Y-93800000D01*
X72300001Y-93800000D01*
X72324505Y-93801204D01*
X72324505Y-93801204D01*
G37*
D18*
X71975000Y-94500000D03*
G04 #@! TD*
D16*
G04 #@! TO.C,R11*
X82350000Y-95000000D03*
X79650000Y-95000000D03*
G04 #@! TD*
D17*
G04 #@! TO.C,C1*
G36*
X61183205Y-116364804D02*
X61207473Y-116368404D01*
X61231272Y-116374365D01*
X61254371Y-116382630D01*
X61276550Y-116393120D01*
X61297593Y-116405732D01*
X61317299Y-116420347D01*
X61335477Y-116436823D01*
X61351953Y-116455001D01*
X61366568Y-116474707D01*
X61379180Y-116495750D01*
X61389670Y-116517929D01*
X61397935Y-116541028D01*
X61403896Y-116564827D01*
X61407496Y-116589095D01*
X61408700Y-116613599D01*
X61408700Y-117513601D01*
X61407496Y-117538105D01*
X61403896Y-117562373D01*
X61397935Y-117586172D01*
X61389670Y-117609271D01*
X61379180Y-117631450D01*
X61366568Y-117652493D01*
X61351953Y-117672199D01*
X61335477Y-117690377D01*
X61317299Y-117706853D01*
X61297593Y-117721468D01*
X61276550Y-117734080D01*
X61254371Y-117744570D01*
X61231272Y-117752835D01*
X61207473Y-117758796D01*
X61183205Y-117762396D01*
X61158701Y-117763600D01*
X60508699Y-117763600D01*
X60484195Y-117762396D01*
X60459927Y-117758796D01*
X60436128Y-117752835D01*
X60413029Y-117744570D01*
X60390850Y-117734080D01*
X60369807Y-117721468D01*
X60350101Y-117706853D01*
X60331923Y-117690377D01*
X60315447Y-117672199D01*
X60300832Y-117652493D01*
X60288220Y-117631450D01*
X60277730Y-117609271D01*
X60269465Y-117586172D01*
X60263504Y-117562373D01*
X60259904Y-117538105D01*
X60258700Y-117513601D01*
X60258700Y-116613599D01*
X60259904Y-116589095D01*
X60263504Y-116564827D01*
X60269465Y-116541028D01*
X60277730Y-116517929D01*
X60288220Y-116495750D01*
X60300832Y-116474707D01*
X60315447Y-116455001D01*
X60331923Y-116436823D01*
X60350101Y-116420347D01*
X60369807Y-116405732D01*
X60390850Y-116393120D01*
X60413029Y-116382630D01*
X60436128Y-116374365D01*
X60459927Y-116368404D01*
X60484195Y-116364804D01*
X60508699Y-116363600D01*
X61158701Y-116363600D01*
X61183205Y-116364804D01*
X61183205Y-116364804D01*
G37*
D18*
X60833700Y-117063600D03*
D17*
G36*
X59133205Y-116364804D02*
X59157473Y-116368404D01*
X59181272Y-116374365D01*
X59204371Y-116382630D01*
X59226550Y-116393120D01*
X59247593Y-116405732D01*
X59267299Y-116420347D01*
X59285477Y-116436823D01*
X59301953Y-116455001D01*
X59316568Y-116474707D01*
X59329180Y-116495750D01*
X59339670Y-116517929D01*
X59347935Y-116541028D01*
X59353896Y-116564827D01*
X59357496Y-116589095D01*
X59358700Y-116613599D01*
X59358700Y-117513601D01*
X59357496Y-117538105D01*
X59353896Y-117562373D01*
X59347935Y-117586172D01*
X59339670Y-117609271D01*
X59329180Y-117631450D01*
X59316568Y-117652493D01*
X59301953Y-117672199D01*
X59285477Y-117690377D01*
X59267299Y-117706853D01*
X59247593Y-117721468D01*
X59226550Y-117734080D01*
X59204371Y-117744570D01*
X59181272Y-117752835D01*
X59157473Y-117758796D01*
X59133205Y-117762396D01*
X59108701Y-117763600D01*
X58458699Y-117763600D01*
X58434195Y-117762396D01*
X58409927Y-117758796D01*
X58386128Y-117752835D01*
X58363029Y-117744570D01*
X58340850Y-117734080D01*
X58319807Y-117721468D01*
X58300101Y-117706853D01*
X58281923Y-117690377D01*
X58265447Y-117672199D01*
X58250832Y-117652493D01*
X58238220Y-117631450D01*
X58227730Y-117609271D01*
X58219465Y-117586172D01*
X58213504Y-117562373D01*
X58209904Y-117538105D01*
X58208700Y-117513601D01*
X58208700Y-116613599D01*
X58209904Y-116589095D01*
X58213504Y-116564827D01*
X58219465Y-116541028D01*
X58227730Y-116517929D01*
X58238220Y-116495750D01*
X58250832Y-116474707D01*
X58265447Y-116455001D01*
X58281923Y-116436823D01*
X58300101Y-116420347D01*
X58319807Y-116405732D01*
X58340850Y-116393120D01*
X58363029Y-116382630D01*
X58386128Y-116374365D01*
X58409927Y-116368404D01*
X58434195Y-116364804D01*
X58458699Y-116363600D01*
X59108701Y-116363600D01*
X59133205Y-116364804D01*
X59133205Y-116364804D01*
G37*
D18*
X58783700Y-117063600D03*
G04 #@! TD*
D19*
G04 #@! TO.C,Q1*
X95325000Y-114475000D03*
X93325000Y-115425000D03*
X93325000Y-113525000D03*
G04 #@! TD*
D10*
G04 #@! TO.C,R6*
X94950000Y-100550000D03*
X94950000Y-103250000D03*
G04 #@! TD*
G04 #@! TO.C,R4*
X94875000Y-95075000D03*
X94875000Y-97775000D03*
G04 #@! TD*
D17*
G04 #@! TO.C,C2*
G36*
X61208205Y-112014804D02*
X61232473Y-112018404D01*
X61256272Y-112024365D01*
X61279371Y-112032630D01*
X61301550Y-112043120D01*
X61322593Y-112055732D01*
X61342299Y-112070347D01*
X61360477Y-112086823D01*
X61376953Y-112105001D01*
X61391568Y-112124707D01*
X61404180Y-112145750D01*
X61414670Y-112167929D01*
X61422935Y-112191028D01*
X61428896Y-112214827D01*
X61432496Y-112239095D01*
X61433700Y-112263599D01*
X61433700Y-112913601D01*
X61432496Y-112938105D01*
X61428896Y-112962373D01*
X61422935Y-112986172D01*
X61414670Y-113009271D01*
X61404180Y-113031450D01*
X61391568Y-113052493D01*
X61376953Y-113072199D01*
X61360477Y-113090377D01*
X61342299Y-113106853D01*
X61322593Y-113121468D01*
X61301550Y-113134080D01*
X61279371Y-113144570D01*
X61256272Y-113152835D01*
X61232473Y-113158796D01*
X61208205Y-113162396D01*
X61183701Y-113163600D01*
X60283699Y-113163600D01*
X60259195Y-113162396D01*
X60234927Y-113158796D01*
X60211128Y-113152835D01*
X60188029Y-113144570D01*
X60165850Y-113134080D01*
X60144807Y-113121468D01*
X60125101Y-113106853D01*
X60106923Y-113090377D01*
X60090447Y-113072199D01*
X60075832Y-113052493D01*
X60063220Y-113031450D01*
X60052730Y-113009271D01*
X60044465Y-112986172D01*
X60038504Y-112962373D01*
X60034904Y-112938105D01*
X60033700Y-112913601D01*
X60033700Y-112263599D01*
X60034904Y-112239095D01*
X60038504Y-112214827D01*
X60044465Y-112191028D01*
X60052730Y-112167929D01*
X60063220Y-112145750D01*
X60075832Y-112124707D01*
X60090447Y-112105001D01*
X60106923Y-112086823D01*
X60125101Y-112070347D01*
X60144807Y-112055732D01*
X60165850Y-112043120D01*
X60188029Y-112032630D01*
X60211128Y-112024365D01*
X60234927Y-112018404D01*
X60259195Y-112014804D01*
X60283699Y-112013600D01*
X61183701Y-112013600D01*
X61208205Y-112014804D01*
X61208205Y-112014804D01*
G37*
D18*
X60733700Y-112588600D03*
D17*
G36*
X61208205Y-114064804D02*
X61232473Y-114068404D01*
X61256272Y-114074365D01*
X61279371Y-114082630D01*
X61301550Y-114093120D01*
X61322593Y-114105732D01*
X61342299Y-114120347D01*
X61360477Y-114136823D01*
X61376953Y-114155001D01*
X61391568Y-114174707D01*
X61404180Y-114195750D01*
X61414670Y-114217929D01*
X61422935Y-114241028D01*
X61428896Y-114264827D01*
X61432496Y-114289095D01*
X61433700Y-114313599D01*
X61433700Y-114963601D01*
X61432496Y-114988105D01*
X61428896Y-115012373D01*
X61422935Y-115036172D01*
X61414670Y-115059271D01*
X61404180Y-115081450D01*
X61391568Y-115102493D01*
X61376953Y-115122199D01*
X61360477Y-115140377D01*
X61342299Y-115156853D01*
X61322593Y-115171468D01*
X61301550Y-115184080D01*
X61279371Y-115194570D01*
X61256272Y-115202835D01*
X61232473Y-115208796D01*
X61208205Y-115212396D01*
X61183701Y-115213600D01*
X60283699Y-115213600D01*
X60259195Y-115212396D01*
X60234927Y-115208796D01*
X60211128Y-115202835D01*
X60188029Y-115194570D01*
X60165850Y-115184080D01*
X60144807Y-115171468D01*
X60125101Y-115156853D01*
X60106923Y-115140377D01*
X60090447Y-115122199D01*
X60075832Y-115102493D01*
X60063220Y-115081450D01*
X60052730Y-115059271D01*
X60044465Y-115036172D01*
X60038504Y-115012373D01*
X60034904Y-114988105D01*
X60033700Y-114963601D01*
X60033700Y-114313599D01*
X60034904Y-114289095D01*
X60038504Y-114264827D01*
X60044465Y-114241028D01*
X60052730Y-114217929D01*
X60063220Y-114195750D01*
X60075832Y-114174707D01*
X60090447Y-114155001D01*
X60106923Y-114136823D01*
X60125101Y-114120347D01*
X60144807Y-114105732D01*
X60165850Y-114093120D01*
X60188029Y-114082630D01*
X60211128Y-114074365D01*
X60234927Y-114068404D01*
X60259195Y-114064804D01*
X60283699Y-114063600D01*
X61183701Y-114063600D01*
X61208205Y-114064804D01*
X61208205Y-114064804D01*
G37*
D18*
X60733700Y-114638600D03*
G04 #@! TD*
D17*
G04 #@! TO.C,C4*
G36*
X75799505Y-105951204D02*
X75823773Y-105954804D01*
X75847572Y-105960765D01*
X75870671Y-105969030D01*
X75892850Y-105979520D01*
X75913893Y-105992132D01*
X75933599Y-106006747D01*
X75951777Y-106023223D01*
X75968253Y-106041401D01*
X75982868Y-106061107D01*
X75995480Y-106082150D01*
X76005970Y-106104329D01*
X76014235Y-106127428D01*
X76020196Y-106151227D01*
X76023796Y-106175495D01*
X76025000Y-106199999D01*
X76025000Y-107100001D01*
X76023796Y-107124505D01*
X76020196Y-107148773D01*
X76014235Y-107172572D01*
X76005970Y-107195671D01*
X75995480Y-107217850D01*
X75982868Y-107238893D01*
X75968253Y-107258599D01*
X75951777Y-107276777D01*
X75933599Y-107293253D01*
X75913893Y-107307868D01*
X75892850Y-107320480D01*
X75870671Y-107330970D01*
X75847572Y-107339235D01*
X75823773Y-107345196D01*
X75799505Y-107348796D01*
X75775001Y-107350000D01*
X75124999Y-107350000D01*
X75100495Y-107348796D01*
X75076227Y-107345196D01*
X75052428Y-107339235D01*
X75029329Y-107330970D01*
X75007150Y-107320480D01*
X74986107Y-107307868D01*
X74966401Y-107293253D01*
X74948223Y-107276777D01*
X74931747Y-107258599D01*
X74917132Y-107238893D01*
X74904520Y-107217850D01*
X74894030Y-107195671D01*
X74885765Y-107172572D01*
X74879804Y-107148773D01*
X74876204Y-107124505D01*
X74875000Y-107100001D01*
X74875000Y-106199999D01*
X74876204Y-106175495D01*
X74879804Y-106151227D01*
X74885765Y-106127428D01*
X74894030Y-106104329D01*
X74904520Y-106082150D01*
X74917132Y-106061107D01*
X74931747Y-106041401D01*
X74948223Y-106023223D01*
X74966401Y-106006747D01*
X74986107Y-105992132D01*
X75007150Y-105979520D01*
X75029329Y-105969030D01*
X75052428Y-105960765D01*
X75076227Y-105954804D01*
X75100495Y-105951204D01*
X75124999Y-105950000D01*
X75775001Y-105950000D01*
X75799505Y-105951204D01*
X75799505Y-105951204D01*
G37*
D18*
X75450000Y-106650000D03*
D17*
G36*
X73749505Y-105951204D02*
X73773773Y-105954804D01*
X73797572Y-105960765D01*
X73820671Y-105969030D01*
X73842850Y-105979520D01*
X73863893Y-105992132D01*
X73883599Y-106006747D01*
X73901777Y-106023223D01*
X73918253Y-106041401D01*
X73932868Y-106061107D01*
X73945480Y-106082150D01*
X73955970Y-106104329D01*
X73964235Y-106127428D01*
X73970196Y-106151227D01*
X73973796Y-106175495D01*
X73975000Y-106199999D01*
X73975000Y-107100001D01*
X73973796Y-107124505D01*
X73970196Y-107148773D01*
X73964235Y-107172572D01*
X73955970Y-107195671D01*
X73945480Y-107217850D01*
X73932868Y-107238893D01*
X73918253Y-107258599D01*
X73901777Y-107276777D01*
X73883599Y-107293253D01*
X73863893Y-107307868D01*
X73842850Y-107320480D01*
X73820671Y-107330970D01*
X73797572Y-107339235D01*
X73773773Y-107345196D01*
X73749505Y-107348796D01*
X73725001Y-107350000D01*
X73074999Y-107350000D01*
X73050495Y-107348796D01*
X73026227Y-107345196D01*
X73002428Y-107339235D01*
X72979329Y-107330970D01*
X72957150Y-107320480D01*
X72936107Y-107307868D01*
X72916401Y-107293253D01*
X72898223Y-107276777D01*
X72881747Y-107258599D01*
X72867132Y-107238893D01*
X72854520Y-107217850D01*
X72844030Y-107195671D01*
X72835765Y-107172572D01*
X72829804Y-107148773D01*
X72826204Y-107124505D01*
X72825000Y-107100001D01*
X72825000Y-106199999D01*
X72826204Y-106175495D01*
X72829804Y-106151227D01*
X72835765Y-106127428D01*
X72844030Y-106104329D01*
X72854520Y-106082150D01*
X72867132Y-106061107D01*
X72881747Y-106041401D01*
X72898223Y-106023223D01*
X72916401Y-106006747D01*
X72936107Y-105992132D01*
X72957150Y-105979520D01*
X72979329Y-105969030D01*
X73002428Y-105960765D01*
X73026227Y-105954804D01*
X73050495Y-105951204D01*
X73074999Y-105950000D01*
X73725001Y-105950000D01*
X73749505Y-105951204D01*
X73749505Y-105951204D01*
G37*
D18*
X73400000Y-106650000D03*
G04 #@! TD*
D20*
G04 #@! TO.C,U3*
X65183700Y-111438600D03*
X65183700Y-116038600D03*
X65183700Y-113738600D03*
D21*
X71483700Y-113738600D03*
G04 #@! TD*
D11*
G04 #@! TO.C,Pol1*
X83560000Y-116550000D03*
D12*
X86100000Y-116550000D03*
X88640000Y-116550000D03*
G04 #@! TD*
G04 #@! TO.C,J2*
X68608700Y-70233600D03*
D11*
X68608700Y-67693600D03*
G04 #@! TD*
D12*
G04 #@! TO.C,J10*
X99175000Y-55030000D03*
D11*
X99175000Y-57570000D03*
G04 #@! TD*
D13*
G04 #@! TO.C,JP1*
X52900000Y-70850320D03*
X54881200Y-70850320D03*
X52900000Y-73349680D03*
D14*
X50182200Y-78119800D03*
X50182200Y-66080200D03*
D13*
X54881200Y-73349680D03*
G04 #@! TD*
D10*
G04 #@! TO.C,R3*
X94975000Y-60625000D03*
X94975000Y-63325000D03*
G04 #@! TD*
G04 #@! TO.C,R4*
X94875000Y-51775000D03*
X94875000Y-49075000D03*
G04 #@! TD*
G04 #@! TO.C,R6*
X94950000Y-57250000D03*
X94950000Y-54550000D03*
G04 #@! TD*
D16*
G04 #@! TO.C,R10*
X83875000Y-76075000D03*
X81175000Y-76075000D03*
G04 #@! TD*
G04 #@! TO.C,R11*
X79650000Y-49000000D03*
X82350000Y-49000000D03*
G04 #@! TD*
D12*
G04 #@! TO.C,Pol1*
X88640000Y-70550000D03*
X86100000Y-70550000D03*
D11*
X83560000Y-70550000D03*
G04 #@! TD*
D19*
G04 #@! TO.C,Q1*
X93325000Y-67525000D03*
X93325000Y-69425000D03*
X95325000Y-68475000D03*
G04 #@! TD*
D15*
G04 #@! TO.C,U1*
X77250000Y-57305000D03*
X77250000Y-56035000D03*
X77250000Y-54765000D03*
X77250000Y-53495000D03*
X71850000Y-53495000D03*
X71850000Y-54765000D03*
X71850000Y-56035000D03*
X71850000Y-57305000D03*
G04 #@! TD*
D21*
G04 #@! TO.C,U3*
X71483700Y-67738600D03*
D20*
X65183700Y-67738600D03*
X65183700Y-70038600D03*
X65183700Y-65438600D03*
G04 #@! TD*
D17*
G04 #@! TO.C,C3*
G36*
X75226705Y-67133604D02*
X75250973Y-67137204D01*
X75274772Y-67143165D01*
X75297871Y-67151430D01*
X75320050Y-67161920D01*
X75341093Y-67174532D01*
X75360799Y-67189147D01*
X75378977Y-67205623D01*
X75395453Y-67223801D01*
X75410068Y-67243507D01*
X75422680Y-67264550D01*
X75433170Y-67286729D01*
X75441435Y-67309828D01*
X75447396Y-67333627D01*
X75450996Y-67357895D01*
X75452200Y-67382399D01*
X75452200Y-68032401D01*
X75450996Y-68056905D01*
X75447396Y-68081173D01*
X75441435Y-68104972D01*
X75433170Y-68128071D01*
X75422680Y-68150250D01*
X75410068Y-68171293D01*
X75395453Y-68190999D01*
X75378977Y-68209177D01*
X75360799Y-68225653D01*
X75341093Y-68240268D01*
X75320050Y-68252880D01*
X75297871Y-68263370D01*
X75274772Y-68271635D01*
X75250973Y-68277596D01*
X75226705Y-68281196D01*
X75202201Y-68282400D01*
X74302199Y-68282400D01*
X74277695Y-68281196D01*
X74253427Y-68277596D01*
X74229628Y-68271635D01*
X74206529Y-68263370D01*
X74184350Y-68252880D01*
X74163307Y-68240268D01*
X74143601Y-68225653D01*
X74125423Y-68209177D01*
X74108947Y-68190999D01*
X74094332Y-68171293D01*
X74081720Y-68150250D01*
X74071230Y-68128071D01*
X74062965Y-68104972D01*
X74057004Y-68081173D01*
X74053404Y-68056905D01*
X74052200Y-68032401D01*
X74052200Y-67382399D01*
X74053404Y-67357895D01*
X74057004Y-67333627D01*
X74062965Y-67309828D01*
X74071230Y-67286729D01*
X74081720Y-67264550D01*
X74094332Y-67243507D01*
X74108947Y-67223801D01*
X74125423Y-67205623D01*
X74143601Y-67189147D01*
X74163307Y-67174532D01*
X74184350Y-67161920D01*
X74206529Y-67151430D01*
X74229628Y-67143165D01*
X74253427Y-67137204D01*
X74277695Y-67133604D01*
X74302199Y-67132400D01*
X75202201Y-67132400D01*
X75226705Y-67133604D01*
X75226705Y-67133604D01*
G37*
D18*
X74752200Y-67707400D03*
D17*
G36*
X75226705Y-69183604D02*
X75250973Y-69187204D01*
X75274772Y-69193165D01*
X75297871Y-69201430D01*
X75320050Y-69211920D01*
X75341093Y-69224532D01*
X75360799Y-69239147D01*
X75378977Y-69255623D01*
X75395453Y-69273801D01*
X75410068Y-69293507D01*
X75422680Y-69314550D01*
X75433170Y-69336729D01*
X75441435Y-69359828D01*
X75447396Y-69383627D01*
X75450996Y-69407895D01*
X75452200Y-69432399D01*
X75452200Y-70082401D01*
X75450996Y-70106905D01*
X75447396Y-70131173D01*
X75441435Y-70154972D01*
X75433170Y-70178071D01*
X75422680Y-70200250D01*
X75410068Y-70221293D01*
X75395453Y-70240999D01*
X75378977Y-70259177D01*
X75360799Y-70275653D01*
X75341093Y-70290268D01*
X75320050Y-70302880D01*
X75297871Y-70313370D01*
X75274772Y-70321635D01*
X75250973Y-70327596D01*
X75226705Y-70331196D01*
X75202201Y-70332400D01*
X74302199Y-70332400D01*
X74277695Y-70331196D01*
X74253427Y-70327596D01*
X74229628Y-70321635D01*
X74206529Y-70313370D01*
X74184350Y-70302880D01*
X74163307Y-70290268D01*
X74143601Y-70275653D01*
X74125423Y-70259177D01*
X74108947Y-70240999D01*
X74094332Y-70221293D01*
X74081720Y-70200250D01*
X74071230Y-70178071D01*
X74062965Y-70154972D01*
X74057004Y-70131173D01*
X74053404Y-70106905D01*
X74052200Y-70082401D01*
X74052200Y-69432399D01*
X74053404Y-69407895D01*
X74057004Y-69383627D01*
X74062965Y-69359828D01*
X74071230Y-69336729D01*
X74081720Y-69314550D01*
X74094332Y-69293507D01*
X74108947Y-69273801D01*
X74125423Y-69255623D01*
X74143601Y-69239147D01*
X74163307Y-69224532D01*
X74184350Y-69211920D01*
X74206529Y-69201430D01*
X74229628Y-69193165D01*
X74253427Y-69187204D01*
X74277695Y-69183604D01*
X74302199Y-69182400D01*
X75202201Y-69182400D01*
X75226705Y-69183604D01*
X75226705Y-69183604D01*
G37*
D18*
X74752200Y-69757400D03*
G04 #@! TD*
D17*
G04 #@! TO.C,C4*
G36*
X73749505Y-59951204D02*
X73773773Y-59954804D01*
X73797572Y-59960765D01*
X73820671Y-59969030D01*
X73842850Y-59979520D01*
X73863893Y-59992132D01*
X73883599Y-60006747D01*
X73901777Y-60023223D01*
X73918253Y-60041401D01*
X73932868Y-60061107D01*
X73945480Y-60082150D01*
X73955970Y-60104329D01*
X73964235Y-60127428D01*
X73970196Y-60151227D01*
X73973796Y-60175495D01*
X73975000Y-60199999D01*
X73975000Y-61100001D01*
X73973796Y-61124505D01*
X73970196Y-61148773D01*
X73964235Y-61172572D01*
X73955970Y-61195671D01*
X73945480Y-61217850D01*
X73932868Y-61238893D01*
X73918253Y-61258599D01*
X73901777Y-61276777D01*
X73883599Y-61293253D01*
X73863893Y-61307868D01*
X73842850Y-61320480D01*
X73820671Y-61330970D01*
X73797572Y-61339235D01*
X73773773Y-61345196D01*
X73749505Y-61348796D01*
X73725001Y-61350000D01*
X73074999Y-61350000D01*
X73050495Y-61348796D01*
X73026227Y-61345196D01*
X73002428Y-61339235D01*
X72979329Y-61330970D01*
X72957150Y-61320480D01*
X72936107Y-61307868D01*
X72916401Y-61293253D01*
X72898223Y-61276777D01*
X72881747Y-61258599D01*
X72867132Y-61238893D01*
X72854520Y-61217850D01*
X72844030Y-61195671D01*
X72835765Y-61172572D01*
X72829804Y-61148773D01*
X72826204Y-61124505D01*
X72825000Y-61100001D01*
X72825000Y-60199999D01*
X72826204Y-60175495D01*
X72829804Y-60151227D01*
X72835765Y-60127428D01*
X72844030Y-60104329D01*
X72854520Y-60082150D01*
X72867132Y-60061107D01*
X72881747Y-60041401D01*
X72898223Y-60023223D01*
X72916401Y-60006747D01*
X72936107Y-59992132D01*
X72957150Y-59979520D01*
X72979329Y-59969030D01*
X73002428Y-59960765D01*
X73026227Y-59954804D01*
X73050495Y-59951204D01*
X73074999Y-59950000D01*
X73725001Y-59950000D01*
X73749505Y-59951204D01*
X73749505Y-59951204D01*
G37*
D18*
X73400000Y-60650000D03*
D17*
G36*
X75799505Y-59951204D02*
X75823773Y-59954804D01*
X75847572Y-59960765D01*
X75870671Y-59969030D01*
X75892850Y-59979520D01*
X75913893Y-59992132D01*
X75933599Y-60006747D01*
X75951777Y-60023223D01*
X75968253Y-60041401D01*
X75982868Y-60061107D01*
X75995480Y-60082150D01*
X76005970Y-60104329D01*
X76014235Y-60127428D01*
X76020196Y-60151227D01*
X76023796Y-60175495D01*
X76025000Y-60199999D01*
X76025000Y-61100001D01*
X76023796Y-61124505D01*
X76020196Y-61148773D01*
X76014235Y-61172572D01*
X76005970Y-61195671D01*
X75995480Y-61217850D01*
X75982868Y-61238893D01*
X75968253Y-61258599D01*
X75951777Y-61276777D01*
X75933599Y-61293253D01*
X75913893Y-61307868D01*
X75892850Y-61320480D01*
X75870671Y-61330970D01*
X75847572Y-61339235D01*
X75823773Y-61345196D01*
X75799505Y-61348796D01*
X75775001Y-61350000D01*
X75124999Y-61350000D01*
X75100495Y-61348796D01*
X75076227Y-61345196D01*
X75052428Y-61339235D01*
X75029329Y-61330970D01*
X75007150Y-61320480D01*
X74986107Y-61307868D01*
X74966401Y-61293253D01*
X74948223Y-61276777D01*
X74931747Y-61258599D01*
X74917132Y-61238893D01*
X74904520Y-61217850D01*
X74894030Y-61195671D01*
X74885765Y-61172572D01*
X74879804Y-61148773D01*
X74876204Y-61124505D01*
X74875000Y-61100001D01*
X74875000Y-60199999D01*
X74876204Y-60175495D01*
X74879804Y-60151227D01*
X74885765Y-60127428D01*
X74894030Y-60104329D01*
X74904520Y-60082150D01*
X74917132Y-60061107D01*
X74931747Y-60041401D01*
X74948223Y-60023223D01*
X74966401Y-60006747D01*
X74986107Y-59992132D01*
X75007150Y-59979520D01*
X75029329Y-59969030D01*
X75052428Y-59960765D01*
X75076227Y-59954804D01*
X75100495Y-59951204D01*
X75124999Y-59950000D01*
X75775001Y-59950000D01*
X75799505Y-59951204D01*
X75799505Y-59951204D01*
G37*
D18*
X75450000Y-60650000D03*
G04 #@! TD*
D17*
G04 #@! TO.C,C1*
G36*
X59133205Y-70364804D02*
X59157473Y-70368404D01*
X59181272Y-70374365D01*
X59204371Y-70382630D01*
X59226550Y-70393120D01*
X59247593Y-70405732D01*
X59267299Y-70420347D01*
X59285477Y-70436823D01*
X59301953Y-70455001D01*
X59316568Y-70474707D01*
X59329180Y-70495750D01*
X59339670Y-70517929D01*
X59347935Y-70541028D01*
X59353896Y-70564827D01*
X59357496Y-70589095D01*
X59358700Y-70613599D01*
X59358700Y-71513601D01*
X59357496Y-71538105D01*
X59353896Y-71562373D01*
X59347935Y-71586172D01*
X59339670Y-71609271D01*
X59329180Y-71631450D01*
X59316568Y-71652493D01*
X59301953Y-71672199D01*
X59285477Y-71690377D01*
X59267299Y-71706853D01*
X59247593Y-71721468D01*
X59226550Y-71734080D01*
X59204371Y-71744570D01*
X59181272Y-71752835D01*
X59157473Y-71758796D01*
X59133205Y-71762396D01*
X59108701Y-71763600D01*
X58458699Y-71763600D01*
X58434195Y-71762396D01*
X58409927Y-71758796D01*
X58386128Y-71752835D01*
X58363029Y-71744570D01*
X58340850Y-71734080D01*
X58319807Y-71721468D01*
X58300101Y-71706853D01*
X58281923Y-71690377D01*
X58265447Y-71672199D01*
X58250832Y-71652493D01*
X58238220Y-71631450D01*
X58227730Y-71609271D01*
X58219465Y-71586172D01*
X58213504Y-71562373D01*
X58209904Y-71538105D01*
X58208700Y-71513601D01*
X58208700Y-70613599D01*
X58209904Y-70589095D01*
X58213504Y-70564827D01*
X58219465Y-70541028D01*
X58227730Y-70517929D01*
X58238220Y-70495750D01*
X58250832Y-70474707D01*
X58265447Y-70455001D01*
X58281923Y-70436823D01*
X58300101Y-70420347D01*
X58319807Y-70405732D01*
X58340850Y-70393120D01*
X58363029Y-70382630D01*
X58386128Y-70374365D01*
X58409927Y-70368404D01*
X58434195Y-70364804D01*
X58458699Y-70363600D01*
X59108701Y-70363600D01*
X59133205Y-70364804D01*
X59133205Y-70364804D01*
G37*
D18*
X58783700Y-71063600D03*
D17*
G36*
X61183205Y-70364804D02*
X61207473Y-70368404D01*
X61231272Y-70374365D01*
X61254371Y-70382630D01*
X61276550Y-70393120D01*
X61297593Y-70405732D01*
X61317299Y-70420347D01*
X61335477Y-70436823D01*
X61351953Y-70455001D01*
X61366568Y-70474707D01*
X61379180Y-70495750D01*
X61389670Y-70517929D01*
X61397935Y-70541028D01*
X61403896Y-70564827D01*
X61407496Y-70589095D01*
X61408700Y-70613599D01*
X61408700Y-71513601D01*
X61407496Y-71538105D01*
X61403896Y-71562373D01*
X61397935Y-71586172D01*
X61389670Y-71609271D01*
X61379180Y-71631450D01*
X61366568Y-71652493D01*
X61351953Y-71672199D01*
X61335477Y-71690377D01*
X61317299Y-71706853D01*
X61297593Y-71721468D01*
X61276550Y-71734080D01*
X61254371Y-71744570D01*
X61231272Y-71752835D01*
X61207473Y-71758796D01*
X61183205Y-71762396D01*
X61158701Y-71763600D01*
X60508699Y-71763600D01*
X60484195Y-71762396D01*
X60459927Y-71758796D01*
X60436128Y-71752835D01*
X60413029Y-71744570D01*
X60390850Y-71734080D01*
X60369807Y-71721468D01*
X60350101Y-71706853D01*
X60331923Y-71690377D01*
X60315447Y-71672199D01*
X60300832Y-71652493D01*
X60288220Y-71631450D01*
X60277730Y-71609271D01*
X60269465Y-71586172D01*
X60263504Y-71562373D01*
X60259904Y-71538105D01*
X60258700Y-71513601D01*
X60258700Y-70613599D01*
X60259904Y-70589095D01*
X60263504Y-70564827D01*
X60269465Y-70541028D01*
X60277730Y-70517929D01*
X60288220Y-70495750D01*
X60300832Y-70474707D01*
X60315447Y-70455001D01*
X60331923Y-70436823D01*
X60350101Y-70420347D01*
X60369807Y-70405732D01*
X60390850Y-70393120D01*
X60413029Y-70382630D01*
X60436128Y-70374365D01*
X60459927Y-70368404D01*
X60484195Y-70364804D01*
X60508699Y-70363600D01*
X61158701Y-70363600D01*
X61183205Y-70364804D01*
X61183205Y-70364804D01*
G37*
D18*
X60833700Y-71063600D03*
G04 #@! TD*
D17*
G04 #@! TO.C,C2*
G36*
X61208205Y-68064804D02*
X61232473Y-68068404D01*
X61256272Y-68074365D01*
X61279371Y-68082630D01*
X61301550Y-68093120D01*
X61322593Y-68105732D01*
X61342299Y-68120347D01*
X61360477Y-68136823D01*
X61376953Y-68155001D01*
X61391568Y-68174707D01*
X61404180Y-68195750D01*
X61414670Y-68217929D01*
X61422935Y-68241028D01*
X61428896Y-68264827D01*
X61432496Y-68289095D01*
X61433700Y-68313599D01*
X61433700Y-68963601D01*
X61432496Y-68988105D01*
X61428896Y-69012373D01*
X61422935Y-69036172D01*
X61414670Y-69059271D01*
X61404180Y-69081450D01*
X61391568Y-69102493D01*
X61376953Y-69122199D01*
X61360477Y-69140377D01*
X61342299Y-69156853D01*
X61322593Y-69171468D01*
X61301550Y-69184080D01*
X61279371Y-69194570D01*
X61256272Y-69202835D01*
X61232473Y-69208796D01*
X61208205Y-69212396D01*
X61183701Y-69213600D01*
X60283699Y-69213600D01*
X60259195Y-69212396D01*
X60234927Y-69208796D01*
X60211128Y-69202835D01*
X60188029Y-69194570D01*
X60165850Y-69184080D01*
X60144807Y-69171468D01*
X60125101Y-69156853D01*
X60106923Y-69140377D01*
X60090447Y-69122199D01*
X60075832Y-69102493D01*
X60063220Y-69081450D01*
X60052730Y-69059271D01*
X60044465Y-69036172D01*
X60038504Y-69012373D01*
X60034904Y-68988105D01*
X60033700Y-68963601D01*
X60033700Y-68313599D01*
X60034904Y-68289095D01*
X60038504Y-68264827D01*
X60044465Y-68241028D01*
X60052730Y-68217929D01*
X60063220Y-68195750D01*
X60075832Y-68174707D01*
X60090447Y-68155001D01*
X60106923Y-68136823D01*
X60125101Y-68120347D01*
X60144807Y-68105732D01*
X60165850Y-68093120D01*
X60188029Y-68082630D01*
X60211128Y-68074365D01*
X60234927Y-68068404D01*
X60259195Y-68064804D01*
X60283699Y-68063600D01*
X61183701Y-68063600D01*
X61208205Y-68064804D01*
X61208205Y-68064804D01*
G37*
D18*
X60733700Y-68638600D03*
D17*
G36*
X61208205Y-66014804D02*
X61232473Y-66018404D01*
X61256272Y-66024365D01*
X61279371Y-66032630D01*
X61301550Y-66043120D01*
X61322593Y-66055732D01*
X61342299Y-66070347D01*
X61360477Y-66086823D01*
X61376953Y-66105001D01*
X61391568Y-66124707D01*
X61404180Y-66145750D01*
X61414670Y-66167929D01*
X61422935Y-66191028D01*
X61428896Y-66214827D01*
X61432496Y-66239095D01*
X61433700Y-66263599D01*
X61433700Y-66913601D01*
X61432496Y-66938105D01*
X61428896Y-66962373D01*
X61422935Y-66986172D01*
X61414670Y-67009271D01*
X61404180Y-67031450D01*
X61391568Y-67052493D01*
X61376953Y-67072199D01*
X61360477Y-67090377D01*
X61342299Y-67106853D01*
X61322593Y-67121468D01*
X61301550Y-67134080D01*
X61279371Y-67144570D01*
X61256272Y-67152835D01*
X61232473Y-67158796D01*
X61208205Y-67162396D01*
X61183701Y-67163600D01*
X60283699Y-67163600D01*
X60259195Y-67162396D01*
X60234927Y-67158796D01*
X60211128Y-67152835D01*
X60188029Y-67144570D01*
X60165850Y-67134080D01*
X60144807Y-67121468D01*
X60125101Y-67106853D01*
X60106923Y-67090377D01*
X60090447Y-67072199D01*
X60075832Y-67052493D01*
X60063220Y-67031450D01*
X60052730Y-67009271D01*
X60044465Y-66986172D01*
X60038504Y-66962373D01*
X60034904Y-66938105D01*
X60033700Y-66913601D01*
X60033700Y-66263599D01*
X60034904Y-66239095D01*
X60038504Y-66214827D01*
X60044465Y-66191028D01*
X60052730Y-66167929D01*
X60063220Y-66145750D01*
X60075832Y-66124707D01*
X60090447Y-66105001D01*
X60106923Y-66086823D01*
X60125101Y-66070347D01*
X60144807Y-66055732D01*
X60165850Y-66043120D01*
X60188029Y-66032630D01*
X60211128Y-66024365D01*
X60234927Y-66018404D01*
X60259195Y-66014804D01*
X60283699Y-66013600D01*
X61183701Y-66013600D01*
X61208205Y-66014804D01*
X61208205Y-66014804D01*
G37*
D18*
X60733700Y-66588600D03*
G04 #@! TD*
D17*
G04 #@! TO.C,C5*
G36*
X72324505Y-47801204D02*
X72348773Y-47804804D01*
X72372572Y-47810765D01*
X72395671Y-47819030D01*
X72417850Y-47829520D01*
X72438893Y-47842132D01*
X72458599Y-47856747D01*
X72476777Y-47873223D01*
X72493253Y-47891401D01*
X72507868Y-47911107D01*
X72520480Y-47932150D01*
X72530970Y-47954329D01*
X72539235Y-47977428D01*
X72545196Y-48001227D01*
X72548796Y-48025495D01*
X72550000Y-48049999D01*
X72550000Y-48950001D01*
X72548796Y-48974505D01*
X72545196Y-48998773D01*
X72539235Y-49022572D01*
X72530970Y-49045671D01*
X72520480Y-49067850D01*
X72507868Y-49088893D01*
X72493253Y-49108599D01*
X72476777Y-49126777D01*
X72458599Y-49143253D01*
X72438893Y-49157868D01*
X72417850Y-49170480D01*
X72395671Y-49180970D01*
X72372572Y-49189235D01*
X72348773Y-49195196D01*
X72324505Y-49198796D01*
X72300001Y-49200000D01*
X71649999Y-49200000D01*
X71625495Y-49198796D01*
X71601227Y-49195196D01*
X71577428Y-49189235D01*
X71554329Y-49180970D01*
X71532150Y-49170480D01*
X71511107Y-49157868D01*
X71491401Y-49143253D01*
X71473223Y-49126777D01*
X71456747Y-49108599D01*
X71442132Y-49088893D01*
X71429520Y-49067850D01*
X71419030Y-49045671D01*
X71410765Y-49022572D01*
X71404804Y-48998773D01*
X71401204Y-48974505D01*
X71400000Y-48950001D01*
X71400000Y-48049999D01*
X71401204Y-48025495D01*
X71404804Y-48001227D01*
X71410765Y-47977428D01*
X71419030Y-47954329D01*
X71429520Y-47932150D01*
X71442132Y-47911107D01*
X71456747Y-47891401D01*
X71473223Y-47873223D01*
X71491401Y-47856747D01*
X71511107Y-47842132D01*
X71532150Y-47829520D01*
X71554329Y-47819030D01*
X71577428Y-47810765D01*
X71601227Y-47804804D01*
X71625495Y-47801204D01*
X71649999Y-47800000D01*
X72300001Y-47800000D01*
X72324505Y-47801204D01*
X72324505Y-47801204D01*
G37*
D18*
X71975000Y-48500000D03*
D17*
G36*
X74374505Y-47801204D02*
X74398773Y-47804804D01*
X74422572Y-47810765D01*
X74445671Y-47819030D01*
X74467850Y-47829520D01*
X74488893Y-47842132D01*
X74508599Y-47856747D01*
X74526777Y-47873223D01*
X74543253Y-47891401D01*
X74557868Y-47911107D01*
X74570480Y-47932150D01*
X74580970Y-47954329D01*
X74589235Y-47977428D01*
X74595196Y-48001227D01*
X74598796Y-48025495D01*
X74600000Y-48049999D01*
X74600000Y-48950001D01*
X74598796Y-48974505D01*
X74595196Y-48998773D01*
X74589235Y-49022572D01*
X74580970Y-49045671D01*
X74570480Y-49067850D01*
X74557868Y-49088893D01*
X74543253Y-49108599D01*
X74526777Y-49126777D01*
X74508599Y-49143253D01*
X74488893Y-49157868D01*
X74467850Y-49170480D01*
X74445671Y-49180970D01*
X74422572Y-49189235D01*
X74398773Y-49195196D01*
X74374505Y-49198796D01*
X74350001Y-49200000D01*
X73699999Y-49200000D01*
X73675495Y-49198796D01*
X73651227Y-49195196D01*
X73627428Y-49189235D01*
X73604329Y-49180970D01*
X73582150Y-49170480D01*
X73561107Y-49157868D01*
X73541401Y-49143253D01*
X73523223Y-49126777D01*
X73506747Y-49108599D01*
X73492132Y-49088893D01*
X73479520Y-49067850D01*
X73469030Y-49045671D01*
X73460765Y-49022572D01*
X73454804Y-48998773D01*
X73451204Y-48974505D01*
X73450000Y-48950001D01*
X73450000Y-48049999D01*
X73451204Y-48025495D01*
X73454804Y-48001227D01*
X73460765Y-47977428D01*
X73469030Y-47954329D01*
X73479520Y-47932150D01*
X73492132Y-47911107D01*
X73506747Y-47891401D01*
X73523223Y-47873223D01*
X73541401Y-47856747D01*
X73561107Y-47842132D01*
X73582150Y-47829520D01*
X73604329Y-47819030D01*
X73627428Y-47810765D01*
X73651227Y-47804804D01*
X73675495Y-47801204D01*
X73699999Y-47800000D01*
X74350001Y-47800000D01*
X74374505Y-47801204D01*
X74374505Y-47801204D01*
G37*
D18*
X74025000Y-48500000D03*
G04 #@! TD*
D15*
G04 #@! TO.C,U4*
X77200000Y-45905000D03*
X77200000Y-44635000D03*
X77200000Y-43365000D03*
X77200000Y-42095000D03*
X71800000Y-42095000D03*
X71800000Y-43365000D03*
X71800000Y-44635000D03*
X71800000Y-45905000D03*
G04 #@! TD*
M02*
