M48
;DRILL file {KiCad (5.0.2)-1} date 11/24/2020 2:27:40 PM
;FORMAT={-:-/ absolute / metric / decimal}
FMAT,2
METRIC,TZ
T1C0.400
T2C0.760
T3C0.800
T4C0.889
T5C0.914
T6C1.200
T7C1.520
T8C2.286
T9C3.800
T10C3.200
%
G90
G05
T1
X47.5Y-55.
X47.5Y-101.
X57.569Y-41.478
X57.569Y-87.478
X58.259Y-66.514
X58.259Y-112.514
X58.982Y-54.725
X58.982Y-100.725
X59.Y-50.
X59.Y-64.5
X59.Y-96.
X59.Y-110.5
X62.759Y-66.014
X62.759Y-112.014
X67.Y-64.
X67.Y-110.
X68.259Y-65.014
X68.259Y-111.014
X68.6Y-54.3
X68.6Y-100.3
X68.975Y-56.45
X68.975Y-102.45
X69.939Y-50.8
X69.939Y-96.8
X70.231Y-79.654
X70.231Y-125.654
X73.444Y-55.372
X73.444Y-101.372
X73.95Y-53.4
X73.95Y-99.4
X74.257Y-58.217
X74.257Y-104.217
X74.486Y-43.777
X74.486Y-89.777
X74.9Y-54.9
X74.9Y-56.325
X74.9Y-100.9
X74.9Y-102.325
X76.5Y-71.
X76.5Y-117.
X78.842Y-64.033
X78.842Y-110.033
X79.5Y-79.5
X79.5Y-125.5
X79.625Y-59.275
X79.625Y-105.275
X79.675Y-50.4
X79.675Y-96.4
X83.Y-63.
X83.Y-109.
X83.75Y-74.55
X83.75Y-120.55
X84.375Y-48.8
X84.375Y-94.8
X85.1Y-67.934
X85.1Y-113.934
X85.65Y-46.1
X85.65Y-92.1
X85.85Y-63.925
X85.85Y-109.925
X86.5Y-53.5
X86.5Y-58.5
X86.5Y-99.5
X86.5Y-104.5
X88.Y-65.5
X88.Y-111.5
X89.Y-75.5
X89.Y-121.5
X92.Y-53.5
X92.Y-65.
X92.Y-99.5
X92.Y-111.
X92.5Y-59.5
X92.5Y-105.5
X93.Y-79.
X93.Y-125.
X94.Y-74.
X94.Y-120.
X94.5Y-46.
X94.5Y-92.
X96.304Y-58.941
X96.304Y-104.941
X96.85Y-75.5
X96.85Y-121.5
X97.675Y-48.7
X97.675Y-94.7
X99.9Y-52.5
X99.9Y-98.5
X100.Y-66.5
X100.Y-112.5
X100.3Y-60.8
X100.3Y-106.8
X101.3Y-50.95
X101.3Y-96.95
X102.75Y-57.6
X102.75Y-103.6
X104.292Y-61.125
X104.292Y-107.125
X110.63Y-42.189
X110.63Y-88.189
X110.769Y-49.568
X110.769Y-95.568
T2
X53.25Y-97.15
X53.25Y-99.69
X53.25Y-102.23
X53.25Y-104.77
X55.79Y-98.42
X55.79Y-100.96
X55.79Y-103.5
X55.79Y-106.04
X53.25Y-51.15
X53.25Y-53.69
X53.25Y-56.23
X53.25Y-58.77
X55.79Y-52.42
X55.79Y-54.96
X55.79Y-57.5
X55.79Y-60.04
T3
X71.8Y-47.
X71.8Y-93.
X71.85Y-59.1
X71.85Y-105.1
X73.343Y-67.739
X73.343Y-113.739
X82.055Y-52.255
X82.055Y-54.795
X82.055Y-57.335
X82.055Y-59.875
X89.675Y-52.255
X89.675Y-54.795
X89.675Y-57.335
X89.675Y-59.875
X82.055Y-98.255
X82.055Y-100.795
X82.055Y-103.335
X82.055Y-105.875
X89.675Y-98.255
X89.675Y-100.795
X89.675Y-103.335
X89.675Y-105.875
T4
X83.56Y-70.55
X86.1Y-70.55
X88.64Y-70.55
X63.68Y-41.71
X63.68Y-44.25
X63.68Y-46.79
X66.22Y-41.71
X66.22Y-44.25
X66.22Y-46.79
X63.53Y-53.41
X63.53Y-55.95
X63.53Y-58.49
X66.07Y-53.41
X66.07Y-55.95
X66.07Y-58.49
X99.175Y-55.03
X99.175Y-57.57
X68.609Y-67.694
X68.609Y-70.234
X68.609Y-113.694
X68.609Y-116.234
X63.53Y-99.41
X63.53Y-101.95
X63.53Y-104.49
X66.07Y-99.41
X66.07Y-101.95
X66.07Y-104.49
X83.56Y-116.55
X86.1Y-116.55
X88.64Y-116.55
X63.68Y-87.71
X63.68Y-90.25
X63.68Y-92.79
X66.22Y-87.71
X66.22Y-90.25
X66.22Y-92.79
X99.175Y-101.03
X99.175Y-103.57
T5
X52.9Y-70.85
X52.9Y-73.35
X54.881Y-70.85
X54.881Y-73.35
X52.9Y-116.85
X52.9Y-119.35
X54.881Y-116.85
X54.881Y-119.35
T6
X103.8Y-67.8
X103.8Y-77.8
X106.3Y-65.3
X106.3Y-72.8
X106.3Y-80.3
X116.3Y-67.8
X116.3Y-70.3
X116.3Y-75.3
X116.3Y-77.8
X103.8Y-86.3
X103.8Y-96.3
X106.3Y-83.8
X106.3Y-91.3
X106.3Y-98.8
X116.3Y-86.3
X116.3Y-88.8
X116.3Y-93.8
X116.3Y-96.3
X103.8Y-113.8
X103.8Y-123.8
X106.3Y-111.3
X106.3Y-118.8
X106.3Y-126.3
X116.3Y-113.8
X116.3Y-116.3
X116.3Y-121.3
X116.3Y-123.8
X103.8Y-40.3
X103.8Y-50.3
X106.3Y-37.8
X106.3Y-45.3
X106.3Y-52.8
X116.3Y-40.3
X116.3Y-42.8
X116.3Y-47.8
X116.3Y-50.3
T7
X94.232Y-123.3
X90.27Y-77.3
X90.27Y-123.3
X94.232Y-77.3
T8
X50.182Y-66.08
X50.182Y-78.12
X50.182Y-112.08
X50.182Y-124.12
T9
X50.7Y-40.9
X50.7Y-86.9
X64.059Y-76.898
X64.059Y-122.898
X90.7Y-40.95
X90.7Y-86.95
X110.731Y-58.852
X110.731Y-104.852
T10
X46.9Y-95.88
X46.9Y-107.31
X46.9Y-49.88
X46.9Y-61.31
T0
M30
