G04 #@! TF.GenerationSoftware,KiCad,Pcbnew,(6.0.9)*
G04 #@! TF.CreationDate,2023-05-25T14:51:59-07:00*
G04 #@! TF.ProjectId,MIDIExtender,4d494449-4578-4746-956e-6465722e6b69,rev?*
G04 #@! TF.SameCoordinates,Original*
G04 #@! TF.FileFunction,Copper,L2,Bot*
G04 #@! TF.FilePolarity,Positive*
%FSLAX46Y46*%
G04 Gerber Fmt 4.6, Leading zero omitted, Abs format (unit mm)*
G04 Created by KiCad (PCBNEW (6.0.9)) date 2023-05-25 14:51:59*
%MOMM*%
%LPD*%
G01*
G04 APERTURE LIST*
G04 #@! TA.AperFunction,ComponentPad*
%ADD10R,1.651000X1.651000*%
G04 #@! TD*
G04 #@! TA.AperFunction,ComponentPad*
%ADD11C,1.651000*%
G04 #@! TD*
G04 #@! TA.AperFunction,ComponentPad*
%ADD12C,1.676400*%
G04 #@! TD*
G04 #@! TA.AperFunction,ComponentPad*
%ADD13C,3.302000*%
G04 #@! TD*
G04 #@! TA.AperFunction,ComponentPad*
%ADD14R,1.600000X1.600000*%
G04 #@! TD*
G04 #@! TA.AperFunction,ComponentPad*
%ADD15O,1.600000X1.600000*%
G04 #@! TD*
G04 #@! TA.AperFunction,ComponentPad*
%ADD16C,2.124000*%
G04 #@! TD*
G04 #@! TA.AperFunction,ComponentPad*
%ADD17O,2.540000X2.540000*%
G04 #@! TD*
G04 #@! TA.AperFunction,ComponentPad*
%ADD18R,1.500000X1.500000*%
G04 #@! TD*
G04 #@! TA.AperFunction,ComponentPad*
%ADD19C,1.500000*%
G04 #@! TD*
G04 #@! TA.AperFunction,ComponentPad*
%ADD20R,1.700000X1.700000*%
G04 #@! TD*
G04 #@! TA.AperFunction,ComponentPad*
%ADD21C,1.700000*%
G04 #@! TD*
G04 #@! TA.AperFunction,ComponentPad*
%ADD22O,1.700000X1.700000*%
G04 #@! TD*
G04 #@! TA.AperFunction,ComponentPad*
%ADD23C,3.400000*%
G04 #@! TD*
G04 #@! TA.AperFunction,ViaPad*
%ADD24C,0.800000*%
G04 #@! TD*
G04 #@! TA.AperFunction,ViaPad*
%ADD25C,1.200000*%
G04 #@! TD*
G04 #@! TA.AperFunction,Conductor*
%ADD26C,0.250000*%
G04 #@! TD*
G04 #@! TA.AperFunction,Conductor*
%ADD27C,0.152400*%
G04 #@! TD*
G04 #@! TA.AperFunction,Conductor*
%ADD28C,0.508000*%
G04 #@! TD*
G04 APERTURE END LIST*
D10*
X68608700Y-72770000D03*
D11*
X68608700Y-70230000D03*
D10*
X99175000Y-57570000D03*
D11*
X99175000Y-55030000D03*
D12*
X52900000Y-70850320D03*
X54881200Y-70850320D03*
X52900000Y-73349680D03*
D13*
X50182200Y-78119800D03*
X50182200Y-66080200D03*
D12*
X54881200Y-73349680D03*
D14*
X89675000Y-59875000D03*
D15*
X89675000Y-57335000D03*
X89675000Y-54795000D03*
X89675000Y-52255000D03*
X82055000Y-52255000D03*
X82055000Y-54795000D03*
X82055000Y-57335000D03*
X82055000Y-59875000D03*
D10*
X66220000Y-46790000D03*
D11*
X66220000Y-44250000D03*
X66220000Y-41710000D03*
X63680000Y-41710000D03*
X63680000Y-44250000D03*
X63680000Y-46790000D03*
D16*
X106300000Y-37800000D03*
X103800000Y-40300000D03*
X106300000Y-45300000D03*
X103800000Y-50300000D03*
X106300000Y-52800000D03*
X116300000Y-40300000D03*
X116300000Y-50300000D03*
X116300000Y-42800000D03*
X116300000Y-47800000D03*
X106300000Y-65300000D03*
X103800000Y-67800000D03*
X106300000Y-72800000D03*
X103800000Y-77800000D03*
X106300000Y-80300000D03*
X116300000Y-67800000D03*
X116300000Y-77800000D03*
X116300000Y-70300000D03*
X116300000Y-75300000D03*
D17*
X90270000Y-77300000D03*
D10*
X66070000Y-58490000D03*
D11*
X66070000Y-55950000D03*
X66070000Y-53410000D03*
X63530000Y-53410000D03*
X63530000Y-55950000D03*
X63530000Y-58490000D03*
D17*
X94232400Y-77300000D03*
D18*
X53250000Y-51150000D03*
D19*
X55790000Y-52420000D03*
X53250000Y-53690000D03*
X55790000Y-54960000D03*
X53250000Y-56230000D03*
X55790000Y-57500000D03*
X53250000Y-58770000D03*
X55790000Y-60040000D03*
D10*
X83560000Y-70550000D03*
D11*
X86100000Y-70550000D03*
X88640000Y-70550000D03*
D20*
X95010000Y-39585000D03*
D21*
X95010000Y-42125000D03*
X92470000Y-39585000D03*
X92470000Y-42125000D03*
X89930000Y-39585000D03*
X89930000Y-42125000D03*
D20*
X80475000Y-38225000D03*
D22*
X83015000Y-38225000D03*
X80475000Y-40765000D03*
X83015000Y-40765000D03*
X80475000Y-43305000D03*
X83015000Y-43305000D03*
D23*
X110750000Y-58750000D03*
D10*
X91290000Y-48500000D03*
D11*
X88750000Y-48500000D03*
X86210000Y-48500000D03*
D23*
X62500000Y-78250000D03*
D10*
X78750000Y-63960000D03*
D11*
X78750000Y-66500000D03*
X78750000Y-69040000D03*
D23*
X50750000Y-40750000D03*
D24*
X102750000Y-57600000D03*
X83750000Y-74550000D03*
X84060000Y-48671311D03*
X86500000Y-58500000D03*
X67000000Y-64000000D03*
X73444100Y-55372000D03*
X62758700Y-66013600D03*
X68258700Y-65013600D03*
X93000000Y-79000000D03*
X69938900Y-50800000D03*
X100000000Y-66500000D03*
X96304100Y-58940700D03*
X47500000Y-55000000D03*
X94000000Y-74000000D03*
X99900010Y-52500010D03*
X94500000Y-46000000D03*
X110629700Y-42189400D03*
X59000000Y-64500000D03*
X83000000Y-63000000D03*
X104292400Y-61125100D03*
X70231000Y-79654400D03*
X74256900Y-58216800D03*
X79500000Y-79500000D03*
X110769400Y-49568100D03*
X91896484Y-53396484D03*
X58258700Y-66513600D03*
X92000000Y-65000000D03*
X59000000Y-50000000D03*
X89000000Y-75500000D03*
X74485500Y-43776900D03*
X57569100Y-41478200D03*
X86500000Y-53500000D03*
X76500000Y-71000000D03*
X58982102Y-54724790D03*
X93603500Y-58853218D03*
D25*
X80124300Y-72809100D03*
D24*
X91000000Y-65250000D03*
X68600000Y-54300000D03*
X68975000Y-56450000D03*
X74900000Y-54900000D03*
X79675000Y-50400000D03*
D25*
X73342500Y-67738600D03*
D24*
X79625000Y-59275000D03*
X74900000Y-56325000D03*
D25*
X73750000Y-74000000D03*
X71800000Y-47000000D03*
X71850000Y-59100000D03*
D24*
X85850000Y-63925000D03*
X101300000Y-50950000D03*
X100300000Y-60800000D03*
D25*
X79000000Y-47000000D03*
D24*
X85100000Y-67934500D03*
X85356500Y-45958209D03*
D26*
X99175000Y-44925000D02*
X99175000Y-55030000D01*
X103800000Y-40300000D02*
X99175000Y-44925000D01*
X102750000Y-57600000D02*
X102750000Y-57034315D01*
X103800000Y-50300000D02*
X102738001Y-51361999D01*
X102750000Y-57034315D02*
X102738001Y-57022316D01*
X102738001Y-51361999D02*
X102738001Y-57022316D01*
X83750000Y-74550000D02*
X82055000Y-72855000D01*
X82055000Y-72855000D02*
X82055000Y-59875000D01*
D27*
X83015000Y-47626311D02*
X84060000Y-48671311D01*
D26*
X82055000Y-54795000D02*
X84060000Y-52790000D01*
D27*
X83015000Y-43305000D02*
X83015000Y-47626311D01*
D26*
X84060000Y-52790000D02*
X84060000Y-48671311D01*
D28*
X57000000Y-66000000D02*
X57000000Y-71230880D01*
X91000000Y-61250000D02*
X91500000Y-61250000D01*
X51250000Y-60250000D02*
X57000000Y-66000000D01*
X51250000Y-53100000D02*
X51250000Y-60250000D01*
X53250000Y-51150000D02*
X52045999Y-52354001D01*
X92750000Y-60000000D02*
X92750000Y-49960000D01*
X78750000Y-63960000D02*
X80124300Y-65334300D01*
X91000000Y-65250000D02*
X91000000Y-61250000D01*
X91500000Y-61250000D02*
X92750000Y-60000000D01*
X57000000Y-71230880D02*
X54881200Y-73349680D01*
X51995999Y-52354001D02*
X51250000Y-53100000D01*
X80124300Y-65334300D02*
X80124300Y-72809100D01*
X52045999Y-52354001D02*
X51995999Y-52354001D01*
X92750000Y-49960000D02*
X91290000Y-48500000D01*
D26*
X66220000Y-47865500D02*
X67220501Y-48866001D01*
X66220000Y-46790000D02*
X66220000Y-47865500D01*
X67220501Y-48866001D02*
X67220501Y-58414999D01*
X67145500Y-58490000D02*
X66070000Y-58490000D01*
X67220501Y-58414999D02*
X67145500Y-58490000D01*
X63680000Y-41710000D02*
X62529499Y-42860501D01*
X62529499Y-52409499D02*
X63530000Y-53410000D01*
X62529499Y-42860501D02*
X62529499Y-52409499D01*
X68600000Y-56075000D02*
X68975000Y-56450000D01*
X68600000Y-54300000D02*
X68600000Y-56075000D01*
X63680000Y-46790000D02*
X63680000Y-47957433D01*
X63530000Y-58490000D02*
X64680501Y-57339499D01*
X63680000Y-47957433D02*
X64680501Y-48957934D01*
X64680501Y-48957934D02*
X64680501Y-57339499D01*
D28*
X72385000Y-59635000D02*
X72385000Y-66781100D01*
D26*
X79675000Y-50400000D02*
X79675000Y-59225000D01*
D28*
X71850000Y-47050000D02*
X71800000Y-47000000D01*
D26*
X74900000Y-54900000D02*
X74900000Y-56325000D01*
D28*
X73750000Y-68146100D02*
X73342500Y-67738600D01*
D26*
X79675000Y-59225000D02*
X79625000Y-59275000D01*
D28*
X72385000Y-59635000D02*
X71850000Y-59100000D01*
X73750000Y-74000000D02*
X73750000Y-68146100D01*
X71850000Y-59100000D02*
X71850000Y-47050000D01*
X72385000Y-66781100D02*
X73342500Y-67738600D01*
D26*
X85850000Y-63925000D02*
X85850000Y-70300000D01*
X66220000Y-41710000D02*
X65069499Y-42860501D01*
X66070000Y-49711022D02*
X66070000Y-53410000D01*
X65069499Y-42860501D02*
X65069499Y-48710521D01*
X65069499Y-48710521D02*
X66070000Y-49711022D01*
X103800000Y-66313589D02*
X103800000Y-67800000D01*
X101300000Y-50950000D02*
X101300000Y-63813589D01*
X101300000Y-63813589D02*
X103800000Y-66313589D01*
X102412999Y-65862999D02*
X100300000Y-63750000D01*
X102412999Y-76412999D02*
X102412999Y-65862999D01*
X100300000Y-63750000D02*
X100300000Y-60800000D01*
X103800000Y-77800000D02*
X102412999Y-76412999D01*
D28*
X78750000Y-69040000D02*
X77470500Y-67760500D01*
X77470500Y-67760500D02*
X77470500Y-48529500D01*
X77470500Y-48529500D02*
X79000000Y-47000000D01*
X86210000Y-43305000D02*
X89930000Y-39585000D01*
X86210000Y-48500000D02*
X86210000Y-43305000D01*
D26*
X85356500Y-45958209D02*
X85356500Y-40566500D01*
X84784500Y-67619000D02*
X84784500Y-46530209D01*
X85100000Y-67934500D02*
X83560000Y-69474500D01*
X84784500Y-46530209D02*
X85356500Y-45958209D01*
X85100000Y-67934500D02*
X84784500Y-67619000D01*
X85356500Y-40566500D02*
X83015000Y-38225000D01*
X83560000Y-69474500D02*
X83560000Y-70550000D01*
G04 #@! TA.AperFunction,Conductor*
G36*
X105047100Y-36628502D02*
G01*
X105093593Y-36682158D01*
X105103697Y-36752432D01*
X105074791Y-36816328D01*
X105025510Y-36874029D01*
X104896348Y-37084803D01*
X104894453Y-37089378D01*
X104829063Y-37247243D01*
X104801747Y-37313188D01*
X104800592Y-37318000D01*
X104745813Y-37546172D01*
X104744039Y-37553560D01*
X104724644Y-37800000D01*
X104744039Y-38046440D01*
X104801747Y-38286812D01*
X104803640Y-38291383D01*
X104803641Y-38291385D01*
X104870502Y-38452800D01*
X104896348Y-38515197D01*
X105025510Y-38725971D01*
X105028722Y-38729731D01*
X105028725Y-38729736D01*
X105117826Y-38834059D01*
X105186055Y-38913945D01*
X105189817Y-38917158D01*
X105370264Y-39071275D01*
X105370269Y-39071278D01*
X105374029Y-39074490D01*
X105584803Y-39203652D01*
X105589378Y-39205547D01*
X105808615Y-39296359D01*
X105808617Y-39296360D01*
X105813188Y-39298253D01*
X105875851Y-39313297D01*
X106048747Y-39354806D01*
X106048753Y-39354807D01*
X106053560Y-39355961D01*
X106300000Y-39375356D01*
X106546440Y-39355961D01*
X106551247Y-39354807D01*
X106551253Y-39354806D01*
X106724149Y-39313297D01*
X106786812Y-39298253D01*
X106791383Y-39296360D01*
X106791385Y-39296359D01*
X107010622Y-39205547D01*
X107015197Y-39203652D01*
X107225971Y-39074490D01*
X107229731Y-39071278D01*
X107229736Y-39071275D01*
X107410183Y-38917158D01*
X107413945Y-38913945D01*
X107482174Y-38834059D01*
X107571275Y-38729736D01*
X107571278Y-38729731D01*
X107574490Y-38725971D01*
X107703652Y-38515197D01*
X107729498Y-38452800D01*
X107796359Y-38291385D01*
X107796360Y-38291383D01*
X107798253Y-38286812D01*
X107855961Y-38046440D01*
X107875356Y-37800000D01*
X107855961Y-37553560D01*
X107854188Y-37546172D01*
X107799408Y-37318000D01*
X107798253Y-37313188D01*
X107770938Y-37247243D01*
X107705547Y-37089378D01*
X107703652Y-37084803D01*
X107574490Y-36874029D01*
X107525209Y-36816328D01*
X107496179Y-36751541D01*
X107506784Y-36681341D01*
X107553658Y-36628019D01*
X107621021Y-36608500D01*
X118265500Y-36608500D01*
X118333621Y-36628502D01*
X118380114Y-36682158D01*
X118391500Y-36734500D01*
X118391500Y-81265500D01*
X118371498Y-81333621D01*
X118317842Y-81380114D01*
X118265500Y-81391500D01*
X107698043Y-81391500D01*
X107629922Y-81371498D01*
X107583429Y-81317842D01*
X107573325Y-81247568D01*
X107590610Y-81199665D01*
X107701066Y-81019417D01*
X107703652Y-81015197D01*
X107798253Y-80786812D01*
X107855961Y-80546440D01*
X107875356Y-80300000D01*
X107855961Y-80053560D01*
X107844515Y-80005881D01*
X107799408Y-79818000D01*
X107798253Y-79813188D01*
X107703652Y-79584803D01*
X107574490Y-79374029D01*
X107571278Y-79370269D01*
X107571275Y-79370264D01*
X107417158Y-79189817D01*
X107413945Y-79186055D01*
X107396034Y-79170758D01*
X107229736Y-79028725D01*
X107229731Y-79028722D01*
X107225971Y-79025510D01*
X107015197Y-78896348D01*
X106837706Y-78822828D01*
X106791385Y-78803641D01*
X106791383Y-78803640D01*
X106786812Y-78801747D01*
X106703578Y-78781764D01*
X106551253Y-78745194D01*
X106551247Y-78745193D01*
X106546440Y-78744039D01*
X106300000Y-78724644D01*
X106053560Y-78744039D01*
X106048753Y-78745193D01*
X106048747Y-78745194D01*
X105896422Y-78781764D01*
X105813188Y-78801747D01*
X105808617Y-78803640D01*
X105808615Y-78803641D01*
X105762294Y-78822828D01*
X105584803Y-78896348D01*
X105374029Y-79025510D01*
X105370269Y-79028722D01*
X105370264Y-79028725D01*
X105203966Y-79170758D01*
X105186055Y-79186055D01*
X105182842Y-79189817D01*
X105028725Y-79370264D01*
X105028722Y-79370269D01*
X105025510Y-79374029D01*
X104896348Y-79584803D01*
X104801747Y-79813188D01*
X104800592Y-79818000D01*
X104755486Y-80005881D01*
X104744039Y-80053560D01*
X104724644Y-80300000D01*
X104744039Y-80546440D01*
X104801747Y-80786812D01*
X104896348Y-81015197D01*
X104898934Y-81019417D01*
X105009390Y-81199665D01*
X105027928Y-81268199D01*
X105006472Y-81335875D01*
X104951832Y-81381208D01*
X104901957Y-81391500D01*
X43734500Y-81391500D01*
X43666379Y-81371498D01*
X43619886Y-81317842D01*
X43608500Y-81265500D01*
X43608500Y-79816653D01*
X48850619Y-79816653D01*
X48857673Y-79826625D01*
X48906914Y-79867797D01*
X48913846Y-79872832D01*
X49155939Y-80024697D01*
X49163491Y-80028746D01*
X49423962Y-80146354D01*
X49431993Y-80149340D01*
X49706015Y-80230510D01*
X49714367Y-80232377D01*
X49996875Y-80275606D01*
X50005409Y-80276322D01*
X50291166Y-80280812D01*
X50299717Y-80280363D01*
X50583444Y-80246029D01*
X50591844Y-80244427D01*
X50868299Y-80171900D01*
X50876402Y-80169173D01*
X51140446Y-80059803D01*
X51148114Y-80055997D01*
X51394871Y-79911804D01*
X51401952Y-79906991D01*
X51504409Y-79826655D01*
X51512880Y-79814795D01*
X51506364Y-79803174D01*
X50195012Y-78491822D01*
X50181068Y-78484208D01*
X50179235Y-78484339D01*
X50172620Y-78488590D01*
X48857911Y-79803299D01*
X48850619Y-79816653D01*
X43608500Y-79816653D01*
X43608500Y-78101419D01*
X48018521Y-78101419D01*
X48034972Y-78386740D01*
X48036045Y-78395240D01*
X48091068Y-78675689D01*
X48093281Y-78683951D01*
X48185858Y-78954345D01*
X48189174Y-78962232D01*
X48317589Y-79217558D01*
X48321945Y-79224924D01*
X48472955Y-79444643D01*
X48483208Y-79452987D01*
X48496949Y-79445841D01*
X49810178Y-78132612D01*
X49816556Y-78120932D01*
X50546608Y-78120932D01*
X50546739Y-78122765D01*
X50550990Y-78129380D01*
X51865947Y-79444337D01*
X51878157Y-79451004D01*
X51889656Y-79442315D01*
X52006826Y-79282808D01*
X52011410Y-79275585D01*
X52147778Y-79024426D01*
X52151346Y-79016632D01*
X52252366Y-78749290D01*
X52254839Y-78741098D01*
X52318645Y-78462511D01*
X52319983Y-78454057D01*
X52338195Y-78250000D01*
X60286761Y-78250000D01*
X60287031Y-78254119D01*
X60302121Y-78484339D01*
X60305696Y-78538886D01*
X60306500Y-78542926D01*
X60306500Y-78542929D01*
X60358359Y-78803641D01*
X60362175Y-78822828D01*
X60363501Y-78826734D01*
X60363502Y-78826738D01*
X60446512Y-79071275D01*
X60455234Y-79096970D01*
X60457055Y-79100663D01*
X60457056Y-79100665D01*
X60518334Y-79224924D01*
X60583279Y-79356619D01*
X60744119Y-79597335D01*
X60746831Y-79600427D01*
X60746836Y-79600434D01*
X60924636Y-79803174D01*
X60935004Y-79814996D01*
X60938093Y-79817705D01*
X61149565Y-80003163D01*
X61149571Y-80003168D01*
X61152665Y-80005881D01*
X61393380Y-80166721D01*
X61397079Y-80168545D01*
X61397084Y-80168548D01*
X61624734Y-80280812D01*
X61653030Y-80294766D01*
X61656928Y-80296089D01*
X61656930Y-80296090D01*
X61923262Y-80386498D01*
X61923266Y-80386499D01*
X61927172Y-80387825D01*
X61931216Y-80388629D01*
X61931222Y-80388631D01*
X62207071Y-80443500D01*
X62207074Y-80443500D01*
X62211114Y-80444304D01*
X62215225Y-80444573D01*
X62215229Y-80444574D01*
X62495881Y-80462969D01*
X62500000Y-80463239D01*
X62504119Y-80462969D01*
X62784771Y-80444574D01*
X62784775Y-80444573D01*
X62788886Y-80444304D01*
X62792926Y-80443500D01*
X62792929Y-80443500D01*
X63068778Y-80388631D01*
X63068784Y-80388629D01*
X63072828Y-80387825D01*
X63076734Y-80386499D01*
X63076738Y-80386498D01*
X63343070Y-80296090D01*
X63343072Y-80296089D01*
X63346970Y-80294766D01*
X63375266Y-80280812D01*
X63602916Y-80168548D01*
X63602921Y-80168545D01*
X63606620Y-80166721D01*
X63847335Y-80005881D01*
X63850429Y-80003168D01*
X63850435Y-80003163D01*
X64061907Y-79817705D01*
X64064996Y-79814996D01*
X64075364Y-79803174D01*
X64253164Y-79600434D01*
X64253169Y-79600427D01*
X64255881Y-79597335D01*
X64416721Y-79356619D01*
X64481666Y-79224924D01*
X64542944Y-79100665D01*
X64542945Y-79100663D01*
X64544766Y-79096970D01*
X64553488Y-79071275D01*
X64636498Y-78826738D01*
X64636499Y-78826734D01*
X64637825Y-78822828D01*
X64641642Y-78803641D01*
X64693500Y-78542929D01*
X64693500Y-78542926D01*
X64694304Y-78538886D01*
X64697880Y-78484339D01*
X64712969Y-78254119D01*
X64713239Y-78250000D01*
X64706992Y-78154697D01*
X64694574Y-77965229D01*
X64694573Y-77965225D01*
X64694304Y-77961114D01*
X64693500Y-77957071D01*
X64638631Y-77681222D01*
X64638629Y-77681216D01*
X64637825Y-77677172D01*
X64602620Y-77573460D01*
X64546090Y-77406930D01*
X64546089Y-77406928D01*
X64544766Y-77403030D01*
X64541532Y-77396471D01*
X64470934Y-77253314D01*
X88487124Y-77253314D01*
X88487348Y-77257980D01*
X88487348Y-77257985D01*
X88489518Y-77303160D01*
X88499807Y-77517352D01*
X88509792Y-77567548D01*
X88550439Y-77771894D01*
X88551378Y-77776616D01*
X88552957Y-77781014D01*
X88552959Y-77781021D01*
X88616168Y-77957071D01*
X88640704Y-78025410D01*
X88642921Y-78029536D01*
X88717098Y-78167586D01*
X88765822Y-78258267D01*
X88768617Y-78262011D01*
X88768619Y-78262013D01*
X88912025Y-78454057D01*
X88923985Y-78470073D01*
X88927292Y-78473351D01*
X88927297Y-78473357D01*
X89029926Y-78575093D01*
X89111718Y-78656174D01*
X89115485Y-78658936D01*
X89115486Y-78658937D01*
X89225289Y-78739448D01*
X89324896Y-78812483D01*
X89329031Y-78814659D01*
X89329035Y-78814661D01*
X89351990Y-78826738D01*
X89558836Y-78935565D01*
X89808400Y-79022716D01*
X89812993Y-79023588D01*
X90063515Y-79071151D01*
X90063518Y-79071151D01*
X90068104Y-79072022D01*
X90200173Y-79077211D01*
X90327575Y-79082218D01*
X90327581Y-79082218D01*
X90332243Y-79082401D01*
X90595015Y-79053622D01*
X90599526Y-79052434D01*
X90599528Y-79052434D01*
X90846124Y-78987511D01*
X90846126Y-78987510D01*
X90850647Y-78986320D01*
X90856047Y-78984000D01*
X91089229Y-78883817D01*
X91089231Y-78883816D01*
X91093523Y-78881972D01*
X91318307Y-78742871D01*
X91397666Y-78675689D01*
X91516496Y-78575093D01*
X91516498Y-78575091D01*
X91520063Y-78572073D01*
X91694356Y-78373329D01*
X91697080Y-78369095D01*
X91826694Y-78167586D01*
X91837359Y-78151006D01*
X91945930Y-77909988D01*
X92017683Y-77655570D01*
X92028129Y-77573460D01*
X92473877Y-77573460D01*
X92513347Y-77771894D01*
X92515841Y-77780887D01*
X92601978Y-78020797D01*
X92605778Y-78029332D01*
X92726431Y-78253877D01*
X92731442Y-78261744D01*
X92883972Y-78466006D01*
X92890077Y-78473030D01*
X93071126Y-78652505D01*
X93078208Y-78658554D01*
X93283794Y-78809296D01*
X93291693Y-78814232D01*
X93517301Y-78932930D01*
X93525850Y-78936647D01*
X93766513Y-79020690D01*
X93775522Y-79023104D01*
X93960602Y-79058243D01*
X93973661Y-79056959D01*
X93978171Y-79042782D01*
X94486400Y-79042782D01*
X94490571Y-79056987D01*
X94503334Y-79059043D01*
X94552670Y-79053640D01*
X94561847Y-79051939D01*
X94808360Y-78987037D01*
X94817180Y-78984000D01*
X95051397Y-78883373D01*
X95059669Y-78879066D01*
X95276440Y-78744925D01*
X95283978Y-78739448D01*
X95478545Y-78574735D01*
X95485190Y-78568205D01*
X95653274Y-78376543D01*
X95658886Y-78369095D01*
X95796791Y-78154697D01*
X95801238Y-78146506D01*
X95905936Y-77914085D01*
X95909131Y-77905307D01*
X95978321Y-77659977D01*
X95980182Y-77650830D01*
X95990214Y-77571970D01*
X95987926Y-77557708D01*
X95974906Y-77554000D01*
X94504515Y-77554000D01*
X94489276Y-77558475D01*
X94488071Y-77559865D01*
X94486400Y-77567548D01*
X94486400Y-79042782D01*
X93978171Y-79042782D01*
X93978400Y-79042063D01*
X93978400Y-77572115D01*
X93973925Y-77556876D01*
X93972535Y-77555671D01*
X93964852Y-77554000D01*
X92488121Y-77554000D01*
X92475720Y-77557641D01*
X92473877Y-77573460D01*
X92028129Y-77573460D01*
X92049314Y-77406930D01*
X92050645Y-77396471D01*
X92050645Y-77396465D01*
X92051043Y-77393340D01*
X92053487Y-77300000D01*
X92041848Y-77143381D01*
X92034243Y-77041036D01*
X92034242Y-77041032D01*
X92033897Y-77036384D01*
X92031994Y-77027974D01*
X92472717Y-77027974D01*
X92475477Y-77042703D01*
X92487655Y-77046000D01*
X93960285Y-77046000D01*
X93975524Y-77041525D01*
X93976729Y-77040135D01*
X93978400Y-77032452D01*
X93978400Y-77027885D01*
X94486400Y-77027885D01*
X94490875Y-77043124D01*
X94492265Y-77044329D01*
X94499948Y-77046000D01*
X95978395Y-77046000D01*
X95993272Y-77041632D01*
X95994881Y-77032646D01*
X95994768Y-77031894D01*
X95938509Y-76783262D01*
X95935785Y-76774351D01*
X95843390Y-76536758D01*
X95839379Y-76528349D01*
X95712881Y-76307025D01*
X95707670Y-76299299D01*
X95549846Y-76099100D01*
X95543553Y-76092232D01*
X95357877Y-75917566D01*
X95350622Y-75911691D01*
X95141176Y-75766392D01*
X95133141Y-75761659D01*
X94904506Y-75648909D01*
X94895873Y-75645421D01*
X94653081Y-75567703D01*
X94644020Y-75565527D01*
X94504278Y-75542769D01*
X94490685Y-75544465D01*
X94486400Y-75558572D01*
X94486400Y-77027885D01*
X93978400Y-77027885D01*
X93978400Y-75558209D01*
X93974382Y-75544526D01*
X93960690Y-75542504D01*
X93866330Y-75555346D01*
X93857203Y-75557287D01*
X93612484Y-75628616D01*
X93603731Y-75631888D01*
X93372237Y-75738608D01*
X93364082Y-75743128D01*
X93150900Y-75882896D01*
X93143495Y-75888579D01*
X92953319Y-76058317D01*
X92946834Y-76065033D01*
X92783833Y-76261020D01*
X92778418Y-76268612D01*
X92646176Y-76486540D01*
X92641938Y-76494857D01*
X92543361Y-76729935D01*
X92540400Y-76738785D01*
X92477655Y-76985849D01*
X92476033Y-76995046D01*
X92472717Y-77027974D01*
X92031994Y-77027974D01*
X91975557Y-76778559D01*
X91968803Y-76761191D01*
X91881442Y-76536542D01*
X91881441Y-76536540D01*
X91879749Y-76532189D01*
X91853659Y-76486540D01*
X91824855Y-76436145D01*
X91748578Y-76302687D01*
X91584925Y-76095094D01*
X91392385Y-75913970D01*
X91355212Y-75888182D01*
X91179026Y-75765958D01*
X91179021Y-75765955D01*
X91175188Y-75763296D01*
X91170997Y-75761229D01*
X90942294Y-75648445D01*
X90942291Y-75648444D01*
X90938106Y-75646380D01*
X90882612Y-75628616D01*
X90690792Y-75567214D01*
X90690794Y-75567214D01*
X90686347Y-75565791D01*
X90537231Y-75541506D01*
X90430053Y-75524051D01*
X90430052Y-75524051D01*
X90425441Y-75523300D01*
X90293281Y-75521570D01*
X90165798Y-75519901D01*
X90165795Y-75519901D01*
X90161121Y-75519840D01*
X89899192Y-75555486D01*
X89894702Y-75556795D01*
X89894696Y-75556796D01*
X89786732Y-75588265D01*
X89645410Y-75629457D01*
X89641163Y-75631415D01*
X89641160Y-75631416D01*
X89603215Y-75648909D01*
X89405348Y-75740127D01*
X89401439Y-75742690D01*
X89188195Y-75882499D01*
X89188190Y-75882503D01*
X89184282Y-75885065D01*
X88987067Y-76061086D01*
X88961163Y-76092232D01*
X88835230Y-76243651D01*
X88818036Y-76264324D01*
X88680901Y-76490314D01*
X88679095Y-76494622D01*
X88679094Y-76494623D01*
X88581637Y-76727033D01*
X88578677Y-76734091D01*
X88577526Y-76738623D01*
X88577525Y-76738626D01*
X88560831Y-76804361D01*
X88513608Y-76990301D01*
X88487124Y-77253314D01*
X64470934Y-77253314D01*
X64418550Y-77147090D01*
X64416721Y-77143381D01*
X64255881Y-76902665D01*
X64253169Y-76899573D01*
X64253164Y-76899566D01*
X64067705Y-76688093D01*
X64064996Y-76685004D01*
X63995596Y-76624141D01*
X63850435Y-76496837D01*
X63850429Y-76496832D01*
X63847335Y-76494119D01*
X63606620Y-76333279D01*
X63602921Y-76331455D01*
X63602916Y-76331452D01*
X63350665Y-76207056D01*
X63350663Y-76207055D01*
X63346970Y-76205234D01*
X63294725Y-76187499D01*
X63076738Y-76113502D01*
X63076734Y-76113501D01*
X63072828Y-76112175D01*
X63068784Y-76111371D01*
X63068778Y-76111369D01*
X62792929Y-76056500D01*
X62792926Y-76056500D01*
X62788886Y-76055696D01*
X62784775Y-76055427D01*
X62784771Y-76055426D01*
X62504119Y-76037031D01*
X62500000Y-76036761D01*
X62495881Y-76037031D01*
X62215229Y-76055426D01*
X62215225Y-76055427D01*
X62211114Y-76055696D01*
X62207074Y-76056500D01*
X62207071Y-76056500D01*
X61931222Y-76111369D01*
X61931216Y-76111371D01*
X61927172Y-76112175D01*
X61923266Y-76113501D01*
X61923262Y-76113502D01*
X61705275Y-76187499D01*
X61653030Y-76205234D01*
X61649337Y-76207055D01*
X61649335Y-76207056D01*
X61476091Y-76292491D01*
X61393381Y-76333279D01*
X61152665Y-76494119D01*
X61149573Y-76496831D01*
X61149566Y-76496836D01*
X61004404Y-76624141D01*
X60935004Y-76685004D01*
X60932295Y-76688093D01*
X60746836Y-76899566D01*
X60746831Y-76899573D01*
X60744119Y-76902665D01*
X60583279Y-77143381D01*
X60581450Y-77147090D01*
X60458469Y-77396471D01*
X60455234Y-77403030D01*
X60453911Y-77406928D01*
X60453910Y-77406930D01*
X60397381Y-77573460D01*
X60362175Y-77677172D01*
X60361371Y-77681216D01*
X60361369Y-77681222D01*
X60306500Y-77957071D01*
X60305696Y-77961114D01*
X60305427Y-77965225D01*
X60305426Y-77965229D01*
X60293008Y-78154697D01*
X60286761Y-78250000D01*
X52338195Y-78250000D01*
X52345550Y-78167586D01*
X52345796Y-78162645D01*
X52346219Y-78122285D01*
X52346076Y-78117319D01*
X52326515Y-77830382D01*
X52325354Y-77821908D01*
X52267396Y-77542042D01*
X52265097Y-77533807D01*
X52169693Y-77264395D01*
X52166296Y-77256544D01*
X52035212Y-77002573D01*
X52030784Y-76995261D01*
X51890620Y-76795828D01*
X51880098Y-76787448D01*
X51866710Y-76794500D01*
X50554222Y-78106988D01*
X50546608Y-78120932D01*
X49816556Y-78120932D01*
X49817792Y-78118668D01*
X49817661Y-78116835D01*
X49813410Y-78110220D01*
X48497817Y-76794627D01*
X48485807Y-76788069D01*
X48474067Y-76797037D01*
X48345500Y-76975957D01*
X48340988Y-76983233D01*
X48207252Y-77235817D01*
X48203773Y-77243631D01*
X48105556Y-77512020D01*
X48103167Y-77520243D01*
X48042283Y-77799484D01*
X48041034Y-77807940D01*
X48018610Y-78092868D01*
X48018521Y-78101419D01*
X43608500Y-78101419D01*
X43608500Y-76424878D01*
X48851360Y-76424878D01*
X48857755Y-76436145D01*
X50169388Y-77747778D01*
X50183332Y-77755392D01*
X50185165Y-77755261D01*
X50191780Y-77751010D01*
X51506110Y-76436680D01*
X51513301Y-76423511D01*
X51505978Y-76413273D01*
X51439106Y-76358540D01*
X51432144Y-76353592D01*
X51188455Y-76204260D01*
X51180857Y-76200288D01*
X50919172Y-76085416D01*
X50911118Y-76082517D01*
X50636260Y-76004222D01*
X50627882Y-76002440D01*
X50344942Y-75962172D01*
X50336395Y-75961544D01*
X50050604Y-75960047D01*
X50042070Y-75960584D01*
X49758717Y-75997889D01*
X49750319Y-75999582D01*
X49474657Y-76074995D01*
X49466570Y-76077811D01*
X49203696Y-76189936D01*
X49196057Y-76193829D01*
X48950832Y-76340592D01*
X48943803Y-76345477D01*
X48859829Y-76412754D01*
X48851360Y-76424878D01*
X43608500Y-76424878D01*
X43608500Y-74463170D01*
X52151064Y-74463170D01*
X52160358Y-74475184D01*
X52219821Y-74516820D01*
X52229316Y-74522303D01*
X52432832Y-74617203D01*
X52443124Y-74620949D01*
X52660027Y-74679068D01*
X52670822Y-74680971D01*
X52894525Y-74700543D01*
X52905475Y-74700543D01*
X53129178Y-74680971D01*
X53139973Y-74679068D01*
X53356876Y-74620949D01*
X53367168Y-74617203D01*
X53570684Y-74522303D01*
X53580179Y-74516820D01*
X53640477Y-74474599D01*
X53648852Y-74464122D01*
X53641785Y-74450676D01*
X52912811Y-73721701D01*
X52898868Y-73714088D01*
X52897034Y-73714219D01*
X52890420Y-73718470D01*
X52157491Y-74451400D01*
X52151064Y-74463170D01*
X43608500Y-74463170D01*
X43608500Y-73355155D01*
X51549137Y-73355155D01*
X51568709Y-73578858D01*
X51570612Y-73589653D01*
X51628731Y-73806556D01*
X51632477Y-73816848D01*
X51727377Y-74020364D01*
X51732860Y-74029859D01*
X51775081Y-74090157D01*
X51785558Y-74098532D01*
X51799004Y-74091465D01*
X52527979Y-73362491D01*
X52535592Y-73348548D01*
X52535461Y-73346714D01*
X52531210Y-73340100D01*
X51798280Y-72607171D01*
X51786510Y-72600744D01*
X51774496Y-72610038D01*
X51732860Y-72669501D01*
X51727377Y-72678996D01*
X51632477Y-72882512D01*
X51628731Y-72892804D01*
X51570612Y-73109707D01*
X51568709Y-73120502D01*
X51549137Y-73344205D01*
X51549137Y-73355155D01*
X43608500Y-73355155D01*
X43608500Y-67777053D01*
X48850619Y-67777053D01*
X48857673Y-67787025D01*
X48906914Y-67828197D01*
X48913846Y-67833232D01*
X49155939Y-67985097D01*
X49163491Y-67989146D01*
X49423962Y-68106754D01*
X49431993Y-68109740D01*
X49706015Y-68190910D01*
X49714367Y-68192777D01*
X49996875Y-68236006D01*
X50005409Y-68236722D01*
X50291166Y-68241212D01*
X50299717Y-68240763D01*
X50583444Y-68206429D01*
X50591844Y-68204827D01*
X50868299Y-68132300D01*
X50876402Y-68129573D01*
X51140446Y-68020203D01*
X51148114Y-68016397D01*
X51394871Y-67872204D01*
X51401952Y-67867391D01*
X51504409Y-67787055D01*
X51512880Y-67775195D01*
X51506364Y-67763574D01*
X50195012Y-66452222D01*
X50181068Y-66444608D01*
X50179235Y-66444739D01*
X50172620Y-66448990D01*
X48857911Y-67763699D01*
X48850619Y-67777053D01*
X43608500Y-67777053D01*
X43608500Y-66061819D01*
X48018521Y-66061819D01*
X48034972Y-66347140D01*
X48036045Y-66355640D01*
X48091068Y-66636089D01*
X48093281Y-66644351D01*
X48185858Y-66914745D01*
X48189174Y-66922632D01*
X48317589Y-67177958D01*
X48321945Y-67185324D01*
X48472955Y-67405043D01*
X48483208Y-67413387D01*
X48496949Y-67406241D01*
X49810178Y-66093012D01*
X49816556Y-66081332D01*
X50546608Y-66081332D01*
X50546739Y-66083165D01*
X50550990Y-66089780D01*
X51865947Y-67404737D01*
X51878157Y-67411404D01*
X51889656Y-67402715D01*
X52006826Y-67243208D01*
X52011410Y-67235985D01*
X52147778Y-66984826D01*
X52151346Y-66977032D01*
X52252366Y-66709690D01*
X52254839Y-66701498D01*
X52318645Y-66422911D01*
X52319983Y-66414457D01*
X52345550Y-66127986D01*
X52345796Y-66123045D01*
X52346219Y-66082685D01*
X52346076Y-66077719D01*
X52326515Y-65790782D01*
X52325354Y-65782308D01*
X52267396Y-65502442D01*
X52265097Y-65494207D01*
X52169693Y-65224795D01*
X52166296Y-65216944D01*
X52035212Y-64962973D01*
X52030784Y-64955661D01*
X51890620Y-64756228D01*
X51880098Y-64747848D01*
X51866710Y-64754900D01*
X50554222Y-66067388D01*
X50546608Y-66081332D01*
X49816556Y-66081332D01*
X49817792Y-66079068D01*
X49817661Y-66077235D01*
X49813410Y-66070620D01*
X48497817Y-64755027D01*
X48485807Y-64748469D01*
X48474067Y-64757437D01*
X48345500Y-64936357D01*
X48340988Y-64943633D01*
X48207252Y-65196217D01*
X48203773Y-65204031D01*
X48105556Y-65472420D01*
X48103167Y-65480643D01*
X48042283Y-65759884D01*
X48041034Y-65768340D01*
X48018610Y-66053268D01*
X48018521Y-66061819D01*
X43608500Y-66061819D01*
X43608500Y-64385278D01*
X48851360Y-64385278D01*
X48857755Y-64396545D01*
X50169388Y-65708178D01*
X50183332Y-65715792D01*
X50185165Y-65715661D01*
X50191780Y-65711410D01*
X51506110Y-64397080D01*
X51513301Y-64383911D01*
X51505978Y-64373673D01*
X51439106Y-64318940D01*
X51432144Y-64313992D01*
X51188455Y-64164660D01*
X51180857Y-64160688D01*
X50919172Y-64045816D01*
X50911118Y-64042917D01*
X50636260Y-63964622D01*
X50627882Y-63962840D01*
X50344942Y-63922572D01*
X50336395Y-63921944D01*
X50050604Y-63920447D01*
X50042070Y-63920984D01*
X49758717Y-63958289D01*
X49750319Y-63959982D01*
X49474657Y-64035395D01*
X49466570Y-64038211D01*
X49203696Y-64150336D01*
X49196057Y-64154229D01*
X48950832Y-64300992D01*
X48943803Y-64305877D01*
X48859829Y-64373154D01*
X48851360Y-64385278D01*
X43608500Y-64385278D01*
X43608500Y-61442703D01*
X44790743Y-61442703D01*
X44791302Y-61446947D01*
X44791302Y-61446951D01*
X44807810Y-61572340D01*
X44828268Y-61727734D01*
X44904129Y-62005036D01*
X44905813Y-62008984D01*
X44925009Y-62053987D01*
X45016923Y-62269476D01*
X45164561Y-62516161D01*
X45344313Y-62740528D01*
X45376676Y-62771239D01*
X45546537Y-62932431D01*
X45552851Y-62938423D01*
X45786317Y-63106186D01*
X45790112Y-63108195D01*
X45790113Y-63108196D01*
X45811869Y-63119715D01*
X46040392Y-63240712D01*
X46310373Y-63339511D01*
X46591264Y-63400755D01*
X46619841Y-63403004D01*
X46814282Y-63418307D01*
X46814291Y-63418307D01*
X46816739Y-63418500D01*
X46972271Y-63418500D01*
X46974407Y-63418354D01*
X46974418Y-63418354D01*
X47182548Y-63404165D01*
X47182554Y-63404164D01*
X47186825Y-63403873D01*
X47191020Y-63403004D01*
X47191022Y-63403004D01*
X47327583Y-63374724D01*
X47468342Y-63345574D01*
X47739343Y-63249607D01*
X47827362Y-63204177D01*
X47991005Y-63119715D01*
X47991006Y-63119715D01*
X47994812Y-63117750D01*
X47998313Y-63115289D01*
X47998317Y-63115287D01*
X48151740Y-63007459D01*
X48230023Y-62952441D01*
X48417293Y-62778419D01*
X48437479Y-62759661D01*
X48437481Y-62759658D01*
X48440622Y-62756740D01*
X48622713Y-62534268D01*
X48772927Y-62289142D01*
X48888483Y-62025898D01*
X48899887Y-61985866D01*
X48957841Y-61782414D01*
X48967244Y-61749406D01*
X49002380Y-61502524D01*
X49007146Y-61469036D01*
X49007146Y-61469034D01*
X49007751Y-61464784D01*
X49007845Y-61446951D01*
X49009235Y-61181583D01*
X49009235Y-61181576D01*
X49009257Y-61177297D01*
X48971732Y-60892266D01*
X48895871Y-60614964D01*
X48876511Y-60569575D01*
X48784763Y-60354476D01*
X48784761Y-60354472D01*
X48783077Y-60350524D01*
X48706880Y-60223208D01*
X50482776Y-60223208D01*
X50483369Y-60230500D01*
X50483369Y-60230503D01*
X50487085Y-60276183D01*
X50487500Y-60286398D01*
X50487500Y-60294525D01*
X50490811Y-60322924D01*
X50491238Y-60327244D01*
X50497191Y-60400426D01*
X50499447Y-60407388D01*
X50500643Y-60413376D01*
X50502051Y-60419333D01*
X50502899Y-60426607D01*
X50505397Y-60433489D01*
X50505398Y-60433493D01*
X50527945Y-60495607D01*
X50529355Y-60499711D01*
X50551987Y-60569575D01*
X50555787Y-60575838D01*
X50558325Y-60581380D01*
X50561067Y-60586856D01*
X50563566Y-60593741D01*
X50567581Y-60599865D01*
X50603815Y-60655132D01*
X50606130Y-60658800D01*
X50644227Y-60721581D01*
X50647941Y-60725786D01*
X50647943Y-60725789D01*
X50651667Y-60730005D01*
X50651638Y-60730031D01*
X50654238Y-60732962D01*
X50657042Y-60736316D01*
X50661054Y-60742435D01*
X50666366Y-60747467D01*
X50717586Y-60795988D01*
X50720028Y-60798366D01*
X56200595Y-66278933D01*
X56234621Y-66341245D01*
X56237500Y-66368028D01*
X56237500Y-70039797D01*
X56217498Y-70107918D01*
X56163842Y-70154411D01*
X56093568Y-70164515D01*
X56028988Y-70135021D01*
X56008287Y-70112067D01*
X55928044Y-69997468D01*
X55916773Y-69981371D01*
X55750149Y-69814747D01*
X55557122Y-69679589D01*
X55552144Y-69677268D01*
X55552141Y-69677266D01*
X55348540Y-69582325D01*
X55348538Y-69582324D01*
X55343558Y-69580002D01*
X55338250Y-69578580D01*
X55338248Y-69578579D01*
X55121260Y-69520438D01*
X55121259Y-69520438D01*
X55115945Y-69519014D01*
X54881200Y-69498476D01*
X54646455Y-69519014D01*
X54641141Y-69520438D01*
X54641140Y-69520438D01*
X54424152Y-69578579D01*
X54424150Y-69578580D01*
X54418842Y-69580002D01*
X54413862Y-69582324D01*
X54413860Y-69582325D01*
X54210259Y-69677266D01*
X54210256Y-69677268D01*
X54205278Y-69679589D01*
X54012251Y-69814747D01*
X53979695Y-69847303D01*
X53917383Y-69881329D01*
X53846568Y-69876264D01*
X53801505Y-69847303D01*
X53768949Y-69814747D01*
X53575922Y-69679589D01*
X53570944Y-69677268D01*
X53570941Y-69677266D01*
X53367340Y-69582325D01*
X53367338Y-69582324D01*
X53362358Y-69580002D01*
X53357050Y-69578580D01*
X53357048Y-69578579D01*
X53140060Y-69520438D01*
X53140059Y-69520438D01*
X53134745Y-69519014D01*
X52900000Y-69498476D01*
X52665255Y-69519014D01*
X52659941Y-69520438D01*
X52659940Y-69520438D01*
X52442952Y-69578579D01*
X52442950Y-69578580D01*
X52437642Y-69580002D01*
X52432662Y-69582324D01*
X52432660Y-69582325D01*
X52229059Y-69677266D01*
X52229056Y-69677268D01*
X52224078Y-69679589D01*
X52031051Y-69814747D01*
X51864427Y-69981371D01*
X51729269Y-70174398D01*
X51726948Y-70179376D01*
X51726946Y-70179379D01*
X51634040Y-70378617D01*
X51629682Y-70387962D01*
X51628260Y-70393270D01*
X51628259Y-70393272D01*
X51570118Y-70610260D01*
X51568694Y-70615575D01*
X51548156Y-70850320D01*
X51568694Y-71085065D01*
X51570118Y-71090379D01*
X51570118Y-71090380D01*
X51614444Y-71255807D01*
X51629682Y-71312678D01*
X51632004Y-71317658D01*
X51632005Y-71317660D01*
X51714181Y-71493885D01*
X51729269Y-71526242D01*
X51864427Y-71719269D01*
X52031051Y-71885893D01*
X52166549Y-71980769D01*
X52189861Y-71997092D01*
X52234189Y-72052549D01*
X52241498Y-72123168D01*
X52209468Y-72186529D01*
X52189861Y-72203518D01*
X52159523Y-72224761D01*
X52151148Y-72235238D01*
X52158215Y-72248684D01*
X52887189Y-72977659D01*
X52901132Y-72985272D01*
X52902966Y-72985141D01*
X52909580Y-72980890D01*
X53642509Y-72247960D01*
X53648936Y-72236190D01*
X53639642Y-72224176D01*
X53610139Y-72203518D01*
X53565811Y-72148061D01*
X53558502Y-72077442D01*
X53590533Y-72014081D01*
X53610139Y-71997092D01*
X53633451Y-71980769D01*
X53768949Y-71885893D01*
X53801505Y-71853337D01*
X53863817Y-71819311D01*
X53934632Y-71824376D01*
X53979695Y-71853337D01*
X54012251Y-71885893D01*
X54128235Y-71967105D01*
X54170625Y-71996787D01*
X54214954Y-72052244D01*
X54222263Y-72122863D01*
X54190233Y-72186224D01*
X54170625Y-72203213D01*
X54142649Y-72222802D01*
X54012251Y-72314107D01*
X53845627Y-72480731D01*
X53710469Y-72673758D01*
X53708148Y-72678736D01*
X53708146Y-72678739D01*
X53620189Y-72867363D01*
X53610882Y-72887322D01*
X53609461Y-72892627D01*
X53609458Y-72892634D01*
X53579107Y-73005910D01*
X53546495Y-73062396D01*
X53272021Y-73336869D01*
X53264408Y-73350812D01*
X53264539Y-73352646D01*
X53268790Y-73359259D01*
X53546495Y-73636964D01*
X53579107Y-73693450D01*
X53609458Y-73806726D01*
X53609459Y-73806728D01*
X53610882Y-73812038D01*
X53613204Y-73817018D01*
X53613205Y-73817020D01*
X53704619Y-74013056D01*
X53710469Y-74025602D01*
X53845627Y-74218629D01*
X54012251Y-74385253D01*
X54205278Y-74520411D01*
X54210256Y-74522732D01*
X54210259Y-74522734D01*
X54412848Y-74617203D01*
X54418842Y-74619998D01*
X54424150Y-74621420D01*
X54424152Y-74621421D01*
X54641140Y-74679562D01*
X54646455Y-74680986D01*
X54881200Y-74701524D01*
X55115945Y-74680986D01*
X55121260Y-74679562D01*
X55338248Y-74621421D01*
X55338250Y-74621420D01*
X55343558Y-74619998D01*
X55349552Y-74617203D01*
X55552141Y-74522734D01*
X55552144Y-74522732D01*
X55557122Y-74520411D01*
X55750149Y-74385253D01*
X55916773Y-74218629D01*
X56051931Y-74025602D01*
X56057782Y-74013056D01*
X56149195Y-73817020D01*
X56149196Y-73817018D01*
X56151518Y-73812038D01*
X56152942Y-73806726D01*
X56211082Y-73589740D01*
X56211082Y-73589739D01*
X56212506Y-73584425D01*
X56233044Y-73349680D01*
X56222196Y-73225692D01*
X56216161Y-73156708D01*
X56230150Y-73087103D01*
X56252587Y-73056631D01*
X57491528Y-71817690D01*
X57505941Y-71805303D01*
X57517665Y-71796675D01*
X57523564Y-71792334D01*
X57557979Y-71751825D01*
X57564909Y-71744309D01*
X57570653Y-71738565D01*
X57572927Y-71735691D01*
X57572933Y-71735684D01*
X57588372Y-71716169D01*
X57591163Y-71712765D01*
X57633945Y-71662408D01*
X57633948Y-71662404D01*
X57638684Y-71656829D01*
X57642012Y-71650312D01*
X57645389Y-71645248D01*
X57648616Y-71640024D01*
X57653160Y-71634280D01*
X57684242Y-71567776D01*
X57686147Y-71563879D01*
X57719543Y-71498476D01*
X57721284Y-71491362D01*
X57723416Y-71485628D01*
X57725344Y-71479832D01*
X57728444Y-71473200D01*
X57743395Y-71401320D01*
X57744365Y-71397036D01*
X57751746Y-71366871D01*
X57761804Y-71325768D01*
X57762500Y-71314550D01*
X57762537Y-71314552D01*
X57762773Y-71310653D01*
X57763163Y-71306282D01*
X57764652Y-71299123D01*
X57762546Y-71221303D01*
X57762500Y-71217894D01*
X57762500Y-70230000D01*
X67269604Y-70230000D01*
X67289948Y-70462532D01*
X67291372Y-70467845D01*
X67291372Y-70467847D01*
X67313721Y-70551253D01*
X67350361Y-70687998D01*
X67352683Y-70692978D01*
X67352684Y-70692980D01*
X67446683Y-70894561D01*
X67446686Y-70894566D01*
X67449009Y-70899548D01*
X67452165Y-70904055D01*
X67452166Y-70904057D01*
X67578910Y-71085065D01*
X67582893Y-71090754D01*
X67725883Y-71233744D01*
X67759909Y-71296056D01*
X67754844Y-71366871D01*
X67712297Y-71423707D01*
X67672696Y-71442255D01*
X67672884Y-71442755D01*
X67536495Y-71493885D01*
X67419939Y-71581239D01*
X67332585Y-71697795D01*
X67281455Y-71834184D01*
X67274700Y-71896366D01*
X67274700Y-73643634D01*
X67281455Y-73705816D01*
X67332585Y-73842205D01*
X67419939Y-73958761D01*
X67536495Y-74046115D01*
X67672884Y-74097245D01*
X67735066Y-74104000D01*
X69482334Y-74104000D01*
X69544516Y-74097245D01*
X69680905Y-74046115D01*
X69797461Y-73958761D01*
X69884815Y-73842205D01*
X69935945Y-73705816D01*
X69942700Y-73643634D01*
X69942700Y-71896366D01*
X69935945Y-71834184D01*
X69884815Y-71697795D01*
X69797461Y-71581239D01*
X69680905Y-71493885D01*
X69544516Y-71442755D01*
X69544918Y-71441681D01*
X69489820Y-71410204D01*
X69456999Y-71347249D01*
X69463425Y-71276544D01*
X69491517Y-71233744D01*
X69634507Y-71090754D01*
X69638491Y-71085065D01*
X69765234Y-70904057D01*
X69765235Y-70904055D01*
X69768391Y-70899548D01*
X69770714Y-70894566D01*
X69770717Y-70894561D01*
X69864716Y-70692980D01*
X69864717Y-70692978D01*
X69867039Y-70687998D01*
X69903680Y-70551253D01*
X69926028Y-70467847D01*
X69926028Y-70467845D01*
X69927452Y-70462532D01*
X69947796Y-70230000D01*
X69927452Y-69997468D01*
X69923139Y-69981371D01*
X69868462Y-69777312D01*
X69868461Y-69777310D01*
X69867039Y-69772002D01*
X69835591Y-69704561D01*
X69770717Y-69565439D01*
X69770714Y-69565434D01*
X69768391Y-69560452D01*
X69739376Y-69519014D01*
X69637666Y-69373757D01*
X69637664Y-69373754D01*
X69634507Y-69369246D01*
X69469454Y-69204193D01*
X69464946Y-69201036D01*
X69464943Y-69201034D01*
X69282757Y-69073466D01*
X69282755Y-69073465D01*
X69278248Y-69070309D01*
X69273266Y-69067986D01*
X69273261Y-69067983D01*
X69071680Y-68973984D01*
X69071678Y-68973983D01*
X69066698Y-68971661D01*
X69061390Y-68970239D01*
X69061388Y-68970238D01*
X68846547Y-68912672D01*
X68846545Y-68912672D01*
X68841232Y-68911248D01*
X68608700Y-68890904D01*
X68376168Y-68911248D01*
X68370855Y-68912672D01*
X68370853Y-68912672D01*
X68156012Y-68970238D01*
X68156010Y-68970239D01*
X68150702Y-68971661D01*
X68145722Y-68973983D01*
X68145720Y-68973984D01*
X67944139Y-69067983D01*
X67944134Y-69067986D01*
X67939152Y-69070309D01*
X67934645Y-69073465D01*
X67934643Y-69073466D01*
X67752457Y-69201034D01*
X67752454Y-69201036D01*
X67747946Y-69204193D01*
X67582893Y-69369246D01*
X67579736Y-69373754D01*
X67579734Y-69373757D01*
X67478024Y-69519014D01*
X67449009Y-69560452D01*
X67446686Y-69565434D01*
X67446683Y-69565439D01*
X67381809Y-69704561D01*
X67350361Y-69772002D01*
X67348939Y-69777310D01*
X67348938Y-69777312D01*
X67294261Y-69981371D01*
X67289948Y-69997468D01*
X67269604Y-70230000D01*
X57762500Y-70230000D01*
X57762500Y-66067376D01*
X57763933Y-66048426D01*
X57766124Y-66034027D01*
X57766124Y-66034021D01*
X57767224Y-66026792D01*
X57765531Y-66005972D01*
X57762915Y-65973817D01*
X57762500Y-65963602D01*
X57762500Y-65955475D01*
X57759189Y-65927076D01*
X57758760Y-65922736D01*
X57758263Y-65916616D01*
X57752809Y-65849574D01*
X57750553Y-65842612D01*
X57749357Y-65836624D01*
X57747949Y-65830667D01*
X57747101Y-65823393D01*
X57744603Y-65816511D01*
X57744602Y-65816507D01*
X57722055Y-65754393D01*
X57720645Y-65750289D01*
X57698013Y-65680425D01*
X57694213Y-65674162D01*
X57691675Y-65668620D01*
X57688933Y-65663144D01*
X57686434Y-65656259D01*
X57663682Y-65621556D01*
X57646185Y-65594868D01*
X57643870Y-65591200D01*
X57605773Y-65528419D01*
X57598333Y-65519995D01*
X57598362Y-65519969D01*
X57595762Y-65517038D01*
X57592958Y-65513684D01*
X57588946Y-65507565D01*
X57532413Y-65454011D01*
X57529972Y-65451634D01*
X52118338Y-60040000D01*
X54526693Y-60040000D01*
X54545885Y-60259371D01*
X54602880Y-60472076D01*
X54630706Y-60531749D01*
X54693618Y-60666666D01*
X54693621Y-60666671D01*
X54695944Y-60671653D01*
X54699100Y-60676160D01*
X54699101Y-60676162D01*
X54785814Y-60800000D01*
X54822251Y-60852038D01*
X54977962Y-61007749D01*
X54982471Y-61010906D01*
X54982473Y-61010908D01*
X55000262Y-61023364D01*
X55158346Y-61134056D01*
X55357924Y-61227120D01*
X55570629Y-61284115D01*
X55790000Y-61303307D01*
X56009371Y-61284115D01*
X56222076Y-61227120D01*
X56421654Y-61134056D01*
X56579738Y-61023364D01*
X56597527Y-61010908D01*
X56597529Y-61010906D01*
X56602038Y-61007749D01*
X56757749Y-60852038D01*
X56794187Y-60800000D01*
X56880899Y-60676162D01*
X56880900Y-60676160D01*
X56884056Y-60671653D01*
X56886379Y-60666671D01*
X56886382Y-60666666D01*
X56949294Y-60531749D01*
X56977120Y-60472076D01*
X57034115Y-60259371D01*
X57053307Y-60040000D01*
X57034115Y-59820629D01*
X56977120Y-59607924D01*
X56904187Y-59451518D01*
X56886382Y-59413334D01*
X56886379Y-59413329D01*
X56884056Y-59408347D01*
X56858857Y-59372359D01*
X56760908Y-59232473D01*
X56760906Y-59232470D01*
X56757749Y-59227962D01*
X56602038Y-59072251D01*
X56584884Y-59060239D01*
X56518930Y-59014058D01*
X56421654Y-58945944D01*
X56416672Y-58943621D01*
X56416667Y-58943618D01*
X56289232Y-58884195D01*
X56235947Y-58837278D01*
X56216486Y-58769001D01*
X56237028Y-58701041D01*
X56289232Y-58655805D01*
X56416667Y-58596382D01*
X56416672Y-58596379D01*
X56421654Y-58594056D01*
X56557700Y-58498795D01*
X56597527Y-58470908D01*
X56597529Y-58470906D01*
X56602038Y-58467749D01*
X56757749Y-58312038D01*
X56762511Y-58305238D01*
X56880899Y-58136162D01*
X56880900Y-58136160D01*
X56884056Y-58131653D01*
X56886379Y-58126671D01*
X56886382Y-58126666D01*
X56949294Y-57991749D01*
X56977120Y-57932076D01*
X57034115Y-57719371D01*
X57053307Y-57500000D01*
X57034115Y-57280629D01*
X56977120Y-57067924D01*
X56913597Y-56931697D01*
X56886382Y-56873334D01*
X56886379Y-56873329D01*
X56884056Y-56868347D01*
X56861112Y-56835579D01*
X56760908Y-56692473D01*
X56760906Y-56692470D01*
X56757749Y-56687962D01*
X56602038Y-56532251D01*
X56586796Y-56521578D01*
X56475196Y-56443435D01*
X56421654Y-56405944D01*
X56416672Y-56403621D01*
X56416667Y-56403618D01*
X56289232Y-56344195D01*
X56235947Y-56297278D01*
X56216486Y-56229001D01*
X56237028Y-56161041D01*
X56289232Y-56115805D01*
X56416667Y-56056382D01*
X56416672Y-56056379D01*
X56421654Y-56054056D01*
X56556366Y-55959729D01*
X56597527Y-55930908D01*
X56597529Y-55930906D01*
X56602038Y-55927749D01*
X56757749Y-55772038D01*
X56792123Y-55722948D01*
X56880899Y-55596162D01*
X56880900Y-55596160D01*
X56884056Y-55591653D01*
X56886379Y-55586671D01*
X56886382Y-55586666D01*
X56950204Y-55449797D01*
X56977120Y-55392076D01*
X57034115Y-55179371D01*
X57053307Y-54960000D01*
X57034115Y-54740629D01*
X56977120Y-54527924D01*
X56905796Y-54374968D01*
X56886382Y-54333334D01*
X56886379Y-54333329D01*
X56884056Y-54328347D01*
X56861658Y-54296359D01*
X56760908Y-54152473D01*
X56760906Y-54152470D01*
X56757749Y-54147962D01*
X56602038Y-53992251D01*
X56542698Y-53950700D01*
X56475852Y-53903894D01*
X56421654Y-53865944D01*
X56416672Y-53863621D01*
X56416667Y-53863618D01*
X56288641Y-53803919D01*
X56235356Y-53757002D01*
X56215895Y-53688724D01*
X56236437Y-53620764D01*
X56288641Y-53575529D01*
X56416416Y-53515947D01*
X56425912Y-53510464D01*
X56467148Y-53481590D01*
X56475523Y-53471112D01*
X56468457Y-53457668D01*
X55802811Y-52792021D01*
X55788868Y-52784408D01*
X55787034Y-52784539D01*
X55780420Y-52788790D01*
X55110820Y-53458391D01*
X55104393Y-53470161D01*
X55113687Y-53482175D01*
X55154088Y-53510464D01*
X55163584Y-53515947D01*
X55291359Y-53575529D01*
X55344644Y-53622446D01*
X55364105Y-53690724D01*
X55343563Y-53758684D01*
X55291359Y-53803919D01*
X55163334Y-53863618D01*
X55163329Y-53863621D01*
X55158347Y-53865944D01*
X55153840Y-53869100D01*
X55153838Y-53869101D01*
X54982473Y-53989092D01*
X54982470Y-53989094D01*
X54977962Y-53992251D01*
X54822251Y-54147962D01*
X54819094Y-54152470D01*
X54819092Y-54152473D01*
X54718342Y-54296359D01*
X54695944Y-54328347D01*
X54693621Y-54333329D01*
X54693618Y-54333334D01*
X54674204Y-54374968D01*
X54602880Y-54527924D01*
X54545885Y-54740629D01*
X54526693Y-54960000D01*
X54545885Y-55179371D01*
X54602880Y-55392076D01*
X54629796Y-55449797D01*
X54693618Y-55586666D01*
X54693621Y-55586671D01*
X54695944Y-55591653D01*
X54699100Y-55596160D01*
X54699101Y-55596162D01*
X54787878Y-55722948D01*
X54822251Y-55772038D01*
X54977962Y-55927749D01*
X54982471Y-55930906D01*
X54982473Y-55930908D01*
X55023634Y-55959729D01*
X55158346Y-56054056D01*
X55163328Y-56056379D01*
X55163333Y-56056382D01*
X55290768Y-56115805D01*
X55344053Y-56162722D01*
X55363514Y-56230999D01*
X55342972Y-56298959D01*
X55290768Y-56344195D01*
X55163334Y-56403618D01*
X55163329Y-56403621D01*
X55158347Y-56405944D01*
X55153840Y-56409100D01*
X55153838Y-56409101D01*
X54982473Y-56529092D01*
X54982470Y-56529094D01*
X54977962Y-56532251D01*
X54822251Y-56687962D01*
X54819094Y-56692470D01*
X54819092Y-56692473D01*
X54718888Y-56835579D01*
X54695944Y-56868347D01*
X54693621Y-56873329D01*
X54693618Y-56873334D01*
X54666403Y-56931697D01*
X54602880Y-57067924D01*
X54545885Y-57280629D01*
X54526693Y-57500000D01*
X54545885Y-57719371D01*
X54602880Y-57932076D01*
X54630706Y-57991749D01*
X54693618Y-58126666D01*
X54693621Y-58126671D01*
X54695944Y-58131653D01*
X54699100Y-58136160D01*
X54699101Y-58136162D01*
X54817490Y-58305238D01*
X54822251Y-58312038D01*
X54977962Y-58467749D01*
X54982471Y-58470906D01*
X54982473Y-58470908D01*
X55022300Y-58498795D01*
X55158346Y-58594056D01*
X55163328Y-58596379D01*
X55163333Y-58596382D01*
X55290768Y-58655805D01*
X55344053Y-58702722D01*
X55363514Y-58770999D01*
X55342972Y-58838959D01*
X55290768Y-58884195D01*
X55163334Y-58943618D01*
X55163329Y-58943621D01*
X55158347Y-58945944D01*
X55153840Y-58949100D01*
X55153838Y-58949101D01*
X54982473Y-59069092D01*
X54982470Y-59069094D01*
X54977962Y-59072251D01*
X54822251Y-59227962D01*
X54819094Y-59232470D01*
X54819092Y-59232473D01*
X54721143Y-59372359D01*
X54695944Y-59408347D01*
X54693621Y-59413329D01*
X54693618Y-59413334D01*
X54675813Y-59451518D01*
X54602880Y-59607924D01*
X54545885Y-59820629D01*
X54526693Y-60040000D01*
X52118338Y-60040000D01*
X52049405Y-59971067D01*
X52015379Y-59908755D01*
X52012500Y-59881972D01*
X52012500Y-59596415D01*
X52032502Y-59528294D01*
X52086158Y-59481801D01*
X52156432Y-59471697D01*
X52221012Y-59501191D01*
X52241713Y-59524144D01*
X52268364Y-59562205D01*
X52282251Y-59582038D01*
X52437962Y-59737749D01*
X52442471Y-59740906D01*
X52442473Y-59740908D01*
X52482974Y-59769267D01*
X52618346Y-59864056D01*
X52817924Y-59957120D01*
X53030629Y-60014115D01*
X53250000Y-60033307D01*
X53469371Y-60014115D01*
X53682076Y-59957120D01*
X53881654Y-59864056D01*
X54017026Y-59769267D01*
X54057527Y-59740908D01*
X54057529Y-59740906D01*
X54062038Y-59737749D01*
X54217749Y-59582038D01*
X54231637Y-59562205D01*
X54340899Y-59406162D01*
X54340900Y-59406160D01*
X54344056Y-59401653D01*
X54346379Y-59396671D01*
X54346382Y-59396666D01*
X54400054Y-59281565D01*
X54437120Y-59202076D01*
X54494115Y-58989371D01*
X54513307Y-58770000D01*
X54494115Y-58550629D01*
X54437120Y-58337924D01*
X54363153Y-58179300D01*
X54346382Y-58143334D01*
X54346379Y-58143329D01*
X54344056Y-58138347D01*
X54335877Y-58126666D01*
X54220908Y-57962473D01*
X54220906Y-57962470D01*
X54217749Y-57957962D01*
X54062038Y-57802251D01*
X54035067Y-57783365D01*
X53935852Y-57713894D01*
X53881654Y-57675944D01*
X53876672Y-57673621D01*
X53876667Y-57673618D01*
X53749232Y-57614195D01*
X53695947Y-57567278D01*
X53676486Y-57499001D01*
X53697028Y-57431041D01*
X53749232Y-57385805D01*
X53876667Y-57326382D01*
X53876672Y-57326379D01*
X53881654Y-57324056D01*
X53982759Y-57253261D01*
X54057527Y-57200908D01*
X54057529Y-57200906D01*
X54062038Y-57197749D01*
X54217749Y-57042038D01*
X54241759Y-57007749D01*
X54340899Y-56866162D01*
X54340900Y-56866160D01*
X54344056Y-56861653D01*
X54346379Y-56856671D01*
X54346382Y-56856666D01*
X54402920Y-56735419D01*
X54437120Y-56662076D01*
X54494115Y-56449371D01*
X54513307Y-56230000D01*
X54494115Y-56010629D01*
X54437120Y-55797924D01*
X54346644Y-55603896D01*
X54346382Y-55603334D01*
X54346379Y-55603329D01*
X54344056Y-55598347D01*
X54335877Y-55586666D01*
X54220908Y-55422473D01*
X54220906Y-55422470D01*
X54217749Y-55417962D01*
X54062038Y-55262251D01*
X54054614Y-55257052D01*
X53935852Y-55173894D01*
X53881654Y-55135944D01*
X53876672Y-55133621D01*
X53876667Y-55133618D01*
X53749232Y-55074195D01*
X53695947Y-55027278D01*
X53676486Y-54959001D01*
X53697028Y-54891041D01*
X53749232Y-54845805D01*
X53876667Y-54786382D01*
X53876672Y-54786379D01*
X53881654Y-54784056D01*
X53996279Y-54703794D01*
X54057527Y-54660908D01*
X54057529Y-54660906D01*
X54062038Y-54657749D01*
X54217749Y-54502038D01*
X54264125Y-54435807D01*
X54340899Y-54326162D01*
X54340900Y-54326160D01*
X54344056Y-54321653D01*
X54346379Y-54316671D01*
X54346382Y-54316666D01*
X54415124Y-54169246D01*
X54437120Y-54122076D01*
X54494115Y-53909371D01*
X54513307Y-53690000D01*
X54494115Y-53470629D01*
X54437120Y-53257924D01*
X54366094Y-53105607D01*
X54346382Y-53063334D01*
X54346379Y-53063329D01*
X54344056Y-53058347D01*
X54330560Y-53039073D01*
X54220908Y-52882473D01*
X54220906Y-52882470D01*
X54217749Y-52877962D01*
X54062038Y-52722251D01*
X54043190Y-52709053D01*
X53941306Y-52637713D01*
X53896978Y-52582256D01*
X53889669Y-52511636D01*
X53921700Y-52448276D01*
X53982901Y-52412291D01*
X54013577Y-52408500D01*
X54048134Y-52408500D01*
X54110316Y-52401745D01*
X54246705Y-52350615D01*
X54257411Y-52342592D01*
X54327709Y-52289906D01*
X54394216Y-52265058D01*
X54463598Y-52280111D01*
X54513828Y-52330285D01*
X54528794Y-52401715D01*
X54527674Y-52414515D01*
X54527674Y-52425475D01*
X54545901Y-52633804D01*
X54547804Y-52644599D01*
X54601928Y-52846595D01*
X54605674Y-52856887D01*
X54694054Y-53046417D01*
X54699534Y-53055907D01*
X54728411Y-53097149D01*
X54738887Y-53105523D01*
X54752334Y-53098455D01*
X55417979Y-52432811D01*
X55424356Y-52421132D01*
X56154408Y-52421132D01*
X56154539Y-52422966D01*
X56158790Y-52429580D01*
X56828391Y-53099180D01*
X56840161Y-53105607D01*
X56852176Y-53096311D01*
X56880466Y-53055907D01*
X56885946Y-53046417D01*
X56974326Y-52856887D01*
X56978072Y-52846595D01*
X57032196Y-52644599D01*
X57034099Y-52633804D01*
X57052326Y-52425475D01*
X57052326Y-52414525D01*
X57034099Y-52206196D01*
X57032196Y-52195401D01*
X56978072Y-51993405D01*
X56974326Y-51983113D01*
X56885946Y-51793583D01*
X56880466Y-51784093D01*
X56851589Y-51742851D01*
X56841113Y-51734477D01*
X56827666Y-51741545D01*
X56162021Y-52407189D01*
X56154408Y-52421132D01*
X55424356Y-52421132D01*
X55425592Y-52418868D01*
X55425461Y-52417034D01*
X55421210Y-52410420D01*
X54751609Y-51740820D01*
X54739839Y-51734393D01*
X54712688Y-51755399D01*
X54709900Y-51751796D01*
X54682242Y-51773899D01*
X54611622Y-51781200D01*
X54548265Y-51749161D01*
X54512288Y-51687955D01*
X54508500Y-51657294D01*
X54508500Y-51368887D01*
X55104477Y-51368887D01*
X55111545Y-51382334D01*
X55777189Y-52047979D01*
X55791132Y-52055592D01*
X55792966Y-52055461D01*
X55799580Y-52051210D01*
X56469180Y-51381609D01*
X56475607Y-51369839D01*
X56466313Y-51357825D01*
X56425912Y-51329536D01*
X56416416Y-51324053D01*
X56226887Y-51235674D01*
X56216595Y-51231928D01*
X56014599Y-51177804D01*
X56003804Y-51175901D01*
X55795475Y-51157674D01*
X55784525Y-51157674D01*
X55576196Y-51175901D01*
X55565401Y-51177804D01*
X55363405Y-51231928D01*
X55353113Y-51235674D01*
X55163583Y-51324054D01*
X55154093Y-51329534D01*
X55112851Y-51358411D01*
X55104477Y-51368887D01*
X54508500Y-51368887D01*
X54508500Y-50351866D01*
X54501745Y-50289684D01*
X54450615Y-50153295D01*
X54363261Y-50036739D01*
X54246705Y-49949385D01*
X54110316Y-49898255D01*
X54048134Y-49891500D01*
X52451866Y-49891500D01*
X52389684Y-49898255D01*
X52253295Y-49949385D01*
X52136739Y-50036739D01*
X52049385Y-50153295D01*
X51998255Y-50289684D01*
X51991500Y-50351866D01*
X51991500Y-51277972D01*
X51971498Y-51346093D01*
X51954595Y-51367067D01*
X51666763Y-51654899D01*
X51646752Y-51671176D01*
X51590866Y-51707816D01*
X51587199Y-51710131D01*
X51524418Y-51748228D01*
X51520213Y-51751942D01*
X51520210Y-51751944D01*
X51515994Y-51755668D01*
X51515968Y-51755639D01*
X51513037Y-51758239D01*
X51509683Y-51761043D01*
X51503564Y-51765055D01*
X51498532Y-51770367D01*
X51450011Y-51821587D01*
X51447633Y-51824029D01*
X50758472Y-52513190D01*
X50744059Y-52525577D01*
X50726436Y-52538546D01*
X50721692Y-52544129D01*
X50721693Y-52544129D01*
X50692021Y-52579055D01*
X50685091Y-52586571D01*
X50679347Y-52592315D01*
X50677073Y-52595189D01*
X50677067Y-52595196D01*
X50661628Y-52614711D01*
X50658837Y-52618115D01*
X50616055Y-52668472D01*
X50616052Y-52668476D01*
X50611316Y-52674051D01*
X50607988Y-52680568D01*
X50604611Y-52685632D01*
X50601384Y-52690856D01*
X50596840Y-52696600D01*
X50587251Y-52717116D01*
X50565768Y-52763082D01*
X50563837Y-52767033D01*
X50551078Y-52792021D01*
X50530457Y-52832404D01*
X50528716Y-52839519D01*
X50526579Y-52845265D01*
X50524655Y-52851048D01*
X50521556Y-52857679D01*
X50520066Y-52864843D01*
X50506608Y-52929547D01*
X50505639Y-52933829D01*
X50488196Y-53005112D01*
X50487500Y-53016330D01*
X50487461Y-53016328D01*
X50487228Y-53020229D01*
X50486839Y-53024588D01*
X50485348Y-53031756D01*
X50485546Y-53039073D01*
X50487454Y-53109577D01*
X50487500Y-53112986D01*
X50487500Y-60182624D01*
X50486067Y-60201574D01*
X50483876Y-60215973D01*
X50483876Y-60215979D01*
X50482776Y-60223208D01*
X48706880Y-60223208D01*
X48693932Y-60201574D01*
X48637643Y-60107521D01*
X48637640Y-60107517D01*
X48635439Y-60103839D01*
X48455687Y-59879472D01*
X48306342Y-59737749D01*
X48250258Y-59684527D01*
X48250255Y-59684525D01*
X48247149Y-59681577D01*
X48013683Y-59513814D01*
X47991843Y-59502250D01*
X47953221Y-59481801D01*
X47759608Y-59379288D01*
X47552745Y-59303587D01*
X47493658Y-59281964D01*
X47493656Y-59281963D01*
X47489627Y-59280489D01*
X47208736Y-59219245D01*
X47177685Y-59216801D01*
X46985718Y-59201693D01*
X46985709Y-59201693D01*
X46983261Y-59201500D01*
X46827729Y-59201500D01*
X46825593Y-59201646D01*
X46825582Y-59201646D01*
X46617452Y-59215835D01*
X46617446Y-59215836D01*
X46613175Y-59216127D01*
X46608980Y-59216996D01*
X46608978Y-59216996D01*
X46472417Y-59245276D01*
X46331658Y-59274426D01*
X46060657Y-59370393D01*
X46056848Y-59372359D01*
X45864384Y-59471697D01*
X45805188Y-59502250D01*
X45801687Y-59504711D01*
X45801683Y-59504713D01*
X45709656Y-59569391D01*
X45569977Y-59667559D01*
X45554892Y-59681577D01*
X45362821Y-59860061D01*
X45359378Y-59863260D01*
X45177287Y-60085732D01*
X45027073Y-60330858D01*
X45025347Y-60334791D01*
X45025346Y-60334792D01*
X44952926Y-60499770D01*
X44911517Y-60594102D01*
X44910342Y-60598229D01*
X44910341Y-60598230D01*
X44877138Y-60714789D01*
X44832756Y-60870594D01*
X44819571Y-60963239D01*
X44794930Y-61136381D01*
X44792249Y-61155216D01*
X44792227Y-61159505D01*
X44792226Y-61159512D01*
X44791327Y-61331226D01*
X44790743Y-61442703D01*
X43608500Y-61442703D01*
X43608500Y-50012703D01*
X44790743Y-50012703D01*
X44791302Y-50016947D01*
X44791302Y-50016951D01*
X44800115Y-50083891D01*
X44828268Y-50297734D01*
X44829401Y-50301874D01*
X44829401Y-50301876D01*
X44833035Y-50315159D01*
X44904129Y-50575036D01*
X44905813Y-50578984D01*
X44994460Y-50786812D01*
X45016923Y-50839476D01*
X45077984Y-50941502D01*
X45145408Y-51054158D01*
X45164561Y-51086161D01*
X45344313Y-51310528D01*
X45437474Y-51398934D01*
X45535384Y-51491847D01*
X45552851Y-51508423D01*
X45786317Y-51676186D01*
X45790112Y-51678195D01*
X45790113Y-51678196D01*
X45808545Y-51687955D01*
X46040392Y-51810712D01*
X46140551Y-51847365D01*
X46295210Y-51903962D01*
X46310373Y-51909511D01*
X46591264Y-51970755D01*
X46608138Y-51972083D01*
X46814282Y-51988307D01*
X46814291Y-51988307D01*
X46816739Y-51988500D01*
X46972271Y-51988500D01*
X46974407Y-51988354D01*
X46974418Y-51988354D01*
X47182548Y-51974165D01*
X47182554Y-51974164D01*
X47186825Y-51973873D01*
X47191020Y-51973004D01*
X47191022Y-51973004D01*
X47327583Y-51944724D01*
X47468342Y-51915574D01*
X47739343Y-51819607D01*
X47883272Y-51745320D01*
X47991005Y-51689715D01*
X47991006Y-51689715D01*
X47994812Y-51687750D01*
X47998313Y-51685289D01*
X47998317Y-51685287D01*
X48164896Y-51568213D01*
X48230023Y-51522441D01*
X48345416Y-51415211D01*
X48437479Y-51329661D01*
X48437481Y-51329658D01*
X48440622Y-51326740D01*
X48622713Y-51104268D01*
X48772927Y-50859142D01*
X48814134Y-50765271D01*
X48886757Y-50599830D01*
X48888483Y-50595898D01*
X48901201Y-50551253D01*
X48957024Y-50355283D01*
X48967244Y-50319406D01*
X49007751Y-50034784D01*
X49007785Y-50028444D01*
X49009235Y-49751583D01*
X49009235Y-49751576D01*
X49009257Y-49747297D01*
X49005302Y-49717251D01*
X48983923Y-49554868D01*
X48971732Y-49462266D01*
X48966398Y-49442766D01*
X48934309Y-49325469D01*
X48895871Y-49184964D01*
X48871747Y-49128406D01*
X48784763Y-48924476D01*
X48784761Y-48924472D01*
X48783077Y-48920524D01*
X48668893Y-48729736D01*
X48637643Y-48677521D01*
X48637640Y-48677517D01*
X48635439Y-48673839D01*
X48455687Y-48449472D01*
X48332289Y-48332372D01*
X48250258Y-48254527D01*
X48250255Y-48254525D01*
X48247149Y-48251577D01*
X48013683Y-48083814D01*
X47991843Y-48072250D01*
X47924834Y-48036771D01*
X47759608Y-47949288D01*
X47529709Y-47865157D01*
X47493658Y-47851964D01*
X47493656Y-47851963D01*
X47489627Y-47850489D01*
X47208736Y-47789245D01*
X47174835Y-47786577D01*
X46985718Y-47771693D01*
X46985709Y-47771693D01*
X46983261Y-47771500D01*
X46827729Y-47771500D01*
X46825593Y-47771646D01*
X46825582Y-47771646D01*
X46617452Y-47785835D01*
X46617446Y-47785836D01*
X46613175Y-47786127D01*
X46608980Y-47786996D01*
X46608978Y-47786996D01*
X46522378Y-47804930D01*
X46331658Y-47844426D01*
X46060657Y-47940393D01*
X46056848Y-47942359D01*
X45852918Y-48047615D01*
X45805188Y-48072250D01*
X45801687Y-48074711D01*
X45801683Y-48074713D01*
X45728567Y-48126100D01*
X45569977Y-48237559D01*
X45554892Y-48251577D01*
X45366642Y-48426510D01*
X45359378Y-48433260D01*
X45177287Y-48655732D01*
X45027073Y-48900858D01*
X45025347Y-48904791D01*
X45025346Y-48904792D01*
X44919546Y-49145811D01*
X44911517Y-49164102D01*
X44910342Y-49168229D01*
X44910341Y-49168230D01*
X44904395Y-49189103D01*
X44832756Y-49440594D01*
X44808627Y-49610135D01*
X44793383Y-49717251D01*
X44792249Y-49725216D01*
X44792227Y-49729505D01*
X44792226Y-49729512D01*
X44790765Y-50008417D01*
X44790743Y-50012703D01*
X43608500Y-50012703D01*
X43608500Y-40750000D01*
X48536761Y-40750000D01*
X48537031Y-40754119D01*
X48551324Y-40972176D01*
X48555696Y-41038886D01*
X48556500Y-41042926D01*
X48556500Y-41042929D01*
X48606744Y-41295522D01*
X48612175Y-41322828D01*
X48613501Y-41326734D01*
X48613502Y-41326738D01*
X48667425Y-41485590D01*
X48705234Y-41596970D01*
X48833279Y-41856619D01*
X48994119Y-42097335D01*
X48996831Y-42100427D01*
X48996836Y-42100434D01*
X49099923Y-42217981D01*
X49185004Y-42314996D01*
X49188093Y-42317705D01*
X49399565Y-42503163D01*
X49399571Y-42503168D01*
X49402665Y-42505881D01*
X49643380Y-42666721D01*
X49647079Y-42668545D01*
X49647084Y-42668548D01*
X49890121Y-42788400D01*
X49903030Y-42794766D01*
X49906928Y-42796089D01*
X49906930Y-42796090D01*
X50173262Y-42886498D01*
X50173266Y-42886499D01*
X50177172Y-42887825D01*
X50181216Y-42888629D01*
X50181222Y-42888631D01*
X50457071Y-42943500D01*
X50457074Y-42943500D01*
X50461114Y-42944304D01*
X50465225Y-42944573D01*
X50465229Y-42944574D01*
X50745881Y-42962969D01*
X50750000Y-42963239D01*
X50754119Y-42962969D01*
X51034771Y-42944574D01*
X51034775Y-42944573D01*
X51038886Y-42944304D01*
X51042926Y-42943500D01*
X51042929Y-42943500D01*
X51318778Y-42888631D01*
X51318784Y-42888629D01*
X51322828Y-42887825D01*
X51326734Y-42886499D01*
X51326738Y-42886498D01*
X51462408Y-42840444D01*
X61891279Y-42840444D01*
X61892025Y-42848336D01*
X61895440Y-42884462D01*
X61895999Y-42896320D01*
X61895999Y-52330732D01*
X61895472Y-52341915D01*
X61893797Y-52349408D01*
X61894046Y-52357334D01*
X61894046Y-52357335D01*
X61895937Y-52417485D01*
X61895999Y-52421444D01*
X61895999Y-52449355D01*
X61896496Y-52453289D01*
X61896496Y-52453290D01*
X61896504Y-52453355D01*
X61897437Y-52465192D01*
X61898826Y-52509388D01*
X61904116Y-52527595D01*
X61904477Y-52528838D01*
X61908486Y-52548199D01*
X61911025Y-52568296D01*
X61913944Y-52575667D01*
X61913944Y-52575669D01*
X61927303Y-52609411D01*
X61931148Y-52620641D01*
X61943481Y-52663092D01*
X61947514Y-52669911D01*
X61947516Y-52669916D01*
X61953792Y-52680527D01*
X61962487Y-52698275D01*
X61969947Y-52717116D01*
X61974609Y-52723532D01*
X61974609Y-52723533D01*
X61995935Y-52752886D01*
X62002451Y-52762806D01*
X62015227Y-52784408D01*
X62024957Y-52800861D01*
X62039278Y-52815182D01*
X62052118Y-52830215D01*
X62064027Y-52846606D01*
X62070133Y-52851657D01*
X62098104Y-52874797D01*
X62106883Y-52882787D01*
X62200026Y-52975930D01*
X62234052Y-53038242D01*
X62232638Y-53097635D01*
X62214170Y-53166562D01*
X62211248Y-53177468D01*
X62190904Y-53410000D01*
X62211248Y-53642532D01*
X62212672Y-53647845D01*
X62212672Y-53647847D01*
X62266195Y-53847597D01*
X62271661Y-53867998D01*
X62273983Y-53872978D01*
X62273984Y-53872980D01*
X62367983Y-54074561D01*
X62367986Y-54074566D01*
X62370309Y-54079548D01*
X62373465Y-54084055D01*
X62373466Y-54084057D01*
X62469449Y-54221134D01*
X62504193Y-54270754D01*
X62669246Y-54435807D01*
X62673754Y-54438964D01*
X62673757Y-54438966D01*
X62681152Y-54444144D01*
X62860452Y-54569691D01*
X62863847Y-54571274D01*
X62912466Y-54622266D01*
X62925900Y-54691980D01*
X62899512Y-54757890D01*
X62864017Y-54788647D01*
X62860452Y-54790309D01*
X62842402Y-54802948D01*
X62673757Y-54921034D01*
X62673754Y-54921036D01*
X62669246Y-54924193D01*
X62504193Y-55089246D01*
X62501036Y-55093754D01*
X62501034Y-55093757D01*
X62380939Y-55265271D01*
X62370309Y-55280452D01*
X62367986Y-55285434D01*
X62367983Y-55285439D01*
X62290431Y-55451749D01*
X62271661Y-55492002D01*
X62270239Y-55497310D01*
X62270238Y-55497312D01*
X62214841Y-55704057D01*
X62211248Y-55717468D01*
X62190904Y-55950000D01*
X62211248Y-56182532D01*
X62212672Y-56187845D01*
X62212672Y-56187847D01*
X62250441Y-56328802D01*
X62271661Y-56407998D01*
X62273983Y-56412978D01*
X62273984Y-56412980D01*
X62367983Y-56614561D01*
X62367986Y-56614566D01*
X62370309Y-56619548D01*
X62373465Y-56624055D01*
X62373466Y-56624057D01*
X62424231Y-56696556D01*
X62504193Y-56810754D01*
X62669246Y-56975807D01*
X62673754Y-56978964D01*
X62673757Y-56978966D01*
X62709318Y-57003866D01*
X62860452Y-57109691D01*
X62863847Y-57111274D01*
X62912466Y-57162266D01*
X62925900Y-57231980D01*
X62899512Y-57297890D01*
X62864017Y-57328647D01*
X62860452Y-57330309D01*
X62822151Y-57357128D01*
X62673757Y-57461034D01*
X62673754Y-57461036D01*
X62669246Y-57464193D01*
X62504193Y-57629246D01*
X62501036Y-57633754D01*
X62501034Y-57633757D01*
X62395663Y-57784243D01*
X62370309Y-57820452D01*
X62367986Y-57825434D01*
X62367983Y-57825439D01*
X62279190Y-58015856D01*
X62271661Y-58032002D01*
X62270239Y-58037310D01*
X62270238Y-58037312D01*
X62232763Y-58177172D01*
X62211248Y-58257468D01*
X62190904Y-58490000D01*
X62211248Y-58722532D01*
X62212672Y-58727845D01*
X62212672Y-58727847D01*
X62257319Y-58894471D01*
X62271661Y-58947998D01*
X62273983Y-58952978D01*
X62273984Y-58952980D01*
X62367983Y-59154561D01*
X62367986Y-59154566D01*
X62370309Y-59159548D01*
X62373465Y-59164055D01*
X62373466Y-59164057D01*
X62487377Y-59326738D01*
X62504193Y-59350754D01*
X62669246Y-59515807D01*
X62673754Y-59518964D01*
X62673757Y-59518966D01*
X62846999Y-59640271D01*
X62860452Y-59649691D01*
X62865434Y-59652014D01*
X62865439Y-59652017D01*
X63056066Y-59740908D01*
X63072002Y-59748339D01*
X63077310Y-59749761D01*
X63077312Y-59749762D01*
X63292153Y-59807328D01*
X63292155Y-59807328D01*
X63297468Y-59808752D01*
X63530000Y-59829096D01*
X63762532Y-59808752D01*
X63767845Y-59807328D01*
X63767847Y-59807328D01*
X63982688Y-59749762D01*
X63982690Y-59749761D01*
X63987998Y-59748339D01*
X64003934Y-59740908D01*
X64194561Y-59652017D01*
X64194566Y-59652014D01*
X64199548Y-59649691D01*
X64213001Y-59640271D01*
X64386243Y-59518966D01*
X64386246Y-59518964D01*
X64390754Y-59515807D01*
X64533744Y-59372817D01*
X64596056Y-59338791D01*
X64666871Y-59343856D01*
X64723707Y-59386403D01*
X64742255Y-59426004D01*
X64742755Y-59425816D01*
X64793885Y-59562205D01*
X64881239Y-59678761D01*
X64997795Y-59766115D01*
X65134184Y-59817245D01*
X65196366Y-59824000D01*
X66943634Y-59824000D01*
X67005816Y-59817245D01*
X67142205Y-59766115D01*
X67258761Y-59678761D01*
X67346115Y-59562205D01*
X67397245Y-59425816D01*
X67404000Y-59363634D01*
X67404000Y-59149438D01*
X67424002Y-59081317D01*
X67455940Y-59047501D01*
X67488887Y-59023564D01*
X67498807Y-59017048D01*
X67530035Y-58998580D01*
X67530038Y-58998578D01*
X67536862Y-58994542D01*
X67551183Y-58980221D01*
X67566217Y-58967380D01*
X67576194Y-58960131D01*
X67582607Y-58955472D01*
X67587657Y-58949368D01*
X67587663Y-58949362D01*
X67608065Y-58924700D01*
X67622721Y-58910044D01*
X67627519Y-58906999D01*
X67639284Y-58894471D01*
X67674159Y-58857332D01*
X67676914Y-58854490D01*
X67696635Y-58834769D01*
X67699113Y-58831574D01*
X67706819Y-58822552D01*
X67731659Y-58796100D01*
X67737087Y-58790320D01*
X67743233Y-58779141D01*
X67746847Y-58772567D01*
X67757700Y-58756044D01*
X67761162Y-58751581D01*
X67770114Y-58740040D01*
X67787677Y-58699456D01*
X67792884Y-58688826D01*
X67814196Y-58650059D01*
X67816167Y-58642382D01*
X67816169Y-58642377D01*
X67819233Y-58630441D01*
X67825639Y-58611729D01*
X67828984Y-58604001D01*
X67833682Y-58593144D01*
X67834962Y-58585066D01*
X67840598Y-58549480D01*
X67843005Y-58537859D01*
X67852029Y-58502710D01*
X67852029Y-58502709D01*
X67854001Y-58495029D01*
X67854001Y-58474768D01*
X67855552Y-58455057D01*
X67857480Y-58442884D01*
X67858720Y-58435056D01*
X67854560Y-58391045D01*
X67854001Y-58379188D01*
X67854001Y-56735419D01*
X67874003Y-56667298D01*
X67927659Y-56620805D01*
X67997933Y-56610701D01*
X68062513Y-56640195D01*
X68099834Y-56696483D01*
X68140473Y-56821556D01*
X68235960Y-56986944D01*
X68240378Y-56991851D01*
X68240379Y-56991852D01*
X68309640Y-57068774D01*
X68363747Y-57128866D01*
X68441014Y-57185004D01*
X68505671Y-57231980D01*
X68518248Y-57241118D01*
X68524276Y-57243802D01*
X68524278Y-57243803D01*
X68686681Y-57316109D01*
X68692712Y-57318794D01*
X68761724Y-57333463D01*
X68873056Y-57357128D01*
X68873061Y-57357128D01*
X68879513Y-57358500D01*
X69070487Y-57358500D01*
X69076939Y-57357128D01*
X69076944Y-57357128D01*
X69188276Y-57333463D01*
X69257288Y-57318794D01*
X69263319Y-57316109D01*
X69425722Y-57243803D01*
X69425724Y-57243802D01*
X69431752Y-57241118D01*
X69444330Y-57231980D01*
X69508986Y-57185004D01*
X69586253Y-57128866D01*
X69640360Y-57068774D01*
X69709621Y-56991852D01*
X69709622Y-56991851D01*
X69714040Y-56986944D01*
X69809527Y-56821556D01*
X69868542Y-56639928D01*
X69869924Y-56626785D01*
X69887814Y-56456565D01*
X69888504Y-56450000D01*
X69884205Y-56409101D01*
X69869232Y-56266635D01*
X69869232Y-56266633D01*
X69868542Y-56260072D01*
X69809527Y-56078444D01*
X69796790Y-56056382D01*
X69762922Y-55997722D01*
X69714040Y-55913056D01*
X69689898Y-55886243D01*
X69590675Y-55776045D01*
X69590674Y-55776044D01*
X69586253Y-55771134D01*
X69475404Y-55690597D01*
X69437094Y-55662763D01*
X69437093Y-55662762D01*
X69431752Y-55658882D01*
X69425724Y-55656198D01*
X69425722Y-55656197D01*
X69308251Y-55603896D01*
X69254155Y-55557916D01*
X69233500Y-55488789D01*
X69233500Y-55002524D01*
X69253502Y-54934403D01*
X69265858Y-54918221D01*
X69339040Y-54836944D01*
X69434527Y-54671556D01*
X69493542Y-54489928D01*
X69500767Y-54421191D01*
X69512814Y-54306565D01*
X69513504Y-54300000D01*
X69503106Y-54201066D01*
X69494232Y-54116635D01*
X69494232Y-54116633D01*
X69493542Y-54110072D01*
X69434527Y-53928444D01*
X69339040Y-53763056D01*
X69268331Y-53684525D01*
X69215675Y-53626045D01*
X69215674Y-53626044D01*
X69211253Y-53621134D01*
X69095849Y-53537288D01*
X69062094Y-53512763D01*
X69062093Y-53512762D01*
X69056752Y-53508882D01*
X69050724Y-53506198D01*
X69050722Y-53506197D01*
X68888319Y-53433891D01*
X68888318Y-53433891D01*
X68882288Y-53431206D01*
X68758148Y-53404819D01*
X68701944Y-53392872D01*
X68701939Y-53392872D01*
X68695487Y-53391500D01*
X68504513Y-53391500D01*
X68498061Y-53392872D01*
X68498056Y-53392872D01*
X68441852Y-53404819D01*
X68317712Y-53431206D01*
X68311682Y-53433891D01*
X68311681Y-53433891D01*
X68149278Y-53506197D01*
X68149276Y-53506198D01*
X68143248Y-53508882D01*
X68137907Y-53512762D01*
X68137906Y-53512763D01*
X68054062Y-53573680D01*
X67987195Y-53597538D01*
X67918043Y-53581458D01*
X67868563Y-53530545D01*
X67854001Y-53471744D01*
X67854001Y-48944768D01*
X67854528Y-48933585D01*
X67856203Y-48926092D01*
X67855350Y-48898934D01*
X67854063Y-48858004D01*
X67854001Y-48854046D01*
X67854001Y-48826145D01*
X67853496Y-48822145D01*
X67852563Y-48810302D01*
X67852505Y-48808433D01*
X67851174Y-48766112D01*
X67845522Y-48746658D01*
X67841514Y-48727301D01*
X67839969Y-48715071D01*
X67839969Y-48715070D01*
X67838975Y-48707204D01*
X67836056Y-48699831D01*
X67822697Y-48666089D01*
X67818852Y-48654859D01*
X67808730Y-48620018D01*
X67808730Y-48620017D01*
X67806519Y-48612408D01*
X67802486Y-48605589D01*
X67802484Y-48605584D01*
X67796208Y-48594973D01*
X67787513Y-48577225D01*
X67780053Y-48558384D01*
X67754065Y-48522614D01*
X67747549Y-48512694D01*
X67729081Y-48481466D01*
X67729079Y-48481463D01*
X67725043Y-48474639D01*
X67710722Y-48460318D01*
X67697881Y-48445284D01*
X67694198Y-48440215D01*
X67685973Y-48428894D01*
X67651896Y-48400703D01*
X67643117Y-48392713D01*
X67407159Y-48156755D01*
X67373133Y-48094443D01*
X67378198Y-48023628D01*
X67405424Y-47981262D01*
X67408761Y-47978761D01*
X67496115Y-47862205D01*
X67547245Y-47725816D01*
X67554000Y-47663634D01*
X67554000Y-46970859D01*
X70687132Y-46970859D01*
X70700457Y-47174151D01*
X70750605Y-47371610D01*
X70835898Y-47556624D01*
X70953479Y-47722997D01*
X70957613Y-47727024D01*
X71049422Y-47816461D01*
X71084259Y-47878323D01*
X71087500Y-47906715D01*
X71087500Y-58237117D01*
X71067498Y-58305238D01*
X71050293Y-58325214D01*
X71050796Y-58325692D01*
X71046815Y-58329886D01*
X71042478Y-58333690D01*
X71038911Y-58338215D01*
X71038906Y-58338220D01*
X70977961Y-58415529D01*
X70916351Y-58493681D01*
X70913662Y-58498792D01*
X70913660Y-58498795D01*
X70868271Y-58585066D01*
X70821492Y-58673978D01*
X70789598Y-58776693D01*
X70765003Y-58855904D01*
X70761078Y-58868543D01*
X70737132Y-59070859D01*
X70750457Y-59274151D01*
X70800605Y-59471610D01*
X70885898Y-59656624D01*
X71003479Y-59822997D01*
X71058427Y-59876525D01*
X71142621Y-59958543D01*
X71149410Y-59965157D01*
X71154206Y-59968362D01*
X71154209Y-59968364D01*
X71251403Y-60033307D01*
X71318803Y-60078342D01*
X71324106Y-60080620D01*
X71324109Y-60080622D01*
X71429834Y-60126045D01*
X71505987Y-60158763D01*
X71524310Y-60162909D01*
X71586336Y-60197454D01*
X71619840Y-60260048D01*
X71622500Y-60285802D01*
X71622500Y-66713724D01*
X71621067Y-66732674D01*
X71618876Y-66747073D01*
X71618876Y-66747079D01*
X71617776Y-66754308D01*
X71618369Y-66761600D01*
X71618369Y-66761603D01*
X71622085Y-66807283D01*
X71622500Y-66817498D01*
X71622500Y-66825625D01*
X71625811Y-66854024D01*
X71626238Y-66858344D01*
X71632191Y-66931526D01*
X71634447Y-66938488D01*
X71635643Y-66944476D01*
X71637051Y-66950433D01*
X71637899Y-66957707D01*
X71640397Y-66964589D01*
X71640398Y-66964593D01*
X71662945Y-67026707D01*
X71664355Y-67030811D01*
X71686987Y-67100675D01*
X71690787Y-67106938D01*
X71693325Y-67112480D01*
X71696067Y-67117956D01*
X71698566Y-67124841D01*
X71702581Y-67130965D01*
X71738815Y-67186232D01*
X71741130Y-67189900D01*
X71779227Y-67252681D01*
X71782941Y-67256886D01*
X71782943Y-67256889D01*
X71786667Y-67261105D01*
X71786638Y-67261131D01*
X71789238Y-67264062D01*
X71792042Y-67267416D01*
X71796054Y-67273535D01*
X71801366Y-67278567D01*
X71852586Y-67327088D01*
X71855028Y-67329466D01*
X72195721Y-67670159D01*
X72229747Y-67732471D01*
X72232355Y-67751009D01*
X72242957Y-67912751D01*
X72293105Y-68110210D01*
X72378398Y-68295224D01*
X72495979Y-68461597D01*
X72641910Y-68603757D01*
X72646706Y-68606962D01*
X72646709Y-68606964D01*
X72784764Y-68699209D01*
X72811303Y-68716942D01*
X72816605Y-68719220D01*
X72816618Y-68719227D01*
X72911238Y-68759879D01*
X72965931Y-68805147D01*
X72987500Y-68875646D01*
X72987500Y-73137117D01*
X72967498Y-73205238D01*
X72950293Y-73225214D01*
X72950796Y-73225692D01*
X72946815Y-73229886D01*
X72942478Y-73233690D01*
X72938911Y-73238215D01*
X72938906Y-73238220D01*
X72871222Y-73324077D01*
X72816351Y-73393681D01*
X72721492Y-73573978D01*
X72679501Y-73709210D01*
X72664912Y-73756197D01*
X72661078Y-73768543D01*
X72637132Y-73970859D01*
X72650457Y-74174151D01*
X72700605Y-74371610D01*
X72785898Y-74556624D01*
X72903479Y-74722997D01*
X73049410Y-74865157D01*
X73054206Y-74868362D01*
X73054209Y-74868364D01*
X73127684Y-74917458D01*
X73218803Y-74978342D01*
X73224106Y-74980620D01*
X73224109Y-74980622D01*
X73313115Y-75018862D01*
X73405987Y-75058763D01*
X73478817Y-75075243D01*
X73599055Y-75102450D01*
X73599060Y-75102451D01*
X73604692Y-75103725D01*
X73610463Y-75103952D01*
X73610465Y-75103952D01*
X73673470Y-75106427D01*
X73808263Y-75111723D01*
X74009883Y-75082490D01*
X74015347Y-75080635D01*
X74015352Y-75080634D01*
X74197327Y-75018862D01*
X74197332Y-75018860D01*
X74202799Y-75017004D01*
X74380551Y-74917458D01*
X74537186Y-74787186D01*
X74667458Y-74630551D01*
X74754468Y-74475184D01*
X74764180Y-74457842D01*
X74764181Y-74457840D01*
X74767004Y-74452799D01*
X74768860Y-74447332D01*
X74768862Y-74447327D01*
X74830634Y-74265352D01*
X74830635Y-74265347D01*
X74832490Y-74259883D01*
X74861723Y-74058263D01*
X74863249Y-74000000D01*
X74847978Y-73833797D01*
X74845137Y-73802880D01*
X74845136Y-73802877D01*
X74844608Y-73797126D01*
X74841877Y-73787442D01*
X74790875Y-73606606D01*
X74790874Y-73606604D01*
X74789307Y-73601047D01*
X74783732Y-73589740D01*
X74701756Y-73423510D01*
X74699201Y-73418329D01*
X74680796Y-73393681D01*
X74580758Y-73259715D01*
X74580758Y-73259714D01*
X74577305Y-73255091D01*
X74552971Y-73232597D01*
X74516526Y-73171669D01*
X74512500Y-73140072D01*
X74512500Y-68213476D01*
X74513933Y-68194526D01*
X74516124Y-68180127D01*
X74516124Y-68180121D01*
X74517224Y-68172892D01*
X74513701Y-68129573D01*
X74512915Y-68119917D01*
X74512500Y-68109702D01*
X74512500Y-68101575D01*
X74509189Y-68073176D01*
X74508760Y-68068836D01*
X74506939Y-68046440D01*
X74502809Y-67995674D01*
X74500553Y-67988712D01*
X74499357Y-67982724D01*
X74497949Y-67976767D01*
X74497101Y-67969493D01*
X74472047Y-67900472D01*
X74470644Y-67896385D01*
X74458367Y-67858485D01*
X74453767Y-67804266D01*
X74453375Y-67804233D01*
X74453570Y-67801945D01*
X74453539Y-67801578D01*
X74453571Y-67801362D01*
X74454223Y-67796863D01*
X74455749Y-67738600D01*
X74455300Y-67733708D01*
X76703276Y-67733708D01*
X76703869Y-67741000D01*
X76703869Y-67741003D01*
X76707585Y-67786683D01*
X76708000Y-67796898D01*
X76708000Y-67805025D01*
X76711311Y-67833424D01*
X76711738Y-67837744D01*
X76717691Y-67910926D01*
X76719947Y-67917888D01*
X76721143Y-67923876D01*
X76722551Y-67929833D01*
X76723399Y-67937107D01*
X76725897Y-67943989D01*
X76725898Y-67943993D01*
X76748445Y-68006107D01*
X76749855Y-68010211D01*
X76772487Y-68080075D01*
X76776287Y-68086338D01*
X76778825Y-68091880D01*
X76781567Y-68097356D01*
X76784066Y-68104241D01*
X76788081Y-68110365D01*
X76824315Y-68165632D01*
X76826630Y-68169300D01*
X76864727Y-68232081D01*
X76868441Y-68236286D01*
X76868443Y-68236289D01*
X76872167Y-68240505D01*
X76872138Y-68240531D01*
X76874738Y-68243462D01*
X76877542Y-68246816D01*
X76881554Y-68252935D01*
X76920659Y-68289979D01*
X76938086Y-68306488D01*
X76940528Y-68308866D01*
X77390335Y-68758673D01*
X77424361Y-68820985D01*
X77426761Y-68858749D01*
X77415429Y-68988277D01*
X77410904Y-69040000D01*
X77431248Y-69272532D01*
X77432672Y-69277845D01*
X77432672Y-69277847D01*
X77488501Y-69486203D01*
X77491661Y-69497998D01*
X77493983Y-69502978D01*
X77493984Y-69502980D01*
X77587983Y-69704561D01*
X77587986Y-69704566D01*
X77590309Y-69709548D01*
X77593465Y-69714055D01*
X77593466Y-69714057D01*
X77712093Y-69883473D01*
X77724193Y-69900754D01*
X77889246Y-70065807D01*
X77893754Y-70068964D01*
X77893757Y-70068966D01*
X78037896Y-70169893D01*
X78080452Y-70199691D01*
X78085434Y-70202014D01*
X78085439Y-70202017D01*
X78287020Y-70296016D01*
X78292002Y-70298339D01*
X78297310Y-70299761D01*
X78297312Y-70299762D01*
X78512153Y-70357328D01*
X78512155Y-70357328D01*
X78517468Y-70358752D01*
X78750000Y-70379096D01*
X78982532Y-70358752D01*
X78987845Y-70357328D01*
X78987847Y-70357328D01*
X79203189Y-70299628D01*
X79274166Y-70301318D01*
X79332961Y-70341112D01*
X79360909Y-70406377D01*
X79361800Y-70421335D01*
X79361800Y-71946217D01*
X79341798Y-72014338D01*
X79324593Y-72034314D01*
X79325096Y-72034792D01*
X79321115Y-72038986D01*
X79316778Y-72042790D01*
X79313211Y-72047315D01*
X79313206Y-72047320D01*
X79271677Y-72100000D01*
X79190651Y-72202781D01*
X79187962Y-72207892D01*
X79187960Y-72207895D01*
X79166881Y-72247960D01*
X79095792Y-72383078D01*
X79035378Y-72577643D01*
X79011432Y-72779959D01*
X79024757Y-72983251D01*
X79074905Y-73180710D01*
X79160198Y-73365724D01*
X79277779Y-73532097D01*
X79423710Y-73674257D01*
X79428506Y-73677462D01*
X79428509Y-73677464D01*
X79546342Y-73756197D01*
X79593103Y-73787442D01*
X79598406Y-73789720D01*
X79598409Y-73789722D01*
X79737292Y-73849391D01*
X79780287Y-73867863D01*
X79816447Y-73876045D01*
X79973355Y-73911550D01*
X79973360Y-73911551D01*
X79978992Y-73912825D01*
X79984763Y-73913052D01*
X79984765Y-73913052D01*
X80047770Y-73915527D01*
X80182563Y-73920823D01*
X80384183Y-73891590D01*
X80389647Y-73889735D01*
X80389652Y-73889734D01*
X80571627Y-73827962D01*
X80571632Y-73827960D01*
X80577099Y-73826104D01*
X80612005Y-73806556D01*
X80679881Y-73768543D01*
X80754851Y-73726558D01*
X80911486Y-73596286D01*
X81041758Y-73439651D01*
X81141304Y-73261899D01*
X81143160Y-73256432D01*
X81143162Y-73256427D01*
X81177508Y-73155246D01*
X81206790Y-73068983D01*
X81207619Y-73063266D01*
X81208414Y-73059955D01*
X81243768Y-72998387D01*
X81306795Y-72965705D01*
X81377486Y-72972288D01*
X81433396Y-73016043D01*
X81448086Y-73042994D01*
X81452806Y-73054917D01*
X81456649Y-73066142D01*
X81459064Y-73074455D01*
X81468982Y-73108593D01*
X81473015Y-73115412D01*
X81473017Y-73115417D01*
X81479293Y-73126028D01*
X81487988Y-73143776D01*
X81495448Y-73162617D01*
X81500110Y-73169033D01*
X81500110Y-73169034D01*
X81521436Y-73198387D01*
X81527952Y-73208307D01*
X81545643Y-73238220D01*
X81550458Y-73246362D01*
X81564779Y-73260683D01*
X81577619Y-73275716D01*
X81589528Y-73292107D01*
X81595634Y-73297158D01*
X81623605Y-73320298D01*
X81632384Y-73328288D01*
X82802878Y-74498783D01*
X82836904Y-74561095D01*
X82839093Y-74574708D01*
X82854679Y-74722997D01*
X82856458Y-74739928D01*
X82915473Y-74921556D01*
X83010960Y-75086944D01*
X83015378Y-75091851D01*
X83015379Y-75091852D01*
X83033067Y-75111496D01*
X83138747Y-75228866D01*
X83293248Y-75341118D01*
X83299276Y-75343802D01*
X83299278Y-75343803D01*
X83461681Y-75416109D01*
X83467712Y-75418794D01*
X83561112Y-75438647D01*
X83648056Y-75457128D01*
X83648061Y-75457128D01*
X83654513Y-75458500D01*
X83845487Y-75458500D01*
X83851939Y-75457128D01*
X83851944Y-75457128D01*
X83938888Y-75438647D01*
X84032288Y-75418794D01*
X84038319Y-75416109D01*
X84200722Y-75343803D01*
X84200724Y-75343802D01*
X84206752Y-75341118D01*
X84361253Y-75228866D01*
X84466933Y-75111496D01*
X84484621Y-75091852D01*
X84484622Y-75091851D01*
X84489040Y-75086944D01*
X84584527Y-74921556D01*
X84643542Y-74739928D01*
X84645322Y-74722997D01*
X84662814Y-74556565D01*
X84663504Y-74550000D01*
X84643542Y-74360072D01*
X84584527Y-74178444D01*
X84489040Y-74013056D01*
X84480620Y-74003704D01*
X84365675Y-73876045D01*
X84365674Y-73876044D01*
X84361253Y-73871134D01*
X84259390Y-73797126D01*
X84212094Y-73762763D01*
X84212093Y-73762762D01*
X84206752Y-73758882D01*
X84200724Y-73756198D01*
X84200722Y-73756197D01*
X84038319Y-73683891D01*
X84038318Y-73683891D01*
X84032288Y-73681206D01*
X83938888Y-73661353D01*
X83851944Y-73642872D01*
X83851939Y-73642872D01*
X83845487Y-73641500D01*
X83789594Y-73641500D01*
X83721473Y-73621498D01*
X83700503Y-73604599D01*
X82725403Y-72629498D01*
X82691379Y-72567188D01*
X82688500Y-72540405D01*
X82688500Y-72010000D01*
X82708502Y-71941879D01*
X82762158Y-71895386D01*
X82814500Y-71884000D01*
X84433634Y-71884000D01*
X84495816Y-71877245D01*
X84632205Y-71826115D01*
X84748761Y-71738761D01*
X84836115Y-71622205D01*
X84887245Y-71485816D01*
X84888319Y-71486218D01*
X84919796Y-71431120D01*
X84982751Y-71398299D01*
X85053456Y-71404725D01*
X85096256Y-71432817D01*
X85239246Y-71575807D01*
X85243754Y-71578964D01*
X85243757Y-71578966D01*
X85425943Y-71706534D01*
X85430452Y-71709691D01*
X85435434Y-71712014D01*
X85435439Y-71712017D01*
X85635491Y-71805303D01*
X85642002Y-71808339D01*
X85647310Y-71809761D01*
X85647312Y-71809762D01*
X85862153Y-71867328D01*
X85862155Y-71867328D01*
X85867468Y-71868752D01*
X86100000Y-71889096D01*
X86332532Y-71868752D01*
X86337845Y-71867328D01*
X86337847Y-71867328D01*
X86552688Y-71809762D01*
X86552690Y-71809761D01*
X86557998Y-71808339D01*
X86564509Y-71805303D01*
X86764561Y-71712017D01*
X86764566Y-71712014D01*
X86769548Y-71709691D01*
X86774057Y-71706534D01*
X86956243Y-71578966D01*
X86956246Y-71578964D01*
X86960754Y-71575807D01*
X87125807Y-71410754D01*
X87132410Y-71401325D01*
X87252557Y-71229736D01*
X87259691Y-71219548D01*
X87261274Y-71216153D01*
X87312266Y-71167534D01*
X87381980Y-71154100D01*
X87447890Y-71180488D01*
X87478647Y-71215983D01*
X87480309Y-71219548D01*
X87487443Y-71229736D01*
X87607591Y-71401325D01*
X87614193Y-71410754D01*
X87779246Y-71575807D01*
X87783754Y-71578964D01*
X87783757Y-71578966D01*
X87965943Y-71706534D01*
X87970452Y-71709691D01*
X87975434Y-71712014D01*
X87975439Y-71712017D01*
X88175491Y-71805303D01*
X88182002Y-71808339D01*
X88187310Y-71809761D01*
X88187312Y-71809762D01*
X88402153Y-71867328D01*
X88402155Y-71867328D01*
X88407468Y-71868752D01*
X88640000Y-71889096D01*
X88872532Y-71868752D01*
X88877845Y-71867328D01*
X88877847Y-71867328D01*
X89092688Y-71809762D01*
X89092690Y-71809761D01*
X89097998Y-71808339D01*
X89104509Y-71805303D01*
X89304561Y-71712017D01*
X89304566Y-71712014D01*
X89309548Y-71709691D01*
X89314057Y-71706534D01*
X89496243Y-71578966D01*
X89496246Y-71578964D01*
X89500754Y-71575807D01*
X89665807Y-71410754D01*
X89672410Y-71401325D01*
X89796534Y-71224057D01*
X89796537Y-71224052D01*
X89799691Y-71219548D01*
X89802014Y-71214566D01*
X89802017Y-71214561D01*
X89896016Y-71012980D01*
X89896017Y-71012978D01*
X89898339Y-71007998D01*
X89939122Y-70855795D01*
X89957328Y-70787847D01*
X89957328Y-70787845D01*
X89958752Y-70782532D01*
X89979096Y-70550000D01*
X89958752Y-70317468D01*
X89957328Y-70312153D01*
X89899762Y-70097312D01*
X89899761Y-70097310D01*
X89898339Y-70092002D01*
X89854257Y-69997468D01*
X89802017Y-69885439D01*
X89802014Y-69885434D01*
X89799691Y-69880452D01*
X89727472Y-69777312D01*
X89668966Y-69693757D01*
X89668964Y-69693754D01*
X89665807Y-69689246D01*
X89500754Y-69524193D01*
X89496246Y-69521036D01*
X89496243Y-69521034D01*
X89314057Y-69393466D01*
X89314055Y-69393465D01*
X89309548Y-69390309D01*
X89304566Y-69387986D01*
X89304561Y-69387983D01*
X89102980Y-69293984D01*
X89102978Y-69293983D01*
X89097998Y-69291661D01*
X89092690Y-69290239D01*
X89092688Y-69290238D01*
X88877847Y-69232672D01*
X88877845Y-69232672D01*
X88872532Y-69231248D01*
X88640000Y-69210904D01*
X88407468Y-69231248D01*
X88402155Y-69232672D01*
X88402153Y-69232672D01*
X88187312Y-69290238D01*
X88187310Y-69290239D01*
X88182002Y-69291661D01*
X88177022Y-69293983D01*
X88177020Y-69293984D01*
X87975439Y-69387983D01*
X87975434Y-69387986D01*
X87970452Y-69390309D01*
X87965945Y-69393465D01*
X87965943Y-69393466D01*
X87783757Y-69521034D01*
X87783754Y-69521036D01*
X87779246Y-69524193D01*
X87614193Y-69689246D01*
X87611036Y-69693754D01*
X87611034Y-69693757D01*
X87552528Y-69777312D01*
X87480309Y-69880452D01*
X87478726Y-69883847D01*
X87427734Y-69932466D01*
X87358020Y-69945900D01*
X87292110Y-69919512D01*
X87261353Y-69884017D01*
X87259691Y-69880452D01*
X87187472Y-69777312D01*
X87128966Y-69693757D01*
X87128964Y-69693754D01*
X87125807Y-69689246D01*
X86960754Y-69524193D01*
X86956246Y-69521036D01*
X86956243Y-69521034D01*
X86774057Y-69393466D01*
X86774055Y-69393465D01*
X86769548Y-69390309D01*
X86764566Y-69387986D01*
X86764561Y-69387983D01*
X86557998Y-69291661D01*
X86558909Y-69289708D01*
X86509242Y-69253148D01*
X86483897Y-69186829D01*
X86483500Y-69176830D01*
X86483500Y-64627524D01*
X86503502Y-64559403D01*
X86515858Y-64543221D01*
X86589040Y-64461944D01*
X86684527Y-64296556D01*
X86743542Y-64114928D01*
X86744764Y-64103307D01*
X86762814Y-63931565D01*
X86763504Y-63925000D01*
X86750341Y-63799760D01*
X86744232Y-63741635D01*
X86744232Y-63741633D01*
X86743542Y-63735072D01*
X86684527Y-63553444D01*
X86668554Y-63525777D01*
X86606617Y-63418500D01*
X86589040Y-63388056D01*
X86461253Y-63246134D01*
X86306752Y-63133882D01*
X86300724Y-63131198D01*
X86300722Y-63131197D01*
X86138319Y-63058891D01*
X86138318Y-63058891D01*
X86132288Y-63056206D01*
X86018597Y-63032040D01*
X85951944Y-63017872D01*
X85951939Y-63017872D01*
X85945487Y-63016500D01*
X85754513Y-63016500D01*
X85748061Y-63017872D01*
X85748056Y-63017872D01*
X85623192Y-63044413D01*
X85570196Y-63055678D01*
X85499406Y-63050276D01*
X85442774Y-63007459D01*
X85418280Y-62940822D01*
X85418000Y-62932431D01*
X85418000Y-49800372D01*
X85438002Y-49732251D01*
X85491658Y-49685758D01*
X85561932Y-49675654D01*
X85597250Y-49686177D01*
X85747020Y-49756016D01*
X85752002Y-49758339D01*
X85757310Y-49759761D01*
X85757312Y-49759762D01*
X85972153Y-49817328D01*
X85972155Y-49817328D01*
X85977468Y-49818752D01*
X86210000Y-49839096D01*
X86442532Y-49818752D01*
X86447845Y-49817328D01*
X86447847Y-49817328D01*
X86662688Y-49759762D01*
X86662690Y-49759761D01*
X86667998Y-49758339D01*
X86672980Y-49756016D01*
X86874561Y-49662017D01*
X86874566Y-49662014D01*
X86879548Y-49659691D01*
X86884057Y-49656534D01*
X87066243Y-49528966D01*
X87066246Y-49528964D01*
X87070754Y-49525807D01*
X87235807Y-49360754D01*
X87264582Y-49319660D01*
X87355998Y-49189103D01*
X87369691Y-49169548D01*
X87371274Y-49166153D01*
X87422266Y-49117534D01*
X87491980Y-49104100D01*
X87557890Y-49130488D01*
X87588647Y-49165983D01*
X87590309Y-49169548D01*
X87604002Y-49189103D01*
X87695419Y-49319660D01*
X87724193Y-49360754D01*
X87889246Y-49525807D01*
X87893754Y-49528964D01*
X87893757Y-49528966D01*
X88075943Y-49656534D01*
X88080452Y-49659691D01*
X88085434Y-49662014D01*
X88085439Y-49662017D01*
X88287020Y-49756016D01*
X88292002Y-49758339D01*
X88297310Y-49759761D01*
X88297312Y-49759762D01*
X88512153Y-49817328D01*
X88512155Y-49817328D01*
X88517468Y-49818752D01*
X88750000Y-49839096D01*
X88982532Y-49818752D01*
X88987845Y-49817328D01*
X88987847Y-49817328D01*
X89202688Y-49759762D01*
X89202690Y-49759761D01*
X89207998Y-49758339D01*
X89212980Y-49756016D01*
X89414561Y-49662017D01*
X89414566Y-49662014D01*
X89419548Y-49659691D01*
X89424057Y-49656534D01*
X89606243Y-49528966D01*
X89606246Y-49528964D01*
X89610754Y-49525807D01*
X89753744Y-49382817D01*
X89816056Y-49348791D01*
X89886871Y-49353856D01*
X89943707Y-49396403D01*
X89962255Y-49436004D01*
X89962755Y-49435816D01*
X90013885Y-49572205D01*
X90101239Y-49688761D01*
X90217795Y-49776115D01*
X90354184Y-49827245D01*
X90416366Y-49834000D01*
X91493472Y-49834000D01*
X91561593Y-49854002D01*
X91582567Y-49870905D01*
X91950595Y-50238933D01*
X91984621Y-50301245D01*
X91987500Y-50328028D01*
X91987500Y-59631972D01*
X91967498Y-59700093D01*
X91950595Y-59721067D01*
X91221067Y-60450595D01*
X91158755Y-60484621D01*
X91131972Y-60487500D01*
X91109500Y-60487500D01*
X91041379Y-60467498D01*
X90994886Y-60413842D01*
X90983500Y-60361500D01*
X90983500Y-59026866D01*
X90976745Y-58964684D01*
X90925615Y-58828295D01*
X90838261Y-58711739D01*
X90721705Y-58624385D01*
X90585316Y-58573255D01*
X90574526Y-58572083D01*
X90572394Y-58571197D01*
X90569778Y-58570575D01*
X90569879Y-58570152D01*
X90508965Y-58544845D01*
X90468537Y-58486483D01*
X90466078Y-58415529D01*
X90502371Y-58354510D01*
X90511031Y-58347511D01*
X90514793Y-58344354D01*
X90519300Y-58341198D01*
X90681198Y-58179300D01*
X90707420Y-58141852D01*
X90780619Y-58037312D01*
X90812523Y-57991749D01*
X90814846Y-57986767D01*
X90814849Y-57986762D01*
X90906961Y-57789225D01*
X90906961Y-57789224D01*
X90909284Y-57784243D01*
X90947951Y-57639939D01*
X90967119Y-57568402D01*
X90967119Y-57568400D01*
X90968543Y-57563087D01*
X90988498Y-57335000D01*
X90968543Y-57106913D01*
X90958096Y-57067924D01*
X90910707Y-56891067D01*
X90910706Y-56891065D01*
X90909284Y-56885757D01*
X90884813Y-56833279D01*
X90814849Y-56683238D01*
X90814846Y-56683233D01*
X90812523Y-56678251D01*
X90726520Y-56555426D01*
X90684357Y-56495211D01*
X90684355Y-56495208D01*
X90681198Y-56490700D01*
X90519300Y-56328802D01*
X90514792Y-56325645D01*
X90514789Y-56325643D01*
X90400221Y-56245422D01*
X90331749Y-56197477D01*
X90326767Y-56195154D01*
X90326762Y-56195151D01*
X90292543Y-56179195D01*
X90239258Y-56132278D01*
X90219797Y-56064001D01*
X90240339Y-55996041D01*
X90292543Y-55950805D01*
X90326762Y-55934849D01*
X90326767Y-55934846D01*
X90331749Y-55932523D01*
X90436611Y-55859098D01*
X90514789Y-55804357D01*
X90514792Y-55804355D01*
X90519300Y-55801198D01*
X90681198Y-55639300D01*
X90692979Y-55622476D01*
X90780619Y-55497312D01*
X90812523Y-55451749D01*
X90814846Y-55446767D01*
X90814849Y-55446762D01*
X90906961Y-55249225D01*
X90906961Y-55249224D01*
X90909284Y-55244243D01*
X90952392Y-55083365D01*
X90967119Y-55028402D01*
X90967119Y-55028400D01*
X90968543Y-55023087D01*
X90988498Y-54795000D01*
X90968543Y-54566913D01*
X90952204Y-54505935D01*
X90910707Y-54351067D01*
X90910706Y-54351065D01*
X90909284Y-54345757D01*
X90891009Y-54306565D01*
X90814849Y-54143238D01*
X90814846Y-54143233D01*
X90812523Y-54138251D01*
X90710727Y-53992872D01*
X90684357Y-53955211D01*
X90684355Y-53955208D01*
X90681198Y-53950700D01*
X90519300Y-53788802D01*
X90514792Y-53785645D01*
X90514789Y-53785643D01*
X90387755Y-53696693D01*
X90331749Y-53657477D01*
X90326767Y-53655154D01*
X90326762Y-53655151D01*
X90292543Y-53639195D01*
X90239258Y-53592278D01*
X90219797Y-53524001D01*
X90240339Y-53456041D01*
X90292543Y-53410805D01*
X90326762Y-53394849D01*
X90326767Y-53394846D01*
X90331749Y-53392523D01*
X90489592Y-53282000D01*
X90514789Y-53264357D01*
X90514792Y-53264355D01*
X90519300Y-53261198D01*
X90681198Y-53099300D01*
X90812523Y-52911749D01*
X90814846Y-52906767D01*
X90814849Y-52906762D01*
X90906961Y-52709225D01*
X90906961Y-52709224D01*
X90909284Y-52704243D01*
X90920311Y-52663092D01*
X90967119Y-52488402D01*
X90967119Y-52488400D01*
X90968543Y-52483087D01*
X90988498Y-52255000D01*
X90968543Y-52026913D01*
X90960028Y-51995135D01*
X90910707Y-51811067D01*
X90910706Y-51811065D01*
X90909284Y-51805757D01*
X90906961Y-51800775D01*
X90814849Y-51603238D01*
X90814846Y-51603233D01*
X90812523Y-51598251D01*
X90681198Y-51410700D01*
X90519300Y-51248802D01*
X90514792Y-51245645D01*
X90514789Y-51245643D01*
X90354439Y-51133365D01*
X90331749Y-51117477D01*
X90326767Y-51115154D01*
X90326762Y-51115151D01*
X90129225Y-51023039D01*
X90129224Y-51023039D01*
X90124243Y-51020716D01*
X90118935Y-51019294D01*
X90118933Y-51019293D01*
X89908402Y-50962881D01*
X89908400Y-50962881D01*
X89903087Y-50961457D01*
X89675000Y-50941502D01*
X89446913Y-50961457D01*
X89441600Y-50962881D01*
X89441598Y-50962881D01*
X89231067Y-51019293D01*
X89231065Y-51019294D01*
X89225757Y-51020716D01*
X89220776Y-51023039D01*
X89220775Y-51023039D01*
X89023238Y-51115151D01*
X89023233Y-51115154D01*
X89018251Y-51117477D01*
X88995561Y-51133365D01*
X88835211Y-51245643D01*
X88835208Y-51245645D01*
X88830700Y-51248802D01*
X88668802Y-51410700D01*
X88537477Y-51598251D01*
X88535154Y-51603233D01*
X88535151Y-51603238D01*
X88443039Y-51800775D01*
X88440716Y-51805757D01*
X88439294Y-51811065D01*
X88439293Y-51811067D01*
X88389972Y-51995135D01*
X88381457Y-52026913D01*
X88361502Y-52255000D01*
X88381457Y-52483087D01*
X88382881Y-52488400D01*
X88382881Y-52488402D01*
X88429690Y-52663092D01*
X88440716Y-52704243D01*
X88443039Y-52709224D01*
X88443039Y-52709225D01*
X88535151Y-52906762D01*
X88535154Y-52906767D01*
X88537477Y-52911749D01*
X88668802Y-53099300D01*
X88830700Y-53261198D01*
X88835208Y-53264355D01*
X88835211Y-53264357D01*
X88860408Y-53282000D01*
X89018251Y-53392523D01*
X89023233Y-53394846D01*
X89023238Y-53394849D01*
X89057457Y-53410805D01*
X89110742Y-53457722D01*
X89130203Y-53525999D01*
X89109661Y-53593959D01*
X89057457Y-53639195D01*
X89023238Y-53655151D01*
X89023233Y-53655154D01*
X89018251Y-53657477D01*
X88962245Y-53696693D01*
X88835211Y-53785643D01*
X88835208Y-53785645D01*
X88830700Y-53788802D01*
X88668802Y-53950700D01*
X88665645Y-53955208D01*
X88665643Y-53955211D01*
X88639273Y-53992872D01*
X88537477Y-54138251D01*
X88535154Y-54143233D01*
X88535151Y-54143238D01*
X88458991Y-54306565D01*
X88440716Y-54345757D01*
X88439294Y-54351065D01*
X88439293Y-54351067D01*
X88397796Y-54505935D01*
X88381457Y-54566913D01*
X88361502Y-54795000D01*
X88381457Y-55023087D01*
X88382881Y-55028400D01*
X88382881Y-55028402D01*
X88397609Y-55083365D01*
X88440716Y-55244243D01*
X88443039Y-55249224D01*
X88443039Y-55249225D01*
X88535151Y-55446762D01*
X88535154Y-55446767D01*
X88537477Y-55451749D01*
X88569381Y-55497312D01*
X88657022Y-55622476D01*
X88668802Y-55639300D01*
X88830700Y-55801198D01*
X88835208Y-55804355D01*
X88835211Y-55804357D01*
X88913389Y-55859098D01*
X89018251Y-55932523D01*
X89023233Y-55934846D01*
X89023238Y-55934849D01*
X89057457Y-55950805D01*
X89110742Y-55997722D01*
X89130203Y-56065999D01*
X89109661Y-56133959D01*
X89057457Y-56179195D01*
X89023238Y-56195151D01*
X89023233Y-56195154D01*
X89018251Y-56197477D01*
X88949779Y-56245422D01*
X88835211Y-56325643D01*
X88835208Y-56325645D01*
X88830700Y-56328802D01*
X88668802Y-56490700D01*
X88665645Y-56495208D01*
X88665643Y-56495211D01*
X88623480Y-56555426D01*
X88537477Y-56678251D01*
X88535154Y-56683233D01*
X88535151Y-56683238D01*
X88465187Y-56833279D01*
X88440716Y-56885757D01*
X88439294Y-56891065D01*
X88439293Y-56891067D01*
X88391904Y-57067924D01*
X88381457Y-57106913D01*
X88361502Y-57335000D01*
X88381457Y-57563087D01*
X88382881Y-57568400D01*
X88382881Y-57568402D01*
X88402050Y-57639939D01*
X88440716Y-57784243D01*
X88443039Y-57789224D01*
X88443039Y-57789225D01*
X88535151Y-57986762D01*
X88535154Y-57986767D01*
X88537477Y-57991749D01*
X88569381Y-58037312D01*
X88642581Y-58141852D01*
X88668802Y-58179300D01*
X88830700Y-58341198D01*
X88835211Y-58344357D01*
X88839424Y-58347892D01*
X88838473Y-58349026D01*
X88878471Y-58399071D01*
X88885776Y-58469690D01*
X88853742Y-58533049D01*
X88792538Y-58569030D01*
X88775483Y-58572082D01*
X88764684Y-58573255D01*
X88628295Y-58624385D01*
X88511739Y-58711739D01*
X88424385Y-58828295D01*
X88373255Y-58964684D01*
X88366500Y-59026866D01*
X88366500Y-60723134D01*
X88373255Y-60785316D01*
X88424385Y-60921705D01*
X88511739Y-61038261D01*
X88628295Y-61125615D01*
X88764684Y-61176745D01*
X88826866Y-61183500D01*
X90109070Y-61183500D01*
X90177191Y-61203502D01*
X90223684Y-61257158D01*
X90232192Y-61291728D01*
X90233432Y-61291515D01*
X90233432Y-61291516D01*
X90233469Y-61291728D01*
X90235680Y-61304597D01*
X90237500Y-61325936D01*
X90237500Y-64719929D01*
X90220619Y-64782928D01*
X90193696Y-64829560D01*
X90171785Y-64867512D01*
X90165473Y-64878444D01*
X90106458Y-65060072D01*
X90105768Y-65066633D01*
X90105768Y-65066635D01*
X90092149Y-65196217D01*
X90086496Y-65250000D01*
X90087186Y-65256565D01*
X90102438Y-65401676D01*
X90106458Y-65439928D01*
X90165473Y-65621556D01*
X90260960Y-65786944D01*
X90265378Y-65791851D01*
X90265379Y-65791852D01*
X90384325Y-65923955D01*
X90388747Y-65928866D01*
X90486042Y-65999555D01*
X90533487Y-66034026D01*
X90543248Y-66041118D01*
X90549276Y-66043802D01*
X90549278Y-66043803D01*
X90706228Y-66113681D01*
X90717712Y-66118794D01*
X90811112Y-66138647D01*
X90898056Y-66157128D01*
X90898061Y-66157128D01*
X90904513Y-66158500D01*
X91095487Y-66158500D01*
X91101939Y-66157128D01*
X91101944Y-66157128D01*
X91188888Y-66138647D01*
X91282288Y-66118794D01*
X91293772Y-66113681D01*
X91450722Y-66043803D01*
X91450724Y-66043802D01*
X91456752Y-66041118D01*
X91466514Y-66034026D01*
X91513958Y-65999555D01*
X91611253Y-65928866D01*
X91615675Y-65923955D01*
X91734621Y-65791852D01*
X91734622Y-65791851D01*
X91739040Y-65786944D01*
X91834527Y-65621556D01*
X91893542Y-65439928D01*
X91897563Y-65401676D01*
X91912814Y-65256565D01*
X91913504Y-65250000D01*
X91907851Y-65196217D01*
X91894232Y-65066635D01*
X91894232Y-65066633D01*
X91893542Y-65060072D01*
X91834527Y-64878444D01*
X91828216Y-64867512D01*
X91806304Y-64829560D01*
X91779381Y-64782928D01*
X91762500Y-64719929D01*
X91762500Y-62053987D01*
X91782502Y-61985866D01*
X91832086Y-61941322D01*
X91836859Y-61938932D01*
X91843741Y-61936434D01*
X91905132Y-61896185D01*
X91908800Y-61893870D01*
X91971581Y-61855773D01*
X91975786Y-61852059D01*
X91975789Y-61852057D01*
X91980005Y-61848333D01*
X91980031Y-61848362D01*
X91982962Y-61845762D01*
X91986316Y-61842958D01*
X91992435Y-61838946D01*
X92045989Y-61782413D01*
X92048366Y-61779972D01*
X93241528Y-60586810D01*
X93255941Y-60574423D01*
X93267665Y-60565795D01*
X93273564Y-60561454D01*
X93307979Y-60520945D01*
X93314909Y-60513429D01*
X93320653Y-60507685D01*
X93322927Y-60504811D01*
X93322933Y-60504804D01*
X93338372Y-60485289D01*
X93341163Y-60481885D01*
X93383945Y-60431528D01*
X93383948Y-60431524D01*
X93388684Y-60425949D01*
X93392012Y-60419432D01*
X93395389Y-60414368D01*
X93398616Y-60409144D01*
X93403160Y-60403400D01*
X93434232Y-60336918D01*
X93436163Y-60332967D01*
X93459942Y-60286398D01*
X93469543Y-60267596D01*
X93471284Y-60260481D01*
X93473421Y-60254735D01*
X93475345Y-60248952D01*
X93478444Y-60242321D01*
X93493394Y-60170443D01*
X93494363Y-60166162D01*
X93496732Y-60156483D01*
X93511804Y-60094888D01*
X93512500Y-60083670D01*
X93512539Y-60083672D01*
X93512772Y-60079771D01*
X93513161Y-60075412D01*
X93514652Y-60068244D01*
X93513740Y-60034525D01*
X93512546Y-59990423D01*
X93512500Y-59987014D01*
X93512500Y-55030000D01*
X97835904Y-55030000D01*
X97856248Y-55262532D01*
X97857672Y-55267845D01*
X97857672Y-55267847D01*
X97913408Y-55475856D01*
X97916661Y-55487998D01*
X97918983Y-55492978D01*
X97918984Y-55492980D01*
X98012983Y-55694561D01*
X98012986Y-55694566D01*
X98015309Y-55699548D01*
X98018465Y-55704055D01*
X98018466Y-55704057D01*
X98084193Y-55797924D01*
X98149193Y-55890754D01*
X98292183Y-56033744D01*
X98326209Y-56096056D01*
X98321144Y-56166871D01*
X98278597Y-56223707D01*
X98238996Y-56242255D01*
X98239184Y-56242755D01*
X98102795Y-56293885D01*
X97986239Y-56381239D01*
X97898885Y-56497795D01*
X97847755Y-56634184D01*
X97841000Y-56696366D01*
X97841000Y-58443634D01*
X97847755Y-58505816D01*
X97898885Y-58642205D01*
X97986239Y-58758761D01*
X98102795Y-58846115D01*
X98239184Y-58897245D01*
X98301366Y-58904000D01*
X100048634Y-58904000D01*
X100110816Y-58897245D01*
X100247205Y-58846115D01*
X100363761Y-58758761D01*
X100374993Y-58743774D01*
X100439674Y-58657471D01*
X100496533Y-58614956D01*
X100567352Y-58609930D01*
X100629645Y-58643990D01*
X100663635Y-58706321D01*
X100666500Y-58733036D01*
X100666500Y-59793508D01*
X100646498Y-59861629D01*
X100592842Y-59908122D01*
X100522568Y-59918226D01*
X100514303Y-59916755D01*
X100401944Y-59892872D01*
X100401939Y-59892872D01*
X100395487Y-59891500D01*
X100204513Y-59891500D01*
X100198061Y-59892872D01*
X100198056Y-59892872D01*
X100126313Y-59908122D01*
X100017712Y-59931206D01*
X100011682Y-59933891D01*
X100011681Y-59933891D01*
X99849278Y-60006197D01*
X99849276Y-60006198D01*
X99843248Y-60008882D01*
X99837907Y-60012762D01*
X99837906Y-60012763D01*
X99800418Y-60040000D01*
X99688747Y-60121134D01*
X99684326Y-60126044D01*
X99684325Y-60126045D01*
X99616319Y-60201574D01*
X99560960Y-60263056D01*
X99520597Y-60332967D01*
X99473837Y-60413958D01*
X99465473Y-60428444D01*
X99406458Y-60610072D01*
X99386496Y-60800000D01*
X99387186Y-60806565D01*
X99403625Y-60962969D01*
X99406458Y-60989928D01*
X99465473Y-61171556D01*
X99468776Y-61177278D01*
X99468777Y-61177279D01*
X99468961Y-61177598D01*
X99560960Y-61336944D01*
X99634137Y-61418215D01*
X99664853Y-61482221D01*
X99666500Y-61502524D01*
X99666500Y-63671233D01*
X99665973Y-63682416D01*
X99664298Y-63689909D01*
X99664547Y-63697835D01*
X99664547Y-63697836D01*
X99666438Y-63757986D01*
X99666500Y-63761945D01*
X99666500Y-63789856D01*
X99666997Y-63793790D01*
X99666997Y-63793791D01*
X99667005Y-63793856D01*
X99667938Y-63805693D01*
X99669327Y-63849889D01*
X99674978Y-63869339D01*
X99678987Y-63888700D01*
X99681526Y-63908797D01*
X99684445Y-63916168D01*
X99684445Y-63916170D01*
X99697804Y-63949912D01*
X99701649Y-63961142D01*
X99713982Y-64003593D01*
X99718015Y-64010412D01*
X99718017Y-64010417D01*
X99724293Y-64021028D01*
X99732988Y-64038776D01*
X99740448Y-64057617D01*
X99745110Y-64064033D01*
X99745110Y-64064034D01*
X99766436Y-64093387D01*
X99772952Y-64103307D01*
X99783538Y-64121206D01*
X99795458Y-64141362D01*
X99809779Y-64155683D01*
X99822619Y-64170716D01*
X99834528Y-64187107D01*
X99840634Y-64192158D01*
X99868605Y-64215298D01*
X99877384Y-64223288D01*
X101742594Y-66088499D01*
X101776620Y-66150811D01*
X101779499Y-66177594D01*
X101779499Y-76334232D01*
X101778972Y-76345415D01*
X101777297Y-76352908D01*
X101777546Y-76360834D01*
X101777546Y-76360835D01*
X101779437Y-76420985D01*
X101779499Y-76424944D01*
X101779499Y-76452855D01*
X101779996Y-76456789D01*
X101779996Y-76456790D01*
X101780004Y-76456855D01*
X101780937Y-76468692D01*
X101782326Y-76512888D01*
X101787977Y-76532338D01*
X101791986Y-76551699D01*
X101794525Y-76571796D01*
X101797444Y-76579167D01*
X101797444Y-76579169D01*
X101810803Y-76612911D01*
X101814648Y-76624141D01*
X101826981Y-76666592D01*
X101831014Y-76673411D01*
X101831016Y-76673416D01*
X101837292Y-76684027D01*
X101845987Y-76701775D01*
X101853447Y-76720616D01*
X101858109Y-76727032D01*
X101858109Y-76727033D01*
X101879435Y-76756386D01*
X101885951Y-76766306D01*
X101904126Y-76797037D01*
X101908457Y-76804361D01*
X101922778Y-76818682D01*
X101935618Y-76833715D01*
X101947527Y-76850106D01*
X101953633Y-76855157D01*
X101981604Y-76878297D01*
X101990383Y-76886287D01*
X102276055Y-77171959D01*
X102310081Y-77234271D01*
X102303886Y-77303490D01*
X102305171Y-77303907D01*
X102303642Y-77308614D01*
X102301747Y-77313188D01*
X102300592Y-77318000D01*
X102252038Y-77520243D01*
X102244039Y-77553560D01*
X102224644Y-77800000D01*
X102244039Y-78046440D01*
X102245193Y-78051247D01*
X102245194Y-78051253D01*
X102268120Y-78146745D01*
X102301747Y-78286812D01*
X102396348Y-78515197D01*
X102525510Y-78725971D01*
X102528722Y-78729731D01*
X102528725Y-78729736D01*
X102656645Y-78879510D01*
X102686055Y-78913945D01*
X102689817Y-78917158D01*
X102870264Y-79071275D01*
X102870269Y-79071278D01*
X102874029Y-79074490D01*
X103084803Y-79203652D01*
X103089378Y-79205547D01*
X103308615Y-79296359D01*
X103308617Y-79296360D01*
X103313188Y-79298253D01*
X103396422Y-79318236D01*
X103548747Y-79354806D01*
X103548753Y-79354807D01*
X103553560Y-79355961D01*
X103800000Y-79375356D01*
X104046440Y-79355961D01*
X104051247Y-79354807D01*
X104051253Y-79354806D01*
X104203578Y-79318236D01*
X104286812Y-79298253D01*
X104291383Y-79296360D01*
X104291385Y-79296359D01*
X104510622Y-79205547D01*
X104515197Y-79203652D01*
X104725971Y-79074490D01*
X104729731Y-79071278D01*
X104729736Y-79071275D01*
X104910183Y-78917158D01*
X104913945Y-78913945D01*
X104943355Y-78879510D01*
X105071275Y-78729736D01*
X105071278Y-78729731D01*
X105074490Y-78725971D01*
X105203652Y-78515197D01*
X105298253Y-78286812D01*
X105331880Y-78146745D01*
X105354806Y-78051253D01*
X105354807Y-78051247D01*
X105355961Y-78046440D01*
X105375356Y-77800000D01*
X114724644Y-77800000D01*
X114744039Y-78046440D01*
X114745193Y-78051247D01*
X114745194Y-78051253D01*
X114768120Y-78146745D01*
X114801747Y-78286812D01*
X114896348Y-78515197D01*
X115025510Y-78725971D01*
X115028722Y-78729731D01*
X115028725Y-78729736D01*
X115156645Y-78879510D01*
X115186055Y-78913945D01*
X115189817Y-78917158D01*
X115370264Y-79071275D01*
X115370269Y-79071278D01*
X115374029Y-79074490D01*
X115584803Y-79203652D01*
X115589378Y-79205547D01*
X115808615Y-79296359D01*
X115808617Y-79296360D01*
X115813188Y-79298253D01*
X115896422Y-79318236D01*
X116048747Y-79354806D01*
X116048753Y-79354807D01*
X116053560Y-79355961D01*
X116300000Y-79375356D01*
X116546440Y-79355961D01*
X116551247Y-79354807D01*
X116551253Y-79354806D01*
X116703578Y-79318236D01*
X116786812Y-79298253D01*
X116791383Y-79296360D01*
X116791385Y-79296359D01*
X117010622Y-79205547D01*
X117015197Y-79203652D01*
X117225971Y-79074490D01*
X117229731Y-79071278D01*
X117229736Y-79071275D01*
X117410183Y-78917158D01*
X117413945Y-78913945D01*
X117443355Y-78879510D01*
X117571275Y-78729736D01*
X117571278Y-78729731D01*
X117574490Y-78725971D01*
X117703652Y-78515197D01*
X117798253Y-78286812D01*
X117831880Y-78146745D01*
X117854806Y-78051253D01*
X117854807Y-78051247D01*
X117855961Y-78046440D01*
X117875356Y-77800000D01*
X117855961Y-77553560D01*
X117847963Y-77520243D01*
X117799408Y-77318000D01*
X117798253Y-77313188D01*
X117792791Y-77300000D01*
X117705547Y-77089378D01*
X117703652Y-77084803D01*
X117574490Y-76874029D01*
X117571278Y-76870269D01*
X117571275Y-76870264D01*
X117427381Y-76701786D01*
X117413945Y-76686055D01*
X117366825Y-76645810D01*
X117328016Y-76586361D01*
X117327508Y-76515366D01*
X117366825Y-76454189D01*
X117410183Y-76417158D01*
X117413945Y-76413945D01*
X117461265Y-76358540D01*
X117571275Y-76229736D01*
X117571278Y-76229731D01*
X117574490Y-76225971D01*
X117703652Y-76015197D01*
X117726496Y-75960047D01*
X117796359Y-75791385D01*
X117796360Y-75791383D01*
X117798253Y-75786812D01*
X117818236Y-75703578D01*
X117854806Y-75551253D01*
X117854807Y-75551247D01*
X117855961Y-75546440D01*
X117875356Y-75300000D01*
X117855961Y-75053560D01*
X117798253Y-74813188D01*
X117789012Y-74790877D01*
X117705547Y-74589378D01*
X117703652Y-74584803D01*
X117574490Y-74374029D01*
X117571278Y-74370269D01*
X117571275Y-74370264D01*
X117417158Y-74189817D01*
X117413945Y-74186055D01*
X117306714Y-74094471D01*
X117229736Y-74028725D01*
X117229731Y-74028722D01*
X117225971Y-74025510D01*
X117015197Y-73896348D01*
X116901834Y-73849391D01*
X116791385Y-73803641D01*
X116791383Y-73803640D01*
X116786812Y-73801747D01*
X116703578Y-73781764D01*
X116551253Y-73745194D01*
X116551247Y-73745193D01*
X116546440Y-73744039D01*
X116300000Y-73724644D01*
X116053560Y-73744039D01*
X116048753Y-73745193D01*
X116048747Y-73745194D01*
X115896422Y-73781764D01*
X115813188Y-73801747D01*
X115808617Y-73803640D01*
X115808615Y-73803641D01*
X115698166Y-73849391D01*
X115584803Y-73896348D01*
X115374029Y-74025510D01*
X115370269Y-74028722D01*
X115370264Y-74028725D01*
X115293286Y-74094471D01*
X115186055Y-74186055D01*
X115182842Y-74189817D01*
X115028725Y-74370264D01*
X115028722Y-74370269D01*
X115025510Y-74374029D01*
X114896348Y-74584803D01*
X114894453Y-74589378D01*
X114810989Y-74790877D01*
X114801747Y-74813188D01*
X114744039Y-75053560D01*
X114724644Y-75300000D01*
X114744039Y-75546440D01*
X114745193Y-75551247D01*
X114745194Y-75551253D01*
X114781764Y-75703578D01*
X114801747Y-75786812D01*
X114803640Y-75791383D01*
X114803641Y-75791385D01*
X114873504Y-75960047D01*
X114896348Y-76015197D01*
X115025510Y-76225971D01*
X115028722Y-76229731D01*
X115028725Y-76229736D01*
X115138735Y-76358540D01*
X115186055Y-76413945D01*
X115189817Y-76417158D01*
X115233175Y-76454189D01*
X115271984Y-76513639D01*
X115272492Y-76584634D01*
X115233175Y-76645810D01*
X115186055Y-76686055D01*
X115172619Y-76701786D01*
X115028725Y-76870264D01*
X115028722Y-76870269D01*
X115025510Y-76874029D01*
X114896348Y-77084803D01*
X114894453Y-77089378D01*
X114807210Y-77300000D01*
X114801747Y-77313188D01*
X114800592Y-77318000D01*
X114752038Y-77520243D01*
X114744039Y-77553560D01*
X114724644Y-77800000D01*
X105375356Y-77800000D01*
X105355961Y-77553560D01*
X105347963Y-77520243D01*
X105299408Y-77318000D01*
X105298253Y-77313188D01*
X105292791Y-77300000D01*
X105205547Y-77089378D01*
X105203652Y-77084803D01*
X105074490Y-76874029D01*
X105071278Y-76870269D01*
X105071275Y-76870264D01*
X104927381Y-76701786D01*
X104913945Y-76686055D01*
X104841453Y-76624141D01*
X104729736Y-76528725D01*
X104729731Y-76528722D01*
X104725971Y-76525510D01*
X104515197Y-76396348D01*
X104411976Y-76353592D01*
X104291385Y-76303641D01*
X104291383Y-76303640D01*
X104286812Y-76301747D01*
X104179793Y-76276054D01*
X104051253Y-76245194D01*
X104051247Y-76245193D01*
X104046440Y-76244039D01*
X103800000Y-76224644D01*
X103553560Y-76244039D01*
X103548753Y-76245193D01*
X103548747Y-76245194D01*
X103420207Y-76276054D01*
X103313188Y-76301747D01*
X103308625Y-76303637D01*
X103303904Y-76305171D01*
X103303521Y-76303991D01*
X103238665Y-76310954D01*
X103171959Y-76276054D01*
X103083404Y-76187499D01*
X103049378Y-76125187D01*
X103046499Y-76098404D01*
X103046499Y-74077757D01*
X105387073Y-74077757D01*
X105392800Y-74085407D01*
X105580811Y-74200620D01*
X105589605Y-74205101D01*
X105808770Y-74295882D01*
X105818155Y-74298931D01*
X106048825Y-74354311D01*
X106058572Y-74355854D01*
X106295070Y-74374467D01*
X106304930Y-74374467D01*
X106541428Y-74355854D01*
X106551175Y-74354311D01*
X106781845Y-74298931D01*
X106791230Y-74295882D01*
X107010395Y-74205101D01*
X107019189Y-74200620D01*
X107203534Y-74087654D01*
X107212994Y-74077198D01*
X107209210Y-74068420D01*
X106312812Y-73172022D01*
X106298868Y-73164408D01*
X106297035Y-73164539D01*
X106290420Y-73168790D01*
X105393833Y-74065377D01*
X105387073Y-74077757D01*
X103046499Y-74077757D01*
X103046499Y-72804930D01*
X104725533Y-72804930D01*
X104744146Y-73041428D01*
X104745689Y-73051175D01*
X104801069Y-73281845D01*
X104804118Y-73291230D01*
X104894899Y-73510395D01*
X104899380Y-73519189D01*
X105012346Y-73703534D01*
X105022802Y-73712994D01*
X105031580Y-73709210D01*
X105927978Y-72812812D01*
X105934356Y-72801132D01*
X106664408Y-72801132D01*
X106664539Y-72802965D01*
X106668790Y-72809580D01*
X107565377Y-73706167D01*
X107577757Y-73712927D01*
X107585407Y-73707200D01*
X107700620Y-73519189D01*
X107705101Y-73510395D01*
X107795882Y-73291230D01*
X107798931Y-73281845D01*
X107854311Y-73051175D01*
X107855854Y-73041428D01*
X107874467Y-72804930D01*
X107874467Y-72795070D01*
X107855854Y-72558572D01*
X107854311Y-72548825D01*
X107798931Y-72318155D01*
X107795882Y-72308770D01*
X107705101Y-72089605D01*
X107700620Y-72080811D01*
X107587654Y-71896466D01*
X107577198Y-71887006D01*
X107568420Y-71890790D01*
X106672022Y-72787188D01*
X106664408Y-72801132D01*
X105934356Y-72801132D01*
X105935592Y-72798868D01*
X105935461Y-72797035D01*
X105931210Y-72790420D01*
X105034623Y-71893833D01*
X105022243Y-71887073D01*
X105014593Y-71892800D01*
X104899380Y-72080811D01*
X104894899Y-72089605D01*
X104804118Y-72308770D01*
X104801069Y-72318155D01*
X104745689Y-72548825D01*
X104744146Y-72558572D01*
X104725533Y-72795070D01*
X104725533Y-72804930D01*
X103046499Y-72804930D01*
X103046499Y-71522802D01*
X105387006Y-71522802D01*
X105390790Y-71531580D01*
X106287188Y-72427978D01*
X106301132Y-72435592D01*
X106302965Y-72435461D01*
X106309580Y-72431210D01*
X107206167Y-71534623D01*
X107212927Y-71522243D01*
X107207200Y-71514593D01*
X107019189Y-71399380D01*
X107010395Y-71394899D01*
X106791230Y-71304118D01*
X106781845Y-71301069D01*
X106551175Y-71245689D01*
X106541428Y-71244146D01*
X106304930Y-71225533D01*
X106295070Y-71225533D01*
X106058572Y-71244146D01*
X106048825Y-71245689D01*
X105818155Y-71301069D01*
X105808770Y-71304118D01*
X105589605Y-71394899D01*
X105580811Y-71399380D01*
X105396466Y-71512346D01*
X105387006Y-71522802D01*
X103046499Y-71522802D01*
X103046499Y-70300000D01*
X114724644Y-70300000D01*
X114744039Y-70546440D01*
X114745193Y-70551247D01*
X114745194Y-70551253D01*
X114761952Y-70621055D01*
X114801747Y-70786812D01*
X114896348Y-71015197D01*
X115025510Y-71225971D01*
X115028722Y-71229731D01*
X115028725Y-71229736D01*
X115115403Y-71331222D01*
X115186055Y-71413945D01*
X115189817Y-71417158D01*
X115370264Y-71571275D01*
X115370269Y-71571278D01*
X115374029Y-71574490D01*
X115584803Y-71703652D01*
X115611613Y-71714757D01*
X115808615Y-71796359D01*
X115808617Y-71796360D01*
X115813188Y-71798253D01*
X115861127Y-71809762D01*
X116048747Y-71854806D01*
X116048753Y-71854807D01*
X116053560Y-71855961D01*
X116300000Y-71875356D01*
X116546440Y-71855961D01*
X116551247Y-71854807D01*
X116551253Y-71854806D01*
X116738873Y-71809762D01*
X116786812Y-71798253D01*
X116791383Y-71796360D01*
X116791385Y-71796359D01*
X116988387Y-71714757D01*
X117015197Y-71703652D01*
X117225971Y-71574490D01*
X117229731Y-71571278D01*
X117229736Y-71571275D01*
X117410183Y-71417158D01*
X117413945Y-71413945D01*
X117484597Y-71331222D01*
X117571275Y-71229736D01*
X117571278Y-71229731D01*
X117574490Y-71225971D01*
X117703652Y-71015197D01*
X117798253Y-70786812D01*
X117838048Y-70621055D01*
X117854806Y-70551253D01*
X117854807Y-70551247D01*
X117855961Y-70546440D01*
X117875356Y-70300000D01*
X117855961Y-70053560D01*
X117843811Y-70002948D01*
X117799408Y-69818000D01*
X117798253Y-69813188D01*
X117779130Y-69767020D01*
X117705547Y-69589378D01*
X117703652Y-69584803D01*
X117574490Y-69374029D01*
X117571278Y-69370269D01*
X117571275Y-69370264D01*
X117417158Y-69189817D01*
X117413945Y-69186055D01*
X117366825Y-69145810D01*
X117328016Y-69086361D01*
X117327508Y-69015366D01*
X117366825Y-68954189D01*
X117380410Y-68942587D01*
X117413945Y-68913945D01*
X117433624Y-68890904D01*
X117571275Y-68729736D01*
X117571278Y-68729731D01*
X117574490Y-68725971D01*
X117703652Y-68515197D01*
X117798253Y-68286812D01*
X117826453Y-68169351D01*
X117854806Y-68051253D01*
X117854807Y-68051247D01*
X117855961Y-68046440D01*
X117875356Y-67800000D01*
X117855961Y-67553560D01*
X117852762Y-67540233D01*
X117804605Y-67339647D01*
X117798253Y-67313188D01*
X117783913Y-67278567D01*
X117705547Y-67089378D01*
X117703652Y-67084803D01*
X117574490Y-66874029D01*
X117571278Y-66870269D01*
X117571275Y-66870264D01*
X117417158Y-66689817D01*
X117413945Y-66686055D01*
X117365116Y-66644351D01*
X117229736Y-66528725D01*
X117229731Y-66528722D01*
X117225971Y-66525510D01*
X117015197Y-66396348D01*
X116903739Y-66350180D01*
X116791385Y-66303641D01*
X116791383Y-66303640D01*
X116786812Y-66301747D01*
X116653743Y-66269800D01*
X116551253Y-66245194D01*
X116551247Y-66245193D01*
X116546440Y-66244039D01*
X116300000Y-66224644D01*
X116053560Y-66244039D01*
X116048753Y-66245193D01*
X116048747Y-66245194D01*
X115946257Y-66269800D01*
X115813188Y-66301747D01*
X115808617Y-66303640D01*
X115808615Y-66303641D01*
X115696261Y-66350180D01*
X115584803Y-66396348D01*
X115374029Y-66525510D01*
X115370269Y-66528722D01*
X115370264Y-66528725D01*
X115234884Y-66644351D01*
X115186055Y-66686055D01*
X115182842Y-66689817D01*
X115028725Y-66870264D01*
X115028722Y-66870269D01*
X115025510Y-66874029D01*
X114896348Y-67084803D01*
X114894453Y-67089378D01*
X114816088Y-67278567D01*
X114801747Y-67313188D01*
X114795395Y-67339647D01*
X114747239Y-67540233D01*
X114744039Y-67553560D01*
X114724644Y-67800000D01*
X114744039Y-68046440D01*
X114745193Y-68051247D01*
X114745194Y-68051253D01*
X114773547Y-68169351D01*
X114801747Y-68286812D01*
X114896348Y-68515197D01*
X115025510Y-68725971D01*
X115028722Y-68729731D01*
X115028725Y-68729736D01*
X115166376Y-68890904D01*
X115186055Y-68913945D01*
X115219591Y-68942587D01*
X115233175Y-68954189D01*
X115271984Y-69013639D01*
X115272492Y-69084634D01*
X115233175Y-69145810D01*
X115186055Y-69186055D01*
X115182842Y-69189817D01*
X115028725Y-69370264D01*
X115028722Y-69370269D01*
X115025510Y-69374029D01*
X114896348Y-69584803D01*
X114894453Y-69589378D01*
X114820871Y-69767020D01*
X114801747Y-69813188D01*
X114800592Y-69818000D01*
X114756190Y-70002948D01*
X114744039Y-70053560D01*
X114724644Y-70300000D01*
X103046499Y-70300000D01*
X103046499Y-69376359D01*
X103066501Y-69308238D01*
X103120157Y-69261745D01*
X103190431Y-69251641D01*
X103220717Y-69259950D01*
X103308615Y-69296359D01*
X103308617Y-69296360D01*
X103313188Y-69298253D01*
X103354779Y-69308238D01*
X103548747Y-69354806D01*
X103548753Y-69354807D01*
X103553560Y-69355961D01*
X103800000Y-69375356D01*
X104046440Y-69355961D01*
X104051247Y-69354807D01*
X104051253Y-69354806D01*
X104245221Y-69308238D01*
X104286812Y-69298253D01*
X104291383Y-69296360D01*
X104291385Y-69296359D01*
X104510622Y-69205547D01*
X104515197Y-69203652D01*
X104725971Y-69074490D01*
X104729731Y-69071278D01*
X104729736Y-69071275D01*
X104910183Y-68917158D01*
X104913945Y-68913945D01*
X104933624Y-68890904D01*
X105071275Y-68729736D01*
X105071278Y-68729731D01*
X105074490Y-68725971D01*
X105203652Y-68515197D01*
X105298253Y-68286812D01*
X105326453Y-68169351D01*
X105354806Y-68051253D01*
X105354807Y-68051247D01*
X105355961Y-68046440D01*
X105375356Y-67800000D01*
X105355961Y-67553560D01*
X105352762Y-67540233D01*
X105304605Y-67339647D01*
X105298253Y-67313188D01*
X105283913Y-67278567D01*
X105205547Y-67089378D01*
X105203652Y-67084803D01*
X105074490Y-66874029D01*
X105071278Y-66870269D01*
X105071275Y-66870264D01*
X104917158Y-66689817D01*
X104913945Y-66686055D01*
X104865116Y-66644351D01*
X104729736Y-66528725D01*
X104729731Y-66528722D01*
X104725971Y-66525510D01*
X104515197Y-66396348D01*
X104510617Y-66394451D01*
X104506217Y-66392209D01*
X104506782Y-66391100D01*
X104456002Y-66350180D01*
X104434526Y-66281593D01*
X104433748Y-66281642D01*
X104433549Y-66278474D01*
X104433500Y-66278318D01*
X104433500Y-66273733D01*
X104432996Y-66269742D01*
X104432063Y-66257900D01*
X104431628Y-66244039D01*
X104430674Y-66213700D01*
X104428462Y-66206086D01*
X104428461Y-66206081D01*
X104425023Y-66194248D01*
X104421012Y-66174884D01*
X104419467Y-66162653D01*
X104418474Y-66154792D01*
X104415557Y-66147425D01*
X104415556Y-66147420D01*
X104402198Y-66113681D01*
X104398354Y-66102454D01*
X104395611Y-66093012D01*
X104386018Y-66059996D01*
X104375707Y-66042561D01*
X104367012Y-66024813D01*
X104359552Y-66005972D01*
X104333564Y-65970202D01*
X104327048Y-65960282D01*
X104308580Y-65929054D01*
X104308578Y-65929051D01*
X104304542Y-65922227D01*
X104290221Y-65907906D01*
X104277380Y-65892872D01*
X104270131Y-65882895D01*
X104265472Y-65876482D01*
X104231395Y-65848291D01*
X104222616Y-65840301D01*
X103682315Y-65300000D01*
X104724644Y-65300000D01*
X104744039Y-65546440D01*
X104745193Y-65551247D01*
X104745194Y-65551253D01*
X104768934Y-65650135D01*
X104801747Y-65786812D01*
X104803640Y-65791383D01*
X104803641Y-65791385D01*
X104814047Y-65816507D01*
X104896348Y-66015197D01*
X105025510Y-66225971D01*
X105028722Y-66229731D01*
X105028725Y-66229736D01*
X105136258Y-66355640D01*
X105186055Y-66413945D01*
X105189817Y-66417158D01*
X105370264Y-66571275D01*
X105370269Y-66571278D01*
X105374029Y-66574490D01*
X105584803Y-66703652D01*
X105589378Y-66705547D01*
X105808615Y-66796359D01*
X105808617Y-66796360D01*
X105813188Y-66798253D01*
X105896422Y-66818236D01*
X106048747Y-66854806D01*
X106048753Y-66854807D01*
X106053560Y-66855961D01*
X106300000Y-66875356D01*
X106546440Y-66855961D01*
X106551247Y-66854807D01*
X106551253Y-66854806D01*
X106703578Y-66818236D01*
X106786812Y-66798253D01*
X106791383Y-66796360D01*
X106791385Y-66796359D01*
X107010622Y-66705547D01*
X107015197Y-66703652D01*
X107225971Y-66574490D01*
X107229731Y-66571278D01*
X107229736Y-66571275D01*
X107410183Y-66417158D01*
X107413945Y-66413945D01*
X107463742Y-66355640D01*
X107571275Y-66229736D01*
X107571278Y-66229731D01*
X107574490Y-66225971D01*
X107703652Y-66015197D01*
X107785953Y-65816507D01*
X107796359Y-65791385D01*
X107796360Y-65791383D01*
X107798253Y-65786812D01*
X107831066Y-65650135D01*
X107854806Y-65551253D01*
X107854807Y-65551247D01*
X107855961Y-65546440D01*
X107875356Y-65300000D01*
X107855961Y-65053560D01*
X107843804Y-65002920D01*
X107815428Y-64884729D01*
X107798253Y-64813188D01*
X107703652Y-64584803D01*
X107574490Y-64374029D01*
X107571278Y-64370269D01*
X107571275Y-64370264D01*
X107417158Y-64189817D01*
X107413945Y-64186055D01*
X107376682Y-64154229D01*
X107229736Y-64028725D01*
X107229731Y-64028722D01*
X107225971Y-64025510D01*
X107015197Y-63896348D01*
X106796353Y-63805699D01*
X106791385Y-63803641D01*
X106791383Y-63803640D01*
X106786812Y-63801747D01*
X106703578Y-63781764D01*
X106551253Y-63745194D01*
X106551247Y-63745193D01*
X106546440Y-63744039D01*
X106300000Y-63724644D01*
X106053560Y-63744039D01*
X106048753Y-63745193D01*
X106048747Y-63745194D01*
X105896422Y-63781764D01*
X105813188Y-63801747D01*
X105808617Y-63803640D01*
X105808615Y-63803641D01*
X105803647Y-63805699D01*
X105584803Y-63896348D01*
X105374029Y-64025510D01*
X105370269Y-64028722D01*
X105370264Y-64028725D01*
X105223318Y-64154229D01*
X105186055Y-64186055D01*
X105182842Y-64189817D01*
X105028725Y-64370264D01*
X105028722Y-64370269D01*
X105025510Y-64374029D01*
X104896348Y-64584803D01*
X104801747Y-64813188D01*
X104784572Y-64884729D01*
X104756197Y-65002920D01*
X104744039Y-65053560D01*
X104724644Y-65300000D01*
X103682315Y-65300000D01*
X101970405Y-63588089D01*
X101936379Y-63525777D01*
X101933500Y-63498994D01*
X101933500Y-58750000D01*
X108536761Y-58750000D01*
X108537031Y-58754119D01*
X108554692Y-59023564D01*
X108555696Y-59038886D01*
X108556500Y-59042926D01*
X108556500Y-59042929D01*
X108608348Y-59303587D01*
X108612175Y-59322828D01*
X108613501Y-59326734D01*
X108613502Y-59326738D01*
X108692653Y-59559909D01*
X108705234Y-59596970D01*
X108707055Y-59600663D01*
X108707056Y-59600665D01*
X108779881Y-59748339D01*
X108833279Y-59856619D01*
X108994119Y-60097335D01*
X108996831Y-60100427D01*
X108996836Y-60100434D01*
X109143435Y-60267596D01*
X109185004Y-60314996D01*
X109188093Y-60317705D01*
X109399565Y-60503163D01*
X109399571Y-60503168D01*
X109402665Y-60505881D01*
X109643380Y-60666721D01*
X109647079Y-60668545D01*
X109647084Y-60668548D01*
X109883867Y-60785316D01*
X109903030Y-60794766D01*
X109906928Y-60796089D01*
X109906930Y-60796090D01*
X110173262Y-60886498D01*
X110173266Y-60886499D01*
X110177172Y-60887825D01*
X110181216Y-60888629D01*
X110181222Y-60888631D01*
X110457071Y-60943500D01*
X110457074Y-60943500D01*
X110461114Y-60944304D01*
X110465225Y-60944573D01*
X110465229Y-60944574D01*
X110745881Y-60962969D01*
X110750000Y-60963239D01*
X110754119Y-60962969D01*
X111034771Y-60944574D01*
X111034775Y-60944573D01*
X111038886Y-60944304D01*
X111042926Y-60943500D01*
X111042929Y-60943500D01*
X111318778Y-60888631D01*
X111318784Y-60888629D01*
X111322828Y-60887825D01*
X111326734Y-60886499D01*
X111326738Y-60886498D01*
X111593070Y-60796090D01*
X111593072Y-60796089D01*
X111596970Y-60794766D01*
X111616133Y-60785316D01*
X111852916Y-60668548D01*
X111852921Y-60668545D01*
X111856620Y-60666721D01*
X112097335Y-60505881D01*
X112100429Y-60503168D01*
X112100435Y-60503163D01*
X112311907Y-60317705D01*
X112314996Y-60314996D01*
X112356565Y-60267596D01*
X112503164Y-60100434D01*
X112503169Y-60100427D01*
X112505881Y-60097335D01*
X112666721Y-59856619D01*
X112720119Y-59748339D01*
X112792944Y-59600665D01*
X112792945Y-59600663D01*
X112794766Y-59596970D01*
X112807347Y-59559909D01*
X112886498Y-59326738D01*
X112886499Y-59326734D01*
X112887825Y-59322828D01*
X112891653Y-59303587D01*
X112943500Y-59042929D01*
X112943500Y-59042926D01*
X112944304Y-59038886D01*
X112945309Y-59023564D01*
X112962969Y-58754119D01*
X112963239Y-58750000D01*
X112960395Y-58706606D01*
X112944574Y-58465229D01*
X112944573Y-58465225D01*
X112944304Y-58461114D01*
X112940678Y-58442884D01*
X112888631Y-58181222D01*
X112888629Y-58181216D01*
X112887825Y-58177172D01*
X112875836Y-58141852D01*
X112796090Y-57906930D01*
X112796089Y-57906928D01*
X112794766Y-57903030D01*
X112738644Y-57789225D01*
X112668550Y-57647090D01*
X112666721Y-57643381D01*
X112505881Y-57402665D01*
X112503169Y-57399573D01*
X112503164Y-57399566D01*
X112317705Y-57188093D01*
X112314996Y-57185004D01*
X112311733Y-57182142D01*
X112100435Y-56996837D01*
X112100429Y-56996832D01*
X112097335Y-56994119D01*
X111856620Y-56833279D01*
X111852921Y-56831455D01*
X111852916Y-56831452D01*
X111600665Y-56707056D01*
X111600663Y-56707055D01*
X111596970Y-56705234D01*
X111571406Y-56696556D01*
X111326738Y-56613502D01*
X111326734Y-56613501D01*
X111322828Y-56612175D01*
X111318784Y-56611371D01*
X111318778Y-56611369D01*
X111042929Y-56556500D01*
X111042926Y-56556500D01*
X111038886Y-56555696D01*
X111034775Y-56555427D01*
X111034771Y-56555426D01*
X110754119Y-56537031D01*
X110750000Y-56536761D01*
X110745881Y-56537031D01*
X110465229Y-56555426D01*
X110465225Y-56555427D01*
X110461114Y-56555696D01*
X110457074Y-56556500D01*
X110457071Y-56556500D01*
X110181222Y-56611369D01*
X110181216Y-56611371D01*
X110177172Y-56612175D01*
X110173266Y-56613501D01*
X110173262Y-56613502D01*
X109928594Y-56696556D01*
X109903030Y-56705234D01*
X109643381Y-56833279D01*
X109402665Y-56994119D01*
X109399573Y-56996831D01*
X109399566Y-56996836D01*
X109188239Y-57182167D01*
X109185004Y-57185004D01*
X109182295Y-57188093D01*
X108996836Y-57399566D01*
X108996831Y-57399573D01*
X108994119Y-57402665D01*
X108833279Y-57643381D01*
X108831450Y-57647090D01*
X108761357Y-57789225D01*
X108705234Y-57903030D01*
X108703911Y-57906928D01*
X108703910Y-57906930D01*
X108624165Y-58141852D01*
X108612175Y-58177172D01*
X108611371Y-58181216D01*
X108611369Y-58181222D01*
X108559322Y-58442884D01*
X108555696Y-58461114D01*
X108555427Y-58465225D01*
X108555426Y-58465229D01*
X108539605Y-58706606D01*
X108536761Y-58750000D01*
X101933500Y-58750000D01*
X101933500Y-58376132D01*
X101953502Y-58308011D01*
X102007158Y-58261518D01*
X102077432Y-58251414D01*
X102138064Y-58279807D01*
X102138747Y-58278866D01*
X102224539Y-58341198D01*
X102285008Y-58385131D01*
X102293248Y-58391118D01*
X102299276Y-58393802D01*
X102299278Y-58393803D01*
X102461681Y-58466109D01*
X102467712Y-58468794D01*
X102561112Y-58488647D01*
X102648056Y-58507128D01*
X102648061Y-58507128D01*
X102654513Y-58508500D01*
X102845487Y-58508500D01*
X102851939Y-58507128D01*
X102851944Y-58507128D01*
X102938888Y-58488647D01*
X103032288Y-58468794D01*
X103038319Y-58466109D01*
X103200722Y-58393803D01*
X103200724Y-58393802D01*
X103206752Y-58391118D01*
X103214993Y-58385131D01*
X103275461Y-58341198D01*
X103361253Y-58278866D01*
X103380520Y-58257468D01*
X103484621Y-58141852D01*
X103484622Y-58141851D01*
X103489040Y-58136944D01*
X103584527Y-57971556D01*
X103643542Y-57789928D01*
X103651534Y-57713894D01*
X103662814Y-57606565D01*
X103663504Y-57600000D01*
X103661705Y-57582880D01*
X103644232Y-57416635D01*
X103644232Y-57416633D01*
X103643542Y-57410072D01*
X103584527Y-57228444D01*
X103489040Y-57063056D01*
X103403863Y-56968458D01*
X103373147Y-56904452D01*
X103371501Y-56884149D01*
X103371501Y-52800000D01*
X104724644Y-52800000D01*
X104744039Y-53046440D01*
X104745193Y-53051247D01*
X104745194Y-53051253D01*
X104781764Y-53203578D01*
X104801747Y-53286812D01*
X104803640Y-53291383D01*
X104803641Y-53291385D01*
X104852774Y-53410000D01*
X104896348Y-53515197D01*
X105025510Y-53725971D01*
X105028722Y-53729731D01*
X105028725Y-53729736D01*
X105159360Y-53882689D01*
X105186055Y-53913945D01*
X105189817Y-53917158D01*
X105370264Y-54071275D01*
X105370269Y-54071278D01*
X105374029Y-54074490D01*
X105584803Y-54203652D01*
X105589378Y-54205547D01*
X105808615Y-54296359D01*
X105808617Y-54296360D01*
X105813188Y-54298253D01*
X105889884Y-54316666D01*
X106048747Y-54354806D01*
X106048753Y-54354807D01*
X106053560Y-54355961D01*
X106300000Y-54375356D01*
X106546440Y-54355961D01*
X106551247Y-54354807D01*
X106551253Y-54354806D01*
X106710116Y-54316666D01*
X106786812Y-54298253D01*
X106791383Y-54296360D01*
X106791385Y-54296359D01*
X107010622Y-54205547D01*
X107015197Y-54203652D01*
X107225971Y-54074490D01*
X107229731Y-54071278D01*
X107229736Y-54071275D01*
X107410183Y-53917158D01*
X107413945Y-53913945D01*
X107440640Y-53882689D01*
X107571275Y-53729736D01*
X107571278Y-53729731D01*
X107574490Y-53725971D01*
X107703652Y-53515197D01*
X107747226Y-53410000D01*
X107796359Y-53291385D01*
X107796360Y-53291383D01*
X107798253Y-53286812D01*
X107818236Y-53203578D01*
X107854806Y-53051253D01*
X107854807Y-53051247D01*
X107855961Y-53046440D01*
X107875356Y-52800000D01*
X107855961Y-52553560D01*
X107852357Y-52538546D01*
X107807238Y-52350615D01*
X107798253Y-52313188D01*
X107777573Y-52263261D01*
X107706322Y-52091248D01*
X107703652Y-52084803D01*
X107574490Y-51874029D01*
X107571278Y-51870269D01*
X107571275Y-51870264D01*
X107417158Y-51689817D01*
X107413945Y-51686055D01*
X107374685Y-51652524D01*
X107229736Y-51528725D01*
X107229731Y-51528722D01*
X107225971Y-51525510D01*
X107015197Y-51396348D01*
X106893872Y-51346093D01*
X106791385Y-51303641D01*
X106791383Y-51303640D01*
X106786812Y-51301747D01*
X106687782Y-51277972D01*
X106551253Y-51245194D01*
X106551247Y-51245193D01*
X106546440Y-51244039D01*
X106300000Y-51224644D01*
X106053560Y-51244039D01*
X106048753Y-51245193D01*
X106048747Y-51245194D01*
X105912218Y-51277972D01*
X105813188Y-51301747D01*
X105808617Y-51303640D01*
X105808615Y-51303641D01*
X105706128Y-51346093D01*
X105584803Y-51396348D01*
X105374029Y-51525510D01*
X105370269Y-51528722D01*
X105370264Y-51528725D01*
X105225315Y-51652524D01*
X105186055Y-51686055D01*
X105182842Y-51689817D01*
X105028725Y-51870264D01*
X105028722Y-51870269D01*
X105025510Y-51874029D01*
X104896348Y-52084803D01*
X104893678Y-52091248D01*
X104822428Y-52263261D01*
X104801747Y-52313188D01*
X104792762Y-52350615D01*
X104747644Y-52538546D01*
X104744039Y-52553560D01*
X104724644Y-52800000D01*
X103371501Y-52800000D01*
X103371501Y-51972083D01*
X103391503Y-51903962D01*
X103445159Y-51857469D01*
X103515433Y-51847365D01*
X103526907Y-51849562D01*
X103553560Y-51855961D01*
X103800000Y-51875356D01*
X104046440Y-51855961D01*
X104051247Y-51854807D01*
X104051253Y-51854806D01*
X104206055Y-51817641D01*
X104286812Y-51798253D01*
X104291383Y-51796360D01*
X104291385Y-51796359D01*
X104510622Y-51705547D01*
X104515197Y-51703652D01*
X104725971Y-51574490D01*
X104729731Y-51571278D01*
X104729736Y-51571275D01*
X104910183Y-51417158D01*
X104913945Y-51413945D01*
X104971896Y-51346093D01*
X105071275Y-51229736D01*
X105071278Y-51229731D01*
X105074490Y-51225971D01*
X105203652Y-51015197D01*
X105263796Y-50869999D01*
X105296359Y-50791385D01*
X105296360Y-50791383D01*
X105298253Y-50786812D01*
X105318236Y-50703578D01*
X105354806Y-50551253D01*
X105354807Y-50551247D01*
X105355961Y-50546440D01*
X105375356Y-50300000D01*
X114724644Y-50300000D01*
X114744039Y-50546440D01*
X114745193Y-50551247D01*
X114745194Y-50551253D01*
X114781764Y-50703578D01*
X114801747Y-50786812D01*
X114803640Y-50791383D01*
X114803641Y-50791385D01*
X114836204Y-50869999D01*
X114896348Y-51015197D01*
X115025510Y-51225971D01*
X115028722Y-51229731D01*
X115028725Y-51229736D01*
X115128104Y-51346093D01*
X115186055Y-51413945D01*
X115189817Y-51417158D01*
X115370264Y-51571275D01*
X115370269Y-51571278D01*
X115374029Y-51574490D01*
X115584803Y-51703652D01*
X115589378Y-51705547D01*
X115808615Y-51796359D01*
X115808617Y-51796360D01*
X115813188Y-51798253D01*
X115893945Y-51817641D01*
X116048747Y-51854806D01*
X116048753Y-51854807D01*
X116053560Y-51855961D01*
X116300000Y-51875356D01*
X116546440Y-51855961D01*
X116551247Y-51854807D01*
X116551253Y-51854806D01*
X116706055Y-51817641D01*
X116786812Y-51798253D01*
X116791383Y-51796360D01*
X116791385Y-51796359D01*
X117010622Y-51705547D01*
X117015197Y-51703652D01*
X117225971Y-51574490D01*
X117229731Y-51571278D01*
X117229736Y-51571275D01*
X117410183Y-51417158D01*
X117413945Y-51413945D01*
X117471896Y-51346093D01*
X117571275Y-51229736D01*
X117571278Y-51229731D01*
X117574490Y-51225971D01*
X117703652Y-51015197D01*
X117763796Y-50869999D01*
X117796359Y-50791385D01*
X117796360Y-50791383D01*
X117798253Y-50786812D01*
X117818236Y-50703578D01*
X117854806Y-50551253D01*
X117854807Y-50551247D01*
X117855961Y-50546440D01*
X117875356Y-50300000D01*
X117855961Y-50053560D01*
X117853647Y-50043919D01*
X117814950Y-49882736D01*
X117798253Y-49813188D01*
X117703652Y-49584803D01*
X117574490Y-49374029D01*
X117571278Y-49370269D01*
X117571275Y-49370264D01*
X117417158Y-49189817D01*
X117413945Y-49186055D01*
X117366825Y-49145810D01*
X117328016Y-49086361D01*
X117327508Y-49015366D01*
X117366825Y-48954189D01*
X117388189Y-48935943D01*
X117413945Y-48913945D01*
X117485548Y-48830109D01*
X117571275Y-48729736D01*
X117571278Y-48729731D01*
X117574490Y-48725971D01*
X117703652Y-48515197D01*
X117781305Y-48327728D01*
X117796359Y-48291385D01*
X117796360Y-48291383D01*
X117798253Y-48286812D01*
X117831764Y-48147230D01*
X117854806Y-48051253D01*
X117854807Y-48051247D01*
X117855961Y-48046440D01*
X117875356Y-47800000D01*
X117855961Y-47553560D01*
X117837843Y-47478090D01*
X117799408Y-47318000D01*
X117798253Y-47313188D01*
X117740662Y-47174151D01*
X117705547Y-47089378D01*
X117703652Y-47084803D01*
X117574490Y-46874029D01*
X117571278Y-46870269D01*
X117571275Y-46870264D01*
X117417158Y-46689817D01*
X117413945Y-46686055D01*
X117396034Y-46670758D01*
X117229736Y-46528725D01*
X117229731Y-46528722D01*
X117225971Y-46525510D01*
X117015197Y-46396348D01*
X116890724Y-46344789D01*
X116791385Y-46303641D01*
X116791383Y-46303640D01*
X116786812Y-46301747D01*
X116703578Y-46281764D01*
X116551253Y-46245194D01*
X116551247Y-46245193D01*
X116546440Y-46244039D01*
X116300000Y-46224644D01*
X116053560Y-46244039D01*
X116048753Y-46245193D01*
X116048747Y-46245194D01*
X115896422Y-46281764D01*
X115813188Y-46301747D01*
X115808617Y-46303640D01*
X115808615Y-46303641D01*
X115709276Y-46344789D01*
X115584803Y-46396348D01*
X115374029Y-46525510D01*
X115370269Y-46528722D01*
X115370264Y-46528725D01*
X115203966Y-46670758D01*
X115186055Y-46686055D01*
X115182842Y-46689817D01*
X115028725Y-46870264D01*
X115028722Y-46870269D01*
X115025510Y-46874029D01*
X114896348Y-47084803D01*
X114894453Y-47089378D01*
X114859339Y-47174151D01*
X114801747Y-47313188D01*
X114800592Y-47318000D01*
X114762158Y-47478090D01*
X114744039Y-47553560D01*
X114724644Y-47800000D01*
X114744039Y-48046440D01*
X114745193Y-48051247D01*
X114745194Y-48051253D01*
X114768236Y-48147230D01*
X114801747Y-48286812D01*
X114803640Y-48291383D01*
X114803641Y-48291385D01*
X114818695Y-48327728D01*
X114896348Y-48515197D01*
X115025510Y-48725971D01*
X115028722Y-48729731D01*
X115028725Y-48729736D01*
X115114452Y-48830109D01*
X115186055Y-48913945D01*
X115211812Y-48935943D01*
X115233175Y-48954189D01*
X115271984Y-49013639D01*
X115272492Y-49084634D01*
X115233175Y-49145810D01*
X115186055Y-49186055D01*
X115182842Y-49189817D01*
X115028725Y-49370264D01*
X115028722Y-49370269D01*
X115025510Y-49374029D01*
X114896348Y-49584803D01*
X114801747Y-49813188D01*
X114785050Y-49882736D01*
X114746354Y-50043919D01*
X114744039Y-50053560D01*
X114724644Y-50300000D01*
X105375356Y-50300000D01*
X105355961Y-50053560D01*
X105353647Y-50043919D01*
X105314950Y-49882736D01*
X105298253Y-49813188D01*
X105203652Y-49584803D01*
X105074490Y-49374029D01*
X105071278Y-49370269D01*
X105071275Y-49370264D01*
X104917158Y-49189817D01*
X104913945Y-49186055D01*
X104866825Y-49145811D01*
X104729736Y-49028725D01*
X104729731Y-49028722D01*
X104725971Y-49025510D01*
X104515197Y-48896348D01*
X104473578Y-48879109D01*
X104291385Y-48803641D01*
X104291383Y-48803640D01*
X104286812Y-48801747D01*
X104203578Y-48781764D01*
X104051253Y-48745194D01*
X104051247Y-48745193D01*
X104046440Y-48744039D01*
X103800000Y-48724644D01*
X103553560Y-48744039D01*
X103548753Y-48745193D01*
X103548747Y-48745194D01*
X103396422Y-48781764D01*
X103313188Y-48801747D01*
X103308617Y-48803640D01*
X103308615Y-48803641D01*
X103126422Y-48879109D01*
X103084803Y-48896348D01*
X102874029Y-49025510D01*
X102870269Y-49028722D01*
X102870264Y-49028725D01*
X102733175Y-49145811D01*
X102686055Y-49186055D01*
X102682842Y-49189817D01*
X102528725Y-49370264D01*
X102528722Y-49370269D01*
X102525510Y-49374029D01*
X102396348Y-49584803D01*
X102301747Y-49813188D01*
X102285050Y-49882736D01*
X102246354Y-50043919D01*
X102244039Y-50053560D01*
X102224644Y-50300000D01*
X102222550Y-50299835D01*
X102205030Y-50359502D01*
X102151374Y-50405995D01*
X102081100Y-50416099D01*
X102016520Y-50386605D01*
X102005396Y-50375691D01*
X101990820Y-50359502D01*
X101931372Y-50293478D01*
X101915675Y-50276045D01*
X101915674Y-50276044D01*
X101911253Y-50271134D01*
X101756752Y-50158882D01*
X101750724Y-50156198D01*
X101750722Y-50156197D01*
X101588319Y-50083891D01*
X101588318Y-50083891D01*
X101582288Y-50081206D01*
X101452225Y-50053560D01*
X101401944Y-50042872D01*
X101401939Y-50042872D01*
X101395487Y-50041500D01*
X101204513Y-50041500D01*
X101198061Y-50042872D01*
X101198056Y-50042872D01*
X101147775Y-50053560D01*
X101017712Y-50081206D01*
X101011682Y-50083891D01*
X101011681Y-50083891D01*
X100849278Y-50156197D01*
X100849276Y-50156198D01*
X100843248Y-50158882D01*
X100688747Y-50271134D01*
X100684326Y-50276044D01*
X100684325Y-50276045D01*
X100566805Y-50406565D01*
X100560960Y-50413056D01*
X100557659Y-50418774D01*
X100483951Y-50546440D01*
X100465473Y-50578444D01*
X100406458Y-50760072D01*
X100405768Y-50766633D01*
X100405768Y-50766635D01*
X100403167Y-50791385D01*
X100386496Y-50950000D01*
X100387186Y-50956565D01*
X100403900Y-51115586D01*
X100406458Y-51139928D01*
X100465473Y-51321556D01*
X100560960Y-51486944D01*
X100634137Y-51568215D01*
X100664853Y-51632221D01*
X100666500Y-51652524D01*
X100666500Y-54503668D01*
X100646498Y-54571789D01*
X100592842Y-54618282D01*
X100522568Y-54628386D01*
X100457988Y-54598892D01*
X100426305Y-54556918D01*
X100415262Y-54533235D01*
X100375653Y-54448294D01*
X100337017Y-54365439D01*
X100337014Y-54365434D01*
X100334691Y-54360452D01*
X100328120Y-54351067D01*
X100203966Y-54173757D01*
X100203964Y-54173754D01*
X100200807Y-54169246D01*
X100035754Y-54004193D01*
X100031246Y-54001036D01*
X100031243Y-54001034D01*
X99862229Y-53882689D01*
X99817901Y-53827232D01*
X99808500Y-53779476D01*
X99808500Y-45300000D01*
X104724644Y-45300000D01*
X104744039Y-45546440D01*
X104745193Y-45551247D01*
X104745194Y-45551253D01*
X104764174Y-45630309D01*
X104801747Y-45786812D01*
X104803640Y-45791383D01*
X104803641Y-45791385D01*
X104845638Y-45892773D01*
X104896348Y-46015197D01*
X105025510Y-46225971D01*
X105028722Y-46229731D01*
X105028725Y-46229736D01*
X105139894Y-46359897D01*
X105186055Y-46413945D01*
X105189817Y-46417158D01*
X105370264Y-46571275D01*
X105370269Y-46571278D01*
X105374029Y-46574490D01*
X105584803Y-46703652D01*
X105589378Y-46705547D01*
X105808615Y-46796359D01*
X105808617Y-46796360D01*
X105813188Y-46798253D01*
X105896422Y-46818236D01*
X106048747Y-46854806D01*
X106048753Y-46854807D01*
X106053560Y-46855961D01*
X106300000Y-46875356D01*
X106546440Y-46855961D01*
X106551247Y-46854807D01*
X106551253Y-46854806D01*
X106703578Y-46818236D01*
X106786812Y-46798253D01*
X106791383Y-46796360D01*
X106791385Y-46796359D01*
X107010622Y-46705547D01*
X107015197Y-46703652D01*
X107225971Y-46574490D01*
X107229731Y-46571278D01*
X107229736Y-46571275D01*
X107410183Y-46417158D01*
X107413945Y-46413945D01*
X107460106Y-46359897D01*
X107571275Y-46229736D01*
X107571278Y-46229731D01*
X107574490Y-46225971D01*
X107703652Y-46015197D01*
X107754362Y-45892773D01*
X107796359Y-45791385D01*
X107796360Y-45791383D01*
X107798253Y-45786812D01*
X107835826Y-45630309D01*
X107854806Y-45551253D01*
X107854807Y-45551247D01*
X107855961Y-45546440D01*
X107875356Y-45300000D01*
X107855961Y-45053560D01*
X107798253Y-44813188D01*
X107793679Y-44802144D01*
X107705547Y-44589378D01*
X107703652Y-44584803D01*
X107574490Y-44374029D01*
X107571278Y-44370269D01*
X107571275Y-44370264D01*
X107426766Y-44201066D01*
X107413945Y-44186055D01*
X107319849Y-44105689D01*
X107229736Y-44028725D01*
X107229731Y-44028722D01*
X107225971Y-44025510D01*
X107015197Y-43896348D01*
X106973578Y-43879109D01*
X106791385Y-43803641D01*
X106791383Y-43803640D01*
X106786812Y-43801747D01*
X106703578Y-43781764D01*
X106551253Y-43745194D01*
X106551247Y-43745193D01*
X106546440Y-43744039D01*
X106300000Y-43724644D01*
X106053560Y-43744039D01*
X106048753Y-43745193D01*
X106048747Y-43745194D01*
X105896422Y-43781764D01*
X105813188Y-43801747D01*
X105808617Y-43803640D01*
X105808615Y-43803641D01*
X105626422Y-43879109D01*
X105584803Y-43896348D01*
X105374029Y-44025510D01*
X105370269Y-44028722D01*
X105370264Y-44028725D01*
X105280151Y-44105689D01*
X105186055Y-44186055D01*
X105173234Y-44201066D01*
X105028725Y-44370264D01*
X105028722Y-44370269D01*
X105025510Y-44374029D01*
X104896348Y-44584803D01*
X104894453Y-44589378D01*
X104806322Y-44802144D01*
X104801747Y-44813188D01*
X104744039Y-45053560D01*
X104724644Y-45300000D01*
X99808500Y-45300000D01*
X99808500Y-45239594D01*
X99828502Y-45171473D01*
X99845405Y-45150499D01*
X102195905Y-42800000D01*
X114724644Y-42800000D01*
X114744039Y-43046440D01*
X114745193Y-43051247D01*
X114745194Y-43051253D01*
X114757435Y-43102240D01*
X114801747Y-43286812D01*
X114803640Y-43291383D01*
X114803641Y-43291385D01*
X114838238Y-43374908D01*
X114896348Y-43515197D01*
X115025510Y-43725971D01*
X115028722Y-43729731D01*
X115028725Y-43729736D01*
X115169407Y-43894453D01*
X115186055Y-43913945D01*
X115189817Y-43917158D01*
X115370264Y-44071275D01*
X115370269Y-44071278D01*
X115374029Y-44074490D01*
X115584803Y-44203652D01*
X115589378Y-44205547D01*
X115808615Y-44296359D01*
X115808617Y-44296360D01*
X115813188Y-44298253D01*
X115896422Y-44318236D01*
X116048747Y-44354806D01*
X116048753Y-44354807D01*
X116053560Y-44355961D01*
X116300000Y-44375356D01*
X116546440Y-44355961D01*
X116551247Y-44354807D01*
X116551253Y-44354806D01*
X116703578Y-44318236D01*
X116786812Y-44298253D01*
X116791383Y-44296360D01*
X116791385Y-44296359D01*
X117010622Y-44205547D01*
X117015197Y-44203652D01*
X117225971Y-44074490D01*
X117229731Y-44071278D01*
X117229736Y-44071275D01*
X117410183Y-43917158D01*
X117413945Y-43913945D01*
X117430593Y-43894453D01*
X117571275Y-43729736D01*
X117571278Y-43729731D01*
X117574490Y-43725971D01*
X117703652Y-43515197D01*
X117761762Y-43374908D01*
X117796359Y-43291385D01*
X117796360Y-43291383D01*
X117798253Y-43286812D01*
X117842565Y-43102240D01*
X117854806Y-43051253D01*
X117854807Y-43051247D01*
X117855961Y-43046440D01*
X117875356Y-42800000D01*
X117855961Y-42553560D01*
X117852088Y-42537425D01*
X117799408Y-42318000D01*
X117798253Y-42313188D01*
X117794799Y-42304848D01*
X117705547Y-42089378D01*
X117703652Y-42084803D01*
X117574490Y-41874029D01*
X117571278Y-41870269D01*
X117571275Y-41870264D01*
X117417158Y-41689817D01*
X117413945Y-41686055D01*
X117366825Y-41645810D01*
X117328016Y-41586361D01*
X117327508Y-41515366D01*
X117366825Y-41454189D01*
X117401449Y-41424618D01*
X117413945Y-41413945D01*
X117488427Y-41326738D01*
X117571275Y-41229736D01*
X117571278Y-41229731D01*
X117574490Y-41225971D01*
X117703652Y-41015197D01*
X117756021Y-40888768D01*
X117796359Y-40791385D01*
X117796360Y-40791383D01*
X117798253Y-40786812D01*
X117823648Y-40681034D01*
X117854806Y-40551253D01*
X117854807Y-40551247D01*
X117855961Y-40546440D01*
X117875356Y-40300000D01*
X117855961Y-40053560D01*
X117832785Y-39957022D01*
X117812629Y-39873069D01*
X117798253Y-39813188D01*
X117779557Y-39768051D01*
X117705547Y-39589378D01*
X117703652Y-39584803D01*
X117574490Y-39374029D01*
X117571278Y-39370269D01*
X117571275Y-39370264D01*
X117417158Y-39189817D01*
X117413945Y-39186055D01*
X117366698Y-39145702D01*
X117229736Y-39028725D01*
X117229731Y-39028722D01*
X117225971Y-39025510D01*
X117015197Y-38896348D01*
X116868489Y-38835579D01*
X116791385Y-38803641D01*
X116791383Y-38803640D01*
X116786812Y-38801747D01*
X116703578Y-38781764D01*
X116551253Y-38745194D01*
X116551247Y-38745193D01*
X116546440Y-38744039D01*
X116300000Y-38724644D01*
X116053560Y-38744039D01*
X116048753Y-38745193D01*
X116048747Y-38745194D01*
X115896422Y-38781764D01*
X115813188Y-38801747D01*
X115808617Y-38803640D01*
X115808615Y-38803641D01*
X115731511Y-38835579D01*
X115584803Y-38896348D01*
X115374029Y-39025510D01*
X115370269Y-39028722D01*
X115370264Y-39028725D01*
X115233302Y-39145702D01*
X115186055Y-39186055D01*
X115182842Y-39189817D01*
X115028725Y-39370264D01*
X115028722Y-39370269D01*
X115025510Y-39374029D01*
X114896348Y-39584803D01*
X114894453Y-39589378D01*
X114820444Y-39768051D01*
X114801747Y-39813188D01*
X114787371Y-39873069D01*
X114767216Y-39957022D01*
X114744039Y-40053560D01*
X114724644Y-40300000D01*
X114744039Y-40546440D01*
X114745193Y-40551247D01*
X114745194Y-40551253D01*
X114776352Y-40681034D01*
X114801747Y-40786812D01*
X114803640Y-40791383D01*
X114803641Y-40791385D01*
X114843979Y-40888768D01*
X114896348Y-41015197D01*
X115025510Y-41225971D01*
X115028722Y-41229731D01*
X115028725Y-41229736D01*
X115111573Y-41326738D01*
X115186055Y-41413945D01*
X115198552Y-41424618D01*
X115233175Y-41454189D01*
X115271984Y-41513639D01*
X115272492Y-41584634D01*
X115233175Y-41645810D01*
X115186055Y-41686055D01*
X115182842Y-41689817D01*
X115028725Y-41870264D01*
X115028722Y-41870269D01*
X115025510Y-41874029D01*
X114896348Y-42084803D01*
X114894453Y-42089378D01*
X114805202Y-42304848D01*
X114801747Y-42313188D01*
X114800592Y-42318000D01*
X114747913Y-42537425D01*
X114744039Y-42553560D01*
X114724644Y-42800000D01*
X102195905Y-42800000D01*
X103171959Y-41823946D01*
X103234271Y-41789920D01*
X103303488Y-41796109D01*
X103303904Y-41794829D01*
X103308625Y-41796363D01*
X103313188Y-41798253D01*
X103317992Y-41799406D01*
X103317991Y-41799406D01*
X103548747Y-41854806D01*
X103548753Y-41854807D01*
X103553560Y-41855961D01*
X103800000Y-41875356D01*
X104046440Y-41855961D01*
X104051247Y-41854807D01*
X104051253Y-41854806D01*
X104241335Y-41809171D01*
X104286812Y-41798253D01*
X104291383Y-41796360D01*
X104291385Y-41796359D01*
X104510622Y-41705547D01*
X104515197Y-41703652D01*
X104725971Y-41574490D01*
X104729731Y-41571278D01*
X104729736Y-41571275D01*
X104910183Y-41417158D01*
X104913945Y-41413945D01*
X104988427Y-41326738D01*
X105071275Y-41229736D01*
X105071278Y-41229731D01*
X105074490Y-41225971D01*
X105203652Y-41015197D01*
X105256021Y-40888768D01*
X105296359Y-40791385D01*
X105296360Y-40791383D01*
X105298253Y-40786812D01*
X105323648Y-40681034D01*
X105354806Y-40551253D01*
X105354807Y-40551247D01*
X105355961Y-40546440D01*
X105375356Y-40300000D01*
X105355961Y-40053560D01*
X105332785Y-39957022D01*
X105312629Y-39873069D01*
X105298253Y-39813188D01*
X105279557Y-39768051D01*
X105205547Y-39589378D01*
X105203652Y-39584803D01*
X105074490Y-39374029D01*
X105071278Y-39370269D01*
X105071275Y-39370264D01*
X104917158Y-39189817D01*
X104913945Y-39186055D01*
X104866698Y-39145702D01*
X104729736Y-39028725D01*
X104729731Y-39028722D01*
X104725971Y-39025510D01*
X104515197Y-38896348D01*
X104368489Y-38835579D01*
X104291385Y-38803641D01*
X104291383Y-38803640D01*
X104286812Y-38801747D01*
X104203578Y-38781764D01*
X104051253Y-38745194D01*
X104051247Y-38745193D01*
X104046440Y-38744039D01*
X103800000Y-38724644D01*
X103553560Y-38744039D01*
X103548753Y-38745193D01*
X103548747Y-38745194D01*
X103396422Y-38781764D01*
X103313188Y-38801747D01*
X103308617Y-38803640D01*
X103308615Y-38803641D01*
X103231511Y-38835579D01*
X103084803Y-38896348D01*
X102874029Y-39025510D01*
X102870269Y-39028722D01*
X102870264Y-39028725D01*
X102733302Y-39145702D01*
X102686055Y-39186055D01*
X102682842Y-39189817D01*
X102528725Y-39370264D01*
X102528722Y-39370269D01*
X102525510Y-39374029D01*
X102396348Y-39584803D01*
X102394453Y-39589378D01*
X102320444Y-39768051D01*
X102301747Y-39813188D01*
X102287371Y-39873069D01*
X102267216Y-39957022D01*
X102244039Y-40053560D01*
X102224644Y-40300000D01*
X102244039Y-40546440D01*
X102245193Y-40551247D01*
X102245194Y-40551253D01*
X102276352Y-40681034D01*
X102301747Y-40786812D01*
X102303641Y-40791385D01*
X102305171Y-40796093D01*
X102303987Y-40796478D01*
X102310958Y-40861319D01*
X102276055Y-40928041D01*
X100529014Y-42675081D01*
X98782747Y-44421348D01*
X98774461Y-44428888D01*
X98767982Y-44433000D01*
X98762557Y-44438777D01*
X98721357Y-44482651D01*
X98718602Y-44485493D01*
X98698865Y-44505230D01*
X98696385Y-44508427D01*
X98688682Y-44517447D01*
X98658414Y-44549679D01*
X98654595Y-44556625D01*
X98654593Y-44556628D01*
X98648652Y-44567434D01*
X98637801Y-44583953D01*
X98625386Y-44599959D01*
X98622241Y-44607228D01*
X98622238Y-44607232D01*
X98607826Y-44640537D01*
X98602609Y-44651187D01*
X98581305Y-44689940D01*
X98576669Y-44707998D01*
X98576267Y-44709562D01*
X98569863Y-44728266D01*
X98561819Y-44746855D01*
X98560580Y-44754678D01*
X98560577Y-44754688D01*
X98554901Y-44790524D01*
X98552495Y-44802144D01*
X98541500Y-44844970D01*
X98541500Y-44865224D01*
X98539949Y-44884934D01*
X98536780Y-44904943D01*
X98537526Y-44912835D01*
X98540941Y-44948961D01*
X98541500Y-44960819D01*
X98541500Y-53779476D01*
X98521498Y-53847597D01*
X98487771Y-53882689D01*
X98318757Y-54001034D01*
X98318754Y-54001036D01*
X98314246Y-54004193D01*
X98149193Y-54169246D01*
X98146036Y-54173754D01*
X98146034Y-54173757D01*
X98021880Y-54351067D01*
X98015309Y-54360452D01*
X98012986Y-54365434D01*
X98012983Y-54365439D01*
X97934738Y-54533235D01*
X97916661Y-54572002D01*
X97915239Y-54577310D01*
X97915238Y-54577312D01*
X97859842Y-54784056D01*
X97856248Y-54797468D01*
X97835904Y-55030000D01*
X93512500Y-55030000D01*
X93512500Y-50027376D01*
X93513933Y-50008426D01*
X93516124Y-49994027D01*
X93516124Y-49994021D01*
X93517224Y-49986792D01*
X93514620Y-49954771D01*
X93512915Y-49933817D01*
X93512500Y-49923602D01*
X93512500Y-49915475D01*
X93509189Y-49887076D01*
X93508760Y-49882736D01*
X93507625Y-49868774D01*
X93502809Y-49809574D01*
X93500553Y-49802612D01*
X93499357Y-49796624D01*
X93497949Y-49790667D01*
X93497101Y-49783393D01*
X93494603Y-49776511D01*
X93494602Y-49776507D01*
X93472055Y-49714393D01*
X93470645Y-49710289D01*
X93448013Y-49640425D01*
X93444213Y-49634162D01*
X93441675Y-49628620D01*
X93438933Y-49623144D01*
X93436434Y-49616259D01*
X93432419Y-49610135D01*
X93396185Y-49554868D01*
X93393870Y-49551200D01*
X93355773Y-49488419D01*
X93348333Y-49479995D01*
X93348362Y-49479969D01*
X93345762Y-49477038D01*
X93342958Y-49473684D01*
X93338946Y-49467565D01*
X93282413Y-49414011D01*
X93279972Y-49411634D01*
X92660905Y-48792567D01*
X92626879Y-48730255D01*
X92624000Y-48703472D01*
X92624000Y-47626366D01*
X92617245Y-47564184D01*
X92566115Y-47427795D01*
X92478761Y-47311239D01*
X92362205Y-47223885D01*
X92225816Y-47172755D01*
X92163634Y-47166000D01*
X90416366Y-47166000D01*
X90354184Y-47172755D01*
X90217795Y-47223885D01*
X90101239Y-47311239D01*
X90013885Y-47427795D01*
X89962755Y-47564184D01*
X89961681Y-47563782D01*
X89930204Y-47618880D01*
X89867249Y-47651701D01*
X89796544Y-47645275D01*
X89753744Y-47617183D01*
X89610754Y-47474193D01*
X89606246Y-47471036D01*
X89606243Y-47471034D01*
X89424057Y-47343466D01*
X89424055Y-47343465D01*
X89419548Y-47340309D01*
X89414566Y-47337986D01*
X89414561Y-47337983D01*
X89212980Y-47243984D01*
X89212978Y-47243983D01*
X89207998Y-47241661D01*
X89202690Y-47240239D01*
X89202688Y-47240238D01*
X88987847Y-47182672D01*
X88987845Y-47182672D01*
X88982532Y-47181248D01*
X88750000Y-47160904D01*
X88517468Y-47181248D01*
X88512155Y-47182672D01*
X88512153Y-47182672D01*
X88297312Y-47240238D01*
X88297310Y-47240239D01*
X88292002Y-47241661D01*
X88287022Y-47243983D01*
X88287020Y-47243984D01*
X88085439Y-47337983D01*
X88085434Y-47337986D01*
X88080452Y-47340309D01*
X88075945Y-47343465D01*
X88075943Y-47343466D01*
X87893757Y-47471034D01*
X87893754Y-47471036D01*
X87889246Y-47474193D01*
X87724193Y-47639246D01*
X87721036Y-47643754D01*
X87721034Y-47643757D01*
X87647167Y-47749250D01*
X87590309Y-47830452D01*
X87588726Y-47833847D01*
X87537734Y-47882466D01*
X87468020Y-47895900D01*
X87402110Y-47869512D01*
X87371353Y-47834017D01*
X87369691Y-47830452D01*
X87312833Y-47749250D01*
X87238966Y-47643757D01*
X87238964Y-47643754D01*
X87235807Y-47639246D01*
X87070754Y-47474193D01*
X87026228Y-47443016D01*
X86981901Y-47387560D01*
X86972500Y-47339804D01*
X86972500Y-43673028D01*
X86992502Y-43604907D01*
X87009405Y-43583933D01*
X88364965Y-42228373D01*
X88427277Y-42194347D01*
X88498092Y-42199412D01*
X88554928Y-42241959D01*
X88577802Y-42304612D01*
X88579093Y-42304431D01*
X88579812Y-42309549D01*
X88580110Y-42314715D01*
X88581247Y-42319761D01*
X88581248Y-42319767D01*
X88589605Y-42356849D01*
X88629222Y-42532639D01*
X88713266Y-42739616D01*
X88750714Y-42800725D01*
X88827291Y-42925688D01*
X88829987Y-42930088D01*
X88976250Y-43098938D01*
X89148126Y-43241632D01*
X89341000Y-43354338D01*
X89345825Y-43356180D01*
X89345826Y-43356181D01*
X89386178Y-43371590D01*
X89549692Y-43434030D01*
X89554760Y-43435061D01*
X89554763Y-43435062D01*
X89662017Y-43456883D01*
X89768597Y-43478567D01*
X89773772Y-43478757D01*
X89773774Y-43478757D01*
X89986673Y-43486564D01*
X89986677Y-43486564D01*
X89991837Y-43486753D01*
X89996957Y-43486097D01*
X89996959Y-43486097D01*
X90208288Y-43459025D01*
X90208289Y-43459025D01*
X90213416Y-43458368D01*
X90218366Y-43456883D01*
X90422429Y-43395661D01*
X90422434Y-43395659D01*
X90427384Y-43394174D01*
X90627994Y-43295896D01*
X90809860Y-43166173D01*
X90968096Y-43008489D01*
X91027594Y-42925689D01*
X91098453Y-42827077D01*
X91099776Y-42828028D01*
X91146645Y-42784857D01*
X91216580Y-42772625D01*
X91282026Y-42800144D01*
X91309875Y-42831994D01*
X91369987Y-42930088D01*
X91516250Y-43098938D01*
X91688126Y-43241632D01*
X91881000Y-43354338D01*
X91885825Y-43356180D01*
X91885826Y-43356181D01*
X91926178Y-43371590D01*
X92089692Y-43434030D01*
X92094760Y-43435061D01*
X92094763Y-43435062D01*
X92202017Y-43456883D01*
X92308597Y-43478567D01*
X92313772Y-43478757D01*
X92313774Y-43478757D01*
X92526673Y-43486564D01*
X92526677Y-43486564D01*
X92531837Y-43486753D01*
X92536957Y-43486097D01*
X92536959Y-43486097D01*
X92748288Y-43459025D01*
X92748289Y-43459025D01*
X92753416Y-43458368D01*
X92758366Y-43456883D01*
X92962429Y-43395661D01*
X92962434Y-43395659D01*
X92967384Y-43394174D01*
X93167994Y-43295896D01*
X93349860Y-43166173D01*
X93508096Y-43008489D01*
X93567594Y-42925689D01*
X93638453Y-42827077D01*
X93639776Y-42828028D01*
X93686645Y-42784857D01*
X93756580Y-42772625D01*
X93822026Y-42800144D01*
X93849875Y-42831994D01*
X93909987Y-42930088D01*
X94056250Y-43098938D01*
X94228126Y-43241632D01*
X94421000Y-43354338D01*
X94425825Y-43356180D01*
X94425826Y-43356181D01*
X94466178Y-43371590D01*
X94629692Y-43434030D01*
X94634760Y-43435061D01*
X94634763Y-43435062D01*
X94742017Y-43456883D01*
X94848597Y-43478567D01*
X94853772Y-43478757D01*
X94853774Y-43478757D01*
X95066673Y-43486564D01*
X95066677Y-43486564D01*
X95071837Y-43486753D01*
X95076957Y-43486097D01*
X95076959Y-43486097D01*
X95288288Y-43459025D01*
X95288289Y-43459025D01*
X95293416Y-43458368D01*
X95298366Y-43456883D01*
X95502429Y-43395661D01*
X95502434Y-43395659D01*
X95507384Y-43394174D01*
X95707994Y-43295896D01*
X95889860Y-43166173D01*
X96048096Y-43008489D01*
X96107594Y-42925689D01*
X96175435Y-42831277D01*
X96178453Y-42827077D01*
X96195323Y-42792944D01*
X96275136Y-42631453D01*
X96275137Y-42631451D01*
X96277430Y-42626811D01*
X96330723Y-42451403D01*
X96340865Y-42418023D01*
X96340865Y-42418021D01*
X96342370Y-42413069D01*
X96371529Y-42191590D01*
X96371988Y-42172800D01*
X96373074Y-42128365D01*
X96373074Y-42128361D01*
X96373156Y-42125000D01*
X96354852Y-41902361D01*
X96300431Y-41685702D01*
X96211354Y-41480840D01*
X96111661Y-41326738D01*
X96092822Y-41297617D01*
X96092820Y-41297614D01*
X96090014Y-41293277D01*
X96070156Y-41271453D01*
X95942798Y-41131488D01*
X95911746Y-41067642D01*
X95920141Y-40997143D01*
X95965317Y-40942375D01*
X95991761Y-40928706D01*
X96098297Y-40888767D01*
X96106705Y-40885615D01*
X96223261Y-40798261D01*
X96310615Y-40681705D01*
X96361745Y-40545316D01*
X96368500Y-40483134D01*
X96368500Y-38686866D01*
X96361745Y-38624684D01*
X96310615Y-38488295D01*
X96223261Y-38371739D01*
X96106705Y-38284385D01*
X95970316Y-38233255D01*
X95908134Y-38226500D01*
X94111866Y-38226500D01*
X94049684Y-38233255D01*
X93913295Y-38284385D01*
X93796739Y-38371739D01*
X93709385Y-38488295D01*
X93658255Y-38624684D01*
X93651500Y-38686866D01*
X93651500Y-38719072D01*
X93631498Y-38787193D01*
X93596209Y-38817863D01*
X93596427Y-38818096D01*
X93591689Y-38822521D01*
X92842022Y-39572188D01*
X92834408Y-39586132D01*
X92834539Y-39587965D01*
X92838790Y-39594580D01*
X93580474Y-40336264D01*
X93585887Y-40339220D01*
X93636088Y-40389423D01*
X93651500Y-40449807D01*
X93651500Y-40483134D01*
X93658255Y-40545316D01*
X93709385Y-40681705D01*
X93796739Y-40798261D01*
X93913295Y-40885615D01*
X93921704Y-40888767D01*
X93921705Y-40888768D01*
X94030451Y-40929535D01*
X94087216Y-40972176D01*
X94111916Y-41038738D01*
X94096709Y-41108087D01*
X94077316Y-41134568D01*
X93955676Y-41261857D01*
X93950629Y-41267138D01*
X93843201Y-41424621D01*
X93788293Y-41469621D01*
X93717768Y-41477792D01*
X93654021Y-41446538D01*
X93633324Y-41422054D01*
X93552822Y-41297617D01*
X93552820Y-41297614D01*
X93550014Y-41293277D01*
X93399670Y-41128051D01*
X93395619Y-41124852D01*
X93395615Y-41124848D01*
X93228414Y-40992800D01*
X93228410Y-40992798D01*
X93224359Y-40989598D01*
X93182569Y-40966529D01*
X93132598Y-40916097D01*
X93117826Y-40846654D01*
X93142942Y-40780248D01*
X93170293Y-40753642D01*
X93219247Y-40718723D01*
X93227648Y-40708023D01*
X93220660Y-40694870D01*
X92482812Y-39957022D01*
X92468868Y-39949408D01*
X92467035Y-39949539D01*
X92460420Y-39953790D01*
X91716737Y-40697473D01*
X91709977Y-40709853D01*
X91715258Y-40716907D01*
X91761969Y-40744203D01*
X91810693Y-40795841D01*
X91823764Y-40865624D01*
X91797033Y-40931396D01*
X91756584Y-40964752D01*
X91743607Y-40971507D01*
X91739474Y-40974610D01*
X91739471Y-40974612D01*
X91582504Y-41092466D01*
X91564965Y-41105635D01*
X91561393Y-41109373D01*
X91415676Y-41261857D01*
X91410629Y-41267138D01*
X91303201Y-41424621D01*
X91248293Y-41469621D01*
X91177768Y-41477792D01*
X91114021Y-41446538D01*
X91093324Y-41422054D01*
X91012822Y-41297617D01*
X91012820Y-41297614D01*
X91010014Y-41293277D01*
X90859670Y-41128051D01*
X90855619Y-41124852D01*
X90855615Y-41124848D01*
X90688414Y-40992800D01*
X90688410Y-40992798D01*
X90684359Y-40989598D01*
X90643053Y-40966796D01*
X90593084Y-40916364D01*
X90578312Y-40846921D01*
X90603428Y-40780516D01*
X90630780Y-40753909D01*
X90708267Y-40698638D01*
X90809860Y-40626173D01*
X90817396Y-40618664D01*
X90898884Y-40537460D01*
X90968096Y-40468489D01*
X90973396Y-40461114D01*
X91098453Y-40287077D01*
X91099640Y-40287930D01*
X91146960Y-40244362D01*
X91216897Y-40232145D01*
X91282338Y-40259678D01*
X91310166Y-40291512D01*
X91336459Y-40334419D01*
X91346916Y-40343880D01*
X91355694Y-40340096D01*
X92097978Y-39597812D01*
X92105592Y-39583868D01*
X92105461Y-39582035D01*
X92101210Y-39575420D01*
X91359849Y-38834059D01*
X91348313Y-38827759D01*
X91336031Y-38837382D01*
X91303499Y-38885072D01*
X91248587Y-38930075D01*
X91178063Y-38938246D01*
X91114316Y-38906992D01*
X91093618Y-38882508D01*
X91012822Y-38757617D01*
X91012820Y-38757614D01*
X91010014Y-38753277D01*
X90859670Y-38588051D01*
X90855619Y-38584852D01*
X90855615Y-38584848D01*
X90699338Y-38461427D01*
X91711223Y-38461427D01*
X91717968Y-38473758D01*
X92457188Y-39212978D01*
X92471132Y-39220592D01*
X92472965Y-39220461D01*
X92479580Y-39216210D01*
X93223389Y-38472401D01*
X93230410Y-38459544D01*
X93223611Y-38450213D01*
X93219554Y-38447518D01*
X93033117Y-38344599D01*
X93023705Y-38340369D01*
X92822959Y-38269280D01*
X92812989Y-38266646D01*
X92603327Y-38229301D01*
X92593073Y-38228331D01*
X92380116Y-38225728D01*
X92369832Y-38226448D01*
X92159321Y-38258661D01*
X92149293Y-38261050D01*
X91946868Y-38327212D01*
X91937359Y-38331209D01*
X91748466Y-38429540D01*
X91739734Y-38435039D01*
X91719677Y-38450099D01*
X91711223Y-38461427D01*
X90699338Y-38461427D01*
X90688414Y-38452800D01*
X90688410Y-38452798D01*
X90684359Y-38449598D01*
X90488789Y-38341638D01*
X90483920Y-38339914D01*
X90483916Y-38339912D01*
X90283087Y-38268795D01*
X90283083Y-38268794D01*
X90278212Y-38267069D01*
X90273119Y-38266162D01*
X90273116Y-38266161D01*
X90063373Y-38228800D01*
X90063367Y-38228799D01*
X90058284Y-38227894D01*
X89984452Y-38226992D01*
X89840081Y-38225228D01*
X89840079Y-38225228D01*
X89834911Y-38225165D01*
X89614091Y-38258955D01*
X89401756Y-38328357D01*
X89203607Y-38431507D01*
X89199474Y-38434610D01*
X89199471Y-38434612D01*
X89029100Y-38562530D01*
X89024965Y-38565635D01*
X88870629Y-38727138D01*
X88867715Y-38731410D01*
X88867714Y-38731411D01*
X88797692Y-38834059D01*
X88744743Y-38911680D01*
X88650688Y-39114305D01*
X88590989Y-39329570D01*
X88567251Y-39551695D01*
X88567548Y-39556848D01*
X88567548Y-39556851D01*
X88569342Y-39587965D01*
X88580110Y-39774715D01*
X88581247Y-39779759D01*
X88581826Y-39783881D01*
X88571501Y-39854123D01*
X88546148Y-39890514D01*
X86205095Y-42231567D01*
X86142783Y-42265593D01*
X86071968Y-42260528D01*
X86015132Y-42217981D01*
X85990321Y-42151461D01*
X85990000Y-42142472D01*
X85990000Y-40645267D01*
X85990527Y-40634084D01*
X85992202Y-40626591D01*
X85990062Y-40558514D01*
X85990000Y-40554555D01*
X85990000Y-40526644D01*
X85989495Y-40522644D01*
X85988562Y-40510801D01*
X85988524Y-40509570D01*
X85987173Y-40466611D01*
X85981521Y-40447157D01*
X85977513Y-40427800D01*
X85975968Y-40415570D01*
X85975968Y-40415569D01*
X85974974Y-40407703D01*
X85968459Y-40391248D01*
X85958696Y-40366588D01*
X85954851Y-40355358D01*
X85944729Y-40320517D01*
X85944729Y-40320516D01*
X85942518Y-40312907D01*
X85938485Y-40306088D01*
X85938483Y-40306083D01*
X85932207Y-40295472D01*
X85923512Y-40277724D01*
X85916052Y-40258883D01*
X85890064Y-40223113D01*
X85883548Y-40213193D01*
X85865080Y-40181965D01*
X85865078Y-40181962D01*
X85861042Y-40175138D01*
X85846721Y-40160817D01*
X85833880Y-40145783D01*
X85826631Y-40135806D01*
X85821972Y-40129393D01*
X85787895Y-40101202D01*
X85779116Y-40093212D01*
X84366218Y-38680313D01*
X84332192Y-38618001D01*
X84334755Y-38554589D01*
X84345865Y-38518022D01*
X84347370Y-38513069D01*
X84376529Y-38291590D01*
X84377128Y-38267069D01*
X84378074Y-38228365D01*
X84378074Y-38228361D01*
X84378156Y-38225000D01*
X84359852Y-38002361D01*
X84305431Y-37785702D01*
X84216354Y-37580840D01*
X84095014Y-37393277D01*
X83944670Y-37228051D01*
X83940619Y-37224852D01*
X83940615Y-37224848D01*
X83773414Y-37092800D01*
X83773410Y-37092798D01*
X83769359Y-37089598D01*
X83753029Y-37080583D01*
X83717136Y-37060769D01*
X83573789Y-36981638D01*
X83568920Y-36979914D01*
X83568916Y-36979912D01*
X83368087Y-36908795D01*
X83368083Y-36908794D01*
X83363212Y-36907069D01*
X83358119Y-36906162D01*
X83358116Y-36906161D01*
X83148373Y-36868800D01*
X83148367Y-36868799D01*
X83143284Y-36867894D01*
X83069452Y-36866992D01*
X82925081Y-36865228D01*
X82925079Y-36865228D01*
X82919911Y-36865165D01*
X82699091Y-36898955D01*
X82486756Y-36968357D01*
X82288607Y-37071507D01*
X82284474Y-37074610D01*
X82284471Y-37074612D01*
X82114100Y-37202530D01*
X82109965Y-37205635D01*
X82053537Y-37264684D01*
X82029283Y-37290064D01*
X81967759Y-37325494D01*
X81896846Y-37322037D01*
X81839060Y-37280791D01*
X81820207Y-37247243D01*
X81778767Y-37136703D01*
X81775615Y-37128295D01*
X81688261Y-37011739D01*
X81571705Y-36924385D01*
X81435316Y-36873255D01*
X81373134Y-36866500D01*
X79576866Y-36866500D01*
X79514684Y-36873255D01*
X79378295Y-36924385D01*
X79261739Y-37011739D01*
X79174385Y-37128295D01*
X79123255Y-37264684D01*
X79116500Y-37326866D01*
X79116500Y-39123134D01*
X79123255Y-39185316D01*
X79174385Y-39321705D01*
X79261739Y-39438261D01*
X79378295Y-39525615D01*
X79386704Y-39528767D01*
X79386705Y-39528768D01*
X79495451Y-39569535D01*
X79552216Y-39612176D01*
X79576916Y-39678738D01*
X79561709Y-39748087D01*
X79542316Y-39774568D01*
X79415629Y-39907138D01*
X79289743Y-40091680D01*
X79264629Y-40145783D01*
X79203390Y-40277713D01*
X79195688Y-40294305D01*
X79135989Y-40509570D01*
X79112251Y-40731695D01*
X79112548Y-40736848D01*
X79112548Y-40736851D01*
X79122883Y-40916097D01*
X79125110Y-40954715D01*
X79126247Y-40959761D01*
X79126248Y-40959767D01*
X79143416Y-41035943D01*
X79174222Y-41172639D01*
X79258266Y-41379616D01*
X79299276Y-41446538D01*
X79372291Y-41565688D01*
X79374987Y-41570088D01*
X79521250Y-41738938D01*
X79594087Y-41799408D01*
X79689048Y-41878246D01*
X79693126Y-41881632D01*
X79720011Y-41897342D01*
X79766445Y-41924476D01*
X79815169Y-41976114D01*
X79828240Y-42045897D01*
X79801509Y-42111669D01*
X79761055Y-42145027D01*
X79748607Y-42151507D01*
X79744474Y-42154610D01*
X79744471Y-42154612D01*
X79628136Y-42241959D01*
X79569965Y-42285635D01*
X79415629Y-42447138D01*
X79412720Y-42451403D01*
X79412714Y-42451411D01*
X79346316Y-42548747D01*
X79289743Y-42631680D01*
X79274003Y-42665590D01*
X79198602Y-42828028D01*
X79195688Y-42834305D01*
X79135989Y-43049570D01*
X79112251Y-43271695D01*
X79112548Y-43276848D01*
X79112548Y-43276851D01*
X79119289Y-43393757D01*
X79125110Y-43494715D01*
X79126247Y-43499761D01*
X79126248Y-43499767D01*
X79143416Y-43575943D01*
X79174222Y-43712639D01*
X79211174Y-43803641D01*
X79254436Y-43910183D01*
X79258266Y-43919616D01*
X79309019Y-44002438D01*
X79372291Y-44105688D01*
X79374987Y-44110088D01*
X79521250Y-44278938D01*
X79693126Y-44421632D01*
X79886000Y-44534338D01*
X79890825Y-44536180D01*
X79890826Y-44536181D01*
X79963612Y-44563975D01*
X80094692Y-44614030D01*
X80099760Y-44615061D01*
X80099763Y-44615062D01*
X80207017Y-44636883D01*
X80313597Y-44658567D01*
X80318772Y-44658757D01*
X80318774Y-44658757D01*
X80531673Y-44666564D01*
X80531677Y-44666564D01*
X80536837Y-44666753D01*
X80541957Y-44666097D01*
X80541959Y-44666097D01*
X80753288Y-44639025D01*
X80753289Y-44639025D01*
X80758416Y-44638368D01*
X80763366Y-44636883D01*
X80967429Y-44575661D01*
X80967434Y-44575659D01*
X80972384Y-44574174D01*
X81172994Y-44475896D01*
X81354860Y-44346173D01*
X81513096Y-44188489D01*
X81572594Y-44105689D01*
X81643453Y-44007077D01*
X81644776Y-44008028D01*
X81691645Y-43964857D01*
X81761580Y-43952625D01*
X81827026Y-43980144D01*
X81854875Y-44011994D01*
X81861574Y-44022926D01*
X81914987Y-44110088D01*
X82061250Y-44278938D01*
X82233126Y-44421632D01*
X82303204Y-44462582D01*
X82367870Y-44500370D01*
X82416594Y-44552009D01*
X82430300Y-44609158D01*
X82430300Y-47579733D01*
X82429222Y-47596180D01*
X82425255Y-47626311D01*
X82426333Y-47634499D01*
X82430300Y-47664630D01*
X82430300Y-47664632D01*
X82443226Y-47762811D01*
X82445350Y-47778948D01*
X82481059Y-47865157D01*
X82504266Y-47921184D01*
X82535844Y-47962337D01*
X82597987Y-48043324D01*
X82604537Y-48048350D01*
X82604541Y-48048354D01*
X82622109Y-48061834D01*
X82634501Y-48072702D01*
X83112237Y-48550438D01*
X83146263Y-48612750D01*
X83148452Y-48652703D01*
X83146496Y-48671311D01*
X83147186Y-48677876D01*
X83162770Y-48826145D01*
X83166458Y-48861239D01*
X83225473Y-49042867D01*
X83320960Y-49208255D01*
X83394137Y-49289526D01*
X83424853Y-49353532D01*
X83426500Y-49373835D01*
X83426500Y-51535236D01*
X83406498Y-51603357D01*
X83352842Y-51649850D01*
X83282568Y-51659954D01*
X83217988Y-51630460D01*
X83191381Y-51598236D01*
X83188934Y-51593998D01*
X83063972Y-51415533D01*
X83056916Y-51407125D01*
X82902875Y-51253084D01*
X82894467Y-51246028D01*
X82716007Y-51121069D01*
X82706511Y-51115586D01*
X82509053Y-51023510D01*
X82498761Y-51019764D01*
X82326497Y-50973606D01*
X82312401Y-50973942D01*
X82309000Y-50981884D01*
X82309000Y-52383000D01*
X82288998Y-52451121D01*
X82235342Y-52497614D01*
X82183000Y-52509000D01*
X80787033Y-52509000D01*
X80773502Y-52512973D01*
X80772273Y-52521522D01*
X80819764Y-52698761D01*
X80823510Y-52709053D01*
X80915586Y-52906511D01*
X80921069Y-52916007D01*
X81046028Y-53094467D01*
X81053084Y-53102875D01*
X81207125Y-53256916D01*
X81215533Y-53263972D01*
X81393993Y-53388931D01*
X81403489Y-53394414D01*
X81438049Y-53410529D01*
X81491334Y-53457446D01*
X81510795Y-53525723D01*
X81490253Y-53593683D01*
X81438049Y-53638919D01*
X81403238Y-53655151D01*
X81403233Y-53655154D01*
X81398251Y-53657477D01*
X81342245Y-53696693D01*
X81215211Y-53785643D01*
X81215208Y-53785645D01*
X81210700Y-53788802D01*
X81048802Y-53950700D01*
X81045645Y-53955208D01*
X81045643Y-53955211D01*
X81019273Y-53992872D01*
X80917477Y-54138251D01*
X80915154Y-54143233D01*
X80915151Y-54143238D01*
X80838991Y-54306565D01*
X80820716Y-54345757D01*
X80819294Y-54351065D01*
X80819293Y-54351067D01*
X80777796Y-54505935D01*
X80761457Y-54566913D01*
X80741502Y-54795000D01*
X80761457Y-55023087D01*
X80762881Y-55028400D01*
X80762881Y-55028402D01*
X80777609Y-55083365D01*
X80820716Y-55244243D01*
X80823039Y-55249224D01*
X80823039Y-55249225D01*
X80915151Y-55446762D01*
X80915154Y-55446767D01*
X80917477Y-55451749D01*
X80949381Y-55497312D01*
X81037022Y-55622476D01*
X81048802Y-55639300D01*
X81210700Y-55801198D01*
X81215208Y-55804355D01*
X81215211Y-55804357D01*
X81293389Y-55859098D01*
X81398251Y-55932523D01*
X81403233Y-55934846D01*
X81403238Y-55934849D01*
X81437457Y-55950805D01*
X81490742Y-55997722D01*
X81510203Y-56065999D01*
X81489661Y-56133959D01*
X81437457Y-56179195D01*
X81403238Y-56195151D01*
X81403233Y-56195154D01*
X81398251Y-56197477D01*
X81329779Y-56245422D01*
X81215211Y-56325643D01*
X81215208Y-56325645D01*
X81210700Y-56328802D01*
X81048802Y-56490700D01*
X81045645Y-56495208D01*
X81045643Y-56495211D01*
X81003480Y-56555426D01*
X80917477Y-56678251D01*
X80915154Y-56683233D01*
X80915151Y-56683238D01*
X80845187Y-56833279D01*
X80820716Y-56885757D01*
X80819294Y-56891065D01*
X80819293Y-56891067D01*
X80771904Y-57067924D01*
X80761457Y-57106913D01*
X80741502Y-57335000D01*
X80761457Y-57563087D01*
X80762881Y-57568400D01*
X80762881Y-57568402D01*
X80782050Y-57639939D01*
X80820716Y-57784243D01*
X80823039Y-57789224D01*
X80823039Y-57789225D01*
X80915151Y-57986762D01*
X80915154Y-57986767D01*
X80917477Y-57991749D01*
X80949381Y-58037312D01*
X81022581Y-58141852D01*
X81048802Y-58179300D01*
X81210700Y-58341198D01*
X81215208Y-58344355D01*
X81215211Y-58344357D01*
X81293351Y-58399071D01*
X81398251Y-58472523D01*
X81403233Y-58474846D01*
X81403238Y-58474849D01*
X81437457Y-58490805D01*
X81490742Y-58537722D01*
X81510203Y-58605999D01*
X81489661Y-58673959D01*
X81437457Y-58719195D01*
X81403238Y-58735151D01*
X81403233Y-58735154D01*
X81398251Y-58737477D01*
X81342245Y-58776693D01*
X81215211Y-58865643D01*
X81215208Y-58865645D01*
X81210700Y-58868802D01*
X81048802Y-59030700D01*
X81045645Y-59035208D01*
X81045643Y-59035211D01*
X81019102Y-59073116D01*
X80917477Y-59218251D01*
X80915154Y-59223233D01*
X80915151Y-59223238D01*
X80837675Y-59389388D01*
X80820716Y-59425757D01*
X80819294Y-59431065D01*
X80819293Y-59431067D01*
X80773849Y-59600665D01*
X80761457Y-59646913D01*
X80741502Y-59875000D01*
X80761457Y-60103087D01*
X80762881Y-60108400D01*
X80762881Y-60108402D01*
X80817411Y-60311907D01*
X80820716Y-60324243D01*
X80823039Y-60329224D01*
X80823039Y-60329225D01*
X80915151Y-60526762D01*
X80915154Y-60526767D01*
X80917477Y-60531749D01*
X81048802Y-60719300D01*
X81210700Y-60881198D01*
X81215208Y-60884355D01*
X81215211Y-60884357D01*
X81367771Y-60991181D01*
X81412099Y-61046638D01*
X81421500Y-61094394D01*
X81421500Y-72413614D01*
X81401498Y-72481735D01*
X81347842Y-72528228D01*
X81277568Y-72538332D01*
X81212988Y-72508838D01*
X81174231Y-72447816D01*
X81165175Y-72415706D01*
X81165174Y-72415704D01*
X81163607Y-72410147D01*
X81152980Y-72388596D01*
X81076056Y-72232610D01*
X81073501Y-72227429D01*
X81055096Y-72202781D01*
X80955058Y-72068815D01*
X80955058Y-72068814D01*
X80951605Y-72064191D01*
X80927271Y-72041697D01*
X80890826Y-71980769D01*
X80886800Y-71949172D01*
X80886800Y-65401676D01*
X80888233Y-65382726D01*
X80890424Y-65368327D01*
X80890424Y-65368321D01*
X80891524Y-65361092D01*
X80887215Y-65308117D01*
X80886800Y-65297902D01*
X80886800Y-65289775D01*
X80883489Y-65261376D01*
X80883060Y-65257036D01*
X80880438Y-65224795D01*
X80877109Y-65183874D01*
X80874853Y-65176912D01*
X80873657Y-65170924D01*
X80872249Y-65164967D01*
X80871401Y-65157693D01*
X80868903Y-65150811D01*
X80868902Y-65150807D01*
X80846355Y-65088693D01*
X80844945Y-65084589D01*
X80822313Y-65014725D01*
X80818513Y-65008462D01*
X80815975Y-65002920D01*
X80813233Y-64997444D01*
X80810734Y-64990559D01*
X80787854Y-64955661D01*
X80770485Y-64929168D01*
X80768170Y-64925500D01*
X80730073Y-64862719D01*
X80722633Y-64854295D01*
X80722662Y-64854269D01*
X80720062Y-64851338D01*
X80717258Y-64847984D01*
X80713246Y-64841865D01*
X80656713Y-64788311D01*
X80654272Y-64785934D01*
X80120905Y-64252567D01*
X80086879Y-64190255D01*
X80084000Y-64163472D01*
X80084000Y-63086366D01*
X80077245Y-63024184D01*
X80026115Y-62887795D01*
X79938761Y-62771239D01*
X79822205Y-62683885D01*
X79685816Y-62632755D01*
X79623634Y-62626000D01*
X78359000Y-62626000D01*
X78290879Y-62605998D01*
X78244386Y-62552342D01*
X78233000Y-62500000D01*
X78233000Y-59275000D01*
X78711496Y-59275000D01*
X78712186Y-59281565D01*
X78730049Y-59451518D01*
X78731458Y-59464928D01*
X78790473Y-59646556D01*
X78793776Y-59652278D01*
X78793777Y-59652279D01*
X78801177Y-59665096D01*
X78885960Y-59811944D01*
X78890378Y-59816851D01*
X78890379Y-59816852D01*
X78993344Y-59931206D01*
X79013747Y-59953866D01*
X79168248Y-60066118D01*
X79174276Y-60068802D01*
X79174278Y-60068803D01*
X79336681Y-60141109D01*
X79342712Y-60143794D01*
X79419129Y-60160037D01*
X79523056Y-60182128D01*
X79523061Y-60182128D01*
X79529513Y-60183500D01*
X79720487Y-60183500D01*
X79726939Y-60182128D01*
X79726944Y-60182128D01*
X79830871Y-60160037D01*
X79907288Y-60143794D01*
X79913319Y-60141109D01*
X80075722Y-60068803D01*
X80075724Y-60068802D01*
X80081752Y-60066118D01*
X80236253Y-59953866D01*
X80256656Y-59931206D01*
X80359621Y-59816852D01*
X80359622Y-59816851D01*
X80364040Y-59811944D01*
X80448823Y-59665096D01*
X80456223Y-59652279D01*
X80456224Y-59652278D01*
X80459527Y-59646556D01*
X80518542Y-59464928D01*
X80519952Y-59451518D01*
X80537814Y-59281565D01*
X80538504Y-59275000D01*
X80531363Y-59207061D01*
X80519232Y-59091635D01*
X80519232Y-59091633D01*
X80518542Y-59085072D01*
X80459527Y-58903444D01*
X80454347Y-58894471D01*
X80367343Y-58743777D01*
X80367341Y-58743774D01*
X80364040Y-58738056D01*
X80359620Y-58733147D01*
X80359617Y-58733143D01*
X80340865Y-58712317D01*
X80310147Y-58648310D01*
X80308500Y-58628006D01*
X80308500Y-51983503D01*
X80773606Y-51983503D01*
X80773942Y-51997599D01*
X80781884Y-52001000D01*
X81782885Y-52001000D01*
X81798124Y-51996525D01*
X81799329Y-51995135D01*
X81801000Y-51987452D01*
X81801000Y-50987033D01*
X81797027Y-50973502D01*
X81788478Y-50972273D01*
X81611239Y-51019764D01*
X81600947Y-51023510D01*
X81403489Y-51115586D01*
X81393993Y-51121069D01*
X81215533Y-51246028D01*
X81207125Y-51253084D01*
X81053084Y-51407125D01*
X81046028Y-51415533D01*
X80921069Y-51593993D01*
X80915586Y-51603489D01*
X80823510Y-51800947D01*
X80819764Y-51811239D01*
X80773606Y-51983503D01*
X80308500Y-51983503D01*
X80308500Y-51102524D01*
X80328502Y-51034403D01*
X80340858Y-51018221D01*
X80414040Y-50936944D01*
X80509527Y-50771556D01*
X80568542Y-50589928D01*
X80588504Y-50400000D01*
X80577308Y-50293478D01*
X80569232Y-50216635D01*
X80569232Y-50216633D01*
X80568542Y-50210072D01*
X80509527Y-50028444D01*
X80502892Y-50016951D01*
X80448996Y-49923602D01*
X80414040Y-49863056D01*
X80392467Y-49839096D01*
X80290675Y-49726045D01*
X80290674Y-49726044D01*
X80286253Y-49721134D01*
X80131752Y-49608882D01*
X80125724Y-49606198D01*
X80125722Y-49606197D01*
X79963319Y-49533891D01*
X79963318Y-49533891D01*
X79957288Y-49531206D01*
X79863888Y-49511353D01*
X79776944Y-49492872D01*
X79776939Y-49492872D01*
X79770487Y-49491500D01*
X79579513Y-49491500D01*
X79573061Y-49492872D01*
X79573056Y-49492872D01*
X79486112Y-49511353D01*
X79392712Y-49531206D01*
X79386682Y-49533891D01*
X79386681Y-49533891D01*
X79224278Y-49606197D01*
X79224276Y-49606198D01*
X79218248Y-49608882D01*
X79063747Y-49721134D01*
X79059326Y-49726044D01*
X79059325Y-49726045D01*
X78957534Y-49839096D01*
X78935960Y-49863056D01*
X78901004Y-49923602D01*
X78847109Y-50016951D01*
X78840473Y-50028444D01*
X78781458Y-50210072D01*
X78780768Y-50216633D01*
X78780768Y-50216635D01*
X78772692Y-50293478D01*
X78761496Y-50400000D01*
X78781458Y-50589928D01*
X78840473Y-50771556D01*
X78935960Y-50936944D01*
X79009137Y-51018215D01*
X79039853Y-51082221D01*
X79041500Y-51102524D01*
X79041500Y-58516945D01*
X79021498Y-58585066D01*
X79009136Y-58601255D01*
X78902943Y-58719195D01*
X78885960Y-58738056D01*
X78866035Y-58772567D01*
X78795654Y-58894471D01*
X78790473Y-58903444D01*
X78731458Y-59085072D01*
X78730768Y-59091633D01*
X78730768Y-59091635D01*
X78718637Y-59207061D01*
X78711496Y-59275000D01*
X78233000Y-59275000D01*
X78233000Y-48897528D01*
X78253002Y-48829407D01*
X78269905Y-48808433D01*
X78931108Y-48147230D01*
X78993420Y-48113204D01*
X79025150Y-48110422D01*
X79031981Y-48110690D01*
X79058263Y-48111723D01*
X79259883Y-48082490D01*
X79265347Y-48080635D01*
X79265352Y-48080634D01*
X79447327Y-48018862D01*
X79447332Y-48018860D01*
X79452799Y-48017004D01*
X79630551Y-47917458D01*
X79787186Y-47787186D01*
X79917458Y-47630551D01*
X80002840Y-47478090D01*
X80014180Y-47457842D01*
X80014181Y-47457840D01*
X80017004Y-47452799D01*
X80018860Y-47447332D01*
X80018862Y-47447327D01*
X80080634Y-47265352D01*
X80080635Y-47265347D01*
X80082490Y-47259883D01*
X80111723Y-47058263D01*
X80113249Y-47000000D01*
X80094608Y-46797126D01*
X80039307Y-46601047D01*
X80028680Y-46579496D01*
X79951756Y-46423510D01*
X79949201Y-46418329D01*
X79930796Y-46393681D01*
X79830758Y-46259715D01*
X79830758Y-46259714D01*
X79827305Y-46255091D01*
X79712655Y-46149109D01*
X79681943Y-46120719D01*
X79681940Y-46120717D01*
X79677703Y-46116800D01*
X79631675Y-46087759D01*
X79510288Y-46011169D01*
X79510283Y-46011167D01*
X79505404Y-46008088D01*
X79316180Y-45932595D01*
X79116366Y-45892849D01*
X79110592Y-45892773D01*
X79110588Y-45892773D01*
X79007452Y-45891424D01*
X78912655Y-45890183D01*
X78906958Y-45891162D01*
X78906957Y-45891162D01*
X78760278Y-45916366D01*
X78711870Y-45924684D01*
X78520734Y-45995198D01*
X78515773Y-45998150D01*
X78515772Y-45998150D01*
X78457528Y-46032802D01*
X78345649Y-46099363D01*
X78192478Y-46233690D01*
X78188911Y-46238215D01*
X78188906Y-46238220D01*
X78113814Y-46333475D01*
X78066351Y-46393681D01*
X78063662Y-46398792D01*
X78063660Y-46398795D01*
X78053999Y-46417158D01*
X77971492Y-46573978D01*
X77911078Y-46768543D01*
X77887132Y-46970859D01*
X77887510Y-46976625D01*
X77887359Y-46982396D01*
X77885365Y-46982344D01*
X77871820Y-47042914D01*
X77850680Y-47070982D01*
X76978972Y-47942690D01*
X76964559Y-47955077D01*
X76946936Y-47968046D01*
X76942192Y-47973629D01*
X76942193Y-47973629D01*
X76912521Y-48008555D01*
X76905591Y-48016071D01*
X76899847Y-48021815D01*
X76897573Y-48024689D01*
X76897567Y-48024696D01*
X76882128Y-48044211D01*
X76879337Y-48047615D01*
X76836555Y-48097972D01*
X76836552Y-48097976D01*
X76831816Y-48103551D01*
X76828488Y-48110068D01*
X76825111Y-48115132D01*
X76821884Y-48120356D01*
X76817340Y-48126100D01*
X76814241Y-48132731D01*
X76786268Y-48192582D01*
X76784337Y-48196533D01*
X76750957Y-48261904D01*
X76749216Y-48269019D01*
X76747079Y-48274765D01*
X76745155Y-48280548D01*
X76742056Y-48287179D01*
X76732198Y-48334577D01*
X76727108Y-48359047D01*
X76726139Y-48363329D01*
X76708696Y-48434612D01*
X76708000Y-48445830D01*
X76707961Y-48445828D01*
X76707728Y-48449729D01*
X76707339Y-48454088D01*
X76705848Y-48461256D01*
X76706046Y-48468573D01*
X76707954Y-48539077D01*
X76708000Y-48542486D01*
X76708000Y-67693124D01*
X76706567Y-67712074D01*
X76704376Y-67726473D01*
X76704376Y-67726479D01*
X76703276Y-67733708D01*
X74455300Y-67733708D01*
X74438333Y-67549058D01*
X74437637Y-67541480D01*
X74437636Y-67541477D01*
X74437108Y-67535726D01*
X74381807Y-67339647D01*
X74376787Y-67329466D01*
X74294256Y-67162110D01*
X74291701Y-67156929D01*
X74258291Y-67112187D01*
X74173258Y-66998315D01*
X74173258Y-66998314D01*
X74169805Y-66993691D01*
X74044918Y-66878246D01*
X74024443Y-66859319D01*
X74024440Y-66859317D01*
X74020203Y-66855400D01*
X73929630Y-66798253D01*
X73852788Y-66749769D01*
X73852783Y-66749767D01*
X73847904Y-66746688D01*
X73658680Y-66671195D01*
X73458866Y-66631449D01*
X73453091Y-66631373D01*
X73453087Y-66631373D01*
X73362984Y-66630194D01*
X73295131Y-66609302D01*
X73275538Y-66593300D01*
X73184405Y-66502167D01*
X73150379Y-66439855D01*
X73147500Y-66413072D01*
X73147500Y-59702368D01*
X73148933Y-59683417D01*
X73149642Y-59678761D01*
X73152223Y-59661792D01*
X73151450Y-59652279D01*
X73147915Y-59608825D01*
X73147500Y-59598611D01*
X73147500Y-59590475D01*
X73144190Y-59562084D01*
X73143757Y-59557709D01*
X73138403Y-59491872D01*
X73138402Y-59491869D01*
X73137809Y-59484573D01*
X73135554Y-59477611D01*
X73134354Y-59471607D01*
X73132948Y-59465660D01*
X73132101Y-59458393D01*
X73107053Y-59389387D01*
X73105625Y-59385227D01*
X73085269Y-59322391D01*
X73085268Y-59322389D01*
X73083012Y-59315425D01*
X73079215Y-59309168D01*
X73076660Y-59303587D01*
X73073929Y-59298134D01*
X73071434Y-59291259D01*
X73031163Y-59229835D01*
X73028842Y-59226155D01*
X72993690Y-59168225D01*
X72993686Y-59168220D01*
X72990773Y-59163419D01*
X72987055Y-59159210D01*
X72986852Y-59158934D01*
X72962861Y-59095778D01*
X72945137Y-58902880D01*
X72945136Y-58902877D01*
X72944608Y-58897126D01*
X72928203Y-58838959D01*
X72890875Y-58706606D01*
X72890874Y-58706604D01*
X72889307Y-58701047D01*
X72883274Y-58688812D01*
X72801756Y-58523510D01*
X72799201Y-58518329D01*
X72780796Y-58493681D01*
X72680758Y-58359715D01*
X72680758Y-58359714D01*
X72677305Y-58355091D01*
X72652971Y-58332597D01*
X72616526Y-58271669D01*
X72612500Y-58240072D01*
X72612500Y-56325000D01*
X73986496Y-56325000D01*
X73987186Y-56331565D01*
X74004386Y-56495211D01*
X74006458Y-56514928D01*
X74065473Y-56696556D01*
X74160960Y-56861944D01*
X74165378Y-56866851D01*
X74165379Y-56866852D01*
X74279971Y-56994119D01*
X74288747Y-57003866D01*
X74443248Y-57116118D01*
X74449276Y-57118802D01*
X74449278Y-57118803D01*
X74597969Y-57185004D01*
X74617712Y-57193794D01*
X74711113Y-57213647D01*
X74798056Y-57232128D01*
X74798061Y-57232128D01*
X74804513Y-57233500D01*
X74995487Y-57233500D01*
X75001939Y-57232128D01*
X75001944Y-57232128D01*
X75088887Y-57213647D01*
X75182288Y-57193794D01*
X75202031Y-57185004D01*
X75350722Y-57118803D01*
X75350724Y-57118802D01*
X75356752Y-57116118D01*
X75511253Y-57003866D01*
X75520029Y-56994119D01*
X75634621Y-56866852D01*
X75634622Y-56866851D01*
X75639040Y-56861944D01*
X75734527Y-56696556D01*
X75793542Y-56514928D01*
X75795615Y-56495211D01*
X75812814Y-56331565D01*
X75813504Y-56325000D01*
X75800101Y-56197477D01*
X75794232Y-56141635D01*
X75794232Y-56141633D01*
X75793542Y-56135072D01*
X75734527Y-55953444D01*
X75639040Y-55788056D01*
X75565863Y-55706785D01*
X75535147Y-55642779D01*
X75533500Y-55622476D01*
X75533500Y-55602524D01*
X75553502Y-55534403D01*
X75565858Y-55518221D01*
X75639040Y-55436944D01*
X75734527Y-55271556D01*
X75793542Y-55089928D01*
X75802729Y-55002524D01*
X75812814Y-54906565D01*
X75813504Y-54900000D01*
X75811099Y-54877120D01*
X75794232Y-54716635D01*
X75794232Y-54716633D01*
X75793542Y-54710072D01*
X75734527Y-54528444D01*
X75721532Y-54505935D01*
X75642341Y-54368774D01*
X75639040Y-54363056D01*
X75632636Y-54355943D01*
X75515675Y-54226045D01*
X75515674Y-54226044D01*
X75511253Y-54221134D01*
X75356752Y-54108882D01*
X75350724Y-54106198D01*
X75350722Y-54106197D01*
X75188319Y-54033891D01*
X75188318Y-54033891D01*
X75182288Y-54031206D01*
X75088888Y-54011353D01*
X75001944Y-53992872D01*
X75001939Y-53992872D01*
X74995487Y-53991500D01*
X74804513Y-53991500D01*
X74798061Y-53992872D01*
X74798056Y-53992872D01*
X74711112Y-54011353D01*
X74617712Y-54031206D01*
X74611682Y-54033891D01*
X74611681Y-54033891D01*
X74449278Y-54106197D01*
X74449276Y-54106198D01*
X74443248Y-54108882D01*
X74288747Y-54221134D01*
X74284326Y-54226044D01*
X74284325Y-54226045D01*
X74167365Y-54355943D01*
X74160960Y-54363056D01*
X74157659Y-54368774D01*
X74078469Y-54505935D01*
X74065473Y-54528444D01*
X74006458Y-54710072D01*
X74005768Y-54716633D01*
X74005768Y-54716635D01*
X73988901Y-54877120D01*
X73986496Y-54900000D01*
X73987186Y-54906565D01*
X73997272Y-55002524D01*
X74006458Y-55089928D01*
X74065473Y-55271556D01*
X74160960Y-55436944D01*
X74234137Y-55518215D01*
X74264853Y-55582221D01*
X74266500Y-55602524D01*
X74266500Y-55622476D01*
X74246498Y-55690597D01*
X74234142Y-55706779D01*
X74160960Y-55788056D01*
X74065473Y-55953444D01*
X74006458Y-56135072D01*
X74005768Y-56141633D01*
X74005768Y-56141635D01*
X73999899Y-56197477D01*
X73986496Y-56325000D01*
X72612500Y-56325000D01*
X72612500Y-47802298D01*
X72632502Y-47734177D01*
X72641626Y-47721729D01*
X72692785Y-47660217D01*
X72717458Y-47630551D01*
X72802840Y-47478090D01*
X72814180Y-47457842D01*
X72814181Y-47457840D01*
X72817004Y-47452799D01*
X72818860Y-47447332D01*
X72818862Y-47447327D01*
X72880634Y-47265352D01*
X72880635Y-47265347D01*
X72882490Y-47259883D01*
X72911723Y-47058263D01*
X72913249Y-47000000D01*
X72894608Y-46797126D01*
X72839307Y-46601047D01*
X72828680Y-46579496D01*
X72751756Y-46423510D01*
X72749201Y-46418329D01*
X72730796Y-46393681D01*
X72630758Y-46259715D01*
X72630758Y-46259714D01*
X72627305Y-46255091D01*
X72512655Y-46149109D01*
X72481943Y-46120719D01*
X72481940Y-46120717D01*
X72477703Y-46116800D01*
X72431675Y-46087759D01*
X72310288Y-46011169D01*
X72310283Y-46011167D01*
X72305404Y-46008088D01*
X72116180Y-45932595D01*
X71916366Y-45892849D01*
X71910592Y-45892773D01*
X71910588Y-45892773D01*
X71807452Y-45891424D01*
X71712655Y-45890183D01*
X71706958Y-45891162D01*
X71706957Y-45891162D01*
X71560278Y-45916366D01*
X71511870Y-45924684D01*
X71320734Y-45995198D01*
X71315773Y-45998150D01*
X71315772Y-45998150D01*
X71257528Y-46032802D01*
X71145649Y-46099363D01*
X70992478Y-46233690D01*
X70988911Y-46238215D01*
X70988906Y-46238220D01*
X70913814Y-46333475D01*
X70866351Y-46393681D01*
X70863662Y-46398792D01*
X70863660Y-46398795D01*
X70853999Y-46417158D01*
X70771492Y-46573978D01*
X70711078Y-46768543D01*
X70687132Y-46970859D01*
X67554000Y-46970859D01*
X67554000Y-45916366D01*
X67547245Y-45854184D01*
X67496115Y-45717795D01*
X67408761Y-45601239D01*
X67292205Y-45513885D01*
X67155816Y-45462755D01*
X67156218Y-45461681D01*
X67101120Y-45430204D01*
X67068299Y-45367249D01*
X67074725Y-45296544D01*
X67102817Y-45253744D01*
X67245807Y-45110754D01*
X67379691Y-44919548D01*
X67382014Y-44914566D01*
X67382017Y-44914561D01*
X67476016Y-44712980D01*
X67476017Y-44712978D01*
X67478339Y-44707998D01*
X67485038Y-44682999D01*
X67537328Y-44487847D01*
X67537328Y-44487845D01*
X67538752Y-44482532D01*
X67559096Y-44250000D01*
X67538752Y-44017468D01*
X67524655Y-43964857D01*
X67479762Y-43797312D01*
X67479761Y-43797310D01*
X67478339Y-43792002D01*
X67456512Y-43745194D01*
X67382017Y-43585439D01*
X67382014Y-43585434D01*
X67379691Y-43580452D01*
X67333999Y-43515197D01*
X67248966Y-43393757D01*
X67248964Y-43393754D01*
X67245807Y-43389246D01*
X67080754Y-43224193D01*
X67076246Y-43221036D01*
X67076243Y-43221034D01*
X66901871Y-43098938D01*
X66889548Y-43090309D01*
X66886153Y-43088726D01*
X66837534Y-43037734D01*
X66824100Y-42968020D01*
X66850488Y-42902110D01*
X66885983Y-42871353D01*
X66889548Y-42869691D01*
X66999154Y-42792944D01*
X67076243Y-42738966D01*
X67076246Y-42738964D01*
X67080754Y-42735807D01*
X67245807Y-42570754D01*
X67257847Y-42553560D01*
X67376534Y-42384057D01*
X67376535Y-42384055D01*
X67379691Y-42379548D01*
X67382014Y-42374566D01*
X67382017Y-42374561D01*
X67476016Y-42172980D01*
X67476017Y-42172978D01*
X67478339Y-42167998D01*
X67498344Y-42093340D01*
X67537328Y-41947847D01*
X67537328Y-41947845D01*
X67538752Y-41942532D01*
X67559096Y-41710000D01*
X67538752Y-41477468D01*
X67537093Y-41471277D01*
X67479762Y-41257312D01*
X67479761Y-41257310D01*
X67478339Y-41252002D01*
X67467956Y-41229736D01*
X67382017Y-41045439D01*
X67382014Y-41045434D01*
X67379691Y-41040452D01*
X67344083Y-40989598D01*
X67248966Y-40853757D01*
X67248964Y-40853754D01*
X67245807Y-40849246D01*
X67080754Y-40684193D01*
X67076246Y-40681036D01*
X67076243Y-40681034D01*
X66894057Y-40553466D01*
X66894055Y-40553465D01*
X66889548Y-40550309D01*
X66884566Y-40547986D01*
X66884561Y-40547983D01*
X66682980Y-40453984D01*
X66682978Y-40453983D01*
X66677998Y-40451661D01*
X66672690Y-40450239D01*
X66672688Y-40450238D01*
X66457847Y-40392672D01*
X66457845Y-40392672D01*
X66452532Y-40391248D01*
X66220000Y-40370904D01*
X65987468Y-40391248D01*
X65982155Y-40392672D01*
X65982153Y-40392672D01*
X65767312Y-40450238D01*
X65767310Y-40450239D01*
X65762002Y-40451661D01*
X65757022Y-40453983D01*
X65757020Y-40453984D01*
X65555439Y-40547983D01*
X65555434Y-40547986D01*
X65550452Y-40550309D01*
X65545945Y-40553465D01*
X65545943Y-40553466D01*
X65363757Y-40681034D01*
X65363754Y-40681036D01*
X65359246Y-40684193D01*
X65194193Y-40849246D01*
X65191036Y-40853754D01*
X65191034Y-40853757D01*
X65185739Y-40861319D01*
X65060309Y-41040452D01*
X65058726Y-41043847D01*
X65007734Y-41092466D01*
X64938020Y-41105900D01*
X64872110Y-41079512D01*
X64841353Y-41044017D01*
X64839691Y-41040452D01*
X64714261Y-40861319D01*
X64708966Y-40853757D01*
X64708964Y-40853754D01*
X64705807Y-40849246D01*
X64540754Y-40684193D01*
X64536246Y-40681036D01*
X64536243Y-40681034D01*
X64354057Y-40553466D01*
X64354055Y-40553465D01*
X64349548Y-40550309D01*
X64344566Y-40547986D01*
X64344561Y-40547983D01*
X64142980Y-40453984D01*
X64142978Y-40453983D01*
X64137998Y-40451661D01*
X64132690Y-40450239D01*
X64132688Y-40450238D01*
X63917847Y-40392672D01*
X63917845Y-40392672D01*
X63912532Y-40391248D01*
X63680000Y-40370904D01*
X63447468Y-40391248D01*
X63442155Y-40392672D01*
X63442153Y-40392672D01*
X63227312Y-40450238D01*
X63227310Y-40450239D01*
X63222002Y-40451661D01*
X63217022Y-40453983D01*
X63217020Y-40453984D01*
X63015439Y-40547983D01*
X63015434Y-40547986D01*
X63010452Y-40550309D01*
X63005945Y-40553465D01*
X63005943Y-40553466D01*
X62823757Y-40681034D01*
X62823754Y-40681036D01*
X62819246Y-40684193D01*
X62654193Y-40849246D01*
X62651036Y-40853754D01*
X62651034Y-40853757D01*
X62555917Y-40989598D01*
X62520309Y-41040452D01*
X62517986Y-41045434D01*
X62517983Y-41045439D01*
X62432044Y-41229736D01*
X62421661Y-41252002D01*
X62420239Y-41257310D01*
X62420238Y-41257312D01*
X62362907Y-41471277D01*
X62361248Y-41477468D01*
X62340904Y-41710000D01*
X62361248Y-41942532D01*
X62362672Y-41947847D01*
X62362673Y-41947850D01*
X62382638Y-42022364D01*
X62380948Y-42093340D01*
X62350026Y-42144069D01*
X62137246Y-42356849D01*
X62128960Y-42364389D01*
X62122481Y-42368501D01*
X62117056Y-42374278D01*
X62075856Y-42418152D01*
X62073101Y-42420994D01*
X62053364Y-42440731D01*
X62050884Y-42443928D01*
X62043181Y-42452948D01*
X62012913Y-42485180D01*
X62009094Y-42492126D01*
X62009092Y-42492129D01*
X62003151Y-42502935D01*
X61992300Y-42519454D01*
X61979885Y-42535460D01*
X61976740Y-42542729D01*
X61976737Y-42542733D01*
X61962325Y-42576038D01*
X61957108Y-42586688D01*
X61935804Y-42625441D01*
X61933833Y-42633116D01*
X61933833Y-42633117D01*
X61930766Y-42645063D01*
X61924362Y-42663767D01*
X61924077Y-42664427D01*
X61916318Y-42682356D01*
X61915079Y-42690179D01*
X61915076Y-42690189D01*
X61909400Y-42726025D01*
X61906994Y-42737645D01*
X61898013Y-42772625D01*
X61895999Y-42780471D01*
X61895999Y-42800725D01*
X61894448Y-42820435D01*
X61891279Y-42840444D01*
X51462408Y-42840444D01*
X51593070Y-42796090D01*
X51593072Y-42796089D01*
X51596970Y-42794766D01*
X51609879Y-42788400D01*
X51852916Y-42668548D01*
X51852921Y-42668545D01*
X51856620Y-42666721D01*
X52097335Y-42505881D01*
X52100429Y-42503168D01*
X52100435Y-42503163D01*
X52311907Y-42317705D01*
X52314996Y-42314996D01*
X52400077Y-42217981D01*
X52503164Y-42100434D01*
X52503169Y-42100427D01*
X52505881Y-42097335D01*
X52666721Y-41856619D01*
X52794766Y-41596970D01*
X52832575Y-41485590D01*
X52886498Y-41326738D01*
X52886499Y-41326734D01*
X52887825Y-41322828D01*
X52893257Y-41295522D01*
X52943500Y-41042929D01*
X52943500Y-41042926D01*
X52944304Y-41038886D01*
X52948677Y-40972176D01*
X52962969Y-40754119D01*
X52963239Y-40750000D01*
X52960488Y-40708023D01*
X52944574Y-40465229D01*
X52944573Y-40465225D01*
X52944304Y-40461114D01*
X52941529Y-40447161D01*
X52888631Y-40181222D01*
X52888629Y-40181216D01*
X52887825Y-40177172D01*
X52879893Y-40153803D01*
X52796090Y-39906930D01*
X52796089Y-39906928D01*
X52794766Y-39903030D01*
X52666721Y-39643381D01*
X52505881Y-39402665D01*
X52503169Y-39399573D01*
X52503164Y-39399566D01*
X52317705Y-39188093D01*
X52314996Y-39185004D01*
X52248321Y-39126531D01*
X52100435Y-38996837D01*
X52100429Y-38996832D01*
X52097335Y-38994119D01*
X51856620Y-38833279D01*
X51852921Y-38831455D01*
X51852916Y-38831452D01*
X51600665Y-38707056D01*
X51600663Y-38707055D01*
X51596970Y-38705234D01*
X51532853Y-38683469D01*
X51326738Y-38613502D01*
X51326734Y-38613501D01*
X51322828Y-38612175D01*
X51318784Y-38611371D01*
X51318778Y-38611369D01*
X51042929Y-38556500D01*
X51042926Y-38556500D01*
X51038886Y-38555696D01*
X51034775Y-38555427D01*
X51034771Y-38555426D01*
X50754119Y-38537031D01*
X50750000Y-38536761D01*
X50745881Y-38537031D01*
X50465229Y-38555426D01*
X50465225Y-38555427D01*
X50461114Y-38555696D01*
X50457074Y-38556500D01*
X50457071Y-38556500D01*
X50181222Y-38611369D01*
X50181216Y-38611371D01*
X50177172Y-38612175D01*
X50173266Y-38613501D01*
X50173262Y-38613502D01*
X49967147Y-38683469D01*
X49903030Y-38705234D01*
X49899337Y-38707055D01*
X49899335Y-38707056D01*
X49796808Y-38757617D01*
X49643381Y-38833279D01*
X49402665Y-38994119D01*
X49399573Y-38996831D01*
X49399566Y-38996836D01*
X49251679Y-39126531D01*
X49185004Y-39185004D01*
X49182295Y-39188093D01*
X48996836Y-39399566D01*
X48996831Y-39399573D01*
X48994119Y-39402665D01*
X48833279Y-39643381D01*
X48705234Y-39903030D01*
X48703911Y-39906928D01*
X48703910Y-39906930D01*
X48620108Y-40153803D01*
X48612175Y-40177172D01*
X48611371Y-40181216D01*
X48611369Y-40181222D01*
X48558471Y-40447161D01*
X48555696Y-40461114D01*
X48555427Y-40465225D01*
X48555426Y-40465229D01*
X48539512Y-40708023D01*
X48536761Y-40750000D01*
X43608500Y-40750000D01*
X43608500Y-36734500D01*
X43628502Y-36666379D01*
X43682158Y-36619886D01*
X43734500Y-36608500D01*
X104978979Y-36608500D01*
X105047100Y-36628502D01*
G37*
G04 #@! TD.AperFunction*
G04 #@! TA.AperFunction,Conductor*
G36*
X84069032Y-53781038D02*
G01*
X84125868Y-53823585D01*
X84150679Y-53890105D01*
X84151000Y-53899094D01*
X84151000Y-67540233D01*
X84150473Y-67551416D01*
X84148798Y-67558909D01*
X84149047Y-67566835D01*
X84149047Y-67566836D01*
X84150938Y-67626986D01*
X84151000Y-67630945D01*
X84151000Y-67658856D01*
X84151497Y-67662790D01*
X84151497Y-67662791D01*
X84151505Y-67662856D01*
X84152438Y-67674693D01*
X84153827Y-67718889D01*
X84158480Y-67734905D01*
X84159478Y-67738339D01*
X84163487Y-67757700D01*
X84166026Y-67777797D01*
X84168945Y-67785168D01*
X84168945Y-67785170D01*
X84182301Y-67818903D01*
X84186151Y-67830148D01*
X84187565Y-67835017D01*
X84191874Y-67883324D01*
X84189093Y-67909790D01*
X84162082Y-67975448D01*
X84152878Y-67985718D01*
X83627973Y-68510622D01*
X83167747Y-68970848D01*
X83159461Y-68978388D01*
X83152982Y-68982500D01*
X83147557Y-68988277D01*
X83106357Y-69032151D01*
X83103602Y-69034993D01*
X83083865Y-69054730D01*
X83081385Y-69057927D01*
X83073682Y-69066947D01*
X83043414Y-69099179D01*
X83039595Y-69106125D01*
X83039593Y-69106128D01*
X83033652Y-69116934D01*
X83022801Y-69133453D01*
X83010386Y-69149459D01*
X83008082Y-69154783D01*
X82956881Y-69202591D01*
X82900319Y-69216000D01*
X82814500Y-69216000D01*
X82746379Y-69195998D01*
X82699886Y-69142342D01*
X82688500Y-69090000D01*
X82688500Y-61094394D01*
X82708502Y-61026273D01*
X82742229Y-60991181D01*
X82894789Y-60884357D01*
X82894792Y-60884355D01*
X82899300Y-60881198D01*
X83061198Y-60719300D01*
X83192523Y-60531749D01*
X83194846Y-60526767D01*
X83194849Y-60526762D01*
X83286961Y-60329225D01*
X83286961Y-60329224D01*
X83289284Y-60324243D01*
X83292590Y-60311907D01*
X83347119Y-60108402D01*
X83347119Y-60108400D01*
X83348543Y-60103087D01*
X83368498Y-59875000D01*
X83348543Y-59646913D01*
X83336151Y-59600665D01*
X83290707Y-59431067D01*
X83290706Y-59431065D01*
X83289284Y-59425757D01*
X83272325Y-59389388D01*
X83194849Y-59223238D01*
X83194846Y-59223233D01*
X83192523Y-59218251D01*
X83090898Y-59073116D01*
X83064357Y-59035211D01*
X83064355Y-59035208D01*
X83061198Y-59030700D01*
X82899300Y-58868802D01*
X82894792Y-58865645D01*
X82894789Y-58865643D01*
X82767755Y-58776693D01*
X82711749Y-58737477D01*
X82706767Y-58735154D01*
X82706762Y-58735151D01*
X82672543Y-58719195D01*
X82619258Y-58672278D01*
X82599797Y-58604001D01*
X82620339Y-58536041D01*
X82672543Y-58490805D01*
X82706762Y-58474849D01*
X82706767Y-58474846D01*
X82711749Y-58472523D01*
X82816649Y-58399071D01*
X82894789Y-58344357D01*
X82894792Y-58344355D01*
X82899300Y-58341198D01*
X83061198Y-58179300D01*
X83087420Y-58141852D01*
X83160619Y-58037312D01*
X83192523Y-57991749D01*
X83194846Y-57986767D01*
X83194849Y-57986762D01*
X83286961Y-57789225D01*
X83286961Y-57789224D01*
X83289284Y-57784243D01*
X83327951Y-57639939D01*
X83347119Y-57568402D01*
X83347119Y-57568400D01*
X83348543Y-57563087D01*
X83368498Y-57335000D01*
X83348543Y-57106913D01*
X83338096Y-57067924D01*
X83290707Y-56891067D01*
X83290706Y-56891065D01*
X83289284Y-56885757D01*
X83264813Y-56833279D01*
X83194849Y-56683238D01*
X83194846Y-56683233D01*
X83192523Y-56678251D01*
X83106520Y-56555426D01*
X83064357Y-56495211D01*
X83064355Y-56495208D01*
X83061198Y-56490700D01*
X82899300Y-56328802D01*
X82894792Y-56325645D01*
X82894789Y-56325643D01*
X82780221Y-56245422D01*
X82711749Y-56197477D01*
X82706767Y-56195154D01*
X82706762Y-56195151D01*
X82672543Y-56179195D01*
X82619258Y-56132278D01*
X82599797Y-56064001D01*
X82620339Y-55996041D01*
X82672543Y-55950805D01*
X82706762Y-55934849D01*
X82706767Y-55934846D01*
X82711749Y-55932523D01*
X82816611Y-55859098D01*
X82894789Y-55804357D01*
X82894792Y-55804355D01*
X82899300Y-55801198D01*
X83061198Y-55639300D01*
X83072979Y-55622476D01*
X83160619Y-55497312D01*
X83192523Y-55451749D01*
X83194846Y-55446767D01*
X83194849Y-55446762D01*
X83286961Y-55249225D01*
X83286961Y-55249224D01*
X83289284Y-55244243D01*
X83332392Y-55083365D01*
X83347119Y-55028402D01*
X83347119Y-55028400D01*
X83348543Y-55023087D01*
X83368498Y-54795000D01*
X83348543Y-54566913D01*
X83347119Y-54561598D01*
X83347118Y-54561591D01*
X83331541Y-54503459D01*
X83333230Y-54432483D01*
X83364152Y-54381752D01*
X83935905Y-53809999D01*
X83998217Y-53775973D01*
X84069032Y-53781038D01*
G37*
G04 #@! TD.AperFunction*
M02*
