G04 #@! TF.GenerationSoftware,KiCad,Pcbnew,(5.0.2)-1*
G04 #@! TF.CreationDate,2020-11-24T14:27:36-08:00*
G04 #@! TF.ProjectId,MIDIExtender,4d494449-4578-4746-956e-6465722e6b69,rev?*
G04 #@! TF.SameCoordinates,Original*
G04 #@! TF.FileFunction,Copper,L2,Bot*
G04 #@! TF.FilePolarity,Positive*
%FSLAX46Y46*%
G04 Gerber Fmt 4.6, Leading zero omitted, Abs format (unit mm)*
G04 Created by KiCad (PCBNEW (5.0.2)-1) date 11/24/2020 2:27:36 PM*
%MOMM*%
%LPD*%
G01*
G04 APERTURE LIST*
G04 #@! TA.AperFunction,ComponentPad*
%ADD10R,1.651000X1.651000*%
G04 #@! TD*
G04 #@! TA.AperFunction,ComponentPad*
%ADD11C,1.651000*%
G04 #@! TD*
G04 #@! TA.AperFunction,ComponentPad*
%ADD12C,1.676400*%
G04 #@! TD*
G04 #@! TA.AperFunction,ComponentPad*
%ADD13C,3.302000*%
G04 #@! TD*
G04 #@! TA.AperFunction,ComponentPad*
%ADD14R,1.600000X1.600000*%
G04 #@! TD*
G04 #@! TA.AperFunction,ComponentPad*
%ADD15O,1.600000X1.600000*%
G04 #@! TD*
G04 #@! TA.AperFunction,ComponentPad*
%ADD16C,2.124000*%
G04 #@! TD*
G04 #@! TA.AperFunction,ComponentPad*
%ADD17O,2.540000X2.540000*%
G04 #@! TD*
G04 #@! TA.AperFunction,ComponentPad*
%ADD18C,1.500000*%
G04 #@! TD*
G04 #@! TA.AperFunction,ComponentPad*
%ADD19R,1.500000X1.500000*%
G04 #@! TD*
G04 #@! TA.AperFunction,ViaPad*
%ADD20C,4.200000*%
G04 #@! TD*
G04 #@! TA.AperFunction,ViaPad*
%ADD21C,0.800000*%
G04 #@! TD*
G04 #@! TA.AperFunction,ViaPad*
%ADD22C,1.200000*%
G04 #@! TD*
G04 #@! TA.AperFunction,Conductor*
%ADD23C,0.250000*%
G04 #@! TD*
G04 #@! TA.AperFunction,Conductor*
%ADD24C,0.508000*%
G04 #@! TD*
G04 #@! TA.AperFunction,Conductor*
%ADD25C,0.254000*%
G04 #@! TD*
G04 APERTURE END LIST*
D10*
G04 #@! TO.P,J2,1*
G04 #@! TO.N,Net-(C3-Pad1)*
X68608700Y-113693600D03*
D11*
G04 #@! TO.P,J2,2*
G04 #@! TO.N,/5V*
X68608700Y-116233600D03*
G04 #@! TD*
D12*
G04 #@! TO.P,JP1,VBUS*
G04 #@! TO.N,/5V*
X54881200Y-119349680D03*
D13*
G04 #@! TO.P,JP1,S2*
G04 #@! TO.N,GND*
X50182200Y-112080200D03*
G04 #@! TO.P,JP1,S1*
X50182200Y-124119800D03*
D12*
G04 #@! TO.P,JP1,GND*
X52900000Y-119349680D03*
G04 #@! TO.P,JP1,D-*
G04 #@! TO.N,N/C*
X54881200Y-116850320D03*
G04 #@! TO.P,JP1,D+*
X52900000Y-116850320D03*
G04 #@! TD*
D14*
G04 #@! TO.P,U2,1*
G04 #@! TO.N,N/C*
X89675000Y-105875000D03*
D15*
G04 #@! TO.P,U2,5*
G04 #@! TO.N,GND*
X82055000Y-98255000D03*
G04 #@! TO.P,U2,2*
G04 #@! TO.N,Net-(R6-Pad1)*
X89675000Y-103335000D03*
G04 #@! TO.P,U2,6*
G04 #@! TO.N,/MIDIIN*
X82055000Y-100795000D03*
G04 #@! TO.P,U2,3*
G04 #@! TO.N,Net-(J10-Pad1)*
X89675000Y-100795000D03*
G04 #@! TO.P,U2,7*
G04 #@! TO.N,N/C*
X82055000Y-103335000D03*
G04 #@! TO.P,U2,4*
X89675000Y-98255000D03*
G04 #@! TO.P,U2,8*
G04 #@! TO.N,Net-(R10-Pad1)*
X82055000Y-105875000D03*
G04 #@! TD*
D10*
G04 #@! TO.P,J10,1*
G04 #@! TO.N,Net-(J10-Pad1)*
X99175000Y-103570000D03*
D11*
G04 #@! TO.P,J10,2*
G04 #@! TO.N,Net-(J10-Pad2)*
X99175000Y-101030000D03*
G04 #@! TD*
D16*
G04 #@! TO.P,MIDI_OUT1,4*
G04 #@! TO.N,Net-(MIDI_OUT1-Pad4)*
X103800000Y-123800000D03*
G04 #@! TO.P,MIDI_OUT1,2*
G04 #@! TO.N,Net-(MIDI_OUT1-Pad2)*
X103800000Y-113800000D03*
G04 #@! TO.P,MIDI_OUT1,1*
G04 #@! TO.N,N/C*
X106300000Y-111300000D03*
G04 #@! TO.P,MIDI_OUT1,5*
X106300000Y-126300000D03*
G04 #@! TO.P,MIDI_OUT1,3*
G04 #@! TO.N,GND*
X106300000Y-118800000D03*
G04 #@! TO.P,MIDI_OUT1,M2*
G04 #@! TO.N,N/C*
X116300000Y-123800000D03*
G04 #@! TO.P,MIDI_OUT1,M1*
X116300000Y-113800000D03*
G04 #@! TO.P,MIDI_OUT1,M3*
X116300000Y-116300000D03*
G04 #@! TO.P,MIDI_OUT1,M4*
X116300000Y-121300000D03*
G04 #@! TD*
G04 #@! TO.P,MIDI_IN1,M4*
G04 #@! TO.N,N/C*
X116300000Y-93800000D03*
G04 #@! TO.P,MIDI_IN1,M3*
X116300000Y-88800000D03*
G04 #@! TO.P,MIDI_IN1,M1*
X116300000Y-86300000D03*
G04 #@! TO.P,MIDI_IN1,M2*
X116300000Y-96300000D03*
G04 #@! TO.P,MIDI_IN1,3*
X106300000Y-91300000D03*
G04 #@! TO.P,MIDI_IN1,5*
X106300000Y-98800000D03*
G04 #@! TO.P,MIDI_IN1,1*
X106300000Y-83800000D03*
G04 #@! TO.P,MIDI_IN1,2*
G04 #@! TO.N,Net-(J10-Pad2)*
X103800000Y-86300000D03*
G04 #@! TO.P,MIDI_IN1,4*
G04 #@! TO.N,Net-(J10-Pad1)*
X103800000Y-96300000D03*
G04 #@! TD*
D17*
G04 #@! TO.P,5V1,1*
G04 #@! TO.N,/5V*
X90270000Y-123300000D03*
G04 #@! TD*
D11*
G04 #@! TO.P,CHAN2,6*
G04 #@! TO.N,Net-(CHAN1-Pad6)*
X63680000Y-92790000D03*
G04 #@! TO.P,CHAN2,5*
G04 #@! TO.N,Net-(CHAN2-Pad5)*
X63680000Y-90250000D03*
G04 #@! TO.P,CHAN2,4*
G04 #@! TO.N,Net-(CHAN1-Pad4)*
X63680000Y-87710000D03*
G04 #@! TO.P,CHAN2,3*
G04 #@! TO.N,Net-(CHAN1-Pad3)*
X66220000Y-87710000D03*
G04 #@! TO.P,CHAN2,2*
G04 #@! TO.N,Net-(CHAN2-Pad2)*
X66220000Y-90250000D03*
D10*
G04 #@! TO.P,CHAN2,1*
G04 #@! TO.N,Net-(CHAN1-Pad1)*
X66220000Y-92790000D03*
G04 #@! TD*
D17*
G04 #@! TO.P,GND1,1*
G04 #@! TO.N,GND*
X94232400Y-123300000D03*
G04 #@! TD*
D18*
G04 #@! TO.P,J1,8*
G04 #@! TO.N,N/C*
X55790000Y-106040000D03*
G04 #@! TO.P,J1,7*
X53250000Y-104770000D03*
G04 #@! TO.P,J1,6*
G04 #@! TO.N,Net-(CHAN1-Pad6)*
X55790000Y-103500000D03*
G04 #@! TO.P,J1,5*
G04 #@! TO.N,Net-(CHAN1-Pad1)*
X53250000Y-102230000D03*
G04 #@! TO.P,J1,4*
G04 #@! TO.N,Net-(CHAN1-Pad4)*
X55790000Y-100960000D03*
G04 #@! TO.P,J1,3*
G04 #@! TO.N,Net-(CHAN1-Pad3)*
X53250000Y-99690000D03*
G04 #@! TO.P,J1,2*
G04 #@! TO.N,GND*
X55790000Y-98420000D03*
D19*
G04 #@! TO.P,J1,1*
G04 #@! TO.N,/5V*
X53250000Y-97150000D03*
G04 #@! TD*
D10*
G04 #@! TO.P,Pol1,1*
G04 #@! TO.N,Net-(Pol1-Pad1)*
X83560000Y-116550000D03*
D11*
G04 #@! TO.P,Pol1,2*
G04 #@! TO.N,Net-(Pol1-Pad2)*
X86100000Y-116550000D03*
G04 #@! TO.P,Pol1,3*
G04 #@! TO.N,Net-(Pol1-Pad3)*
X88640000Y-116550000D03*
G04 #@! TD*
G04 #@! TO.P,CHAN1,6*
G04 #@! TO.N,Net-(CHAN1-Pad6)*
X63530000Y-104490000D03*
G04 #@! TO.P,CHAN1,5*
G04 #@! TO.N,Net-(CHAN1-Pad5)*
X63530000Y-101950000D03*
G04 #@! TO.P,CHAN1,4*
G04 #@! TO.N,Net-(CHAN1-Pad4)*
X63530000Y-99410000D03*
G04 #@! TO.P,CHAN1,3*
G04 #@! TO.N,Net-(CHAN1-Pad3)*
X66070000Y-99410000D03*
G04 #@! TO.P,CHAN1,2*
G04 #@! TO.N,Net-(CHAN1-Pad2)*
X66070000Y-101950000D03*
D10*
G04 #@! TO.P,CHAN1,1*
G04 #@! TO.N,Net-(CHAN1-Pad1)*
X66070000Y-104490000D03*
G04 #@! TD*
D15*
G04 #@! TO.P,U2,8*
G04 #@! TO.N,Net-(R10-Pad1)*
X82055000Y-59875000D03*
G04 #@! TO.P,U2,4*
G04 #@! TO.N,N/C*
X89675000Y-52255000D03*
G04 #@! TO.P,U2,7*
X82055000Y-57335000D03*
G04 #@! TO.P,U2,3*
G04 #@! TO.N,Net-(J10-Pad1)*
X89675000Y-54795000D03*
G04 #@! TO.P,U2,6*
G04 #@! TO.N,/MIDIIN*
X82055000Y-54795000D03*
G04 #@! TO.P,U2,2*
G04 #@! TO.N,Net-(R6-Pad1)*
X89675000Y-57335000D03*
G04 #@! TO.P,U2,5*
G04 #@! TO.N,GND*
X82055000Y-52255000D03*
D14*
G04 #@! TO.P,U2,1*
G04 #@! TO.N,N/C*
X89675000Y-59875000D03*
G04 #@! TD*
D11*
G04 #@! TO.P,J2,2*
G04 #@! TO.N,/5V*
X68608700Y-70233600D03*
D10*
G04 #@! TO.P,J2,1*
G04 #@! TO.N,Net-(C3-Pad1)*
X68608700Y-67693600D03*
G04 #@! TD*
D11*
G04 #@! TO.P,J10,2*
G04 #@! TO.N,Net-(J10-Pad2)*
X99175000Y-55030000D03*
D10*
G04 #@! TO.P,J10,1*
G04 #@! TO.N,Net-(J10-Pad1)*
X99175000Y-57570000D03*
G04 #@! TD*
D12*
G04 #@! TO.P,JP1,D+*
G04 #@! TO.N,N/C*
X52900000Y-70850320D03*
G04 #@! TO.P,JP1,D-*
X54881200Y-70850320D03*
G04 #@! TO.P,JP1,GND*
G04 #@! TO.N,GND*
X52900000Y-73349680D03*
D13*
G04 #@! TO.P,JP1,S1*
X50182200Y-78119800D03*
G04 #@! TO.P,JP1,S2*
X50182200Y-66080200D03*
D12*
G04 #@! TO.P,JP1,VBUS*
G04 #@! TO.N,/5V*
X54881200Y-73349680D03*
G04 #@! TD*
D17*
G04 #@! TO.P,5V1,1*
G04 #@! TO.N,/5V*
X90270000Y-77300000D03*
G04 #@! TD*
D10*
G04 #@! TO.P,CHAN1,1*
G04 #@! TO.N,Net-(CHAN1-Pad1)*
X66070000Y-58490000D03*
D11*
G04 #@! TO.P,CHAN1,2*
G04 #@! TO.N,Net-(CHAN1-Pad2)*
X66070000Y-55950000D03*
G04 #@! TO.P,CHAN1,3*
G04 #@! TO.N,Net-(CHAN1-Pad3)*
X66070000Y-53410000D03*
G04 #@! TO.P,CHAN1,4*
G04 #@! TO.N,Net-(CHAN1-Pad4)*
X63530000Y-53410000D03*
G04 #@! TO.P,CHAN1,5*
G04 #@! TO.N,Net-(CHAN1-Pad5)*
X63530000Y-55950000D03*
G04 #@! TO.P,CHAN1,6*
G04 #@! TO.N,Net-(CHAN1-Pad6)*
X63530000Y-58490000D03*
G04 #@! TD*
D17*
G04 #@! TO.P,GND1,1*
G04 #@! TO.N,GND*
X94232400Y-77300000D03*
G04 #@! TD*
D19*
G04 #@! TO.P,J1,1*
G04 #@! TO.N,/5V*
X53250000Y-51150000D03*
D18*
G04 #@! TO.P,J1,2*
G04 #@! TO.N,GND*
X55790000Y-52420000D03*
G04 #@! TO.P,J1,3*
G04 #@! TO.N,Net-(CHAN1-Pad3)*
X53250000Y-53690000D03*
G04 #@! TO.P,J1,4*
G04 #@! TO.N,Net-(CHAN1-Pad4)*
X55790000Y-54960000D03*
G04 #@! TO.P,J1,5*
G04 #@! TO.N,Net-(CHAN1-Pad1)*
X53250000Y-56230000D03*
G04 #@! TO.P,J1,6*
G04 #@! TO.N,Net-(CHAN1-Pad6)*
X55790000Y-57500000D03*
G04 #@! TO.P,J1,7*
G04 #@! TO.N,N/C*
X53250000Y-58770000D03*
G04 #@! TO.P,J1,8*
X55790000Y-60040000D03*
G04 #@! TD*
D11*
G04 #@! TO.P,Pol1,3*
G04 #@! TO.N,Net-(Pol1-Pad3)*
X88640000Y-70550000D03*
G04 #@! TO.P,Pol1,2*
G04 #@! TO.N,Net-(Pol1-Pad2)*
X86100000Y-70550000D03*
D10*
G04 #@! TO.P,Pol1,1*
G04 #@! TO.N,Net-(Pol1-Pad1)*
X83560000Y-70550000D03*
G04 #@! TD*
G04 #@! TO.P,CHAN2,1*
G04 #@! TO.N,Net-(CHAN1-Pad1)*
X66220000Y-46790000D03*
D11*
G04 #@! TO.P,CHAN2,2*
G04 #@! TO.N,Net-(CHAN2-Pad2)*
X66220000Y-44250000D03*
G04 #@! TO.P,CHAN2,3*
G04 #@! TO.N,Net-(CHAN1-Pad3)*
X66220000Y-41710000D03*
G04 #@! TO.P,CHAN2,4*
G04 #@! TO.N,Net-(CHAN1-Pad4)*
X63680000Y-41710000D03*
G04 #@! TO.P,CHAN2,5*
G04 #@! TO.N,Net-(CHAN2-Pad5)*
X63680000Y-44250000D03*
G04 #@! TO.P,CHAN2,6*
G04 #@! TO.N,Net-(CHAN1-Pad6)*
X63680000Y-46790000D03*
G04 #@! TD*
D16*
G04 #@! TO.P,MIDI_IN1,4*
G04 #@! TO.N,Net-(J10-Pad1)*
X103800000Y-50300000D03*
G04 #@! TO.P,MIDI_IN1,2*
G04 #@! TO.N,Net-(J10-Pad2)*
X103800000Y-40300000D03*
G04 #@! TO.P,MIDI_IN1,1*
G04 #@! TO.N,N/C*
X106300000Y-37800000D03*
G04 #@! TO.P,MIDI_IN1,5*
X106300000Y-52800000D03*
G04 #@! TO.P,MIDI_IN1,3*
X106300000Y-45300000D03*
G04 #@! TO.P,MIDI_IN1,M2*
X116300000Y-50300000D03*
G04 #@! TO.P,MIDI_IN1,M1*
X116300000Y-40300000D03*
G04 #@! TO.P,MIDI_IN1,M3*
X116300000Y-42800000D03*
G04 #@! TO.P,MIDI_IN1,M4*
X116300000Y-47800000D03*
G04 #@! TD*
G04 #@! TO.P,MIDI_OUT1,M4*
G04 #@! TO.N,N/C*
X116300000Y-75300000D03*
G04 #@! TO.P,MIDI_OUT1,M3*
X116300000Y-70300000D03*
G04 #@! TO.P,MIDI_OUT1,M1*
X116300000Y-67800000D03*
G04 #@! TO.P,MIDI_OUT1,M2*
X116300000Y-77800000D03*
G04 #@! TO.P,MIDI_OUT1,3*
G04 #@! TO.N,GND*
X106300000Y-72800000D03*
G04 #@! TO.P,MIDI_OUT1,5*
G04 #@! TO.N,N/C*
X106300000Y-80300000D03*
G04 #@! TO.P,MIDI_OUT1,1*
X106300000Y-65300000D03*
G04 #@! TO.P,MIDI_OUT1,2*
G04 #@! TO.N,Net-(MIDI_OUT1-Pad2)*
X103800000Y-67800000D03*
G04 #@! TO.P,MIDI_OUT1,4*
G04 #@! TO.N,Net-(MIDI_OUT1-Pad4)*
X103800000Y-77800000D03*
G04 #@! TD*
D20*
G04 #@! TO.N,*
X90700000Y-40950000D03*
X50700000Y-40900000D03*
X64058800Y-76898500D03*
X110731300Y-58851800D03*
D21*
X88000000Y-65500000D03*
D20*
X110731300Y-104851800D03*
D21*
X88000000Y-111500000D03*
D20*
X50700000Y-86900000D03*
X64058800Y-122898500D03*
X90700000Y-86950000D03*
D21*
G04 #@! TO.N,Net-(J10-Pad1)*
X102750000Y-57600000D03*
X102750000Y-103600000D03*
G04 #@! TO.N,Net-(R10-Pad1)*
X83750000Y-74550000D03*
X83750000Y-120550000D03*
G04 #@! TO.N,/MIDIIN*
X73950000Y-53400000D03*
X84374990Y-48800000D03*
X84374990Y-94800000D03*
X73950000Y-99400000D03*
G04 #@! TO.N,GND*
X59000000Y-64500000D03*
X67000000Y-64000000D03*
X62758700Y-66013600D03*
X58258700Y-66513600D03*
X68258700Y-65013600D03*
X76500000Y-71000000D03*
X83000000Y-63000000D03*
X86500000Y-53500000D03*
X86500000Y-58500000D03*
X92000000Y-65000000D03*
X89000000Y-75500000D03*
X94000000Y-74000000D03*
X100000000Y-66500000D03*
X94500000Y-46000000D03*
X59000000Y-50000000D03*
X47500000Y-55000000D03*
X70231000Y-79654400D03*
X79500000Y-79500000D03*
X93000000Y-79000000D03*
X92500000Y-59500000D03*
X92000000Y-53500000D03*
X58982102Y-54724790D03*
X99900010Y-52500010D03*
X78841600Y-64033400D03*
X69938900Y-50800000D03*
X57569100Y-41478200D03*
X110629700Y-42189400D03*
X110769400Y-49568100D03*
X104292400Y-61125100D03*
X96304100Y-58940700D03*
X74256900Y-58216800D03*
X73444100Y-55372000D03*
X74485500Y-43776900D03*
X100000000Y-112500000D03*
X59000000Y-110500000D03*
X67000000Y-110000000D03*
X62758700Y-112013600D03*
X58258700Y-112513600D03*
X68258700Y-111013600D03*
X76500000Y-117000000D03*
X83000000Y-109000000D03*
X94000000Y-120000000D03*
X110629700Y-88189400D03*
X92000000Y-99500000D03*
X59000000Y-96000000D03*
X69938900Y-96800000D03*
X92500000Y-105500000D03*
X99900010Y-98500010D03*
X79500000Y-125500000D03*
X78841600Y-110033400D03*
X57569100Y-87478200D03*
X96304100Y-104940700D03*
X47500000Y-101000000D03*
X110769400Y-95568100D03*
X74485500Y-89776900D03*
X94500000Y-92000000D03*
X74256900Y-104216800D03*
X93000000Y-125000000D03*
X104292400Y-107125100D03*
X73444100Y-101372000D03*
X70231000Y-125654400D03*
X58982102Y-100724790D03*
X86500000Y-99500000D03*
X86500000Y-104500000D03*
X92000000Y-111000000D03*
X89000000Y-121500000D03*
G04 #@! TO.N,/5V*
X97675000Y-48700000D03*
X96850000Y-75500000D03*
X96850000Y-121500000D03*
X97675000Y-94700000D03*
G04 #@! TO.N,Net-(CHAN1-Pad5)*
X68600000Y-54300000D03*
X68975000Y-56450000D03*
X68975000Y-102450000D03*
X68600000Y-100300000D03*
D22*
G04 #@! TO.N,Net-(C3-Pad1)*
X71850000Y-59100000D03*
D21*
X79675000Y-50400000D03*
X79625000Y-59275000D03*
X74900000Y-54900000D03*
X74900000Y-56325000D03*
D22*
X71800000Y-47000000D03*
X73342500Y-67738600D03*
X71800000Y-93000000D03*
D21*
X79675000Y-96400000D03*
D22*
X71850000Y-105100000D03*
D21*
X74900000Y-102325000D03*
X79625000Y-105275000D03*
D22*
X73342500Y-113738600D03*
D21*
X74900000Y-100900000D03*
G04 #@! TO.N,Net-(Pol1-Pad2)*
X85850000Y-63925000D03*
X85850000Y-109925000D03*
G04 #@! TO.N,Net-(MIDI_OUT1-Pad2)*
X101300000Y-50950000D03*
X101300000Y-96950000D03*
G04 #@! TO.N,Net-(MIDI_OUT1-Pad4)*
X100300000Y-60800000D03*
X100300000Y-106800000D03*
G04 #@! TO.N,Net-(Pol1-Pad1)*
X85650000Y-46100000D03*
X85100000Y-67934500D03*
X85100000Y-113934500D03*
X85650000Y-92100000D03*
G04 #@! TD*
D23*
G04 #@! TO.N,Net-(J10-Pad2)*
X99989600Y-54914800D02*
X99148900Y-54914800D01*
X99175000Y-44925000D02*
X99175000Y-55030000D01*
X103800000Y-40300000D02*
X99175000Y-44925000D01*
X99989600Y-100914800D02*
X99187000Y-100876700D01*
X103800000Y-86300000D02*
X99213100Y-90886900D01*
X99175000Y-90925000D02*
X99213100Y-100991900D01*
G04 #@! TO.N,Net-(J10-Pad1)*
X103800000Y-50300000D02*
X102738001Y-51361999D01*
X102738001Y-57022316D02*
X102738001Y-54800000D01*
X102750000Y-57034315D02*
X102738001Y-57022316D01*
X102750000Y-57600000D02*
X102750000Y-57034315D01*
X102738001Y-51361999D02*
X102738001Y-54800000D01*
X102738001Y-54800000D02*
X102738001Y-55082499D01*
X103800000Y-96300000D02*
X102776101Y-97323899D01*
X102738001Y-100800000D02*
X102776101Y-101044399D01*
X102738001Y-103022316D02*
X102776101Y-100761900D01*
X102750000Y-103034315D02*
X102776101Y-102984216D01*
X102750000Y-103600000D02*
X102788100Y-102996215D01*
X102738001Y-97361999D02*
X102776101Y-100761900D01*
G04 #@! TO.N,Net-(R10-Pad1)*
X82055000Y-72855000D02*
X82055000Y-59875000D01*
X83750000Y-74550000D02*
X82055000Y-72855000D01*
X82055000Y-118855000D02*
X82093100Y-105836900D01*
X83750000Y-120550000D02*
X82093100Y-118816900D01*
G04 #@! TO.N,/MIDIIN*
X73580000Y-49575000D02*
X73580000Y-53030000D01*
X73580000Y-53030000D02*
X73950000Y-53400000D01*
X84374990Y-52475010D02*
X84374990Y-49365685D01*
X84374990Y-49365685D02*
X84374990Y-48800000D01*
X82055000Y-54795000D02*
X84374990Y-52475010D01*
X82055000Y-100795000D02*
X84413090Y-98436910D01*
X84374990Y-98475010D02*
X84413090Y-95327585D01*
X84374990Y-95365685D02*
X84413090Y-94761900D01*
X73580000Y-99030000D02*
X73988100Y-99361900D01*
X73580000Y-95575000D02*
X73618100Y-98991900D01*
G04 #@! TO.N,/5V*
X97675000Y-48700000D02*
X97275001Y-49099999D01*
D24*
X52045999Y-52354001D02*
X52045999Y-61045999D01*
X53250000Y-51150000D02*
X52045999Y-52354001D01*
X52045999Y-61045999D02*
X57000000Y-66000000D01*
X57000000Y-71230880D02*
X54881200Y-73349680D01*
X57000000Y-66000000D02*
X57000000Y-71230880D01*
X96850000Y-67175001D02*
X97275001Y-66750000D01*
X96850000Y-75500000D02*
X96850000Y-67175001D01*
D23*
X97275001Y-49099999D02*
X97275001Y-66750000D01*
X97275001Y-66750000D02*
X97275001Y-66795001D01*
X97675000Y-94700000D02*
X97313101Y-95061899D01*
D24*
X52045999Y-98354001D02*
X52084099Y-107007899D01*
X53250000Y-97150000D02*
X52084099Y-98315901D01*
X52045999Y-107045999D02*
X57038100Y-111961900D01*
X57000000Y-117230880D02*
X54919300Y-119311580D01*
X57000000Y-112000000D02*
X57038100Y-117192780D01*
X96850000Y-113175001D02*
X97313101Y-112711900D01*
D23*
X97275001Y-112750000D02*
X97313101Y-112756901D01*
X97275001Y-95099999D02*
X97313101Y-112711900D01*
D24*
X96850000Y-121500000D02*
X96888100Y-113136901D01*
D23*
G04 #@! TO.N,Net-(CHAN1-Pad1)*
X67145500Y-58490000D02*
X66070000Y-58490000D01*
X67220501Y-58414999D02*
X67145500Y-58490000D01*
X67220501Y-48866001D02*
X67220501Y-58414999D01*
X66220000Y-47865500D02*
X67220501Y-48866001D01*
X66220000Y-46790000D02*
X66220000Y-47865500D01*
X66220000Y-92790000D02*
X66258100Y-93827400D01*
X67145500Y-104490000D02*
X66108100Y-104451900D01*
X67220501Y-104414999D02*
X67183600Y-104451900D01*
X66220000Y-93865500D02*
X67258601Y-94827901D01*
X67220501Y-94866001D02*
X67258601Y-104376899D01*
G04 #@! TO.N,Net-(CHAN1-Pad4)*
X62704501Y-52584501D02*
X63530000Y-53410000D01*
X62529499Y-52409499D02*
X62704501Y-52584501D01*
X62529499Y-42860501D02*
X62529499Y-52409499D01*
X63680000Y-41710000D02*
X62529499Y-42860501D01*
X62704501Y-98584501D02*
X63568100Y-99371900D01*
X62529499Y-88860501D02*
X62567599Y-98371399D01*
X62529499Y-98409499D02*
X62742601Y-98546401D01*
X63680000Y-87710000D02*
X62567599Y-88822401D01*
G04 #@! TO.N,Net-(CHAN1-Pad5)*
X68600000Y-54300000D02*
X68600000Y-56075000D01*
X68600000Y-56075000D02*
X68975000Y-56450000D01*
X68600000Y-100300000D02*
X68638100Y-102036900D01*
X68600000Y-102075000D02*
X69013100Y-102411900D01*
G04 #@! TO.N,Net-(CHAN1-Pad6)*
X64355499Y-57664501D02*
X63530000Y-58490000D01*
X64680501Y-48957934D02*
X64680501Y-57339499D01*
X63680000Y-47957433D02*
X64680501Y-48957934D01*
X64680501Y-57339499D02*
X64355499Y-57664501D01*
X63680000Y-46790000D02*
X63680000Y-47957433D01*
X63680000Y-93957433D02*
X64718601Y-94919834D01*
X64680501Y-103339499D02*
X64393599Y-103626401D01*
X63680000Y-92790000D02*
X63718100Y-93919333D01*
X64355499Y-103664501D02*
X63568100Y-104451900D01*
X64680501Y-94957934D02*
X64718601Y-103301399D01*
D24*
G04 #@! TO.N,Net-(C3-Pad1)*
X72385000Y-59635000D02*
X71850000Y-59100000D01*
D23*
X79675000Y-50400000D02*
X79675000Y-59225000D01*
X79675000Y-59225000D02*
X79625000Y-59275000D01*
X74900000Y-54900000D02*
X74900000Y-56325000D01*
D24*
X71850000Y-59100000D02*
X71850000Y-47050000D01*
X71850000Y-47050000D02*
X71800000Y-47000000D01*
X72385000Y-64173100D02*
X72385000Y-59635000D01*
X72385000Y-64625000D02*
X72385000Y-64173100D01*
X72385000Y-64173100D02*
X72385000Y-66781100D01*
X72385000Y-66781100D02*
X73342500Y-67738600D01*
D23*
X79675000Y-96400000D02*
X79713100Y-105186900D01*
D24*
X72385000Y-105635000D02*
X71888100Y-105061900D01*
D23*
X74900000Y-100900000D02*
X74938100Y-102286900D01*
X79675000Y-105225000D02*
X79663100Y-105236900D01*
D24*
X71850000Y-93050000D02*
X71838100Y-92961900D01*
X71850000Y-105100000D02*
X71888100Y-93011900D01*
X72385000Y-110625000D02*
X72423100Y-110135000D01*
X72385000Y-112781100D02*
X73380600Y-113700500D01*
X72385000Y-110173100D02*
X72423100Y-112743000D01*
X72385000Y-110173100D02*
X72423100Y-105596900D01*
D23*
G04 #@! TO.N,Net-(Pol1-Pad2)*
X85850000Y-70300000D02*
X86100000Y-70550000D01*
X85850000Y-63925000D02*
X85850000Y-70300000D01*
X85850000Y-116300000D02*
X86138100Y-116511900D01*
X85850000Y-109925000D02*
X85888100Y-116261900D01*
G04 #@! TO.N,Net-(CHAN1-Pad3)*
X65069499Y-48710521D02*
X66070000Y-49711022D01*
X66070000Y-49711022D02*
X66070000Y-52242567D01*
X65069499Y-42860501D02*
X65069499Y-48710521D01*
X66220000Y-41710000D02*
X65069499Y-42860501D01*
X66070000Y-52242567D02*
X66070000Y-53410000D01*
X66070000Y-98242567D02*
X66108100Y-99371900D01*
X65069499Y-94710521D02*
X66108100Y-95672922D01*
X66070000Y-95711022D02*
X66108100Y-98204467D01*
X65069499Y-88860501D02*
X65107599Y-94672421D01*
X66220000Y-87710000D02*
X65107599Y-88822401D01*
G04 #@! TO.N,Net-(MIDI_OUT1-Pad2)*
X101300000Y-50950000D02*
X101300000Y-63813589D01*
X103800000Y-66313589D02*
X103800000Y-67800000D01*
X101300000Y-63813589D02*
X103800000Y-66313589D01*
X101300000Y-96950000D02*
X101338100Y-109775489D01*
X103800000Y-112313589D02*
X103838100Y-113761900D01*
X101300000Y-109813589D02*
X103838100Y-112275489D01*
G04 #@! TO.N,Net-(MIDI_OUT1-Pad4)*
X102412999Y-76412999D02*
X102412999Y-65862999D01*
X103800000Y-77800000D02*
X102412999Y-76412999D01*
X102412999Y-65862999D02*
X100300000Y-63750000D01*
X100300000Y-63750000D02*
X100300000Y-60800000D01*
X102412999Y-122412999D02*
X102451099Y-111824899D01*
X103800000Y-123800000D02*
X102451099Y-122374899D01*
X102412999Y-111862999D02*
X100338100Y-109711900D01*
X100300000Y-109750000D02*
X100338100Y-106761900D01*
G04 #@! TO.N,Net-(Pol1-Pad1)*
X85650000Y-46665685D02*
X85100000Y-47215685D01*
X85650000Y-46100000D02*
X85650000Y-46665685D01*
X83560000Y-69474500D02*
X83560000Y-70550000D01*
X85100000Y-67934500D02*
X83560000Y-69474500D01*
X85100000Y-47215685D02*
X85100000Y-67934500D01*
X85100000Y-93215685D02*
X85138100Y-113896400D01*
X85100000Y-113934500D02*
X83598100Y-115436400D01*
X85650000Y-92100000D02*
X85688100Y-92627585D01*
X85650000Y-92665685D02*
X85138100Y-93177585D01*
X83560000Y-115474500D02*
X83598100Y-116511900D01*
G04 #@! TD*
D25*
G04 #@! TO.N,GND*
G36*
X105093525Y-36606555D02*
X104861353Y-36838727D01*
X104603000Y-37462446D01*
X104603000Y-38137554D01*
X104861353Y-38761273D01*
X105338727Y-39238647D01*
X105962446Y-39497000D01*
X106637554Y-39497000D01*
X107261273Y-39238647D01*
X107738647Y-38761273D01*
X107997000Y-38137554D01*
X107997000Y-37462446D01*
X107738647Y-36838727D01*
X107510160Y-36610240D01*
X118373000Y-36626807D01*
X118373000Y-81373229D01*
X107607247Y-81392673D01*
X107738647Y-81261273D01*
X107997000Y-80637554D01*
X107997000Y-79962446D01*
X107738647Y-79338727D01*
X107261273Y-78861353D01*
X106637554Y-78603000D01*
X105962446Y-78603000D01*
X105338727Y-78861353D01*
X104861353Y-79338727D01*
X104603000Y-79962446D01*
X104603000Y-80637554D01*
X104861353Y-81261273D01*
X104997467Y-81397387D01*
X43548300Y-81508370D01*
X43548300Y-79742836D01*
X48738769Y-79742836D01*
X48916979Y-80077292D01*
X49762389Y-80412466D01*
X50671710Y-80398602D01*
X51447421Y-80077292D01*
X51625631Y-79742836D01*
X50182200Y-78299405D01*
X48738769Y-79742836D01*
X43548300Y-79742836D01*
X43548300Y-77699989D01*
X47889534Y-77699989D01*
X47903398Y-78609310D01*
X48224708Y-79385021D01*
X48559164Y-79563231D01*
X50002595Y-78119800D01*
X50361805Y-78119800D01*
X51805236Y-79563231D01*
X52139692Y-79385021D01*
X52474866Y-78539611D01*
X52461002Y-77630290D01*
X52139692Y-76854579D01*
X51805236Y-76676369D01*
X50361805Y-78119800D01*
X50002595Y-78119800D01*
X48559164Y-76676369D01*
X48224708Y-76854579D01*
X47889534Y-77699989D01*
X43548300Y-77699989D01*
X43548300Y-76496764D01*
X48738769Y-76496764D01*
X50182200Y-77940195D01*
X51625631Y-76496764D01*
X51549815Y-76354475D01*
X61323800Y-76354475D01*
X61323800Y-77442525D01*
X61740179Y-78447753D01*
X62509547Y-79217121D01*
X63514775Y-79633500D01*
X64602825Y-79633500D01*
X65608053Y-79217121D01*
X66377421Y-78447753D01*
X66793800Y-77442525D01*
X66793800Y-77300000D01*
X88327679Y-77300000D01*
X88475529Y-78043294D01*
X88896572Y-78673428D01*
X89526706Y-79094471D01*
X90082374Y-79205000D01*
X90457626Y-79205000D01*
X91013294Y-79094471D01*
X91643428Y-78673428D01*
X92064471Y-78043294D01*
X92128224Y-77722782D01*
X92374900Y-77722782D01*
X92678085Y-78401434D01*
X93217901Y-78912403D01*
X93809619Y-79157493D01*
X94105400Y-79041626D01*
X94105400Y-77427000D01*
X94359400Y-77427000D01*
X94359400Y-79041626D01*
X94655181Y-79157493D01*
X95246899Y-78912403D01*
X95786715Y-78401434D01*
X96089900Y-77722782D01*
X95974419Y-77427000D01*
X94359400Y-77427000D01*
X94105400Y-77427000D01*
X92490381Y-77427000D01*
X92374900Y-77722782D01*
X92128224Y-77722782D01*
X92212321Y-77300000D01*
X92128225Y-76877218D01*
X92374900Y-76877218D01*
X92490381Y-77173000D01*
X94105400Y-77173000D01*
X94105400Y-75558374D01*
X94359400Y-75558374D01*
X94359400Y-77173000D01*
X95974419Y-77173000D01*
X96089900Y-76877218D01*
X95786715Y-76198566D01*
X95246899Y-75687597D01*
X94655181Y-75442507D01*
X94359400Y-75558374D01*
X94105400Y-75558374D01*
X93809619Y-75442507D01*
X93217901Y-75687597D01*
X92678085Y-76198566D01*
X92374900Y-76877218D01*
X92128225Y-76877218D01*
X92064471Y-76556706D01*
X91643428Y-75926572D01*
X91013294Y-75505529D01*
X90457626Y-75395000D01*
X90082374Y-75395000D01*
X89526706Y-75505529D01*
X88896572Y-75926572D01*
X88475529Y-76556706D01*
X88327679Y-77300000D01*
X66793800Y-77300000D01*
X66793800Y-76354475D01*
X66377421Y-75349247D01*
X65608053Y-74579879D01*
X64602825Y-74163500D01*
X63514775Y-74163500D01*
X62509547Y-74579879D01*
X61740179Y-75349247D01*
X61323800Y-76354475D01*
X51549815Y-76354475D01*
X51447421Y-76162308D01*
X50602011Y-75827134D01*
X49692690Y-75840998D01*
X48916979Y-76162308D01*
X48738769Y-76496764D01*
X43548300Y-76496764D01*
X43548300Y-73123777D01*
X51415023Y-73123777D01*
X51441611Y-73709249D01*
X51614510Y-74126663D01*
X51864587Y-74205488D01*
X52720395Y-73349680D01*
X51864587Y-72493872D01*
X51614510Y-72572697D01*
X51415023Y-73123777D01*
X43548300Y-73123777D01*
X43548300Y-67703236D01*
X48738769Y-67703236D01*
X48916979Y-68037692D01*
X49762389Y-68372866D01*
X50671710Y-68359002D01*
X51447421Y-68037692D01*
X51625631Y-67703236D01*
X50182200Y-66259805D01*
X48738769Y-67703236D01*
X43548300Y-67703236D01*
X43548300Y-65660389D01*
X47889534Y-65660389D01*
X47903398Y-66569710D01*
X48224708Y-67345421D01*
X48559164Y-67523631D01*
X50002595Y-66080200D01*
X50361805Y-66080200D01*
X51805236Y-67523631D01*
X52139692Y-67345421D01*
X52474866Y-66500011D01*
X52461002Y-65590690D01*
X52139692Y-64814979D01*
X51805236Y-64636769D01*
X50361805Y-66080200D01*
X50002595Y-66080200D01*
X48559164Y-64636769D01*
X48224708Y-64814979D01*
X47889534Y-65660389D01*
X43548300Y-65660389D01*
X43548300Y-64457164D01*
X48738769Y-64457164D01*
X50182200Y-65900595D01*
X51625631Y-64457164D01*
X51447421Y-64122708D01*
X50602011Y-63787534D01*
X49692690Y-63801398D01*
X48916979Y-64122708D01*
X48738769Y-64457164D01*
X43548300Y-64457164D01*
X43548300Y-60865431D01*
X44665000Y-60865431D01*
X44665000Y-61754569D01*
X45005259Y-62576026D01*
X45633974Y-63204741D01*
X46455431Y-63545000D01*
X47344569Y-63545000D01*
X48166026Y-63204741D01*
X48794741Y-62576026D01*
X49135000Y-61754569D01*
X49135000Y-60865431D01*
X48794741Y-60043974D01*
X48166026Y-59415259D01*
X47344569Y-59075000D01*
X46455431Y-59075000D01*
X45633974Y-59415259D01*
X45005259Y-60043974D01*
X44665000Y-60865431D01*
X43548300Y-60865431D01*
X43548300Y-52354001D01*
X51139583Y-52354001D01*
X51156999Y-52441556D01*
X51157000Y-60958440D01*
X51139583Y-61045999D01*
X51192097Y-61310000D01*
X51208581Y-61392869D01*
X51405067Y-61686932D01*
X51479293Y-61736528D01*
X56111000Y-66368236D01*
X56111001Y-69996701D01*
X55715701Y-69601401D01*
X55174238Y-69377120D01*
X54588162Y-69377120D01*
X54046699Y-69601401D01*
X53890600Y-69757500D01*
X53734501Y-69601401D01*
X53193038Y-69377120D01*
X52606962Y-69377120D01*
X52065499Y-69601401D01*
X51651081Y-70015819D01*
X51426800Y-70557282D01*
X51426800Y-71143358D01*
X51651081Y-71684821D01*
X52065499Y-72099239D01*
X52106603Y-72116265D01*
X52044192Y-72314267D01*
X52900000Y-73170075D01*
X52914143Y-73155933D01*
X53093748Y-73335538D01*
X53079605Y-73349680D01*
X53093748Y-73363823D01*
X52914143Y-73543428D01*
X52900000Y-73529285D01*
X52044192Y-74385093D01*
X52123017Y-74635170D01*
X52674097Y-74834657D01*
X53259569Y-74808069D01*
X53676983Y-74635170D01*
X53755807Y-74385095D01*
X53870555Y-74499843D01*
X53909249Y-74461149D01*
X54046699Y-74598599D01*
X54588162Y-74822880D01*
X55174238Y-74822880D01*
X55715701Y-74598599D01*
X56130119Y-74184181D01*
X56354400Y-73642718D01*
X56354400Y-73133715D01*
X57566707Y-71921409D01*
X57640933Y-71871813D01*
X57837419Y-71577750D01*
X57889000Y-71318436D01*
X57889000Y-71318435D01*
X57906416Y-71230880D01*
X57889000Y-71143325D01*
X57889000Y-66868100D01*
X67135760Y-66868100D01*
X67135760Y-68519100D01*
X67185043Y-68766865D01*
X67325391Y-68976909D01*
X67535435Y-69117257D01*
X67638987Y-69137854D01*
X67370548Y-69406293D01*
X67148200Y-69943088D01*
X67148200Y-70524112D01*
X67370548Y-71060907D01*
X67781393Y-71471752D01*
X68318188Y-71694100D01*
X68899212Y-71694100D01*
X69436007Y-71471752D01*
X69846852Y-71060907D01*
X70069200Y-70524112D01*
X70069200Y-69943088D01*
X69846852Y-69406293D01*
X69578413Y-69137854D01*
X69681965Y-69117257D01*
X69892009Y-68976909D01*
X70032357Y-68766865D01*
X70081640Y-68519100D01*
X70081640Y-66868100D01*
X70032357Y-66620335D01*
X69892009Y-66410291D01*
X69681965Y-66269943D01*
X69434200Y-66220660D01*
X67783200Y-66220660D01*
X67535435Y-66269943D01*
X67325391Y-66410291D01*
X67185043Y-66620335D01*
X67135760Y-66868100D01*
X57889000Y-66868100D01*
X57889000Y-66087550D01*
X57906415Y-65999999D01*
X57889000Y-65912448D01*
X57889000Y-65912444D01*
X57837419Y-65653130D01*
X57640933Y-65359067D01*
X57566707Y-65309471D01*
X52934999Y-60677764D01*
X52934999Y-60138636D01*
X52974506Y-60155000D01*
X53525494Y-60155000D01*
X54034540Y-59944147D01*
X54424147Y-59554540D01*
X54635000Y-59045494D01*
X54635000Y-58494506D01*
X54424147Y-57985460D01*
X54034540Y-57595853D01*
X53803130Y-57500000D01*
X54034540Y-57404147D01*
X54424147Y-57014540D01*
X54635000Y-56505494D01*
X54635000Y-55954506D01*
X54424147Y-55445460D01*
X54034540Y-55055853D01*
X53803130Y-54960000D01*
X54034540Y-54864147D01*
X54214181Y-54684506D01*
X54405000Y-54684506D01*
X54405000Y-55235494D01*
X54615853Y-55744540D01*
X55005460Y-56134147D01*
X55236870Y-56230000D01*
X55005460Y-56325853D01*
X54615853Y-56715460D01*
X54405000Y-57224506D01*
X54405000Y-57775494D01*
X54615853Y-58284540D01*
X55005460Y-58674147D01*
X55236870Y-58770000D01*
X55005460Y-58865853D01*
X54615853Y-59255460D01*
X54405000Y-59764506D01*
X54405000Y-60315494D01*
X54615853Y-60824540D01*
X55005460Y-61214147D01*
X55514506Y-61425000D01*
X56065494Y-61425000D01*
X56574540Y-61214147D01*
X56964147Y-60824540D01*
X57175000Y-60315494D01*
X57175000Y-59764506D01*
X56964147Y-59255460D01*
X56574540Y-58865853D01*
X56343130Y-58770000D01*
X56574540Y-58674147D01*
X56964147Y-58284540D01*
X57175000Y-57775494D01*
X57175000Y-57224506D01*
X56964147Y-56715460D01*
X56574540Y-56325853D01*
X56343130Y-56230000D01*
X56574540Y-56134147D01*
X56964147Y-55744540D01*
X57175000Y-55235494D01*
X57175000Y-54684506D01*
X56964147Y-54175460D01*
X56574540Y-53785853D01*
X56359070Y-53696603D01*
X56513923Y-53632460D01*
X56581912Y-53391517D01*
X55790000Y-52599605D01*
X54998088Y-53391517D01*
X55066077Y-53632460D01*
X55232658Y-53691745D01*
X55005460Y-53785853D01*
X54615853Y-54175460D01*
X54405000Y-54684506D01*
X54214181Y-54684506D01*
X54424147Y-54474540D01*
X54635000Y-53965494D01*
X54635000Y-53414506D01*
X54424147Y-52905460D01*
X54055156Y-52536469D01*
X54247765Y-52498157D01*
X54401947Y-52395135D01*
X54420770Y-52765448D01*
X54577540Y-53143923D01*
X54818483Y-53211912D01*
X55610395Y-52420000D01*
X55969605Y-52420000D01*
X56761517Y-53211912D01*
X57002460Y-53143923D01*
X57187201Y-52624829D01*
X57159230Y-52074552D01*
X57002460Y-51696077D01*
X56761517Y-51628088D01*
X55969605Y-52420000D01*
X55610395Y-52420000D01*
X54818483Y-51628088D01*
X54647440Y-51676353D01*
X54647440Y-51448483D01*
X54998088Y-51448483D01*
X55790000Y-52240395D01*
X56581912Y-51448483D01*
X56513923Y-51207540D01*
X55994829Y-51022799D01*
X55444552Y-51050770D01*
X55066077Y-51207540D01*
X54998088Y-51448483D01*
X54647440Y-51448483D01*
X54647440Y-50400000D01*
X54598157Y-50152235D01*
X54457809Y-49942191D01*
X54247765Y-49801843D01*
X54000000Y-49752560D01*
X52500000Y-49752560D01*
X52252235Y-49801843D01*
X52042191Y-49942191D01*
X51901843Y-50152235D01*
X51852560Y-50400000D01*
X51852560Y-51290205D01*
X51479295Y-51663470D01*
X51405066Y-51713068D01*
X51208580Y-52007132D01*
X51156999Y-52266445D01*
X51139583Y-52354001D01*
X43548300Y-52354001D01*
X43548300Y-49435431D01*
X44665000Y-49435431D01*
X44665000Y-50324569D01*
X45005259Y-51146026D01*
X45633974Y-51774741D01*
X46455431Y-52115000D01*
X47344569Y-52115000D01*
X48166026Y-51774741D01*
X48794741Y-51146026D01*
X49135000Y-50324569D01*
X49135000Y-49435431D01*
X48794741Y-48613974D01*
X48166026Y-47985259D01*
X47344569Y-47645000D01*
X46455431Y-47645000D01*
X45633974Y-47985259D01*
X45005259Y-48613974D01*
X44665000Y-49435431D01*
X43548300Y-49435431D01*
X43548300Y-40355975D01*
X47965000Y-40355975D01*
X47965000Y-41444025D01*
X48381379Y-42449253D01*
X49150747Y-43218621D01*
X50155975Y-43635000D01*
X51244025Y-43635000D01*
X52249253Y-43218621D01*
X52607373Y-42860501D01*
X61754611Y-42860501D01*
X61769499Y-42935348D01*
X61769500Y-52334647D01*
X61754611Y-52409499D01*
X61769500Y-52484351D01*
X61789421Y-52584500D01*
X61813596Y-52706036D01*
X61930529Y-52881038D01*
X61981571Y-52957428D01*
X62045027Y-52999828D01*
X62097380Y-53052181D01*
X62069500Y-53119488D01*
X62069500Y-53700512D01*
X62291848Y-54237307D01*
X62702693Y-54648152D01*
X62779581Y-54680000D01*
X62702693Y-54711848D01*
X62291848Y-55122693D01*
X62069500Y-55659488D01*
X62069500Y-56240512D01*
X62291848Y-56777307D01*
X62702693Y-57188152D01*
X62779581Y-57220000D01*
X62702693Y-57251848D01*
X62291848Y-57662693D01*
X62069500Y-58199488D01*
X62069500Y-58780512D01*
X62291848Y-59317307D01*
X62702693Y-59728152D01*
X63239488Y-59950500D01*
X63820512Y-59950500D01*
X64357307Y-59728152D01*
X64625746Y-59459713D01*
X64646343Y-59563265D01*
X64786691Y-59773309D01*
X64996735Y-59913657D01*
X65244500Y-59962940D01*
X66895500Y-59962940D01*
X67143265Y-59913657D01*
X67353309Y-59773309D01*
X67493657Y-59563265D01*
X67542940Y-59315500D01*
X67542940Y-59138483D01*
X67693429Y-59037929D01*
X67723470Y-58992969D01*
X67768430Y-58962928D01*
X67936405Y-58711536D01*
X67980501Y-58489851D01*
X67980501Y-58489847D01*
X67995389Y-58415000D01*
X67980501Y-58340153D01*
X67980501Y-56753652D01*
X68097569Y-57036280D01*
X68388720Y-57327431D01*
X68769126Y-57485000D01*
X69180874Y-57485000D01*
X69561280Y-57327431D01*
X69852431Y-57036280D01*
X70010000Y-56655874D01*
X70010000Y-56244126D01*
X69852431Y-55863720D01*
X69561280Y-55572569D01*
X69360000Y-55489196D01*
X69360000Y-55003711D01*
X69477431Y-54886280D01*
X69635000Y-54505874D01*
X69635000Y-54094126D01*
X69477431Y-53713720D01*
X69186280Y-53422569D01*
X68805874Y-53265000D01*
X68394126Y-53265000D01*
X68013720Y-53422569D01*
X67980501Y-53455788D01*
X67980501Y-48940847D01*
X67995389Y-48866000D01*
X67980501Y-48791153D01*
X67980501Y-48791149D01*
X67936405Y-48569464D01*
X67768430Y-48318072D01*
X67704974Y-48275672D01*
X67502890Y-48073589D01*
X67503309Y-48073309D01*
X67643657Y-47863265D01*
X67692940Y-47615500D01*
X67692940Y-46754343D01*
X70565000Y-46754343D01*
X70565000Y-47245657D01*
X70753018Y-47699571D01*
X70961001Y-47907554D01*
X70961000Y-58242447D01*
X70803018Y-58400429D01*
X70615000Y-58854343D01*
X70615000Y-59345657D01*
X70803018Y-59799571D01*
X71150429Y-60146982D01*
X71496001Y-60290123D01*
X71496000Y-64085544D01*
X71496000Y-64085545D01*
X71496001Y-66693541D01*
X71478584Y-66781100D01*
X71547582Y-67127970D01*
X71692878Y-67345421D01*
X71744068Y-67422033D01*
X71818294Y-67471629D01*
X72107500Y-67760835D01*
X72107500Y-67984257D01*
X72295518Y-68438171D01*
X72642929Y-68785582D01*
X73096843Y-68973600D01*
X73588157Y-68973600D01*
X74042071Y-68785582D01*
X74389482Y-68438171D01*
X74577500Y-67984257D01*
X74577500Y-67492943D01*
X74389482Y-67039029D01*
X74042071Y-66691618D01*
X73588157Y-66503600D01*
X73364735Y-66503600D01*
X73274000Y-66412865D01*
X73274000Y-59722550D01*
X73291415Y-59634999D01*
X73274000Y-59547448D01*
X73274000Y-59547444D01*
X73222419Y-59288130D01*
X73085000Y-59082467D01*
X73085000Y-59069126D01*
X78590000Y-59069126D01*
X78590000Y-59480874D01*
X78747569Y-59861280D01*
X79038720Y-60152431D01*
X79419126Y-60310000D01*
X79830874Y-60310000D01*
X80211280Y-60152431D01*
X80502431Y-59861280D01*
X80660000Y-59480874D01*
X80660000Y-59069126D01*
X80502431Y-58688720D01*
X80435000Y-58621289D01*
X80435000Y-54795000D01*
X80591887Y-54795000D01*
X80703260Y-55354909D01*
X81020423Y-55829577D01*
X81372758Y-56065000D01*
X81020423Y-56300423D01*
X80703260Y-56775091D01*
X80591887Y-57335000D01*
X80703260Y-57894909D01*
X81020423Y-58369577D01*
X81372758Y-58605000D01*
X81020423Y-58840423D01*
X80703260Y-59315091D01*
X80591887Y-59875000D01*
X80703260Y-60434909D01*
X81020423Y-60909577D01*
X81295001Y-61093044D01*
X81295000Y-72780153D01*
X81280112Y-72855000D01*
X81295000Y-72929847D01*
X81295000Y-72929851D01*
X81339096Y-73151536D01*
X81507071Y-73402929D01*
X81570530Y-73445331D01*
X82715000Y-74589802D01*
X82715000Y-74755874D01*
X82872569Y-75136280D01*
X83163720Y-75427431D01*
X83544126Y-75585000D01*
X83955874Y-75585000D01*
X84336280Y-75427431D01*
X84469585Y-75294126D01*
X95815000Y-75294126D01*
X95815000Y-75705874D01*
X95972569Y-76086280D01*
X96263720Y-76377431D01*
X96644126Y-76535000D01*
X97055874Y-76535000D01*
X97436280Y-76377431D01*
X97727431Y-76086280D01*
X97885000Y-75705874D01*
X97885000Y-75294126D01*
X97739000Y-74941650D01*
X97739000Y-67543236D01*
X97965530Y-67316706D01*
X98112419Y-67096871D01*
X98181417Y-66750001D01*
X98112419Y-66403130D01*
X98035001Y-66287266D01*
X98035001Y-58949066D01*
X98101735Y-58993657D01*
X98349500Y-59042940D01*
X100000500Y-59042940D01*
X100248265Y-58993657D01*
X100458309Y-58853309D01*
X100540001Y-58731050D01*
X100540001Y-59779136D01*
X100505874Y-59765000D01*
X100094126Y-59765000D01*
X99713720Y-59922569D01*
X99422569Y-60213720D01*
X99265000Y-60594126D01*
X99265000Y-61005874D01*
X99422569Y-61386280D01*
X99540001Y-61503712D01*
X99540000Y-63675153D01*
X99525112Y-63750000D01*
X99540000Y-63824847D01*
X99540000Y-63824851D01*
X99584096Y-64046536D01*
X99752071Y-64297929D01*
X99815530Y-64340331D01*
X101653000Y-66177802D01*
X101652999Y-76338152D01*
X101638111Y-76412999D01*
X101652999Y-76487846D01*
X101652999Y-76487850D01*
X101697095Y-76709535D01*
X101865070Y-76960928D01*
X101928529Y-77003330D01*
X102186371Y-77261172D01*
X102103000Y-77462446D01*
X102103000Y-78137554D01*
X102361353Y-78761273D01*
X102838727Y-79238647D01*
X103462446Y-79497000D01*
X104137554Y-79497000D01*
X104761273Y-79238647D01*
X105238647Y-78761273D01*
X105497000Y-78137554D01*
X105497000Y-77462446D01*
X105238647Y-76838727D01*
X104761273Y-76361353D01*
X104137554Y-76103000D01*
X103462446Y-76103000D01*
X103261172Y-76186371D01*
X103172999Y-76098198D01*
X103172999Y-74962446D01*
X114603000Y-74962446D01*
X114603000Y-75637554D01*
X114861353Y-76261273D01*
X115150080Y-76550000D01*
X114861353Y-76838727D01*
X114603000Y-77462446D01*
X114603000Y-78137554D01*
X114861353Y-78761273D01*
X115338727Y-79238647D01*
X115962446Y-79497000D01*
X116637554Y-79497000D01*
X117261273Y-79238647D01*
X117738647Y-78761273D01*
X117997000Y-78137554D01*
X117997000Y-77462446D01*
X117738647Y-76838727D01*
X117449920Y-76550000D01*
X117738647Y-76261273D01*
X117997000Y-75637554D01*
X117997000Y-74962446D01*
X117738647Y-74338727D01*
X117261273Y-73861353D01*
X116637554Y-73603000D01*
X115962446Y-73603000D01*
X115338727Y-73861353D01*
X114861353Y-74338727D01*
X114603000Y-74962446D01*
X103172999Y-74962446D01*
X103172999Y-73997384D01*
X105282222Y-73997384D01*
X105388475Y-74270671D01*
X106020662Y-74507548D01*
X106695376Y-74484467D01*
X107211525Y-74270671D01*
X107317778Y-73997384D01*
X106300000Y-72979605D01*
X105282222Y-73997384D01*
X103172999Y-73997384D01*
X103172999Y-72520662D01*
X104592452Y-72520662D01*
X104615533Y-73195376D01*
X104829329Y-73711525D01*
X105102616Y-73817778D01*
X106120395Y-72800000D01*
X106479605Y-72800000D01*
X107497384Y-73817778D01*
X107770671Y-73711525D01*
X108007548Y-73079338D01*
X107984467Y-72404624D01*
X107770671Y-71888475D01*
X107497384Y-71782222D01*
X106479605Y-72800000D01*
X106120395Y-72800000D01*
X105102616Y-71782222D01*
X104829329Y-71888475D01*
X104592452Y-72520662D01*
X103172999Y-72520662D01*
X103172999Y-71602616D01*
X105282222Y-71602616D01*
X106300000Y-72620395D01*
X107317778Y-71602616D01*
X107211525Y-71329329D01*
X106579338Y-71092452D01*
X105904624Y-71115533D01*
X105388475Y-71329329D01*
X105282222Y-71602616D01*
X103172999Y-71602616D01*
X103172999Y-69377107D01*
X103462446Y-69497000D01*
X104137554Y-69497000D01*
X104761273Y-69238647D01*
X105238647Y-68761273D01*
X105497000Y-68137554D01*
X105497000Y-67462446D01*
X114603000Y-67462446D01*
X114603000Y-68137554D01*
X114861353Y-68761273D01*
X115150080Y-69050000D01*
X114861353Y-69338727D01*
X114603000Y-69962446D01*
X114603000Y-70637554D01*
X114861353Y-71261273D01*
X115338727Y-71738647D01*
X115962446Y-71997000D01*
X116637554Y-71997000D01*
X117261273Y-71738647D01*
X117738647Y-71261273D01*
X117997000Y-70637554D01*
X117997000Y-69962446D01*
X117738647Y-69338727D01*
X117449920Y-69050000D01*
X117738647Y-68761273D01*
X117997000Y-68137554D01*
X117997000Y-67462446D01*
X117738647Y-66838727D01*
X117261273Y-66361353D01*
X116637554Y-66103000D01*
X115962446Y-66103000D01*
X115338727Y-66361353D01*
X114861353Y-66838727D01*
X114603000Y-67462446D01*
X105497000Y-67462446D01*
X105238647Y-66838727D01*
X104761273Y-66361353D01*
X104568506Y-66281506D01*
X104560000Y-66238742D01*
X104560000Y-66238737D01*
X104515904Y-66017052D01*
X104347929Y-65765660D01*
X104284473Y-65723260D01*
X103523659Y-64962446D01*
X104603000Y-64962446D01*
X104603000Y-65637554D01*
X104861353Y-66261273D01*
X105338727Y-66738647D01*
X105962446Y-66997000D01*
X106637554Y-66997000D01*
X107261273Y-66738647D01*
X107738647Y-66261273D01*
X107997000Y-65637554D01*
X107997000Y-64962446D01*
X107738647Y-64338727D01*
X107261273Y-63861353D01*
X106637554Y-63603000D01*
X105962446Y-63603000D01*
X105338727Y-63861353D01*
X104861353Y-64338727D01*
X104603000Y-64962446D01*
X103523659Y-64962446D01*
X102060000Y-63498788D01*
X102060000Y-58373711D01*
X102163720Y-58477431D01*
X102544126Y-58635000D01*
X102955874Y-58635000D01*
X103336280Y-58477431D01*
X103505936Y-58307775D01*
X107996300Y-58307775D01*
X107996300Y-59395825D01*
X108412679Y-60401053D01*
X109182047Y-61170421D01*
X110187275Y-61586800D01*
X111275325Y-61586800D01*
X112280553Y-61170421D01*
X113049921Y-60401053D01*
X113466300Y-59395825D01*
X113466300Y-58307775D01*
X113049921Y-57302547D01*
X112280553Y-56533179D01*
X111275325Y-56116800D01*
X110187275Y-56116800D01*
X109182047Y-56533179D01*
X108412679Y-57302547D01*
X107996300Y-58307775D01*
X103505936Y-58307775D01*
X103627431Y-58186280D01*
X103785000Y-57805874D01*
X103785000Y-57394126D01*
X103627431Y-57013720D01*
X103498001Y-56884290D01*
X103498001Y-52462446D01*
X104603000Y-52462446D01*
X104603000Y-53137554D01*
X104861353Y-53761273D01*
X105338727Y-54238647D01*
X105962446Y-54497000D01*
X106637554Y-54497000D01*
X107261273Y-54238647D01*
X107738647Y-53761273D01*
X107997000Y-53137554D01*
X107997000Y-52462446D01*
X107738647Y-51838727D01*
X107261273Y-51361353D01*
X106637554Y-51103000D01*
X105962446Y-51103000D01*
X105338727Y-51361353D01*
X104861353Y-51838727D01*
X104603000Y-52462446D01*
X103498001Y-52462446D01*
X103498001Y-51997000D01*
X104137554Y-51997000D01*
X104761273Y-51738647D01*
X105238647Y-51261273D01*
X105497000Y-50637554D01*
X105497000Y-49962446D01*
X105238647Y-49338727D01*
X104761273Y-48861353D01*
X104137554Y-48603000D01*
X103462446Y-48603000D01*
X102838727Y-48861353D01*
X102361353Y-49338727D01*
X102103000Y-49962446D01*
X102103000Y-50289289D01*
X101886280Y-50072569D01*
X101505874Y-49915000D01*
X101094126Y-49915000D01*
X100713720Y-50072569D01*
X100422569Y-50363720D01*
X100265000Y-50744126D01*
X100265000Y-51155874D01*
X100422569Y-51536280D01*
X100540000Y-51653711D01*
X100540000Y-54370570D01*
X100537529Y-54366871D01*
X100459584Y-54314790D01*
X100413152Y-54202693D01*
X100002307Y-53791848D01*
X99935000Y-53763968D01*
X99935000Y-47462446D01*
X114603000Y-47462446D01*
X114603000Y-48137554D01*
X114861353Y-48761273D01*
X115150080Y-49050000D01*
X114861353Y-49338727D01*
X114603000Y-49962446D01*
X114603000Y-50637554D01*
X114861353Y-51261273D01*
X115338727Y-51738647D01*
X115962446Y-51997000D01*
X116637554Y-51997000D01*
X117261273Y-51738647D01*
X117738647Y-51261273D01*
X117997000Y-50637554D01*
X117997000Y-49962446D01*
X117738647Y-49338727D01*
X117449920Y-49050000D01*
X117738647Y-48761273D01*
X117997000Y-48137554D01*
X117997000Y-47462446D01*
X117738647Y-46838727D01*
X117261273Y-46361353D01*
X116637554Y-46103000D01*
X115962446Y-46103000D01*
X115338727Y-46361353D01*
X114861353Y-46838727D01*
X114603000Y-47462446D01*
X99935000Y-47462446D01*
X99935000Y-45239801D01*
X100212355Y-44962446D01*
X104603000Y-44962446D01*
X104603000Y-45637554D01*
X104861353Y-46261273D01*
X105338727Y-46738647D01*
X105962446Y-46997000D01*
X106637554Y-46997000D01*
X107261273Y-46738647D01*
X107738647Y-46261273D01*
X107997000Y-45637554D01*
X107997000Y-44962446D01*
X107738647Y-44338727D01*
X107261273Y-43861353D01*
X106637554Y-43603000D01*
X105962446Y-43603000D01*
X105338727Y-43861353D01*
X104861353Y-44338727D01*
X104603000Y-44962446D01*
X100212355Y-44962446D01*
X103261172Y-41913630D01*
X103462446Y-41997000D01*
X104137554Y-41997000D01*
X104761273Y-41738647D01*
X105238647Y-41261273D01*
X105497000Y-40637554D01*
X105497000Y-39962446D01*
X114603000Y-39962446D01*
X114603000Y-40637554D01*
X114861353Y-41261273D01*
X115150080Y-41550000D01*
X114861353Y-41838727D01*
X114603000Y-42462446D01*
X114603000Y-43137554D01*
X114861353Y-43761273D01*
X115338727Y-44238647D01*
X115962446Y-44497000D01*
X116637554Y-44497000D01*
X117261273Y-44238647D01*
X117738647Y-43761273D01*
X117997000Y-43137554D01*
X117997000Y-42462446D01*
X117738647Y-41838727D01*
X117449920Y-41550000D01*
X117738647Y-41261273D01*
X117997000Y-40637554D01*
X117997000Y-39962446D01*
X117738647Y-39338727D01*
X117261273Y-38861353D01*
X116637554Y-38603000D01*
X115962446Y-38603000D01*
X115338727Y-38861353D01*
X114861353Y-39338727D01*
X114603000Y-39962446D01*
X105497000Y-39962446D01*
X105238647Y-39338727D01*
X104761273Y-38861353D01*
X104137554Y-38603000D01*
X103462446Y-38603000D01*
X102838727Y-38861353D01*
X102361353Y-39338727D01*
X102103000Y-39962446D01*
X102103000Y-40637554D01*
X102186370Y-40838828D01*
X98690530Y-44334669D01*
X98627071Y-44377071D01*
X98459096Y-44628464D01*
X98415000Y-44850149D01*
X98415000Y-44850153D01*
X98400112Y-44925000D01*
X98415000Y-44999847D01*
X98415000Y-47976289D01*
X98261280Y-47822569D01*
X97880874Y-47665000D01*
X97469126Y-47665000D01*
X97088720Y-47822569D01*
X96797569Y-48113720D01*
X96640000Y-48494126D01*
X96640000Y-48682383D01*
X96559097Y-48803463D01*
X96515001Y-49025148D01*
X96515001Y-49025152D01*
X96500113Y-49099999D01*
X96515001Y-49174846D01*
X96515002Y-66252764D01*
X96283294Y-66484472D01*
X96209068Y-66534068D01*
X96159472Y-66608294D01*
X96159471Y-66608295D01*
X96012582Y-66828131D01*
X95943584Y-67175001D01*
X95961001Y-67262560D01*
X95961000Y-74941650D01*
X95815000Y-75294126D01*
X84469585Y-75294126D01*
X84627431Y-75136280D01*
X84785000Y-74755874D01*
X84785000Y-74344126D01*
X84627431Y-73963720D01*
X84336280Y-73672569D01*
X83955874Y-73515000D01*
X83789802Y-73515000D01*
X82815000Y-72540199D01*
X82815000Y-72022940D01*
X84385500Y-72022940D01*
X84633265Y-71973657D01*
X84843309Y-71833309D01*
X84983657Y-71623265D01*
X85004254Y-71519713D01*
X85272693Y-71788152D01*
X85809488Y-72010500D01*
X86390512Y-72010500D01*
X86927307Y-71788152D01*
X87338152Y-71377307D01*
X87370000Y-71300419D01*
X87401848Y-71377307D01*
X87812693Y-71788152D01*
X88349488Y-72010500D01*
X88930512Y-72010500D01*
X89467307Y-71788152D01*
X89878152Y-71377307D01*
X90100500Y-70840512D01*
X90100500Y-70259488D01*
X89878152Y-69722693D01*
X89467307Y-69311848D01*
X88930512Y-69089500D01*
X88349488Y-69089500D01*
X87812693Y-69311848D01*
X87401848Y-69722693D01*
X87370000Y-69799581D01*
X87338152Y-69722693D01*
X86927307Y-69311848D01*
X86610000Y-69180415D01*
X86610000Y-65294126D01*
X86965000Y-65294126D01*
X86965000Y-65705874D01*
X87122569Y-66086280D01*
X87413720Y-66377431D01*
X87794126Y-66535000D01*
X88205874Y-66535000D01*
X88586280Y-66377431D01*
X88877431Y-66086280D01*
X89035000Y-65705874D01*
X89035000Y-65294126D01*
X88877431Y-64913720D01*
X88586280Y-64622569D01*
X88205874Y-64465000D01*
X87794126Y-64465000D01*
X87413720Y-64622569D01*
X87122569Y-64913720D01*
X86965000Y-65294126D01*
X86610000Y-65294126D01*
X86610000Y-64628711D01*
X86727431Y-64511280D01*
X86885000Y-64130874D01*
X86885000Y-63719126D01*
X86727431Y-63338720D01*
X86436280Y-63047569D01*
X86055874Y-62890000D01*
X85860000Y-62890000D01*
X85860000Y-52255000D01*
X88211887Y-52255000D01*
X88323260Y-52814909D01*
X88640423Y-53289577D01*
X88992758Y-53525000D01*
X88640423Y-53760423D01*
X88323260Y-54235091D01*
X88211887Y-54795000D01*
X88323260Y-55354909D01*
X88640423Y-55829577D01*
X88992758Y-56065000D01*
X88640423Y-56300423D01*
X88323260Y-56775091D01*
X88211887Y-57335000D01*
X88323260Y-57894909D01*
X88640423Y-58369577D01*
X88761106Y-58450215D01*
X88627235Y-58476843D01*
X88417191Y-58617191D01*
X88276843Y-58827235D01*
X88227560Y-59075000D01*
X88227560Y-60675000D01*
X88276843Y-60922765D01*
X88417191Y-61132809D01*
X88627235Y-61273157D01*
X88875000Y-61322440D01*
X90475000Y-61322440D01*
X90722765Y-61273157D01*
X90932809Y-61132809D01*
X91073157Y-60922765D01*
X91122440Y-60675000D01*
X91122440Y-59075000D01*
X91073157Y-58827235D01*
X90932809Y-58617191D01*
X90722765Y-58476843D01*
X90588894Y-58450215D01*
X90709577Y-58369577D01*
X91026740Y-57894909D01*
X91138113Y-57335000D01*
X91026740Y-56775091D01*
X90709577Y-56300423D01*
X90357242Y-56065000D01*
X90709577Y-55829577D01*
X91026740Y-55354909D01*
X91138113Y-54795000D01*
X91026740Y-54235091D01*
X90709577Y-53760423D01*
X90357242Y-53525000D01*
X90709577Y-53289577D01*
X91026740Y-52814909D01*
X91138113Y-52255000D01*
X91026740Y-51695091D01*
X90709577Y-51220423D01*
X90234909Y-50903260D01*
X89816333Y-50820000D01*
X89533667Y-50820000D01*
X89115091Y-50903260D01*
X88640423Y-51220423D01*
X88323260Y-51695091D01*
X88211887Y-52255000D01*
X85860000Y-52255000D01*
X85860000Y-47530487D01*
X86134475Y-47256013D01*
X86197929Y-47213614D01*
X86240327Y-47150161D01*
X86240329Y-47150159D01*
X86324102Y-47024783D01*
X86365904Y-46962222D01*
X86394314Y-46819397D01*
X86527431Y-46686280D01*
X86685000Y-46305874D01*
X86685000Y-45894126D01*
X86527431Y-45513720D01*
X86236280Y-45222569D01*
X85855874Y-45065000D01*
X85444126Y-45065000D01*
X85063720Y-45222569D01*
X84772569Y-45513720D01*
X84615000Y-45894126D01*
X84615000Y-46305874D01*
X84708728Y-46532155D01*
X84615529Y-46625355D01*
X84552071Y-46667756D01*
X84384096Y-46919149D01*
X84340000Y-47140834D01*
X84340000Y-47140838D01*
X84325112Y-47215685D01*
X84340000Y-47290532D01*
X84340000Y-47765000D01*
X84169116Y-47765000D01*
X83788710Y-47922569D01*
X83497559Y-48213720D01*
X83339990Y-48594126D01*
X83339990Y-49005874D01*
X83497559Y-49386280D01*
X83614991Y-49503712D01*
X83614990Y-52160207D01*
X83349127Y-52426070D01*
X83324915Y-52382000D01*
X82182000Y-52382000D01*
X82182000Y-52402000D01*
X81928000Y-52402000D01*
X81928000Y-52382000D01*
X80785085Y-52382000D01*
X80663096Y-52604039D01*
X80823959Y-52992423D01*
X81199866Y-53407389D01*
X81404108Y-53504053D01*
X81020423Y-53760423D01*
X80703260Y-54235091D01*
X80591887Y-54795000D01*
X80435000Y-54795000D01*
X80435000Y-51905961D01*
X80663096Y-51905961D01*
X80785085Y-52128000D01*
X81928000Y-52128000D01*
X81928000Y-50984371D01*
X82182000Y-50984371D01*
X82182000Y-52128000D01*
X83324915Y-52128000D01*
X83446904Y-51905961D01*
X83286041Y-51517577D01*
X82910134Y-51102611D01*
X82404041Y-50863086D01*
X82182000Y-50984371D01*
X81928000Y-50984371D01*
X81705959Y-50863086D01*
X81199866Y-51102611D01*
X80823959Y-51517577D01*
X80663096Y-51905961D01*
X80435000Y-51905961D01*
X80435000Y-51103711D01*
X80552431Y-50986280D01*
X80710000Y-50605874D01*
X80710000Y-50194126D01*
X80552431Y-49813720D01*
X80261280Y-49522569D01*
X79880874Y-49365000D01*
X79469126Y-49365000D01*
X79088720Y-49522569D01*
X78797569Y-49813720D01*
X78640000Y-50194126D01*
X78640000Y-50605874D01*
X78797569Y-50986280D01*
X78915000Y-51103711D01*
X78915001Y-58521288D01*
X78747569Y-58688720D01*
X78590000Y-59069126D01*
X73085000Y-59069126D01*
X73085000Y-58854343D01*
X72896982Y-58400429D01*
X72739000Y-58242447D01*
X72739000Y-53030000D01*
X72805112Y-53030000D01*
X72820001Y-53104852D01*
X72856745Y-53289577D01*
X72864097Y-53326537D01*
X72915000Y-53402719D01*
X72915000Y-53605874D01*
X73072569Y-53986280D01*
X73363720Y-54277431D01*
X73744126Y-54435000D01*
X73972333Y-54435000D01*
X73865000Y-54694126D01*
X73865000Y-55105874D01*
X74022569Y-55486280D01*
X74140000Y-55603711D01*
X74140001Y-55621288D01*
X74022569Y-55738720D01*
X73865000Y-56119126D01*
X73865000Y-56530874D01*
X74022569Y-56911280D01*
X74313720Y-57202431D01*
X74694126Y-57360000D01*
X75105874Y-57360000D01*
X75486280Y-57202431D01*
X75777431Y-56911280D01*
X75935000Y-56530874D01*
X75935000Y-56119126D01*
X75777431Y-55738720D01*
X75660000Y-55621289D01*
X75660000Y-55603711D01*
X75777431Y-55486280D01*
X75935000Y-55105874D01*
X75935000Y-54694126D01*
X75777431Y-54313720D01*
X75486280Y-54022569D01*
X75105874Y-53865000D01*
X74877667Y-53865000D01*
X74985000Y-53605874D01*
X74985000Y-53194126D01*
X74827431Y-52813720D01*
X74536280Y-52522569D01*
X74340000Y-52441267D01*
X74340000Y-49500148D01*
X74295904Y-49278463D01*
X74127929Y-49027071D01*
X73876536Y-48859096D01*
X73580000Y-48800111D01*
X73283463Y-48859096D01*
X73032071Y-49027071D01*
X72864096Y-49278464D01*
X72820000Y-49500149D01*
X72820001Y-52955148D01*
X72805112Y-53030000D01*
X72739000Y-53030000D01*
X72739000Y-47807553D01*
X72846982Y-47699571D01*
X73035000Y-47245657D01*
X73035000Y-46754343D01*
X72846982Y-46300429D01*
X72499571Y-45953018D01*
X72045657Y-45765000D01*
X71554343Y-45765000D01*
X71100429Y-45953018D01*
X70753018Y-46300429D01*
X70565000Y-46754343D01*
X67692940Y-46754343D01*
X67692940Y-45964500D01*
X67643657Y-45716735D01*
X67503309Y-45506691D01*
X67293265Y-45366343D01*
X67189713Y-45345746D01*
X67458152Y-45077307D01*
X67680500Y-44540512D01*
X67680500Y-43959488D01*
X67458152Y-43422693D01*
X67047307Y-43011848D01*
X66970419Y-42980000D01*
X67047307Y-42948152D01*
X67458152Y-42537307D01*
X67680500Y-42000512D01*
X67680500Y-41419488D01*
X67458152Y-40882693D01*
X67047307Y-40471848D01*
X66888276Y-40405975D01*
X87965000Y-40405975D01*
X87965000Y-41494025D01*
X88381379Y-42499253D01*
X89150747Y-43268621D01*
X90155975Y-43685000D01*
X91244025Y-43685000D01*
X92249253Y-43268621D01*
X93018621Y-42499253D01*
X93435000Y-41494025D01*
X93435000Y-40405975D01*
X93018621Y-39400747D01*
X92249253Y-38631379D01*
X91244025Y-38215000D01*
X90155975Y-38215000D01*
X89150747Y-38631379D01*
X88381379Y-39400747D01*
X87965000Y-40405975D01*
X66888276Y-40405975D01*
X66510512Y-40249500D01*
X65929488Y-40249500D01*
X65392693Y-40471848D01*
X64981848Y-40882693D01*
X64950000Y-40959581D01*
X64918152Y-40882693D01*
X64507307Y-40471848D01*
X63970512Y-40249500D01*
X63389488Y-40249500D01*
X62852693Y-40471848D01*
X62441848Y-40882693D01*
X62219500Y-41419488D01*
X62219500Y-42000512D01*
X62247380Y-42067819D01*
X62045029Y-42270170D01*
X61981570Y-42312572D01*
X61813595Y-42563965D01*
X61769499Y-42785650D01*
X61769499Y-42785654D01*
X61754611Y-42860501D01*
X52607373Y-42860501D01*
X53018621Y-42449253D01*
X53435000Y-41444025D01*
X53435000Y-40355975D01*
X53018621Y-39350747D01*
X52249253Y-38581379D01*
X51244025Y-38165000D01*
X50155975Y-38165000D01*
X49150747Y-38581379D01*
X48381379Y-39350747D01*
X47965000Y-40355975D01*
X43548300Y-40355975D01*
X43548300Y-36512694D01*
X105093525Y-36606555D01*
X105093525Y-36606555D01*
G37*
X105093525Y-36606555D02*
X104861353Y-36838727D01*
X104603000Y-37462446D01*
X104603000Y-38137554D01*
X104861353Y-38761273D01*
X105338727Y-39238647D01*
X105962446Y-39497000D01*
X106637554Y-39497000D01*
X107261273Y-39238647D01*
X107738647Y-38761273D01*
X107997000Y-38137554D01*
X107997000Y-37462446D01*
X107738647Y-36838727D01*
X107510160Y-36610240D01*
X118373000Y-36626807D01*
X118373000Y-81373229D01*
X107607247Y-81392673D01*
X107738647Y-81261273D01*
X107997000Y-80637554D01*
X107997000Y-79962446D01*
X107738647Y-79338727D01*
X107261273Y-78861353D01*
X106637554Y-78603000D01*
X105962446Y-78603000D01*
X105338727Y-78861353D01*
X104861353Y-79338727D01*
X104603000Y-79962446D01*
X104603000Y-80637554D01*
X104861353Y-81261273D01*
X104997467Y-81397387D01*
X43548300Y-81508370D01*
X43548300Y-79742836D01*
X48738769Y-79742836D01*
X48916979Y-80077292D01*
X49762389Y-80412466D01*
X50671710Y-80398602D01*
X51447421Y-80077292D01*
X51625631Y-79742836D01*
X50182200Y-78299405D01*
X48738769Y-79742836D01*
X43548300Y-79742836D01*
X43548300Y-77699989D01*
X47889534Y-77699989D01*
X47903398Y-78609310D01*
X48224708Y-79385021D01*
X48559164Y-79563231D01*
X50002595Y-78119800D01*
X50361805Y-78119800D01*
X51805236Y-79563231D01*
X52139692Y-79385021D01*
X52474866Y-78539611D01*
X52461002Y-77630290D01*
X52139692Y-76854579D01*
X51805236Y-76676369D01*
X50361805Y-78119800D01*
X50002595Y-78119800D01*
X48559164Y-76676369D01*
X48224708Y-76854579D01*
X47889534Y-77699989D01*
X43548300Y-77699989D01*
X43548300Y-76496764D01*
X48738769Y-76496764D01*
X50182200Y-77940195D01*
X51625631Y-76496764D01*
X51549815Y-76354475D01*
X61323800Y-76354475D01*
X61323800Y-77442525D01*
X61740179Y-78447753D01*
X62509547Y-79217121D01*
X63514775Y-79633500D01*
X64602825Y-79633500D01*
X65608053Y-79217121D01*
X66377421Y-78447753D01*
X66793800Y-77442525D01*
X66793800Y-77300000D01*
X88327679Y-77300000D01*
X88475529Y-78043294D01*
X88896572Y-78673428D01*
X89526706Y-79094471D01*
X90082374Y-79205000D01*
X90457626Y-79205000D01*
X91013294Y-79094471D01*
X91643428Y-78673428D01*
X92064471Y-78043294D01*
X92128224Y-77722782D01*
X92374900Y-77722782D01*
X92678085Y-78401434D01*
X93217901Y-78912403D01*
X93809619Y-79157493D01*
X94105400Y-79041626D01*
X94105400Y-77427000D01*
X94359400Y-77427000D01*
X94359400Y-79041626D01*
X94655181Y-79157493D01*
X95246899Y-78912403D01*
X95786715Y-78401434D01*
X96089900Y-77722782D01*
X95974419Y-77427000D01*
X94359400Y-77427000D01*
X94105400Y-77427000D01*
X92490381Y-77427000D01*
X92374900Y-77722782D01*
X92128224Y-77722782D01*
X92212321Y-77300000D01*
X92128225Y-76877218D01*
X92374900Y-76877218D01*
X92490381Y-77173000D01*
X94105400Y-77173000D01*
X94105400Y-75558374D01*
X94359400Y-75558374D01*
X94359400Y-77173000D01*
X95974419Y-77173000D01*
X96089900Y-76877218D01*
X95786715Y-76198566D01*
X95246899Y-75687597D01*
X94655181Y-75442507D01*
X94359400Y-75558374D01*
X94105400Y-75558374D01*
X93809619Y-75442507D01*
X93217901Y-75687597D01*
X92678085Y-76198566D01*
X92374900Y-76877218D01*
X92128225Y-76877218D01*
X92064471Y-76556706D01*
X91643428Y-75926572D01*
X91013294Y-75505529D01*
X90457626Y-75395000D01*
X90082374Y-75395000D01*
X89526706Y-75505529D01*
X88896572Y-75926572D01*
X88475529Y-76556706D01*
X88327679Y-77300000D01*
X66793800Y-77300000D01*
X66793800Y-76354475D01*
X66377421Y-75349247D01*
X65608053Y-74579879D01*
X64602825Y-74163500D01*
X63514775Y-74163500D01*
X62509547Y-74579879D01*
X61740179Y-75349247D01*
X61323800Y-76354475D01*
X51549815Y-76354475D01*
X51447421Y-76162308D01*
X50602011Y-75827134D01*
X49692690Y-75840998D01*
X48916979Y-76162308D01*
X48738769Y-76496764D01*
X43548300Y-76496764D01*
X43548300Y-73123777D01*
X51415023Y-73123777D01*
X51441611Y-73709249D01*
X51614510Y-74126663D01*
X51864587Y-74205488D01*
X52720395Y-73349680D01*
X51864587Y-72493872D01*
X51614510Y-72572697D01*
X51415023Y-73123777D01*
X43548300Y-73123777D01*
X43548300Y-67703236D01*
X48738769Y-67703236D01*
X48916979Y-68037692D01*
X49762389Y-68372866D01*
X50671710Y-68359002D01*
X51447421Y-68037692D01*
X51625631Y-67703236D01*
X50182200Y-66259805D01*
X48738769Y-67703236D01*
X43548300Y-67703236D01*
X43548300Y-65660389D01*
X47889534Y-65660389D01*
X47903398Y-66569710D01*
X48224708Y-67345421D01*
X48559164Y-67523631D01*
X50002595Y-66080200D01*
X50361805Y-66080200D01*
X51805236Y-67523631D01*
X52139692Y-67345421D01*
X52474866Y-66500011D01*
X52461002Y-65590690D01*
X52139692Y-64814979D01*
X51805236Y-64636769D01*
X50361805Y-66080200D01*
X50002595Y-66080200D01*
X48559164Y-64636769D01*
X48224708Y-64814979D01*
X47889534Y-65660389D01*
X43548300Y-65660389D01*
X43548300Y-64457164D01*
X48738769Y-64457164D01*
X50182200Y-65900595D01*
X51625631Y-64457164D01*
X51447421Y-64122708D01*
X50602011Y-63787534D01*
X49692690Y-63801398D01*
X48916979Y-64122708D01*
X48738769Y-64457164D01*
X43548300Y-64457164D01*
X43548300Y-60865431D01*
X44665000Y-60865431D01*
X44665000Y-61754569D01*
X45005259Y-62576026D01*
X45633974Y-63204741D01*
X46455431Y-63545000D01*
X47344569Y-63545000D01*
X48166026Y-63204741D01*
X48794741Y-62576026D01*
X49135000Y-61754569D01*
X49135000Y-60865431D01*
X48794741Y-60043974D01*
X48166026Y-59415259D01*
X47344569Y-59075000D01*
X46455431Y-59075000D01*
X45633974Y-59415259D01*
X45005259Y-60043974D01*
X44665000Y-60865431D01*
X43548300Y-60865431D01*
X43548300Y-52354001D01*
X51139583Y-52354001D01*
X51156999Y-52441556D01*
X51157000Y-60958440D01*
X51139583Y-61045999D01*
X51192097Y-61310000D01*
X51208581Y-61392869D01*
X51405067Y-61686932D01*
X51479293Y-61736528D01*
X56111000Y-66368236D01*
X56111001Y-69996701D01*
X55715701Y-69601401D01*
X55174238Y-69377120D01*
X54588162Y-69377120D01*
X54046699Y-69601401D01*
X53890600Y-69757500D01*
X53734501Y-69601401D01*
X53193038Y-69377120D01*
X52606962Y-69377120D01*
X52065499Y-69601401D01*
X51651081Y-70015819D01*
X51426800Y-70557282D01*
X51426800Y-71143358D01*
X51651081Y-71684821D01*
X52065499Y-72099239D01*
X52106603Y-72116265D01*
X52044192Y-72314267D01*
X52900000Y-73170075D01*
X52914143Y-73155933D01*
X53093748Y-73335538D01*
X53079605Y-73349680D01*
X53093748Y-73363823D01*
X52914143Y-73543428D01*
X52900000Y-73529285D01*
X52044192Y-74385093D01*
X52123017Y-74635170D01*
X52674097Y-74834657D01*
X53259569Y-74808069D01*
X53676983Y-74635170D01*
X53755807Y-74385095D01*
X53870555Y-74499843D01*
X53909249Y-74461149D01*
X54046699Y-74598599D01*
X54588162Y-74822880D01*
X55174238Y-74822880D01*
X55715701Y-74598599D01*
X56130119Y-74184181D01*
X56354400Y-73642718D01*
X56354400Y-73133715D01*
X57566707Y-71921409D01*
X57640933Y-71871813D01*
X57837419Y-71577750D01*
X57889000Y-71318436D01*
X57889000Y-71318435D01*
X57906416Y-71230880D01*
X57889000Y-71143325D01*
X57889000Y-66868100D01*
X67135760Y-66868100D01*
X67135760Y-68519100D01*
X67185043Y-68766865D01*
X67325391Y-68976909D01*
X67535435Y-69117257D01*
X67638987Y-69137854D01*
X67370548Y-69406293D01*
X67148200Y-69943088D01*
X67148200Y-70524112D01*
X67370548Y-71060907D01*
X67781393Y-71471752D01*
X68318188Y-71694100D01*
X68899212Y-71694100D01*
X69436007Y-71471752D01*
X69846852Y-71060907D01*
X70069200Y-70524112D01*
X70069200Y-69943088D01*
X69846852Y-69406293D01*
X69578413Y-69137854D01*
X69681965Y-69117257D01*
X69892009Y-68976909D01*
X70032357Y-68766865D01*
X70081640Y-68519100D01*
X70081640Y-66868100D01*
X70032357Y-66620335D01*
X69892009Y-66410291D01*
X69681965Y-66269943D01*
X69434200Y-66220660D01*
X67783200Y-66220660D01*
X67535435Y-66269943D01*
X67325391Y-66410291D01*
X67185043Y-66620335D01*
X67135760Y-66868100D01*
X57889000Y-66868100D01*
X57889000Y-66087550D01*
X57906415Y-65999999D01*
X57889000Y-65912448D01*
X57889000Y-65912444D01*
X57837419Y-65653130D01*
X57640933Y-65359067D01*
X57566707Y-65309471D01*
X52934999Y-60677764D01*
X52934999Y-60138636D01*
X52974506Y-60155000D01*
X53525494Y-60155000D01*
X54034540Y-59944147D01*
X54424147Y-59554540D01*
X54635000Y-59045494D01*
X54635000Y-58494506D01*
X54424147Y-57985460D01*
X54034540Y-57595853D01*
X53803130Y-57500000D01*
X54034540Y-57404147D01*
X54424147Y-57014540D01*
X54635000Y-56505494D01*
X54635000Y-55954506D01*
X54424147Y-55445460D01*
X54034540Y-55055853D01*
X53803130Y-54960000D01*
X54034540Y-54864147D01*
X54214181Y-54684506D01*
X54405000Y-54684506D01*
X54405000Y-55235494D01*
X54615853Y-55744540D01*
X55005460Y-56134147D01*
X55236870Y-56230000D01*
X55005460Y-56325853D01*
X54615853Y-56715460D01*
X54405000Y-57224506D01*
X54405000Y-57775494D01*
X54615853Y-58284540D01*
X55005460Y-58674147D01*
X55236870Y-58770000D01*
X55005460Y-58865853D01*
X54615853Y-59255460D01*
X54405000Y-59764506D01*
X54405000Y-60315494D01*
X54615853Y-60824540D01*
X55005460Y-61214147D01*
X55514506Y-61425000D01*
X56065494Y-61425000D01*
X56574540Y-61214147D01*
X56964147Y-60824540D01*
X57175000Y-60315494D01*
X57175000Y-59764506D01*
X56964147Y-59255460D01*
X56574540Y-58865853D01*
X56343130Y-58770000D01*
X56574540Y-58674147D01*
X56964147Y-58284540D01*
X57175000Y-57775494D01*
X57175000Y-57224506D01*
X56964147Y-56715460D01*
X56574540Y-56325853D01*
X56343130Y-56230000D01*
X56574540Y-56134147D01*
X56964147Y-55744540D01*
X57175000Y-55235494D01*
X57175000Y-54684506D01*
X56964147Y-54175460D01*
X56574540Y-53785853D01*
X56359070Y-53696603D01*
X56513923Y-53632460D01*
X56581912Y-53391517D01*
X55790000Y-52599605D01*
X54998088Y-53391517D01*
X55066077Y-53632460D01*
X55232658Y-53691745D01*
X55005460Y-53785853D01*
X54615853Y-54175460D01*
X54405000Y-54684506D01*
X54214181Y-54684506D01*
X54424147Y-54474540D01*
X54635000Y-53965494D01*
X54635000Y-53414506D01*
X54424147Y-52905460D01*
X54055156Y-52536469D01*
X54247765Y-52498157D01*
X54401947Y-52395135D01*
X54420770Y-52765448D01*
X54577540Y-53143923D01*
X54818483Y-53211912D01*
X55610395Y-52420000D01*
X55969605Y-52420000D01*
X56761517Y-53211912D01*
X57002460Y-53143923D01*
X57187201Y-52624829D01*
X57159230Y-52074552D01*
X57002460Y-51696077D01*
X56761517Y-51628088D01*
X55969605Y-52420000D01*
X55610395Y-52420000D01*
X54818483Y-51628088D01*
X54647440Y-51676353D01*
X54647440Y-51448483D01*
X54998088Y-51448483D01*
X55790000Y-52240395D01*
X56581912Y-51448483D01*
X56513923Y-51207540D01*
X55994829Y-51022799D01*
X55444552Y-51050770D01*
X55066077Y-51207540D01*
X54998088Y-51448483D01*
X54647440Y-51448483D01*
X54647440Y-50400000D01*
X54598157Y-50152235D01*
X54457809Y-49942191D01*
X54247765Y-49801843D01*
X54000000Y-49752560D01*
X52500000Y-49752560D01*
X52252235Y-49801843D01*
X52042191Y-49942191D01*
X51901843Y-50152235D01*
X51852560Y-50400000D01*
X51852560Y-51290205D01*
X51479295Y-51663470D01*
X51405066Y-51713068D01*
X51208580Y-52007132D01*
X51156999Y-52266445D01*
X51139583Y-52354001D01*
X43548300Y-52354001D01*
X43548300Y-49435431D01*
X44665000Y-49435431D01*
X44665000Y-50324569D01*
X45005259Y-51146026D01*
X45633974Y-51774741D01*
X46455431Y-52115000D01*
X47344569Y-52115000D01*
X48166026Y-51774741D01*
X48794741Y-51146026D01*
X49135000Y-50324569D01*
X49135000Y-49435431D01*
X48794741Y-48613974D01*
X48166026Y-47985259D01*
X47344569Y-47645000D01*
X46455431Y-47645000D01*
X45633974Y-47985259D01*
X45005259Y-48613974D01*
X44665000Y-49435431D01*
X43548300Y-49435431D01*
X43548300Y-40355975D01*
X47965000Y-40355975D01*
X47965000Y-41444025D01*
X48381379Y-42449253D01*
X49150747Y-43218621D01*
X50155975Y-43635000D01*
X51244025Y-43635000D01*
X52249253Y-43218621D01*
X52607373Y-42860501D01*
X61754611Y-42860501D01*
X61769499Y-42935348D01*
X61769500Y-52334647D01*
X61754611Y-52409499D01*
X61769500Y-52484351D01*
X61789421Y-52584500D01*
X61813596Y-52706036D01*
X61930529Y-52881038D01*
X61981571Y-52957428D01*
X62045027Y-52999828D01*
X62097380Y-53052181D01*
X62069500Y-53119488D01*
X62069500Y-53700512D01*
X62291848Y-54237307D01*
X62702693Y-54648152D01*
X62779581Y-54680000D01*
X62702693Y-54711848D01*
X62291848Y-55122693D01*
X62069500Y-55659488D01*
X62069500Y-56240512D01*
X62291848Y-56777307D01*
X62702693Y-57188152D01*
X62779581Y-57220000D01*
X62702693Y-57251848D01*
X62291848Y-57662693D01*
X62069500Y-58199488D01*
X62069500Y-58780512D01*
X62291848Y-59317307D01*
X62702693Y-59728152D01*
X63239488Y-59950500D01*
X63820512Y-59950500D01*
X64357307Y-59728152D01*
X64625746Y-59459713D01*
X64646343Y-59563265D01*
X64786691Y-59773309D01*
X64996735Y-59913657D01*
X65244500Y-59962940D01*
X66895500Y-59962940D01*
X67143265Y-59913657D01*
X67353309Y-59773309D01*
X67493657Y-59563265D01*
X67542940Y-59315500D01*
X67542940Y-59138483D01*
X67693429Y-59037929D01*
X67723470Y-58992969D01*
X67768430Y-58962928D01*
X67936405Y-58711536D01*
X67980501Y-58489851D01*
X67980501Y-58489847D01*
X67995389Y-58415000D01*
X67980501Y-58340153D01*
X67980501Y-56753652D01*
X68097569Y-57036280D01*
X68388720Y-57327431D01*
X68769126Y-57485000D01*
X69180874Y-57485000D01*
X69561280Y-57327431D01*
X69852431Y-57036280D01*
X70010000Y-56655874D01*
X70010000Y-56244126D01*
X69852431Y-55863720D01*
X69561280Y-55572569D01*
X69360000Y-55489196D01*
X69360000Y-55003711D01*
X69477431Y-54886280D01*
X69635000Y-54505874D01*
X69635000Y-54094126D01*
X69477431Y-53713720D01*
X69186280Y-53422569D01*
X68805874Y-53265000D01*
X68394126Y-53265000D01*
X68013720Y-53422569D01*
X67980501Y-53455788D01*
X67980501Y-48940847D01*
X67995389Y-48866000D01*
X67980501Y-48791153D01*
X67980501Y-48791149D01*
X67936405Y-48569464D01*
X67768430Y-48318072D01*
X67704974Y-48275672D01*
X67502890Y-48073589D01*
X67503309Y-48073309D01*
X67643657Y-47863265D01*
X67692940Y-47615500D01*
X67692940Y-46754343D01*
X70565000Y-46754343D01*
X70565000Y-47245657D01*
X70753018Y-47699571D01*
X70961001Y-47907554D01*
X70961000Y-58242447D01*
X70803018Y-58400429D01*
X70615000Y-58854343D01*
X70615000Y-59345657D01*
X70803018Y-59799571D01*
X71150429Y-60146982D01*
X71496001Y-60290123D01*
X71496000Y-64085544D01*
X71496000Y-64085545D01*
X71496001Y-66693541D01*
X71478584Y-66781100D01*
X71547582Y-67127970D01*
X71692878Y-67345421D01*
X71744068Y-67422033D01*
X71818294Y-67471629D01*
X72107500Y-67760835D01*
X72107500Y-67984257D01*
X72295518Y-68438171D01*
X72642929Y-68785582D01*
X73096843Y-68973600D01*
X73588157Y-68973600D01*
X74042071Y-68785582D01*
X74389482Y-68438171D01*
X74577500Y-67984257D01*
X74577500Y-67492943D01*
X74389482Y-67039029D01*
X74042071Y-66691618D01*
X73588157Y-66503600D01*
X73364735Y-66503600D01*
X73274000Y-66412865D01*
X73274000Y-59722550D01*
X73291415Y-59634999D01*
X73274000Y-59547448D01*
X73274000Y-59547444D01*
X73222419Y-59288130D01*
X73085000Y-59082467D01*
X73085000Y-59069126D01*
X78590000Y-59069126D01*
X78590000Y-59480874D01*
X78747569Y-59861280D01*
X79038720Y-60152431D01*
X79419126Y-60310000D01*
X79830874Y-60310000D01*
X80211280Y-60152431D01*
X80502431Y-59861280D01*
X80660000Y-59480874D01*
X80660000Y-59069126D01*
X80502431Y-58688720D01*
X80435000Y-58621289D01*
X80435000Y-54795000D01*
X80591887Y-54795000D01*
X80703260Y-55354909D01*
X81020423Y-55829577D01*
X81372758Y-56065000D01*
X81020423Y-56300423D01*
X80703260Y-56775091D01*
X80591887Y-57335000D01*
X80703260Y-57894909D01*
X81020423Y-58369577D01*
X81372758Y-58605000D01*
X81020423Y-58840423D01*
X80703260Y-59315091D01*
X80591887Y-59875000D01*
X80703260Y-60434909D01*
X81020423Y-60909577D01*
X81295001Y-61093044D01*
X81295000Y-72780153D01*
X81280112Y-72855000D01*
X81295000Y-72929847D01*
X81295000Y-72929851D01*
X81339096Y-73151536D01*
X81507071Y-73402929D01*
X81570530Y-73445331D01*
X82715000Y-74589802D01*
X82715000Y-74755874D01*
X82872569Y-75136280D01*
X83163720Y-75427431D01*
X83544126Y-75585000D01*
X83955874Y-75585000D01*
X84336280Y-75427431D01*
X84469585Y-75294126D01*
X95815000Y-75294126D01*
X95815000Y-75705874D01*
X95972569Y-76086280D01*
X96263720Y-76377431D01*
X96644126Y-76535000D01*
X97055874Y-76535000D01*
X97436280Y-76377431D01*
X97727431Y-76086280D01*
X97885000Y-75705874D01*
X97885000Y-75294126D01*
X97739000Y-74941650D01*
X97739000Y-67543236D01*
X97965530Y-67316706D01*
X98112419Y-67096871D01*
X98181417Y-66750001D01*
X98112419Y-66403130D01*
X98035001Y-66287266D01*
X98035001Y-58949066D01*
X98101735Y-58993657D01*
X98349500Y-59042940D01*
X100000500Y-59042940D01*
X100248265Y-58993657D01*
X100458309Y-58853309D01*
X100540001Y-58731050D01*
X100540001Y-59779136D01*
X100505874Y-59765000D01*
X100094126Y-59765000D01*
X99713720Y-59922569D01*
X99422569Y-60213720D01*
X99265000Y-60594126D01*
X99265000Y-61005874D01*
X99422569Y-61386280D01*
X99540001Y-61503712D01*
X99540000Y-63675153D01*
X99525112Y-63750000D01*
X99540000Y-63824847D01*
X99540000Y-63824851D01*
X99584096Y-64046536D01*
X99752071Y-64297929D01*
X99815530Y-64340331D01*
X101653000Y-66177802D01*
X101652999Y-76338152D01*
X101638111Y-76412999D01*
X101652999Y-76487846D01*
X101652999Y-76487850D01*
X101697095Y-76709535D01*
X101865070Y-76960928D01*
X101928529Y-77003330D01*
X102186371Y-77261172D01*
X102103000Y-77462446D01*
X102103000Y-78137554D01*
X102361353Y-78761273D01*
X102838727Y-79238647D01*
X103462446Y-79497000D01*
X104137554Y-79497000D01*
X104761273Y-79238647D01*
X105238647Y-78761273D01*
X105497000Y-78137554D01*
X105497000Y-77462446D01*
X105238647Y-76838727D01*
X104761273Y-76361353D01*
X104137554Y-76103000D01*
X103462446Y-76103000D01*
X103261172Y-76186371D01*
X103172999Y-76098198D01*
X103172999Y-74962446D01*
X114603000Y-74962446D01*
X114603000Y-75637554D01*
X114861353Y-76261273D01*
X115150080Y-76550000D01*
X114861353Y-76838727D01*
X114603000Y-77462446D01*
X114603000Y-78137554D01*
X114861353Y-78761273D01*
X115338727Y-79238647D01*
X115962446Y-79497000D01*
X116637554Y-79497000D01*
X117261273Y-79238647D01*
X117738647Y-78761273D01*
X117997000Y-78137554D01*
X117997000Y-77462446D01*
X117738647Y-76838727D01*
X117449920Y-76550000D01*
X117738647Y-76261273D01*
X117997000Y-75637554D01*
X117997000Y-74962446D01*
X117738647Y-74338727D01*
X117261273Y-73861353D01*
X116637554Y-73603000D01*
X115962446Y-73603000D01*
X115338727Y-73861353D01*
X114861353Y-74338727D01*
X114603000Y-74962446D01*
X103172999Y-74962446D01*
X103172999Y-73997384D01*
X105282222Y-73997384D01*
X105388475Y-74270671D01*
X106020662Y-74507548D01*
X106695376Y-74484467D01*
X107211525Y-74270671D01*
X107317778Y-73997384D01*
X106300000Y-72979605D01*
X105282222Y-73997384D01*
X103172999Y-73997384D01*
X103172999Y-72520662D01*
X104592452Y-72520662D01*
X104615533Y-73195376D01*
X104829329Y-73711525D01*
X105102616Y-73817778D01*
X106120395Y-72800000D01*
X106479605Y-72800000D01*
X107497384Y-73817778D01*
X107770671Y-73711525D01*
X108007548Y-73079338D01*
X107984467Y-72404624D01*
X107770671Y-71888475D01*
X107497384Y-71782222D01*
X106479605Y-72800000D01*
X106120395Y-72800000D01*
X105102616Y-71782222D01*
X104829329Y-71888475D01*
X104592452Y-72520662D01*
X103172999Y-72520662D01*
X103172999Y-71602616D01*
X105282222Y-71602616D01*
X106300000Y-72620395D01*
X107317778Y-71602616D01*
X107211525Y-71329329D01*
X106579338Y-71092452D01*
X105904624Y-71115533D01*
X105388475Y-71329329D01*
X105282222Y-71602616D01*
X103172999Y-71602616D01*
X103172999Y-69377107D01*
X103462446Y-69497000D01*
X104137554Y-69497000D01*
X104761273Y-69238647D01*
X105238647Y-68761273D01*
X105497000Y-68137554D01*
X105497000Y-67462446D01*
X114603000Y-67462446D01*
X114603000Y-68137554D01*
X114861353Y-68761273D01*
X115150080Y-69050000D01*
X114861353Y-69338727D01*
X114603000Y-69962446D01*
X114603000Y-70637554D01*
X114861353Y-71261273D01*
X115338727Y-71738647D01*
X115962446Y-71997000D01*
X116637554Y-71997000D01*
X117261273Y-71738647D01*
X117738647Y-71261273D01*
X117997000Y-70637554D01*
X117997000Y-69962446D01*
X117738647Y-69338727D01*
X117449920Y-69050000D01*
X117738647Y-68761273D01*
X117997000Y-68137554D01*
X117997000Y-67462446D01*
X117738647Y-66838727D01*
X117261273Y-66361353D01*
X116637554Y-66103000D01*
X115962446Y-66103000D01*
X115338727Y-66361353D01*
X114861353Y-66838727D01*
X114603000Y-67462446D01*
X105497000Y-67462446D01*
X105238647Y-66838727D01*
X104761273Y-66361353D01*
X104568506Y-66281506D01*
X104560000Y-66238742D01*
X104560000Y-66238737D01*
X104515904Y-66017052D01*
X104347929Y-65765660D01*
X104284473Y-65723260D01*
X103523659Y-64962446D01*
X104603000Y-64962446D01*
X104603000Y-65637554D01*
X104861353Y-66261273D01*
X105338727Y-66738647D01*
X105962446Y-66997000D01*
X106637554Y-66997000D01*
X107261273Y-66738647D01*
X107738647Y-66261273D01*
X107997000Y-65637554D01*
X107997000Y-64962446D01*
X107738647Y-64338727D01*
X107261273Y-63861353D01*
X106637554Y-63603000D01*
X105962446Y-63603000D01*
X105338727Y-63861353D01*
X104861353Y-64338727D01*
X104603000Y-64962446D01*
X103523659Y-64962446D01*
X102060000Y-63498788D01*
X102060000Y-58373711D01*
X102163720Y-58477431D01*
X102544126Y-58635000D01*
X102955874Y-58635000D01*
X103336280Y-58477431D01*
X103505936Y-58307775D01*
X107996300Y-58307775D01*
X107996300Y-59395825D01*
X108412679Y-60401053D01*
X109182047Y-61170421D01*
X110187275Y-61586800D01*
X111275325Y-61586800D01*
X112280553Y-61170421D01*
X113049921Y-60401053D01*
X113466300Y-59395825D01*
X113466300Y-58307775D01*
X113049921Y-57302547D01*
X112280553Y-56533179D01*
X111275325Y-56116800D01*
X110187275Y-56116800D01*
X109182047Y-56533179D01*
X108412679Y-57302547D01*
X107996300Y-58307775D01*
X103505936Y-58307775D01*
X103627431Y-58186280D01*
X103785000Y-57805874D01*
X103785000Y-57394126D01*
X103627431Y-57013720D01*
X103498001Y-56884290D01*
X103498001Y-52462446D01*
X104603000Y-52462446D01*
X104603000Y-53137554D01*
X104861353Y-53761273D01*
X105338727Y-54238647D01*
X105962446Y-54497000D01*
X106637554Y-54497000D01*
X107261273Y-54238647D01*
X107738647Y-53761273D01*
X107997000Y-53137554D01*
X107997000Y-52462446D01*
X107738647Y-51838727D01*
X107261273Y-51361353D01*
X106637554Y-51103000D01*
X105962446Y-51103000D01*
X105338727Y-51361353D01*
X104861353Y-51838727D01*
X104603000Y-52462446D01*
X103498001Y-52462446D01*
X103498001Y-51997000D01*
X104137554Y-51997000D01*
X104761273Y-51738647D01*
X105238647Y-51261273D01*
X105497000Y-50637554D01*
X105497000Y-49962446D01*
X105238647Y-49338727D01*
X104761273Y-48861353D01*
X104137554Y-48603000D01*
X103462446Y-48603000D01*
X102838727Y-48861353D01*
X102361353Y-49338727D01*
X102103000Y-49962446D01*
X102103000Y-50289289D01*
X101886280Y-50072569D01*
X101505874Y-49915000D01*
X101094126Y-49915000D01*
X100713720Y-50072569D01*
X100422569Y-50363720D01*
X100265000Y-50744126D01*
X100265000Y-51155874D01*
X100422569Y-51536280D01*
X100540000Y-51653711D01*
X100540000Y-54370570D01*
X100537529Y-54366871D01*
X100459584Y-54314790D01*
X100413152Y-54202693D01*
X100002307Y-53791848D01*
X99935000Y-53763968D01*
X99935000Y-47462446D01*
X114603000Y-47462446D01*
X114603000Y-48137554D01*
X114861353Y-48761273D01*
X115150080Y-49050000D01*
X114861353Y-49338727D01*
X114603000Y-49962446D01*
X114603000Y-50637554D01*
X114861353Y-51261273D01*
X115338727Y-51738647D01*
X115962446Y-51997000D01*
X116637554Y-51997000D01*
X117261273Y-51738647D01*
X117738647Y-51261273D01*
X117997000Y-50637554D01*
X117997000Y-49962446D01*
X117738647Y-49338727D01*
X117449920Y-49050000D01*
X117738647Y-48761273D01*
X117997000Y-48137554D01*
X117997000Y-47462446D01*
X117738647Y-46838727D01*
X117261273Y-46361353D01*
X116637554Y-46103000D01*
X115962446Y-46103000D01*
X115338727Y-46361353D01*
X114861353Y-46838727D01*
X114603000Y-47462446D01*
X99935000Y-47462446D01*
X99935000Y-45239801D01*
X100212355Y-44962446D01*
X104603000Y-44962446D01*
X104603000Y-45637554D01*
X104861353Y-46261273D01*
X105338727Y-46738647D01*
X105962446Y-46997000D01*
X106637554Y-46997000D01*
X107261273Y-46738647D01*
X107738647Y-46261273D01*
X107997000Y-45637554D01*
X107997000Y-44962446D01*
X107738647Y-44338727D01*
X107261273Y-43861353D01*
X106637554Y-43603000D01*
X105962446Y-43603000D01*
X105338727Y-43861353D01*
X104861353Y-44338727D01*
X104603000Y-44962446D01*
X100212355Y-44962446D01*
X103261172Y-41913630D01*
X103462446Y-41997000D01*
X104137554Y-41997000D01*
X104761273Y-41738647D01*
X105238647Y-41261273D01*
X105497000Y-40637554D01*
X105497000Y-39962446D01*
X114603000Y-39962446D01*
X114603000Y-40637554D01*
X114861353Y-41261273D01*
X115150080Y-41550000D01*
X114861353Y-41838727D01*
X114603000Y-42462446D01*
X114603000Y-43137554D01*
X114861353Y-43761273D01*
X115338727Y-44238647D01*
X115962446Y-44497000D01*
X116637554Y-44497000D01*
X117261273Y-44238647D01*
X117738647Y-43761273D01*
X117997000Y-43137554D01*
X117997000Y-42462446D01*
X117738647Y-41838727D01*
X117449920Y-41550000D01*
X117738647Y-41261273D01*
X117997000Y-40637554D01*
X117997000Y-39962446D01*
X117738647Y-39338727D01*
X117261273Y-38861353D01*
X116637554Y-38603000D01*
X115962446Y-38603000D01*
X115338727Y-38861353D01*
X114861353Y-39338727D01*
X114603000Y-39962446D01*
X105497000Y-39962446D01*
X105238647Y-39338727D01*
X104761273Y-38861353D01*
X104137554Y-38603000D01*
X103462446Y-38603000D01*
X102838727Y-38861353D01*
X102361353Y-39338727D01*
X102103000Y-39962446D01*
X102103000Y-40637554D01*
X102186370Y-40838828D01*
X98690530Y-44334669D01*
X98627071Y-44377071D01*
X98459096Y-44628464D01*
X98415000Y-44850149D01*
X98415000Y-44850153D01*
X98400112Y-44925000D01*
X98415000Y-44999847D01*
X98415000Y-47976289D01*
X98261280Y-47822569D01*
X97880874Y-47665000D01*
X97469126Y-47665000D01*
X97088720Y-47822569D01*
X96797569Y-48113720D01*
X96640000Y-48494126D01*
X96640000Y-48682383D01*
X96559097Y-48803463D01*
X96515001Y-49025148D01*
X96515001Y-49025152D01*
X96500113Y-49099999D01*
X96515001Y-49174846D01*
X96515002Y-66252764D01*
X96283294Y-66484472D01*
X96209068Y-66534068D01*
X96159472Y-66608294D01*
X96159471Y-66608295D01*
X96012582Y-66828131D01*
X95943584Y-67175001D01*
X95961001Y-67262560D01*
X95961000Y-74941650D01*
X95815000Y-75294126D01*
X84469585Y-75294126D01*
X84627431Y-75136280D01*
X84785000Y-74755874D01*
X84785000Y-74344126D01*
X84627431Y-73963720D01*
X84336280Y-73672569D01*
X83955874Y-73515000D01*
X83789802Y-73515000D01*
X82815000Y-72540199D01*
X82815000Y-72022940D01*
X84385500Y-72022940D01*
X84633265Y-71973657D01*
X84843309Y-71833309D01*
X84983657Y-71623265D01*
X85004254Y-71519713D01*
X85272693Y-71788152D01*
X85809488Y-72010500D01*
X86390512Y-72010500D01*
X86927307Y-71788152D01*
X87338152Y-71377307D01*
X87370000Y-71300419D01*
X87401848Y-71377307D01*
X87812693Y-71788152D01*
X88349488Y-72010500D01*
X88930512Y-72010500D01*
X89467307Y-71788152D01*
X89878152Y-71377307D01*
X90100500Y-70840512D01*
X90100500Y-70259488D01*
X89878152Y-69722693D01*
X89467307Y-69311848D01*
X88930512Y-69089500D01*
X88349488Y-69089500D01*
X87812693Y-69311848D01*
X87401848Y-69722693D01*
X87370000Y-69799581D01*
X87338152Y-69722693D01*
X86927307Y-69311848D01*
X86610000Y-69180415D01*
X86610000Y-65294126D01*
X86965000Y-65294126D01*
X86965000Y-65705874D01*
X87122569Y-66086280D01*
X87413720Y-66377431D01*
X87794126Y-66535000D01*
X88205874Y-66535000D01*
X88586280Y-66377431D01*
X88877431Y-66086280D01*
X89035000Y-65705874D01*
X89035000Y-65294126D01*
X88877431Y-64913720D01*
X88586280Y-64622569D01*
X88205874Y-64465000D01*
X87794126Y-64465000D01*
X87413720Y-64622569D01*
X87122569Y-64913720D01*
X86965000Y-65294126D01*
X86610000Y-65294126D01*
X86610000Y-64628711D01*
X86727431Y-64511280D01*
X86885000Y-64130874D01*
X86885000Y-63719126D01*
X86727431Y-63338720D01*
X86436280Y-63047569D01*
X86055874Y-62890000D01*
X85860000Y-62890000D01*
X85860000Y-52255000D01*
X88211887Y-52255000D01*
X88323260Y-52814909D01*
X88640423Y-53289577D01*
X88992758Y-53525000D01*
X88640423Y-53760423D01*
X88323260Y-54235091D01*
X88211887Y-54795000D01*
X88323260Y-55354909D01*
X88640423Y-55829577D01*
X88992758Y-56065000D01*
X88640423Y-56300423D01*
X88323260Y-56775091D01*
X88211887Y-57335000D01*
X88323260Y-57894909D01*
X88640423Y-58369577D01*
X88761106Y-58450215D01*
X88627235Y-58476843D01*
X88417191Y-58617191D01*
X88276843Y-58827235D01*
X88227560Y-59075000D01*
X88227560Y-60675000D01*
X88276843Y-60922765D01*
X88417191Y-61132809D01*
X88627235Y-61273157D01*
X88875000Y-61322440D01*
X90475000Y-61322440D01*
X90722765Y-61273157D01*
X90932809Y-61132809D01*
X91073157Y-60922765D01*
X91122440Y-60675000D01*
X91122440Y-59075000D01*
X91073157Y-58827235D01*
X90932809Y-58617191D01*
X90722765Y-58476843D01*
X90588894Y-58450215D01*
X90709577Y-58369577D01*
X91026740Y-57894909D01*
X91138113Y-57335000D01*
X91026740Y-56775091D01*
X90709577Y-56300423D01*
X90357242Y-56065000D01*
X90709577Y-55829577D01*
X91026740Y-55354909D01*
X91138113Y-54795000D01*
X91026740Y-54235091D01*
X90709577Y-53760423D01*
X90357242Y-53525000D01*
X90709577Y-53289577D01*
X91026740Y-52814909D01*
X91138113Y-52255000D01*
X91026740Y-51695091D01*
X90709577Y-51220423D01*
X90234909Y-50903260D01*
X89816333Y-50820000D01*
X89533667Y-50820000D01*
X89115091Y-50903260D01*
X88640423Y-51220423D01*
X88323260Y-51695091D01*
X88211887Y-52255000D01*
X85860000Y-52255000D01*
X85860000Y-47530487D01*
X86134475Y-47256013D01*
X86197929Y-47213614D01*
X86240327Y-47150161D01*
X86240329Y-47150159D01*
X86324102Y-47024783D01*
X86365904Y-46962222D01*
X86394314Y-46819397D01*
X86527431Y-46686280D01*
X86685000Y-46305874D01*
X86685000Y-45894126D01*
X86527431Y-45513720D01*
X86236280Y-45222569D01*
X85855874Y-45065000D01*
X85444126Y-45065000D01*
X85063720Y-45222569D01*
X84772569Y-45513720D01*
X84615000Y-45894126D01*
X84615000Y-46305874D01*
X84708728Y-46532155D01*
X84615529Y-46625355D01*
X84552071Y-46667756D01*
X84384096Y-46919149D01*
X84340000Y-47140834D01*
X84340000Y-47140838D01*
X84325112Y-47215685D01*
X84340000Y-47290532D01*
X84340000Y-47765000D01*
X84169116Y-47765000D01*
X83788710Y-47922569D01*
X83497559Y-48213720D01*
X83339990Y-48594126D01*
X83339990Y-49005874D01*
X83497559Y-49386280D01*
X83614991Y-49503712D01*
X83614990Y-52160207D01*
X83349127Y-52426070D01*
X83324915Y-52382000D01*
X82182000Y-52382000D01*
X82182000Y-52402000D01*
X81928000Y-52402000D01*
X81928000Y-52382000D01*
X80785085Y-52382000D01*
X80663096Y-52604039D01*
X80823959Y-52992423D01*
X81199866Y-53407389D01*
X81404108Y-53504053D01*
X81020423Y-53760423D01*
X80703260Y-54235091D01*
X80591887Y-54795000D01*
X80435000Y-54795000D01*
X80435000Y-51905961D01*
X80663096Y-51905961D01*
X80785085Y-52128000D01*
X81928000Y-52128000D01*
X81928000Y-50984371D01*
X82182000Y-50984371D01*
X82182000Y-52128000D01*
X83324915Y-52128000D01*
X83446904Y-51905961D01*
X83286041Y-51517577D01*
X82910134Y-51102611D01*
X82404041Y-50863086D01*
X82182000Y-50984371D01*
X81928000Y-50984371D01*
X81705959Y-50863086D01*
X81199866Y-51102611D01*
X80823959Y-51517577D01*
X80663096Y-51905961D01*
X80435000Y-51905961D01*
X80435000Y-51103711D01*
X80552431Y-50986280D01*
X80710000Y-50605874D01*
X80710000Y-50194126D01*
X80552431Y-49813720D01*
X80261280Y-49522569D01*
X79880874Y-49365000D01*
X79469126Y-49365000D01*
X79088720Y-49522569D01*
X78797569Y-49813720D01*
X78640000Y-50194126D01*
X78640000Y-50605874D01*
X78797569Y-50986280D01*
X78915000Y-51103711D01*
X78915001Y-58521288D01*
X78747569Y-58688720D01*
X78590000Y-59069126D01*
X73085000Y-59069126D01*
X73085000Y-58854343D01*
X72896982Y-58400429D01*
X72739000Y-58242447D01*
X72739000Y-53030000D01*
X72805112Y-53030000D01*
X72820001Y-53104852D01*
X72856745Y-53289577D01*
X72864097Y-53326537D01*
X72915000Y-53402719D01*
X72915000Y-53605874D01*
X73072569Y-53986280D01*
X73363720Y-54277431D01*
X73744126Y-54435000D01*
X73972333Y-54435000D01*
X73865000Y-54694126D01*
X73865000Y-55105874D01*
X74022569Y-55486280D01*
X74140000Y-55603711D01*
X74140001Y-55621288D01*
X74022569Y-55738720D01*
X73865000Y-56119126D01*
X73865000Y-56530874D01*
X74022569Y-56911280D01*
X74313720Y-57202431D01*
X74694126Y-57360000D01*
X75105874Y-57360000D01*
X75486280Y-57202431D01*
X75777431Y-56911280D01*
X75935000Y-56530874D01*
X75935000Y-56119126D01*
X75777431Y-55738720D01*
X75660000Y-55621289D01*
X75660000Y-55603711D01*
X75777431Y-55486280D01*
X75935000Y-55105874D01*
X75935000Y-54694126D01*
X75777431Y-54313720D01*
X75486280Y-54022569D01*
X75105874Y-53865000D01*
X74877667Y-53865000D01*
X74985000Y-53605874D01*
X74985000Y-53194126D01*
X74827431Y-52813720D01*
X74536280Y-52522569D01*
X74340000Y-52441267D01*
X74340000Y-49500148D01*
X74295904Y-49278463D01*
X74127929Y-49027071D01*
X73876536Y-48859096D01*
X73580000Y-48800111D01*
X73283463Y-48859096D01*
X73032071Y-49027071D01*
X72864096Y-49278464D01*
X72820000Y-49500149D01*
X72820001Y-52955148D01*
X72805112Y-53030000D01*
X72739000Y-53030000D01*
X72739000Y-47807553D01*
X72846982Y-47699571D01*
X73035000Y-47245657D01*
X73035000Y-46754343D01*
X72846982Y-46300429D01*
X72499571Y-45953018D01*
X72045657Y-45765000D01*
X71554343Y-45765000D01*
X71100429Y-45953018D01*
X70753018Y-46300429D01*
X70565000Y-46754343D01*
X67692940Y-46754343D01*
X67692940Y-45964500D01*
X67643657Y-45716735D01*
X67503309Y-45506691D01*
X67293265Y-45366343D01*
X67189713Y-45345746D01*
X67458152Y-45077307D01*
X67680500Y-44540512D01*
X67680500Y-43959488D01*
X67458152Y-43422693D01*
X67047307Y-43011848D01*
X66970419Y-42980000D01*
X67047307Y-42948152D01*
X67458152Y-42537307D01*
X67680500Y-42000512D01*
X67680500Y-41419488D01*
X67458152Y-40882693D01*
X67047307Y-40471848D01*
X66888276Y-40405975D01*
X87965000Y-40405975D01*
X87965000Y-41494025D01*
X88381379Y-42499253D01*
X89150747Y-43268621D01*
X90155975Y-43685000D01*
X91244025Y-43685000D01*
X92249253Y-43268621D01*
X93018621Y-42499253D01*
X93435000Y-41494025D01*
X93435000Y-40405975D01*
X93018621Y-39400747D01*
X92249253Y-38631379D01*
X91244025Y-38215000D01*
X90155975Y-38215000D01*
X89150747Y-38631379D01*
X88381379Y-39400747D01*
X87965000Y-40405975D01*
X66888276Y-40405975D01*
X66510512Y-40249500D01*
X65929488Y-40249500D01*
X65392693Y-40471848D01*
X64981848Y-40882693D01*
X64950000Y-40959581D01*
X64918152Y-40882693D01*
X64507307Y-40471848D01*
X63970512Y-40249500D01*
X63389488Y-40249500D01*
X62852693Y-40471848D01*
X62441848Y-40882693D01*
X62219500Y-41419488D01*
X62219500Y-42000512D01*
X62247380Y-42067819D01*
X62045029Y-42270170D01*
X61981570Y-42312572D01*
X61813595Y-42563965D01*
X61769499Y-42785650D01*
X61769499Y-42785654D01*
X61754611Y-42860501D01*
X52607373Y-42860501D01*
X53018621Y-42449253D01*
X53435000Y-41444025D01*
X53435000Y-40355975D01*
X53018621Y-39350747D01*
X52249253Y-38581379D01*
X51244025Y-38165000D01*
X50155975Y-38165000D01*
X49150747Y-38581379D01*
X48381379Y-39350747D01*
X47965000Y-40355975D01*
X43548300Y-40355975D01*
X43548300Y-36512694D01*
X105093525Y-36606555D01*
G36*
X84340001Y-67230788D02*
X84222569Y-67348220D01*
X84065000Y-67728626D01*
X84065000Y-67894698D01*
X83075530Y-68884169D01*
X83012071Y-68926571D01*
X82911518Y-69077060D01*
X82815000Y-69077060D01*
X82815000Y-61093043D01*
X83089577Y-60909577D01*
X83406740Y-60434909D01*
X83518113Y-59875000D01*
X83406740Y-59315091D01*
X83089577Y-58840423D01*
X82737242Y-58605000D01*
X83089577Y-58369577D01*
X83406740Y-57894909D01*
X83518113Y-57335000D01*
X83406740Y-56775091D01*
X83089577Y-56300423D01*
X82737242Y-56065000D01*
X83089577Y-55829577D01*
X83406740Y-55354909D01*
X83518113Y-54795000D01*
X83453688Y-54471114D01*
X84340000Y-53584802D01*
X84340001Y-67230788D01*
X84340001Y-67230788D01*
G37*
X84340001Y-67230788D02*
X84222569Y-67348220D01*
X84065000Y-67728626D01*
X84065000Y-67894698D01*
X83075530Y-68884169D01*
X83012071Y-68926571D01*
X82911518Y-69077060D01*
X82815000Y-69077060D01*
X82815000Y-61093043D01*
X83089577Y-60909577D01*
X83406740Y-60434909D01*
X83518113Y-59875000D01*
X83406740Y-59315091D01*
X83089577Y-58840423D01*
X82737242Y-58605000D01*
X83089577Y-58369577D01*
X83406740Y-57894909D01*
X83518113Y-57335000D01*
X83406740Y-56775091D01*
X83089577Y-56300423D01*
X82737242Y-56065000D01*
X83089577Y-55829577D01*
X83406740Y-55354909D01*
X83518113Y-54795000D01*
X83453688Y-54471114D01*
X84340000Y-53584802D01*
X84340001Y-67230788D01*
G36*
X105131625Y-82568455D02*
X104861353Y-82838727D01*
X104603000Y-83462446D01*
X104603000Y-84137554D01*
X104861353Y-84761273D01*
X105338727Y-85238647D01*
X105962446Y-85497000D01*
X106637554Y-85497000D01*
X107261273Y-85238647D01*
X107738647Y-84761273D01*
X107997000Y-84137554D01*
X107997000Y-83462446D01*
X107738647Y-82838727D01*
X107471944Y-82572024D01*
X118411100Y-82588707D01*
X118411100Y-127335129D01*
X107645347Y-127354573D01*
X107738647Y-127261273D01*
X107997000Y-126637554D01*
X107997000Y-125962446D01*
X107738647Y-125338727D01*
X107261273Y-124861353D01*
X106637554Y-124603000D01*
X105962446Y-124603000D01*
X105338727Y-124861353D01*
X104861353Y-125338727D01*
X104603000Y-125962446D01*
X104603000Y-126637554D01*
X104861353Y-127261273D01*
X104959504Y-127359424D01*
X43586400Y-127470270D01*
X43586400Y-125742836D01*
X48738769Y-125742836D01*
X48916979Y-126077292D01*
X49762389Y-126412466D01*
X50671710Y-126398602D01*
X51447421Y-126077292D01*
X51625631Y-125742836D01*
X50182200Y-124299405D01*
X48738769Y-125742836D01*
X43586400Y-125742836D01*
X43586400Y-123699989D01*
X47889534Y-123699989D01*
X47903398Y-124609310D01*
X48224708Y-125385021D01*
X48559164Y-125563231D01*
X50002595Y-124119800D01*
X50361805Y-124119800D01*
X51805236Y-125563231D01*
X52139692Y-125385021D01*
X52474866Y-124539611D01*
X52461002Y-123630290D01*
X52139692Y-122854579D01*
X51805236Y-122676369D01*
X50361805Y-124119800D01*
X50002595Y-124119800D01*
X48559164Y-122676369D01*
X48224708Y-122854579D01*
X47889534Y-123699989D01*
X43586400Y-123699989D01*
X43586400Y-122496764D01*
X48738769Y-122496764D01*
X50182200Y-123940195D01*
X51625631Y-122496764D01*
X51549815Y-122354475D01*
X61323800Y-122354475D01*
X61323800Y-123442525D01*
X61740179Y-124447753D01*
X62509547Y-125217121D01*
X63514775Y-125633500D01*
X64602825Y-125633500D01*
X65608053Y-125217121D01*
X66377421Y-124447753D01*
X66793800Y-123442525D01*
X66793800Y-123300000D01*
X88327679Y-123300000D01*
X88475529Y-124043294D01*
X88896572Y-124673428D01*
X89526706Y-125094471D01*
X90082374Y-125205000D01*
X90457626Y-125205000D01*
X91013294Y-125094471D01*
X91643428Y-124673428D01*
X92064471Y-124043294D01*
X92128224Y-123722782D01*
X92374900Y-123722782D01*
X92678085Y-124401434D01*
X93217901Y-124912403D01*
X93809619Y-125157493D01*
X94105400Y-125041626D01*
X94105400Y-123427000D01*
X94359400Y-123427000D01*
X94359400Y-125041626D01*
X94655181Y-125157493D01*
X95246899Y-124912403D01*
X95786715Y-124401434D01*
X96089900Y-123722782D01*
X95974419Y-123427000D01*
X94359400Y-123427000D01*
X94105400Y-123427000D01*
X92490381Y-123427000D01*
X92374900Y-123722782D01*
X92128224Y-123722782D01*
X92212321Y-123300000D01*
X92128225Y-122877218D01*
X92374900Y-122877218D01*
X92490381Y-123173000D01*
X94105400Y-123173000D01*
X94105400Y-121558374D01*
X94359400Y-121558374D01*
X94359400Y-123173000D01*
X95974419Y-123173000D01*
X96089900Y-122877218D01*
X95786715Y-122198566D01*
X95246899Y-121687597D01*
X94655181Y-121442507D01*
X94359400Y-121558374D01*
X94105400Y-121558374D01*
X93809619Y-121442507D01*
X93217901Y-121687597D01*
X92678085Y-122198566D01*
X92374900Y-122877218D01*
X92128225Y-122877218D01*
X92064471Y-122556706D01*
X91643428Y-121926572D01*
X91013294Y-121505529D01*
X90457626Y-121395000D01*
X90082374Y-121395000D01*
X89526706Y-121505529D01*
X88896572Y-121926572D01*
X88475529Y-122556706D01*
X88327679Y-123300000D01*
X66793800Y-123300000D01*
X66793800Y-122354475D01*
X66377421Y-121349247D01*
X65608053Y-120579879D01*
X64602825Y-120163500D01*
X63514775Y-120163500D01*
X62509547Y-120579879D01*
X61740179Y-121349247D01*
X61323800Y-122354475D01*
X51549815Y-122354475D01*
X51447421Y-122162308D01*
X50602011Y-121827134D01*
X49692690Y-121840998D01*
X48916979Y-122162308D01*
X48738769Y-122496764D01*
X43586400Y-122496764D01*
X43586400Y-119123777D01*
X51415023Y-119123777D01*
X51441611Y-119709249D01*
X51614510Y-120126663D01*
X51864587Y-120205488D01*
X52720395Y-119349680D01*
X51864587Y-118493872D01*
X51614510Y-118572697D01*
X51415023Y-119123777D01*
X43586400Y-119123777D01*
X43586400Y-113703236D01*
X48738769Y-113703236D01*
X48916979Y-114037692D01*
X49762389Y-114372866D01*
X50671710Y-114359002D01*
X51447421Y-114037692D01*
X51625631Y-113703236D01*
X50182200Y-112259805D01*
X48738769Y-113703236D01*
X43586400Y-113703236D01*
X43586400Y-111660389D01*
X47889534Y-111660389D01*
X47903398Y-112569710D01*
X48224708Y-113345421D01*
X48559164Y-113523631D01*
X50002595Y-112080200D01*
X50361805Y-112080200D01*
X51805236Y-113523631D01*
X52139692Y-113345421D01*
X52474866Y-112500011D01*
X52461002Y-111590690D01*
X52139692Y-110814979D01*
X51805236Y-110636769D01*
X50361805Y-112080200D01*
X50002595Y-112080200D01*
X48559164Y-110636769D01*
X48224708Y-110814979D01*
X47889534Y-111660389D01*
X43586400Y-111660389D01*
X43586400Y-110457164D01*
X48738769Y-110457164D01*
X50182200Y-111900595D01*
X51625631Y-110457164D01*
X51447421Y-110122708D01*
X50602011Y-109787534D01*
X49692690Y-109801398D01*
X48916979Y-110122708D01*
X48738769Y-110457164D01*
X43586400Y-110457164D01*
X43586400Y-106865431D01*
X44665000Y-106865431D01*
X44665000Y-107754569D01*
X45005259Y-108576026D01*
X45633974Y-109204741D01*
X46455431Y-109545000D01*
X47344569Y-109545000D01*
X48166026Y-109204741D01*
X48794741Y-108576026D01*
X49135000Y-107754569D01*
X49135000Y-107052969D01*
X51139610Y-107052969D01*
X51211273Y-107399299D01*
X51359849Y-107617999D01*
X56113169Y-112298764D01*
X56140627Y-116041188D01*
X56130119Y-116015819D01*
X55715701Y-115601401D01*
X55174238Y-115377120D01*
X54588162Y-115377120D01*
X54046699Y-115601401D01*
X53890600Y-115757500D01*
X53734501Y-115601401D01*
X53193038Y-115377120D01*
X52606962Y-115377120D01*
X52065499Y-115601401D01*
X51651081Y-116015819D01*
X51426800Y-116557282D01*
X51426800Y-117143358D01*
X51651081Y-117684821D01*
X52065499Y-118099239D01*
X52106603Y-118116265D01*
X52044192Y-118314267D01*
X52900000Y-119170075D01*
X52914143Y-119155933D01*
X53093748Y-119335538D01*
X53079605Y-119349680D01*
X53093748Y-119363823D01*
X52914143Y-119543428D01*
X52900000Y-119529285D01*
X52044192Y-120385093D01*
X52123017Y-120635170D01*
X52674097Y-120834657D01*
X53259569Y-120808069D01*
X53676983Y-120635170D01*
X53755807Y-120385095D01*
X53870555Y-120499843D01*
X53909249Y-120461149D01*
X54046699Y-120598599D01*
X54588162Y-120822880D01*
X55174238Y-120822880D01*
X55715701Y-120598599D01*
X56130119Y-120184181D01*
X56354400Y-119642718D01*
X56354400Y-119133715D01*
X57607136Y-117880980D01*
X57683718Y-117828993D01*
X57878041Y-117533496D01*
X57927718Y-117273811D01*
X57895393Y-112868100D01*
X67135760Y-112868100D01*
X67135760Y-114519100D01*
X67185043Y-114766865D01*
X67325391Y-114976909D01*
X67535435Y-115117257D01*
X67638987Y-115137854D01*
X67370548Y-115406293D01*
X67148200Y-115943088D01*
X67148200Y-116524112D01*
X67370548Y-117060907D01*
X67781393Y-117471752D01*
X68318188Y-117694100D01*
X68899212Y-117694100D01*
X69436007Y-117471752D01*
X69846852Y-117060907D01*
X70069200Y-116524112D01*
X70069200Y-115943088D01*
X69846852Y-115406293D01*
X69578413Y-115137854D01*
X69681965Y-115117257D01*
X69892009Y-114976909D01*
X70032357Y-114766865D01*
X70081640Y-114519100D01*
X70081640Y-112868100D01*
X70032357Y-112620335D01*
X69892009Y-112410291D01*
X69681965Y-112269943D01*
X69434200Y-112220660D01*
X67783200Y-112220660D01*
X67535435Y-112269943D01*
X67325391Y-112410291D01*
X67185043Y-112620335D01*
X67135760Y-112868100D01*
X57895393Y-112868100D01*
X57890757Y-112236347D01*
X57944489Y-111954929D01*
X57872826Y-111608599D01*
X57724250Y-111389900D01*
X52971795Y-106709987D01*
X52969342Y-106152861D01*
X52974506Y-106155000D01*
X53525494Y-106155000D01*
X54034540Y-105944147D01*
X54424147Y-105554540D01*
X54635000Y-105045494D01*
X54635000Y-104494506D01*
X54424147Y-103985460D01*
X54034540Y-103595853D01*
X53803130Y-103500000D01*
X54034540Y-103404147D01*
X54424147Y-103014540D01*
X54635000Y-102505494D01*
X54635000Y-101954506D01*
X54424147Y-101445460D01*
X54034540Y-101055853D01*
X53803130Y-100960000D01*
X54034540Y-100864147D01*
X54214181Y-100684506D01*
X54405000Y-100684506D01*
X54405000Y-101235494D01*
X54615853Y-101744540D01*
X55005460Y-102134147D01*
X55236870Y-102230000D01*
X55005460Y-102325853D01*
X54615853Y-102715460D01*
X54405000Y-103224506D01*
X54405000Y-103775494D01*
X54615853Y-104284540D01*
X55005460Y-104674147D01*
X55236870Y-104770000D01*
X55005460Y-104865853D01*
X54615853Y-105255460D01*
X54405000Y-105764506D01*
X54405000Y-106315494D01*
X54615853Y-106824540D01*
X55005460Y-107214147D01*
X55514506Y-107425000D01*
X56065494Y-107425000D01*
X56574540Y-107214147D01*
X56964147Y-106824540D01*
X57175000Y-106315494D01*
X57175000Y-105764506D01*
X56964147Y-105255460D01*
X56574540Y-104865853D01*
X56343130Y-104770000D01*
X56574540Y-104674147D01*
X56964147Y-104284540D01*
X57175000Y-103775494D01*
X57175000Y-103224506D01*
X56964147Y-102715460D01*
X56574540Y-102325853D01*
X56343130Y-102230000D01*
X56574540Y-102134147D01*
X56964147Y-101744540D01*
X57175000Y-101235494D01*
X57175000Y-100684506D01*
X56964147Y-100175460D01*
X56574540Y-99785853D01*
X56359070Y-99696603D01*
X56513923Y-99632460D01*
X56581912Y-99391517D01*
X55790000Y-98599605D01*
X54998088Y-99391517D01*
X55066077Y-99632460D01*
X55232658Y-99691745D01*
X55005460Y-99785853D01*
X54615853Y-100175460D01*
X54405000Y-100684506D01*
X54214181Y-100684506D01*
X54424147Y-100474540D01*
X54635000Y-99965494D01*
X54635000Y-99414506D01*
X54424147Y-98905460D01*
X54055156Y-98536469D01*
X54247765Y-98498157D01*
X54401947Y-98395135D01*
X54420770Y-98765448D01*
X54577540Y-99143923D01*
X54818483Y-99211912D01*
X55610395Y-98420000D01*
X55969605Y-98420000D01*
X56761517Y-99211912D01*
X57002460Y-99143923D01*
X57187201Y-98624829D01*
X57169269Y-98272043D01*
X61766900Y-98272043D01*
X61772347Y-98574340D01*
X61893064Y-98851542D01*
X62055743Y-99008462D01*
X62088245Y-99029342D01*
X62100149Y-99045494D01*
X62069500Y-99119488D01*
X62069500Y-99700512D01*
X62291848Y-100237307D01*
X62702693Y-100648152D01*
X62779581Y-100680000D01*
X62702693Y-100711848D01*
X62291848Y-101122693D01*
X62069500Y-101659488D01*
X62069500Y-102240512D01*
X62291848Y-102777307D01*
X62702693Y-103188152D01*
X62779581Y-103220000D01*
X62702693Y-103251848D01*
X62291848Y-103662693D01*
X62069500Y-104199488D01*
X62069500Y-104780512D01*
X62291848Y-105317307D01*
X62702693Y-105728152D01*
X63239488Y-105950500D01*
X63820512Y-105950500D01*
X64357307Y-105728152D01*
X64625746Y-105459713D01*
X64646343Y-105563265D01*
X64786691Y-105773309D01*
X64996735Y-105913657D01*
X65244500Y-105962940D01*
X66895500Y-105962940D01*
X67143265Y-105913657D01*
X67353309Y-105773309D01*
X67493657Y-105563265D01*
X67542940Y-105315500D01*
X67542940Y-105137797D01*
X67672949Y-105057669D01*
X67725883Y-104984418D01*
X67744160Y-104966141D01*
X67808720Y-104922628D01*
X67975687Y-104670565D01*
X68018894Y-104448705D01*
X68012412Y-102830694D01*
X68097569Y-103036280D01*
X68388720Y-103327431D01*
X68769126Y-103485000D01*
X69180874Y-103485000D01*
X69561280Y-103327431D01*
X69852431Y-103036280D01*
X70010000Y-102655874D01*
X70010000Y-102244126D01*
X69852431Y-101863720D01*
X69561280Y-101572569D01*
X69386509Y-101500177D01*
X69375283Y-100988428D01*
X69477431Y-100886280D01*
X69635000Y-100505874D01*
X69635000Y-100094126D01*
X69477431Y-99713720D01*
X69186280Y-99422569D01*
X68805874Y-99265000D01*
X68394126Y-99265000D01*
X68013720Y-99422569D01*
X67998820Y-99437469D01*
X67981457Y-95103186D01*
X67985270Y-95096981D01*
X68032928Y-94798414D01*
X67962702Y-94504336D01*
X67830067Y-94321315D01*
X67525914Y-94039478D01*
X67643657Y-93863265D01*
X67692940Y-93615500D01*
X67692940Y-92754343D01*
X70565000Y-92754343D01*
X70565000Y-93245657D01*
X70753018Y-93699571D01*
X70996162Y-93942715D01*
X70963708Y-104239739D01*
X70803018Y-104400429D01*
X70615000Y-104854343D01*
X70615000Y-105345657D01*
X70803018Y-105799571D01*
X71150429Y-106146982D01*
X71528187Y-106303455D01*
X71496673Y-110088526D01*
X71494800Y-110098733D01*
X71495945Y-110175985D01*
X71495302Y-110253251D01*
X71497242Y-110263447D01*
X71501115Y-110524705D01*
X71491888Y-110643376D01*
X71504433Y-110748522D01*
X71530312Y-112494027D01*
X71479301Y-112817138D01*
X71562035Y-113160991D01*
X71717549Y-113374813D01*
X72107500Y-113734919D01*
X72107500Y-113984257D01*
X72295518Y-114438171D01*
X72642929Y-114785582D01*
X73096843Y-114973600D01*
X73588157Y-114973600D01*
X74042071Y-114785582D01*
X74389482Y-114438171D01*
X74577500Y-113984257D01*
X74577500Y-113492943D01*
X74389482Y-113039029D01*
X74042071Y-112691618D01*
X73588157Y-112503600D01*
X73394872Y-112503600D01*
X73307451Y-112422870D01*
X73280138Y-110580564D01*
X73316212Y-110116624D01*
X73284888Y-109854092D01*
X73276806Y-109839693D01*
X73312798Y-105516748D01*
X73263377Y-105257014D01*
X73140085Y-105069126D01*
X78590000Y-105069126D01*
X78590000Y-105480874D01*
X78747569Y-105861280D01*
X79038720Y-106152431D01*
X79419126Y-106310000D01*
X79830874Y-106310000D01*
X80211280Y-106152431D01*
X80502431Y-105861280D01*
X80660000Y-105480874D01*
X80660000Y-105069126D01*
X80502431Y-104688720D01*
X80470810Y-104657099D01*
X80454064Y-100795000D01*
X80591887Y-100795000D01*
X80703260Y-101354909D01*
X81020423Y-101829577D01*
X81372758Y-102065000D01*
X81020423Y-102300423D01*
X80703260Y-102775091D01*
X80591887Y-103335000D01*
X80703260Y-103894909D01*
X81020423Y-104369577D01*
X81372758Y-104605000D01*
X81020423Y-104840423D01*
X80703260Y-105315091D01*
X80591887Y-105875000D01*
X80703260Y-106434909D01*
X81020423Y-106909577D01*
X81329354Y-107115998D01*
X81294785Y-118927627D01*
X81338232Y-119149440D01*
X81505470Y-119401323D01*
X81756370Y-119570033D01*
X81762952Y-119571362D01*
X82715000Y-120567195D01*
X82715000Y-120755874D01*
X82872569Y-121136280D01*
X83163720Y-121427431D01*
X83544126Y-121585000D01*
X83955874Y-121585000D01*
X84336280Y-121427431D01*
X84469585Y-121294126D01*
X95815000Y-121294126D01*
X95815000Y-121705874D01*
X95972569Y-122086280D01*
X96263720Y-122377431D01*
X96644126Y-122535000D01*
X97055874Y-122535000D01*
X97436280Y-122377431D01*
X97727431Y-122086280D01*
X97885000Y-121705874D01*
X97885000Y-121294126D01*
X97741524Y-120947744D01*
X97775423Y-113506813D01*
X98003630Y-113278606D01*
X98150519Y-113058771D01*
X98219517Y-112711900D01*
X98150519Y-112365030D01*
X98072098Y-112247664D01*
X98056340Y-104963325D01*
X98101735Y-104993657D01*
X98349500Y-105042940D01*
X100000500Y-105042940D01*
X100248265Y-104993657D01*
X100458309Y-104853309D01*
X100563009Y-104696615D01*
X100566257Y-105790012D01*
X100505874Y-105765000D01*
X100094126Y-105765000D01*
X99713720Y-105922569D01*
X99422569Y-106213720D01*
X99265000Y-106594126D01*
X99265000Y-107005874D01*
X99422569Y-107386280D01*
X99568221Y-107531932D01*
X99539108Y-109815156D01*
X99580374Y-110037385D01*
X99745130Y-110290898D01*
X99994360Y-110462065D01*
X100008688Y-110465105D01*
X101689717Y-112207870D01*
X101652735Y-122485115D01*
X101696033Y-122706958D01*
X101863102Y-122958952D01*
X102113888Y-123127831D01*
X102118122Y-123128689D01*
X102203767Y-123219172D01*
X102103000Y-123462446D01*
X102103000Y-124137554D01*
X102361353Y-124761273D01*
X102838727Y-125238647D01*
X103462446Y-125497000D01*
X104137554Y-125497000D01*
X104761273Y-125238647D01*
X105238647Y-124761273D01*
X105497000Y-124137554D01*
X105497000Y-123462446D01*
X105238647Y-122838727D01*
X104761273Y-122361353D01*
X104137554Y-122103000D01*
X103462446Y-122103000D01*
X103302793Y-122169130D01*
X103174369Y-122033451D01*
X103178222Y-120962446D01*
X114603000Y-120962446D01*
X114603000Y-121637554D01*
X114861353Y-122261273D01*
X115150080Y-122550000D01*
X114861353Y-122838727D01*
X114603000Y-123462446D01*
X114603000Y-124137554D01*
X114861353Y-124761273D01*
X115338727Y-125238647D01*
X115962446Y-125497000D01*
X116637554Y-125497000D01*
X117261273Y-125238647D01*
X117738647Y-124761273D01*
X117997000Y-124137554D01*
X117997000Y-123462446D01*
X117738647Y-122838727D01*
X117449920Y-122550000D01*
X117738647Y-122261273D01*
X117997000Y-121637554D01*
X117997000Y-120962446D01*
X117738647Y-120338727D01*
X117261273Y-119861353D01*
X116637554Y-119603000D01*
X115962446Y-119603000D01*
X115338727Y-119861353D01*
X114861353Y-120338727D01*
X114603000Y-120962446D01*
X103178222Y-120962446D01*
X103181695Y-119997384D01*
X105282222Y-119997384D01*
X105388475Y-120270671D01*
X106020662Y-120507548D01*
X106695376Y-120484467D01*
X107211525Y-120270671D01*
X107317778Y-119997384D01*
X106300000Y-118979605D01*
X105282222Y-119997384D01*
X103181695Y-119997384D01*
X103187009Y-118520662D01*
X104592452Y-118520662D01*
X104615533Y-119195376D01*
X104829329Y-119711525D01*
X105102616Y-119817778D01*
X106120395Y-118800000D01*
X106479605Y-118800000D01*
X107497384Y-119817778D01*
X107770671Y-119711525D01*
X108007548Y-119079338D01*
X107984467Y-118404624D01*
X107770671Y-117888475D01*
X107497384Y-117782222D01*
X106479605Y-118800000D01*
X106120395Y-118800000D01*
X105102616Y-117782222D01*
X104829329Y-117888475D01*
X104592452Y-118520662D01*
X103187009Y-118520662D01*
X103190312Y-117602616D01*
X105282222Y-117602616D01*
X106300000Y-118620395D01*
X107317778Y-117602616D01*
X107211525Y-117329329D01*
X106579338Y-117092452D01*
X105904624Y-117115533D01*
X105388475Y-117329329D01*
X105282222Y-117602616D01*
X103190312Y-117602616D01*
X103198284Y-115387580D01*
X103462446Y-115497000D01*
X104137554Y-115497000D01*
X104761273Y-115238647D01*
X105238647Y-114761273D01*
X105497000Y-114137554D01*
X105497000Y-113462446D01*
X114603000Y-113462446D01*
X114603000Y-114137554D01*
X114861353Y-114761273D01*
X115150080Y-115050000D01*
X114861353Y-115338727D01*
X114603000Y-115962446D01*
X114603000Y-116637554D01*
X114861353Y-117261273D01*
X115338727Y-117738647D01*
X115962446Y-117997000D01*
X116637554Y-117997000D01*
X117261273Y-117738647D01*
X117738647Y-117261273D01*
X117997000Y-116637554D01*
X117997000Y-115962446D01*
X117738647Y-115338727D01*
X117449920Y-115050000D01*
X117738647Y-114761273D01*
X117997000Y-114137554D01*
X117997000Y-113462446D01*
X117738647Y-112838727D01*
X117261273Y-112361353D01*
X116637554Y-112103000D01*
X115962446Y-112103000D01*
X115338727Y-112361353D01*
X114861353Y-112838727D01*
X114603000Y-113462446D01*
X105497000Y-113462446D01*
X105238647Y-112838727D01*
X104761273Y-112361353D01*
X104606734Y-112297341D01*
X104612898Y-112263680D01*
X104549401Y-111968076D01*
X104420978Y-111782076D01*
X103575979Y-110962446D01*
X104603000Y-110962446D01*
X104603000Y-111637554D01*
X104861353Y-112261273D01*
X105338727Y-112738647D01*
X105962446Y-112997000D01*
X106637554Y-112997000D01*
X107261273Y-112738647D01*
X107738647Y-112261273D01*
X107997000Y-111637554D01*
X107997000Y-110962446D01*
X107738647Y-110338727D01*
X107261273Y-109861353D01*
X106637554Y-109603000D01*
X105962446Y-109603000D01*
X105338727Y-109861353D01*
X104861353Y-110338727D01*
X104603000Y-110962446D01*
X103575979Y-110962446D01*
X102097369Y-109528229D01*
X102082122Y-104395833D01*
X102163720Y-104477431D01*
X102544126Y-104635000D01*
X102955874Y-104635000D01*
X103336280Y-104477431D01*
X103505936Y-104307775D01*
X107996300Y-104307775D01*
X107996300Y-105395825D01*
X108412679Y-106401053D01*
X109182047Y-107170421D01*
X110187275Y-107586800D01*
X111275325Y-107586800D01*
X112280553Y-107170421D01*
X113049921Y-106401053D01*
X113466300Y-105395825D01*
X113466300Y-104307775D01*
X113049921Y-103302547D01*
X112280553Y-102533179D01*
X111275325Y-102116800D01*
X110187275Y-102116800D01*
X109182047Y-102533179D01*
X108412679Y-103302547D01*
X107996300Y-104307775D01*
X103505936Y-104307775D01*
X103627431Y-104186280D01*
X103785000Y-103805874D01*
X103785000Y-103394126D01*
X103627431Y-103013720D01*
X103546382Y-102932671D01*
X103521257Y-102745352D01*
X103503298Y-102714420D01*
X103528338Y-101228846D01*
X103529137Y-101227124D01*
X103538560Y-101001293D01*
X103532797Y-100964322D01*
X103534912Y-100838800D01*
X103536892Y-100828230D01*
X103536173Y-100764029D01*
X103537254Y-100699867D01*
X103535335Y-100689291D01*
X103510380Y-98462446D01*
X104603000Y-98462446D01*
X104603000Y-99137554D01*
X104861353Y-99761273D01*
X105338727Y-100238647D01*
X105962446Y-100497000D01*
X106637554Y-100497000D01*
X107261273Y-100238647D01*
X107738647Y-99761273D01*
X107997000Y-99137554D01*
X107997000Y-98462446D01*
X107738647Y-97838727D01*
X107261273Y-97361353D01*
X106637554Y-97103000D01*
X105962446Y-97103000D01*
X105338727Y-97361353D01*
X104861353Y-97838727D01*
X104603000Y-98462446D01*
X103510380Y-98462446D01*
X103505164Y-97997000D01*
X104137554Y-97997000D01*
X104761273Y-97738647D01*
X105238647Y-97261273D01*
X105497000Y-96637554D01*
X105497000Y-95962446D01*
X105238647Y-95338727D01*
X104761273Y-94861353D01*
X104137554Y-94603000D01*
X103462446Y-94603000D01*
X102838727Y-94861353D01*
X102361353Y-95338727D01*
X102103000Y-95962446D01*
X102103000Y-96289289D01*
X101886280Y-96072569D01*
X101505874Y-95915000D01*
X101094126Y-95915000D01*
X100713720Y-96072569D01*
X100422569Y-96363720D01*
X100265000Y-96744126D01*
X100265000Y-97155874D01*
X100422569Y-97536280D01*
X100542093Y-97655804D01*
X100550198Y-100384086D01*
X100460971Y-100318139D01*
X100413152Y-100202693D01*
X100002307Y-99791848D01*
X99968510Y-99777849D01*
X99944609Y-93462446D01*
X114603000Y-93462446D01*
X114603000Y-94137554D01*
X114861353Y-94761273D01*
X115150080Y-95050000D01*
X114861353Y-95338727D01*
X114603000Y-95962446D01*
X114603000Y-96637554D01*
X114861353Y-97261273D01*
X115338727Y-97738647D01*
X115962446Y-97997000D01*
X116637554Y-97997000D01*
X117261273Y-97738647D01*
X117738647Y-97261273D01*
X117997000Y-96637554D01*
X117997000Y-95962446D01*
X117738647Y-95338727D01*
X117449920Y-95050000D01*
X117738647Y-94761273D01*
X117997000Y-94137554D01*
X117997000Y-93462446D01*
X117738647Y-92838727D01*
X117261273Y-92361353D01*
X116637554Y-92103000D01*
X115962446Y-92103000D01*
X115338727Y-92361353D01*
X114861353Y-92838727D01*
X114603000Y-93462446D01*
X99944609Y-93462446D01*
X99936192Y-91238609D01*
X100212355Y-90962446D01*
X104603000Y-90962446D01*
X104603000Y-91637554D01*
X104861353Y-92261273D01*
X105338727Y-92738647D01*
X105962446Y-92997000D01*
X106637554Y-92997000D01*
X107261273Y-92738647D01*
X107738647Y-92261273D01*
X107997000Y-91637554D01*
X107997000Y-90962446D01*
X107738647Y-90338727D01*
X107261273Y-89861353D01*
X106637554Y-89603000D01*
X105962446Y-89603000D01*
X105338727Y-89861353D01*
X104861353Y-90338727D01*
X104603000Y-90962446D01*
X100212355Y-90962446D01*
X103261172Y-87913630D01*
X103462446Y-87997000D01*
X104137554Y-87997000D01*
X104761273Y-87738647D01*
X105238647Y-87261273D01*
X105497000Y-86637554D01*
X105497000Y-85962446D01*
X114603000Y-85962446D01*
X114603000Y-86637554D01*
X114861353Y-87261273D01*
X115150080Y-87550000D01*
X114861353Y-87838727D01*
X114603000Y-88462446D01*
X114603000Y-89137554D01*
X114861353Y-89761273D01*
X115338727Y-90238647D01*
X115962446Y-90497000D01*
X116637554Y-90497000D01*
X117261273Y-90238647D01*
X117738647Y-89761273D01*
X117997000Y-89137554D01*
X117997000Y-88462446D01*
X117738647Y-87838727D01*
X117449920Y-87550000D01*
X117738647Y-87261273D01*
X117997000Y-86637554D01*
X117997000Y-85962446D01*
X117738647Y-85338727D01*
X117261273Y-84861353D01*
X116637554Y-84603000D01*
X115962446Y-84603000D01*
X115338727Y-84861353D01*
X114861353Y-85338727D01*
X114603000Y-85962446D01*
X105497000Y-85962446D01*
X105238647Y-85338727D01*
X104761273Y-84861353D01*
X104137554Y-84603000D01*
X103462446Y-84603000D01*
X102838727Y-84861353D01*
X102361353Y-85338727D01*
X102103000Y-85962446D01*
X102103000Y-86637554D01*
X102186370Y-86838828D01*
X98689501Y-90335698D01*
X98625002Y-90379149D01*
X98457979Y-90631175D01*
X98414723Y-90853025D01*
X98426587Y-93987876D01*
X98261280Y-93822569D01*
X97880874Y-93665000D01*
X97469126Y-93665000D01*
X97088720Y-93822569D01*
X96797569Y-94113720D01*
X96640000Y-94494126D01*
X96640000Y-94682402D01*
X96558458Y-94805012D01*
X96514841Y-95026792D01*
X96552026Y-112215740D01*
X96322841Y-112444925D01*
X96250094Y-112493055D01*
X96199016Y-112568750D01*
X96159471Y-112608295D01*
X96012582Y-112828131D01*
X95943584Y-113175001D01*
X95997679Y-113446951D01*
X95963563Y-120935462D01*
X95815000Y-121294126D01*
X84469585Y-121294126D01*
X84627431Y-121136280D01*
X84785000Y-120755874D01*
X84785000Y-120344126D01*
X84627431Y-119963720D01*
X84336280Y-119672569D01*
X83955874Y-119515000D01*
X83811946Y-119515000D01*
X82816119Y-118473377D01*
X82817438Y-118022940D01*
X84385500Y-118022940D01*
X84633265Y-117973657D01*
X84843309Y-117833309D01*
X84983657Y-117623265D01*
X85004254Y-117519713D01*
X85272693Y-117788152D01*
X85809488Y-118010500D01*
X86390512Y-118010500D01*
X86927307Y-117788152D01*
X87338152Y-117377307D01*
X87370000Y-117300419D01*
X87401848Y-117377307D01*
X87812693Y-117788152D01*
X88349488Y-118010500D01*
X88930512Y-118010500D01*
X89467307Y-117788152D01*
X89878152Y-117377307D01*
X90100500Y-116840512D01*
X90100500Y-116259488D01*
X89878152Y-115722693D01*
X89467307Y-115311848D01*
X88930512Y-115089500D01*
X88349488Y-115089500D01*
X87812693Y-115311848D01*
X87401848Y-115722693D01*
X87370000Y-115799581D01*
X87338152Y-115722693D01*
X86927307Y-115311848D01*
X86641690Y-115193541D01*
X86618246Y-111294126D01*
X86965000Y-111294126D01*
X86965000Y-111705874D01*
X87122569Y-112086280D01*
X87413720Y-112377431D01*
X87794126Y-112535000D01*
X88205874Y-112535000D01*
X88586280Y-112377431D01*
X88877431Y-112086280D01*
X89035000Y-111705874D01*
X89035000Y-111294126D01*
X88877431Y-110913720D01*
X88586280Y-110622569D01*
X88205874Y-110465000D01*
X87794126Y-110465000D01*
X87413720Y-110622569D01*
X87122569Y-110913720D01*
X86965000Y-111294126D01*
X86618246Y-111294126D01*
X86614219Y-110624492D01*
X86727431Y-110511280D01*
X86885000Y-110130874D01*
X86885000Y-109719126D01*
X86727431Y-109338720D01*
X86436280Y-109047569D01*
X86055874Y-108890000D01*
X85888877Y-108890000D01*
X85869285Y-98255000D01*
X88211887Y-98255000D01*
X88323260Y-98814909D01*
X88640423Y-99289577D01*
X88992758Y-99525000D01*
X88640423Y-99760423D01*
X88323260Y-100235091D01*
X88211887Y-100795000D01*
X88323260Y-101354909D01*
X88640423Y-101829577D01*
X88992758Y-102065000D01*
X88640423Y-102300423D01*
X88323260Y-102775091D01*
X88211887Y-103335000D01*
X88323260Y-103894909D01*
X88640423Y-104369577D01*
X88761106Y-104450215D01*
X88627235Y-104476843D01*
X88417191Y-104617191D01*
X88276843Y-104827235D01*
X88227560Y-105075000D01*
X88227560Y-106675000D01*
X88276843Y-106922765D01*
X88417191Y-107132809D01*
X88627235Y-107273157D01*
X88875000Y-107322440D01*
X90475000Y-107322440D01*
X90722765Y-107273157D01*
X90932809Y-107132809D01*
X91073157Y-106922765D01*
X91122440Y-106675000D01*
X91122440Y-105075000D01*
X91073157Y-104827235D01*
X90932809Y-104617191D01*
X90722765Y-104476843D01*
X90588894Y-104450215D01*
X90709577Y-104369577D01*
X91026740Y-103894909D01*
X91138113Y-103335000D01*
X91026740Y-102775091D01*
X90709577Y-102300423D01*
X90357242Y-102065000D01*
X90709577Y-101829577D01*
X91026740Y-101354909D01*
X91138113Y-100795000D01*
X91026740Y-100235091D01*
X90709577Y-99760423D01*
X90357242Y-99525000D01*
X90709577Y-99289577D01*
X91026740Y-98814909D01*
X91138113Y-98255000D01*
X91026740Y-97695091D01*
X90709577Y-97220423D01*
X90234909Y-96903260D01*
X89816333Y-96820000D01*
X89533667Y-96820000D01*
X89115091Y-96903260D01*
X88640423Y-97220423D01*
X88323260Y-97695091D01*
X88211887Y-98255000D01*
X85869285Y-98255000D01*
X85860579Y-93529907D01*
X86192074Y-93198413D01*
X86274072Y-93134624D01*
X86423503Y-92871786D01*
X86435147Y-92778564D01*
X86527431Y-92686280D01*
X86685000Y-92305874D01*
X86685000Y-91894126D01*
X86527431Y-91513720D01*
X86236280Y-91222569D01*
X85855874Y-91065000D01*
X85444126Y-91065000D01*
X85063720Y-91222569D01*
X84772569Y-91513720D01*
X84615000Y-91894126D01*
X84615000Y-92305874D01*
X84708729Y-92532155D01*
X84615027Y-92625857D01*
X84551063Y-92668767D01*
X84383551Y-92920468D01*
X84339864Y-93142234D01*
X84341011Y-93765000D01*
X84169116Y-93765000D01*
X83788710Y-93922569D01*
X83497559Y-94213720D01*
X83339990Y-94594126D01*
X83339990Y-95005874D01*
X83497559Y-95386280D01*
X83628512Y-95517233D01*
X83641833Y-95616548D01*
X83649379Y-95629546D01*
X83618791Y-98156407D01*
X83349128Y-98426071D01*
X83324915Y-98382000D01*
X82182000Y-98382000D01*
X82182000Y-98402000D01*
X81928000Y-98402000D01*
X81928000Y-98382000D01*
X80785085Y-98382000D01*
X80663096Y-98604039D01*
X80823959Y-98992423D01*
X81199866Y-99407389D01*
X81404108Y-99504053D01*
X81020423Y-99760423D01*
X80703260Y-100235091D01*
X80591887Y-100795000D01*
X80454064Y-100795000D01*
X80441537Y-97905961D01*
X80663096Y-97905961D01*
X80785085Y-98128000D01*
X81928000Y-98128000D01*
X81928000Y-96984371D01*
X82182000Y-96984371D01*
X82182000Y-98128000D01*
X83324915Y-98128000D01*
X83446904Y-97905961D01*
X83286041Y-97517577D01*
X82910134Y-97102611D01*
X82404041Y-96863086D01*
X82182000Y-96984371D01*
X81928000Y-96984371D01*
X81705959Y-96863086D01*
X81199866Y-97102611D01*
X80823959Y-97517577D01*
X80663096Y-97905961D01*
X80441537Y-97905961D01*
X80438045Y-97100666D01*
X80552431Y-96986280D01*
X80710000Y-96605874D01*
X80710000Y-96194126D01*
X80552431Y-95813720D01*
X80261280Y-95522569D01*
X79880874Y-95365000D01*
X79469126Y-95365000D01*
X79088720Y-95522569D01*
X78797569Y-95813720D01*
X78640000Y-96194126D01*
X78640000Y-96605874D01*
X78797569Y-96986280D01*
X78918058Y-97106769D01*
X78950055Y-104486234D01*
X78747569Y-104688720D01*
X78590000Y-105069126D01*
X73140085Y-105069126D01*
X73085000Y-104985181D01*
X73085000Y-104854343D01*
X72896982Y-104400429D01*
X72741698Y-104245145D01*
X72757885Y-99109372D01*
X72809188Y-99109372D01*
X72898237Y-99398308D01*
X72915000Y-99418550D01*
X72915000Y-99605874D01*
X73072569Y-99986280D01*
X73363720Y-100277431D01*
X73744126Y-100435000D01*
X73972333Y-100435000D01*
X73865000Y-100694126D01*
X73865000Y-101105874D01*
X74022569Y-101486280D01*
X74148789Y-101612500D01*
X74022569Y-101738720D01*
X73865000Y-102119126D01*
X73865000Y-102530874D01*
X74022569Y-102911280D01*
X74313720Y-103202431D01*
X74694126Y-103360000D01*
X75105874Y-103360000D01*
X75486280Y-103202431D01*
X75777431Y-102911280D01*
X75935000Y-102530874D01*
X75935000Y-102119126D01*
X75777431Y-101738720D01*
X75680668Y-101641957D01*
X75679093Y-101584618D01*
X75777431Y-101486280D01*
X75935000Y-101105874D01*
X75935000Y-100694126D01*
X75777431Y-100313720D01*
X75486280Y-100022569D01*
X75105874Y-99865000D01*
X74877667Y-99865000D01*
X74985000Y-99605874D01*
X74985000Y-99194126D01*
X74827431Y-98813720D01*
X74536280Y-98522569D01*
X74372156Y-98454587D01*
X74339118Y-95491679D01*
X74292553Y-95270500D01*
X74121785Y-95020996D01*
X73868536Y-94855835D01*
X73571361Y-94800160D01*
X73275500Y-94862447D01*
X73025996Y-95033215D01*
X72860835Y-95286464D01*
X72819213Y-95508627D01*
X72855624Y-98774057D01*
X72837487Y-98808354D01*
X72809188Y-99109372D01*
X72757885Y-99109372D01*
X72774709Y-93771844D01*
X72846982Y-93699571D01*
X73035000Y-93245657D01*
X73035000Y-92754343D01*
X72846982Y-92300429D01*
X72499571Y-91953018D01*
X72045657Y-91765000D01*
X71554343Y-91765000D01*
X71100429Y-91953018D01*
X70753018Y-92300429D01*
X70565000Y-92754343D01*
X67692940Y-92754343D01*
X67692940Y-91964500D01*
X67643657Y-91716735D01*
X67503309Y-91506691D01*
X67293265Y-91366343D01*
X67189713Y-91345746D01*
X67458152Y-91077307D01*
X67680500Y-90540512D01*
X67680500Y-89959488D01*
X67458152Y-89422693D01*
X67047307Y-89011848D01*
X66970419Y-88980000D01*
X67047307Y-88948152D01*
X67458152Y-88537307D01*
X67680500Y-88000512D01*
X67680500Y-87419488D01*
X67458152Y-86882693D01*
X67047307Y-86471848D01*
X66888276Y-86405975D01*
X87965000Y-86405975D01*
X87965000Y-87494025D01*
X88381379Y-88499253D01*
X89150747Y-89268621D01*
X90155975Y-89685000D01*
X91244025Y-89685000D01*
X92249253Y-89268621D01*
X93018621Y-88499253D01*
X93435000Y-87494025D01*
X93435000Y-86405975D01*
X93018621Y-85400747D01*
X92249253Y-84631379D01*
X91244025Y-84215000D01*
X90155975Y-84215000D01*
X89150747Y-84631379D01*
X88381379Y-85400747D01*
X87965000Y-86405975D01*
X66888276Y-86405975D01*
X66510512Y-86249500D01*
X65929488Y-86249500D01*
X65392693Y-86471848D01*
X64981848Y-86882693D01*
X64950000Y-86959581D01*
X64918152Y-86882693D01*
X64507307Y-86471848D01*
X63970512Y-86249500D01*
X63389488Y-86249500D01*
X62852693Y-86471848D01*
X62441848Y-86882693D01*
X62219500Y-87419488D01*
X62219500Y-88000512D01*
X62247380Y-88067819D01*
X62043939Y-88271260D01*
X61979380Y-88314772D01*
X61812413Y-88566835D01*
X61769206Y-88788695D01*
X61806789Y-98170611D01*
X61766900Y-98272043D01*
X57169269Y-98272043D01*
X57159230Y-98074552D01*
X57002460Y-97696077D01*
X56761517Y-97628088D01*
X55969605Y-98420000D01*
X55610395Y-98420000D01*
X54818483Y-97628088D01*
X54647440Y-97676353D01*
X54647440Y-97448483D01*
X54998088Y-97448483D01*
X55790000Y-98240395D01*
X56581912Y-97448483D01*
X56513923Y-97207540D01*
X55994829Y-97022799D01*
X55444552Y-97050770D01*
X55066077Y-97207540D01*
X54998088Y-97448483D01*
X54647440Y-97448483D01*
X54647440Y-96400000D01*
X54598157Y-96152235D01*
X54457809Y-95942191D01*
X54247765Y-95801843D01*
X54000000Y-95752560D01*
X52500000Y-95752560D01*
X52252235Y-95801843D01*
X52042191Y-95942191D01*
X51901843Y-96152235D01*
X51852560Y-96400000D01*
X51852560Y-97290205D01*
X51477896Y-97664869D01*
X51402251Y-97715896D01*
X51207061Y-98010822D01*
X51156623Y-98270360D01*
X51194035Y-106767922D01*
X51139610Y-107052969D01*
X49135000Y-107052969D01*
X49135000Y-106865431D01*
X48794741Y-106043974D01*
X48166026Y-105415259D01*
X47344569Y-105075000D01*
X46455431Y-105075000D01*
X45633974Y-105415259D01*
X45005259Y-106043974D01*
X44665000Y-106865431D01*
X43586400Y-106865431D01*
X43586400Y-95435431D01*
X44665000Y-95435431D01*
X44665000Y-96324569D01*
X45005259Y-97146026D01*
X45633974Y-97774741D01*
X46455431Y-98115000D01*
X47344569Y-98115000D01*
X48166026Y-97774741D01*
X48794741Y-97146026D01*
X49135000Y-96324569D01*
X49135000Y-95435431D01*
X48794741Y-94613974D01*
X48166026Y-93985259D01*
X47344569Y-93645000D01*
X46455431Y-93645000D01*
X45633974Y-93985259D01*
X45005259Y-94613974D01*
X44665000Y-95435431D01*
X43586400Y-95435431D01*
X43586400Y-86355975D01*
X47965000Y-86355975D01*
X47965000Y-87444025D01*
X48381379Y-88449253D01*
X49150747Y-89218621D01*
X50155975Y-89635000D01*
X51244025Y-89635000D01*
X52249253Y-89218621D01*
X53018621Y-88449253D01*
X53435000Y-87444025D01*
X53435000Y-86355975D01*
X53018621Y-85350747D01*
X52249253Y-84581379D01*
X51244025Y-84165000D01*
X50155975Y-84165000D01*
X49150747Y-84581379D01*
X48381379Y-85350747D01*
X47965000Y-86355975D01*
X43586400Y-86355975D01*
X43586400Y-82474594D01*
X105131625Y-82568455D01*
X105131625Y-82568455D01*
G37*
X105131625Y-82568455D02*
X104861353Y-82838727D01*
X104603000Y-83462446D01*
X104603000Y-84137554D01*
X104861353Y-84761273D01*
X105338727Y-85238647D01*
X105962446Y-85497000D01*
X106637554Y-85497000D01*
X107261273Y-85238647D01*
X107738647Y-84761273D01*
X107997000Y-84137554D01*
X107997000Y-83462446D01*
X107738647Y-82838727D01*
X107471944Y-82572024D01*
X118411100Y-82588707D01*
X118411100Y-127335129D01*
X107645347Y-127354573D01*
X107738647Y-127261273D01*
X107997000Y-126637554D01*
X107997000Y-125962446D01*
X107738647Y-125338727D01*
X107261273Y-124861353D01*
X106637554Y-124603000D01*
X105962446Y-124603000D01*
X105338727Y-124861353D01*
X104861353Y-125338727D01*
X104603000Y-125962446D01*
X104603000Y-126637554D01*
X104861353Y-127261273D01*
X104959504Y-127359424D01*
X43586400Y-127470270D01*
X43586400Y-125742836D01*
X48738769Y-125742836D01*
X48916979Y-126077292D01*
X49762389Y-126412466D01*
X50671710Y-126398602D01*
X51447421Y-126077292D01*
X51625631Y-125742836D01*
X50182200Y-124299405D01*
X48738769Y-125742836D01*
X43586400Y-125742836D01*
X43586400Y-123699989D01*
X47889534Y-123699989D01*
X47903398Y-124609310D01*
X48224708Y-125385021D01*
X48559164Y-125563231D01*
X50002595Y-124119800D01*
X50361805Y-124119800D01*
X51805236Y-125563231D01*
X52139692Y-125385021D01*
X52474866Y-124539611D01*
X52461002Y-123630290D01*
X52139692Y-122854579D01*
X51805236Y-122676369D01*
X50361805Y-124119800D01*
X50002595Y-124119800D01*
X48559164Y-122676369D01*
X48224708Y-122854579D01*
X47889534Y-123699989D01*
X43586400Y-123699989D01*
X43586400Y-122496764D01*
X48738769Y-122496764D01*
X50182200Y-123940195D01*
X51625631Y-122496764D01*
X51549815Y-122354475D01*
X61323800Y-122354475D01*
X61323800Y-123442525D01*
X61740179Y-124447753D01*
X62509547Y-125217121D01*
X63514775Y-125633500D01*
X64602825Y-125633500D01*
X65608053Y-125217121D01*
X66377421Y-124447753D01*
X66793800Y-123442525D01*
X66793800Y-123300000D01*
X88327679Y-123300000D01*
X88475529Y-124043294D01*
X88896572Y-124673428D01*
X89526706Y-125094471D01*
X90082374Y-125205000D01*
X90457626Y-125205000D01*
X91013294Y-125094471D01*
X91643428Y-124673428D01*
X92064471Y-124043294D01*
X92128224Y-123722782D01*
X92374900Y-123722782D01*
X92678085Y-124401434D01*
X93217901Y-124912403D01*
X93809619Y-125157493D01*
X94105400Y-125041626D01*
X94105400Y-123427000D01*
X94359400Y-123427000D01*
X94359400Y-125041626D01*
X94655181Y-125157493D01*
X95246899Y-124912403D01*
X95786715Y-124401434D01*
X96089900Y-123722782D01*
X95974419Y-123427000D01*
X94359400Y-123427000D01*
X94105400Y-123427000D01*
X92490381Y-123427000D01*
X92374900Y-123722782D01*
X92128224Y-123722782D01*
X92212321Y-123300000D01*
X92128225Y-122877218D01*
X92374900Y-122877218D01*
X92490381Y-123173000D01*
X94105400Y-123173000D01*
X94105400Y-121558374D01*
X94359400Y-121558374D01*
X94359400Y-123173000D01*
X95974419Y-123173000D01*
X96089900Y-122877218D01*
X95786715Y-122198566D01*
X95246899Y-121687597D01*
X94655181Y-121442507D01*
X94359400Y-121558374D01*
X94105400Y-121558374D01*
X93809619Y-121442507D01*
X93217901Y-121687597D01*
X92678085Y-122198566D01*
X92374900Y-122877218D01*
X92128225Y-122877218D01*
X92064471Y-122556706D01*
X91643428Y-121926572D01*
X91013294Y-121505529D01*
X90457626Y-121395000D01*
X90082374Y-121395000D01*
X89526706Y-121505529D01*
X88896572Y-121926572D01*
X88475529Y-122556706D01*
X88327679Y-123300000D01*
X66793800Y-123300000D01*
X66793800Y-122354475D01*
X66377421Y-121349247D01*
X65608053Y-120579879D01*
X64602825Y-120163500D01*
X63514775Y-120163500D01*
X62509547Y-120579879D01*
X61740179Y-121349247D01*
X61323800Y-122354475D01*
X51549815Y-122354475D01*
X51447421Y-122162308D01*
X50602011Y-121827134D01*
X49692690Y-121840998D01*
X48916979Y-122162308D01*
X48738769Y-122496764D01*
X43586400Y-122496764D01*
X43586400Y-119123777D01*
X51415023Y-119123777D01*
X51441611Y-119709249D01*
X51614510Y-120126663D01*
X51864587Y-120205488D01*
X52720395Y-119349680D01*
X51864587Y-118493872D01*
X51614510Y-118572697D01*
X51415023Y-119123777D01*
X43586400Y-119123777D01*
X43586400Y-113703236D01*
X48738769Y-113703236D01*
X48916979Y-114037692D01*
X49762389Y-114372866D01*
X50671710Y-114359002D01*
X51447421Y-114037692D01*
X51625631Y-113703236D01*
X50182200Y-112259805D01*
X48738769Y-113703236D01*
X43586400Y-113703236D01*
X43586400Y-111660389D01*
X47889534Y-111660389D01*
X47903398Y-112569710D01*
X48224708Y-113345421D01*
X48559164Y-113523631D01*
X50002595Y-112080200D01*
X50361805Y-112080200D01*
X51805236Y-113523631D01*
X52139692Y-113345421D01*
X52474866Y-112500011D01*
X52461002Y-111590690D01*
X52139692Y-110814979D01*
X51805236Y-110636769D01*
X50361805Y-112080200D01*
X50002595Y-112080200D01*
X48559164Y-110636769D01*
X48224708Y-110814979D01*
X47889534Y-111660389D01*
X43586400Y-111660389D01*
X43586400Y-110457164D01*
X48738769Y-110457164D01*
X50182200Y-111900595D01*
X51625631Y-110457164D01*
X51447421Y-110122708D01*
X50602011Y-109787534D01*
X49692690Y-109801398D01*
X48916979Y-110122708D01*
X48738769Y-110457164D01*
X43586400Y-110457164D01*
X43586400Y-106865431D01*
X44665000Y-106865431D01*
X44665000Y-107754569D01*
X45005259Y-108576026D01*
X45633974Y-109204741D01*
X46455431Y-109545000D01*
X47344569Y-109545000D01*
X48166026Y-109204741D01*
X48794741Y-108576026D01*
X49135000Y-107754569D01*
X49135000Y-107052969D01*
X51139610Y-107052969D01*
X51211273Y-107399299D01*
X51359849Y-107617999D01*
X56113169Y-112298764D01*
X56140627Y-116041188D01*
X56130119Y-116015819D01*
X55715701Y-115601401D01*
X55174238Y-115377120D01*
X54588162Y-115377120D01*
X54046699Y-115601401D01*
X53890600Y-115757500D01*
X53734501Y-115601401D01*
X53193038Y-115377120D01*
X52606962Y-115377120D01*
X52065499Y-115601401D01*
X51651081Y-116015819D01*
X51426800Y-116557282D01*
X51426800Y-117143358D01*
X51651081Y-117684821D01*
X52065499Y-118099239D01*
X52106603Y-118116265D01*
X52044192Y-118314267D01*
X52900000Y-119170075D01*
X52914143Y-119155933D01*
X53093748Y-119335538D01*
X53079605Y-119349680D01*
X53093748Y-119363823D01*
X52914143Y-119543428D01*
X52900000Y-119529285D01*
X52044192Y-120385093D01*
X52123017Y-120635170D01*
X52674097Y-120834657D01*
X53259569Y-120808069D01*
X53676983Y-120635170D01*
X53755807Y-120385095D01*
X53870555Y-120499843D01*
X53909249Y-120461149D01*
X54046699Y-120598599D01*
X54588162Y-120822880D01*
X55174238Y-120822880D01*
X55715701Y-120598599D01*
X56130119Y-120184181D01*
X56354400Y-119642718D01*
X56354400Y-119133715D01*
X57607136Y-117880980D01*
X57683718Y-117828993D01*
X57878041Y-117533496D01*
X57927718Y-117273811D01*
X57895393Y-112868100D01*
X67135760Y-112868100D01*
X67135760Y-114519100D01*
X67185043Y-114766865D01*
X67325391Y-114976909D01*
X67535435Y-115117257D01*
X67638987Y-115137854D01*
X67370548Y-115406293D01*
X67148200Y-115943088D01*
X67148200Y-116524112D01*
X67370548Y-117060907D01*
X67781393Y-117471752D01*
X68318188Y-117694100D01*
X68899212Y-117694100D01*
X69436007Y-117471752D01*
X69846852Y-117060907D01*
X70069200Y-116524112D01*
X70069200Y-115943088D01*
X69846852Y-115406293D01*
X69578413Y-115137854D01*
X69681965Y-115117257D01*
X69892009Y-114976909D01*
X70032357Y-114766865D01*
X70081640Y-114519100D01*
X70081640Y-112868100D01*
X70032357Y-112620335D01*
X69892009Y-112410291D01*
X69681965Y-112269943D01*
X69434200Y-112220660D01*
X67783200Y-112220660D01*
X67535435Y-112269943D01*
X67325391Y-112410291D01*
X67185043Y-112620335D01*
X67135760Y-112868100D01*
X57895393Y-112868100D01*
X57890757Y-112236347D01*
X57944489Y-111954929D01*
X57872826Y-111608599D01*
X57724250Y-111389900D01*
X52971795Y-106709987D01*
X52969342Y-106152861D01*
X52974506Y-106155000D01*
X53525494Y-106155000D01*
X54034540Y-105944147D01*
X54424147Y-105554540D01*
X54635000Y-105045494D01*
X54635000Y-104494506D01*
X54424147Y-103985460D01*
X54034540Y-103595853D01*
X53803130Y-103500000D01*
X54034540Y-103404147D01*
X54424147Y-103014540D01*
X54635000Y-102505494D01*
X54635000Y-101954506D01*
X54424147Y-101445460D01*
X54034540Y-101055853D01*
X53803130Y-100960000D01*
X54034540Y-100864147D01*
X54214181Y-100684506D01*
X54405000Y-100684506D01*
X54405000Y-101235494D01*
X54615853Y-101744540D01*
X55005460Y-102134147D01*
X55236870Y-102230000D01*
X55005460Y-102325853D01*
X54615853Y-102715460D01*
X54405000Y-103224506D01*
X54405000Y-103775494D01*
X54615853Y-104284540D01*
X55005460Y-104674147D01*
X55236870Y-104770000D01*
X55005460Y-104865853D01*
X54615853Y-105255460D01*
X54405000Y-105764506D01*
X54405000Y-106315494D01*
X54615853Y-106824540D01*
X55005460Y-107214147D01*
X55514506Y-107425000D01*
X56065494Y-107425000D01*
X56574540Y-107214147D01*
X56964147Y-106824540D01*
X57175000Y-106315494D01*
X57175000Y-105764506D01*
X56964147Y-105255460D01*
X56574540Y-104865853D01*
X56343130Y-104770000D01*
X56574540Y-104674147D01*
X56964147Y-104284540D01*
X57175000Y-103775494D01*
X57175000Y-103224506D01*
X56964147Y-102715460D01*
X56574540Y-102325853D01*
X56343130Y-102230000D01*
X56574540Y-102134147D01*
X56964147Y-101744540D01*
X57175000Y-101235494D01*
X57175000Y-100684506D01*
X56964147Y-100175460D01*
X56574540Y-99785853D01*
X56359070Y-99696603D01*
X56513923Y-99632460D01*
X56581912Y-99391517D01*
X55790000Y-98599605D01*
X54998088Y-99391517D01*
X55066077Y-99632460D01*
X55232658Y-99691745D01*
X55005460Y-99785853D01*
X54615853Y-100175460D01*
X54405000Y-100684506D01*
X54214181Y-100684506D01*
X54424147Y-100474540D01*
X54635000Y-99965494D01*
X54635000Y-99414506D01*
X54424147Y-98905460D01*
X54055156Y-98536469D01*
X54247765Y-98498157D01*
X54401947Y-98395135D01*
X54420770Y-98765448D01*
X54577540Y-99143923D01*
X54818483Y-99211912D01*
X55610395Y-98420000D01*
X55969605Y-98420000D01*
X56761517Y-99211912D01*
X57002460Y-99143923D01*
X57187201Y-98624829D01*
X57169269Y-98272043D01*
X61766900Y-98272043D01*
X61772347Y-98574340D01*
X61893064Y-98851542D01*
X62055743Y-99008462D01*
X62088245Y-99029342D01*
X62100149Y-99045494D01*
X62069500Y-99119488D01*
X62069500Y-99700512D01*
X62291848Y-100237307D01*
X62702693Y-100648152D01*
X62779581Y-100680000D01*
X62702693Y-100711848D01*
X62291848Y-101122693D01*
X62069500Y-101659488D01*
X62069500Y-102240512D01*
X62291848Y-102777307D01*
X62702693Y-103188152D01*
X62779581Y-103220000D01*
X62702693Y-103251848D01*
X62291848Y-103662693D01*
X62069500Y-104199488D01*
X62069500Y-104780512D01*
X62291848Y-105317307D01*
X62702693Y-105728152D01*
X63239488Y-105950500D01*
X63820512Y-105950500D01*
X64357307Y-105728152D01*
X64625746Y-105459713D01*
X64646343Y-105563265D01*
X64786691Y-105773309D01*
X64996735Y-105913657D01*
X65244500Y-105962940D01*
X66895500Y-105962940D01*
X67143265Y-105913657D01*
X67353309Y-105773309D01*
X67493657Y-105563265D01*
X67542940Y-105315500D01*
X67542940Y-105137797D01*
X67672949Y-105057669D01*
X67725883Y-104984418D01*
X67744160Y-104966141D01*
X67808720Y-104922628D01*
X67975687Y-104670565D01*
X68018894Y-104448705D01*
X68012412Y-102830694D01*
X68097569Y-103036280D01*
X68388720Y-103327431D01*
X68769126Y-103485000D01*
X69180874Y-103485000D01*
X69561280Y-103327431D01*
X69852431Y-103036280D01*
X70010000Y-102655874D01*
X70010000Y-102244126D01*
X69852431Y-101863720D01*
X69561280Y-101572569D01*
X69386509Y-101500177D01*
X69375283Y-100988428D01*
X69477431Y-100886280D01*
X69635000Y-100505874D01*
X69635000Y-100094126D01*
X69477431Y-99713720D01*
X69186280Y-99422569D01*
X68805874Y-99265000D01*
X68394126Y-99265000D01*
X68013720Y-99422569D01*
X67998820Y-99437469D01*
X67981457Y-95103186D01*
X67985270Y-95096981D01*
X68032928Y-94798414D01*
X67962702Y-94504336D01*
X67830067Y-94321315D01*
X67525914Y-94039478D01*
X67643657Y-93863265D01*
X67692940Y-93615500D01*
X67692940Y-92754343D01*
X70565000Y-92754343D01*
X70565000Y-93245657D01*
X70753018Y-93699571D01*
X70996162Y-93942715D01*
X70963708Y-104239739D01*
X70803018Y-104400429D01*
X70615000Y-104854343D01*
X70615000Y-105345657D01*
X70803018Y-105799571D01*
X71150429Y-106146982D01*
X71528187Y-106303455D01*
X71496673Y-110088526D01*
X71494800Y-110098733D01*
X71495945Y-110175985D01*
X71495302Y-110253251D01*
X71497242Y-110263447D01*
X71501115Y-110524705D01*
X71491888Y-110643376D01*
X71504433Y-110748522D01*
X71530312Y-112494027D01*
X71479301Y-112817138D01*
X71562035Y-113160991D01*
X71717549Y-113374813D01*
X72107500Y-113734919D01*
X72107500Y-113984257D01*
X72295518Y-114438171D01*
X72642929Y-114785582D01*
X73096843Y-114973600D01*
X73588157Y-114973600D01*
X74042071Y-114785582D01*
X74389482Y-114438171D01*
X74577500Y-113984257D01*
X74577500Y-113492943D01*
X74389482Y-113039029D01*
X74042071Y-112691618D01*
X73588157Y-112503600D01*
X73394872Y-112503600D01*
X73307451Y-112422870D01*
X73280138Y-110580564D01*
X73316212Y-110116624D01*
X73284888Y-109854092D01*
X73276806Y-109839693D01*
X73312798Y-105516748D01*
X73263377Y-105257014D01*
X73140085Y-105069126D01*
X78590000Y-105069126D01*
X78590000Y-105480874D01*
X78747569Y-105861280D01*
X79038720Y-106152431D01*
X79419126Y-106310000D01*
X79830874Y-106310000D01*
X80211280Y-106152431D01*
X80502431Y-105861280D01*
X80660000Y-105480874D01*
X80660000Y-105069126D01*
X80502431Y-104688720D01*
X80470810Y-104657099D01*
X80454064Y-100795000D01*
X80591887Y-100795000D01*
X80703260Y-101354909D01*
X81020423Y-101829577D01*
X81372758Y-102065000D01*
X81020423Y-102300423D01*
X80703260Y-102775091D01*
X80591887Y-103335000D01*
X80703260Y-103894909D01*
X81020423Y-104369577D01*
X81372758Y-104605000D01*
X81020423Y-104840423D01*
X80703260Y-105315091D01*
X80591887Y-105875000D01*
X80703260Y-106434909D01*
X81020423Y-106909577D01*
X81329354Y-107115998D01*
X81294785Y-118927627D01*
X81338232Y-119149440D01*
X81505470Y-119401323D01*
X81756370Y-119570033D01*
X81762952Y-119571362D01*
X82715000Y-120567195D01*
X82715000Y-120755874D01*
X82872569Y-121136280D01*
X83163720Y-121427431D01*
X83544126Y-121585000D01*
X83955874Y-121585000D01*
X84336280Y-121427431D01*
X84469585Y-121294126D01*
X95815000Y-121294126D01*
X95815000Y-121705874D01*
X95972569Y-122086280D01*
X96263720Y-122377431D01*
X96644126Y-122535000D01*
X97055874Y-122535000D01*
X97436280Y-122377431D01*
X97727431Y-122086280D01*
X97885000Y-121705874D01*
X97885000Y-121294126D01*
X97741524Y-120947744D01*
X97775423Y-113506813D01*
X98003630Y-113278606D01*
X98150519Y-113058771D01*
X98219517Y-112711900D01*
X98150519Y-112365030D01*
X98072098Y-112247664D01*
X98056340Y-104963325D01*
X98101735Y-104993657D01*
X98349500Y-105042940D01*
X100000500Y-105042940D01*
X100248265Y-104993657D01*
X100458309Y-104853309D01*
X100563009Y-104696615D01*
X100566257Y-105790012D01*
X100505874Y-105765000D01*
X100094126Y-105765000D01*
X99713720Y-105922569D01*
X99422569Y-106213720D01*
X99265000Y-106594126D01*
X99265000Y-107005874D01*
X99422569Y-107386280D01*
X99568221Y-107531932D01*
X99539108Y-109815156D01*
X99580374Y-110037385D01*
X99745130Y-110290898D01*
X99994360Y-110462065D01*
X100008688Y-110465105D01*
X101689717Y-112207870D01*
X101652735Y-122485115D01*
X101696033Y-122706958D01*
X101863102Y-122958952D01*
X102113888Y-123127831D01*
X102118122Y-123128689D01*
X102203767Y-123219172D01*
X102103000Y-123462446D01*
X102103000Y-124137554D01*
X102361353Y-124761273D01*
X102838727Y-125238647D01*
X103462446Y-125497000D01*
X104137554Y-125497000D01*
X104761273Y-125238647D01*
X105238647Y-124761273D01*
X105497000Y-124137554D01*
X105497000Y-123462446D01*
X105238647Y-122838727D01*
X104761273Y-122361353D01*
X104137554Y-122103000D01*
X103462446Y-122103000D01*
X103302793Y-122169130D01*
X103174369Y-122033451D01*
X103178222Y-120962446D01*
X114603000Y-120962446D01*
X114603000Y-121637554D01*
X114861353Y-122261273D01*
X115150080Y-122550000D01*
X114861353Y-122838727D01*
X114603000Y-123462446D01*
X114603000Y-124137554D01*
X114861353Y-124761273D01*
X115338727Y-125238647D01*
X115962446Y-125497000D01*
X116637554Y-125497000D01*
X117261273Y-125238647D01*
X117738647Y-124761273D01*
X117997000Y-124137554D01*
X117997000Y-123462446D01*
X117738647Y-122838727D01*
X117449920Y-122550000D01*
X117738647Y-122261273D01*
X117997000Y-121637554D01*
X117997000Y-120962446D01*
X117738647Y-120338727D01*
X117261273Y-119861353D01*
X116637554Y-119603000D01*
X115962446Y-119603000D01*
X115338727Y-119861353D01*
X114861353Y-120338727D01*
X114603000Y-120962446D01*
X103178222Y-120962446D01*
X103181695Y-119997384D01*
X105282222Y-119997384D01*
X105388475Y-120270671D01*
X106020662Y-120507548D01*
X106695376Y-120484467D01*
X107211525Y-120270671D01*
X107317778Y-119997384D01*
X106300000Y-118979605D01*
X105282222Y-119997384D01*
X103181695Y-119997384D01*
X103187009Y-118520662D01*
X104592452Y-118520662D01*
X104615533Y-119195376D01*
X104829329Y-119711525D01*
X105102616Y-119817778D01*
X106120395Y-118800000D01*
X106479605Y-118800000D01*
X107497384Y-119817778D01*
X107770671Y-119711525D01*
X108007548Y-119079338D01*
X107984467Y-118404624D01*
X107770671Y-117888475D01*
X107497384Y-117782222D01*
X106479605Y-118800000D01*
X106120395Y-118800000D01*
X105102616Y-117782222D01*
X104829329Y-117888475D01*
X104592452Y-118520662D01*
X103187009Y-118520662D01*
X103190312Y-117602616D01*
X105282222Y-117602616D01*
X106300000Y-118620395D01*
X107317778Y-117602616D01*
X107211525Y-117329329D01*
X106579338Y-117092452D01*
X105904624Y-117115533D01*
X105388475Y-117329329D01*
X105282222Y-117602616D01*
X103190312Y-117602616D01*
X103198284Y-115387580D01*
X103462446Y-115497000D01*
X104137554Y-115497000D01*
X104761273Y-115238647D01*
X105238647Y-114761273D01*
X105497000Y-114137554D01*
X105497000Y-113462446D01*
X114603000Y-113462446D01*
X114603000Y-114137554D01*
X114861353Y-114761273D01*
X115150080Y-115050000D01*
X114861353Y-115338727D01*
X114603000Y-115962446D01*
X114603000Y-116637554D01*
X114861353Y-117261273D01*
X115338727Y-117738647D01*
X115962446Y-117997000D01*
X116637554Y-117997000D01*
X117261273Y-117738647D01*
X117738647Y-117261273D01*
X117997000Y-116637554D01*
X117997000Y-115962446D01*
X117738647Y-115338727D01*
X117449920Y-115050000D01*
X117738647Y-114761273D01*
X117997000Y-114137554D01*
X117997000Y-113462446D01*
X117738647Y-112838727D01*
X117261273Y-112361353D01*
X116637554Y-112103000D01*
X115962446Y-112103000D01*
X115338727Y-112361353D01*
X114861353Y-112838727D01*
X114603000Y-113462446D01*
X105497000Y-113462446D01*
X105238647Y-112838727D01*
X104761273Y-112361353D01*
X104606734Y-112297341D01*
X104612898Y-112263680D01*
X104549401Y-111968076D01*
X104420978Y-111782076D01*
X103575979Y-110962446D01*
X104603000Y-110962446D01*
X104603000Y-111637554D01*
X104861353Y-112261273D01*
X105338727Y-112738647D01*
X105962446Y-112997000D01*
X106637554Y-112997000D01*
X107261273Y-112738647D01*
X107738647Y-112261273D01*
X107997000Y-111637554D01*
X107997000Y-110962446D01*
X107738647Y-110338727D01*
X107261273Y-109861353D01*
X106637554Y-109603000D01*
X105962446Y-109603000D01*
X105338727Y-109861353D01*
X104861353Y-110338727D01*
X104603000Y-110962446D01*
X103575979Y-110962446D01*
X102097369Y-109528229D01*
X102082122Y-104395833D01*
X102163720Y-104477431D01*
X102544126Y-104635000D01*
X102955874Y-104635000D01*
X103336280Y-104477431D01*
X103505936Y-104307775D01*
X107996300Y-104307775D01*
X107996300Y-105395825D01*
X108412679Y-106401053D01*
X109182047Y-107170421D01*
X110187275Y-107586800D01*
X111275325Y-107586800D01*
X112280553Y-107170421D01*
X113049921Y-106401053D01*
X113466300Y-105395825D01*
X113466300Y-104307775D01*
X113049921Y-103302547D01*
X112280553Y-102533179D01*
X111275325Y-102116800D01*
X110187275Y-102116800D01*
X109182047Y-102533179D01*
X108412679Y-103302547D01*
X107996300Y-104307775D01*
X103505936Y-104307775D01*
X103627431Y-104186280D01*
X103785000Y-103805874D01*
X103785000Y-103394126D01*
X103627431Y-103013720D01*
X103546382Y-102932671D01*
X103521257Y-102745352D01*
X103503298Y-102714420D01*
X103528338Y-101228846D01*
X103529137Y-101227124D01*
X103538560Y-101001293D01*
X103532797Y-100964322D01*
X103534912Y-100838800D01*
X103536892Y-100828230D01*
X103536173Y-100764029D01*
X103537254Y-100699867D01*
X103535335Y-100689291D01*
X103510380Y-98462446D01*
X104603000Y-98462446D01*
X104603000Y-99137554D01*
X104861353Y-99761273D01*
X105338727Y-100238647D01*
X105962446Y-100497000D01*
X106637554Y-100497000D01*
X107261273Y-100238647D01*
X107738647Y-99761273D01*
X107997000Y-99137554D01*
X107997000Y-98462446D01*
X107738647Y-97838727D01*
X107261273Y-97361353D01*
X106637554Y-97103000D01*
X105962446Y-97103000D01*
X105338727Y-97361353D01*
X104861353Y-97838727D01*
X104603000Y-98462446D01*
X103510380Y-98462446D01*
X103505164Y-97997000D01*
X104137554Y-97997000D01*
X104761273Y-97738647D01*
X105238647Y-97261273D01*
X105497000Y-96637554D01*
X105497000Y-95962446D01*
X105238647Y-95338727D01*
X104761273Y-94861353D01*
X104137554Y-94603000D01*
X103462446Y-94603000D01*
X102838727Y-94861353D01*
X102361353Y-95338727D01*
X102103000Y-95962446D01*
X102103000Y-96289289D01*
X101886280Y-96072569D01*
X101505874Y-95915000D01*
X101094126Y-95915000D01*
X100713720Y-96072569D01*
X100422569Y-96363720D01*
X100265000Y-96744126D01*
X100265000Y-97155874D01*
X100422569Y-97536280D01*
X100542093Y-97655804D01*
X100550198Y-100384086D01*
X100460971Y-100318139D01*
X100413152Y-100202693D01*
X100002307Y-99791848D01*
X99968510Y-99777849D01*
X99944609Y-93462446D01*
X114603000Y-93462446D01*
X114603000Y-94137554D01*
X114861353Y-94761273D01*
X115150080Y-95050000D01*
X114861353Y-95338727D01*
X114603000Y-95962446D01*
X114603000Y-96637554D01*
X114861353Y-97261273D01*
X115338727Y-97738647D01*
X115962446Y-97997000D01*
X116637554Y-97997000D01*
X117261273Y-97738647D01*
X117738647Y-97261273D01*
X117997000Y-96637554D01*
X117997000Y-95962446D01*
X117738647Y-95338727D01*
X117449920Y-95050000D01*
X117738647Y-94761273D01*
X117997000Y-94137554D01*
X117997000Y-93462446D01*
X117738647Y-92838727D01*
X117261273Y-92361353D01*
X116637554Y-92103000D01*
X115962446Y-92103000D01*
X115338727Y-92361353D01*
X114861353Y-92838727D01*
X114603000Y-93462446D01*
X99944609Y-93462446D01*
X99936192Y-91238609D01*
X100212355Y-90962446D01*
X104603000Y-90962446D01*
X104603000Y-91637554D01*
X104861353Y-92261273D01*
X105338727Y-92738647D01*
X105962446Y-92997000D01*
X106637554Y-92997000D01*
X107261273Y-92738647D01*
X107738647Y-92261273D01*
X107997000Y-91637554D01*
X107997000Y-90962446D01*
X107738647Y-90338727D01*
X107261273Y-89861353D01*
X106637554Y-89603000D01*
X105962446Y-89603000D01*
X105338727Y-89861353D01*
X104861353Y-90338727D01*
X104603000Y-90962446D01*
X100212355Y-90962446D01*
X103261172Y-87913630D01*
X103462446Y-87997000D01*
X104137554Y-87997000D01*
X104761273Y-87738647D01*
X105238647Y-87261273D01*
X105497000Y-86637554D01*
X105497000Y-85962446D01*
X114603000Y-85962446D01*
X114603000Y-86637554D01*
X114861353Y-87261273D01*
X115150080Y-87550000D01*
X114861353Y-87838727D01*
X114603000Y-88462446D01*
X114603000Y-89137554D01*
X114861353Y-89761273D01*
X115338727Y-90238647D01*
X115962446Y-90497000D01*
X116637554Y-90497000D01*
X117261273Y-90238647D01*
X117738647Y-89761273D01*
X117997000Y-89137554D01*
X117997000Y-88462446D01*
X117738647Y-87838727D01*
X117449920Y-87550000D01*
X117738647Y-87261273D01*
X117997000Y-86637554D01*
X117997000Y-85962446D01*
X117738647Y-85338727D01*
X117261273Y-84861353D01*
X116637554Y-84603000D01*
X115962446Y-84603000D01*
X115338727Y-84861353D01*
X114861353Y-85338727D01*
X114603000Y-85962446D01*
X105497000Y-85962446D01*
X105238647Y-85338727D01*
X104761273Y-84861353D01*
X104137554Y-84603000D01*
X103462446Y-84603000D01*
X102838727Y-84861353D01*
X102361353Y-85338727D01*
X102103000Y-85962446D01*
X102103000Y-86637554D01*
X102186370Y-86838828D01*
X98689501Y-90335698D01*
X98625002Y-90379149D01*
X98457979Y-90631175D01*
X98414723Y-90853025D01*
X98426587Y-93987876D01*
X98261280Y-93822569D01*
X97880874Y-93665000D01*
X97469126Y-93665000D01*
X97088720Y-93822569D01*
X96797569Y-94113720D01*
X96640000Y-94494126D01*
X96640000Y-94682402D01*
X96558458Y-94805012D01*
X96514841Y-95026792D01*
X96552026Y-112215740D01*
X96322841Y-112444925D01*
X96250094Y-112493055D01*
X96199016Y-112568750D01*
X96159471Y-112608295D01*
X96012582Y-112828131D01*
X95943584Y-113175001D01*
X95997679Y-113446951D01*
X95963563Y-120935462D01*
X95815000Y-121294126D01*
X84469585Y-121294126D01*
X84627431Y-121136280D01*
X84785000Y-120755874D01*
X84785000Y-120344126D01*
X84627431Y-119963720D01*
X84336280Y-119672569D01*
X83955874Y-119515000D01*
X83811946Y-119515000D01*
X82816119Y-118473377D01*
X82817438Y-118022940D01*
X84385500Y-118022940D01*
X84633265Y-117973657D01*
X84843309Y-117833309D01*
X84983657Y-117623265D01*
X85004254Y-117519713D01*
X85272693Y-117788152D01*
X85809488Y-118010500D01*
X86390512Y-118010500D01*
X86927307Y-117788152D01*
X87338152Y-117377307D01*
X87370000Y-117300419D01*
X87401848Y-117377307D01*
X87812693Y-117788152D01*
X88349488Y-118010500D01*
X88930512Y-118010500D01*
X89467307Y-117788152D01*
X89878152Y-117377307D01*
X90100500Y-116840512D01*
X90100500Y-116259488D01*
X89878152Y-115722693D01*
X89467307Y-115311848D01*
X88930512Y-115089500D01*
X88349488Y-115089500D01*
X87812693Y-115311848D01*
X87401848Y-115722693D01*
X87370000Y-115799581D01*
X87338152Y-115722693D01*
X86927307Y-115311848D01*
X86641690Y-115193541D01*
X86618246Y-111294126D01*
X86965000Y-111294126D01*
X86965000Y-111705874D01*
X87122569Y-112086280D01*
X87413720Y-112377431D01*
X87794126Y-112535000D01*
X88205874Y-112535000D01*
X88586280Y-112377431D01*
X88877431Y-112086280D01*
X89035000Y-111705874D01*
X89035000Y-111294126D01*
X88877431Y-110913720D01*
X88586280Y-110622569D01*
X88205874Y-110465000D01*
X87794126Y-110465000D01*
X87413720Y-110622569D01*
X87122569Y-110913720D01*
X86965000Y-111294126D01*
X86618246Y-111294126D01*
X86614219Y-110624492D01*
X86727431Y-110511280D01*
X86885000Y-110130874D01*
X86885000Y-109719126D01*
X86727431Y-109338720D01*
X86436280Y-109047569D01*
X86055874Y-108890000D01*
X85888877Y-108890000D01*
X85869285Y-98255000D01*
X88211887Y-98255000D01*
X88323260Y-98814909D01*
X88640423Y-99289577D01*
X88992758Y-99525000D01*
X88640423Y-99760423D01*
X88323260Y-100235091D01*
X88211887Y-100795000D01*
X88323260Y-101354909D01*
X88640423Y-101829577D01*
X88992758Y-102065000D01*
X88640423Y-102300423D01*
X88323260Y-102775091D01*
X88211887Y-103335000D01*
X88323260Y-103894909D01*
X88640423Y-104369577D01*
X88761106Y-104450215D01*
X88627235Y-104476843D01*
X88417191Y-104617191D01*
X88276843Y-104827235D01*
X88227560Y-105075000D01*
X88227560Y-106675000D01*
X88276843Y-106922765D01*
X88417191Y-107132809D01*
X88627235Y-107273157D01*
X88875000Y-107322440D01*
X90475000Y-107322440D01*
X90722765Y-107273157D01*
X90932809Y-107132809D01*
X91073157Y-106922765D01*
X91122440Y-106675000D01*
X91122440Y-105075000D01*
X91073157Y-104827235D01*
X90932809Y-104617191D01*
X90722765Y-104476843D01*
X90588894Y-104450215D01*
X90709577Y-104369577D01*
X91026740Y-103894909D01*
X91138113Y-103335000D01*
X91026740Y-102775091D01*
X90709577Y-102300423D01*
X90357242Y-102065000D01*
X90709577Y-101829577D01*
X91026740Y-101354909D01*
X91138113Y-100795000D01*
X91026740Y-100235091D01*
X90709577Y-99760423D01*
X90357242Y-99525000D01*
X90709577Y-99289577D01*
X91026740Y-98814909D01*
X91138113Y-98255000D01*
X91026740Y-97695091D01*
X90709577Y-97220423D01*
X90234909Y-96903260D01*
X89816333Y-96820000D01*
X89533667Y-96820000D01*
X89115091Y-96903260D01*
X88640423Y-97220423D01*
X88323260Y-97695091D01*
X88211887Y-98255000D01*
X85869285Y-98255000D01*
X85860579Y-93529907D01*
X86192074Y-93198413D01*
X86274072Y-93134624D01*
X86423503Y-92871786D01*
X86435147Y-92778564D01*
X86527431Y-92686280D01*
X86685000Y-92305874D01*
X86685000Y-91894126D01*
X86527431Y-91513720D01*
X86236280Y-91222569D01*
X85855874Y-91065000D01*
X85444126Y-91065000D01*
X85063720Y-91222569D01*
X84772569Y-91513720D01*
X84615000Y-91894126D01*
X84615000Y-92305874D01*
X84708729Y-92532155D01*
X84615027Y-92625857D01*
X84551063Y-92668767D01*
X84383551Y-92920468D01*
X84339864Y-93142234D01*
X84341011Y-93765000D01*
X84169116Y-93765000D01*
X83788710Y-93922569D01*
X83497559Y-94213720D01*
X83339990Y-94594126D01*
X83339990Y-95005874D01*
X83497559Y-95386280D01*
X83628512Y-95517233D01*
X83641833Y-95616548D01*
X83649379Y-95629546D01*
X83618791Y-98156407D01*
X83349128Y-98426071D01*
X83324915Y-98382000D01*
X82182000Y-98382000D01*
X82182000Y-98402000D01*
X81928000Y-98402000D01*
X81928000Y-98382000D01*
X80785085Y-98382000D01*
X80663096Y-98604039D01*
X80823959Y-98992423D01*
X81199866Y-99407389D01*
X81404108Y-99504053D01*
X81020423Y-99760423D01*
X80703260Y-100235091D01*
X80591887Y-100795000D01*
X80454064Y-100795000D01*
X80441537Y-97905961D01*
X80663096Y-97905961D01*
X80785085Y-98128000D01*
X81928000Y-98128000D01*
X81928000Y-96984371D01*
X82182000Y-96984371D01*
X82182000Y-98128000D01*
X83324915Y-98128000D01*
X83446904Y-97905961D01*
X83286041Y-97517577D01*
X82910134Y-97102611D01*
X82404041Y-96863086D01*
X82182000Y-96984371D01*
X81928000Y-96984371D01*
X81705959Y-96863086D01*
X81199866Y-97102611D01*
X80823959Y-97517577D01*
X80663096Y-97905961D01*
X80441537Y-97905961D01*
X80438045Y-97100666D01*
X80552431Y-96986280D01*
X80710000Y-96605874D01*
X80710000Y-96194126D01*
X80552431Y-95813720D01*
X80261280Y-95522569D01*
X79880874Y-95365000D01*
X79469126Y-95365000D01*
X79088720Y-95522569D01*
X78797569Y-95813720D01*
X78640000Y-96194126D01*
X78640000Y-96605874D01*
X78797569Y-96986280D01*
X78918058Y-97106769D01*
X78950055Y-104486234D01*
X78747569Y-104688720D01*
X78590000Y-105069126D01*
X73140085Y-105069126D01*
X73085000Y-104985181D01*
X73085000Y-104854343D01*
X72896982Y-104400429D01*
X72741698Y-104245145D01*
X72757885Y-99109372D01*
X72809188Y-99109372D01*
X72898237Y-99398308D01*
X72915000Y-99418550D01*
X72915000Y-99605874D01*
X73072569Y-99986280D01*
X73363720Y-100277431D01*
X73744126Y-100435000D01*
X73972333Y-100435000D01*
X73865000Y-100694126D01*
X73865000Y-101105874D01*
X74022569Y-101486280D01*
X74148789Y-101612500D01*
X74022569Y-101738720D01*
X73865000Y-102119126D01*
X73865000Y-102530874D01*
X74022569Y-102911280D01*
X74313720Y-103202431D01*
X74694126Y-103360000D01*
X75105874Y-103360000D01*
X75486280Y-103202431D01*
X75777431Y-102911280D01*
X75935000Y-102530874D01*
X75935000Y-102119126D01*
X75777431Y-101738720D01*
X75680668Y-101641957D01*
X75679093Y-101584618D01*
X75777431Y-101486280D01*
X75935000Y-101105874D01*
X75935000Y-100694126D01*
X75777431Y-100313720D01*
X75486280Y-100022569D01*
X75105874Y-99865000D01*
X74877667Y-99865000D01*
X74985000Y-99605874D01*
X74985000Y-99194126D01*
X74827431Y-98813720D01*
X74536280Y-98522569D01*
X74372156Y-98454587D01*
X74339118Y-95491679D01*
X74292553Y-95270500D01*
X74121785Y-95020996D01*
X73868536Y-94855835D01*
X73571361Y-94800160D01*
X73275500Y-94862447D01*
X73025996Y-95033215D01*
X72860835Y-95286464D01*
X72819213Y-95508627D01*
X72855624Y-98774057D01*
X72837487Y-98808354D01*
X72809188Y-99109372D01*
X72757885Y-99109372D01*
X72774709Y-93771844D01*
X72846982Y-93699571D01*
X73035000Y-93245657D01*
X73035000Y-92754343D01*
X72846982Y-92300429D01*
X72499571Y-91953018D01*
X72045657Y-91765000D01*
X71554343Y-91765000D01*
X71100429Y-91953018D01*
X70753018Y-92300429D01*
X70565000Y-92754343D01*
X67692940Y-92754343D01*
X67692940Y-91964500D01*
X67643657Y-91716735D01*
X67503309Y-91506691D01*
X67293265Y-91366343D01*
X67189713Y-91345746D01*
X67458152Y-91077307D01*
X67680500Y-90540512D01*
X67680500Y-89959488D01*
X67458152Y-89422693D01*
X67047307Y-89011848D01*
X66970419Y-88980000D01*
X67047307Y-88948152D01*
X67458152Y-88537307D01*
X67680500Y-88000512D01*
X67680500Y-87419488D01*
X67458152Y-86882693D01*
X67047307Y-86471848D01*
X66888276Y-86405975D01*
X87965000Y-86405975D01*
X87965000Y-87494025D01*
X88381379Y-88499253D01*
X89150747Y-89268621D01*
X90155975Y-89685000D01*
X91244025Y-89685000D01*
X92249253Y-89268621D01*
X93018621Y-88499253D01*
X93435000Y-87494025D01*
X93435000Y-86405975D01*
X93018621Y-85400747D01*
X92249253Y-84631379D01*
X91244025Y-84215000D01*
X90155975Y-84215000D01*
X89150747Y-84631379D01*
X88381379Y-85400747D01*
X87965000Y-86405975D01*
X66888276Y-86405975D01*
X66510512Y-86249500D01*
X65929488Y-86249500D01*
X65392693Y-86471848D01*
X64981848Y-86882693D01*
X64950000Y-86959581D01*
X64918152Y-86882693D01*
X64507307Y-86471848D01*
X63970512Y-86249500D01*
X63389488Y-86249500D01*
X62852693Y-86471848D01*
X62441848Y-86882693D01*
X62219500Y-87419488D01*
X62219500Y-88000512D01*
X62247380Y-88067819D01*
X62043939Y-88271260D01*
X61979380Y-88314772D01*
X61812413Y-88566835D01*
X61769206Y-88788695D01*
X61806789Y-98170611D01*
X61766900Y-98272043D01*
X57169269Y-98272043D01*
X57159230Y-98074552D01*
X57002460Y-97696077D01*
X56761517Y-97628088D01*
X55969605Y-98420000D01*
X55610395Y-98420000D01*
X54818483Y-97628088D01*
X54647440Y-97676353D01*
X54647440Y-97448483D01*
X54998088Y-97448483D01*
X55790000Y-98240395D01*
X56581912Y-97448483D01*
X56513923Y-97207540D01*
X55994829Y-97022799D01*
X55444552Y-97050770D01*
X55066077Y-97207540D01*
X54998088Y-97448483D01*
X54647440Y-97448483D01*
X54647440Y-96400000D01*
X54598157Y-96152235D01*
X54457809Y-95942191D01*
X54247765Y-95801843D01*
X54000000Y-95752560D01*
X52500000Y-95752560D01*
X52252235Y-95801843D01*
X52042191Y-95942191D01*
X51901843Y-96152235D01*
X51852560Y-96400000D01*
X51852560Y-97290205D01*
X51477896Y-97664869D01*
X51402251Y-97715896D01*
X51207061Y-98010822D01*
X51156623Y-98270360D01*
X51194035Y-106767922D01*
X51139610Y-107052969D01*
X49135000Y-107052969D01*
X49135000Y-106865431D01*
X48794741Y-106043974D01*
X48166026Y-105415259D01*
X47344569Y-105075000D01*
X46455431Y-105075000D01*
X45633974Y-105415259D01*
X45005259Y-106043974D01*
X44665000Y-106865431D01*
X43586400Y-106865431D01*
X43586400Y-95435431D01*
X44665000Y-95435431D01*
X44665000Y-96324569D01*
X45005259Y-97146026D01*
X45633974Y-97774741D01*
X46455431Y-98115000D01*
X47344569Y-98115000D01*
X48166026Y-97774741D01*
X48794741Y-97146026D01*
X49135000Y-96324569D01*
X49135000Y-95435431D01*
X48794741Y-94613974D01*
X48166026Y-93985259D01*
X47344569Y-93645000D01*
X46455431Y-93645000D01*
X45633974Y-93985259D01*
X45005259Y-94613974D01*
X44665000Y-95435431D01*
X43586400Y-95435431D01*
X43586400Y-86355975D01*
X47965000Y-86355975D01*
X47965000Y-87444025D01*
X48381379Y-88449253D01*
X49150747Y-89218621D01*
X50155975Y-89635000D01*
X51244025Y-89635000D01*
X52249253Y-89218621D01*
X53018621Y-88449253D01*
X53435000Y-87444025D01*
X53435000Y-86355975D01*
X53018621Y-85350747D01*
X52249253Y-84581379D01*
X51244025Y-84165000D01*
X50155975Y-84165000D01*
X49150747Y-84581379D01*
X48381379Y-85350747D01*
X47965000Y-86355975D01*
X43586400Y-86355975D01*
X43586400Y-82474594D01*
X105131625Y-82568455D01*
G36*
X84376805Y-113193984D02*
X84222569Y-113348220D01*
X84065000Y-113728626D01*
X84065000Y-113894698D01*
X83065583Y-114894116D01*
X82992331Y-114947051D01*
X82912202Y-115077060D01*
X82826059Y-115077060D01*
X82849494Y-107069996D01*
X83089577Y-106909577D01*
X83406740Y-106434909D01*
X83518113Y-105875000D01*
X83406740Y-105315091D01*
X83089577Y-104840423D01*
X82737242Y-104605000D01*
X83089577Y-104369577D01*
X83406740Y-103894909D01*
X83518113Y-103335000D01*
X83406740Y-102775091D01*
X83089577Y-102300423D01*
X82737242Y-102065000D01*
X83089577Y-101829577D01*
X83406740Y-101354909D01*
X83518113Y-100795000D01*
X83453688Y-100471114D01*
X84351712Y-99573090D01*
X84376805Y-113193984D01*
X84376805Y-113193984D01*
G37*
X84376805Y-113193984D02*
X84222569Y-113348220D01*
X84065000Y-113728626D01*
X84065000Y-113894698D01*
X83065583Y-114894116D01*
X82992331Y-114947051D01*
X82912202Y-115077060D01*
X82826059Y-115077060D01*
X82849494Y-107069996D01*
X83089577Y-106909577D01*
X83406740Y-106434909D01*
X83518113Y-105875000D01*
X83406740Y-105315091D01*
X83089577Y-104840423D01*
X82737242Y-104605000D01*
X83089577Y-104369577D01*
X83406740Y-103894909D01*
X83518113Y-103335000D01*
X83406740Y-102775091D01*
X83089577Y-102300423D01*
X82737242Y-102065000D01*
X83089577Y-101829577D01*
X83406740Y-101354909D01*
X83518113Y-100795000D01*
X83453688Y-100471114D01*
X84351712Y-99573090D01*
X84376805Y-113193984D01*
G04 #@! TD*
M02*
