G04 #@! TF.GenerationSoftware,KiCad,Pcbnew,(6.0.9)*
G04 #@! TF.CreationDate,2023-05-25T14:51:59-07:00*
G04 #@! TF.ProjectId,MIDIExtender,4d494449-4578-4746-956e-6465722e6b69,rev?*
G04 #@! TF.SameCoordinates,Original*
G04 #@! TF.FileFunction,Soldermask,Bot*
G04 #@! TF.FilePolarity,Negative*
%FSLAX46Y46*%
G04 Gerber Fmt 4.6, Leading zero omitted, Abs format (unit mm)*
G04 Created by KiCad (PCBNEW (6.0.9)) date 2023-05-25 14:51:59*
%MOMM*%
%LPD*%
G01*
G04 APERTURE LIST*
%ADD10R,1.651000X1.651000*%
%ADD11C,1.651000*%
%ADD12C,1.676400*%
%ADD13C,3.302000*%
%ADD14R,1.600000X1.600000*%
%ADD15O,1.600000X1.600000*%
%ADD16C,2.124000*%
%ADD17O,2.540000X2.540000*%
%ADD18C,3.200000*%
%ADD19R,1.500000X1.500000*%
%ADD20C,1.500000*%
%ADD21R,1.700000X1.700000*%
%ADD22C,1.700000*%
%ADD23O,1.700000X1.700000*%
%ADD24C,3.400000*%
G04 APERTURE END LIST*
D10*
X68608700Y-72770000D03*
D11*
X68608700Y-70230000D03*
D10*
X99175000Y-57570000D03*
D11*
X99175000Y-55030000D03*
D12*
X52900000Y-70850320D03*
X54881200Y-70850320D03*
X52900000Y-73349680D03*
D13*
X50182200Y-78119800D03*
X50182200Y-66080200D03*
D12*
X54881200Y-73349680D03*
D14*
X89675000Y-59875000D03*
D15*
X89675000Y-57335000D03*
X89675000Y-54795000D03*
X89675000Y-52255000D03*
X82055000Y-52255000D03*
X82055000Y-54795000D03*
X82055000Y-57335000D03*
X82055000Y-59875000D03*
D10*
X66220000Y-46790000D03*
D11*
X66220000Y-44250000D03*
X66220000Y-41710000D03*
X63680000Y-41710000D03*
X63680000Y-44250000D03*
X63680000Y-46790000D03*
D16*
X106300000Y-37800000D03*
X103800000Y-40300000D03*
X106300000Y-45300000D03*
X103800000Y-50300000D03*
X106300000Y-52800000D03*
X116300000Y-40300000D03*
X116300000Y-50300000D03*
X116300000Y-42800000D03*
X116300000Y-47800000D03*
X106300000Y-65300000D03*
X103800000Y-67800000D03*
X106300000Y-72800000D03*
X103800000Y-77800000D03*
X106300000Y-80300000D03*
X116300000Y-67800000D03*
X116300000Y-77800000D03*
X116300000Y-70300000D03*
X116300000Y-75300000D03*
D17*
X90270000Y-77300000D03*
D10*
X66070000Y-58490000D03*
D11*
X66070000Y-55950000D03*
X66070000Y-53410000D03*
X63530000Y-53410000D03*
X63530000Y-55950000D03*
X63530000Y-58490000D03*
D17*
X94232400Y-77300000D03*
D18*
X46900000Y-61310000D03*
X46900000Y-49880000D03*
D19*
X53250000Y-51150000D03*
D20*
X55790000Y-52420000D03*
X53250000Y-53690000D03*
X55790000Y-54960000D03*
X53250000Y-56230000D03*
X55790000Y-57500000D03*
X53250000Y-58770000D03*
X55790000Y-60040000D03*
D10*
X83560000Y-70550000D03*
D11*
X86100000Y-70550000D03*
X88640000Y-70550000D03*
D21*
X95010000Y-39585000D03*
D22*
X95010000Y-42125000D03*
X92470000Y-39585000D03*
X92470000Y-42125000D03*
X89930000Y-39585000D03*
X89930000Y-42125000D03*
D21*
X80475000Y-38225000D03*
D23*
X83015000Y-38225000D03*
X80475000Y-40765000D03*
X83015000Y-40765000D03*
X80475000Y-43305000D03*
X83015000Y-43305000D03*
D24*
X110750000Y-58750000D03*
D10*
X91290000Y-48500000D03*
D11*
X88750000Y-48500000D03*
X86210000Y-48500000D03*
D24*
X62500000Y-78250000D03*
D10*
X78750000Y-63960000D03*
D11*
X78750000Y-66500000D03*
X78750000Y-69040000D03*
D24*
X50750000Y-40750000D03*
M02*
