G04 #@! TF.GenerationSoftware,KiCad,Pcbnew,(5.0.2)-1*
G04 #@! TF.CreationDate,2020-11-24T14:27:37-08:00*
G04 #@! TF.ProjectId,MIDIExtender,4d494449-4578-4746-956e-6465722e6b69,rev?*
G04 #@! TF.SameCoordinates,Original*
G04 #@! TF.FileFunction,Legend,Top*
G04 #@! TF.FilePolarity,Positive*
%FSLAX46Y46*%
G04 Gerber Fmt 4.6, Leading zero omitted, Abs format (unit mm)*
G04 Created by KiCad (PCBNEW (5.0.2)-1) date 11/24/2020 2:27:37 PM*
%MOMM*%
%LPD*%
G01*
G04 APERTURE LIST*
%ADD10C,0.200000*%
%ADD11C,0.300000*%
%ADD12C,0.120000*%
%ADD13C,0.066040*%
%ADD14C,0.127000*%
%ADD15C,0.100000*%
%ADD16C,0.203200*%
%ADD17C,0.150000*%
G04 APERTURE END LIST*
D10*
X68550000Y-86950000D02*
X68588100Y-89586900D01*
X68575000Y-90575000D02*
X68613100Y-93211900D01*
X60850000Y-102275000D02*
X60888100Y-104911900D01*
X68150000Y-98800000D02*
X68188100Y-101436900D01*
X68175000Y-102425000D02*
X68213100Y-105061900D01*
D11*
X68585285Y-127209271D02*
X68585285Y-125709271D01*
X69085285Y-126780700D01*
X69585285Y-125709271D01*
X69585285Y-127209271D01*
X70299571Y-127209271D02*
X70299571Y-125709271D01*
X71013857Y-127209271D02*
X71013857Y-125709271D01*
X71371000Y-125709271D01*
X71585285Y-125780700D01*
X71728142Y-125923557D01*
X71799571Y-126066414D01*
X71871000Y-126352128D01*
X71871000Y-126566414D01*
X71799571Y-126852128D01*
X71728142Y-126994985D01*
X71585285Y-127137842D01*
X71371000Y-127209271D01*
X71013857Y-127209271D01*
X72513857Y-127209271D02*
X72513857Y-125709271D01*
X73228142Y-126423557D02*
X73728142Y-126423557D01*
X73942428Y-127209271D02*
X73228142Y-127209271D01*
X73228142Y-125709271D01*
X73942428Y-125709271D01*
X74442428Y-127209271D02*
X75228142Y-126209271D01*
X74442428Y-126209271D02*
X75228142Y-127209271D01*
X75585285Y-126209271D02*
X76156714Y-126209271D01*
X75799571Y-125709271D02*
X75799571Y-126994985D01*
X75871000Y-127137842D01*
X76013857Y-127209271D01*
X76156714Y-127209271D01*
X77228142Y-127137842D02*
X77085285Y-127209271D01*
X76799571Y-127209271D01*
X76656714Y-127137842D01*
X76585285Y-126994985D01*
X76585285Y-126423557D01*
X76656714Y-126280700D01*
X76799571Y-126209271D01*
X77085285Y-126209271D01*
X77228142Y-126280700D01*
X77299571Y-126423557D01*
X77299571Y-126566414D01*
X76585285Y-126709271D01*
X77942428Y-126209271D02*
X77942428Y-127209271D01*
X77942428Y-126352128D02*
X78013857Y-126280700D01*
X78156714Y-126209271D01*
X78371000Y-126209271D01*
X78513857Y-126280700D01*
X78585285Y-126423557D01*
X78585285Y-127209271D01*
X79942428Y-127209271D02*
X79942428Y-125709271D01*
X79942428Y-127137842D02*
X79799571Y-127209271D01*
X79513857Y-127209271D01*
X79371000Y-127137842D01*
X79299571Y-127066414D01*
X79228142Y-126923557D01*
X79228142Y-126494985D01*
X79299571Y-126352128D01*
X79371000Y-126280700D01*
X79513857Y-126209271D01*
X79799571Y-126209271D01*
X79942428Y-126280700D01*
X81228142Y-127137842D02*
X81085285Y-127209271D01*
X80799571Y-127209271D01*
X80656714Y-127137842D01*
X80585285Y-126994985D01*
X80585285Y-126423557D01*
X80656714Y-126280700D01*
X80799571Y-126209271D01*
X81085285Y-126209271D01*
X81228142Y-126280700D01*
X81299571Y-126423557D01*
X81299571Y-126566414D01*
X80585285Y-126709271D01*
X81942428Y-127209271D02*
X81942428Y-126209271D01*
X81942428Y-126494985D02*
X82013857Y-126352128D01*
X82085285Y-126280700D01*
X82228142Y-126209271D01*
X82371000Y-126209271D01*
X84871000Y-127209271D02*
X84371000Y-126494985D01*
X84013857Y-127209271D02*
X84013857Y-125709271D01*
X84585285Y-125709271D01*
X84728142Y-125780700D01*
X84799571Y-125852128D01*
X84871000Y-125994985D01*
X84871000Y-126209271D01*
X84799571Y-126352128D01*
X84728142Y-126423557D01*
X84585285Y-126494985D01*
X84013857Y-126494985D01*
X86085285Y-127137842D02*
X85942428Y-127209271D01*
X85656714Y-127209271D01*
X85513857Y-127137842D01*
X85442428Y-126994985D01*
X85442428Y-126423557D01*
X85513857Y-126280700D01*
X85656714Y-126209271D01*
X85942428Y-126209271D01*
X86085285Y-126280700D01*
X86156714Y-126423557D01*
X86156714Y-126566414D01*
X85442428Y-126709271D01*
X86656714Y-126209271D02*
X87013857Y-127209271D01*
X87371000Y-126209271D01*
X89013857Y-126780700D02*
X89728142Y-126780700D01*
X88871000Y-127209271D02*
X89371000Y-125709271D01*
X89871000Y-127209271D01*
X72460671Y-84373928D02*
X72532100Y-84302500D01*
X72674957Y-84231071D01*
X73032100Y-84231071D01*
X73174957Y-84302500D01*
X73246385Y-84373928D01*
X73317814Y-84516785D01*
X73317814Y-84659642D01*
X73246385Y-84873928D01*
X72389242Y-85731071D01*
X73317814Y-85731071D01*
X74246385Y-84231071D02*
X74389242Y-84231071D01*
X74532100Y-84302500D01*
X74603528Y-84373928D01*
X74674957Y-84516785D01*
X74746385Y-84802500D01*
X74746385Y-85159642D01*
X74674957Y-85445357D01*
X74603528Y-85588214D01*
X74532100Y-85659642D01*
X74389242Y-85731071D01*
X74246385Y-85731071D01*
X74103528Y-85659642D01*
X74032100Y-85588214D01*
X73960671Y-85445357D01*
X73889242Y-85159642D01*
X73889242Y-84802500D01*
X73960671Y-84516785D01*
X74032100Y-84373928D01*
X74103528Y-84302500D01*
X74246385Y-84231071D01*
X75317814Y-84373928D02*
X75389242Y-84302500D01*
X75532100Y-84231071D01*
X75889242Y-84231071D01*
X76032100Y-84302500D01*
X76103528Y-84373928D01*
X76174957Y-84516785D01*
X76174957Y-84659642D01*
X76103528Y-84873928D01*
X75246385Y-85731071D01*
X76174957Y-85731071D01*
X77103528Y-84231071D02*
X77246385Y-84231071D01*
X77389242Y-84302500D01*
X77460671Y-84373928D01*
X77532100Y-84516785D01*
X77603528Y-84802500D01*
X77603528Y-85159642D01*
X77532100Y-85445357D01*
X77460671Y-85588214D01*
X77389242Y-85659642D01*
X77246385Y-85731071D01*
X77103528Y-85731071D01*
X76960671Y-85659642D01*
X76889242Y-85588214D01*
X76817814Y-85445357D01*
X76746385Y-85159642D01*
X76746385Y-84802500D01*
X76817814Y-84516785D01*
X76889242Y-84373928D01*
X76960671Y-84302500D01*
X77103528Y-84231071D01*
X80174957Y-85731071D02*
X79317814Y-85731071D01*
X79746385Y-85731071D02*
X79746385Y-84231071D01*
X79603528Y-84445357D01*
X79460671Y-84588214D01*
X79317814Y-84659642D01*
X81603528Y-85731071D02*
X80746385Y-85731071D01*
X81174957Y-85731071D02*
X81174957Y-84231071D01*
X81032100Y-84445357D01*
X80889242Y-84588214D01*
X80746385Y-84659642D01*
X83317814Y-84373928D02*
X83389242Y-84302500D01*
X83532100Y-84231071D01*
X83889242Y-84231071D01*
X84032100Y-84302500D01*
X84103528Y-84373928D01*
X84174957Y-84516785D01*
X84174957Y-84659642D01*
X84103528Y-84873928D01*
X83246385Y-85731071D01*
X84174957Y-85731071D01*
X85460671Y-84731071D02*
X85460671Y-85731071D01*
X85103528Y-84159642D02*
X84746385Y-85231071D01*
X85674957Y-85231071D01*
X79975000Y-118353571D02*
X80832142Y-118353571D01*
X80403571Y-119853571D02*
X80403571Y-118353571D01*
X81332142Y-119853571D02*
X81332142Y-118353571D01*
X81332142Y-119067857D02*
X82189285Y-119067857D01*
X82189285Y-119853571D02*
X82189285Y-118353571D01*
X83760714Y-119853571D02*
X83260714Y-119139285D01*
X82903571Y-119853571D02*
X82903571Y-118353571D01*
X83475000Y-118353571D01*
X83617857Y-118425000D01*
X83689285Y-118496428D01*
X83760714Y-118639285D01*
X83760714Y-118853571D01*
X83689285Y-118996428D01*
X83617857Y-119067857D01*
X83475000Y-119139285D01*
X82903571Y-119139285D01*
X84403571Y-118353571D02*
X84403571Y-119567857D01*
X84475000Y-119710714D01*
X84546428Y-119782142D01*
X84689285Y-119853571D01*
X84975000Y-119853571D01*
X85117857Y-119782142D01*
X85189285Y-119710714D01*
X85260714Y-119567857D01*
X85260714Y-118353571D01*
X86332142Y-120353571D02*
X86332142Y-118210714D01*
X87403571Y-119853571D02*
X87403571Y-118353571D01*
X88117857Y-119853571D02*
X88117857Y-118353571D01*
X88975000Y-119853571D01*
X88975000Y-118353571D01*
X89475000Y-118353571D02*
X89975000Y-119853571D01*
X90475000Y-118353571D01*
X61428571Y-107435714D02*
X61357142Y-107507142D01*
X61142857Y-107578571D01*
X61000000Y-107578571D01*
X60785714Y-107507142D01*
X60642857Y-107364285D01*
X60571428Y-107221428D01*
X60500000Y-106935714D01*
X60500000Y-106721428D01*
X60571428Y-106435714D01*
X60642857Y-106292857D01*
X60785714Y-106150000D01*
X61000000Y-106078571D01*
X61142857Y-106078571D01*
X61357142Y-106150000D01*
X61428571Y-106221428D01*
X62071428Y-107578571D02*
X62071428Y-106078571D01*
X62071428Y-106792857D02*
X62928571Y-106792857D01*
X62928571Y-107578571D02*
X62928571Y-106078571D01*
X64142857Y-106792857D02*
X64357142Y-106864285D01*
X64428571Y-106935714D01*
X64500000Y-107078571D01*
X64500000Y-107292857D01*
X64428571Y-107435714D01*
X64357142Y-107507142D01*
X64214285Y-107578571D01*
X63642857Y-107578571D01*
X63642857Y-106078571D01*
X64142857Y-106078571D01*
X64285714Y-106150000D01*
X64357142Y-106221428D01*
X64428571Y-106364285D01*
X64428571Y-106507142D01*
X64357142Y-106650000D01*
X64285714Y-106721428D01*
X64142857Y-106792857D01*
X63642857Y-106792857D01*
X67000000Y-106078571D02*
X66285714Y-106078571D01*
X66214285Y-106792857D01*
X66285714Y-106721428D01*
X66428571Y-106650000D01*
X66785714Y-106650000D01*
X66928571Y-106721428D01*
X67000000Y-106792857D01*
X67071428Y-106935714D01*
X67071428Y-107292857D01*
X67000000Y-107435714D01*
X66928571Y-107507142D01*
X66785714Y-107578571D01*
X66428571Y-107578571D01*
X66285714Y-107507142D01*
X66214285Y-107435714D01*
X68357142Y-106078571D02*
X68071428Y-106078571D01*
X67928571Y-106150000D01*
X67857142Y-106221428D01*
X67714285Y-106435714D01*
X67642857Y-106721428D01*
X67642857Y-107292857D01*
X67714285Y-107435714D01*
X67785714Y-107507142D01*
X67928571Y-107578571D01*
X68214285Y-107578571D01*
X68357142Y-107507142D01*
X68428571Y-107435714D01*
X68500000Y-107292857D01*
X68500000Y-106935714D01*
X68428571Y-106792857D01*
X68357142Y-106721428D01*
X68214285Y-106650000D01*
X67928571Y-106650000D01*
X67785714Y-106721428D01*
X67714285Y-106792857D01*
X67642857Y-106935714D01*
X62335714Y-85935714D02*
X62264285Y-86007142D01*
X62050000Y-86078571D01*
X61907142Y-86078571D01*
X61692857Y-86007142D01*
X61550000Y-85864285D01*
X61478571Y-85721428D01*
X61407142Y-85435714D01*
X61407142Y-85221428D01*
X61478571Y-84935714D01*
X61550000Y-84792857D01*
X61692857Y-84650000D01*
X61907142Y-84578571D01*
X62050000Y-84578571D01*
X62264285Y-84650000D01*
X62335714Y-84721428D01*
X62978571Y-86078571D02*
X62978571Y-84578571D01*
X62978571Y-85292857D02*
X63835714Y-85292857D01*
X63835714Y-86078571D02*
X63835714Y-84578571D01*
X64478571Y-85650000D02*
X65192857Y-85650000D01*
X64335714Y-86078571D02*
X64835714Y-84578571D01*
X65335714Y-86078571D01*
X66835714Y-84578571D02*
X67764285Y-84578571D01*
X67264285Y-85150000D01*
X67478571Y-85150000D01*
X67621428Y-85221428D01*
X67692857Y-85292857D01*
X67764285Y-85435714D01*
X67764285Y-85792857D01*
X67692857Y-85935714D01*
X67621428Y-86007142D01*
X67478571Y-86078571D01*
X67050000Y-86078571D01*
X66907142Y-86007142D01*
X66835714Y-85935714D01*
X69050000Y-85078571D02*
X69050000Y-86078571D01*
X68692857Y-84507142D02*
X68335714Y-85578571D01*
X69264285Y-85578571D01*
X61935714Y-97785714D02*
X61864285Y-97857142D01*
X61650000Y-97928571D01*
X61507142Y-97928571D01*
X61292857Y-97857142D01*
X61150000Y-97714285D01*
X61078571Y-97571428D01*
X61007142Y-97285714D01*
X61007142Y-97071428D01*
X61078571Y-96785714D01*
X61150000Y-96642857D01*
X61292857Y-96500000D01*
X61507142Y-96428571D01*
X61650000Y-96428571D01*
X61864285Y-96500000D01*
X61935714Y-96571428D01*
X62578571Y-97928571D02*
X62578571Y-96428571D01*
X62578571Y-97142857D02*
X63435714Y-97142857D01*
X63435714Y-97928571D02*
X63435714Y-96428571D01*
X64078571Y-97500000D02*
X64792857Y-97500000D01*
X63935714Y-97928571D02*
X64435714Y-96428571D01*
X64935714Y-97928571D01*
X66435714Y-96428571D02*
X67364285Y-96428571D01*
X66864285Y-97000000D01*
X67078571Y-97000000D01*
X67221428Y-97071428D01*
X67292857Y-97142857D01*
X67364285Y-97285714D01*
X67364285Y-97642857D01*
X67292857Y-97785714D01*
X67221428Y-97857142D01*
X67078571Y-97928571D01*
X66650000Y-97928571D01*
X66507142Y-97857142D01*
X66435714Y-97785714D01*
X68650000Y-96928571D02*
X68650000Y-97928571D01*
X68292857Y-96357142D02*
X67935714Y-97428571D01*
X68864285Y-97428571D01*
X60330471Y-94366642D02*
X58830471Y-94366642D01*
X59901900Y-93866642D01*
X58830471Y-93366642D01*
X60330471Y-93366642D01*
X60330471Y-92652357D02*
X58830471Y-92652357D01*
X60330471Y-91938071D02*
X58830471Y-91938071D01*
X58830471Y-91580928D01*
X58901900Y-91366642D01*
X59044757Y-91223785D01*
X59187614Y-91152357D01*
X59473328Y-91080928D01*
X59687614Y-91080928D01*
X59973328Y-91152357D01*
X60116185Y-91223785D01*
X60259042Y-91366642D01*
X60330471Y-91580928D01*
X60330471Y-91938071D01*
X60330471Y-90438071D02*
X58830471Y-90438071D01*
X58830471Y-89438071D02*
X58830471Y-89152357D01*
X58901900Y-89009500D01*
X59044757Y-88866642D01*
X59330471Y-88795214D01*
X59830471Y-88795214D01*
X60116185Y-88866642D01*
X60259042Y-89009500D01*
X60330471Y-89152357D01*
X60330471Y-89438071D01*
X60259042Y-89580928D01*
X60116185Y-89723785D01*
X59830471Y-89795214D01*
X59330471Y-89795214D01*
X59044757Y-89723785D01*
X58901900Y-89580928D01*
X58830471Y-89438071D01*
X58830471Y-88152357D02*
X60044757Y-88152357D01*
X60187614Y-88080928D01*
X60259042Y-88009500D01*
X60330471Y-87866642D01*
X60330471Y-87580928D01*
X60259042Y-87438071D01*
X60187614Y-87366642D01*
X60044757Y-87295214D01*
X58830471Y-87295214D01*
X58830471Y-86795214D02*
X58830471Y-85938071D01*
X60330471Y-86366642D02*
X58830471Y-86366642D01*
X61828571Y-95585714D02*
X61757142Y-95657142D01*
X61542857Y-95728571D01*
X61400000Y-95728571D01*
X61185714Y-95657142D01*
X61042857Y-95514285D01*
X60971428Y-95371428D01*
X60900000Y-95085714D01*
X60900000Y-94871428D01*
X60971428Y-94585714D01*
X61042857Y-94442857D01*
X61185714Y-94300000D01*
X61400000Y-94228571D01*
X61542857Y-94228571D01*
X61757142Y-94300000D01*
X61828571Y-94371428D01*
X62471428Y-95728571D02*
X62471428Y-94228571D01*
X62471428Y-94942857D02*
X63328571Y-94942857D01*
X63328571Y-95728571D02*
X63328571Y-94228571D01*
X64542857Y-94942857D02*
X64757142Y-95014285D01*
X64828571Y-95085714D01*
X64900000Y-95228571D01*
X64900000Y-95442857D01*
X64828571Y-95585714D01*
X64757142Y-95657142D01*
X64614285Y-95728571D01*
X64042857Y-95728571D01*
X64042857Y-94228571D01*
X64542857Y-94228571D01*
X64685714Y-94300000D01*
X64757142Y-94371428D01*
X64828571Y-94514285D01*
X64828571Y-94657142D01*
X64757142Y-94800000D01*
X64685714Y-94871428D01*
X64542857Y-94942857D01*
X64042857Y-94942857D01*
X67400000Y-94228571D02*
X66685714Y-94228571D01*
X66614285Y-94942857D01*
X66685714Y-94871428D01*
X66828571Y-94800000D01*
X67185714Y-94800000D01*
X67328571Y-94871428D01*
X67400000Y-94942857D01*
X67471428Y-95085714D01*
X67471428Y-95442857D01*
X67400000Y-95585714D01*
X67328571Y-95657142D01*
X67185714Y-95728571D01*
X66828571Y-95728571D01*
X66685714Y-95657142D01*
X66614285Y-95585714D01*
X68757142Y-94228571D02*
X68471428Y-94228571D01*
X68328571Y-94300000D01*
X68257142Y-94371428D01*
X68114285Y-94585714D01*
X68042857Y-94871428D01*
X68042857Y-95442857D01*
X68114285Y-95585714D01*
X68185714Y-95657142D01*
X68328571Y-95728571D01*
X68614285Y-95728571D01*
X68757142Y-95657142D01*
X68828571Y-95585714D01*
X68900000Y-95442857D01*
X68900000Y-95085714D01*
X68828571Y-94942857D01*
X68757142Y-94871428D01*
X68614285Y-94800000D01*
X68328571Y-94800000D01*
X68185714Y-94871428D01*
X68114285Y-94942857D01*
X68042857Y-95085714D01*
X59949471Y-104479142D02*
X58449471Y-104479142D01*
X59520900Y-103979142D01*
X58449471Y-103479142D01*
X59949471Y-103479142D01*
X59949471Y-102764857D02*
X58449471Y-102764857D01*
X59949471Y-102050571D02*
X58449471Y-102050571D01*
X58449471Y-101693428D01*
X58520900Y-101479142D01*
X58663757Y-101336285D01*
X58806614Y-101264857D01*
X59092328Y-101193428D01*
X59306614Y-101193428D01*
X59592328Y-101264857D01*
X59735185Y-101336285D01*
X59878042Y-101479142D01*
X59949471Y-101693428D01*
X59949471Y-102050571D01*
X59949471Y-100550571D02*
X58449471Y-100550571D01*
X59949471Y-99836285D02*
X58449471Y-99836285D01*
X59949471Y-99122000D02*
X58449471Y-99122000D01*
X59949471Y-98264857D01*
X58449471Y-98264857D01*
D10*
X61225000Y-86800000D02*
X61263100Y-89436900D01*
X61250000Y-90425000D02*
X61288100Y-93061900D01*
X60825000Y-98650000D02*
X60863100Y-101286900D01*
D11*
X60330471Y-48366642D02*
X58830471Y-48366642D01*
X59901900Y-47866642D01*
X58830471Y-47366642D01*
X60330471Y-47366642D01*
X60330471Y-46652357D02*
X58830471Y-46652357D01*
X60330471Y-45938071D02*
X58830471Y-45938071D01*
X58830471Y-45580928D01*
X58901900Y-45366642D01*
X59044757Y-45223785D01*
X59187614Y-45152357D01*
X59473328Y-45080928D01*
X59687614Y-45080928D01*
X59973328Y-45152357D01*
X60116185Y-45223785D01*
X60259042Y-45366642D01*
X60330471Y-45580928D01*
X60330471Y-45938071D01*
X60330471Y-44438071D02*
X58830471Y-44438071D01*
X58830471Y-43438071D02*
X58830471Y-43152357D01*
X58901900Y-43009500D01*
X59044757Y-42866642D01*
X59330471Y-42795214D01*
X59830471Y-42795214D01*
X60116185Y-42866642D01*
X60259042Y-43009500D01*
X60330471Y-43152357D01*
X60330471Y-43438071D01*
X60259042Y-43580928D01*
X60116185Y-43723785D01*
X59830471Y-43795214D01*
X59330471Y-43795214D01*
X59044757Y-43723785D01*
X58901900Y-43580928D01*
X58830471Y-43438071D01*
X58830471Y-42152357D02*
X60044757Y-42152357D01*
X60187614Y-42080928D01*
X60259042Y-42009500D01*
X60330471Y-41866642D01*
X60330471Y-41580928D01*
X60259042Y-41438071D01*
X60187614Y-41366642D01*
X60044757Y-41295214D01*
X58830471Y-41295214D01*
X58830471Y-40795214D02*
X58830471Y-39938071D01*
X60330471Y-40366642D02*
X58830471Y-40366642D01*
X59949471Y-58479142D02*
X58449471Y-58479142D01*
X59520900Y-57979142D01*
X58449471Y-57479142D01*
X59949471Y-57479142D01*
X59949471Y-56764857D02*
X58449471Y-56764857D01*
X59949471Y-56050571D02*
X58449471Y-56050571D01*
X58449471Y-55693428D01*
X58520900Y-55479142D01*
X58663757Y-55336285D01*
X58806614Y-55264857D01*
X59092328Y-55193428D01*
X59306614Y-55193428D01*
X59592328Y-55264857D01*
X59735185Y-55336285D01*
X59878042Y-55479142D01*
X59949471Y-55693428D01*
X59949471Y-56050571D01*
X59949471Y-54550571D02*
X58449471Y-54550571D01*
X59949471Y-53836285D02*
X58449471Y-53836285D01*
X59949471Y-53122000D02*
X58449471Y-53122000D01*
X59949471Y-52264857D01*
X58449471Y-52264857D01*
X61828571Y-49585714D02*
X61757142Y-49657142D01*
X61542857Y-49728571D01*
X61400000Y-49728571D01*
X61185714Y-49657142D01*
X61042857Y-49514285D01*
X60971428Y-49371428D01*
X60900000Y-49085714D01*
X60900000Y-48871428D01*
X60971428Y-48585714D01*
X61042857Y-48442857D01*
X61185714Y-48300000D01*
X61400000Y-48228571D01*
X61542857Y-48228571D01*
X61757142Y-48300000D01*
X61828571Y-48371428D01*
X62471428Y-49728571D02*
X62471428Y-48228571D01*
X62471428Y-48942857D02*
X63328571Y-48942857D01*
X63328571Y-49728571D02*
X63328571Y-48228571D01*
X64542857Y-48942857D02*
X64757142Y-49014285D01*
X64828571Y-49085714D01*
X64900000Y-49228571D01*
X64900000Y-49442857D01*
X64828571Y-49585714D01*
X64757142Y-49657142D01*
X64614285Y-49728571D01*
X64042857Y-49728571D01*
X64042857Y-48228571D01*
X64542857Y-48228571D01*
X64685714Y-48300000D01*
X64757142Y-48371428D01*
X64828571Y-48514285D01*
X64828571Y-48657142D01*
X64757142Y-48800000D01*
X64685714Y-48871428D01*
X64542857Y-48942857D01*
X64042857Y-48942857D01*
X67400000Y-48228571D02*
X66685714Y-48228571D01*
X66614285Y-48942857D01*
X66685714Y-48871428D01*
X66828571Y-48800000D01*
X67185714Y-48800000D01*
X67328571Y-48871428D01*
X67400000Y-48942857D01*
X67471428Y-49085714D01*
X67471428Y-49442857D01*
X67400000Y-49585714D01*
X67328571Y-49657142D01*
X67185714Y-49728571D01*
X66828571Y-49728571D01*
X66685714Y-49657142D01*
X66614285Y-49585714D01*
X68757142Y-48228571D02*
X68471428Y-48228571D01*
X68328571Y-48300000D01*
X68257142Y-48371428D01*
X68114285Y-48585714D01*
X68042857Y-48871428D01*
X68042857Y-49442857D01*
X68114285Y-49585714D01*
X68185714Y-49657142D01*
X68328571Y-49728571D01*
X68614285Y-49728571D01*
X68757142Y-49657142D01*
X68828571Y-49585714D01*
X68900000Y-49442857D01*
X68900000Y-49085714D01*
X68828571Y-48942857D01*
X68757142Y-48871428D01*
X68614285Y-48800000D01*
X68328571Y-48800000D01*
X68185714Y-48871428D01*
X68114285Y-48942857D01*
X68042857Y-49085714D01*
X62335714Y-39935714D02*
X62264285Y-40007142D01*
X62050000Y-40078571D01*
X61907142Y-40078571D01*
X61692857Y-40007142D01*
X61550000Y-39864285D01*
X61478571Y-39721428D01*
X61407142Y-39435714D01*
X61407142Y-39221428D01*
X61478571Y-38935714D01*
X61550000Y-38792857D01*
X61692857Y-38650000D01*
X61907142Y-38578571D01*
X62050000Y-38578571D01*
X62264285Y-38650000D01*
X62335714Y-38721428D01*
X62978571Y-40078571D02*
X62978571Y-38578571D01*
X62978571Y-39292857D02*
X63835714Y-39292857D01*
X63835714Y-40078571D02*
X63835714Y-38578571D01*
X64478571Y-39650000D02*
X65192857Y-39650000D01*
X64335714Y-40078571D02*
X64835714Y-38578571D01*
X65335714Y-40078571D01*
X66835714Y-38578571D02*
X67764285Y-38578571D01*
X67264285Y-39150000D01*
X67478571Y-39150000D01*
X67621428Y-39221428D01*
X67692857Y-39292857D01*
X67764285Y-39435714D01*
X67764285Y-39792857D01*
X67692857Y-39935714D01*
X67621428Y-40007142D01*
X67478571Y-40078571D01*
X67050000Y-40078571D01*
X66907142Y-40007142D01*
X66835714Y-39935714D01*
X69050000Y-39078571D02*
X69050000Y-40078571D01*
X68692857Y-38507142D02*
X68335714Y-39578571D01*
X69264285Y-39578571D01*
D10*
X68575000Y-44575000D02*
X68575000Y-47250000D01*
X61225000Y-40800000D02*
X61225000Y-43475000D01*
X68550000Y-40950000D02*
X68550000Y-43625000D01*
X61250000Y-44425000D02*
X61250000Y-47100000D01*
D11*
X79975000Y-72353571D02*
X80832142Y-72353571D01*
X80403571Y-73853571D02*
X80403571Y-72353571D01*
X81332142Y-73853571D02*
X81332142Y-72353571D01*
X81332142Y-73067857D02*
X82189285Y-73067857D01*
X82189285Y-73853571D02*
X82189285Y-72353571D01*
X83760714Y-73853571D02*
X83260714Y-73139285D01*
X82903571Y-73853571D02*
X82903571Y-72353571D01*
X83475000Y-72353571D01*
X83617857Y-72425000D01*
X83689285Y-72496428D01*
X83760714Y-72639285D01*
X83760714Y-72853571D01*
X83689285Y-72996428D01*
X83617857Y-73067857D01*
X83475000Y-73139285D01*
X82903571Y-73139285D01*
X84403571Y-72353571D02*
X84403571Y-73567857D01*
X84475000Y-73710714D01*
X84546428Y-73782142D01*
X84689285Y-73853571D01*
X84975000Y-73853571D01*
X85117857Y-73782142D01*
X85189285Y-73710714D01*
X85260714Y-73567857D01*
X85260714Y-72353571D01*
X86332142Y-74353571D02*
X86332142Y-72210714D01*
X87403571Y-73853571D02*
X87403571Y-72353571D01*
X88117857Y-73853571D02*
X88117857Y-72353571D01*
X88975000Y-73853571D01*
X88975000Y-72353571D01*
X89475000Y-72353571D02*
X89975000Y-73853571D01*
X90475000Y-72353571D01*
D10*
X60825000Y-52650000D02*
X60825000Y-55325000D01*
X68150000Y-52800000D02*
X68150000Y-55475000D01*
X68175000Y-56425000D02*
X68175000Y-59100000D01*
X60850000Y-56275000D02*
X60850000Y-58950000D01*
D11*
X61428571Y-61435714D02*
X61357142Y-61507142D01*
X61142857Y-61578571D01*
X61000000Y-61578571D01*
X60785714Y-61507142D01*
X60642857Y-61364285D01*
X60571428Y-61221428D01*
X60500000Y-60935714D01*
X60500000Y-60721428D01*
X60571428Y-60435714D01*
X60642857Y-60292857D01*
X60785714Y-60150000D01*
X61000000Y-60078571D01*
X61142857Y-60078571D01*
X61357142Y-60150000D01*
X61428571Y-60221428D01*
X62071428Y-61578571D02*
X62071428Y-60078571D01*
X62071428Y-60792857D02*
X62928571Y-60792857D01*
X62928571Y-61578571D02*
X62928571Y-60078571D01*
X64142857Y-60792857D02*
X64357142Y-60864285D01*
X64428571Y-60935714D01*
X64500000Y-61078571D01*
X64500000Y-61292857D01*
X64428571Y-61435714D01*
X64357142Y-61507142D01*
X64214285Y-61578571D01*
X63642857Y-61578571D01*
X63642857Y-60078571D01*
X64142857Y-60078571D01*
X64285714Y-60150000D01*
X64357142Y-60221428D01*
X64428571Y-60364285D01*
X64428571Y-60507142D01*
X64357142Y-60650000D01*
X64285714Y-60721428D01*
X64142857Y-60792857D01*
X63642857Y-60792857D01*
X67000000Y-60078571D02*
X66285714Y-60078571D01*
X66214285Y-60792857D01*
X66285714Y-60721428D01*
X66428571Y-60650000D01*
X66785714Y-60650000D01*
X66928571Y-60721428D01*
X67000000Y-60792857D01*
X67071428Y-60935714D01*
X67071428Y-61292857D01*
X67000000Y-61435714D01*
X66928571Y-61507142D01*
X66785714Y-61578571D01*
X66428571Y-61578571D01*
X66285714Y-61507142D01*
X66214285Y-61435714D01*
X68357142Y-60078571D02*
X68071428Y-60078571D01*
X67928571Y-60150000D01*
X67857142Y-60221428D01*
X67714285Y-60435714D01*
X67642857Y-60721428D01*
X67642857Y-61292857D01*
X67714285Y-61435714D01*
X67785714Y-61507142D01*
X67928571Y-61578571D01*
X68214285Y-61578571D01*
X68357142Y-61507142D01*
X68428571Y-61435714D01*
X68500000Y-61292857D01*
X68500000Y-60935714D01*
X68428571Y-60792857D01*
X68357142Y-60721428D01*
X68214285Y-60650000D01*
X67928571Y-60650000D01*
X67785714Y-60721428D01*
X67714285Y-60792857D01*
X67642857Y-60935714D01*
X61935714Y-51785714D02*
X61864285Y-51857142D01*
X61650000Y-51928571D01*
X61507142Y-51928571D01*
X61292857Y-51857142D01*
X61150000Y-51714285D01*
X61078571Y-51571428D01*
X61007142Y-51285714D01*
X61007142Y-51071428D01*
X61078571Y-50785714D01*
X61150000Y-50642857D01*
X61292857Y-50500000D01*
X61507142Y-50428571D01*
X61650000Y-50428571D01*
X61864285Y-50500000D01*
X61935714Y-50571428D01*
X62578571Y-51928571D02*
X62578571Y-50428571D01*
X62578571Y-51142857D02*
X63435714Y-51142857D01*
X63435714Y-51928571D02*
X63435714Y-50428571D01*
X64078571Y-51500000D02*
X64792857Y-51500000D01*
X63935714Y-51928571D02*
X64435714Y-50428571D01*
X64935714Y-51928571D01*
X66435714Y-50428571D02*
X67364285Y-50428571D01*
X66864285Y-51000000D01*
X67078571Y-51000000D01*
X67221428Y-51071428D01*
X67292857Y-51142857D01*
X67364285Y-51285714D01*
X67364285Y-51642857D01*
X67292857Y-51785714D01*
X67221428Y-51857142D01*
X67078571Y-51928571D01*
X66650000Y-51928571D01*
X66507142Y-51857142D01*
X66435714Y-51785714D01*
X68650000Y-50928571D02*
X68650000Y-51928571D01*
X68292857Y-50357142D02*
X67935714Y-51428571D01*
X68864285Y-51428571D01*
X72460671Y-38373928D02*
X72532100Y-38302500D01*
X72674957Y-38231071D01*
X73032100Y-38231071D01*
X73174957Y-38302500D01*
X73246385Y-38373928D01*
X73317814Y-38516785D01*
X73317814Y-38659642D01*
X73246385Y-38873928D01*
X72389242Y-39731071D01*
X73317814Y-39731071D01*
X74246385Y-38231071D02*
X74389242Y-38231071D01*
X74532100Y-38302500D01*
X74603528Y-38373928D01*
X74674957Y-38516785D01*
X74746385Y-38802500D01*
X74746385Y-39159642D01*
X74674957Y-39445357D01*
X74603528Y-39588214D01*
X74532100Y-39659642D01*
X74389242Y-39731071D01*
X74246385Y-39731071D01*
X74103528Y-39659642D01*
X74032100Y-39588214D01*
X73960671Y-39445357D01*
X73889242Y-39159642D01*
X73889242Y-38802500D01*
X73960671Y-38516785D01*
X74032100Y-38373928D01*
X74103528Y-38302500D01*
X74246385Y-38231071D01*
X75317814Y-38373928D02*
X75389242Y-38302500D01*
X75532100Y-38231071D01*
X75889242Y-38231071D01*
X76032100Y-38302500D01*
X76103528Y-38373928D01*
X76174957Y-38516785D01*
X76174957Y-38659642D01*
X76103528Y-38873928D01*
X75246385Y-39731071D01*
X76174957Y-39731071D01*
X77103528Y-38231071D02*
X77246385Y-38231071D01*
X77389242Y-38302500D01*
X77460671Y-38373928D01*
X77532100Y-38516785D01*
X77603528Y-38802500D01*
X77603528Y-39159642D01*
X77532100Y-39445357D01*
X77460671Y-39588214D01*
X77389242Y-39659642D01*
X77246385Y-39731071D01*
X77103528Y-39731071D01*
X76960671Y-39659642D01*
X76889242Y-39588214D01*
X76817814Y-39445357D01*
X76746385Y-39159642D01*
X76746385Y-38802500D01*
X76817814Y-38516785D01*
X76889242Y-38373928D01*
X76960671Y-38302500D01*
X77103528Y-38231071D01*
X80174957Y-39731071D02*
X79317814Y-39731071D01*
X79746385Y-39731071D02*
X79746385Y-38231071D01*
X79603528Y-38445357D01*
X79460671Y-38588214D01*
X79317814Y-38659642D01*
X81603528Y-39731071D02*
X80746385Y-39731071D01*
X81174957Y-39731071D02*
X81174957Y-38231071D01*
X81032100Y-38445357D01*
X80889242Y-38588214D01*
X80746385Y-38659642D01*
X83317814Y-38373928D02*
X83389242Y-38302500D01*
X83532100Y-38231071D01*
X83889242Y-38231071D01*
X84032100Y-38302500D01*
X84103528Y-38373928D01*
X84174957Y-38516785D01*
X84174957Y-38659642D01*
X84103528Y-38873928D01*
X83246385Y-39731071D01*
X84174957Y-39731071D01*
X85460671Y-38731071D02*
X85460671Y-39731071D01*
X85103528Y-38159642D02*
X84746385Y-39231071D01*
X85674957Y-39231071D01*
X68585285Y-81209271D02*
X68585285Y-79709271D01*
X69085285Y-80780700D01*
X69585285Y-79709271D01*
X69585285Y-81209271D01*
X70299571Y-81209271D02*
X70299571Y-79709271D01*
X71013857Y-81209271D02*
X71013857Y-79709271D01*
X71371000Y-79709271D01*
X71585285Y-79780700D01*
X71728142Y-79923557D01*
X71799571Y-80066414D01*
X71871000Y-80352128D01*
X71871000Y-80566414D01*
X71799571Y-80852128D01*
X71728142Y-80994985D01*
X71585285Y-81137842D01*
X71371000Y-81209271D01*
X71013857Y-81209271D01*
X72513857Y-81209271D02*
X72513857Y-79709271D01*
X73228142Y-80423557D02*
X73728142Y-80423557D01*
X73942428Y-81209271D02*
X73228142Y-81209271D01*
X73228142Y-79709271D01*
X73942428Y-79709271D01*
X74442428Y-81209271D02*
X75228142Y-80209271D01*
X74442428Y-80209271D02*
X75228142Y-81209271D01*
X75585285Y-80209271D02*
X76156714Y-80209271D01*
X75799571Y-79709271D02*
X75799571Y-80994985D01*
X75871000Y-81137842D01*
X76013857Y-81209271D01*
X76156714Y-81209271D01*
X77228142Y-81137842D02*
X77085285Y-81209271D01*
X76799571Y-81209271D01*
X76656714Y-81137842D01*
X76585285Y-80994985D01*
X76585285Y-80423557D01*
X76656714Y-80280700D01*
X76799571Y-80209271D01*
X77085285Y-80209271D01*
X77228142Y-80280700D01*
X77299571Y-80423557D01*
X77299571Y-80566414D01*
X76585285Y-80709271D01*
X77942428Y-80209271D02*
X77942428Y-81209271D01*
X77942428Y-80352128D02*
X78013857Y-80280700D01*
X78156714Y-80209271D01*
X78371000Y-80209271D01*
X78513857Y-80280700D01*
X78585285Y-80423557D01*
X78585285Y-81209271D01*
X79942428Y-81209271D02*
X79942428Y-79709271D01*
X79942428Y-81137842D02*
X79799571Y-81209271D01*
X79513857Y-81209271D01*
X79371000Y-81137842D01*
X79299571Y-81066414D01*
X79228142Y-80923557D01*
X79228142Y-80494985D01*
X79299571Y-80352128D01*
X79371000Y-80280700D01*
X79513857Y-80209271D01*
X79799571Y-80209271D01*
X79942428Y-80280700D01*
X81228142Y-81137842D02*
X81085285Y-81209271D01*
X80799571Y-81209271D01*
X80656714Y-81137842D01*
X80585285Y-80994985D01*
X80585285Y-80423557D01*
X80656714Y-80280700D01*
X80799571Y-80209271D01*
X81085285Y-80209271D01*
X81228142Y-80280700D01*
X81299571Y-80423557D01*
X81299571Y-80566414D01*
X80585285Y-80709271D01*
X81942428Y-81209271D02*
X81942428Y-80209271D01*
X81942428Y-80494985D02*
X82013857Y-80352128D01*
X82085285Y-80280700D01*
X82228142Y-80209271D01*
X82371000Y-80209271D01*
X84871000Y-81209271D02*
X84371000Y-80494985D01*
X84013857Y-81209271D02*
X84013857Y-79709271D01*
X84585285Y-79709271D01*
X84728142Y-79780700D01*
X84799571Y-79852128D01*
X84871000Y-79994985D01*
X84871000Y-80209271D01*
X84799571Y-80352128D01*
X84728142Y-80423557D01*
X84585285Y-80494985D01*
X84013857Y-80494985D01*
X86085285Y-81137842D02*
X85942428Y-81209271D01*
X85656714Y-81209271D01*
X85513857Y-81137842D01*
X85442428Y-80994985D01*
X85442428Y-80423557D01*
X85513857Y-80280700D01*
X85656714Y-80209271D01*
X85942428Y-80209271D01*
X86085285Y-80280700D01*
X86156714Y-80423557D01*
X86156714Y-80566414D01*
X85442428Y-80709271D01*
X86656714Y-80209271D02*
X87013857Y-81209271D01*
X87371000Y-80209271D01*
X89013857Y-80780700D02*
X89728142Y-80780700D01*
X88871000Y-81209271D02*
X89371000Y-79709271D01*
X89871000Y-81209271D01*
D12*
G04 #@! TO.C,R3*
X95855000Y-107375000D02*
X95855000Y-108575000D01*
X94095000Y-108575000D02*
X94095000Y-107375000D01*
D13*
G04 #@! TO.C,J2*
X67338700Y-117503600D02*
X69878700Y-117503600D01*
X69878700Y-117503600D02*
X69878700Y-112423600D01*
X67338700Y-112423600D02*
X69878700Y-112423600D01*
X67338700Y-117503600D02*
X67338700Y-112423600D01*
D14*
X67338700Y-112423600D02*
X69878700Y-112423600D01*
X69878700Y-112423600D02*
X69878700Y-117503600D01*
X69878700Y-117503600D02*
X67338700Y-117503600D01*
X67338700Y-117503600D02*
X67338700Y-112423600D01*
D15*
X67338700Y-112423600D02*
X69878700Y-112423600D01*
X69878700Y-112423600D02*
X69878700Y-117503600D01*
X67338700Y-117503600D02*
X67338700Y-112423600D01*
D16*
G04 #@! TO.C,JP1*
X56199460Y-112100520D02*
X52300560Y-112100520D01*
X56199460Y-124099480D02*
X56199460Y-112100520D01*
X52300560Y-124099480D02*
X56199460Y-124099480D01*
X44302100Y-124099480D02*
X48101940Y-124099480D01*
X44302100Y-112100520D02*
X48101940Y-112100520D01*
D12*
G04 #@! TO.C,U2*
X84865000Y-107205000D02*
G75*
G02X86865000Y-107205000I1000000J0D01*
G01*
X86865000Y-107205000D02*
X88515000Y-107205000D01*
X88515000Y-107205000D02*
X88515000Y-96925000D01*
X88515000Y-96925000D02*
X83215000Y-96925000D01*
X83215000Y-96925000D02*
X83215000Y-107205000D01*
X83215000Y-107205000D02*
X84865000Y-107205000D01*
D13*
G04 #@! TO.C,J10*
X100445000Y-99760000D02*
X97905000Y-99760000D01*
X97905000Y-99760000D02*
X97905000Y-104840000D01*
X100445000Y-104840000D02*
X97905000Y-104840000D01*
X100445000Y-99760000D02*
X100445000Y-104840000D01*
D14*
X100445000Y-104840000D02*
X97905000Y-104840000D01*
X97905000Y-104840000D02*
X97905000Y-99760000D01*
X97905000Y-99760000D02*
X100445000Y-99760000D01*
X100445000Y-99760000D02*
X100445000Y-104840000D01*
D15*
X100445000Y-104840000D02*
X97905000Y-104840000D01*
X97905000Y-104840000D02*
X97905000Y-99760000D01*
X100445000Y-99760000D02*
X100445000Y-104840000D01*
D17*
G04 #@! TO.C,MIDI_OUT1*
X118800000Y-109800000D02*
X101300000Y-109800000D01*
X101300000Y-109800000D02*
X101300000Y-127800000D01*
X101300000Y-127800000D02*
X118800000Y-127800000D01*
X118800000Y-127800000D02*
X118800000Y-109800000D01*
G04 #@! TO.C,U4*
X76575000Y-92525000D02*
X77975000Y-92525000D01*
X76575000Y-87425000D02*
X72425000Y-87425000D01*
X76575000Y-92575000D02*
X72425000Y-92575000D01*
X76575000Y-87425000D02*
X76575000Y-87570000D01*
X72425000Y-87425000D02*
X72425000Y-87570000D01*
X72425000Y-92575000D02*
X72425000Y-92430000D01*
X76575000Y-92575000D02*
X76575000Y-92525000D01*
G04 #@! TO.C,MIDI_IN1*
X118800000Y-100300000D02*
X118800000Y-82300000D01*
X101300000Y-100300000D02*
X118800000Y-100300000D01*
X101300000Y-82300000D02*
X101300000Y-100300000D01*
X118800000Y-82300000D02*
X101300000Y-82300000D01*
D12*
G04 #@! TO.C,R10*
X83125000Y-122955000D02*
X81925000Y-122955000D01*
X81925000Y-121195000D02*
X83125000Y-121195000D01*
G04 #@! TO.C,C3*
X74042200Y-114471148D02*
X74042200Y-114993652D01*
X75462200Y-114471148D02*
X75462200Y-114993652D01*
D17*
G04 #@! TO.C,U1*
X76625000Y-103925000D02*
X78025000Y-103925000D01*
X76625000Y-98825000D02*
X72475000Y-98825000D01*
X76625000Y-103975000D02*
X72475000Y-103975000D01*
X76625000Y-98825000D02*
X76625000Y-98970000D01*
X72475000Y-98825000D02*
X72475000Y-98970000D01*
X72475000Y-103975000D02*
X72475000Y-103830000D01*
X76625000Y-103975000D02*
X76625000Y-103925000D01*
D12*
G04 #@! TO.C,C5*
X72738748Y-95210000D02*
X73261252Y-95210000D01*
X72738748Y-93790000D02*
X73261252Y-93790000D01*
G04 #@! TO.C,R11*
X80400000Y-94120000D02*
X81600000Y-94120000D01*
X81600000Y-95880000D02*
X80400000Y-95880000D01*
G04 #@! TO.C,C1*
X60069952Y-117773600D02*
X59547448Y-117773600D01*
X60069952Y-116353600D02*
X59547448Y-116353600D01*
G04 #@! TO.C,Q1*
X95085000Y-116055000D02*
X93625000Y-116055000D01*
X95085000Y-112895000D02*
X92925000Y-112895000D01*
X95085000Y-112895000D02*
X95085000Y-113825000D01*
X95085000Y-116055000D02*
X95085000Y-115125000D01*
G04 #@! TO.C,R6*
X94070000Y-102500000D02*
X94070000Y-101300000D01*
X95830000Y-101300000D02*
X95830000Y-102500000D01*
G04 #@! TO.C,R4*
X93995000Y-97025000D02*
X93995000Y-95825000D01*
X95755000Y-95825000D02*
X95755000Y-97025000D01*
D15*
G04 #@! TO.C,CHAN2*
X67490000Y-86440000D02*
X67490000Y-94060000D01*
X62410000Y-86440000D02*
X67490000Y-86440000D01*
X62410000Y-94060000D02*
X62410000Y-86440000D01*
X67490000Y-94060000D02*
X62410000Y-94060000D01*
D14*
X67490000Y-86440000D02*
X67490000Y-94060000D01*
X62410000Y-86440000D02*
X67490000Y-86440000D01*
X62410000Y-94060000D02*
X62410000Y-86440000D01*
X67490000Y-94060000D02*
X62410000Y-94060000D01*
D13*
X67490000Y-86440000D02*
X67490000Y-94060000D01*
X67490000Y-94060000D02*
X62410000Y-94060000D01*
X62410000Y-86440000D02*
X62410000Y-94060000D01*
X67490000Y-86440000D02*
X62410000Y-86440000D01*
D12*
G04 #@! TO.C,C2*
X61443700Y-113874852D02*
X61443700Y-113352348D01*
X60023700Y-113874852D02*
X60023700Y-113352348D01*
G04 #@! TO.C,C4*
X74163748Y-107360000D02*
X74686252Y-107360000D01*
X74163748Y-105940000D02*
X74686252Y-105940000D01*
G04 #@! TO.C,J1*
X57130000Y-93835000D02*
X39170000Y-93835000D01*
X57130000Y-109355000D02*
X57130000Y-93835000D01*
X57130000Y-109355000D02*
X39170000Y-109355000D01*
X39170000Y-93835000D02*
X39170000Y-109355000D01*
X53250000Y-93650000D02*
X53750000Y-93150000D01*
X53750000Y-93150000D02*
X52750000Y-93150000D01*
X52750000Y-93150000D02*
X53250000Y-93650000D01*
G04 #@! TO.C,U3*
X64233700Y-110328600D02*
X70243700Y-110328600D01*
X66483700Y-117148600D02*
X70243700Y-117148600D01*
X70243700Y-110328600D02*
X70243700Y-111588600D01*
X70243700Y-117148600D02*
X70243700Y-115888600D01*
D13*
G04 #@! TO.C,Pol1*
X89910000Y-117820000D02*
X89910000Y-115280000D01*
X89910000Y-115280000D02*
X82290000Y-115280000D01*
X82290000Y-117820000D02*
X82290000Y-115280000D01*
X89910000Y-117820000D02*
X82290000Y-117820000D01*
D14*
X82290000Y-117820000D02*
X82290000Y-115280000D01*
X82290000Y-115280000D02*
X89910000Y-115280000D01*
X89910000Y-115280000D02*
X89910000Y-117820000D01*
X89910000Y-117820000D02*
X82290000Y-117820000D01*
D15*
X82290000Y-117820000D02*
X82290000Y-115280000D01*
X82290000Y-115280000D02*
X89910000Y-115280000D01*
X89910000Y-115280000D02*
X89910000Y-117820000D01*
X89910000Y-117820000D02*
X82290000Y-117820000D01*
G04 #@! TO.C,CHAN1*
X67340000Y-98140000D02*
X67340000Y-105760000D01*
X62260000Y-98140000D02*
X67340000Y-98140000D01*
X62260000Y-105760000D02*
X62260000Y-98140000D01*
X67340000Y-105760000D02*
X62260000Y-105760000D01*
D14*
X67340000Y-98140000D02*
X67340000Y-105760000D01*
X62260000Y-98140000D02*
X67340000Y-98140000D01*
X62260000Y-105760000D02*
X62260000Y-98140000D01*
X67340000Y-105760000D02*
X62260000Y-105760000D01*
D13*
X67340000Y-98140000D02*
X67340000Y-105760000D01*
X67340000Y-105760000D02*
X62260000Y-105760000D01*
X62260000Y-98140000D02*
X62260000Y-105760000D01*
X67340000Y-98140000D02*
X62260000Y-98140000D01*
D12*
G04 #@! TO.C,U2*
X83215000Y-61205000D02*
X84865000Y-61205000D01*
X83215000Y-50925000D02*
X83215000Y-61205000D01*
X88515000Y-50925000D02*
X83215000Y-50925000D01*
X88515000Y-61205000D02*
X88515000Y-50925000D01*
X86865000Y-61205000D02*
X88515000Y-61205000D01*
X84865000Y-61205000D02*
G75*
G02X86865000Y-61205000I1000000J0D01*
G01*
D15*
G04 #@! TO.C,J2*
X67338700Y-71503600D02*
X67338700Y-66423600D01*
X69878700Y-66423600D02*
X69878700Y-71503600D01*
X67338700Y-66423600D02*
X69878700Y-66423600D01*
D14*
X67338700Y-71503600D02*
X67338700Y-66423600D01*
X69878700Y-71503600D02*
X67338700Y-71503600D01*
X69878700Y-66423600D02*
X69878700Y-71503600D01*
X67338700Y-66423600D02*
X69878700Y-66423600D01*
D13*
X67338700Y-71503600D02*
X67338700Y-66423600D01*
X67338700Y-66423600D02*
X69878700Y-66423600D01*
X69878700Y-71503600D02*
X69878700Y-66423600D01*
X67338700Y-71503600D02*
X69878700Y-71503600D01*
D15*
G04 #@! TO.C,J10*
X100445000Y-53760000D02*
X100445000Y-58840000D01*
X97905000Y-58840000D02*
X97905000Y-53760000D01*
X100445000Y-58840000D02*
X97905000Y-58840000D01*
D14*
X100445000Y-53760000D02*
X100445000Y-58840000D01*
X97905000Y-53760000D02*
X100445000Y-53760000D01*
X97905000Y-58840000D02*
X97905000Y-53760000D01*
X100445000Y-58840000D02*
X97905000Y-58840000D01*
D13*
X100445000Y-53760000D02*
X100445000Y-58840000D01*
X100445000Y-58840000D02*
X97905000Y-58840000D01*
X97905000Y-53760000D02*
X97905000Y-58840000D01*
X100445000Y-53760000D02*
X97905000Y-53760000D01*
D16*
G04 #@! TO.C,JP1*
X44302100Y-66100520D02*
X48101940Y-66100520D01*
X44302100Y-78099480D02*
X48101940Y-78099480D01*
X52300560Y-78099480D02*
X56199460Y-78099480D01*
X56199460Y-78099480D02*
X56199460Y-66100520D01*
X56199460Y-66100520D02*
X52300560Y-66100520D01*
D12*
G04 #@! TO.C,R3*
X94095000Y-62575000D02*
X94095000Y-61375000D01*
X95855000Y-61375000D02*
X95855000Y-62575000D01*
G04 #@! TO.C,R4*
X95755000Y-49825000D02*
X95755000Y-51025000D01*
X93995000Y-51025000D02*
X93995000Y-49825000D01*
G04 #@! TO.C,R6*
X95830000Y-55300000D02*
X95830000Y-56500000D01*
X94070000Y-56500000D02*
X94070000Y-55300000D01*
G04 #@! TO.C,R10*
X81925000Y-75195000D02*
X83125000Y-75195000D01*
X83125000Y-76955000D02*
X81925000Y-76955000D01*
G04 #@! TO.C,R11*
X81600000Y-49880000D02*
X80400000Y-49880000D01*
X80400000Y-48120000D02*
X81600000Y-48120000D01*
D13*
G04 #@! TO.C,CHAN1*
X67340000Y-52140000D02*
X62260000Y-52140000D01*
X62260000Y-52140000D02*
X62260000Y-59760000D01*
X67340000Y-59760000D02*
X62260000Y-59760000D01*
X67340000Y-52140000D02*
X67340000Y-59760000D01*
D14*
X67340000Y-59760000D02*
X62260000Y-59760000D01*
X62260000Y-59760000D02*
X62260000Y-52140000D01*
X62260000Y-52140000D02*
X67340000Y-52140000D01*
X67340000Y-52140000D02*
X67340000Y-59760000D01*
D15*
X67340000Y-59760000D02*
X62260000Y-59760000D01*
X62260000Y-59760000D02*
X62260000Y-52140000D01*
X62260000Y-52140000D02*
X67340000Y-52140000D01*
X67340000Y-52140000D02*
X67340000Y-59760000D01*
D12*
G04 #@! TO.C,J1*
X52750000Y-47150000D02*
X53250000Y-47650000D01*
X53750000Y-47150000D02*
X52750000Y-47150000D01*
X53250000Y-47650000D02*
X53750000Y-47150000D01*
X39170000Y-47835000D02*
X39170000Y-63355000D01*
X57130000Y-63355000D02*
X39170000Y-63355000D01*
X57130000Y-63355000D02*
X57130000Y-47835000D01*
X57130000Y-47835000D02*
X39170000Y-47835000D01*
D15*
G04 #@! TO.C,Pol1*
X89910000Y-71820000D02*
X82290000Y-71820000D01*
X89910000Y-69280000D02*
X89910000Y-71820000D01*
X82290000Y-69280000D02*
X89910000Y-69280000D01*
X82290000Y-71820000D02*
X82290000Y-69280000D01*
D14*
X89910000Y-71820000D02*
X82290000Y-71820000D01*
X89910000Y-69280000D02*
X89910000Y-71820000D01*
X82290000Y-69280000D02*
X89910000Y-69280000D01*
X82290000Y-71820000D02*
X82290000Y-69280000D01*
D13*
X89910000Y-71820000D02*
X82290000Y-71820000D01*
X82290000Y-71820000D02*
X82290000Y-69280000D01*
X89910000Y-69280000D02*
X82290000Y-69280000D01*
X89910000Y-71820000D02*
X89910000Y-69280000D01*
D12*
G04 #@! TO.C,Q1*
X95085000Y-70055000D02*
X95085000Y-69125000D01*
X95085000Y-66895000D02*
X95085000Y-67825000D01*
X95085000Y-66895000D02*
X92925000Y-66895000D01*
X95085000Y-70055000D02*
X93625000Y-70055000D01*
D17*
G04 #@! TO.C,U1*
X76625000Y-57975000D02*
X76625000Y-57925000D01*
X72475000Y-57975000D02*
X72475000Y-57830000D01*
X72475000Y-52825000D02*
X72475000Y-52970000D01*
X76625000Y-52825000D02*
X76625000Y-52970000D01*
X76625000Y-57975000D02*
X72475000Y-57975000D01*
X76625000Y-52825000D02*
X72475000Y-52825000D01*
X76625000Y-57925000D02*
X78025000Y-57925000D01*
D12*
G04 #@! TO.C,U3*
X70243700Y-71148600D02*
X70243700Y-69888600D01*
X70243700Y-64328600D02*
X70243700Y-65588600D01*
X66483700Y-71148600D02*
X70243700Y-71148600D01*
X64233700Y-64328600D02*
X70243700Y-64328600D01*
G04 #@! TO.C,C3*
X75462200Y-68471148D02*
X75462200Y-68993652D01*
X74042200Y-68471148D02*
X74042200Y-68993652D01*
G04 #@! TO.C,C4*
X74163748Y-59940000D02*
X74686252Y-59940000D01*
X74163748Y-61360000D02*
X74686252Y-61360000D01*
G04 #@! TO.C,C1*
X60069952Y-70353600D02*
X59547448Y-70353600D01*
X60069952Y-71773600D02*
X59547448Y-71773600D01*
G04 #@! TO.C,C2*
X60023700Y-67874852D02*
X60023700Y-67352348D01*
X61443700Y-67874852D02*
X61443700Y-67352348D01*
G04 #@! TO.C,C5*
X72738748Y-47790000D02*
X73261252Y-47790000D01*
X72738748Y-49210000D02*
X73261252Y-49210000D01*
D13*
G04 #@! TO.C,CHAN2*
X67490000Y-40440000D02*
X62410000Y-40440000D01*
X62410000Y-40440000D02*
X62410000Y-48060000D01*
X67490000Y-48060000D02*
X62410000Y-48060000D01*
X67490000Y-40440000D02*
X67490000Y-48060000D01*
D14*
X67490000Y-48060000D02*
X62410000Y-48060000D01*
X62410000Y-48060000D02*
X62410000Y-40440000D01*
X62410000Y-40440000D02*
X67490000Y-40440000D01*
X67490000Y-40440000D02*
X67490000Y-48060000D01*
D15*
X67490000Y-48060000D02*
X62410000Y-48060000D01*
X62410000Y-48060000D02*
X62410000Y-40440000D01*
X62410000Y-40440000D02*
X67490000Y-40440000D01*
X67490000Y-40440000D02*
X67490000Y-48060000D01*
D17*
G04 #@! TO.C,MIDI_IN1*
X118800000Y-36300000D02*
X101300000Y-36300000D01*
X101300000Y-36300000D02*
X101300000Y-54300000D01*
X101300000Y-54300000D02*
X118800000Y-54300000D01*
X118800000Y-54300000D02*
X118800000Y-36300000D01*
G04 #@! TO.C,MIDI_OUT1*
X118800000Y-81800000D02*
X118800000Y-63800000D01*
X101300000Y-81800000D02*
X118800000Y-81800000D01*
X101300000Y-63800000D02*
X101300000Y-81800000D01*
X118800000Y-63800000D02*
X101300000Y-63800000D01*
G04 #@! TO.C,U4*
X76575000Y-46575000D02*
X76575000Y-46525000D01*
X72425000Y-46575000D02*
X72425000Y-46430000D01*
X72425000Y-41425000D02*
X72425000Y-41570000D01*
X76575000Y-41425000D02*
X76575000Y-41570000D01*
X76575000Y-46575000D02*
X72425000Y-46575000D01*
X76575000Y-41425000D02*
X72425000Y-41425000D01*
X76575000Y-46525000D02*
X77975000Y-46525000D01*
G04 #@! TO.C,R3*
X93552380Y-107991666D02*
X93076190Y-108325000D01*
X93552380Y-108563095D02*
X92552380Y-108563095D01*
X92552380Y-108182142D01*
X92600000Y-108086904D01*
X92647619Y-108039285D01*
X92742857Y-107991666D01*
X92885714Y-107991666D01*
X92980952Y-108039285D01*
X93028571Y-108086904D01*
X93076190Y-108182142D01*
X93076190Y-108563095D01*
X92552380Y-107658333D02*
X92552380Y-107039285D01*
X92933333Y-107372619D01*
X92933333Y-107229761D01*
X92980952Y-107134523D01*
X93028571Y-107086904D01*
X93123809Y-107039285D01*
X93361904Y-107039285D01*
X93457142Y-107086904D01*
X93504761Y-107134523D01*
X93552380Y-107229761D01*
X93552380Y-107515476D01*
X93504761Y-107610714D01*
X93457142Y-107658333D01*
G04 #@! TO.C,U2*
X88938095Y-107827380D02*
X88938095Y-108636904D01*
X88985714Y-108732142D01*
X89033333Y-108779761D01*
X89128571Y-108827380D01*
X89319047Y-108827380D01*
X89414285Y-108779761D01*
X89461904Y-108732142D01*
X89509523Y-108636904D01*
X89509523Y-107827380D01*
X89938095Y-107922619D02*
X89985714Y-107875000D01*
X90080952Y-107827380D01*
X90319047Y-107827380D01*
X90414285Y-107875000D01*
X90461904Y-107922619D01*
X90509523Y-108017857D01*
X90509523Y-108113095D01*
X90461904Y-108255952D01*
X89890476Y-108827380D01*
X90509523Y-108827380D01*
G04 #@! TO.C,MIDI_OUT1*
X100152380Y-123195238D02*
X99152380Y-123195238D01*
X99866666Y-122861904D01*
X99152380Y-122528571D01*
X100152380Y-122528571D01*
X100152380Y-122052380D02*
X99152380Y-122052380D01*
X100152380Y-121576190D02*
X99152380Y-121576190D01*
X99152380Y-121338095D01*
X99200000Y-121195238D01*
X99295238Y-121100000D01*
X99390476Y-121052380D01*
X99580952Y-121004761D01*
X99723809Y-121004761D01*
X99914285Y-121052380D01*
X100009523Y-121100000D01*
X100104761Y-121195238D01*
X100152380Y-121338095D01*
X100152380Y-121576190D01*
X100152380Y-120576190D02*
X99152380Y-120576190D01*
X100247619Y-120338095D02*
X100247619Y-119576190D01*
X99152380Y-119147619D02*
X99152380Y-118957142D01*
X99200000Y-118861904D01*
X99295238Y-118766666D01*
X99485714Y-118719047D01*
X99819047Y-118719047D01*
X100009523Y-118766666D01*
X100104761Y-118861904D01*
X100152380Y-118957142D01*
X100152380Y-119147619D01*
X100104761Y-119242857D01*
X100009523Y-119338095D01*
X99819047Y-119385714D01*
X99485714Y-119385714D01*
X99295238Y-119338095D01*
X99200000Y-119242857D01*
X99152380Y-119147619D01*
X99152380Y-118290476D02*
X99961904Y-118290476D01*
X100057142Y-118242857D01*
X100104761Y-118195238D01*
X100152380Y-118100000D01*
X100152380Y-117909523D01*
X100104761Y-117814285D01*
X100057142Y-117766666D01*
X99961904Y-117719047D01*
X99152380Y-117719047D01*
X99152380Y-117385714D02*
X99152380Y-116814285D01*
X100152380Y-117100000D02*
X99152380Y-117100000D01*
X100152380Y-115957142D02*
X100152380Y-116528571D01*
X100152380Y-116242857D02*
X99152380Y-116242857D01*
X99295238Y-116338095D01*
X99390476Y-116433333D01*
X99438095Y-116528571D01*
G04 #@! TO.C,U4*
X78738095Y-90952380D02*
X78738095Y-91761904D01*
X78785714Y-91857142D01*
X78833333Y-91904761D01*
X78928571Y-91952380D01*
X79119047Y-91952380D01*
X79214285Y-91904761D01*
X79261904Y-91857142D01*
X79309523Y-91761904D01*
X79309523Y-90952380D01*
X80214285Y-91285714D02*
X80214285Y-91952380D01*
X79976190Y-90904761D02*
X79738095Y-91619047D01*
X80357142Y-91619047D01*
G04 #@! TO.C,MIDI_IN1*
X99902380Y-94178571D02*
X98902380Y-94178571D01*
X99616666Y-93845238D01*
X98902380Y-93511904D01*
X99902380Y-93511904D01*
X99902380Y-93035714D02*
X98902380Y-93035714D01*
X99902380Y-92559523D02*
X98902380Y-92559523D01*
X98902380Y-92321428D01*
X98950000Y-92178571D01*
X99045238Y-92083333D01*
X99140476Y-92035714D01*
X99330952Y-91988095D01*
X99473809Y-91988095D01*
X99664285Y-92035714D01*
X99759523Y-92083333D01*
X99854761Y-92178571D01*
X99902380Y-92321428D01*
X99902380Y-92559523D01*
X99902380Y-91559523D02*
X98902380Y-91559523D01*
X99997619Y-91321428D02*
X99997619Y-90559523D01*
X99902380Y-90321428D02*
X98902380Y-90321428D01*
X99902380Y-89845238D02*
X98902380Y-89845238D01*
X99902380Y-89273809D01*
X98902380Y-89273809D01*
X99902380Y-88273809D02*
X99902380Y-88845238D01*
X99902380Y-88559523D02*
X98902380Y-88559523D01*
X99045238Y-88654761D01*
X99140476Y-88750000D01*
X99188095Y-88845238D01*
G04 #@! TO.C,R10*
X81757142Y-124352380D02*
X81423809Y-123876190D01*
X81185714Y-124352380D02*
X81185714Y-123352380D01*
X81566666Y-123352380D01*
X81661904Y-123400000D01*
X81709523Y-123447619D01*
X81757142Y-123542857D01*
X81757142Y-123685714D01*
X81709523Y-123780952D01*
X81661904Y-123828571D01*
X81566666Y-123876190D01*
X81185714Y-123876190D01*
X82709523Y-124352380D02*
X82138095Y-124352380D01*
X82423809Y-124352380D02*
X82423809Y-123352380D01*
X82328571Y-123495238D01*
X82233333Y-123590476D01*
X82138095Y-123638095D01*
X83328571Y-123352380D02*
X83423809Y-123352380D01*
X83519047Y-123400000D01*
X83566666Y-123447619D01*
X83614285Y-123542857D01*
X83661904Y-123733333D01*
X83661904Y-123971428D01*
X83614285Y-124161904D01*
X83566666Y-124257142D01*
X83519047Y-124304761D01*
X83423809Y-124352380D01*
X83328571Y-124352380D01*
X83233333Y-124304761D01*
X83185714Y-124257142D01*
X83138095Y-124161904D01*
X83090476Y-123971428D01*
X83090476Y-123733333D01*
X83138095Y-123542857D01*
X83185714Y-123447619D01*
X83233333Y-123400000D01*
X83328571Y-123352380D01*
G04 #@! TO.C,C3*
X76759342Y-114899066D02*
X76806961Y-114946685D01*
X76854580Y-115089542D01*
X76854580Y-115184780D01*
X76806961Y-115327638D01*
X76711723Y-115422876D01*
X76616485Y-115470495D01*
X76426009Y-115518114D01*
X76283152Y-115518114D01*
X76092676Y-115470495D01*
X75997438Y-115422876D01*
X75902200Y-115327638D01*
X75854580Y-115184780D01*
X75854580Y-115089542D01*
X75902200Y-114946685D01*
X75949819Y-114899066D01*
X75854580Y-114565733D02*
X75854580Y-113946685D01*
X76235533Y-114280019D01*
X76235533Y-114137161D01*
X76283152Y-114041923D01*
X76330771Y-113994304D01*
X76426009Y-113946685D01*
X76664104Y-113946685D01*
X76759342Y-113994304D01*
X76806961Y-114041923D01*
X76854580Y-114137161D01*
X76854580Y-114422876D01*
X76806961Y-114518114D01*
X76759342Y-114565733D01*
G04 #@! TO.C,U1*
X76738095Y-104352380D02*
X76738095Y-105161904D01*
X76785714Y-105257142D01*
X76833333Y-105304761D01*
X76928571Y-105352380D01*
X77119047Y-105352380D01*
X77214285Y-105304761D01*
X77261904Y-105257142D01*
X77309523Y-105161904D01*
X77309523Y-104352380D01*
X78309523Y-105352380D02*
X77738095Y-105352380D01*
X78023809Y-105352380D02*
X78023809Y-104352380D01*
X77928571Y-104495238D01*
X77833333Y-104590476D01*
X77738095Y-104638095D01*
G04 #@! TO.C,C5*
X76333333Y-94857142D02*
X76285714Y-94904761D01*
X76142857Y-94952380D01*
X76047619Y-94952380D01*
X75904761Y-94904761D01*
X75809523Y-94809523D01*
X75761904Y-94714285D01*
X75714285Y-94523809D01*
X75714285Y-94380952D01*
X75761904Y-94190476D01*
X75809523Y-94095238D01*
X75904761Y-94000000D01*
X76047619Y-93952380D01*
X76142857Y-93952380D01*
X76285714Y-94000000D01*
X76333333Y-94047619D01*
X77238095Y-93952380D02*
X76761904Y-93952380D01*
X76714285Y-94428571D01*
X76761904Y-94380952D01*
X76857142Y-94333333D01*
X77095238Y-94333333D01*
X77190476Y-94380952D01*
X77238095Y-94428571D01*
X77285714Y-94523809D01*
X77285714Y-94761904D01*
X77238095Y-94857142D01*
X77190476Y-94904761D01*
X77095238Y-94952380D01*
X76857142Y-94952380D01*
X76761904Y-94904761D01*
X76714285Y-94857142D01*
G04 #@! TO.C,5V1*
X86795057Y-124028700D02*
X86795057Y-124600128D01*
X87366485Y-124657271D01*
X87309342Y-124600128D01*
X87252200Y-124485842D01*
X87252200Y-124200128D01*
X87309342Y-124085842D01*
X87366485Y-124028700D01*
X87480771Y-123971557D01*
X87766485Y-123971557D01*
X87880771Y-124028700D01*
X87937914Y-124085842D01*
X87995057Y-124200128D01*
X87995057Y-124485842D01*
X87937914Y-124600128D01*
X87880771Y-124657271D01*
X86795057Y-123628700D02*
X87995057Y-123228700D01*
X86795057Y-122828700D01*
X87995057Y-121800128D02*
X87995057Y-122485842D01*
X87995057Y-122142985D02*
X86795057Y-122142985D01*
X86966485Y-122257271D01*
X87080771Y-122371557D01*
X87137914Y-122485842D01*
G04 #@! TO.C,R11*
X84382142Y-95277380D02*
X84048809Y-94801190D01*
X83810714Y-95277380D02*
X83810714Y-94277380D01*
X84191666Y-94277380D01*
X84286904Y-94325000D01*
X84334523Y-94372619D01*
X84382142Y-94467857D01*
X84382142Y-94610714D01*
X84334523Y-94705952D01*
X84286904Y-94753571D01*
X84191666Y-94801190D01*
X83810714Y-94801190D01*
X85334523Y-95277380D02*
X84763095Y-95277380D01*
X85048809Y-95277380D02*
X85048809Y-94277380D01*
X84953571Y-94420238D01*
X84858333Y-94515476D01*
X84763095Y-94563095D01*
X86286904Y-95277380D02*
X85715476Y-95277380D01*
X86001190Y-95277380D02*
X86001190Y-94277380D01*
X85905952Y-94420238D01*
X85810714Y-94515476D01*
X85715476Y-94563095D01*
G04 #@! TO.C,C1*
X59642033Y-119070742D02*
X59594414Y-119118361D01*
X59451557Y-119165980D01*
X59356319Y-119165980D01*
X59213461Y-119118361D01*
X59118223Y-119023123D01*
X59070604Y-118927885D01*
X59022985Y-118737409D01*
X59022985Y-118594552D01*
X59070604Y-118404076D01*
X59118223Y-118308838D01*
X59213461Y-118213600D01*
X59356319Y-118165980D01*
X59451557Y-118165980D01*
X59594414Y-118213600D01*
X59642033Y-118261219D01*
X60594414Y-119165980D02*
X60022985Y-119165980D01*
X60308700Y-119165980D02*
X60308700Y-118165980D01*
X60213461Y-118308838D01*
X60118223Y-118404076D01*
X60022985Y-118451695D01*
G04 #@! TO.C,Q1*
X94229761Y-112522619D02*
X94134523Y-112475000D01*
X94039285Y-112379761D01*
X93896428Y-112236904D01*
X93801190Y-112189285D01*
X93705952Y-112189285D01*
X93753571Y-112427380D02*
X93658333Y-112379761D01*
X93563095Y-112284523D01*
X93515476Y-112094047D01*
X93515476Y-111760714D01*
X93563095Y-111570238D01*
X93658333Y-111475000D01*
X93753571Y-111427380D01*
X93944047Y-111427380D01*
X94039285Y-111475000D01*
X94134523Y-111570238D01*
X94182142Y-111760714D01*
X94182142Y-112094047D01*
X94134523Y-112284523D01*
X94039285Y-112379761D01*
X93944047Y-112427380D01*
X93753571Y-112427380D01*
X95134523Y-112427380D02*
X94563095Y-112427380D01*
X94848809Y-112427380D02*
X94848809Y-111427380D01*
X94753571Y-111570238D01*
X94658333Y-111665476D01*
X94563095Y-111713095D01*
G04 #@! TO.C,R6*
X93702380Y-102066666D02*
X93226190Y-102400000D01*
X93702380Y-102638095D02*
X92702380Y-102638095D01*
X92702380Y-102257142D01*
X92750000Y-102161904D01*
X92797619Y-102114285D01*
X92892857Y-102066666D01*
X93035714Y-102066666D01*
X93130952Y-102114285D01*
X93178571Y-102161904D01*
X93226190Y-102257142D01*
X93226190Y-102638095D01*
X92702380Y-101209523D02*
X92702380Y-101400000D01*
X92750000Y-101495238D01*
X92797619Y-101542857D01*
X92940476Y-101638095D01*
X93130952Y-101685714D01*
X93511904Y-101685714D01*
X93607142Y-101638095D01*
X93654761Y-101590476D01*
X93702380Y-101495238D01*
X93702380Y-101304761D01*
X93654761Y-101209523D01*
X93607142Y-101161904D01*
X93511904Y-101114285D01*
X93273809Y-101114285D01*
X93178571Y-101161904D01*
X93130952Y-101209523D01*
X93083333Y-101304761D01*
X93083333Y-101495238D01*
X93130952Y-101590476D01*
X93178571Y-101638095D01*
X93273809Y-101685714D01*
G04 #@! TO.C,R4*
X93627380Y-96591666D02*
X93151190Y-96925000D01*
X93627380Y-97163095D02*
X92627380Y-97163095D01*
X92627380Y-96782142D01*
X92675000Y-96686904D01*
X92722619Y-96639285D01*
X92817857Y-96591666D01*
X92960714Y-96591666D01*
X93055952Y-96639285D01*
X93103571Y-96686904D01*
X93151190Y-96782142D01*
X93151190Y-97163095D01*
X92960714Y-95734523D02*
X93627380Y-95734523D01*
X92579761Y-95972619D02*
X93294047Y-96210714D01*
X93294047Y-95591666D01*
G04 #@! TO.C,C2*
X60517033Y-111170742D02*
X60469414Y-111218361D01*
X60326557Y-111265980D01*
X60231319Y-111265980D01*
X60088461Y-111218361D01*
X59993223Y-111123123D01*
X59945604Y-111027885D01*
X59897985Y-110837409D01*
X59897985Y-110694552D01*
X59945604Y-110504076D01*
X59993223Y-110408838D01*
X60088461Y-110313600D01*
X60231319Y-110265980D01*
X60326557Y-110265980D01*
X60469414Y-110313600D01*
X60517033Y-110361219D01*
X60897985Y-110361219D02*
X60945604Y-110313600D01*
X61040842Y-110265980D01*
X61278938Y-110265980D01*
X61374176Y-110313600D01*
X61421795Y-110361219D01*
X61469414Y-110456457D01*
X61469414Y-110551695D01*
X61421795Y-110694552D01*
X60850366Y-111265980D01*
X61469414Y-111265980D01*
G04 #@! TO.C,GND1*
X96021600Y-124752514D02*
X95964457Y-124866800D01*
X95964457Y-125038228D01*
X96021600Y-125209657D01*
X96135885Y-125323942D01*
X96250171Y-125381085D01*
X96478742Y-125438228D01*
X96650171Y-125438228D01*
X96878742Y-125381085D01*
X96993028Y-125323942D01*
X97107314Y-125209657D01*
X97164457Y-125038228D01*
X97164457Y-124923942D01*
X97107314Y-124752514D01*
X97050171Y-124695371D01*
X96650171Y-124695371D01*
X96650171Y-124923942D01*
X97164457Y-124181085D02*
X95964457Y-124181085D01*
X97164457Y-123495371D01*
X95964457Y-123495371D01*
X97164457Y-122923942D02*
X95964457Y-122923942D01*
X95964457Y-122638228D01*
X96021600Y-122466800D01*
X96135885Y-122352514D01*
X96250171Y-122295371D01*
X96478742Y-122238228D01*
X96650171Y-122238228D01*
X96878742Y-122295371D01*
X96993028Y-122352514D01*
X97107314Y-122466800D01*
X97164457Y-122638228D01*
X97164457Y-122923942D01*
X97164457Y-121095371D02*
X97164457Y-121781085D01*
X97164457Y-121438228D02*
X95964457Y-121438228D01*
X96135885Y-121552514D01*
X96250171Y-121666800D01*
X96307314Y-121781085D01*
G04 #@! TO.C,C4*
X77233333Y-106982142D02*
X77185714Y-107029761D01*
X77042857Y-107077380D01*
X76947619Y-107077380D01*
X76804761Y-107029761D01*
X76709523Y-106934523D01*
X76661904Y-106839285D01*
X76614285Y-106648809D01*
X76614285Y-106505952D01*
X76661904Y-106315476D01*
X76709523Y-106220238D01*
X76804761Y-106125000D01*
X76947619Y-106077380D01*
X77042857Y-106077380D01*
X77185714Y-106125000D01*
X77233333Y-106172619D01*
X78090476Y-106410714D02*
X78090476Y-107077380D01*
X77852380Y-106029761D02*
X77614285Y-106744047D01*
X78233333Y-106744047D01*
G04 #@! TO.C,J1*
X55191066Y-92226480D02*
X55191066Y-92940766D01*
X55143447Y-93083623D01*
X55048209Y-93178861D01*
X54905352Y-93226480D01*
X54810114Y-93226480D01*
X56191066Y-93226480D02*
X55619638Y-93226480D01*
X55905352Y-93226480D02*
X55905352Y-92226480D01*
X55810114Y-92369338D01*
X55714876Y-92464576D01*
X55619638Y-92512195D01*
G04 #@! TO.C,U3*
X64421795Y-108240980D02*
X64421795Y-109050504D01*
X64469414Y-109145742D01*
X64517033Y-109193361D01*
X64612271Y-109240980D01*
X64802747Y-109240980D01*
X64897985Y-109193361D01*
X64945604Y-109145742D01*
X64993223Y-109050504D01*
X64993223Y-108240980D01*
X65374176Y-108240980D02*
X65993223Y-108240980D01*
X65659890Y-108621933D01*
X65802747Y-108621933D01*
X65897985Y-108669552D01*
X65945604Y-108717171D01*
X65993223Y-108812409D01*
X65993223Y-109050504D01*
X65945604Y-109145742D01*
X65897985Y-109193361D01*
X65802747Y-109240980D01*
X65517033Y-109240980D01*
X65421795Y-109193361D01*
X65374176Y-109145742D01*
G04 #@! TO.C,U2*
X88938095Y-61827380D02*
X88938095Y-62636904D01*
X88985714Y-62732142D01*
X89033333Y-62779761D01*
X89128571Y-62827380D01*
X89319047Y-62827380D01*
X89414285Y-62779761D01*
X89461904Y-62732142D01*
X89509523Y-62636904D01*
X89509523Y-61827380D01*
X89938095Y-61922619D02*
X89985714Y-61875000D01*
X90080952Y-61827380D01*
X90319047Y-61827380D01*
X90414285Y-61875000D01*
X90461904Y-61922619D01*
X90509523Y-62017857D01*
X90509523Y-62113095D01*
X90461904Y-62255952D01*
X89890476Y-62827380D01*
X90509523Y-62827380D01*
G04 #@! TO.C,R3*
X93552380Y-61991666D02*
X93076190Y-62325000D01*
X93552380Y-62563095D02*
X92552380Y-62563095D01*
X92552380Y-62182142D01*
X92600000Y-62086904D01*
X92647619Y-62039285D01*
X92742857Y-61991666D01*
X92885714Y-61991666D01*
X92980952Y-62039285D01*
X93028571Y-62086904D01*
X93076190Y-62182142D01*
X93076190Y-62563095D01*
X92552380Y-61658333D02*
X92552380Y-61039285D01*
X92933333Y-61372619D01*
X92933333Y-61229761D01*
X92980952Y-61134523D01*
X93028571Y-61086904D01*
X93123809Y-61039285D01*
X93361904Y-61039285D01*
X93457142Y-61086904D01*
X93504761Y-61134523D01*
X93552380Y-61229761D01*
X93552380Y-61515476D01*
X93504761Y-61610714D01*
X93457142Y-61658333D01*
G04 #@! TO.C,R4*
X93627380Y-50591666D02*
X93151190Y-50925000D01*
X93627380Y-51163095D02*
X92627380Y-51163095D01*
X92627380Y-50782142D01*
X92675000Y-50686904D01*
X92722619Y-50639285D01*
X92817857Y-50591666D01*
X92960714Y-50591666D01*
X93055952Y-50639285D01*
X93103571Y-50686904D01*
X93151190Y-50782142D01*
X93151190Y-51163095D01*
X92960714Y-49734523D02*
X93627380Y-49734523D01*
X92579761Y-49972619D02*
X93294047Y-50210714D01*
X93294047Y-49591666D01*
G04 #@! TO.C,R6*
X93702380Y-56066666D02*
X93226190Y-56400000D01*
X93702380Y-56638095D02*
X92702380Y-56638095D01*
X92702380Y-56257142D01*
X92750000Y-56161904D01*
X92797619Y-56114285D01*
X92892857Y-56066666D01*
X93035714Y-56066666D01*
X93130952Y-56114285D01*
X93178571Y-56161904D01*
X93226190Y-56257142D01*
X93226190Y-56638095D01*
X92702380Y-55209523D02*
X92702380Y-55400000D01*
X92750000Y-55495238D01*
X92797619Y-55542857D01*
X92940476Y-55638095D01*
X93130952Y-55685714D01*
X93511904Y-55685714D01*
X93607142Y-55638095D01*
X93654761Y-55590476D01*
X93702380Y-55495238D01*
X93702380Y-55304761D01*
X93654761Y-55209523D01*
X93607142Y-55161904D01*
X93511904Y-55114285D01*
X93273809Y-55114285D01*
X93178571Y-55161904D01*
X93130952Y-55209523D01*
X93083333Y-55304761D01*
X93083333Y-55495238D01*
X93130952Y-55590476D01*
X93178571Y-55638095D01*
X93273809Y-55685714D01*
G04 #@! TO.C,R10*
X81757142Y-78352380D02*
X81423809Y-77876190D01*
X81185714Y-78352380D02*
X81185714Y-77352380D01*
X81566666Y-77352380D01*
X81661904Y-77400000D01*
X81709523Y-77447619D01*
X81757142Y-77542857D01*
X81757142Y-77685714D01*
X81709523Y-77780952D01*
X81661904Y-77828571D01*
X81566666Y-77876190D01*
X81185714Y-77876190D01*
X82709523Y-78352380D02*
X82138095Y-78352380D01*
X82423809Y-78352380D02*
X82423809Y-77352380D01*
X82328571Y-77495238D01*
X82233333Y-77590476D01*
X82138095Y-77638095D01*
X83328571Y-77352380D02*
X83423809Y-77352380D01*
X83519047Y-77400000D01*
X83566666Y-77447619D01*
X83614285Y-77542857D01*
X83661904Y-77733333D01*
X83661904Y-77971428D01*
X83614285Y-78161904D01*
X83566666Y-78257142D01*
X83519047Y-78304761D01*
X83423809Y-78352380D01*
X83328571Y-78352380D01*
X83233333Y-78304761D01*
X83185714Y-78257142D01*
X83138095Y-78161904D01*
X83090476Y-77971428D01*
X83090476Y-77733333D01*
X83138095Y-77542857D01*
X83185714Y-77447619D01*
X83233333Y-77400000D01*
X83328571Y-77352380D01*
G04 #@! TO.C,R11*
X84382142Y-49277380D02*
X84048809Y-48801190D01*
X83810714Y-49277380D02*
X83810714Y-48277380D01*
X84191666Y-48277380D01*
X84286904Y-48325000D01*
X84334523Y-48372619D01*
X84382142Y-48467857D01*
X84382142Y-48610714D01*
X84334523Y-48705952D01*
X84286904Y-48753571D01*
X84191666Y-48801190D01*
X83810714Y-48801190D01*
X85334523Y-49277380D02*
X84763095Y-49277380D01*
X85048809Y-49277380D02*
X85048809Y-48277380D01*
X84953571Y-48420238D01*
X84858333Y-48515476D01*
X84763095Y-48563095D01*
X86286904Y-49277380D02*
X85715476Y-49277380D01*
X86001190Y-49277380D02*
X86001190Y-48277380D01*
X85905952Y-48420238D01*
X85810714Y-48515476D01*
X85715476Y-48563095D01*
G04 #@! TO.C,5V1*
X86795057Y-78028700D02*
X86795057Y-78600128D01*
X87366485Y-78657271D01*
X87309342Y-78600128D01*
X87252200Y-78485842D01*
X87252200Y-78200128D01*
X87309342Y-78085842D01*
X87366485Y-78028700D01*
X87480771Y-77971557D01*
X87766485Y-77971557D01*
X87880771Y-78028700D01*
X87937914Y-78085842D01*
X87995057Y-78200128D01*
X87995057Y-78485842D01*
X87937914Y-78600128D01*
X87880771Y-78657271D01*
X86795057Y-77628700D02*
X87995057Y-77228700D01*
X86795057Y-76828700D01*
X87995057Y-75800128D02*
X87995057Y-76485842D01*
X87995057Y-76142985D02*
X86795057Y-76142985D01*
X86966485Y-76257271D01*
X87080771Y-76371557D01*
X87137914Y-76485842D01*
G04 #@! TO.C,GND1*
X96021600Y-78752514D02*
X95964457Y-78866800D01*
X95964457Y-79038228D01*
X96021600Y-79209657D01*
X96135885Y-79323942D01*
X96250171Y-79381085D01*
X96478742Y-79438228D01*
X96650171Y-79438228D01*
X96878742Y-79381085D01*
X96993028Y-79323942D01*
X97107314Y-79209657D01*
X97164457Y-79038228D01*
X97164457Y-78923942D01*
X97107314Y-78752514D01*
X97050171Y-78695371D01*
X96650171Y-78695371D01*
X96650171Y-78923942D01*
X97164457Y-78181085D02*
X95964457Y-78181085D01*
X97164457Y-77495371D01*
X95964457Y-77495371D01*
X97164457Y-76923942D02*
X95964457Y-76923942D01*
X95964457Y-76638228D01*
X96021600Y-76466800D01*
X96135885Y-76352514D01*
X96250171Y-76295371D01*
X96478742Y-76238228D01*
X96650171Y-76238228D01*
X96878742Y-76295371D01*
X96993028Y-76352514D01*
X97107314Y-76466800D01*
X97164457Y-76638228D01*
X97164457Y-76923942D01*
X97164457Y-75095371D02*
X97164457Y-75781085D01*
X97164457Y-75438228D02*
X95964457Y-75438228D01*
X96135885Y-75552514D01*
X96250171Y-75666800D01*
X96307314Y-75781085D01*
G04 #@! TO.C,J1*
X55191066Y-46226480D02*
X55191066Y-46940766D01*
X55143447Y-47083623D01*
X55048209Y-47178861D01*
X54905352Y-47226480D01*
X54810114Y-47226480D01*
X56191066Y-47226480D02*
X55619638Y-47226480D01*
X55905352Y-47226480D02*
X55905352Y-46226480D01*
X55810114Y-46369338D01*
X55714876Y-46464576D01*
X55619638Y-46512195D01*
G04 #@! TO.C,Q1*
X94229761Y-66522619D02*
X94134523Y-66475000D01*
X94039285Y-66379761D01*
X93896428Y-66236904D01*
X93801190Y-66189285D01*
X93705952Y-66189285D01*
X93753571Y-66427380D02*
X93658333Y-66379761D01*
X93563095Y-66284523D01*
X93515476Y-66094047D01*
X93515476Y-65760714D01*
X93563095Y-65570238D01*
X93658333Y-65475000D01*
X93753571Y-65427380D01*
X93944047Y-65427380D01*
X94039285Y-65475000D01*
X94134523Y-65570238D01*
X94182142Y-65760714D01*
X94182142Y-66094047D01*
X94134523Y-66284523D01*
X94039285Y-66379761D01*
X93944047Y-66427380D01*
X93753571Y-66427380D01*
X95134523Y-66427380D02*
X94563095Y-66427380D01*
X94848809Y-66427380D02*
X94848809Y-65427380D01*
X94753571Y-65570238D01*
X94658333Y-65665476D01*
X94563095Y-65713095D01*
G04 #@! TO.C,U1*
X76738095Y-58352380D02*
X76738095Y-59161904D01*
X76785714Y-59257142D01*
X76833333Y-59304761D01*
X76928571Y-59352380D01*
X77119047Y-59352380D01*
X77214285Y-59304761D01*
X77261904Y-59257142D01*
X77309523Y-59161904D01*
X77309523Y-58352380D01*
X78309523Y-59352380D02*
X77738095Y-59352380D01*
X78023809Y-59352380D02*
X78023809Y-58352380D01*
X77928571Y-58495238D01*
X77833333Y-58590476D01*
X77738095Y-58638095D01*
G04 #@! TO.C,U3*
X64421795Y-62240980D02*
X64421795Y-63050504D01*
X64469414Y-63145742D01*
X64517033Y-63193361D01*
X64612271Y-63240980D01*
X64802747Y-63240980D01*
X64897985Y-63193361D01*
X64945604Y-63145742D01*
X64993223Y-63050504D01*
X64993223Y-62240980D01*
X65374176Y-62240980D02*
X65993223Y-62240980D01*
X65659890Y-62621933D01*
X65802747Y-62621933D01*
X65897985Y-62669552D01*
X65945604Y-62717171D01*
X65993223Y-62812409D01*
X65993223Y-63050504D01*
X65945604Y-63145742D01*
X65897985Y-63193361D01*
X65802747Y-63240980D01*
X65517033Y-63240980D01*
X65421795Y-63193361D01*
X65374176Y-63145742D01*
G04 #@! TO.C,C3*
X76759342Y-68899066D02*
X76806961Y-68946685D01*
X76854580Y-69089542D01*
X76854580Y-69184780D01*
X76806961Y-69327638D01*
X76711723Y-69422876D01*
X76616485Y-69470495D01*
X76426009Y-69518114D01*
X76283152Y-69518114D01*
X76092676Y-69470495D01*
X75997438Y-69422876D01*
X75902200Y-69327638D01*
X75854580Y-69184780D01*
X75854580Y-69089542D01*
X75902200Y-68946685D01*
X75949819Y-68899066D01*
X75854580Y-68565733D02*
X75854580Y-67946685D01*
X76235533Y-68280019D01*
X76235533Y-68137161D01*
X76283152Y-68041923D01*
X76330771Y-67994304D01*
X76426009Y-67946685D01*
X76664104Y-67946685D01*
X76759342Y-67994304D01*
X76806961Y-68041923D01*
X76854580Y-68137161D01*
X76854580Y-68422876D01*
X76806961Y-68518114D01*
X76759342Y-68565733D01*
G04 #@! TO.C,C4*
X77233333Y-60982142D02*
X77185714Y-61029761D01*
X77042857Y-61077380D01*
X76947619Y-61077380D01*
X76804761Y-61029761D01*
X76709523Y-60934523D01*
X76661904Y-60839285D01*
X76614285Y-60648809D01*
X76614285Y-60505952D01*
X76661904Y-60315476D01*
X76709523Y-60220238D01*
X76804761Y-60125000D01*
X76947619Y-60077380D01*
X77042857Y-60077380D01*
X77185714Y-60125000D01*
X77233333Y-60172619D01*
X78090476Y-60410714D02*
X78090476Y-61077380D01*
X77852380Y-60029761D02*
X77614285Y-60744047D01*
X78233333Y-60744047D01*
G04 #@! TO.C,C1*
X59642033Y-73070742D02*
X59594414Y-73118361D01*
X59451557Y-73165980D01*
X59356319Y-73165980D01*
X59213461Y-73118361D01*
X59118223Y-73023123D01*
X59070604Y-72927885D01*
X59022985Y-72737409D01*
X59022985Y-72594552D01*
X59070604Y-72404076D01*
X59118223Y-72308838D01*
X59213461Y-72213600D01*
X59356319Y-72165980D01*
X59451557Y-72165980D01*
X59594414Y-72213600D01*
X59642033Y-72261219D01*
X60594414Y-73165980D02*
X60022985Y-73165980D01*
X60308700Y-73165980D02*
X60308700Y-72165980D01*
X60213461Y-72308838D01*
X60118223Y-72404076D01*
X60022985Y-72451695D01*
G04 #@! TO.C,C2*
X60517033Y-65170742D02*
X60469414Y-65218361D01*
X60326557Y-65265980D01*
X60231319Y-65265980D01*
X60088461Y-65218361D01*
X59993223Y-65123123D01*
X59945604Y-65027885D01*
X59897985Y-64837409D01*
X59897985Y-64694552D01*
X59945604Y-64504076D01*
X59993223Y-64408838D01*
X60088461Y-64313600D01*
X60231319Y-64265980D01*
X60326557Y-64265980D01*
X60469414Y-64313600D01*
X60517033Y-64361219D01*
X60897985Y-64361219D02*
X60945604Y-64313600D01*
X61040842Y-64265980D01*
X61278938Y-64265980D01*
X61374176Y-64313600D01*
X61421795Y-64361219D01*
X61469414Y-64456457D01*
X61469414Y-64551695D01*
X61421795Y-64694552D01*
X60850366Y-65265980D01*
X61469414Y-65265980D01*
G04 #@! TO.C,C5*
X76333333Y-48857142D02*
X76285714Y-48904761D01*
X76142857Y-48952380D01*
X76047619Y-48952380D01*
X75904761Y-48904761D01*
X75809523Y-48809523D01*
X75761904Y-48714285D01*
X75714285Y-48523809D01*
X75714285Y-48380952D01*
X75761904Y-48190476D01*
X75809523Y-48095238D01*
X75904761Y-48000000D01*
X76047619Y-47952380D01*
X76142857Y-47952380D01*
X76285714Y-48000000D01*
X76333333Y-48047619D01*
X77238095Y-47952380D02*
X76761904Y-47952380D01*
X76714285Y-48428571D01*
X76761904Y-48380952D01*
X76857142Y-48333333D01*
X77095238Y-48333333D01*
X77190476Y-48380952D01*
X77238095Y-48428571D01*
X77285714Y-48523809D01*
X77285714Y-48761904D01*
X77238095Y-48857142D01*
X77190476Y-48904761D01*
X77095238Y-48952380D01*
X76857142Y-48952380D01*
X76761904Y-48904761D01*
X76714285Y-48857142D01*
G04 #@! TO.C,MIDI_IN1*
X99902380Y-48178571D02*
X98902380Y-48178571D01*
X99616666Y-47845238D01*
X98902380Y-47511904D01*
X99902380Y-47511904D01*
X99902380Y-47035714D02*
X98902380Y-47035714D01*
X99902380Y-46559523D02*
X98902380Y-46559523D01*
X98902380Y-46321428D01*
X98950000Y-46178571D01*
X99045238Y-46083333D01*
X99140476Y-46035714D01*
X99330952Y-45988095D01*
X99473809Y-45988095D01*
X99664285Y-46035714D01*
X99759523Y-46083333D01*
X99854761Y-46178571D01*
X99902380Y-46321428D01*
X99902380Y-46559523D01*
X99902380Y-45559523D02*
X98902380Y-45559523D01*
X99997619Y-45321428D02*
X99997619Y-44559523D01*
X99902380Y-44321428D02*
X98902380Y-44321428D01*
X99902380Y-43845238D02*
X98902380Y-43845238D01*
X99902380Y-43273809D01*
X98902380Y-43273809D01*
X99902380Y-42273809D02*
X99902380Y-42845238D01*
X99902380Y-42559523D02*
X98902380Y-42559523D01*
X99045238Y-42654761D01*
X99140476Y-42750000D01*
X99188095Y-42845238D01*
G04 #@! TO.C,MIDI_OUT1*
X100152380Y-77195238D02*
X99152380Y-77195238D01*
X99866666Y-76861904D01*
X99152380Y-76528571D01*
X100152380Y-76528571D01*
X100152380Y-76052380D02*
X99152380Y-76052380D01*
X100152380Y-75576190D02*
X99152380Y-75576190D01*
X99152380Y-75338095D01*
X99200000Y-75195238D01*
X99295238Y-75100000D01*
X99390476Y-75052380D01*
X99580952Y-75004761D01*
X99723809Y-75004761D01*
X99914285Y-75052380D01*
X100009523Y-75100000D01*
X100104761Y-75195238D01*
X100152380Y-75338095D01*
X100152380Y-75576190D01*
X100152380Y-74576190D02*
X99152380Y-74576190D01*
X100247619Y-74338095D02*
X100247619Y-73576190D01*
X99152380Y-73147619D02*
X99152380Y-72957142D01*
X99200000Y-72861904D01*
X99295238Y-72766666D01*
X99485714Y-72719047D01*
X99819047Y-72719047D01*
X100009523Y-72766666D01*
X100104761Y-72861904D01*
X100152380Y-72957142D01*
X100152380Y-73147619D01*
X100104761Y-73242857D01*
X100009523Y-73338095D01*
X99819047Y-73385714D01*
X99485714Y-73385714D01*
X99295238Y-73338095D01*
X99200000Y-73242857D01*
X99152380Y-73147619D01*
X99152380Y-72290476D02*
X99961904Y-72290476D01*
X100057142Y-72242857D01*
X100104761Y-72195238D01*
X100152380Y-72100000D01*
X100152380Y-71909523D01*
X100104761Y-71814285D01*
X100057142Y-71766666D01*
X99961904Y-71719047D01*
X99152380Y-71719047D01*
X99152380Y-71385714D02*
X99152380Y-70814285D01*
X100152380Y-71100000D02*
X99152380Y-71100000D01*
X100152380Y-69957142D02*
X100152380Y-70528571D01*
X100152380Y-70242857D02*
X99152380Y-70242857D01*
X99295238Y-70338095D01*
X99390476Y-70433333D01*
X99438095Y-70528571D01*
G04 #@! TO.C,U4*
X78738095Y-44952380D02*
X78738095Y-45761904D01*
X78785714Y-45857142D01*
X78833333Y-45904761D01*
X78928571Y-45952380D01*
X79119047Y-45952380D01*
X79214285Y-45904761D01*
X79261904Y-45857142D01*
X79309523Y-45761904D01*
X79309523Y-44952380D01*
X80214285Y-45285714D02*
X80214285Y-45952380D01*
X79976190Y-44904761D02*
X79738095Y-45619047D01*
X80357142Y-45619047D01*
G04 #@! TD*
M02*
