G04 #@! TF.GenerationSoftware,KiCad,Pcbnew,(5.0.2)-1*
G04 #@! TF.CreationDate,2020-11-24T14:27:37-08:00*
G04 #@! TF.ProjectId,MIDIExtender,4d494449-4578-4746-956e-6465722e6b69,rev?*
G04 #@! TF.SameCoordinates,Original*
G04 #@! TF.FileFunction,Soldermask,Bot*
G04 #@! TF.FilePolarity,Negative*
%FSLAX46Y46*%
G04 Gerber Fmt 4.6, Leading zero omitted, Abs format (unit mm)*
G04 Created by KiCad (PCBNEW (5.0.2)-1) date 11/24/2020 2:27:37 PM*
%MOMM*%
%LPD*%
G01*
G04 APERTURE LIST*
%ADD10C,0.100000*%
G04 APERTURE END LIST*
D10*
G36*
X106498932Y-125204765D02*
X106624650Y-125229772D01*
X106827203Y-125313672D01*
X107008267Y-125434656D01*
X107009499Y-125435479D01*
X107164521Y-125590501D01*
X107164523Y-125590504D01*
X107286328Y-125772797D01*
X107370228Y-125975350D01*
X107413000Y-126190379D01*
X107413000Y-126409621D01*
X107370228Y-126624650D01*
X107286328Y-126827203D01*
X107165344Y-127008267D01*
X107164521Y-127009499D01*
X107009499Y-127164521D01*
X107009496Y-127164523D01*
X106827203Y-127286328D01*
X106624650Y-127370228D01*
X106517135Y-127391614D01*
X106409622Y-127413000D01*
X106190378Y-127413000D01*
X106082865Y-127391614D01*
X105975350Y-127370228D01*
X105772797Y-127286328D01*
X105590504Y-127164523D01*
X105590501Y-127164521D01*
X105435479Y-127009499D01*
X105434656Y-127008267D01*
X105313672Y-126827203D01*
X105229772Y-126624650D01*
X105187000Y-126409621D01*
X105187000Y-126190379D01*
X105229772Y-125975350D01*
X105313672Y-125772797D01*
X105435477Y-125590504D01*
X105435479Y-125590501D01*
X105590501Y-125435479D01*
X105591733Y-125434656D01*
X105772797Y-125313672D01*
X105975350Y-125229772D01*
X106101068Y-125204765D01*
X106190378Y-125187000D01*
X106409622Y-125187000D01*
X106498932Y-125204765D01*
X106498932Y-125204765D01*
G37*
G36*
X50569047Y-122461405D02*
X50678655Y-122483207D01*
X50870184Y-122562541D01*
X50988399Y-122611507D01*
X51267165Y-122797772D01*
X51504228Y-123034835D01*
X51504230Y-123034838D01*
X51690493Y-123313601D01*
X51792123Y-123558957D01*
X51818793Y-123623346D01*
X51884200Y-123952166D01*
X51884200Y-124287434D01*
X51876289Y-124327203D01*
X51818793Y-124616255D01*
X51713594Y-124870228D01*
X51690493Y-124925999D01*
X51504228Y-125204765D01*
X51267165Y-125441828D01*
X51267162Y-125441830D01*
X50988399Y-125628093D01*
X50678655Y-125756393D01*
X50569047Y-125778195D01*
X50349834Y-125821800D01*
X50014566Y-125821800D01*
X49795353Y-125778195D01*
X49685745Y-125756393D01*
X49376001Y-125628093D01*
X49097238Y-125441830D01*
X49097235Y-125441828D01*
X48860172Y-125204765D01*
X48673907Y-124925999D01*
X48650806Y-124870228D01*
X48545607Y-124616255D01*
X48488111Y-124327203D01*
X48480200Y-124287434D01*
X48480200Y-123952166D01*
X48545607Y-123623346D01*
X48572278Y-123558957D01*
X48673907Y-123313601D01*
X48860170Y-123034838D01*
X48860172Y-123034835D01*
X49097235Y-122797772D01*
X49376001Y-122611507D01*
X49494216Y-122562541D01*
X49685745Y-122483207D01*
X49795353Y-122461405D01*
X50014566Y-122417800D01*
X50349834Y-122417800D01*
X50569047Y-122461405D01*
X50569047Y-122461405D01*
G37*
G36*
X116517135Y-122708386D02*
X116624650Y-122729772D01*
X116827203Y-122813672D01*
X117008267Y-122934656D01*
X117009499Y-122935479D01*
X117164521Y-123090501D01*
X117164523Y-123090504D01*
X117286328Y-123272797D01*
X117370228Y-123475350D01*
X117413000Y-123690379D01*
X117413000Y-123909621D01*
X117370228Y-124124650D01*
X117286328Y-124327203D01*
X117235224Y-124403685D01*
X117164521Y-124509499D01*
X117009499Y-124664521D01*
X117009496Y-124664523D01*
X116827203Y-124786328D01*
X116624650Y-124870228D01*
X116517135Y-124891614D01*
X116409622Y-124913000D01*
X116190378Y-124913000D01*
X116082865Y-124891614D01*
X115975350Y-124870228D01*
X115772797Y-124786328D01*
X115590504Y-124664523D01*
X115590501Y-124664521D01*
X115435479Y-124509499D01*
X115364776Y-124403685D01*
X115313672Y-124327203D01*
X115229772Y-124124650D01*
X115187000Y-123909621D01*
X115187000Y-123690379D01*
X115229772Y-123475350D01*
X115313672Y-123272797D01*
X115435477Y-123090504D01*
X115435479Y-123090501D01*
X115590501Y-122935479D01*
X115591733Y-122934656D01*
X115772797Y-122813672D01*
X115975350Y-122729772D01*
X116082865Y-122708386D01*
X116190378Y-122687000D01*
X116409622Y-122687000D01*
X116517135Y-122708386D01*
X116517135Y-122708386D01*
G37*
G36*
X104017135Y-122708386D02*
X104124650Y-122729772D01*
X104327203Y-122813672D01*
X104508267Y-122934656D01*
X104509499Y-122935479D01*
X104664521Y-123090501D01*
X104664523Y-123090504D01*
X104786328Y-123272797D01*
X104870228Y-123475350D01*
X104913000Y-123690379D01*
X104913000Y-123909621D01*
X104870228Y-124124650D01*
X104786328Y-124327203D01*
X104735224Y-124403685D01*
X104664521Y-124509499D01*
X104509499Y-124664521D01*
X104509496Y-124664523D01*
X104327203Y-124786328D01*
X104124650Y-124870228D01*
X104017135Y-124891614D01*
X103909622Y-124913000D01*
X103690378Y-124913000D01*
X103582865Y-124891614D01*
X103475350Y-124870228D01*
X103272797Y-124786328D01*
X103090504Y-124664523D01*
X103090501Y-124664521D01*
X102935479Y-124509499D01*
X102864776Y-124403685D01*
X102813672Y-124327203D01*
X102729772Y-124124650D01*
X102687000Y-123909621D01*
X102687000Y-123690379D01*
X102729772Y-123475350D01*
X102813672Y-123272797D01*
X102935477Y-123090504D01*
X102935479Y-123090501D01*
X103090501Y-122935479D01*
X103091733Y-122934656D01*
X103272797Y-122813672D01*
X103475350Y-122729772D01*
X103582865Y-122708386D01*
X103690378Y-122687000D01*
X103909622Y-122687000D01*
X104017135Y-122708386D01*
X104017135Y-122708386D01*
G37*
G36*
X94336104Y-121982823D02*
X94491361Y-121998114D01*
X94740371Y-122073651D01*
X94740374Y-122073653D01*
X94740375Y-122073653D01*
X94969859Y-122196314D01*
X95171007Y-122361393D01*
X95336086Y-122562541D01*
X95402610Y-122687000D01*
X95458749Y-122792029D01*
X95534286Y-123041039D01*
X95559791Y-123300000D01*
X95534286Y-123558961D01*
X95458749Y-123807971D01*
X95458747Y-123807974D01*
X95458747Y-123807975D01*
X95336086Y-124037459D01*
X95171007Y-124238607D01*
X94969859Y-124403686D01*
X94740375Y-124526347D01*
X94740371Y-124526349D01*
X94491361Y-124601886D01*
X94336104Y-124617177D01*
X94297291Y-124621000D01*
X94167509Y-124621000D01*
X94128696Y-124617177D01*
X93973439Y-124601886D01*
X93724429Y-124526349D01*
X93724425Y-124526347D01*
X93494941Y-124403686D01*
X93293793Y-124238607D01*
X93128714Y-124037459D01*
X93006053Y-123807975D01*
X93006053Y-123807974D01*
X93006051Y-123807971D01*
X92930514Y-123558961D01*
X92905009Y-123300000D01*
X92930514Y-123041039D01*
X93006051Y-122792029D01*
X93062190Y-122687000D01*
X93128714Y-122562541D01*
X93293793Y-122361393D01*
X93494941Y-122196314D01*
X93724425Y-122073653D01*
X93724426Y-122073653D01*
X93724429Y-122073651D01*
X93973439Y-121998114D01*
X94128696Y-121982823D01*
X94167509Y-121979000D01*
X94297291Y-121979000D01*
X94336104Y-121982823D01*
X94336104Y-121982823D01*
G37*
G36*
X90373704Y-121982823D02*
X90528961Y-121998114D01*
X90777971Y-122073651D01*
X90777974Y-122073653D01*
X90777975Y-122073653D01*
X91007459Y-122196314D01*
X91208607Y-122361393D01*
X91373686Y-122562541D01*
X91440210Y-122687000D01*
X91496349Y-122792029D01*
X91571886Y-123041039D01*
X91597391Y-123300000D01*
X91571886Y-123558961D01*
X91496349Y-123807971D01*
X91496347Y-123807974D01*
X91496347Y-123807975D01*
X91373686Y-124037459D01*
X91208607Y-124238607D01*
X91007459Y-124403686D01*
X90777975Y-124526347D01*
X90777971Y-124526349D01*
X90528961Y-124601886D01*
X90373704Y-124617177D01*
X90334891Y-124621000D01*
X90205109Y-124621000D01*
X90166296Y-124617177D01*
X90011039Y-124601886D01*
X89762029Y-124526349D01*
X89762025Y-124526347D01*
X89532541Y-124403686D01*
X89331393Y-124238607D01*
X89166314Y-124037459D01*
X89043653Y-123807975D01*
X89043653Y-123807974D01*
X89043651Y-123807971D01*
X88968114Y-123558961D01*
X88942609Y-123300000D01*
X88968114Y-123041039D01*
X89043651Y-122792029D01*
X89099790Y-122687000D01*
X89166314Y-122562541D01*
X89331393Y-122361393D01*
X89532541Y-122196314D01*
X89762025Y-122073653D01*
X89762026Y-122073653D01*
X89762029Y-122073651D01*
X90011039Y-121998114D01*
X90166296Y-121982823D01*
X90205109Y-121979000D01*
X90334891Y-121979000D01*
X90373704Y-121982823D01*
X90373704Y-121982823D01*
G37*
G36*
X116498645Y-120204708D02*
X116624650Y-120229772D01*
X116827203Y-120313672D01*
X117008267Y-120434656D01*
X117009499Y-120435479D01*
X117164521Y-120590501D01*
X117164523Y-120590504D01*
X117286328Y-120772797D01*
X117370228Y-120975350D01*
X117413000Y-121190379D01*
X117413000Y-121409621D01*
X117370228Y-121624650D01*
X117286328Y-121827203D01*
X117184900Y-121979000D01*
X117164521Y-122009499D01*
X117009499Y-122164521D01*
X117009496Y-122164523D01*
X116827203Y-122286328D01*
X116624650Y-122370228D01*
X116409622Y-122413000D01*
X116190378Y-122413000D01*
X115975350Y-122370228D01*
X115772797Y-122286328D01*
X115590504Y-122164523D01*
X115590501Y-122164521D01*
X115435479Y-122009499D01*
X115415100Y-121979000D01*
X115313672Y-121827203D01*
X115229772Y-121624650D01*
X115187000Y-121409621D01*
X115187000Y-121190379D01*
X115229772Y-120975350D01*
X115313672Y-120772797D01*
X115435477Y-120590504D01*
X115435479Y-120590501D01*
X115590501Y-120435479D01*
X115591733Y-120434656D01*
X115772797Y-120313672D01*
X115975350Y-120229772D01*
X116101355Y-120204708D01*
X116190378Y-120187000D01*
X116409622Y-120187000D01*
X116498645Y-120204708D01*
X116498645Y-120204708D01*
G37*
G36*
X53159367Y-118494651D02*
X53159369Y-118494652D01*
X53159370Y-118494652D01*
X53219147Y-118519412D01*
X53321195Y-118561682D01*
X53466835Y-118658996D01*
X53590684Y-118782845D01*
X53687998Y-118928485D01*
X53755029Y-119090313D01*
X53768002Y-119155531D01*
X53775115Y-119178980D01*
X53786666Y-119200591D01*
X53802212Y-119219533D01*
X53821154Y-119235079D01*
X53842764Y-119246630D01*
X53866214Y-119253743D01*
X53890600Y-119256145D01*
X53914986Y-119253743D01*
X53938435Y-119246630D01*
X53960046Y-119235079D01*
X53978988Y-119219533D01*
X53994534Y-119200591D01*
X54006085Y-119178981D01*
X54013198Y-119155531D01*
X54026171Y-119090313D01*
X54093202Y-118928485D01*
X54190516Y-118782845D01*
X54314365Y-118658996D01*
X54460005Y-118561682D01*
X54562053Y-118519412D01*
X54621830Y-118494652D01*
X54621831Y-118494652D01*
X54621833Y-118494651D01*
X54793620Y-118460480D01*
X54968780Y-118460480D01*
X55140567Y-118494651D01*
X55140569Y-118494652D01*
X55140570Y-118494652D01*
X55200347Y-118519412D01*
X55302395Y-118561682D01*
X55448035Y-118658996D01*
X55571884Y-118782845D01*
X55669198Y-118928485D01*
X55736229Y-119090313D01*
X55770400Y-119262100D01*
X55770400Y-119437260D01*
X55736229Y-119609047D01*
X55669198Y-119770875D01*
X55571884Y-119916515D01*
X55448035Y-120040364D01*
X55302395Y-120137678D01*
X55200347Y-120179948D01*
X55140570Y-120204708D01*
X55140569Y-120204708D01*
X55140567Y-120204709D01*
X54968780Y-120238880D01*
X54793620Y-120238880D01*
X54621833Y-120204709D01*
X54621831Y-120204708D01*
X54621830Y-120204708D01*
X54562053Y-120179948D01*
X54460005Y-120137678D01*
X54314365Y-120040364D01*
X54190516Y-119916515D01*
X54093202Y-119770875D01*
X54026171Y-119609047D01*
X54013198Y-119543829D01*
X54006085Y-119520380D01*
X53994534Y-119498769D01*
X53978988Y-119479827D01*
X53960046Y-119464281D01*
X53938436Y-119452730D01*
X53914986Y-119445617D01*
X53890600Y-119443215D01*
X53866214Y-119445617D01*
X53842765Y-119452730D01*
X53821154Y-119464281D01*
X53802212Y-119479827D01*
X53786666Y-119498769D01*
X53775115Y-119520379D01*
X53768002Y-119543829D01*
X53755029Y-119609047D01*
X53687998Y-119770875D01*
X53590684Y-119916515D01*
X53466835Y-120040364D01*
X53321195Y-120137678D01*
X53219147Y-120179948D01*
X53159370Y-120204708D01*
X53159369Y-120204708D01*
X53159367Y-120204709D01*
X52987580Y-120238880D01*
X52812420Y-120238880D01*
X52640633Y-120204709D01*
X52640631Y-120204708D01*
X52640630Y-120204708D01*
X52580853Y-120179948D01*
X52478805Y-120137678D01*
X52333165Y-120040364D01*
X52209316Y-119916515D01*
X52112002Y-119770875D01*
X52044971Y-119609047D01*
X52010800Y-119437260D01*
X52010800Y-119262100D01*
X52044971Y-119090313D01*
X52112002Y-118928485D01*
X52209316Y-118782845D01*
X52333165Y-118658996D01*
X52478805Y-118561682D01*
X52580853Y-118519412D01*
X52640630Y-118494652D01*
X52640631Y-118494652D01*
X52640633Y-118494651D01*
X52812420Y-118460480D01*
X52987580Y-118460480D01*
X53159367Y-118494651D01*
X53159367Y-118494651D01*
G37*
G36*
X106624650Y-117729772D02*
X106827203Y-117813672D01*
X107008267Y-117934656D01*
X107009499Y-117935479D01*
X107164521Y-118090501D01*
X107164523Y-118090504D01*
X107286328Y-118272797D01*
X107370228Y-118475350D01*
X107413000Y-118690379D01*
X107413000Y-118909621D01*
X107370228Y-119124650D01*
X107286328Y-119327203D01*
X107212790Y-119437260D01*
X107164521Y-119509499D01*
X107009499Y-119664521D01*
X107009496Y-119664523D01*
X106827203Y-119786328D01*
X106624650Y-119870228D01*
X106409622Y-119913000D01*
X106190378Y-119913000D01*
X105975350Y-119870228D01*
X105772797Y-119786328D01*
X105590504Y-119664523D01*
X105590501Y-119664521D01*
X105435479Y-119509499D01*
X105387210Y-119437260D01*
X105313672Y-119327203D01*
X105229772Y-119124650D01*
X105187000Y-118909621D01*
X105187000Y-118690379D01*
X105229772Y-118475350D01*
X105313672Y-118272797D01*
X105435477Y-118090504D01*
X105435479Y-118090501D01*
X105590501Y-117935479D01*
X105591733Y-117934656D01*
X105772797Y-117813672D01*
X105975350Y-117729772D01*
X106190378Y-117687000D01*
X106409622Y-117687000D01*
X106624650Y-117729772D01*
X106624650Y-117729772D01*
G37*
G36*
X53159367Y-115995291D02*
X53159369Y-115995292D01*
X53159370Y-115995292D01*
X53219147Y-116020052D01*
X53321195Y-116062322D01*
X53466835Y-116159636D01*
X53590684Y-116283485D01*
X53687998Y-116429125D01*
X53755029Y-116590953D01*
X53768002Y-116656171D01*
X53775115Y-116679620D01*
X53786666Y-116701231D01*
X53802212Y-116720173D01*
X53821154Y-116735719D01*
X53842764Y-116747270D01*
X53866214Y-116754383D01*
X53890600Y-116756785D01*
X53914986Y-116754383D01*
X53938435Y-116747270D01*
X53960046Y-116735719D01*
X53978988Y-116720173D01*
X53994534Y-116701231D01*
X54006085Y-116679621D01*
X54013198Y-116656171D01*
X54026171Y-116590953D01*
X54093202Y-116429125D01*
X54190516Y-116283485D01*
X54314365Y-116159636D01*
X54460005Y-116062322D01*
X54562053Y-116020052D01*
X54621830Y-115995292D01*
X54621831Y-115995292D01*
X54621833Y-115995291D01*
X54793620Y-115961120D01*
X54968780Y-115961120D01*
X55140567Y-115995291D01*
X55140569Y-115995292D01*
X55140570Y-115995292D01*
X55200347Y-116020052D01*
X55302395Y-116062322D01*
X55448035Y-116159636D01*
X55571884Y-116283485D01*
X55669198Y-116429125D01*
X55736229Y-116590953D01*
X55770400Y-116762740D01*
X55770400Y-116937900D01*
X55736229Y-117109687D01*
X55669198Y-117271515D01*
X55571884Y-117417155D01*
X55448035Y-117541004D01*
X55302395Y-117638318D01*
X55200347Y-117680588D01*
X55140570Y-117705348D01*
X55140569Y-117705348D01*
X55140567Y-117705349D01*
X54968780Y-117739520D01*
X54793620Y-117739520D01*
X54621833Y-117705349D01*
X54621831Y-117705348D01*
X54621830Y-117705348D01*
X54562053Y-117680588D01*
X54460005Y-117638318D01*
X54314365Y-117541004D01*
X54190516Y-117417155D01*
X54093202Y-117271515D01*
X54026171Y-117109687D01*
X54013198Y-117044469D01*
X54006085Y-117021020D01*
X53994534Y-116999409D01*
X53978988Y-116980467D01*
X53960046Y-116964921D01*
X53938436Y-116953370D01*
X53914986Y-116946257D01*
X53890600Y-116943855D01*
X53866214Y-116946257D01*
X53842765Y-116953370D01*
X53821154Y-116964921D01*
X53802212Y-116980467D01*
X53786666Y-116999409D01*
X53775115Y-117021019D01*
X53768002Y-117044469D01*
X53755029Y-117109687D01*
X53687998Y-117271515D01*
X53590684Y-117417155D01*
X53466835Y-117541004D01*
X53321195Y-117638318D01*
X53219147Y-117680588D01*
X53159370Y-117705348D01*
X53159369Y-117705348D01*
X53159367Y-117705349D01*
X52987580Y-117739520D01*
X52812420Y-117739520D01*
X52640633Y-117705349D01*
X52640631Y-117705348D01*
X52640630Y-117705348D01*
X52580853Y-117680588D01*
X52478805Y-117638318D01*
X52333165Y-117541004D01*
X52209316Y-117417155D01*
X52112002Y-117271515D01*
X52044971Y-117109687D01*
X52010800Y-116937900D01*
X52010800Y-116762740D01*
X52044971Y-116590953D01*
X52112002Y-116429125D01*
X52209316Y-116283485D01*
X52333165Y-116159636D01*
X52478805Y-116062322D01*
X52580853Y-116020052D01*
X52640630Y-115995292D01*
X52640631Y-115995292D01*
X52640633Y-115995291D01*
X52812420Y-115961120D01*
X52987580Y-115961120D01*
X53159367Y-115995291D01*
X53159367Y-115995291D01*
G37*
G36*
X84436500Y-117426500D02*
X82683500Y-117426500D01*
X82683500Y-115673500D01*
X84436500Y-115673500D01*
X84436500Y-117426500D01*
X84436500Y-117426500D01*
G37*
G36*
X86270997Y-115690341D02*
X86355666Y-115707183D01*
X86421738Y-115734551D01*
X86515177Y-115773255D01*
X86658739Y-115869180D01*
X86780820Y-115991261D01*
X86876745Y-116134823D01*
X86942817Y-116294335D01*
X86969629Y-116429126D01*
X86976500Y-116463672D01*
X86976500Y-116636328D01*
X86954433Y-116747270D01*
X86942817Y-116805665D01*
X86876745Y-116965177D01*
X86780820Y-117108739D01*
X86658739Y-117230820D01*
X86515177Y-117326745D01*
X86421738Y-117365449D01*
X86355666Y-117392817D01*
X86270997Y-117409659D01*
X86186329Y-117426500D01*
X86013671Y-117426500D01*
X85929003Y-117409659D01*
X85844334Y-117392817D01*
X85778262Y-117365449D01*
X85684823Y-117326745D01*
X85541261Y-117230820D01*
X85419180Y-117108739D01*
X85323255Y-116965177D01*
X85257183Y-116805665D01*
X85245568Y-116747270D01*
X85223500Y-116636328D01*
X85223500Y-116463672D01*
X85230372Y-116429126D01*
X85257183Y-116294335D01*
X85323255Y-116134823D01*
X85419180Y-115991261D01*
X85541261Y-115869180D01*
X85684823Y-115773255D01*
X85778262Y-115734551D01*
X85844334Y-115707183D01*
X85929003Y-115690341D01*
X86013671Y-115673500D01*
X86186329Y-115673500D01*
X86270997Y-115690341D01*
X86270997Y-115690341D01*
G37*
G36*
X88810997Y-115690341D02*
X88895666Y-115707183D01*
X88961738Y-115734551D01*
X89055177Y-115773255D01*
X89198739Y-115869180D01*
X89320820Y-115991261D01*
X89416745Y-116134823D01*
X89482817Y-116294335D01*
X89509629Y-116429126D01*
X89516500Y-116463672D01*
X89516500Y-116636328D01*
X89494433Y-116747270D01*
X89482817Y-116805665D01*
X89416745Y-116965177D01*
X89320820Y-117108739D01*
X89198739Y-117230820D01*
X89055177Y-117326745D01*
X88961738Y-117365449D01*
X88895666Y-117392817D01*
X88810997Y-117409659D01*
X88726329Y-117426500D01*
X88553671Y-117426500D01*
X88469003Y-117409659D01*
X88384334Y-117392817D01*
X88318262Y-117365449D01*
X88224823Y-117326745D01*
X88081261Y-117230820D01*
X87959180Y-117108739D01*
X87863255Y-116965177D01*
X87797183Y-116805665D01*
X87785568Y-116747270D01*
X87763500Y-116636328D01*
X87763500Y-116463672D01*
X87770372Y-116429126D01*
X87797183Y-116294335D01*
X87863255Y-116134823D01*
X87959180Y-115991261D01*
X88081261Y-115869180D01*
X88224823Y-115773255D01*
X88318262Y-115734551D01*
X88384334Y-115707183D01*
X88469003Y-115690341D01*
X88553671Y-115673500D01*
X88726329Y-115673500D01*
X88810997Y-115690341D01*
X88810997Y-115690341D01*
G37*
G36*
X116517135Y-115208386D02*
X116624650Y-115229772D01*
X116827203Y-115313672D01*
X116892197Y-115357100D01*
X117009499Y-115435479D01*
X117164521Y-115590501D01*
X117164523Y-115590504D01*
X117286328Y-115772797D01*
X117370228Y-115975350D01*
X117374195Y-115995292D01*
X117413000Y-116190378D01*
X117413000Y-116409622D01*
X117409120Y-116429126D01*
X117370228Y-116624650D01*
X117286328Y-116827203D01*
X117183920Y-116980467D01*
X117164521Y-117009499D01*
X117009499Y-117164521D01*
X117009496Y-117164523D01*
X116827203Y-117286328D01*
X116624650Y-117370228D01*
X116517135Y-117391614D01*
X116409622Y-117413000D01*
X116190378Y-117413000D01*
X116082865Y-117391614D01*
X115975350Y-117370228D01*
X115772797Y-117286328D01*
X115590504Y-117164523D01*
X115590501Y-117164521D01*
X115435479Y-117009499D01*
X115416080Y-116980467D01*
X115313672Y-116827203D01*
X115229772Y-116624650D01*
X115190880Y-116429126D01*
X115187000Y-116409622D01*
X115187000Y-116190378D01*
X115225805Y-115995292D01*
X115229772Y-115975350D01*
X115313672Y-115772797D01*
X115435477Y-115590504D01*
X115435479Y-115590501D01*
X115590501Y-115435479D01*
X115707803Y-115357100D01*
X115772797Y-115313672D01*
X115975350Y-115229772D01*
X116082865Y-115208386D01*
X116190378Y-115187000D01*
X116409622Y-115187000D01*
X116517135Y-115208386D01*
X116517135Y-115208386D01*
G37*
G36*
X68779697Y-115373941D02*
X68864366Y-115390783D01*
X68930438Y-115418151D01*
X69023877Y-115456855D01*
X69167439Y-115552780D01*
X69289520Y-115674861D01*
X69385445Y-115818423D01*
X69406468Y-115869178D01*
X69450447Y-115975350D01*
X69451517Y-115977935D01*
X69485200Y-116147271D01*
X69485200Y-116319929D01*
X69451517Y-116489265D01*
X69385445Y-116648777D01*
X69289520Y-116792339D01*
X69167439Y-116914420D01*
X69023877Y-117010345D01*
X68941494Y-117044469D01*
X68864366Y-117076417D01*
X68779697Y-117093258D01*
X68695029Y-117110100D01*
X68522371Y-117110100D01*
X68437703Y-117093258D01*
X68353034Y-117076417D01*
X68275906Y-117044469D01*
X68193523Y-117010345D01*
X68049961Y-116914420D01*
X67927880Y-116792339D01*
X67831955Y-116648777D01*
X67765883Y-116489265D01*
X67732200Y-116319929D01*
X67732200Y-116147271D01*
X67765883Y-115977935D01*
X67766954Y-115975350D01*
X67810932Y-115869178D01*
X67831955Y-115818423D01*
X67927880Y-115674861D01*
X68049961Y-115552780D01*
X68193523Y-115456855D01*
X68286962Y-115418151D01*
X68353034Y-115390783D01*
X68437703Y-115373941D01*
X68522371Y-115357100D01*
X68695029Y-115357100D01*
X68779697Y-115373941D01*
X68779697Y-115373941D01*
G37*
G36*
X116624650Y-112729772D02*
X116827203Y-112813672D01*
X116936046Y-112886399D01*
X117009499Y-112935479D01*
X117164521Y-113090501D01*
X117164523Y-113090504D01*
X117286328Y-113272797D01*
X117370228Y-113475350D01*
X117413000Y-113690379D01*
X117413000Y-113909621D01*
X117370228Y-114124650D01*
X117286328Y-114327203D01*
X117165344Y-114508267D01*
X117164521Y-114509499D01*
X117009499Y-114664521D01*
X117009496Y-114664523D01*
X116827203Y-114786328D01*
X116624650Y-114870228D01*
X116409622Y-114913000D01*
X116190378Y-114913000D01*
X115975350Y-114870228D01*
X115772797Y-114786328D01*
X115590504Y-114664523D01*
X115590501Y-114664521D01*
X115435479Y-114509499D01*
X115434656Y-114508267D01*
X115313672Y-114327203D01*
X115229772Y-114124650D01*
X115187000Y-113909621D01*
X115187000Y-113690379D01*
X115229772Y-113475350D01*
X115313672Y-113272797D01*
X115435477Y-113090504D01*
X115435479Y-113090501D01*
X115590501Y-112935479D01*
X115663954Y-112886399D01*
X115772797Y-112813672D01*
X115975350Y-112729772D01*
X116190378Y-112687000D01*
X116409622Y-112687000D01*
X116624650Y-112729772D01*
X116624650Y-112729772D01*
G37*
G36*
X104124650Y-112729772D02*
X104327203Y-112813672D01*
X104436046Y-112886399D01*
X104509499Y-112935479D01*
X104664521Y-113090501D01*
X104664523Y-113090504D01*
X104786328Y-113272797D01*
X104870228Y-113475350D01*
X104913000Y-113690379D01*
X104913000Y-113909621D01*
X104870228Y-114124650D01*
X104786328Y-114327203D01*
X104665344Y-114508267D01*
X104664521Y-114509499D01*
X104509499Y-114664521D01*
X104509496Y-114664523D01*
X104327203Y-114786328D01*
X104124650Y-114870228D01*
X103909622Y-114913000D01*
X103690378Y-114913000D01*
X103475350Y-114870228D01*
X103272797Y-114786328D01*
X103090504Y-114664523D01*
X103090501Y-114664521D01*
X102935479Y-114509499D01*
X102934656Y-114508267D01*
X102813672Y-114327203D01*
X102729772Y-114124650D01*
X102687000Y-113909621D01*
X102687000Y-113690379D01*
X102729772Y-113475350D01*
X102813672Y-113272797D01*
X102935477Y-113090504D01*
X102935479Y-113090501D01*
X103090501Y-112935479D01*
X103163954Y-112886399D01*
X103272797Y-112813672D01*
X103475350Y-112729772D01*
X103690378Y-112687000D01*
X103909622Y-112687000D01*
X104124650Y-112729772D01*
X104124650Y-112729772D01*
G37*
G36*
X69485200Y-114570100D02*
X67732200Y-114570100D01*
X67732200Y-112817100D01*
X69485200Y-112817100D01*
X69485200Y-114570100D01*
X69485200Y-114570100D01*
G37*
G36*
X50569047Y-110421805D02*
X50678655Y-110443607D01*
X50988399Y-110571907D01*
X51267165Y-110758172D01*
X51504228Y-110995235D01*
X51504230Y-110995238D01*
X51690493Y-111274001D01*
X51818793Y-111583745D01*
X51884200Y-111912568D01*
X51884200Y-112247832D01*
X51818793Y-112576655D01*
X51690493Y-112886399D01*
X51504228Y-113165165D01*
X51267165Y-113402228D01*
X51267162Y-113402230D01*
X50988399Y-113588493D01*
X50678655Y-113716793D01*
X50569047Y-113738595D01*
X50349834Y-113782200D01*
X50014566Y-113782200D01*
X49795353Y-113738595D01*
X49685745Y-113716793D01*
X49376001Y-113588493D01*
X49097238Y-113402230D01*
X49097235Y-113402228D01*
X48860172Y-113165165D01*
X48673907Y-112886399D01*
X48545607Y-112576655D01*
X48480200Y-112247832D01*
X48480200Y-111912568D01*
X48545607Y-111583745D01*
X48673907Y-111274001D01*
X48860170Y-110995238D01*
X48860172Y-110995235D01*
X49097235Y-110758172D01*
X49376001Y-110571907D01*
X49685745Y-110443607D01*
X49795353Y-110421805D01*
X50014566Y-110378200D01*
X50349834Y-110378200D01*
X50569047Y-110421805D01*
X50569047Y-110421805D01*
G37*
G36*
X106517135Y-110208386D02*
X106624650Y-110229772D01*
X106827203Y-110313672D01*
X106923775Y-110378200D01*
X107009499Y-110435479D01*
X107164521Y-110590501D01*
X107164523Y-110590504D01*
X107286328Y-110772797D01*
X107370228Y-110975350D01*
X107413000Y-111190379D01*
X107413000Y-111409621D01*
X107370228Y-111624650D01*
X107286328Y-111827203D01*
X107165344Y-112008267D01*
X107164521Y-112009499D01*
X107009499Y-112164521D01*
X107009496Y-112164523D01*
X106827203Y-112286328D01*
X106624650Y-112370228D01*
X106517135Y-112391614D01*
X106409622Y-112413000D01*
X106190378Y-112413000D01*
X106082865Y-112391614D01*
X105975350Y-112370228D01*
X105772797Y-112286328D01*
X105590504Y-112164523D01*
X105590501Y-112164521D01*
X105435479Y-112009499D01*
X105434656Y-112008267D01*
X105313672Y-111827203D01*
X105229772Y-111624650D01*
X105187000Y-111409621D01*
X105187000Y-111190379D01*
X105229772Y-110975350D01*
X105313672Y-110772797D01*
X105435477Y-110590504D01*
X105435479Y-110590501D01*
X105590501Y-110435479D01*
X105676225Y-110378200D01*
X105772797Y-110313672D01*
X105975350Y-110229772D01*
X106082865Y-110208386D01*
X106190378Y-110187000D01*
X106409622Y-110187000D01*
X106517135Y-110208386D01*
X106517135Y-110208386D01*
G37*
G36*
X47275256Y-105701298D02*
X47381579Y-105722447D01*
X47682042Y-105846903D01*
X47724092Y-105875000D01*
X47952454Y-106027587D01*
X48182413Y-106257546D01*
X48182415Y-106257549D01*
X48330825Y-106479659D01*
X48363098Y-106527960D01*
X48387141Y-106586005D01*
X48440029Y-106713687D01*
X48487553Y-106828422D01*
X48551000Y-107147389D01*
X48551000Y-107472611D01*
X48487553Y-107791578D01*
X48363098Y-108092040D01*
X48182413Y-108362454D01*
X47952454Y-108592413D01*
X47952451Y-108592415D01*
X47682042Y-108773097D01*
X47381579Y-108897553D01*
X47275256Y-108918702D01*
X47062611Y-108961000D01*
X46737389Y-108961000D01*
X46524744Y-108918702D01*
X46418421Y-108897553D01*
X46117958Y-108773097D01*
X45847549Y-108592415D01*
X45847546Y-108592413D01*
X45617587Y-108362454D01*
X45436902Y-108092040D01*
X45312447Y-107791578D01*
X45249000Y-107472611D01*
X45249000Y-107147389D01*
X45312447Y-106828422D01*
X45359972Y-106713687D01*
X45412859Y-106586005D01*
X45436902Y-106527960D01*
X45469176Y-106479659D01*
X45617585Y-106257549D01*
X45617587Y-106257546D01*
X45847546Y-106027587D01*
X46075908Y-105875000D01*
X46117958Y-105846903D01*
X46418421Y-105722447D01*
X46524744Y-105701298D01*
X46737389Y-105659000D01*
X47062611Y-105659000D01*
X47275256Y-105701298D01*
X47275256Y-105701298D01*
G37*
G36*
X56023643Y-105269781D02*
X56169415Y-105330162D01*
X56300611Y-105417824D01*
X56412176Y-105529389D01*
X56499838Y-105660585D01*
X56560219Y-105806357D01*
X56591000Y-105961107D01*
X56591000Y-106118893D01*
X56560219Y-106273643D01*
X56499838Y-106419415D01*
X56412176Y-106550611D01*
X56300611Y-106662176D01*
X56169415Y-106749838D01*
X56023643Y-106810219D01*
X55868893Y-106841000D01*
X55711107Y-106841000D01*
X55556357Y-106810219D01*
X55410585Y-106749838D01*
X55279389Y-106662176D01*
X55167824Y-106550611D01*
X55080162Y-106419415D01*
X55019781Y-106273643D01*
X54989000Y-106118893D01*
X54989000Y-105961107D01*
X55019781Y-105806357D01*
X55080162Y-105660585D01*
X55167824Y-105529389D01*
X55279389Y-105417824D01*
X55410585Y-105330162D01*
X55556357Y-105269781D01*
X55711107Y-105239000D01*
X55868893Y-105239000D01*
X56023643Y-105269781D01*
X56023643Y-105269781D01*
G37*
G36*
X90526000Y-106726000D02*
X88824000Y-106726000D01*
X88824000Y-105024000D01*
X90526000Y-105024000D01*
X90526000Y-106726000D01*
X90526000Y-106726000D01*
G37*
G36*
X82221821Y-105036313D02*
X82221824Y-105036314D01*
X82221825Y-105036314D01*
X82382239Y-105084975D01*
X82382241Y-105084976D01*
X82382244Y-105084977D01*
X82530078Y-105163995D01*
X82659659Y-105270341D01*
X82766005Y-105399922D01*
X82845023Y-105547756D01*
X82845024Y-105547759D01*
X82845025Y-105547761D01*
X82893686Y-105708175D01*
X82893687Y-105708179D01*
X82910117Y-105875000D01*
X82893687Y-106041821D01*
X82893686Y-106041824D01*
X82893686Y-106041825D01*
X82870308Y-106118893D01*
X82845023Y-106202244D01*
X82766005Y-106350078D01*
X82659659Y-106479659D01*
X82530078Y-106586005D01*
X82382244Y-106665023D01*
X82382241Y-106665024D01*
X82382239Y-106665025D01*
X82221825Y-106713686D01*
X82221824Y-106713686D01*
X82221821Y-106713687D01*
X82096804Y-106726000D01*
X82013196Y-106726000D01*
X81888179Y-106713687D01*
X81888176Y-106713686D01*
X81888175Y-106713686D01*
X81727761Y-106665025D01*
X81727759Y-106665024D01*
X81727756Y-106665023D01*
X81579922Y-106586005D01*
X81450341Y-106479659D01*
X81343995Y-106350078D01*
X81264977Y-106202244D01*
X81239693Y-106118893D01*
X81216314Y-106041825D01*
X81216314Y-106041824D01*
X81216313Y-106041821D01*
X81199883Y-105875000D01*
X81216313Y-105708179D01*
X81216314Y-105708175D01*
X81264975Y-105547761D01*
X81264976Y-105547759D01*
X81264977Y-105547756D01*
X81343995Y-105399922D01*
X81450341Y-105270341D01*
X81579922Y-105163995D01*
X81727756Y-105084977D01*
X81727759Y-105084976D01*
X81727761Y-105084975D01*
X81888175Y-105036314D01*
X81888176Y-105036314D01*
X81888179Y-105036313D01*
X82013196Y-105024000D01*
X82096804Y-105024000D01*
X82221821Y-105036313D01*
X82221821Y-105036313D01*
G37*
G36*
X53483643Y-103999781D02*
X53629415Y-104060162D01*
X53760611Y-104147824D01*
X53872176Y-104259389D01*
X53959838Y-104390585D01*
X54020219Y-104536357D01*
X54051000Y-104691107D01*
X54051000Y-104848893D01*
X54020219Y-105003643D01*
X53959838Y-105149415D01*
X53872176Y-105280611D01*
X53760611Y-105392176D01*
X53629415Y-105479838D01*
X53483643Y-105540219D01*
X53328893Y-105571000D01*
X53171107Y-105571000D01*
X53016357Y-105540219D01*
X52870585Y-105479838D01*
X52739389Y-105392176D01*
X52627824Y-105280611D01*
X52540162Y-105149415D01*
X52479781Y-105003643D01*
X52449000Y-104848893D01*
X52449000Y-104691107D01*
X52479781Y-104536357D01*
X52540162Y-104390585D01*
X52627824Y-104259389D01*
X52739389Y-104147824D01*
X52870585Y-104060162D01*
X53016357Y-103999781D01*
X53171107Y-103969000D01*
X53328893Y-103969000D01*
X53483643Y-103999781D01*
X53483643Y-103999781D01*
G37*
G36*
X63700997Y-103630341D02*
X63785666Y-103647183D01*
X63851738Y-103674551D01*
X63945177Y-103713255D01*
X64088739Y-103809180D01*
X64210820Y-103931261D01*
X64306745Y-104074823D01*
X64327539Y-104125025D01*
X64372817Y-104234334D01*
X64389659Y-104319003D01*
X64406500Y-104403671D01*
X64406500Y-104576329D01*
X64372817Y-104745665D01*
X64306745Y-104905177D01*
X64210820Y-105048739D01*
X64088739Y-105170820D01*
X63945177Y-105266745D01*
X63911701Y-105280611D01*
X63785666Y-105332817D01*
X63700997Y-105349659D01*
X63616329Y-105366500D01*
X63443671Y-105366500D01*
X63359003Y-105349659D01*
X63274334Y-105332817D01*
X63148299Y-105280611D01*
X63114823Y-105266745D01*
X62971261Y-105170820D01*
X62849180Y-105048739D01*
X62753255Y-104905177D01*
X62687183Y-104745665D01*
X62653500Y-104576329D01*
X62653500Y-104403671D01*
X62670341Y-104319003D01*
X62687183Y-104234334D01*
X62732461Y-104125025D01*
X62753255Y-104074823D01*
X62849180Y-103931261D01*
X62971261Y-103809180D01*
X63114823Y-103713255D01*
X63208262Y-103674551D01*
X63274334Y-103647183D01*
X63359003Y-103630341D01*
X63443671Y-103613500D01*
X63616329Y-103613500D01*
X63700997Y-103630341D01*
X63700997Y-103630341D01*
G37*
G36*
X66946500Y-105366500D02*
X65193500Y-105366500D01*
X65193500Y-103613500D01*
X66946500Y-103613500D01*
X66946500Y-105366500D01*
X66946500Y-105366500D01*
G37*
G36*
X100051500Y-104446500D02*
X98298500Y-104446500D01*
X98298500Y-102693500D01*
X100051500Y-102693500D01*
X100051500Y-104446500D01*
X100051500Y-104446500D01*
G37*
G36*
X56023643Y-102729781D02*
X56169415Y-102790162D01*
X56300611Y-102877824D01*
X56412176Y-102989389D01*
X56499838Y-103120585D01*
X56560219Y-103266357D01*
X56591000Y-103421107D01*
X56591000Y-103578893D01*
X56560219Y-103733643D01*
X56499838Y-103879415D01*
X56412176Y-104010611D01*
X56300611Y-104122176D01*
X56169415Y-104209838D01*
X56023643Y-104270219D01*
X55868893Y-104301000D01*
X55711107Y-104301000D01*
X55556357Y-104270219D01*
X55410585Y-104209838D01*
X55279389Y-104122176D01*
X55167824Y-104010611D01*
X55080162Y-103879415D01*
X55019781Y-103733643D01*
X54989000Y-103578893D01*
X54989000Y-103421107D01*
X55019781Y-103266357D01*
X55080162Y-103120585D01*
X55167824Y-102989389D01*
X55279389Y-102877824D01*
X55410585Y-102790162D01*
X55556357Y-102729781D01*
X55711107Y-102699000D01*
X55868893Y-102699000D01*
X56023643Y-102729781D01*
X56023643Y-102729781D01*
G37*
G36*
X82221821Y-102496313D02*
X82221824Y-102496314D01*
X82221825Y-102496314D01*
X82382239Y-102544975D01*
X82382241Y-102544976D01*
X82382244Y-102544977D01*
X82530078Y-102623995D01*
X82659659Y-102730341D01*
X82766005Y-102859922D01*
X82845023Y-103007756D01*
X82845024Y-103007759D01*
X82845025Y-103007761D01*
X82893686Y-103168175D01*
X82893687Y-103168179D01*
X82910117Y-103335000D01*
X82893687Y-103501821D01*
X82893686Y-103501824D01*
X82893686Y-103501825D01*
X82859810Y-103613500D01*
X82845023Y-103662244D01*
X82766005Y-103810078D01*
X82659659Y-103939659D01*
X82530078Y-104046005D01*
X82382244Y-104125023D01*
X82382241Y-104125024D01*
X82382239Y-104125025D01*
X82221825Y-104173686D01*
X82221824Y-104173686D01*
X82221821Y-104173687D01*
X82096804Y-104186000D01*
X82013196Y-104186000D01*
X81888179Y-104173687D01*
X81888176Y-104173686D01*
X81888175Y-104173686D01*
X81727761Y-104125025D01*
X81727759Y-104125024D01*
X81727756Y-104125023D01*
X81579922Y-104046005D01*
X81450341Y-103939659D01*
X81343995Y-103810078D01*
X81264977Y-103662244D01*
X81250191Y-103613500D01*
X81216314Y-103501825D01*
X81216314Y-103501824D01*
X81216313Y-103501821D01*
X81199883Y-103335000D01*
X81216313Y-103168179D01*
X81216314Y-103168175D01*
X81264975Y-103007761D01*
X81264976Y-103007759D01*
X81264977Y-103007756D01*
X81343995Y-102859922D01*
X81450341Y-102730341D01*
X81579922Y-102623995D01*
X81727756Y-102544977D01*
X81727759Y-102544976D01*
X81727761Y-102544975D01*
X81888175Y-102496314D01*
X81888176Y-102496314D01*
X81888179Y-102496313D01*
X82013196Y-102484000D01*
X82096804Y-102484000D01*
X82221821Y-102496313D01*
X82221821Y-102496313D01*
G37*
G36*
X89841821Y-102496313D02*
X89841824Y-102496314D01*
X89841825Y-102496314D01*
X90002239Y-102544975D01*
X90002241Y-102544976D01*
X90002244Y-102544977D01*
X90150078Y-102623995D01*
X90279659Y-102730341D01*
X90386005Y-102859922D01*
X90465023Y-103007756D01*
X90465024Y-103007759D01*
X90465025Y-103007761D01*
X90513686Y-103168175D01*
X90513687Y-103168179D01*
X90530117Y-103335000D01*
X90513687Y-103501821D01*
X90513686Y-103501824D01*
X90513686Y-103501825D01*
X90479810Y-103613500D01*
X90465023Y-103662244D01*
X90386005Y-103810078D01*
X90279659Y-103939659D01*
X90150078Y-104046005D01*
X90002244Y-104125023D01*
X90002241Y-104125024D01*
X90002239Y-104125025D01*
X89841825Y-104173686D01*
X89841824Y-104173686D01*
X89841821Y-104173687D01*
X89716804Y-104186000D01*
X89633196Y-104186000D01*
X89508179Y-104173687D01*
X89508176Y-104173686D01*
X89508175Y-104173686D01*
X89347761Y-104125025D01*
X89347759Y-104125024D01*
X89347756Y-104125023D01*
X89199922Y-104046005D01*
X89070341Y-103939659D01*
X88963995Y-103810078D01*
X88884977Y-103662244D01*
X88870191Y-103613500D01*
X88836314Y-103501825D01*
X88836314Y-103501824D01*
X88836313Y-103501821D01*
X88819883Y-103335000D01*
X88836313Y-103168179D01*
X88836314Y-103168175D01*
X88884975Y-103007761D01*
X88884976Y-103007759D01*
X88884977Y-103007756D01*
X88963995Y-102859922D01*
X89070341Y-102730341D01*
X89199922Y-102623995D01*
X89347756Y-102544977D01*
X89347759Y-102544976D01*
X89347761Y-102544975D01*
X89508175Y-102496314D01*
X89508176Y-102496314D01*
X89508179Y-102496313D01*
X89633196Y-102484000D01*
X89716804Y-102484000D01*
X89841821Y-102496313D01*
X89841821Y-102496313D01*
G37*
G36*
X53483643Y-101459781D02*
X53629415Y-101520162D01*
X53760611Y-101607824D01*
X53872176Y-101719389D01*
X53959838Y-101850585D01*
X54020219Y-101996357D01*
X54051000Y-102151107D01*
X54051000Y-102308893D01*
X54020219Y-102463643D01*
X53959838Y-102609415D01*
X53872176Y-102740611D01*
X53760611Y-102852176D01*
X53629415Y-102939838D01*
X53483643Y-103000219D01*
X53328893Y-103031000D01*
X53171107Y-103031000D01*
X53016357Y-103000219D01*
X52870585Y-102939838D01*
X52739389Y-102852176D01*
X52627824Y-102740611D01*
X52540162Y-102609415D01*
X52479781Y-102463643D01*
X52449000Y-102308893D01*
X52449000Y-102151107D01*
X52479781Y-101996357D01*
X52540162Y-101850585D01*
X52627824Y-101719389D01*
X52739389Y-101607824D01*
X52870585Y-101520162D01*
X53016357Y-101459781D01*
X53171107Y-101429000D01*
X53328893Y-101429000D01*
X53483643Y-101459781D01*
X53483643Y-101459781D01*
G37*
G36*
X63700997Y-101090341D02*
X63785666Y-101107183D01*
X63851738Y-101134551D01*
X63945177Y-101173255D01*
X64088739Y-101269180D01*
X64210820Y-101391261D01*
X64306745Y-101534823D01*
X64336982Y-101607822D01*
X64372817Y-101694334D01*
X64389659Y-101779003D01*
X64406500Y-101863671D01*
X64406500Y-102036329D01*
X64372817Y-102205665D01*
X64306745Y-102365177D01*
X64210820Y-102508739D01*
X64088739Y-102630820D01*
X63945177Y-102726745D01*
X63911701Y-102740611D01*
X63785666Y-102792817D01*
X63700997Y-102809658D01*
X63616329Y-102826500D01*
X63443671Y-102826500D01*
X63359003Y-102809658D01*
X63274334Y-102792817D01*
X63148299Y-102740611D01*
X63114823Y-102726745D01*
X62971261Y-102630820D01*
X62849180Y-102508739D01*
X62753255Y-102365177D01*
X62687183Y-102205665D01*
X62653500Y-102036329D01*
X62653500Y-101863671D01*
X62670342Y-101779003D01*
X62687183Y-101694334D01*
X62723018Y-101607822D01*
X62753255Y-101534823D01*
X62849180Y-101391261D01*
X62971261Y-101269180D01*
X63114823Y-101173255D01*
X63208262Y-101134551D01*
X63274334Y-101107183D01*
X63359003Y-101090342D01*
X63443671Y-101073500D01*
X63616329Y-101073500D01*
X63700997Y-101090341D01*
X63700997Y-101090341D01*
G37*
G36*
X66240997Y-101090341D02*
X66325666Y-101107183D01*
X66391738Y-101134551D01*
X66485177Y-101173255D01*
X66628739Y-101269180D01*
X66750820Y-101391261D01*
X66846745Y-101534823D01*
X66876982Y-101607822D01*
X66912817Y-101694334D01*
X66929659Y-101779003D01*
X66946500Y-101863671D01*
X66946500Y-102036329D01*
X66912817Y-102205665D01*
X66846745Y-102365177D01*
X66750820Y-102508739D01*
X66628739Y-102630820D01*
X66485177Y-102726745D01*
X66451701Y-102740611D01*
X66325666Y-102792817D01*
X66240997Y-102809658D01*
X66156329Y-102826500D01*
X65983671Y-102826500D01*
X65899003Y-102809658D01*
X65814334Y-102792817D01*
X65688299Y-102740611D01*
X65654823Y-102726745D01*
X65511261Y-102630820D01*
X65389180Y-102508739D01*
X65293255Y-102365177D01*
X65227183Y-102205665D01*
X65193500Y-102036329D01*
X65193500Y-101863671D01*
X65210342Y-101779003D01*
X65227183Y-101694334D01*
X65263018Y-101607822D01*
X65293255Y-101534823D01*
X65389180Y-101391261D01*
X65511261Y-101269180D01*
X65654823Y-101173255D01*
X65748262Y-101134551D01*
X65814334Y-101107183D01*
X65899003Y-101090342D01*
X65983671Y-101073500D01*
X66156329Y-101073500D01*
X66240997Y-101090341D01*
X66240997Y-101090341D01*
G37*
G36*
X99288979Y-100159000D02*
X99430666Y-100187183D01*
X99496738Y-100214551D01*
X99590177Y-100253255D01*
X99733739Y-100349180D01*
X99855820Y-100471261D01*
X99951745Y-100614823D01*
X100017817Y-100774335D01*
X100051500Y-100943671D01*
X100051500Y-101116329D01*
X100036121Y-101193643D01*
X100020918Y-101270078D01*
X100017817Y-101285665D01*
X99951745Y-101445177D01*
X99855820Y-101588739D01*
X99733739Y-101710820D01*
X99590177Y-101806745D01*
X99496738Y-101845449D01*
X99430666Y-101872817D01*
X99345997Y-101889659D01*
X99261329Y-101906500D01*
X99088671Y-101906500D01*
X99004003Y-101889659D01*
X98919334Y-101872817D01*
X98853262Y-101845449D01*
X98759823Y-101806745D01*
X98616261Y-101710820D01*
X98494180Y-101588739D01*
X98398255Y-101445177D01*
X98332183Y-101285665D01*
X98329083Y-101270078D01*
X98313879Y-101193643D01*
X98298500Y-101116329D01*
X98298500Y-100943671D01*
X98332183Y-100774335D01*
X98398255Y-100614823D01*
X98494180Y-100471261D01*
X98616261Y-100349180D01*
X98759823Y-100253255D01*
X98853262Y-100214551D01*
X98919334Y-100187183D01*
X99061021Y-100159000D01*
X99088671Y-100153500D01*
X99261329Y-100153500D01*
X99288979Y-100159000D01*
X99288979Y-100159000D01*
G37*
G36*
X56023643Y-100189781D02*
X56169415Y-100250162D01*
X56300611Y-100337824D01*
X56412176Y-100449389D01*
X56499838Y-100580585D01*
X56560219Y-100726357D01*
X56591000Y-100881107D01*
X56591000Y-101038893D01*
X56560219Y-101193643D01*
X56499838Y-101339415D01*
X56412176Y-101470611D01*
X56300611Y-101582176D01*
X56169415Y-101669838D01*
X56023643Y-101730219D01*
X55868893Y-101761000D01*
X55711107Y-101761000D01*
X55556357Y-101730219D01*
X55410585Y-101669838D01*
X55279389Y-101582176D01*
X55167824Y-101470611D01*
X55080162Y-101339415D01*
X55019781Y-101193643D01*
X54989000Y-101038893D01*
X54989000Y-100881107D01*
X55019781Y-100726357D01*
X55080162Y-100580585D01*
X55167824Y-100449389D01*
X55279389Y-100337824D01*
X55410585Y-100250162D01*
X55556357Y-100189781D01*
X55711107Y-100159000D01*
X55868893Y-100159000D01*
X56023643Y-100189781D01*
X56023643Y-100189781D01*
G37*
G36*
X89841821Y-99956313D02*
X89841824Y-99956314D01*
X89841825Y-99956314D01*
X90002239Y-100004975D01*
X90002241Y-100004976D01*
X90002244Y-100004977D01*
X90150078Y-100083995D01*
X90279659Y-100190341D01*
X90386005Y-100319922D01*
X90465023Y-100467756D01*
X90465024Y-100467759D01*
X90465025Y-100467761D01*
X90513686Y-100628175D01*
X90513687Y-100628179D01*
X90530117Y-100795000D01*
X90513687Y-100961821D01*
X90513686Y-100961824D01*
X90513686Y-100961825D01*
X90466818Y-101116329D01*
X90465023Y-101122244D01*
X90386005Y-101270078D01*
X90279659Y-101399659D01*
X90150078Y-101506005D01*
X90002244Y-101585023D01*
X90002241Y-101585024D01*
X90002239Y-101585025D01*
X89841825Y-101633686D01*
X89841824Y-101633686D01*
X89841821Y-101633687D01*
X89716804Y-101646000D01*
X89633196Y-101646000D01*
X89508179Y-101633687D01*
X89508176Y-101633686D01*
X89508175Y-101633686D01*
X89347761Y-101585025D01*
X89347759Y-101585024D01*
X89347756Y-101585023D01*
X89199922Y-101506005D01*
X89070341Y-101399659D01*
X88963995Y-101270078D01*
X88884977Y-101122244D01*
X88883183Y-101116329D01*
X88836314Y-100961825D01*
X88836314Y-100961824D01*
X88836313Y-100961821D01*
X88819883Y-100795000D01*
X88836313Y-100628179D01*
X88836314Y-100628175D01*
X88884975Y-100467761D01*
X88884976Y-100467759D01*
X88884977Y-100467756D01*
X88963995Y-100319922D01*
X89070341Y-100190341D01*
X89199922Y-100083995D01*
X89347756Y-100004977D01*
X89347759Y-100004976D01*
X89347761Y-100004975D01*
X89508175Y-99956314D01*
X89508176Y-99956314D01*
X89508179Y-99956313D01*
X89633196Y-99944000D01*
X89716804Y-99944000D01*
X89841821Y-99956313D01*
X89841821Y-99956313D01*
G37*
G36*
X82221821Y-99956313D02*
X82221824Y-99956314D01*
X82221825Y-99956314D01*
X82382239Y-100004975D01*
X82382241Y-100004976D01*
X82382244Y-100004977D01*
X82530078Y-100083995D01*
X82659659Y-100190341D01*
X82766005Y-100319922D01*
X82845023Y-100467756D01*
X82845024Y-100467759D01*
X82845025Y-100467761D01*
X82893686Y-100628175D01*
X82893687Y-100628179D01*
X82910117Y-100795000D01*
X82893687Y-100961821D01*
X82893686Y-100961824D01*
X82893686Y-100961825D01*
X82846818Y-101116329D01*
X82845023Y-101122244D01*
X82766005Y-101270078D01*
X82659659Y-101399659D01*
X82530078Y-101506005D01*
X82382244Y-101585023D01*
X82382241Y-101585024D01*
X82382239Y-101585025D01*
X82221825Y-101633686D01*
X82221824Y-101633686D01*
X82221821Y-101633687D01*
X82096804Y-101646000D01*
X82013196Y-101646000D01*
X81888179Y-101633687D01*
X81888176Y-101633686D01*
X81888175Y-101633686D01*
X81727761Y-101585025D01*
X81727759Y-101585024D01*
X81727756Y-101585023D01*
X81579922Y-101506005D01*
X81450341Y-101399659D01*
X81343995Y-101270078D01*
X81264977Y-101122244D01*
X81263183Y-101116329D01*
X81216314Y-100961825D01*
X81216314Y-100961824D01*
X81216313Y-100961821D01*
X81199883Y-100795000D01*
X81216313Y-100628179D01*
X81216314Y-100628175D01*
X81264975Y-100467761D01*
X81264976Y-100467759D01*
X81264977Y-100467756D01*
X81343995Y-100319922D01*
X81450341Y-100190341D01*
X81579922Y-100083995D01*
X81727756Y-100004977D01*
X81727759Y-100004976D01*
X81727761Y-100004975D01*
X81888175Y-99956314D01*
X81888176Y-99956314D01*
X81888179Y-99956313D01*
X82013196Y-99944000D01*
X82096804Y-99944000D01*
X82221821Y-99956313D01*
X82221821Y-99956313D01*
G37*
G36*
X53483643Y-98919781D02*
X53629415Y-98980162D01*
X53760611Y-99067824D01*
X53872176Y-99179389D01*
X53959838Y-99310585D01*
X54020219Y-99456357D01*
X54051000Y-99611107D01*
X54051000Y-99768893D01*
X54020219Y-99923643D01*
X53959838Y-100069415D01*
X53872176Y-100200611D01*
X53760611Y-100312176D01*
X53629415Y-100399838D01*
X53483643Y-100460219D01*
X53328893Y-100491000D01*
X53171107Y-100491000D01*
X53016357Y-100460219D01*
X52870585Y-100399838D01*
X52739389Y-100312176D01*
X52627824Y-100200611D01*
X52540162Y-100069415D01*
X52479781Y-99923643D01*
X52449000Y-99768893D01*
X52449000Y-99611107D01*
X52479781Y-99456357D01*
X52540162Y-99310585D01*
X52627824Y-99179389D01*
X52739389Y-99067824D01*
X52870585Y-98980162D01*
X53016357Y-98919781D01*
X53171107Y-98889000D01*
X53328893Y-98889000D01*
X53483643Y-98919781D01*
X53483643Y-98919781D01*
G37*
G36*
X63700997Y-98550341D02*
X63785666Y-98567183D01*
X63851738Y-98594551D01*
X63945177Y-98633255D01*
X64088739Y-98729180D01*
X64210820Y-98851261D01*
X64306745Y-98994823D01*
X64327539Y-99045025D01*
X64372817Y-99154334D01*
X64389659Y-99239003D01*
X64406500Y-99323671D01*
X64406500Y-99496329D01*
X64372817Y-99665665D01*
X64306745Y-99825177D01*
X64210820Y-99968739D01*
X64088739Y-100090820D01*
X63945177Y-100186745D01*
X63911701Y-100200611D01*
X63785666Y-100252817D01*
X63700997Y-100269658D01*
X63616329Y-100286500D01*
X63443671Y-100286500D01*
X63359003Y-100269658D01*
X63274334Y-100252817D01*
X63148299Y-100200611D01*
X63114823Y-100186745D01*
X62971261Y-100090820D01*
X62849180Y-99968739D01*
X62753255Y-99825177D01*
X62687183Y-99665665D01*
X62653500Y-99496329D01*
X62653500Y-99323671D01*
X62670341Y-99239003D01*
X62687183Y-99154334D01*
X62732461Y-99045025D01*
X62753255Y-98994823D01*
X62849180Y-98851261D01*
X62971261Y-98729180D01*
X63114823Y-98633255D01*
X63208262Y-98594551D01*
X63274334Y-98567183D01*
X63359003Y-98550341D01*
X63443671Y-98533500D01*
X63616329Y-98533500D01*
X63700997Y-98550341D01*
X63700997Y-98550341D01*
G37*
G36*
X66240997Y-98550341D02*
X66325666Y-98567183D01*
X66391738Y-98594551D01*
X66485177Y-98633255D01*
X66628739Y-98729180D01*
X66750820Y-98851261D01*
X66846745Y-98994823D01*
X66867539Y-99045025D01*
X66912817Y-99154334D01*
X66929659Y-99239003D01*
X66946500Y-99323671D01*
X66946500Y-99496329D01*
X66912817Y-99665665D01*
X66846745Y-99825177D01*
X66750820Y-99968739D01*
X66628739Y-100090820D01*
X66485177Y-100186745D01*
X66451701Y-100200611D01*
X66325666Y-100252817D01*
X66240997Y-100269658D01*
X66156329Y-100286500D01*
X65983671Y-100286500D01*
X65899003Y-100269658D01*
X65814334Y-100252817D01*
X65688299Y-100200611D01*
X65654823Y-100186745D01*
X65511261Y-100090820D01*
X65389180Y-99968739D01*
X65293255Y-99825177D01*
X65227183Y-99665665D01*
X65193500Y-99496329D01*
X65193500Y-99323671D01*
X65210341Y-99239003D01*
X65227183Y-99154334D01*
X65272461Y-99045025D01*
X65293255Y-98994823D01*
X65389180Y-98851261D01*
X65511261Y-98729180D01*
X65654823Y-98633255D01*
X65748262Y-98594551D01*
X65814334Y-98567183D01*
X65899003Y-98550341D01*
X65983671Y-98533500D01*
X66156329Y-98533500D01*
X66240997Y-98550341D01*
X66240997Y-98550341D01*
G37*
G36*
X106517135Y-97708386D02*
X106624650Y-97729772D01*
X106827203Y-97813672D01*
X106970453Y-97909389D01*
X107009499Y-97935479D01*
X107164521Y-98090501D01*
X107164523Y-98090504D01*
X107286328Y-98272797D01*
X107348057Y-98421825D01*
X107370228Y-98475351D01*
X107413000Y-98690378D01*
X107413000Y-98909622D01*
X107398968Y-98980163D01*
X107370228Y-99124650D01*
X107286328Y-99327203D01*
X107173322Y-99496328D01*
X107164521Y-99509499D01*
X107009499Y-99664521D01*
X107009496Y-99664523D01*
X106827203Y-99786328D01*
X106624650Y-99870228D01*
X106517135Y-99891614D01*
X106409622Y-99913000D01*
X106190378Y-99913000D01*
X106082865Y-99891614D01*
X105975350Y-99870228D01*
X105772797Y-99786328D01*
X105590504Y-99664523D01*
X105590501Y-99664521D01*
X105435479Y-99509499D01*
X105426678Y-99496328D01*
X105313672Y-99327203D01*
X105229772Y-99124650D01*
X105201032Y-98980163D01*
X105187000Y-98909622D01*
X105187000Y-98690378D01*
X105229772Y-98475351D01*
X105251943Y-98421825D01*
X105313672Y-98272797D01*
X105435477Y-98090504D01*
X105435479Y-98090501D01*
X105590501Y-97935479D01*
X105629547Y-97909389D01*
X105772797Y-97813672D01*
X105975350Y-97729772D01*
X106082865Y-97708386D01*
X106190378Y-97687000D01*
X106409622Y-97687000D01*
X106517135Y-97708386D01*
X106517135Y-97708386D01*
G37*
G36*
X56023643Y-97649781D02*
X56169415Y-97710162D01*
X56300611Y-97797824D01*
X56412176Y-97909389D01*
X56499838Y-98040585D01*
X56560219Y-98186357D01*
X56591000Y-98341107D01*
X56591000Y-98498893D01*
X56560219Y-98653643D01*
X56499838Y-98799415D01*
X56412176Y-98930611D01*
X56300611Y-99042176D01*
X56169415Y-99129838D01*
X56023643Y-99190219D01*
X55868893Y-99221000D01*
X55711107Y-99221000D01*
X55556357Y-99190219D01*
X55410585Y-99129838D01*
X55279389Y-99042176D01*
X55167824Y-98930611D01*
X55080162Y-98799415D01*
X55019781Y-98653643D01*
X54989000Y-98498893D01*
X54989000Y-98341107D01*
X55019781Y-98186357D01*
X55080162Y-98040585D01*
X55167824Y-97909389D01*
X55279389Y-97797824D01*
X55410585Y-97710162D01*
X55556357Y-97649781D01*
X55711107Y-97619000D01*
X55868893Y-97619000D01*
X56023643Y-97649781D01*
X56023643Y-97649781D01*
G37*
G36*
X89841821Y-97416313D02*
X89841824Y-97416314D01*
X89841825Y-97416314D01*
X90002239Y-97464975D01*
X90002241Y-97464976D01*
X90002244Y-97464977D01*
X90150078Y-97543995D01*
X90279659Y-97650341D01*
X90386005Y-97779922D01*
X90465023Y-97927756D01*
X90465024Y-97927759D01*
X90465025Y-97927761D01*
X90513686Y-98088175D01*
X90513687Y-98088179D01*
X90530117Y-98255000D01*
X90513687Y-98421821D01*
X90513686Y-98421824D01*
X90513686Y-98421825D01*
X90479810Y-98533500D01*
X90465023Y-98582244D01*
X90386005Y-98730078D01*
X90279659Y-98859659D01*
X90150078Y-98966005D01*
X90002244Y-99045023D01*
X90002241Y-99045024D01*
X90002239Y-99045025D01*
X89841825Y-99093686D01*
X89841824Y-99093686D01*
X89841821Y-99093687D01*
X89716804Y-99106000D01*
X89633196Y-99106000D01*
X89508179Y-99093687D01*
X89508176Y-99093686D01*
X89508175Y-99093686D01*
X89347761Y-99045025D01*
X89347759Y-99045024D01*
X89347756Y-99045023D01*
X89199922Y-98966005D01*
X89070341Y-98859659D01*
X88963995Y-98730078D01*
X88884977Y-98582244D01*
X88870191Y-98533500D01*
X88836314Y-98421825D01*
X88836314Y-98421824D01*
X88836313Y-98421821D01*
X88819883Y-98255000D01*
X88836313Y-98088179D01*
X88836314Y-98088175D01*
X88884975Y-97927761D01*
X88884976Y-97927759D01*
X88884977Y-97927756D01*
X88963995Y-97779922D01*
X89070341Y-97650341D01*
X89199922Y-97543995D01*
X89347756Y-97464977D01*
X89347759Y-97464976D01*
X89347761Y-97464975D01*
X89508175Y-97416314D01*
X89508176Y-97416314D01*
X89508179Y-97416313D01*
X89633196Y-97404000D01*
X89716804Y-97404000D01*
X89841821Y-97416313D01*
X89841821Y-97416313D01*
G37*
G36*
X82221821Y-97416313D02*
X82221824Y-97416314D01*
X82221825Y-97416314D01*
X82382239Y-97464975D01*
X82382241Y-97464976D01*
X82382244Y-97464977D01*
X82530078Y-97543995D01*
X82659659Y-97650341D01*
X82766005Y-97779922D01*
X82845023Y-97927756D01*
X82845024Y-97927759D01*
X82845025Y-97927761D01*
X82893686Y-98088175D01*
X82893687Y-98088179D01*
X82910117Y-98255000D01*
X82893687Y-98421821D01*
X82893686Y-98421824D01*
X82893686Y-98421825D01*
X82859810Y-98533500D01*
X82845023Y-98582244D01*
X82766005Y-98730078D01*
X82659659Y-98859659D01*
X82530078Y-98966005D01*
X82382244Y-99045023D01*
X82382241Y-99045024D01*
X82382239Y-99045025D01*
X82221825Y-99093686D01*
X82221824Y-99093686D01*
X82221821Y-99093687D01*
X82096804Y-99106000D01*
X82013196Y-99106000D01*
X81888179Y-99093687D01*
X81888176Y-99093686D01*
X81888175Y-99093686D01*
X81727761Y-99045025D01*
X81727759Y-99045024D01*
X81727756Y-99045023D01*
X81579922Y-98966005D01*
X81450341Y-98859659D01*
X81343995Y-98730078D01*
X81264977Y-98582244D01*
X81250191Y-98533500D01*
X81216314Y-98421825D01*
X81216314Y-98421824D01*
X81216313Y-98421821D01*
X81199883Y-98255000D01*
X81216313Y-98088179D01*
X81216314Y-98088175D01*
X81264975Y-97927761D01*
X81264976Y-97927759D01*
X81264977Y-97927756D01*
X81343995Y-97779922D01*
X81450341Y-97650341D01*
X81579922Y-97543995D01*
X81727756Y-97464977D01*
X81727759Y-97464976D01*
X81727761Y-97464975D01*
X81888175Y-97416314D01*
X81888176Y-97416314D01*
X81888179Y-97416313D01*
X82013196Y-97404000D01*
X82096804Y-97404000D01*
X82221821Y-97416313D01*
X82221821Y-97416313D01*
G37*
G36*
X54051000Y-97951000D02*
X52449000Y-97951000D01*
X52449000Y-96349000D01*
X54051000Y-96349000D01*
X54051000Y-97951000D01*
X54051000Y-97951000D01*
G37*
G36*
X47275256Y-94271298D02*
X47381579Y-94292447D01*
X47682042Y-94416903D01*
X47820617Y-94509496D01*
X47952454Y-94597587D01*
X48182413Y-94827546D01*
X48363098Y-95097960D01*
X48487553Y-95398422D01*
X48551000Y-95717389D01*
X48551000Y-96042611D01*
X48487553Y-96361578D01*
X48363098Y-96662040D01*
X48182413Y-96932454D01*
X47952454Y-97162413D01*
X47952451Y-97162415D01*
X47682042Y-97343097D01*
X47381579Y-97467553D01*
X47275256Y-97488702D01*
X47062611Y-97531000D01*
X46737389Y-97531000D01*
X46524744Y-97488702D01*
X46418421Y-97467553D01*
X46117958Y-97343097D01*
X45847549Y-97162415D01*
X45847546Y-97162413D01*
X45617587Y-96932454D01*
X45436902Y-96662040D01*
X45312447Y-96361578D01*
X45249000Y-96042611D01*
X45249000Y-95717389D01*
X45312447Y-95398422D01*
X45436902Y-95097960D01*
X45617587Y-94827546D01*
X45847546Y-94597587D01*
X45979383Y-94509496D01*
X46117958Y-94416903D01*
X46418421Y-94292447D01*
X46524744Y-94271298D01*
X46737389Y-94229000D01*
X47062611Y-94229000D01*
X47275256Y-94271298D01*
X47275256Y-94271298D01*
G37*
G36*
X116624650Y-95229772D02*
X116827203Y-95313672D01*
X117008267Y-95434656D01*
X117009499Y-95435479D01*
X117164521Y-95590501D01*
X117164523Y-95590504D01*
X117286328Y-95772797D01*
X117370228Y-95975350D01*
X117413000Y-96190379D01*
X117413000Y-96409621D01*
X117370228Y-96624650D01*
X117286328Y-96827203D01*
X117216003Y-96932451D01*
X117164521Y-97009499D01*
X117009499Y-97164521D01*
X117009496Y-97164523D01*
X116827203Y-97286328D01*
X116624650Y-97370228D01*
X116409622Y-97413000D01*
X116190378Y-97413000D01*
X115975350Y-97370228D01*
X115772797Y-97286328D01*
X115590504Y-97164523D01*
X115590501Y-97164521D01*
X115435479Y-97009499D01*
X115383997Y-96932451D01*
X115313672Y-96827203D01*
X115229772Y-96624650D01*
X115187000Y-96409621D01*
X115187000Y-96190379D01*
X115229772Y-95975350D01*
X115313672Y-95772797D01*
X115435477Y-95590504D01*
X115435479Y-95590501D01*
X115590501Y-95435479D01*
X115591733Y-95434656D01*
X115772797Y-95313672D01*
X115975350Y-95229772D01*
X116190378Y-95187000D01*
X116409622Y-95187000D01*
X116624650Y-95229772D01*
X116624650Y-95229772D01*
G37*
G36*
X104124650Y-95229772D02*
X104327203Y-95313672D01*
X104508267Y-95434656D01*
X104509499Y-95435479D01*
X104664521Y-95590501D01*
X104664523Y-95590504D01*
X104786328Y-95772797D01*
X104870228Y-95975350D01*
X104913000Y-96190379D01*
X104913000Y-96409621D01*
X104870228Y-96624650D01*
X104786328Y-96827203D01*
X104716003Y-96932451D01*
X104664521Y-97009499D01*
X104509499Y-97164521D01*
X104509496Y-97164523D01*
X104327203Y-97286328D01*
X104124650Y-97370228D01*
X103909622Y-97413000D01*
X103690378Y-97413000D01*
X103475350Y-97370228D01*
X103272797Y-97286328D01*
X103090504Y-97164523D01*
X103090501Y-97164521D01*
X102935479Y-97009499D01*
X102883997Y-96932451D01*
X102813672Y-96827203D01*
X102729772Y-96624650D01*
X102687000Y-96409621D01*
X102687000Y-96190379D01*
X102729772Y-95975350D01*
X102813672Y-95772797D01*
X102935477Y-95590504D01*
X102935479Y-95590501D01*
X103090501Y-95435479D01*
X103091733Y-95434656D01*
X103272797Y-95313672D01*
X103475350Y-95229772D01*
X103690378Y-95187000D01*
X103909622Y-95187000D01*
X104124650Y-95229772D01*
X104124650Y-95229772D01*
G37*
G36*
X116493432Y-92703671D02*
X116624650Y-92729772D01*
X116827203Y-92813672D01*
X116920975Y-92876329D01*
X117009499Y-92935479D01*
X117164521Y-93090501D01*
X117164523Y-93090504D01*
X117286328Y-93272797D01*
X117370228Y-93475350D01*
X117413000Y-93690379D01*
X117413000Y-93909621D01*
X117370228Y-94124650D01*
X117286328Y-94327203D01*
X117226392Y-94416903D01*
X117164521Y-94509499D01*
X117009499Y-94664521D01*
X117009496Y-94664523D01*
X116827203Y-94786328D01*
X116624650Y-94870228D01*
X116517135Y-94891614D01*
X116409622Y-94913000D01*
X116190378Y-94913000D01*
X115975350Y-94870228D01*
X115772797Y-94786328D01*
X115590504Y-94664523D01*
X115590501Y-94664521D01*
X115435479Y-94509499D01*
X115373608Y-94416903D01*
X115313672Y-94327203D01*
X115229772Y-94124650D01*
X115187000Y-93909621D01*
X115187000Y-93690379D01*
X115229772Y-93475350D01*
X115313672Y-93272797D01*
X115435477Y-93090504D01*
X115435479Y-93090501D01*
X115590501Y-92935479D01*
X115679025Y-92876329D01*
X115772797Y-92813672D01*
X115975350Y-92729772D01*
X116106568Y-92703671D01*
X116190378Y-92687000D01*
X116409622Y-92687000D01*
X116493432Y-92703671D01*
X116493432Y-92703671D01*
G37*
G36*
X63850997Y-91930341D02*
X63935666Y-91947183D01*
X64001738Y-91974551D01*
X64095177Y-92013255D01*
X64238739Y-92109180D01*
X64360820Y-92231261D01*
X64456745Y-92374823D01*
X64522817Y-92534335D01*
X64556500Y-92703671D01*
X64556500Y-92876329D01*
X64522817Y-93045665D01*
X64456745Y-93205177D01*
X64360820Y-93348739D01*
X64238739Y-93470820D01*
X64095177Y-93566745D01*
X64001738Y-93605449D01*
X63935666Y-93632817D01*
X63850997Y-93649658D01*
X63766329Y-93666500D01*
X63593671Y-93666500D01*
X63509003Y-93649658D01*
X63424334Y-93632817D01*
X63358262Y-93605449D01*
X63264823Y-93566745D01*
X63121261Y-93470820D01*
X62999180Y-93348739D01*
X62903255Y-93205177D01*
X62837183Y-93045665D01*
X62803500Y-92876329D01*
X62803500Y-92703671D01*
X62837183Y-92534335D01*
X62903255Y-92374823D01*
X62999180Y-92231261D01*
X63121261Y-92109180D01*
X63264823Y-92013255D01*
X63358262Y-91974551D01*
X63424334Y-91947183D01*
X63509003Y-91930341D01*
X63593671Y-91913500D01*
X63766329Y-91913500D01*
X63850997Y-91930341D01*
X63850997Y-91930341D01*
G37*
G36*
X67096500Y-93666500D02*
X65343500Y-93666500D01*
X65343500Y-91913500D01*
X67096500Y-91913500D01*
X67096500Y-93666500D01*
X67096500Y-93666500D01*
G37*
G36*
X106517135Y-90208386D02*
X106624650Y-90229772D01*
X106827203Y-90313672D01*
X106861111Y-90336329D01*
X107009499Y-90435479D01*
X107164521Y-90590501D01*
X107164523Y-90590504D01*
X107286328Y-90772797D01*
X107370228Y-90975350D01*
X107413000Y-91190379D01*
X107413000Y-91409621D01*
X107370228Y-91624650D01*
X107286328Y-91827203D01*
X107228666Y-91913500D01*
X107164521Y-92009499D01*
X107009499Y-92164521D01*
X107009496Y-92164523D01*
X106827203Y-92286328D01*
X106624650Y-92370228D01*
X106601554Y-92374822D01*
X106409622Y-92413000D01*
X106190378Y-92413000D01*
X105998446Y-92374822D01*
X105975350Y-92370228D01*
X105772797Y-92286328D01*
X105590504Y-92164523D01*
X105590501Y-92164521D01*
X105435479Y-92009499D01*
X105371334Y-91913500D01*
X105313672Y-91827203D01*
X105229772Y-91624650D01*
X105187000Y-91409621D01*
X105187000Y-91190379D01*
X105229772Y-90975350D01*
X105313672Y-90772797D01*
X105435477Y-90590504D01*
X105435479Y-90590501D01*
X105590501Y-90435479D01*
X105738889Y-90336329D01*
X105772797Y-90313672D01*
X105975350Y-90229772D01*
X106082865Y-90208386D01*
X106190378Y-90187000D01*
X106409622Y-90187000D01*
X106517135Y-90208386D01*
X106517135Y-90208386D01*
G37*
G36*
X63850997Y-89390342D02*
X63935666Y-89407183D01*
X64001738Y-89434551D01*
X64095177Y-89473255D01*
X64238739Y-89569180D01*
X64360820Y-89691261D01*
X64456745Y-89834823D01*
X64522817Y-89994335D01*
X64556500Y-90163671D01*
X64556500Y-90336329D01*
X64522817Y-90505665D01*
X64456745Y-90665177D01*
X64360820Y-90808739D01*
X64238739Y-90930820D01*
X64095177Y-91026745D01*
X64001738Y-91065449D01*
X63935666Y-91092817D01*
X63850997Y-91109658D01*
X63766329Y-91126500D01*
X63593671Y-91126500D01*
X63509003Y-91109658D01*
X63424334Y-91092817D01*
X63358262Y-91065449D01*
X63264823Y-91026745D01*
X63121261Y-90930820D01*
X62999180Y-90808739D01*
X62903255Y-90665177D01*
X62837183Y-90505665D01*
X62803500Y-90336329D01*
X62803500Y-90163671D01*
X62837183Y-89994335D01*
X62903255Y-89834823D01*
X62999180Y-89691261D01*
X63121261Y-89569180D01*
X63264823Y-89473255D01*
X63358262Y-89434551D01*
X63424334Y-89407183D01*
X63509003Y-89390342D01*
X63593671Y-89373500D01*
X63766329Y-89373500D01*
X63850997Y-89390342D01*
X63850997Y-89390342D01*
G37*
G36*
X66390997Y-89390342D02*
X66475666Y-89407183D01*
X66541738Y-89434551D01*
X66635177Y-89473255D01*
X66778739Y-89569180D01*
X66900820Y-89691261D01*
X66996745Y-89834823D01*
X67062817Y-89994335D01*
X67096500Y-90163671D01*
X67096500Y-90336329D01*
X67062817Y-90505665D01*
X66996745Y-90665177D01*
X66900820Y-90808739D01*
X66778739Y-90930820D01*
X66635177Y-91026745D01*
X66541738Y-91065449D01*
X66475666Y-91092817D01*
X66390997Y-91109658D01*
X66306329Y-91126500D01*
X66133671Y-91126500D01*
X66049003Y-91109658D01*
X65964334Y-91092817D01*
X65898262Y-91065449D01*
X65804823Y-91026745D01*
X65661261Y-90930820D01*
X65539180Y-90808739D01*
X65443255Y-90665177D01*
X65377183Y-90505665D01*
X65343500Y-90336329D01*
X65343500Y-90163671D01*
X65377183Y-89994335D01*
X65443255Y-89834823D01*
X65539180Y-89691261D01*
X65661261Y-89569180D01*
X65804823Y-89473255D01*
X65898262Y-89434551D01*
X65964334Y-89407183D01*
X66049003Y-89390342D01*
X66133671Y-89373500D01*
X66306329Y-89373500D01*
X66390997Y-89390342D01*
X66390997Y-89390342D01*
G37*
G36*
X116517135Y-87708386D02*
X116624650Y-87729772D01*
X116827203Y-87813672D01*
X117008267Y-87934656D01*
X117009499Y-87935479D01*
X117164521Y-88090501D01*
X117164523Y-88090504D01*
X117286328Y-88272797D01*
X117370228Y-88475350D01*
X117413000Y-88690379D01*
X117413000Y-88909621D01*
X117370228Y-89124650D01*
X117286328Y-89327203D01*
X117188738Y-89473256D01*
X117164521Y-89509499D01*
X117009499Y-89664521D01*
X117009496Y-89664523D01*
X116827203Y-89786328D01*
X116624650Y-89870228D01*
X116409622Y-89913000D01*
X116190378Y-89913000D01*
X115975350Y-89870228D01*
X115772797Y-89786328D01*
X115590504Y-89664523D01*
X115590501Y-89664521D01*
X115435479Y-89509499D01*
X115411262Y-89473256D01*
X115313672Y-89327203D01*
X115229772Y-89124650D01*
X115187000Y-88909621D01*
X115187000Y-88690379D01*
X115229772Y-88475350D01*
X115313672Y-88272797D01*
X115435477Y-88090504D01*
X115435479Y-88090501D01*
X115590501Y-87935479D01*
X115591733Y-87934656D01*
X115772797Y-87813672D01*
X115975350Y-87729772D01*
X116082865Y-87708386D01*
X116190378Y-87687000D01*
X116409622Y-87687000D01*
X116517135Y-87708386D01*
X116517135Y-87708386D01*
G37*
G36*
X63850997Y-86850342D02*
X63935666Y-86867183D01*
X64001738Y-86894551D01*
X64095177Y-86933255D01*
X64238739Y-87029180D01*
X64360820Y-87151261D01*
X64456745Y-87294823D01*
X64487979Y-87370228D01*
X64505696Y-87413000D01*
X64522817Y-87454335D01*
X64556500Y-87623671D01*
X64556500Y-87796329D01*
X64522817Y-87965665D01*
X64456745Y-88125177D01*
X64360820Y-88268739D01*
X64238739Y-88390820D01*
X64095177Y-88486745D01*
X64001738Y-88525449D01*
X63935666Y-88552817D01*
X63850997Y-88569659D01*
X63766329Y-88586500D01*
X63593671Y-88586500D01*
X63509003Y-88569659D01*
X63424334Y-88552817D01*
X63358262Y-88525449D01*
X63264823Y-88486745D01*
X63121261Y-88390820D01*
X62999180Y-88268739D01*
X62903255Y-88125177D01*
X62837183Y-87965665D01*
X62803500Y-87796329D01*
X62803500Y-87623671D01*
X62837183Y-87454335D01*
X62854305Y-87413000D01*
X62872021Y-87370228D01*
X62903255Y-87294823D01*
X62999180Y-87151261D01*
X63121261Y-87029180D01*
X63264823Y-86933255D01*
X63358262Y-86894551D01*
X63424334Y-86867183D01*
X63509003Y-86850342D01*
X63593671Y-86833500D01*
X63766329Y-86833500D01*
X63850997Y-86850342D01*
X63850997Y-86850342D01*
G37*
G36*
X66390997Y-86850342D02*
X66475666Y-86867183D01*
X66541738Y-86894551D01*
X66635177Y-86933255D01*
X66778739Y-87029180D01*
X66900820Y-87151261D01*
X66996745Y-87294823D01*
X67027979Y-87370228D01*
X67045696Y-87413000D01*
X67062817Y-87454335D01*
X67096500Y-87623671D01*
X67096500Y-87796329D01*
X67062817Y-87965665D01*
X66996745Y-88125177D01*
X66900820Y-88268739D01*
X66778739Y-88390820D01*
X66635177Y-88486745D01*
X66541738Y-88525449D01*
X66475666Y-88552817D01*
X66390997Y-88569659D01*
X66306329Y-88586500D01*
X66133671Y-88586500D01*
X66049003Y-88569659D01*
X65964334Y-88552817D01*
X65898262Y-88525449D01*
X65804823Y-88486745D01*
X65661261Y-88390820D01*
X65539180Y-88268739D01*
X65443255Y-88125177D01*
X65377183Y-87965665D01*
X65343500Y-87796329D01*
X65343500Y-87623671D01*
X65377183Y-87454335D01*
X65394305Y-87413000D01*
X65412021Y-87370228D01*
X65443255Y-87294823D01*
X65539180Y-87151261D01*
X65661261Y-87029180D01*
X65804823Y-86933255D01*
X65898262Y-86894551D01*
X65964334Y-86867183D01*
X66049003Y-86850342D01*
X66133671Y-86833500D01*
X66306329Y-86833500D01*
X66390997Y-86850342D01*
X66390997Y-86850342D01*
G37*
G36*
X116517135Y-85208386D02*
X116624650Y-85229772D01*
X116827203Y-85313672D01*
X117008267Y-85434656D01*
X117009499Y-85435479D01*
X117164521Y-85590501D01*
X117164523Y-85590504D01*
X117286328Y-85772797D01*
X117370228Y-85975350D01*
X117413000Y-86190379D01*
X117413000Y-86409621D01*
X117370228Y-86624650D01*
X117286328Y-86827203D01*
X117282120Y-86833500D01*
X117164521Y-87009499D01*
X117009499Y-87164521D01*
X117009496Y-87164523D01*
X116827203Y-87286328D01*
X116624650Y-87370228D01*
X116517135Y-87391614D01*
X116409622Y-87413000D01*
X116190378Y-87413000D01*
X115975350Y-87370228D01*
X115772797Y-87286328D01*
X115590504Y-87164523D01*
X115590501Y-87164521D01*
X115435479Y-87009499D01*
X115317880Y-86833500D01*
X115313672Y-86827203D01*
X115229772Y-86624650D01*
X115187000Y-86409621D01*
X115187000Y-86190379D01*
X115229772Y-85975350D01*
X115313672Y-85772797D01*
X115435477Y-85590504D01*
X115435479Y-85590501D01*
X115590501Y-85435479D01*
X115591733Y-85434656D01*
X115772797Y-85313672D01*
X115975350Y-85229772D01*
X116082865Y-85208386D01*
X116190378Y-85187000D01*
X116409622Y-85187000D01*
X116517135Y-85208386D01*
X116517135Y-85208386D01*
G37*
G36*
X104017135Y-85208386D02*
X104124650Y-85229772D01*
X104327203Y-85313672D01*
X104508267Y-85434656D01*
X104509499Y-85435479D01*
X104664521Y-85590501D01*
X104664523Y-85590504D01*
X104786328Y-85772797D01*
X104870228Y-85975350D01*
X104913000Y-86190379D01*
X104913000Y-86409621D01*
X104870228Y-86624650D01*
X104786328Y-86827203D01*
X104782120Y-86833500D01*
X104664521Y-87009499D01*
X104509499Y-87164521D01*
X104509496Y-87164523D01*
X104327203Y-87286328D01*
X104124650Y-87370228D01*
X104017135Y-87391614D01*
X103909622Y-87413000D01*
X103690378Y-87413000D01*
X103475350Y-87370228D01*
X103272797Y-87286328D01*
X103090504Y-87164523D01*
X103090501Y-87164521D01*
X102935479Y-87009499D01*
X102817880Y-86833500D01*
X102813672Y-86827203D01*
X102729772Y-86624650D01*
X102687000Y-86409621D01*
X102687000Y-86190379D01*
X102729772Y-85975350D01*
X102813672Y-85772797D01*
X102935477Y-85590504D01*
X102935479Y-85590501D01*
X103090501Y-85435479D01*
X103091733Y-85434656D01*
X103272797Y-85313672D01*
X103475350Y-85229772D01*
X103582865Y-85208386D01*
X103690378Y-85187000D01*
X103909622Y-85187000D01*
X104017135Y-85208386D01*
X104017135Y-85208386D01*
G37*
G36*
X106624650Y-82729772D02*
X106827203Y-82813672D01*
X107008267Y-82934656D01*
X107009499Y-82935479D01*
X107164521Y-83090501D01*
X107164523Y-83090504D01*
X107286328Y-83272797D01*
X107370228Y-83475350D01*
X107413000Y-83690379D01*
X107413000Y-83909621D01*
X107370228Y-84124650D01*
X107286328Y-84327203D01*
X107165344Y-84508267D01*
X107164521Y-84509499D01*
X107009499Y-84664521D01*
X107009496Y-84664523D01*
X106827203Y-84786328D01*
X106624650Y-84870228D01*
X106409622Y-84913000D01*
X106190378Y-84913000D01*
X105975350Y-84870228D01*
X105772797Y-84786328D01*
X105590504Y-84664523D01*
X105590501Y-84664521D01*
X105435479Y-84509499D01*
X105434656Y-84508267D01*
X105313672Y-84327203D01*
X105229772Y-84124650D01*
X105187000Y-83909621D01*
X105187000Y-83690379D01*
X105229772Y-83475350D01*
X105313672Y-83272797D01*
X105435477Y-83090504D01*
X105435479Y-83090501D01*
X105590501Y-82935479D01*
X105591733Y-82934656D01*
X105772797Y-82813672D01*
X105975350Y-82729772D01*
X106190378Y-82687000D01*
X106409622Y-82687000D01*
X106624650Y-82729772D01*
X106624650Y-82729772D01*
G37*
G36*
X106498932Y-79204765D02*
X106624650Y-79229772D01*
X106827203Y-79313672D01*
X107008267Y-79434656D01*
X107009499Y-79435479D01*
X107164521Y-79590501D01*
X107164523Y-79590504D01*
X107286328Y-79772797D01*
X107370228Y-79975350D01*
X107413000Y-80190379D01*
X107413000Y-80409621D01*
X107370228Y-80624650D01*
X107286328Y-80827203D01*
X107165344Y-81008267D01*
X107164521Y-81009499D01*
X107009499Y-81164521D01*
X107009496Y-81164523D01*
X106827203Y-81286328D01*
X106624650Y-81370228D01*
X106409622Y-81413000D01*
X106190378Y-81413000D01*
X105975350Y-81370228D01*
X105772797Y-81286328D01*
X105590504Y-81164523D01*
X105590501Y-81164521D01*
X105435479Y-81009499D01*
X105434656Y-81008267D01*
X105313672Y-80827203D01*
X105229772Y-80624650D01*
X105187000Y-80409621D01*
X105187000Y-80190379D01*
X105229772Y-79975350D01*
X105313672Y-79772797D01*
X105435477Y-79590504D01*
X105435479Y-79590501D01*
X105590501Y-79435479D01*
X105591733Y-79434656D01*
X105772797Y-79313672D01*
X105975350Y-79229772D01*
X106101068Y-79204765D01*
X106190378Y-79187000D01*
X106409622Y-79187000D01*
X106498932Y-79204765D01*
X106498932Y-79204765D01*
G37*
G36*
X50569047Y-76461405D02*
X50678655Y-76483207D01*
X50870184Y-76562541D01*
X50988399Y-76611507D01*
X51267165Y-76797772D01*
X51504228Y-77034835D01*
X51504230Y-77034838D01*
X51690493Y-77313601D01*
X51792123Y-77558957D01*
X51818793Y-77623346D01*
X51884200Y-77952166D01*
X51884200Y-78287434D01*
X51876289Y-78327203D01*
X51818793Y-78616255D01*
X51713594Y-78870228D01*
X51690493Y-78925999D01*
X51504228Y-79204765D01*
X51267165Y-79441828D01*
X51267162Y-79441830D01*
X50988399Y-79628093D01*
X50678655Y-79756393D01*
X50569047Y-79778195D01*
X50349834Y-79821800D01*
X50014566Y-79821800D01*
X49795353Y-79778195D01*
X49685745Y-79756393D01*
X49376001Y-79628093D01*
X49097238Y-79441830D01*
X49097235Y-79441828D01*
X48860172Y-79204765D01*
X48673907Y-78925999D01*
X48650806Y-78870228D01*
X48545607Y-78616255D01*
X48488111Y-78327203D01*
X48480200Y-78287434D01*
X48480200Y-77952166D01*
X48545607Y-77623346D01*
X48572278Y-77558957D01*
X48673907Y-77313601D01*
X48860170Y-77034838D01*
X48860172Y-77034835D01*
X49097235Y-76797772D01*
X49376001Y-76611507D01*
X49494216Y-76562541D01*
X49685745Y-76483207D01*
X49795353Y-76461405D01*
X50014566Y-76417800D01*
X50349834Y-76417800D01*
X50569047Y-76461405D01*
X50569047Y-76461405D01*
G37*
G36*
X104017135Y-76708386D02*
X104124650Y-76729772D01*
X104327203Y-76813672D01*
X104508267Y-76934656D01*
X104509499Y-76935479D01*
X104664521Y-77090501D01*
X104664523Y-77090504D01*
X104786328Y-77272797D01*
X104870228Y-77475350D01*
X104913000Y-77690379D01*
X104913000Y-77909621D01*
X104870228Y-78124650D01*
X104786328Y-78327203D01*
X104735224Y-78403685D01*
X104664521Y-78509499D01*
X104509499Y-78664521D01*
X104509496Y-78664523D01*
X104327203Y-78786328D01*
X104124650Y-78870228D01*
X104017135Y-78891614D01*
X103909622Y-78913000D01*
X103690378Y-78913000D01*
X103582865Y-78891614D01*
X103475350Y-78870228D01*
X103272797Y-78786328D01*
X103090504Y-78664523D01*
X103090501Y-78664521D01*
X102935479Y-78509499D01*
X102864776Y-78403685D01*
X102813672Y-78327203D01*
X102729772Y-78124650D01*
X102687000Y-77909621D01*
X102687000Y-77690379D01*
X102729772Y-77475350D01*
X102813672Y-77272797D01*
X102935477Y-77090504D01*
X102935479Y-77090501D01*
X103090501Y-76935479D01*
X103091733Y-76934656D01*
X103272797Y-76813672D01*
X103475350Y-76729772D01*
X103582865Y-76708386D01*
X103690378Y-76687000D01*
X103909622Y-76687000D01*
X104017135Y-76708386D01*
X104017135Y-76708386D01*
G37*
G36*
X116517135Y-76708386D02*
X116624650Y-76729772D01*
X116827203Y-76813672D01*
X117008267Y-76934656D01*
X117009499Y-76935479D01*
X117164521Y-77090501D01*
X117164523Y-77090504D01*
X117286328Y-77272797D01*
X117370228Y-77475350D01*
X117413000Y-77690379D01*
X117413000Y-77909621D01*
X117370228Y-78124650D01*
X117286328Y-78327203D01*
X117235224Y-78403685D01*
X117164521Y-78509499D01*
X117009499Y-78664521D01*
X117009496Y-78664523D01*
X116827203Y-78786328D01*
X116624650Y-78870228D01*
X116517135Y-78891614D01*
X116409622Y-78913000D01*
X116190378Y-78913000D01*
X116082865Y-78891614D01*
X115975350Y-78870228D01*
X115772797Y-78786328D01*
X115590504Y-78664523D01*
X115590501Y-78664521D01*
X115435479Y-78509499D01*
X115364776Y-78403685D01*
X115313672Y-78327203D01*
X115229772Y-78124650D01*
X115187000Y-77909621D01*
X115187000Y-77690379D01*
X115229772Y-77475350D01*
X115313672Y-77272797D01*
X115435477Y-77090504D01*
X115435479Y-77090501D01*
X115590501Y-76935479D01*
X115591733Y-76934656D01*
X115772797Y-76813672D01*
X115975350Y-76729772D01*
X116082865Y-76708386D01*
X116190378Y-76687000D01*
X116409622Y-76687000D01*
X116517135Y-76708386D01*
X116517135Y-76708386D01*
G37*
G36*
X94336104Y-75982823D02*
X94491361Y-75998114D01*
X94740371Y-76073651D01*
X94740374Y-76073653D01*
X94740375Y-76073653D01*
X94969859Y-76196314D01*
X95171007Y-76361393D01*
X95336086Y-76562541D01*
X95402610Y-76687000D01*
X95458749Y-76792029D01*
X95534286Y-77041039D01*
X95559791Y-77300000D01*
X95534286Y-77558961D01*
X95458749Y-77807971D01*
X95458747Y-77807974D01*
X95458747Y-77807975D01*
X95336086Y-78037459D01*
X95171007Y-78238607D01*
X94969859Y-78403686D01*
X94740375Y-78526347D01*
X94740371Y-78526349D01*
X94491361Y-78601886D01*
X94336104Y-78617177D01*
X94297291Y-78621000D01*
X94167509Y-78621000D01*
X94128696Y-78617177D01*
X93973439Y-78601886D01*
X93724429Y-78526349D01*
X93724425Y-78526347D01*
X93494941Y-78403686D01*
X93293793Y-78238607D01*
X93128714Y-78037459D01*
X93006053Y-77807975D01*
X93006053Y-77807974D01*
X93006051Y-77807971D01*
X92930514Y-77558961D01*
X92905009Y-77300000D01*
X92930514Y-77041039D01*
X93006051Y-76792029D01*
X93062190Y-76687000D01*
X93128714Y-76562541D01*
X93293793Y-76361393D01*
X93494941Y-76196314D01*
X93724425Y-76073653D01*
X93724426Y-76073653D01*
X93724429Y-76073651D01*
X93973439Y-75998114D01*
X94128696Y-75982823D01*
X94167509Y-75979000D01*
X94297291Y-75979000D01*
X94336104Y-75982823D01*
X94336104Y-75982823D01*
G37*
G36*
X90373704Y-75982823D02*
X90528961Y-75998114D01*
X90777971Y-76073651D01*
X90777974Y-76073653D01*
X90777975Y-76073653D01*
X91007459Y-76196314D01*
X91208607Y-76361393D01*
X91373686Y-76562541D01*
X91440210Y-76687000D01*
X91496349Y-76792029D01*
X91571886Y-77041039D01*
X91597391Y-77300000D01*
X91571886Y-77558961D01*
X91496349Y-77807971D01*
X91496347Y-77807974D01*
X91496347Y-77807975D01*
X91373686Y-78037459D01*
X91208607Y-78238607D01*
X91007459Y-78403686D01*
X90777975Y-78526347D01*
X90777971Y-78526349D01*
X90528961Y-78601886D01*
X90373704Y-78617177D01*
X90334891Y-78621000D01*
X90205109Y-78621000D01*
X90166296Y-78617177D01*
X90011039Y-78601886D01*
X89762029Y-78526349D01*
X89762025Y-78526347D01*
X89532541Y-78403686D01*
X89331393Y-78238607D01*
X89166314Y-78037459D01*
X89043653Y-77807975D01*
X89043653Y-77807974D01*
X89043651Y-77807971D01*
X88968114Y-77558961D01*
X88942609Y-77300000D01*
X88968114Y-77041039D01*
X89043651Y-76792029D01*
X89099790Y-76687000D01*
X89166314Y-76562541D01*
X89331393Y-76361393D01*
X89532541Y-76196314D01*
X89762025Y-76073653D01*
X89762026Y-76073653D01*
X89762029Y-76073651D01*
X90011039Y-75998114D01*
X90166296Y-75982823D01*
X90205109Y-75979000D01*
X90334891Y-75979000D01*
X90373704Y-75982823D01*
X90373704Y-75982823D01*
G37*
G36*
X116498645Y-74204708D02*
X116624650Y-74229772D01*
X116827203Y-74313672D01*
X117008267Y-74434656D01*
X117009499Y-74435479D01*
X117164521Y-74590501D01*
X117164523Y-74590504D01*
X117286328Y-74772797D01*
X117370228Y-74975350D01*
X117413000Y-75190379D01*
X117413000Y-75409621D01*
X117370228Y-75624650D01*
X117286328Y-75827203D01*
X117184900Y-75979000D01*
X117164521Y-76009499D01*
X117009499Y-76164521D01*
X117009496Y-76164523D01*
X116827203Y-76286328D01*
X116624650Y-76370228D01*
X116409622Y-76413000D01*
X116190378Y-76413000D01*
X115975350Y-76370228D01*
X115772797Y-76286328D01*
X115590504Y-76164523D01*
X115590501Y-76164521D01*
X115435479Y-76009499D01*
X115415100Y-75979000D01*
X115313672Y-75827203D01*
X115229772Y-75624650D01*
X115187000Y-75409621D01*
X115187000Y-75190379D01*
X115229772Y-74975350D01*
X115313672Y-74772797D01*
X115435477Y-74590504D01*
X115435479Y-74590501D01*
X115590501Y-74435479D01*
X115591733Y-74434656D01*
X115772797Y-74313672D01*
X115975350Y-74229772D01*
X116101355Y-74204708D01*
X116190378Y-74187000D01*
X116409622Y-74187000D01*
X116498645Y-74204708D01*
X116498645Y-74204708D01*
G37*
G36*
X53159367Y-72494651D02*
X53159369Y-72494652D01*
X53159370Y-72494652D01*
X53219147Y-72519412D01*
X53321195Y-72561682D01*
X53466835Y-72658996D01*
X53590684Y-72782845D01*
X53687998Y-72928485D01*
X53755029Y-73090313D01*
X53768002Y-73155531D01*
X53775115Y-73178980D01*
X53786666Y-73200591D01*
X53802212Y-73219533D01*
X53821154Y-73235079D01*
X53842764Y-73246630D01*
X53866214Y-73253743D01*
X53890600Y-73256145D01*
X53914986Y-73253743D01*
X53938435Y-73246630D01*
X53960046Y-73235079D01*
X53978988Y-73219533D01*
X53994534Y-73200591D01*
X54006085Y-73178981D01*
X54013198Y-73155531D01*
X54026171Y-73090313D01*
X54093202Y-72928485D01*
X54190516Y-72782845D01*
X54314365Y-72658996D01*
X54460005Y-72561682D01*
X54562053Y-72519412D01*
X54621830Y-72494652D01*
X54621831Y-72494652D01*
X54621833Y-72494651D01*
X54793620Y-72460480D01*
X54968780Y-72460480D01*
X55140567Y-72494651D01*
X55140569Y-72494652D01*
X55140570Y-72494652D01*
X55200347Y-72519412D01*
X55302395Y-72561682D01*
X55448035Y-72658996D01*
X55571884Y-72782845D01*
X55669198Y-72928485D01*
X55736229Y-73090313D01*
X55770400Y-73262100D01*
X55770400Y-73437260D01*
X55736229Y-73609047D01*
X55669198Y-73770875D01*
X55571884Y-73916515D01*
X55448035Y-74040364D01*
X55302395Y-74137678D01*
X55200347Y-74179948D01*
X55140570Y-74204708D01*
X55140569Y-74204708D01*
X55140567Y-74204709D01*
X54968780Y-74238880D01*
X54793620Y-74238880D01*
X54621833Y-74204709D01*
X54621831Y-74204708D01*
X54621830Y-74204708D01*
X54562053Y-74179948D01*
X54460005Y-74137678D01*
X54314365Y-74040364D01*
X54190516Y-73916515D01*
X54093202Y-73770875D01*
X54026171Y-73609047D01*
X54013198Y-73543829D01*
X54006085Y-73520380D01*
X53994534Y-73498769D01*
X53978988Y-73479827D01*
X53960046Y-73464281D01*
X53938436Y-73452730D01*
X53914986Y-73445617D01*
X53890600Y-73443215D01*
X53866214Y-73445617D01*
X53842765Y-73452730D01*
X53821154Y-73464281D01*
X53802212Y-73479827D01*
X53786666Y-73498769D01*
X53775115Y-73520379D01*
X53768002Y-73543829D01*
X53755029Y-73609047D01*
X53687998Y-73770875D01*
X53590684Y-73916515D01*
X53466835Y-74040364D01*
X53321195Y-74137678D01*
X53219147Y-74179948D01*
X53159370Y-74204708D01*
X53159369Y-74204708D01*
X53159367Y-74204709D01*
X52987580Y-74238880D01*
X52812420Y-74238880D01*
X52640633Y-74204709D01*
X52640631Y-74204708D01*
X52640630Y-74204708D01*
X52580853Y-74179948D01*
X52478805Y-74137678D01*
X52333165Y-74040364D01*
X52209316Y-73916515D01*
X52112002Y-73770875D01*
X52044971Y-73609047D01*
X52010800Y-73437260D01*
X52010800Y-73262100D01*
X52044971Y-73090313D01*
X52112002Y-72928485D01*
X52209316Y-72782845D01*
X52333165Y-72658996D01*
X52478805Y-72561682D01*
X52580853Y-72519412D01*
X52640630Y-72494652D01*
X52640631Y-72494652D01*
X52640633Y-72494651D01*
X52812420Y-72460480D01*
X52987580Y-72460480D01*
X53159367Y-72494651D01*
X53159367Y-72494651D01*
G37*
G36*
X106624650Y-71729772D02*
X106827203Y-71813672D01*
X107008267Y-71934656D01*
X107009499Y-71935479D01*
X107164521Y-72090501D01*
X107164523Y-72090504D01*
X107286328Y-72272797D01*
X107370228Y-72475350D01*
X107413000Y-72690379D01*
X107413000Y-72909621D01*
X107370228Y-73124650D01*
X107286328Y-73327203D01*
X107212790Y-73437260D01*
X107164521Y-73509499D01*
X107009499Y-73664521D01*
X107009496Y-73664523D01*
X106827203Y-73786328D01*
X106624650Y-73870228D01*
X106409622Y-73913000D01*
X106190378Y-73913000D01*
X105975350Y-73870228D01*
X105772797Y-73786328D01*
X105590504Y-73664523D01*
X105590501Y-73664521D01*
X105435479Y-73509499D01*
X105387210Y-73437260D01*
X105313672Y-73327203D01*
X105229772Y-73124650D01*
X105187000Y-72909621D01*
X105187000Y-72690379D01*
X105229772Y-72475350D01*
X105313672Y-72272797D01*
X105435477Y-72090504D01*
X105435479Y-72090501D01*
X105590501Y-71935479D01*
X105591733Y-71934656D01*
X105772797Y-71813672D01*
X105975350Y-71729772D01*
X106190378Y-71687000D01*
X106409622Y-71687000D01*
X106624650Y-71729772D01*
X106624650Y-71729772D01*
G37*
G36*
X53159367Y-69995291D02*
X53159369Y-69995292D01*
X53159370Y-69995292D01*
X53219147Y-70020052D01*
X53321195Y-70062322D01*
X53466835Y-70159636D01*
X53590684Y-70283485D01*
X53687998Y-70429125D01*
X53755029Y-70590953D01*
X53768002Y-70656171D01*
X53775115Y-70679620D01*
X53786666Y-70701231D01*
X53802212Y-70720173D01*
X53821154Y-70735719D01*
X53842764Y-70747270D01*
X53866214Y-70754383D01*
X53890600Y-70756785D01*
X53914986Y-70754383D01*
X53938435Y-70747270D01*
X53960046Y-70735719D01*
X53978988Y-70720173D01*
X53994534Y-70701231D01*
X54006085Y-70679621D01*
X54013198Y-70656171D01*
X54026171Y-70590953D01*
X54093202Y-70429125D01*
X54190516Y-70283485D01*
X54314365Y-70159636D01*
X54460005Y-70062322D01*
X54562053Y-70020052D01*
X54621830Y-69995292D01*
X54621831Y-69995292D01*
X54621833Y-69995291D01*
X54793620Y-69961120D01*
X54968780Y-69961120D01*
X55140567Y-69995291D01*
X55140569Y-69995292D01*
X55140570Y-69995292D01*
X55200347Y-70020052D01*
X55302395Y-70062322D01*
X55448035Y-70159636D01*
X55571884Y-70283485D01*
X55669198Y-70429125D01*
X55736229Y-70590953D01*
X55770400Y-70762740D01*
X55770400Y-70937900D01*
X55736229Y-71109687D01*
X55669198Y-71271515D01*
X55571884Y-71417155D01*
X55448035Y-71541004D01*
X55302395Y-71638318D01*
X55200347Y-71680588D01*
X55140570Y-71705348D01*
X55140569Y-71705348D01*
X55140567Y-71705349D01*
X54968780Y-71739520D01*
X54793620Y-71739520D01*
X54621833Y-71705349D01*
X54621831Y-71705348D01*
X54621830Y-71705348D01*
X54562053Y-71680588D01*
X54460005Y-71638318D01*
X54314365Y-71541004D01*
X54190516Y-71417155D01*
X54093202Y-71271515D01*
X54026171Y-71109687D01*
X54013198Y-71044469D01*
X54006085Y-71021020D01*
X53994534Y-70999409D01*
X53978988Y-70980467D01*
X53960046Y-70964921D01*
X53938436Y-70953370D01*
X53914986Y-70946257D01*
X53890600Y-70943855D01*
X53866214Y-70946257D01*
X53842765Y-70953370D01*
X53821154Y-70964921D01*
X53802212Y-70980467D01*
X53786666Y-70999409D01*
X53775115Y-71021019D01*
X53768002Y-71044469D01*
X53755029Y-71109687D01*
X53687998Y-71271515D01*
X53590684Y-71417155D01*
X53466835Y-71541004D01*
X53321195Y-71638318D01*
X53219147Y-71680588D01*
X53159370Y-71705348D01*
X53159369Y-71705348D01*
X53159367Y-71705349D01*
X52987580Y-71739520D01*
X52812420Y-71739520D01*
X52640633Y-71705349D01*
X52640631Y-71705348D01*
X52640630Y-71705348D01*
X52580853Y-71680588D01*
X52478805Y-71638318D01*
X52333165Y-71541004D01*
X52209316Y-71417155D01*
X52112002Y-71271515D01*
X52044971Y-71109687D01*
X52010800Y-70937900D01*
X52010800Y-70762740D01*
X52044971Y-70590953D01*
X52112002Y-70429125D01*
X52209316Y-70283485D01*
X52333165Y-70159636D01*
X52478805Y-70062322D01*
X52580853Y-70020052D01*
X52640630Y-69995292D01*
X52640631Y-69995292D01*
X52640633Y-69995291D01*
X52812420Y-69961120D01*
X52987580Y-69961120D01*
X53159367Y-69995291D01*
X53159367Y-69995291D01*
G37*
G36*
X86270997Y-69690342D02*
X86355666Y-69707183D01*
X86421738Y-69734551D01*
X86515177Y-69773255D01*
X86658739Y-69869180D01*
X86780820Y-69991261D01*
X86876745Y-70134823D01*
X86942817Y-70294335D01*
X86969629Y-70429126D01*
X86976500Y-70463672D01*
X86976500Y-70636328D01*
X86954433Y-70747270D01*
X86942817Y-70805665D01*
X86876745Y-70965177D01*
X86780820Y-71108739D01*
X86658739Y-71230820D01*
X86515177Y-71326745D01*
X86421738Y-71365449D01*
X86355666Y-71392817D01*
X86270997Y-71409659D01*
X86186329Y-71426500D01*
X86013671Y-71426500D01*
X85929003Y-71409659D01*
X85844334Y-71392817D01*
X85778262Y-71365449D01*
X85684823Y-71326745D01*
X85541261Y-71230820D01*
X85419180Y-71108739D01*
X85323255Y-70965177D01*
X85257183Y-70805665D01*
X85245568Y-70747270D01*
X85223500Y-70636328D01*
X85223500Y-70463672D01*
X85230372Y-70429126D01*
X85257183Y-70294335D01*
X85323255Y-70134823D01*
X85419180Y-69991261D01*
X85541261Y-69869180D01*
X85684823Y-69773255D01*
X85778262Y-69734551D01*
X85844334Y-69707183D01*
X85929003Y-69690342D01*
X86013671Y-69673500D01*
X86186329Y-69673500D01*
X86270997Y-69690342D01*
X86270997Y-69690342D01*
G37*
G36*
X84436500Y-71426500D02*
X82683500Y-71426500D01*
X82683500Y-69673500D01*
X84436500Y-69673500D01*
X84436500Y-71426500D01*
X84436500Y-71426500D01*
G37*
G36*
X88810997Y-69690342D02*
X88895666Y-69707183D01*
X88961738Y-69734551D01*
X89055177Y-69773255D01*
X89198739Y-69869180D01*
X89320820Y-69991261D01*
X89416745Y-70134823D01*
X89482817Y-70294335D01*
X89509629Y-70429126D01*
X89516500Y-70463672D01*
X89516500Y-70636328D01*
X89494433Y-70747270D01*
X89482817Y-70805665D01*
X89416745Y-70965177D01*
X89320820Y-71108739D01*
X89198739Y-71230820D01*
X89055177Y-71326745D01*
X88961738Y-71365449D01*
X88895666Y-71392817D01*
X88810997Y-71409659D01*
X88726329Y-71426500D01*
X88553671Y-71426500D01*
X88469003Y-71409659D01*
X88384334Y-71392817D01*
X88318262Y-71365449D01*
X88224823Y-71326745D01*
X88081261Y-71230820D01*
X87959180Y-71108739D01*
X87863255Y-70965177D01*
X87797183Y-70805665D01*
X87785568Y-70747270D01*
X87763500Y-70636328D01*
X87763500Y-70463672D01*
X87770372Y-70429126D01*
X87797183Y-70294335D01*
X87863255Y-70134823D01*
X87959180Y-69991261D01*
X88081261Y-69869180D01*
X88224823Y-69773255D01*
X88318262Y-69734551D01*
X88384334Y-69707183D01*
X88469003Y-69690342D01*
X88553671Y-69673500D01*
X88726329Y-69673500D01*
X88810997Y-69690342D01*
X88810997Y-69690342D01*
G37*
G36*
X116517135Y-69208386D02*
X116624650Y-69229772D01*
X116827203Y-69313672D01*
X116892197Y-69357100D01*
X117009499Y-69435479D01*
X117164521Y-69590501D01*
X117164523Y-69590504D01*
X117286328Y-69772797D01*
X117370228Y-69975350D01*
X117374195Y-69995292D01*
X117413000Y-70190378D01*
X117413000Y-70409622D01*
X117409120Y-70429126D01*
X117370228Y-70624650D01*
X117286328Y-70827203D01*
X117183920Y-70980467D01*
X117164521Y-71009499D01*
X117009499Y-71164521D01*
X117009496Y-71164523D01*
X116827203Y-71286328D01*
X116624650Y-71370228D01*
X116517135Y-71391614D01*
X116409622Y-71413000D01*
X116190378Y-71413000D01*
X116082865Y-71391614D01*
X115975350Y-71370228D01*
X115772797Y-71286328D01*
X115590504Y-71164523D01*
X115590501Y-71164521D01*
X115435479Y-71009499D01*
X115416080Y-70980467D01*
X115313672Y-70827203D01*
X115229772Y-70624650D01*
X115190880Y-70429126D01*
X115187000Y-70409622D01*
X115187000Y-70190378D01*
X115225805Y-69995292D01*
X115229772Y-69975350D01*
X115313672Y-69772797D01*
X115435477Y-69590504D01*
X115435479Y-69590501D01*
X115590501Y-69435479D01*
X115707803Y-69357100D01*
X115772797Y-69313672D01*
X115975350Y-69229772D01*
X116082865Y-69208386D01*
X116190378Y-69187000D01*
X116409622Y-69187000D01*
X116517135Y-69208386D01*
X116517135Y-69208386D01*
G37*
G36*
X68779697Y-69373942D02*
X68864366Y-69390783D01*
X68930438Y-69418151D01*
X69023877Y-69456855D01*
X69167439Y-69552780D01*
X69289520Y-69674861D01*
X69385445Y-69818423D01*
X69406468Y-69869178D01*
X69450447Y-69975350D01*
X69451517Y-69977935D01*
X69485200Y-70147271D01*
X69485200Y-70319929D01*
X69451517Y-70489265D01*
X69385445Y-70648777D01*
X69289520Y-70792339D01*
X69167439Y-70914420D01*
X69023877Y-71010345D01*
X68941494Y-71044469D01*
X68864366Y-71076417D01*
X68779697Y-71093259D01*
X68695029Y-71110100D01*
X68522371Y-71110100D01*
X68437703Y-71093259D01*
X68353034Y-71076417D01*
X68275906Y-71044469D01*
X68193523Y-71010345D01*
X68049961Y-70914420D01*
X67927880Y-70792339D01*
X67831955Y-70648777D01*
X67765883Y-70489265D01*
X67732200Y-70319929D01*
X67732200Y-70147271D01*
X67765883Y-69977935D01*
X67766954Y-69975350D01*
X67810932Y-69869178D01*
X67831955Y-69818423D01*
X67927880Y-69674861D01*
X68049961Y-69552780D01*
X68193523Y-69456855D01*
X68286962Y-69418151D01*
X68353034Y-69390783D01*
X68437703Y-69373942D01*
X68522371Y-69357100D01*
X68695029Y-69357100D01*
X68779697Y-69373942D01*
X68779697Y-69373942D01*
G37*
G36*
X116517135Y-66708386D02*
X116624650Y-66729772D01*
X116827203Y-66813672D01*
X116936046Y-66886399D01*
X117009499Y-66935479D01*
X117164521Y-67090501D01*
X117164523Y-67090504D01*
X117286328Y-67272797D01*
X117370228Y-67475350D01*
X117413000Y-67690379D01*
X117413000Y-67909621D01*
X117370228Y-68124650D01*
X117286328Y-68327203D01*
X117165344Y-68508267D01*
X117164521Y-68509499D01*
X117009499Y-68664521D01*
X117009496Y-68664523D01*
X116827203Y-68786328D01*
X116624650Y-68870228D01*
X116517135Y-68891614D01*
X116409622Y-68913000D01*
X116190378Y-68913000D01*
X116082865Y-68891614D01*
X115975350Y-68870228D01*
X115772797Y-68786328D01*
X115590504Y-68664523D01*
X115590501Y-68664521D01*
X115435479Y-68509499D01*
X115434656Y-68508267D01*
X115313672Y-68327203D01*
X115229772Y-68124650D01*
X115187000Y-67909621D01*
X115187000Y-67690379D01*
X115229772Y-67475350D01*
X115313672Y-67272797D01*
X115435477Y-67090504D01*
X115435479Y-67090501D01*
X115590501Y-66935479D01*
X115663954Y-66886399D01*
X115772797Y-66813672D01*
X115975350Y-66729772D01*
X116082865Y-66708386D01*
X116190378Y-66687000D01*
X116409622Y-66687000D01*
X116517135Y-66708386D01*
X116517135Y-66708386D01*
G37*
G36*
X104017135Y-66708386D02*
X104124650Y-66729772D01*
X104327203Y-66813672D01*
X104436046Y-66886399D01*
X104509499Y-66935479D01*
X104664521Y-67090501D01*
X104664523Y-67090504D01*
X104786328Y-67272797D01*
X104870228Y-67475350D01*
X104913000Y-67690379D01*
X104913000Y-67909621D01*
X104870228Y-68124650D01*
X104786328Y-68327203D01*
X104665344Y-68508267D01*
X104664521Y-68509499D01*
X104509499Y-68664521D01*
X104509496Y-68664523D01*
X104327203Y-68786328D01*
X104124650Y-68870228D01*
X104017135Y-68891614D01*
X103909622Y-68913000D01*
X103690378Y-68913000D01*
X103582865Y-68891614D01*
X103475350Y-68870228D01*
X103272797Y-68786328D01*
X103090504Y-68664523D01*
X103090501Y-68664521D01*
X102935479Y-68509499D01*
X102934656Y-68508267D01*
X102813672Y-68327203D01*
X102729772Y-68124650D01*
X102687000Y-67909621D01*
X102687000Y-67690379D01*
X102729772Y-67475350D01*
X102813672Y-67272797D01*
X102935477Y-67090504D01*
X102935479Y-67090501D01*
X103090501Y-66935479D01*
X103163954Y-66886399D01*
X103272797Y-66813672D01*
X103475350Y-66729772D01*
X103582865Y-66708386D01*
X103690378Y-66687000D01*
X103909622Y-66687000D01*
X104017135Y-66708386D01*
X104017135Y-66708386D01*
G37*
G36*
X69485200Y-68570100D02*
X67732200Y-68570100D01*
X67732200Y-66817100D01*
X69485200Y-66817100D01*
X69485200Y-68570100D01*
X69485200Y-68570100D01*
G37*
G36*
X50569047Y-64421805D02*
X50678655Y-64443607D01*
X50988399Y-64571907D01*
X51267165Y-64758172D01*
X51504228Y-64995235D01*
X51504230Y-64995238D01*
X51690493Y-65274001D01*
X51818793Y-65583745D01*
X51884200Y-65912568D01*
X51884200Y-66247832D01*
X51818793Y-66576655D01*
X51690493Y-66886399D01*
X51504228Y-67165165D01*
X51267165Y-67402228D01*
X51267162Y-67402230D01*
X50988399Y-67588493D01*
X50678655Y-67716793D01*
X50569047Y-67738595D01*
X50349834Y-67782200D01*
X50014566Y-67782200D01*
X49795353Y-67738595D01*
X49685745Y-67716793D01*
X49376001Y-67588493D01*
X49097238Y-67402230D01*
X49097235Y-67402228D01*
X48860172Y-67165165D01*
X48673907Y-66886399D01*
X48545607Y-66576655D01*
X48480200Y-66247832D01*
X48480200Y-65912568D01*
X48545607Y-65583745D01*
X48673907Y-65274001D01*
X48860170Y-64995238D01*
X48860172Y-64995235D01*
X49097235Y-64758172D01*
X49376001Y-64571907D01*
X49685745Y-64443607D01*
X49795353Y-64421805D01*
X50014566Y-64378200D01*
X50349834Y-64378200D01*
X50569047Y-64421805D01*
X50569047Y-64421805D01*
G37*
G36*
X106517135Y-64208386D02*
X106624650Y-64229772D01*
X106827203Y-64313672D01*
X106923775Y-64378200D01*
X107009499Y-64435479D01*
X107164521Y-64590501D01*
X107164523Y-64590504D01*
X107286328Y-64772797D01*
X107370228Y-64975350D01*
X107413000Y-65190379D01*
X107413000Y-65409621D01*
X107370228Y-65624650D01*
X107286328Y-65827203D01*
X107165344Y-66008267D01*
X107164521Y-66009499D01*
X107009499Y-66164521D01*
X107009496Y-66164523D01*
X106827203Y-66286328D01*
X106624650Y-66370228D01*
X106409622Y-66413000D01*
X106190378Y-66413000D01*
X105975350Y-66370228D01*
X105772797Y-66286328D01*
X105590504Y-66164523D01*
X105590501Y-66164521D01*
X105435479Y-66009499D01*
X105434656Y-66008267D01*
X105313672Y-65827203D01*
X105229772Y-65624650D01*
X105187000Y-65409621D01*
X105187000Y-65190379D01*
X105229772Y-64975350D01*
X105313672Y-64772797D01*
X105435477Y-64590504D01*
X105435479Y-64590501D01*
X105590501Y-64435479D01*
X105676225Y-64378200D01*
X105772797Y-64313672D01*
X105975350Y-64229772D01*
X106082865Y-64208386D01*
X106190378Y-64187000D01*
X106409622Y-64187000D01*
X106517135Y-64208386D01*
X106517135Y-64208386D01*
G37*
G36*
X47275256Y-59701298D02*
X47381579Y-59722447D01*
X47682042Y-59846903D01*
X47724092Y-59875000D01*
X47952454Y-60027587D01*
X48182413Y-60257546D01*
X48182415Y-60257549D01*
X48330825Y-60479659D01*
X48363098Y-60527960D01*
X48387141Y-60586005D01*
X48440029Y-60713687D01*
X48487553Y-60828422D01*
X48551000Y-61147389D01*
X48551000Y-61472611D01*
X48487553Y-61791578D01*
X48363098Y-62092040D01*
X48182413Y-62362454D01*
X47952454Y-62592413D01*
X47952451Y-62592415D01*
X47682042Y-62773097D01*
X47381579Y-62897553D01*
X47275256Y-62918702D01*
X47062611Y-62961000D01*
X46737389Y-62961000D01*
X46524744Y-62918702D01*
X46418421Y-62897553D01*
X46117958Y-62773097D01*
X45847549Y-62592415D01*
X45847546Y-62592413D01*
X45617587Y-62362454D01*
X45436902Y-62092040D01*
X45312447Y-61791578D01*
X45249000Y-61472611D01*
X45249000Y-61147389D01*
X45312447Y-60828422D01*
X45359972Y-60713687D01*
X45412859Y-60586005D01*
X45436902Y-60527960D01*
X45469176Y-60479659D01*
X45617585Y-60257549D01*
X45617587Y-60257546D01*
X45847546Y-60027587D01*
X46075908Y-59875000D01*
X46117958Y-59846903D01*
X46418421Y-59722447D01*
X46524744Y-59701298D01*
X46737389Y-59659000D01*
X47062611Y-59659000D01*
X47275256Y-59701298D01*
X47275256Y-59701298D01*
G37*
G36*
X56023643Y-59269781D02*
X56169415Y-59330162D01*
X56300611Y-59417824D01*
X56412176Y-59529389D01*
X56499838Y-59660585D01*
X56560219Y-59806357D01*
X56591000Y-59961107D01*
X56591000Y-60118893D01*
X56560219Y-60273643D01*
X56499838Y-60419415D01*
X56412176Y-60550611D01*
X56300611Y-60662176D01*
X56169415Y-60749838D01*
X56023643Y-60810219D01*
X55868893Y-60841000D01*
X55711107Y-60841000D01*
X55556357Y-60810219D01*
X55410585Y-60749838D01*
X55279389Y-60662176D01*
X55167824Y-60550611D01*
X55080162Y-60419415D01*
X55019781Y-60273643D01*
X54989000Y-60118893D01*
X54989000Y-59961107D01*
X55019781Y-59806357D01*
X55080162Y-59660585D01*
X55167824Y-59529389D01*
X55279389Y-59417824D01*
X55410585Y-59330162D01*
X55556357Y-59269781D01*
X55711107Y-59239000D01*
X55868893Y-59239000D01*
X56023643Y-59269781D01*
X56023643Y-59269781D01*
G37*
G36*
X82221821Y-59036313D02*
X82221824Y-59036314D01*
X82221825Y-59036314D01*
X82382239Y-59084975D01*
X82382241Y-59084976D01*
X82382244Y-59084977D01*
X82530078Y-59163995D01*
X82659659Y-59270341D01*
X82766005Y-59399922D01*
X82845023Y-59547756D01*
X82845024Y-59547759D01*
X82845025Y-59547761D01*
X82893686Y-59708175D01*
X82893687Y-59708179D01*
X82910117Y-59875000D01*
X82893687Y-60041821D01*
X82893686Y-60041824D01*
X82893686Y-60041825D01*
X82870308Y-60118893D01*
X82845023Y-60202244D01*
X82766005Y-60350078D01*
X82659659Y-60479659D01*
X82530078Y-60586005D01*
X82382244Y-60665023D01*
X82382241Y-60665024D01*
X82382239Y-60665025D01*
X82221825Y-60713686D01*
X82221824Y-60713686D01*
X82221821Y-60713687D01*
X82096804Y-60726000D01*
X82013196Y-60726000D01*
X81888179Y-60713687D01*
X81888176Y-60713686D01*
X81888175Y-60713686D01*
X81727761Y-60665025D01*
X81727759Y-60665024D01*
X81727756Y-60665023D01*
X81579922Y-60586005D01*
X81450341Y-60479659D01*
X81343995Y-60350078D01*
X81264977Y-60202244D01*
X81239693Y-60118893D01*
X81216314Y-60041825D01*
X81216314Y-60041824D01*
X81216313Y-60041821D01*
X81199883Y-59875000D01*
X81216313Y-59708179D01*
X81216314Y-59708175D01*
X81264975Y-59547761D01*
X81264976Y-59547759D01*
X81264977Y-59547756D01*
X81343995Y-59399922D01*
X81450341Y-59270341D01*
X81579922Y-59163995D01*
X81727756Y-59084977D01*
X81727759Y-59084976D01*
X81727761Y-59084975D01*
X81888175Y-59036314D01*
X81888176Y-59036314D01*
X81888179Y-59036313D01*
X82013196Y-59024000D01*
X82096804Y-59024000D01*
X82221821Y-59036313D01*
X82221821Y-59036313D01*
G37*
G36*
X90526000Y-60726000D02*
X88824000Y-60726000D01*
X88824000Y-59024000D01*
X90526000Y-59024000D01*
X90526000Y-60726000D01*
X90526000Y-60726000D01*
G37*
G36*
X53483643Y-57999781D02*
X53629415Y-58060162D01*
X53760611Y-58147824D01*
X53872176Y-58259389D01*
X53959838Y-58390585D01*
X54020219Y-58536357D01*
X54051000Y-58691107D01*
X54051000Y-58848893D01*
X54020219Y-59003643D01*
X53959838Y-59149415D01*
X53872176Y-59280611D01*
X53760611Y-59392176D01*
X53629415Y-59479838D01*
X53483643Y-59540219D01*
X53328893Y-59571000D01*
X53171107Y-59571000D01*
X53016357Y-59540219D01*
X52870585Y-59479838D01*
X52739389Y-59392176D01*
X52627824Y-59280611D01*
X52540162Y-59149415D01*
X52479781Y-59003643D01*
X52449000Y-58848893D01*
X52449000Y-58691107D01*
X52479781Y-58536357D01*
X52540162Y-58390585D01*
X52627824Y-58259389D01*
X52739389Y-58147824D01*
X52870585Y-58060162D01*
X53016357Y-57999781D01*
X53171107Y-57969000D01*
X53328893Y-57969000D01*
X53483643Y-57999781D01*
X53483643Y-57999781D01*
G37*
G36*
X66946500Y-59366500D02*
X65193500Y-59366500D01*
X65193500Y-57613500D01*
X66946500Y-57613500D01*
X66946500Y-59366500D01*
X66946500Y-59366500D01*
G37*
G36*
X63700997Y-57630341D02*
X63785666Y-57647183D01*
X63851738Y-57674551D01*
X63945177Y-57713255D01*
X64088739Y-57809180D01*
X64210820Y-57931261D01*
X64306745Y-58074823D01*
X64327539Y-58125025D01*
X64372817Y-58234334D01*
X64389659Y-58319003D01*
X64406500Y-58403671D01*
X64406500Y-58576329D01*
X64372817Y-58745665D01*
X64306745Y-58905177D01*
X64210820Y-59048739D01*
X64088739Y-59170820D01*
X63945177Y-59266745D01*
X63911701Y-59280611D01*
X63785666Y-59332817D01*
X63700997Y-59349659D01*
X63616329Y-59366500D01*
X63443671Y-59366500D01*
X63359003Y-59349659D01*
X63274334Y-59332817D01*
X63148299Y-59280611D01*
X63114823Y-59266745D01*
X62971261Y-59170820D01*
X62849180Y-59048739D01*
X62753255Y-58905177D01*
X62687183Y-58745665D01*
X62653500Y-58576329D01*
X62653500Y-58403671D01*
X62670341Y-58319003D01*
X62687183Y-58234334D01*
X62732461Y-58125025D01*
X62753255Y-58074823D01*
X62849180Y-57931261D01*
X62971261Y-57809180D01*
X63114823Y-57713255D01*
X63208262Y-57674551D01*
X63274334Y-57647183D01*
X63359003Y-57630341D01*
X63443671Y-57613500D01*
X63616329Y-57613500D01*
X63700997Y-57630341D01*
X63700997Y-57630341D01*
G37*
G36*
X100051500Y-58446500D02*
X98298500Y-58446500D01*
X98298500Y-56693500D01*
X100051500Y-56693500D01*
X100051500Y-58446500D01*
X100051500Y-58446500D01*
G37*
G36*
X56023643Y-56729781D02*
X56169415Y-56790162D01*
X56300611Y-56877824D01*
X56412176Y-56989389D01*
X56499838Y-57120585D01*
X56560219Y-57266357D01*
X56591000Y-57421107D01*
X56591000Y-57578893D01*
X56560219Y-57733643D01*
X56499838Y-57879415D01*
X56412176Y-58010611D01*
X56300611Y-58122176D01*
X56169415Y-58209838D01*
X56023643Y-58270219D01*
X55868893Y-58301000D01*
X55711107Y-58301000D01*
X55556357Y-58270219D01*
X55410585Y-58209838D01*
X55279389Y-58122176D01*
X55167824Y-58010611D01*
X55080162Y-57879415D01*
X55019781Y-57733643D01*
X54989000Y-57578893D01*
X54989000Y-57421107D01*
X55019781Y-57266357D01*
X55080162Y-57120585D01*
X55167824Y-56989389D01*
X55279389Y-56877824D01*
X55410585Y-56790162D01*
X55556357Y-56729781D01*
X55711107Y-56699000D01*
X55868893Y-56699000D01*
X56023643Y-56729781D01*
X56023643Y-56729781D01*
G37*
G36*
X89841821Y-56496313D02*
X89841824Y-56496314D01*
X89841825Y-56496314D01*
X90002239Y-56544975D01*
X90002241Y-56544976D01*
X90002244Y-56544977D01*
X90150078Y-56623995D01*
X90279659Y-56730341D01*
X90386005Y-56859922D01*
X90465023Y-57007756D01*
X90465024Y-57007759D01*
X90465025Y-57007761D01*
X90513686Y-57168175D01*
X90513687Y-57168179D01*
X90530117Y-57335000D01*
X90513687Y-57501821D01*
X90513686Y-57501824D01*
X90513686Y-57501825D01*
X90479810Y-57613500D01*
X90465023Y-57662244D01*
X90386005Y-57810078D01*
X90279659Y-57939659D01*
X90150078Y-58046005D01*
X90002244Y-58125023D01*
X90002241Y-58125024D01*
X90002239Y-58125025D01*
X89841825Y-58173686D01*
X89841824Y-58173686D01*
X89841821Y-58173687D01*
X89716804Y-58186000D01*
X89633196Y-58186000D01*
X89508179Y-58173687D01*
X89508176Y-58173686D01*
X89508175Y-58173686D01*
X89347761Y-58125025D01*
X89347759Y-58125024D01*
X89347756Y-58125023D01*
X89199922Y-58046005D01*
X89070341Y-57939659D01*
X88963995Y-57810078D01*
X88884977Y-57662244D01*
X88870191Y-57613500D01*
X88836314Y-57501825D01*
X88836314Y-57501824D01*
X88836313Y-57501821D01*
X88819883Y-57335000D01*
X88836313Y-57168179D01*
X88836314Y-57168175D01*
X88884975Y-57007761D01*
X88884976Y-57007759D01*
X88884977Y-57007756D01*
X88963995Y-56859922D01*
X89070341Y-56730341D01*
X89199922Y-56623995D01*
X89347756Y-56544977D01*
X89347759Y-56544976D01*
X89347761Y-56544975D01*
X89508175Y-56496314D01*
X89508176Y-56496314D01*
X89508179Y-56496313D01*
X89633196Y-56484000D01*
X89716804Y-56484000D01*
X89841821Y-56496313D01*
X89841821Y-56496313D01*
G37*
G36*
X82221821Y-56496313D02*
X82221824Y-56496314D01*
X82221825Y-56496314D01*
X82382239Y-56544975D01*
X82382241Y-56544976D01*
X82382244Y-56544977D01*
X82530078Y-56623995D01*
X82659659Y-56730341D01*
X82766005Y-56859922D01*
X82845023Y-57007756D01*
X82845024Y-57007759D01*
X82845025Y-57007761D01*
X82893686Y-57168175D01*
X82893687Y-57168179D01*
X82910117Y-57335000D01*
X82893687Y-57501821D01*
X82893686Y-57501824D01*
X82893686Y-57501825D01*
X82859810Y-57613500D01*
X82845023Y-57662244D01*
X82766005Y-57810078D01*
X82659659Y-57939659D01*
X82530078Y-58046005D01*
X82382244Y-58125023D01*
X82382241Y-58125024D01*
X82382239Y-58125025D01*
X82221825Y-58173686D01*
X82221824Y-58173686D01*
X82221821Y-58173687D01*
X82096804Y-58186000D01*
X82013196Y-58186000D01*
X81888179Y-58173687D01*
X81888176Y-58173686D01*
X81888175Y-58173686D01*
X81727761Y-58125025D01*
X81727759Y-58125024D01*
X81727756Y-58125023D01*
X81579922Y-58046005D01*
X81450341Y-57939659D01*
X81343995Y-57810078D01*
X81264977Y-57662244D01*
X81250191Y-57613500D01*
X81216314Y-57501825D01*
X81216314Y-57501824D01*
X81216313Y-57501821D01*
X81199883Y-57335000D01*
X81216313Y-57168179D01*
X81216314Y-57168175D01*
X81264975Y-57007761D01*
X81264976Y-57007759D01*
X81264977Y-57007756D01*
X81343995Y-56859922D01*
X81450341Y-56730341D01*
X81579922Y-56623995D01*
X81727756Y-56544977D01*
X81727759Y-56544976D01*
X81727761Y-56544975D01*
X81888175Y-56496314D01*
X81888176Y-56496314D01*
X81888179Y-56496313D01*
X82013196Y-56484000D01*
X82096804Y-56484000D01*
X82221821Y-56496313D01*
X82221821Y-56496313D01*
G37*
G36*
X53483643Y-55459781D02*
X53629415Y-55520162D01*
X53760611Y-55607824D01*
X53872176Y-55719389D01*
X53959838Y-55850585D01*
X54020219Y-55996357D01*
X54051000Y-56151107D01*
X54051000Y-56308893D01*
X54020219Y-56463643D01*
X53959838Y-56609415D01*
X53872176Y-56740611D01*
X53760611Y-56852176D01*
X53629415Y-56939838D01*
X53483643Y-57000219D01*
X53328893Y-57031000D01*
X53171107Y-57031000D01*
X53016357Y-57000219D01*
X52870585Y-56939838D01*
X52739389Y-56852176D01*
X52627824Y-56740611D01*
X52540162Y-56609415D01*
X52479781Y-56463643D01*
X52449000Y-56308893D01*
X52449000Y-56151107D01*
X52479781Y-55996357D01*
X52540162Y-55850585D01*
X52627824Y-55719389D01*
X52739389Y-55607824D01*
X52870585Y-55520162D01*
X53016357Y-55459781D01*
X53171107Y-55429000D01*
X53328893Y-55429000D01*
X53483643Y-55459781D01*
X53483643Y-55459781D01*
G37*
G36*
X63700997Y-55090341D02*
X63785666Y-55107183D01*
X63851738Y-55134551D01*
X63945177Y-55173255D01*
X64088739Y-55269180D01*
X64210820Y-55391261D01*
X64306745Y-55534823D01*
X64336982Y-55607822D01*
X64372817Y-55694334D01*
X64389659Y-55779003D01*
X64406500Y-55863671D01*
X64406500Y-56036329D01*
X64372817Y-56205665D01*
X64306745Y-56365177D01*
X64210820Y-56508739D01*
X64088739Y-56630820D01*
X63945177Y-56726745D01*
X63911701Y-56740611D01*
X63785666Y-56792817D01*
X63700997Y-56809658D01*
X63616329Y-56826500D01*
X63443671Y-56826500D01*
X63359003Y-56809658D01*
X63274334Y-56792817D01*
X63148299Y-56740611D01*
X63114823Y-56726745D01*
X62971261Y-56630820D01*
X62849180Y-56508739D01*
X62753255Y-56365177D01*
X62687183Y-56205665D01*
X62653500Y-56036329D01*
X62653500Y-55863671D01*
X62670342Y-55779003D01*
X62687183Y-55694334D01*
X62723018Y-55607822D01*
X62753255Y-55534823D01*
X62849180Y-55391261D01*
X62971261Y-55269180D01*
X63114823Y-55173255D01*
X63208262Y-55134551D01*
X63274334Y-55107183D01*
X63359003Y-55090341D01*
X63443671Y-55073500D01*
X63616329Y-55073500D01*
X63700997Y-55090341D01*
X63700997Y-55090341D01*
G37*
G36*
X66240997Y-55090341D02*
X66325666Y-55107183D01*
X66391738Y-55134551D01*
X66485177Y-55173255D01*
X66628739Y-55269180D01*
X66750820Y-55391261D01*
X66846745Y-55534823D01*
X66876982Y-55607822D01*
X66912817Y-55694334D01*
X66929659Y-55779003D01*
X66946500Y-55863671D01*
X66946500Y-56036329D01*
X66912817Y-56205665D01*
X66846745Y-56365177D01*
X66750820Y-56508739D01*
X66628739Y-56630820D01*
X66485177Y-56726745D01*
X66451701Y-56740611D01*
X66325666Y-56792817D01*
X66240997Y-56809658D01*
X66156329Y-56826500D01*
X65983671Y-56826500D01*
X65899003Y-56809658D01*
X65814334Y-56792817D01*
X65688299Y-56740611D01*
X65654823Y-56726745D01*
X65511261Y-56630820D01*
X65389180Y-56508739D01*
X65293255Y-56365177D01*
X65227183Y-56205665D01*
X65193500Y-56036329D01*
X65193500Y-55863671D01*
X65210342Y-55779003D01*
X65227183Y-55694334D01*
X65263018Y-55607822D01*
X65293255Y-55534823D01*
X65389180Y-55391261D01*
X65511261Y-55269180D01*
X65654823Y-55173255D01*
X65748262Y-55134551D01*
X65814334Y-55107183D01*
X65899003Y-55090341D01*
X65983671Y-55073500D01*
X66156329Y-55073500D01*
X66240997Y-55090341D01*
X66240997Y-55090341D01*
G37*
G36*
X99288979Y-54159000D02*
X99430666Y-54187183D01*
X99496738Y-54214551D01*
X99590177Y-54253255D01*
X99733739Y-54349180D01*
X99855820Y-54471261D01*
X99951745Y-54614823D01*
X100017817Y-54774335D01*
X100051500Y-54943671D01*
X100051500Y-55116329D01*
X100036121Y-55193643D01*
X100020918Y-55270078D01*
X100017817Y-55285665D01*
X99951745Y-55445177D01*
X99855820Y-55588739D01*
X99733739Y-55710820D01*
X99590177Y-55806745D01*
X99496738Y-55845449D01*
X99430666Y-55872817D01*
X99345997Y-55889659D01*
X99261329Y-55906500D01*
X99088671Y-55906500D01*
X99004003Y-55889659D01*
X98919334Y-55872817D01*
X98853262Y-55845449D01*
X98759823Y-55806745D01*
X98616261Y-55710820D01*
X98494180Y-55588739D01*
X98398255Y-55445177D01*
X98332183Y-55285665D01*
X98329083Y-55270078D01*
X98313879Y-55193643D01*
X98298500Y-55116329D01*
X98298500Y-54943671D01*
X98332183Y-54774335D01*
X98398255Y-54614823D01*
X98494180Y-54471261D01*
X98616261Y-54349180D01*
X98759823Y-54253255D01*
X98853262Y-54214551D01*
X98919334Y-54187183D01*
X99061021Y-54159000D01*
X99088671Y-54153500D01*
X99261329Y-54153500D01*
X99288979Y-54159000D01*
X99288979Y-54159000D01*
G37*
G36*
X56023643Y-54189781D02*
X56169415Y-54250162D01*
X56300611Y-54337824D01*
X56412176Y-54449389D01*
X56499838Y-54580585D01*
X56560219Y-54726357D01*
X56591000Y-54881107D01*
X56591000Y-55038893D01*
X56560219Y-55193643D01*
X56499838Y-55339415D01*
X56412176Y-55470611D01*
X56300611Y-55582176D01*
X56169415Y-55669838D01*
X56023643Y-55730219D01*
X55868893Y-55761000D01*
X55711107Y-55761000D01*
X55556357Y-55730219D01*
X55410585Y-55669838D01*
X55279389Y-55582176D01*
X55167824Y-55470611D01*
X55080162Y-55339415D01*
X55019781Y-55193643D01*
X54989000Y-55038893D01*
X54989000Y-54881107D01*
X55019781Y-54726357D01*
X55080162Y-54580585D01*
X55167824Y-54449389D01*
X55279389Y-54337824D01*
X55410585Y-54250162D01*
X55556357Y-54189781D01*
X55711107Y-54159000D01*
X55868893Y-54159000D01*
X56023643Y-54189781D01*
X56023643Y-54189781D01*
G37*
G36*
X82221821Y-53956313D02*
X82221824Y-53956314D01*
X82221825Y-53956314D01*
X82382239Y-54004975D01*
X82382241Y-54004976D01*
X82382244Y-54004977D01*
X82530078Y-54083995D01*
X82659659Y-54190341D01*
X82766005Y-54319922D01*
X82845023Y-54467756D01*
X82845024Y-54467759D01*
X82845025Y-54467761D01*
X82893686Y-54628175D01*
X82893687Y-54628179D01*
X82910117Y-54795000D01*
X82893687Y-54961821D01*
X82893686Y-54961824D01*
X82893686Y-54961825D01*
X82846818Y-55116329D01*
X82845023Y-55122244D01*
X82766005Y-55270078D01*
X82659659Y-55399659D01*
X82530078Y-55506005D01*
X82382244Y-55585023D01*
X82382241Y-55585024D01*
X82382239Y-55585025D01*
X82221825Y-55633686D01*
X82221824Y-55633686D01*
X82221821Y-55633687D01*
X82096804Y-55646000D01*
X82013196Y-55646000D01*
X81888179Y-55633687D01*
X81888176Y-55633686D01*
X81888175Y-55633686D01*
X81727761Y-55585025D01*
X81727759Y-55585024D01*
X81727756Y-55585023D01*
X81579922Y-55506005D01*
X81450341Y-55399659D01*
X81343995Y-55270078D01*
X81264977Y-55122244D01*
X81263183Y-55116329D01*
X81216314Y-54961825D01*
X81216314Y-54961824D01*
X81216313Y-54961821D01*
X81199883Y-54795000D01*
X81216313Y-54628179D01*
X81216314Y-54628175D01*
X81264975Y-54467761D01*
X81264976Y-54467759D01*
X81264977Y-54467756D01*
X81343995Y-54319922D01*
X81450341Y-54190341D01*
X81579922Y-54083995D01*
X81727756Y-54004977D01*
X81727759Y-54004976D01*
X81727761Y-54004975D01*
X81888175Y-53956314D01*
X81888176Y-53956314D01*
X81888179Y-53956313D01*
X82013196Y-53944000D01*
X82096804Y-53944000D01*
X82221821Y-53956313D01*
X82221821Y-53956313D01*
G37*
G36*
X89841821Y-53956313D02*
X89841824Y-53956314D01*
X89841825Y-53956314D01*
X90002239Y-54004975D01*
X90002241Y-54004976D01*
X90002244Y-54004977D01*
X90150078Y-54083995D01*
X90279659Y-54190341D01*
X90386005Y-54319922D01*
X90465023Y-54467756D01*
X90465024Y-54467759D01*
X90465025Y-54467761D01*
X90513686Y-54628175D01*
X90513687Y-54628179D01*
X90530117Y-54795000D01*
X90513687Y-54961821D01*
X90513686Y-54961824D01*
X90513686Y-54961825D01*
X90466818Y-55116329D01*
X90465023Y-55122244D01*
X90386005Y-55270078D01*
X90279659Y-55399659D01*
X90150078Y-55506005D01*
X90002244Y-55585023D01*
X90002241Y-55585024D01*
X90002239Y-55585025D01*
X89841825Y-55633686D01*
X89841824Y-55633686D01*
X89841821Y-55633687D01*
X89716804Y-55646000D01*
X89633196Y-55646000D01*
X89508179Y-55633687D01*
X89508176Y-55633686D01*
X89508175Y-55633686D01*
X89347761Y-55585025D01*
X89347759Y-55585024D01*
X89347756Y-55585023D01*
X89199922Y-55506005D01*
X89070341Y-55399659D01*
X88963995Y-55270078D01*
X88884977Y-55122244D01*
X88883183Y-55116329D01*
X88836314Y-54961825D01*
X88836314Y-54961824D01*
X88836313Y-54961821D01*
X88819883Y-54795000D01*
X88836313Y-54628179D01*
X88836314Y-54628175D01*
X88884975Y-54467761D01*
X88884976Y-54467759D01*
X88884977Y-54467756D01*
X88963995Y-54319922D01*
X89070341Y-54190341D01*
X89199922Y-54083995D01*
X89347756Y-54004977D01*
X89347759Y-54004976D01*
X89347761Y-54004975D01*
X89508175Y-53956314D01*
X89508176Y-53956314D01*
X89508179Y-53956313D01*
X89633196Y-53944000D01*
X89716804Y-53944000D01*
X89841821Y-53956313D01*
X89841821Y-53956313D01*
G37*
G36*
X53483643Y-52919781D02*
X53629415Y-52980162D01*
X53760611Y-53067824D01*
X53872176Y-53179389D01*
X53959838Y-53310585D01*
X54020219Y-53456357D01*
X54051000Y-53611107D01*
X54051000Y-53768893D01*
X54020219Y-53923643D01*
X53959838Y-54069415D01*
X53872176Y-54200611D01*
X53760611Y-54312176D01*
X53629415Y-54399838D01*
X53483643Y-54460219D01*
X53328893Y-54491000D01*
X53171107Y-54491000D01*
X53016357Y-54460219D01*
X52870585Y-54399838D01*
X52739389Y-54312176D01*
X52627824Y-54200611D01*
X52540162Y-54069415D01*
X52479781Y-53923643D01*
X52449000Y-53768893D01*
X52449000Y-53611107D01*
X52479781Y-53456357D01*
X52540162Y-53310585D01*
X52627824Y-53179389D01*
X52739389Y-53067824D01*
X52870585Y-52980162D01*
X53016357Y-52919781D01*
X53171107Y-52889000D01*
X53328893Y-52889000D01*
X53483643Y-52919781D01*
X53483643Y-52919781D01*
G37*
G36*
X66240997Y-52550342D02*
X66325666Y-52567183D01*
X66391738Y-52594551D01*
X66485177Y-52633255D01*
X66628739Y-52729180D01*
X66750820Y-52851261D01*
X66846745Y-52994823D01*
X66867539Y-53045025D01*
X66912817Y-53154334D01*
X66929658Y-53239003D01*
X66946500Y-53323671D01*
X66946500Y-53496329D01*
X66912817Y-53665665D01*
X66846745Y-53825177D01*
X66750820Y-53968739D01*
X66628739Y-54090820D01*
X66485177Y-54186745D01*
X66451701Y-54200611D01*
X66325666Y-54252817D01*
X66240997Y-54269658D01*
X66156329Y-54286500D01*
X65983671Y-54286500D01*
X65899003Y-54269658D01*
X65814334Y-54252817D01*
X65688299Y-54200611D01*
X65654823Y-54186745D01*
X65511261Y-54090820D01*
X65389180Y-53968739D01*
X65293255Y-53825177D01*
X65227183Y-53665665D01*
X65193500Y-53496329D01*
X65193500Y-53323671D01*
X65210341Y-53239003D01*
X65227183Y-53154334D01*
X65272461Y-53045025D01*
X65293255Y-52994823D01*
X65389180Y-52851261D01*
X65511261Y-52729180D01*
X65654823Y-52633255D01*
X65748262Y-52594551D01*
X65814334Y-52567183D01*
X65899003Y-52550342D01*
X65983671Y-52533500D01*
X66156329Y-52533500D01*
X66240997Y-52550342D01*
X66240997Y-52550342D01*
G37*
G36*
X63700997Y-52550342D02*
X63785666Y-52567183D01*
X63851738Y-52594551D01*
X63945177Y-52633255D01*
X64088739Y-52729180D01*
X64210820Y-52851261D01*
X64306745Y-52994823D01*
X64327539Y-53045025D01*
X64372817Y-53154334D01*
X64389658Y-53239003D01*
X64406500Y-53323671D01*
X64406500Y-53496329D01*
X64372817Y-53665665D01*
X64306745Y-53825177D01*
X64210820Y-53968739D01*
X64088739Y-54090820D01*
X63945177Y-54186745D01*
X63911701Y-54200611D01*
X63785666Y-54252817D01*
X63700997Y-54269658D01*
X63616329Y-54286500D01*
X63443671Y-54286500D01*
X63359003Y-54269658D01*
X63274334Y-54252817D01*
X63148299Y-54200611D01*
X63114823Y-54186745D01*
X62971261Y-54090820D01*
X62849180Y-53968739D01*
X62753255Y-53825177D01*
X62687183Y-53665665D01*
X62653500Y-53496329D01*
X62653500Y-53323671D01*
X62670341Y-53239003D01*
X62687183Y-53154334D01*
X62732461Y-53045025D01*
X62753255Y-52994823D01*
X62849180Y-52851261D01*
X62971261Y-52729180D01*
X63114823Y-52633255D01*
X63208262Y-52594551D01*
X63274334Y-52567183D01*
X63359003Y-52550342D01*
X63443671Y-52533500D01*
X63616329Y-52533500D01*
X63700997Y-52550342D01*
X63700997Y-52550342D01*
G37*
G36*
X106517135Y-51708386D02*
X106624650Y-51729772D01*
X106827203Y-51813672D01*
X106970453Y-51909389D01*
X107009499Y-51935479D01*
X107164521Y-52090501D01*
X107164523Y-52090504D01*
X107286328Y-52272797D01*
X107348057Y-52421825D01*
X107370228Y-52475351D01*
X107413000Y-52690378D01*
X107413000Y-52909622D01*
X107398968Y-52980163D01*
X107370228Y-53124650D01*
X107286328Y-53327203D01*
X107173322Y-53496328D01*
X107164521Y-53509499D01*
X107009499Y-53664521D01*
X107009496Y-53664523D01*
X106827203Y-53786328D01*
X106624650Y-53870228D01*
X106409622Y-53913000D01*
X106190378Y-53913000D01*
X105975350Y-53870228D01*
X105772797Y-53786328D01*
X105590504Y-53664523D01*
X105590501Y-53664521D01*
X105435479Y-53509499D01*
X105426678Y-53496328D01*
X105313672Y-53327203D01*
X105229772Y-53124650D01*
X105201032Y-52980163D01*
X105187000Y-52909622D01*
X105187000Y-52690378D01*
X105229772Y-52475351D01*
X105251943Y-52421825D01*
X105313672Y-52272797D01*
X105435477Y-52090504D01*
X105435479Y-52090501D01*
X105590501Y-51935479D01*
X105629547Y-51909389D01*
X105772797Y-51813672D01*
X105975350Y-51729772D01*
X106190378Y-51687000D01*
X106409622Y-51687000D01*
X106517135Y-51708386D01*
X106517135Y-51708386D01*
G37*
G36*
X56023643Y-51649781D02*
X56169415Y-51710162D01*
X56300611Y-51797824D01*
X56412176Y-51909389D01*
X56499838Y-52040585D01*
X56560219Y-52186357D01*
X56591000Y-52341107D01*
X56591000Y-52498893D01*
X56560219Y-52653643D01*
X56499838Y-52799415D01*
X56412176Y-52930611D01*
X56300611Y-53042176D01*
X56169415Y-53129838D01*
X56023643Y-53190219D01*
X55868893Y-53221000D01*
X55711107Y-53221000D01*
X55556357Y-53190219D01*
X55410585Y-53129838D01*
X55279389Y-53042176D01*
X55167824Y-52930611D01*
X55080162Y-52799415D01*
X55019781Y-52653643D01*
X54989000Y-52498893D01*
X54989000Y-52341107D01*
X55019781Y-52186357D01*
X55080162Y-52040585D01*
X55167824Y-51909389D01*
X55279389Y-51797824D01*
X55410585Y-51710162D01*
X55556357Y-51649781D01*
X55711107Y-51619000D01*
X55868893Y-51619000D01*
X56023643Y-51649781D01*
X56023643Y-51649781D01*
G37*
G36*
X89841821Y-51416313D02*
X89841824Y-51416314D01*
X89841825Y-51416314D01*
X90002239Y-51464975D01*
X90002241Y-51464976D01*
X90002244Y-51464977D01*
X90150078Y-51543995D01*
X90279659Y-51650341D01*
X90386005Y-51779922D01*
X90465023Y-51927756D01*
X90465024Y-51927759D01*
X90465025Y-51927761D01*
X90513686Y-52088175D01*
X90513687Y-52088179D01*
X90530117Y-52255000D01*
X90513687Y-52421821D01*
X90513686Y-52421824D01*
X90513686Y-52421825D01*
X90479810Y-52533500D01*
X90465023Y-52582244D01*
X90386005Y-52730078D01*
X90279659Y-52859659D01*
X90150078Y-52966005D01*
X90002244Y-53045023D01*
X90002241Y-53045024D01*
X90002239Y-53045025D01*
X89841825Y-53093686D01*
X89841824Y-53093686D01*
X89841821Y-53093687D01*
X89716804Y-53106000D01*
X89633196Y-53106000D01*
X89508179Y-53093687D01*
X89508176Y-53093686D01*
X89508175Y-53093686D01*
X89347761Y-53045025D01*
X89347759Y-53045024D01*
X89347756Y-53045023D01*
X89199922Y-52966005D01*
X89070341Y-52859659D01*
X88963995Y-52730078D01*
X88884977Y-52582244D01*
X88870191Y-52533500D01*
X88836314Y-52421825D01*
X88836314Y-52421824D01*
X88836313Y-52421821D01*
X88819883Y-52255000D01*
X88836313Y-52088179D01*
X88836314Y-52088175D01*
X88884975Y-51927761D01*
X88884976Y-51927759D01*
X88884977Y-51927756D01*
X88963995Y-51779922D01*
X89070341Y-51650341D01*
X89199922Y-51543995D01*
X89347756Y-51464977D01*
X89347759Y-51464976D01*
X89347761Y-51464975D01*
X89508175Y-51416314D01*
X89508176Y-51416314D01*
X89508179Y-51416313D01*
X89633196Y-51404000D01*
X89716804Y-51404000D01*
X89841821Y-51416313D01*
X89841821Y-51416313D01*
G37*
G36*
X82221821Y-51416313D02*
X82221824Y-51416314D01*
X82221825Y-51416314D01*
X82382239Y-51464975D01*
X82382241Y-51464976D01*
X82382244Y-51464977D01*
X82530078Y-51543995D01*
X82659659Y-51650341D01*
X82766005Y-51779922D01*
X82845023Y-51927756D01*
X82845024Y-51927759D01*
X82845025Y-51927761D01*
X82893686Y-52088175D01*
X82893687Y-52088179D01*
X82910117Y-52255000D01*
X82893687Y-52421821D01*
X82893686Y-52421824D01*
X82893686Y-52421825D01*
X82859810Y-52533500D01*
X82845023Y-52582244D01*
X82766005Y-52730078D01*
X82659659Y-52859659D01*
X82530078Y-52966005D01*
X82382244Y-53045023D01*
X82382241Y-53045024D01*
X82382239Y-53045025D01*
X82221825Y-53093686D01*
X82221824Y-53093686D01*
X82221821Y-53093687D01*
X82096804Y-53106000D01*
X82013196Y-53106000D01*
X81888179Y-53093687D01*
X81888176Y-53093686D01*
X81888175Y-53093686D01*
X81727761Y-53045025D01*
X81727759Y-53045024D01*
X81727756Y-53045023D01*
X81579922Y-52966005D01*
X81450341Y-52859659D01*
X81343995Y-52730078D01*
X81264977Y-52582244D01*
X81250191Y-52533500D01*
X81216314Y-52421825D01*
X81216314Y-52421824D01*
X81216313Y-52421821D01*
X81199883Y-52255000D01*
X81216313Y-52088179D01*
X81216314Y-52088175D01*
X81264975Y-51927761D01*
X81264976Y-51927759D01*
X81264977Y-51927756D01*
X81343995Y-51779922D01*
X81450341Y-51650341D01*
X81579922Y-51543995D01*
X81727756Y-51464977D01*
X81727759Y-51464976D01*
X81727761Y-51464975D01*
X81888175Y-51416314D01*
X81888176Y-51416314D01*
X81888179Y-51416313D01*
X82013196Y-51404000D01*
X82096804Y-51404000D01*
X82221821Y-51416313D01*
X82221821Y-51416313D01*
G37*
G36*
X54051000Y-51951000D02*
X52449000Y-51951000D01*
X52449000Y-50349000D01*
X54051000Y-50349000D01*
X54051000Y-51951000D01*
X54051000Y-51951000D01*
G37*
G36*
X47275256Y-48271298D02*
X47381579Y-48292447D01*
X47682042Y-48416903D01*
X47820617Y-48509496D01*
X47952454Y-48597587D01*
X48182413Y-48827546D01*
X48363098Y-49097960D01*
X48487553Y-49398422D01*
X48551000Y-49717389D01*
X48551000Y-50042611D01*
X48487553Y-50361578D01*
X48363098Y-50662040D01*
X48182413Y-50932454D01*
X47952454Y-51162413D01*
X47952451Y-51162415D01*
X47682042Y-51343097D01*
X47381579Y-51467553D01*
X47275256Y-51488702D01*
X47062611Y-51531000D01*
X46737389Y-51531000D01*
X46524744Y-51488702D01*
X46418421Y-51467553D01*
X46117958Y-51343097D01*
X45847549Y-51162415D01*
X45847546Y-51162413D01*
X45617587Y-50932454D01*
X45436902Y-50662040D01*
X45312447Y-50361578D01*
X45249000Y-50042611D01*
X45249000Y-49717389D01*
X45312447Y-49398422D01*
X45436902Y-49097960D01*
X45617587Y-48827546D01*
X45847546Y-48597587D01*
X45979383Y-48509496D01*
X46117958Y-48416903D01*
X46418421Y-48292447D01*
X46524744Y-48271298D01*
X46737389Y-48229000D01*
X47062611Y-48229000D01*
X47275256Y-48271298D01*
X47275256Y-48271298D01*
G37*
G36*
X116517135Y-49208386D02*
X116624650Y-49229772D01*
X116827203Y-49313672D01*
X117008267Y-49434656D01*
X117009499Y-49435479D01*
X117164521Y-49590501D01*
X117164523Y-49590504D01*
X117286328Y-49772797D01*
X117370228Y-49975350D01*
X117413000Y-50190379D01*
X117413000Y-50409621D01*
X117370228Y-50624650D01*
X117286328Y-50827203D01*
X117216003Y-50932451D01*
X117164521Y-51009499D01*
X117009499Y-51164521D01*
X117009496Y-51164523D01*
X116827203Y-51286328D01*
X116624650Y-51370228D01*
X116409622Y-51413000D01*
X116190378Y-51413000D01*
X116082865Y-51391614D01*
X115975350Y-51370228D01*
X115772797Y-51286328D01*
X115590504Y-51164523D01*
X115590501Y-51164521D01*
X115435479Y-51009499D01*
X115383997Y-50932451D01*
X115313672Y-50827203D01*
X115229772Y-50624650D01*
X115187000Y-50409621D01*
X115187000Y-50190379D01*
X115229772Y-49975350D01*
X115313672Y-49772797D01*
X115435477Y-49590504D01*
X115435479Y-49590501D01*
X115590501Y-49435479D01*
X115591733Y-49434656D01*
X115772797Y-49313672D01*
X115975350Y-49229772D01*
X116190378Y-49187000D01*
X116409622Y-49187000D01*
X116517135Y-49208386D01*
X116517135Y-49208386D01*
G37*
G36*
X104017135Y-49208386D02*
X104124650Y-49229772D01*
X104327203Y-49313672D01*
X104508267Y-49434656D01*
X104509499Y-49435479D01*
X104664521Y-49590501D01*
X104664523Y-49590504D01*
X104786328Y-49772797D01*
X104870228Y-49975350D01*
X104913000Y-50190379D01*
X104913000Y-50409621D01*
X104870228Y-50624650D01*
X104786328Y-50827203D01*
X104716003Y-50932451D01*
X104664521Y-51009499D01*
X104509499Y-51164521D01*
X104509496Y-51164523D01*
X104327203Y-51286328D01*
X104124650Y-51370228D01*
X103909622Y-51413000D01*
X103690378Y-51413000D01*
X103582865Y-51391614D01*
X103475350Y-51370228D01*
X103272797Y-51286328D01*
X103090504Y-51164523D01*
X103090501Y-51164521D01*
X102935479Y-51009499D01*
X102883997Y-50932451D01*
X102813672Y-50827203D01*
X102729772Y-50624650D01*
X102687000Y-50409621D01*
X102687000Y-50190379D01*
X102729772Y-49975350D01*
X102813672Y-49772797D01*
X102935477Y-49590504D01*
X102935479Y-49590501D01*
X103090501Y-49435479D01*
X103091733Y-49434656D01*
X103272797Y-49313672D01*
X103475350Y-49229772D01*
X103690378Y-49187000D01*
X103909622Y-49187000D01*
X104017135Y-49208386D01*
X104017135Y-49208386D01*
G37*
G36*
X116493432Y-46703671D02*
X116624650Y-46729772D01*
X116827203Y-46813672D01*
X116920975Y-46876329D01*
X117009499Y-46935479D01*
X117164521Y-47090501D01*
X117164523Y-47090504D01*
X117286328Y-47272797D01*
X117370228Y-47475350D01*
X117413000Y-47690379D01*
X117413000Y-47909621D01*
X117370228Y-48124650D01*
X117286328Y-48327203D01*
X117226392Y-48416903D01*
X117164521Y-48509499D01*
X117009499Y-48664521D01*
X117009496Y-48664523D01*
X116827203Y-48786328D01*
X116624650Y-48870228D01*
X116517135Y-48891614D01*
X116409622Y-48913000D01*
X116190378Y-48913000D01*
X116082865Y-48891614D01*
X115975350Y-48870228D01*
X115772797Y-48786328D01*
X115590504Y-48664523D01*
X115590501Y-48664521D01*
X115435479Y-48509499D01*
X115373608Y-48416903D01*
X115313672Y-48327203D01*
X115229772Y-48124650D01*
X115187000Y-47909621D01*
X115187000Y-47690379D01*
X115229772Y-47475350D01*
X115313672Y-47272797D01*
X115435477Y-47090504D01*
X115435479Y-47090501D01*
X115590501Y-46935479D01*
X115679025Y-46876329D01*
X115772797Y-46813672D01*
X115975350Y-46729772D01*
X116106568Y-46703671D01*
X116190378Y-46687000D01*
X116409622Y-46687000D01*
X116493432Y-46703671D01*
X116493432Y-46703671D01*
G37*
G36*
X67096500Y-47666500D02*
X65343500Y-47666500D01*
X65343500Y-45913500D01*
X67096500Y-45913500D01*
X67096500Y-47666500D01*
X67096500Y-47666500D01*
G37*
G36*
X63850997Y-45930342D02*
X63935666Y-45947183D01*
X64001738Y-45974551D01*
X64095177Y-46013255D01*
X64238739Y-46109180D01*
X64360820Y-46231261D01*
X64456745Y-46374823D01*
X64522817Y-46534335D01*
X64556500Y-46703671D01*
X64556500Y-46876329D01*
X64522817Y-47045665D01*
X64456745Y-47205177D01*
X64360820Y-47348739D01*
X64238739Y-47470820D01*
X64095177Y-47566745D01*
X64001738Y-47605449D01*
X63935666Y-47632817D01*
X63850997Y-47649658D01*
X63766329Y-47666500D01*
X63593671Y-47666500D01*
X63509003Y-47649658D01*
X63424334Y-47632817D01*
X63358262Y-47605449D01*
X63264823Y-47566745D01*
X63121261Y-47470820D01*
X62999180Y-47348739D01*
X62903255Y-47205177D01*
X62837183Y-47045665D01*
X62803500Y-46876329D01*
X62803500Y-46703671D01*
X62837183Y-46534335D01*
X62903255Y-46374823D01*
X62999180Y-46231261D01*
X63121261Y-46109180D01*
X63264823Y-46013255D01*
X63358262Y-45974551D01*
X63424334Y-45947183D01*
X63509003Y-45930342D01*
X63593671Y-45913500D01*
X63766329Y-45913500D01*
X63850997Y-45930342D01*
X63850997Y-45930342D01*
G37*
G36*
X106624650Y-44229772D02*
X106827203Y-44313672D01*
X106861111Y-44336329D01*
X107009499Y-44435479D01*
X107164521Y-44590501D01*
X107164523Y-44590504D01*
X107286328Y-44772797D01*
X107370228Y-44975350D01*
X107413000Y-45190379D01*
X107413000Y-45409621D01*
X107370228Y-45624650D01*
X107286328Y-45827203D01*
X107228666Y-45913500D01*
X107164521Y-46009499D01*
X107009499Y-46164521D01*
X107009496Y-46164523D01*
X106827203Y-46286328D01*
X106624650Y-46370228D01*
X106601554Y-46374822D01*
X106409622Y-46413000D01*
X106190378Y-46413000D01*
X105998446Y-46374822D01*
X105975350Y-46370228D01*
X105772797Y-46286328D01*
X105590504Y-46164523D01*
X105590501Y-46164521D01*
X105435479Y-46009499D01*
X105371334Y-45913500D01*
X105313672Y-45827203D01*
X105229772Y-45624650D01*
X105187000Y-45409621D01*
X105187000Y-45190379D01*
X105229772Y-44975350D01*
X105313672Y-44772797D01*
X105435477Y-44590504D01*
X105435479Y-44590501D01*
X105590501Y-44435479D01*
X105738889Y-44336329D01*
X105772797Y-44313672D01*
X105975350Y-44229772D01*
X106082865Y-44208386D01*
X106190378Y-44187000D01*
X106409622Y-44187000D01*
X106624650Y-44229772D01*
X106624650Y-44229772D01*
G37*
G36*
X66390997Y-43390342D02*
X66475666Y-43407183D01*
X66541738Y-43434551D01*
X66635177Y-43473255D01*
X66778739Y-43569180D01*
X66900820Y-43691261D01*
X66996745Y-43834823D01*
X67062817Y-43994335D01*
X67096500Y-44163671D01*
X67096500Y-44336329D01*
X67062817Y-44505665D01*
X66996745Y-44665177D01*
X66900820Y-44808739D01*
X66778739Y-44930820D01*
X66635177Y-45026745D01*
X66541738Y-45065449D01*
X66475666Y-45092817D01*
X66390997Y-45109658D01*
X66306329Y-45126500D01*
X66133671Y-45126500D01*
X66049003Y-45109658D01*
X65964334Y-45092817D01*
X65898262Y-45065449D01*
X65804823Y-45026745D01*
X65661261Y-44930820D01*
X65539180Y-44808739D01*
X65443255Y-44665177D01*
X65377183Y-44505665D01*
X65343500Y-44336329D01*
X65343500Y-44163671D01*
X65377183Y-43994335D01*
X65443255Y-43834823D01*
X65539180Y-43691261D01*
X65661261Y-43569180D01*
X65804823Y-43473255D01*
X65898262Y-43434551D01*
X65964334Y-43407183D01*
X66049003Y-43390342D01*
X66133671Y-43373500D01*
X66306329Y-43373500D01*
X66390997Y-43390342D01*
X66390997Y-43390342D01*
G37*
G36*
X63850997Y-43390342D02*
X63935666Y-43407183D01*
X64001738Y-43434551D01*
X64095177Y-43473255D01*
X64238739Y-43569180D01*
X64360820Y-43691261D01*
X64456745Y-43834823D01*
X64522817Y-43994335D01*
X64556500Y-44163671D01*
X64556500Y-44336329D01*
X64522817Y-44505665D01*
X64456745Y-44665177D01*
X64360820Y-44808739D01*
X64238739Y-44930820D01*
X64095177Y-45026745D01*
X64001738Y-45065449D01*
X63935666Y-45092817D01*
X63850997Y-45109658D01*
X63766329Y-45126500D01*
X63593671Y-45126500D01*
X63509003Y-45109658D01*
X63424334Y-45092817D01*
X63358262Y-45065449D01*
X63264823Y-45026745D01*
X63121261Y-44930820D01*
X62999180Y-44808739D01*
X62903255Y-44665177D01*
X62837183Y-44505665D01*
X62803500Y-44336329D01*
X62803500Y-44163671D01*
X62837183Y-43994335D01*
X62903255Y-43834823D01*
X62999180Y-43691261D01*
X63121261Y-43569180D01*
X63264823Y-43473255D01*
X63358262Y-43434551D01*
X63424334Y-43407183D01*
X63509003Y-43390342D01*
X63593671Y-43373500D01*
X63766329Y-43373500D01*
X63850997Y-43390342D01*
X63850997Y-43390342D01*
G37*
G36*
X116517135Y-41708386D02*
X116624650Y-41729772D01*
X116827203Y-41813672D01*
X117008267Y-41934656D01*
X117009499Y-41935479D01*
X117164521Y-42090501D01*
X117164523Y-42090504D01*
X117286328Y-42272797D01*
X117370228Y-42475350D01*
X117413000Y-42690379D01*
X117413000Y-42909621D01*
X117370228Y-43124650D01*
X117286328Y-43327203D01*
X117188738Y-43473256D01*
X117164521Y-43509499D01*
X117009499Y-43664521D01*
X117009496Y-43664523D01*
X116827203Y-43786328D01*
X116624650Y-43870228D01*
X116409622Y-43913000D01*
X116190378Y-43913000D01*
X115975350Y-43870228D01*
X115772797Y-43786328D01*
X115590504Y-43664523D01*
X115590501Y-43664521D01*
X115435479Y-43509499D01*
X115411262Y-43473256D01*
X115313672Y-43327203D01*
X115229772Y-43124650D01*
X115187000Y-42909621D01*
X115187000Y-42690379D01*
X115229772Y-42475350D01*
X115313672Y-42272797D01*
X115435477Y-42090504D01*
X115435479Y-42090501D01*
X115590501Y-41935479D01*
X115591733Y-41934656D01*
X115772797Y-41813672D01*
X115975350Y-41729772D01*
X116082865Y-41708386D01*
X116190378Y-41687000D01*
X116409622Y-41687000D01*
X116517135Y-41708386D01*
X116517135Y-41708386D01*
G37*
G36*
X66390997Y-40850342D02*
X66475666Y-40867183D01*
X66541738Y-40894551D01*
X66635177Y-40933255D01*
X66778739Y-41029180D01*
X66900820Y-41151261D01*
X66996745Y-41294823D01*
X67027979Y-41370228D01*
X67045696Y-41413000D01*
X67062817Y-41454335D01*
X67096500Y-41623671D01*
X67096500Y-41796329D01*
X67062817Y-41965665D01*
X66996745Y-42125177D01*
X66900820Y-42268739D01*
X66778739Y-42390820D01*
X66635177Y-42486745D01*
X66541738Y-42525449D01*
X66475666Y-42552817D01*
X66390997Y-42569658D01*
X66306329Y-42586500D01*
X66133671Y-42586500D01*
X66049003Y-42569658D01*
X65964334Y-42552817D01*
X65898262Y-42525449D01*
X65804823Y-42486745D01*
X65661261Y-42390820D01*
X65539180Y-42268739D01*
X65443255Y-42125177D01*
X65377183Y-41965665D01*
X65343500Y-41796329D01*
X65343500Y-41623671D01*
X65377183Y-41454335D01*
X65394305Y-41413000D01*
X65412021Y-41370228D01*
X65443255Y-41294823D01*
X65539180Y-41151261D01*
X65661261Y-41029180D01*
X65804823Y-40933255D01*
X65898262Y-40894551D01*
X65964334Y-40867183D01*
X66049003Y-40850342D01*
X66133671Y-40833500D01*
X66306329Y-40833500D01*
X66390997Y-40850342D01*
X66390997Y-40850342D01*
G37*
G36*
X63850997Y-40850342D02*
X63935666Y-40867183D01*
X64001738Y-40894551D01*
X64095177Y-40933255D01*
X64238739Y-41029180D01*
X64360820Y-41151261D01*
X64456745Y-41294823D01*
X64487979Y-41370228D01*
X64505696Y-41413000D01*
X64522817Y-41454335D01*
X64556500Y-41623671D01*
X64556500Y-41796329D01*
X64522817Y-41965665D01*
X64456745Y-42125177D01*
X64360820Y-42268739D01*
X64238739Y-42390820D01*
X64095177Y-42486745D01*
X64001738Y-42525449D01*
X63935666Y-42552817D01*
X63850997Y-42569658D01*
X63766329Y-42586500D01*
X63593671Y-42586500D01*
X63509003Y-42569658D01*
X63424334Y-42552817D01*
X63358262Y-42525449D01*
X63264823Y-42486745D01*
X63121261Y-42390820D01*
X62999180Y-42268739D01*
X62903255Y-42125177D01*
X62837183Y-41965665D01*
X62803500Y-41796329D01*
X62803500Y-41623671D01*
X62837183Y-41454335D01*
X62854305Y-41413000D01*
X62872021Y-41370228D01*
X62903255Y-41294823D01*
X62999180Y-41151261D01*
X63121261Y-41029180D01*
X63264823Y-40933255D01*
X63358262Y-40894551D01*
X63424334Y-40867183D01*
X63509003Y-40850342D01*
X63593671Y-40833500D01*
X63766329Y-40833500D01*
X63850997Y-40850342D01*
X63850997Y-40850342D01*
G37*
G36*
X104124650Y-39229772D02*
X104327203Y-39313672D01*
X104508267Y-39434656D01*
X104509499Y-39435479D01*
X104664521Y-39590501D01*
X104664523Y-39590504D01*
X104786328Y-39772797D01*
X104870228Y-39975350D01*
X104913000Y-40190379D01*
X104913000Y-40409621D01*
X104870228Y-40624650D01*
X104786328Y-40827203D01*
X104782120Y-40833500D01*
X104664521Y-41009499D01*
X104509499Y-41164521D01*
X104509496Y-41164523D01*
X104327203Y-41286328D01*
X104124650Y-41370228D01*
X103909622Y-41413000D01*
X103690378Y-41413000D01*
X103475350Y-41370228D01*
X103272797Y-41286328D01*
X103090504Y-41164523D01*
X103090501Y-41164521D01*
X102935479Y-41009499D01*
X102817880Y-40833500D01*
X102813672Y-40827203D01*
X102729772Y-40624650D01*
X102687000Y-40409621D01*
X102687000Y-40190379D01*
X102729772Y-39975350D01*
X102813672Y-39772797D01*
X102935477Y-39590504D01*
X102935479Y-39590501D01*
X103090501Y-39435479D01*
X103091733Y-39434656D01*
X103272797Y-39313672D01*
X103475350Y-39229772D01*
X103690378Y-39187000D01*
X103909622Y-39187000D01*
X104124650Y-39229772D01*
X104124650Y-39229772D01*
G37*
G36*
X116624650Y-39229772D02*
X116827203Y-39313672D01*
X117008267Y-39434656D01*
X117009499Y-39435479D01*
X117164521Y-39590501D01*
X117164523Y-39590504D01*
X117286328Y-39772797D01*
X117370228Y-39975350D01*
X117413000Y-40190379D01*
X117413000Y-40409621D01*
X117370228Y-40624650D01*
X117286328Y-40827203D01*
X117282120Y-40833500D01*
X117164521Y-41009499D01*
X117009499Y-41164521D01*
X117009496Y-41164523D01*
X116827203Y-41286328D01*
X116624650Y-41370228D01*
X116409622Y-41413000D01*
X116190378Y-41413000D01*
X115975350Y-41370228D01*
X115772797Y-41286328D01*
X115590504Y-41164523D01*
X115590501Y-41164521D01*
X115435479Y-41009499D01*
X115317880Y-40833500D01*
X115313672Y-40827203D01*
X115229772Y-40624650D01*
X115187000Y-40409621D01*
X115187000Y-40190379D01*
X115229772Y-39975350D01*
X115313672Y-39772797D01*
X115435477Y-39590504D01*
X115435479Y-39590501D01*
X115590501Y-39435479D01*
X115591733Y-39434656D01*
X115772797Y-39313672D01*
X115975350Y-39229772D01*
X116190378Y-39187000D01*
X116409622Y-39187000D01*
X116624650Y-39229772D01*
X116624650Y-39229772D01*
G37*
G36*
X106624650Y-36729772D02*
X106827203Y-36813672D01*
X107008267Y-36934656D01*
X107009499Y-36935479D01*
X107164521Y-37090501D01*
X107164523Y-37090504D01*
X107286328Y-37272797D01*
X107370228Y-37475350D01*
X107413000Y-37690379D01*
X107413000Y-37909621D01*
X107370228Y-38124650D01*
X107286328Y-38327203D01*
X107165344Y-38508267D01*
X107164521Y-38509499D01*
X107009499Y-38664521D01*
X107009496Y-38664523D01*
X106827203Y-38786328D01*
X106624650Y-38870228D01*
X106409622Y-38913000D01*
X106190378Y-38913000D01*
X105975350Y-38870228D01*
X105772797Y-38786328D01*
X105590504Y-38664523D01*
X105590501Y-38664521D01*
X105435479Y-38509499D01*
X105434656Y-38508267D01*
X105313672Y-38327203D01*
X105229772Y-38124650D01*
X105187000Y-37909621D01*
X105187000Y-37690379D01*
X105229772Y-37475350D01*
X105313672Y-37272797D01*
X105435477Y-37090504D01*
X105435479Y-37090501D01*
X105590501Y-36935479D01*
X105591733Y-36934656D01*
X105772797Y-36813672D01*
X105975350Y-36729772D01*
X106190378Y-36687000D01*
X106409622Y-36687000D01*
X106624650Y-36729772D01*
X106624650Y-36729772D01*
G37*
M02*
