G04 #@! TF.GenerationSoftware,KiCad,Pcbnew,(5.0.2)-1*
G04 #@! TF.CreationDate,2020-11-24T14:30:46-08:00*
G04 #@! TF.ProjectId,MIDIExtender,4d494449-4578-4746-956e-6465722e6b69,rev?*
G04 #@! TF.SameCoordinates,Original*
G04 #@! TF.FileFunction,Other,User*
%FSLAX46Y46*%
G04 Gerber Fmt 4.6, Leading zero omitted, Abs format (unit mm)*
G04 Created by KiCad (PCBNEW (5.0.2)-1) date 11/24/2020 2:30:46 PM*
%MOMM*%
%LPD*%
G01*
G04 APERTURE LIST*
%ADD10C,0.300000*%
%ADD11C,0.200000*%
G04 APERTURE END LIST*
D10*
X73638400Y-80310871D02*
X73995542Y-81310871D01*
X74352685Y-80310871D01*
X74924114Y-80739442D02*
X76066971Y-80739442D01*
X77424114Y-80310871D02*
X77424114Y-81525157D01*
X77352685Y-81668014D01*
X77281257Y-81739442D01*
X77138400Y-81810871D01*
X76924114Y-81810871D01*
X76781257Y-81739442D01*
X77424114Y-81239442D02*
X77281257Y-81310871D01*
X76995542Y-81310871D01*
X76852685Y-81239442D01*
X76781257Y-81168014D01*
X76709828Y-81025157D01*
X76709828Y-80596585D01*
X76781257Y-80453728D01*
X76852685Y-80382300D01*
X76995542Y-80310871D01*
X77281257Y-80310871D01*
X77424114Y-80382300D01*
X78138400Y-81310871D02*
X78138400Y-80310871D01*
X78138400Y-80596585D02*
X78209828Y-80453728D01*
X78281257Y-80382300D01*
X78424114Y-80310871D01*
X78566971Y-80310871D01*
X79281257Y-81310871D02*
X79138400Y-81239442D01*
X79066971Y-81168014D01*
X78995542Y-81025157D01*
X78995542Y-80596585D01*
X79066971Y-80453728D01*
X79138400Y-80382300D01*
X79281257Y-80310871D01*
X79495542Y-80310871D01*
X79638400Y-80382300D01*
X79709828Y-80453728D01*
X79781257Y-80596585D01*
X79781257Y-81025157D01*
X79709828Y-81168014D01*
X79638400Y-81239442D01*
X79495542Y-81310871D01*
X79281257Y-81310871D01*
X80638400Y-81310871D02*
X80495542Y-81239442D01*
X80424114Y-81168014D01*
X80352685Y-81025157D01*
X80352685Y-80596585D01*
X80424114Y-80453728D01*
X80495542Y-80382300D01*
X80638400Y-80310871D01*
X80852685Y-80310871D01*
X80995542Y-80382300D01*
X81066971Y-80453728D01*
X81138400Y-80596585D01*
X81138400Y-81025157D01*
X81066971Y-81168014D01*
X80995542Y-81239442D01*
X80852685Y-81310871D01*
X80638400Y-81310871D01*
X81638400Y-80310871D02*
X81995542Y-81310871D01*
X82352685Y-80310871D01*
X83495542Y-81239442D02*
X83352685Y-81310871D01*
X83066971Y-81310871D01*
X82924114Y-81239442D01*
X82852685Y-81096585D01*
X82852685Y-80525157D01*
X82924114Y-80382300D01*
X83066971Y-80310871D01*
X83352685Y-80310871D01*
X83495542Y-80382300D01*
X83566971Y-80525157D01*
X83566971Y-80668014D01*
X82852685Y-80810871D01*
D11*
X43000000Y-82000000D02*
X119038100Y-81961900D01*
X119000000Y-82000000D02*
X119038100Y-127961900D01*
X43000000Y-128000000D02*
X43038100Y-81961900D01*
X119000000Y-128000000D02*
X43038100Y-127961900D01*
X119000000Y-82000000D02*
X43000000Y-82000000D01*
X119000000Y-36000000D02*
X119000000Y-82000000D01*
X43000000Y-36000000D02*
X119000000Y-36000000D01*
X43000000Y-82000000D02*
X43000000Y-36000000D01*
M02*
