G04 #@! TF.GenerationSoftware,KiCad,Pcbnew,(5.1.7)-1*
G04 #@! TF.CreationDate,2022-03-27T15:00:40-07:00*
G04 #@! TF.ProjectId,PICBreakout,50494342-7265-4616-9b6f-75742e6b6963,rev?*
G04 #@! TF.SameCoordinates,Original*
G04 #@! TF.FileFunction,Legend,Bot*
G04 #@! TF.FilePolarity,Positive*
%FSLAX46Y46*%
G04 Gerber Fmt 4.6, Leading zero omitted, Abs format (unit mm)*
G04 Created by KiCad (PCBNEW (5.1.7)-1) date 2022-03-27 15:00:40*
%MOMM*%
%LPD*%
G01*
G04 APERTURE LIST*
%ADD10C,0.120000*%
%ADD11C,0.150000*%
G04 APERTURE END LIST*
D10*
X114085000Y-113311252D02*
X114085000Y-112788748D01*
X112615000Y-113311252D02*
X112615000Y-112788748D01*
X112360000Y-104003733D02*
X112360000Y-104296267D01*
X111340000Y-104003733D02*
X111340000Y-104296267D01*
D11*
X115725000Y-158600000D02*
X114125000Y-158600000D01*
X115725000Y-148525000D02*
X121475000Y-148525000D01*
X115725000Y-159175000D02*
X121475000Y-159175000D01*
X115725000Y-148525000D02*
X115725000Y-149175000D01*
X121475000Y-148525000D02*
X121475000Y-149175000D01*
X121475000Y-159175000D02*
X121475000Y-158525000D01*
X115725000Y-159175000D02*
X115725000Y-158600000D01*
D10*
X120560000Y-109550000D02*
X120560000Y-103540000D01*
X113740000Y-107300000D02*
X113740000Y-103540000D01*
X120560000Y-103540000D02*
X119300000Y-103540000D01*
X113740000Y-103540000D02*
X115000000Y-103540000D01*
D11*
X113466666Y-116157142D02*
X113514285Y-116204761D01*
X113657142Y-116252380D01*
X113752380Y-116252380D01*
X113895238Y-116204761D01*
X113990476Y-116109523D01*
X114038095Y-116014285D01*
X114085714Y-115823809D01*
X114085714Y-115680952D01*
X114038095Y-115490476D01*
X113990476Y-115395238D01*
X113895238Y-115300000D01*
X113752380Y-115252380D01*
X113657142Y-115252380D01*
X113514285Y-115300000D01*
X113466666Y-115347619D01*
X112514285Y-116252380D02*
X113085714Y-116252380D01*
X112800000Y-116252380D02*
X112800000Y-115252380D01*
X112895238Y-115395238D01*
X112990476Y-115490476D01*
X113085714Y-115538095D01*
X110066666Y-104457142D02*
X110114285Y-104504761D01*
X110257142Y-104552380D01*
X110352380Y-104552380D01*
X110495238Y-104504761D01*
X110590476Y-104409523D01*
X110638095Y-104314285D01*
X110685714Y-104123809D01*
X110685714Y-103980952D01*
X110638095Y-103790476D01*
X110590476Y-103695238D01*
X110495238Y-103600000D01*
X110352380Y-103552380D01*
X110257142Y-103552380D01*
X110114285Y-103600000D01*
X110066666Y-103647619D01*
X109209523Y-103885714D02*
X109209523Y-104552380D01*
X109447619Y-103504761D02*
X109685714Y-104219047D01*
X109066666Y-104219047D01*
X116286904Y-159777380D02*
X116286904Y-160586904D01*
X116239285Y-160682142D01*
X116191666Y-160729761D01*
X116096428Y-160777380D01*
X115905952Y-160777380D01*
X115810714Y-160729761D01*
X115763095Y-160682142D01*
X115715476Y-160586904D01*
X115715476Y-159777380D01*
X114715476Y-160777380D02*
X115286904Y-160777380D01*
X115001190Y-160777380D02*
X115001190Y-159777380D01*
X115096428Y-159920238D01*
X115191666Y-160015476D01*
X115286904Y-160063095D01*
X121761904Y-101752380D02*
X121761904Y-102561904D01*
X121714285Y-102657142D01*
X121666666Y-102704761D01*
X121571428Y-102752380D01*
X121380952Y-102752380D01*
X121285714Y-102704761D01*
X121238095Y-102657142D01*
X121190476Y-102561904D01*
X121190476Y-101752380D01*
X120761904Y-101847619D02*
X120714285Y-101800000D01*
X120619047Y-101752380D01*
X120380952Y-101752380D01*
X120285714Y-101800000D01*
X120238095Y-101847619D01*
X120190476Y-101942857D01*
X120190476Y-102038095D01*
X120238095Y-102180952D01*
X120809523Y-102752380D01*
X120190476Y-102752380D01*
M02*
