G04 #@! TF.GenerationSoftware,KiCad,Pcbnew,(5.1.7)-1*
G04 #@! TF.CreationDate,2022-03-27T15:00:40-07:00*
G04 #@! TF.ProjectId,PICBreakout,50494342-7265-4616-9b6f-75742e6b6963,rev?*
G04 #@! TF.SameCoordinates,Original*
G04 #@! TF.FileFunction,Legend,Top*
G04 #@! TF.FilePolarity,Positive*
%FSLAX46Y46*%
G04 Gerber Fmt 4.6, Leading zero omitted, Abs format (unit mm)*
G04 Created by KiCad (PCBNEW (5.1.7)-1) date 2022-03-27 15:00:40*
%MOMM*%
%LPD*%
G01*
G04 APERTURE LIST*
%ADD10C,0.150000*%
%ADD11C,0.120000*%
%ADD12C,0.066040*%
%ADD13C,0.127000*%
%ADD14C,0.100000*%
%ADD15C,0.203200*%
%ADD16C,0.101600*%
G04 APERTURE END LIST*
D10*
X111683333Y-143002380D02*
X111683333Y-142002380D01*
X112064285Y-142002380D01*
X112159523Y-142050000D01*
X112207142Y-142097619D01*
X112254761Y-142192857D01*
X112254761Y-142335714D01*
X112207142Y-142430952D01*
X112159523Y-142478571D01*
X112064285Y-142526190D01*
X111683333Y-142526190D01*
X112873809Y-142002380D02*
X113064285Y-142002380D01*
X113159523Y-142050000D01*
X113254761Y-142145238D01*
X113302380Y-142335714D01*
X113302380Y-142669047D01*
X113254761Y-142859523D01*
X113159523Y-142954761D01*
X113064285Y-143002380D01*
X112873809Y-143002380D01*
X112778571Y-142954761D01*
X112683333Y-142859523D01*
X112635714Y-142669047D01*
X112635714Y-142335714D01*
X112683333Y-142145238D01*
X112778571Y-142050000D01*
X112873809Y-142002380D01*
X114302380Y-143002380D02*
X113969047Y-142526190D01*
X113730952Y-143002380D02*
X113730952Y-142002380D01*
X114111904Y-142002380D01*
X114207142Y-142050000D01*
X114254761Y-142097619D01*
X114302380Y-142192857D01*
X114302380Y-142335714D01*
X114254761Y-142430952D01*
X114207142Y-142478571D01*
X114111904Y-142526190D01*
X113730952Y-142526190D01*
X114588095Y-142002380D02*
X115159523Y-142002380D01*
X114873809Y-143002380D02*
X114873809Y-142002380D01*
X112088095Y-140052380D02*
X112088095Y-140861904D01*
X112135714Y-140957142D01*
X112183333Y-141004761D01*
X112278571Y-141052380D01*
X112469047Y-141052380D01*
X112564285Y-141004761D01*
X112611904Y-140957142D01*
X112659523Y-140861904D01*
X112659523Y-140052380D01*
X113088095Y-141004761D02*
X113230952Y-141052380D01*
X113469047Y-141052380D01*
X113564285Y-141004761D01*
X113611904Y-140957142D01*
X113659523Y-140861904D01*
X113659523Y-140766666D01*
X113611904Y-140671428D01*
X113564285Y-140623809D01*
X113469047Y-140576190D01*
X113278571Y-140528571D01*
X113183333Y-140480952D01*
X113135714Y-140433333D01*
X113088095Y-140338095D01*
X113088095Y-140242857D01*
X113135714Y-140147619D01*
X113183333Y-140100000D01*
X113278571Y-140052380D01*
X113516666Y-140052380D01*
X113659523Y-140100000D01*
X114421428Y-140528571D02*
X114564285Y-140576190D01*
X114611904Y-140623809D01*
X114659523Y-140719047D01*
X114659523Y-140861904D01*
X114611904Y-140957142D01*
X114564285Y-141004761D01*
X114469047Y-141052380D01*
X114088095Y-141052380D01*
X114088095Y-140052380D01*
X114421428Y-140052380D01*
X114516666Y-140100000D01*
X114564285Y-140147619D01*
X114611904Y-140242857D01*
X114611904Y-140338095D01*
X114564285Y-140433333D01*
X114516666Y-140480952D01*
X114421428Y-140528571D01*
X114088095Y-140528571D01*
D11*
X109840000Y-159946267D02*
X109840000Y-159653733D01*
X110860000Y-159946267D02*
X110860000Y-159653733D01*
X127785000Y-149661252D02*
X127785000Y-149138748D01*
X126315000Y-149661252D02*
X126315000Y-149138748D01*
X129820000Y-141220000D02*
X131150000Y-141220000D01*
X129820000Y-142550000D02*
X129820000Y-141220000D01*
X129820000Y-143820000D02*
X132480000Y-143820000D01*
X132480000Y-143820000D02*
X132480000Y-156580000D01*
X129820000Y-143820000D02*
X129820000Y-156580000D01*
X129820000Y-156580000D02*
X132480000Y-156580000D01*
D12*
X127170000Y-99960000D02*
X124630000Y-99960000D01*
X124630000Y-99960000D02*
X124630000Y-105040000D01*
X127170000Y-105040000D02*
X124630000Y-105040000D01*
X127170000Y-99960000D02*
X127170000Y-105040000D01*
D13*
X127170000Y-105040000D02*
X124630000Y-105040000D01*
X124630000Y-105040000D02*
X124630000Y-99960000D01*
X124630000Y-99960000D02*
X127170000Y-99960000D01*
X127170000Y-99960000D02*
X127170000Y-105040000D01*
D14*
X127170000Y-105040000D02*
X124630000Y-105040000D01*
X124630000Y-105040000D02*
X124630000Y-99960000D01*
X127170000Y-99960000D02*
X127170000Y-105040000D01*
D15*
X123349480Y-114949460D02*
X123349480Y-111050560D01*
X111350520Y-114949460D02*
X123349480Y-114949460D01*
X111350520Y-111050560D02*
X111350520Y-114949460D01*
X111350520Y-103052100D02*
X111350520Y-106851940D01*
X123349480Y-103052100D02*
X123349480Y-106851940D01*
D11*
X109850000Y-111120000D02*
X111180000Y-111120000D01*
X111180000Y-111120000D02*
X111180000Y-112450000D01*
X111180000Y-113720000D02*
X111180000Y-146800000D01*
X108520000Y-146800000D02*
X111180000Y-146800000D01*
X108520000Y-113720000D02*
X108520000Y-146800000D01*
X108520000Y-113720000D02*
X111180000Y-113720000D01*
X123760000Y-113720000D02*
X126420000Y-113720000D01*
X123760000Y-113720000D02*
X123760000Y-146800000D01*
X123760000Y-146800000D02*
X126420000Y-146800000D01*
X126420000Y-113720000D02*
X126420000Y-146800000D01*
X126420000Y-111120000D02*
X126420000Y-112450000D01*
X125090000Y-111120000D02*
X126420000Y-111120000D01*
X117350000Y-143050000D02*
X117350000Y-143950000D01*
X116550000Y-143950000D02*
X117350000Y-143950000D01*
X118550000Y-143950000D02*
X119350000Y-143950000D01*
X119350000Y-143050000D02*
X119350000Y-143950000D01*
X121350000Y-143050000D02*
X121350000Y-143950000D01*
X120550000Y-143950000D02*
X121350000Y-143950000D01*
D10*
X111381445Y-154500000D02*
X111788031Y-154906586D01*
X118700000Y-147181445D02*
X119177297Y-147658742D01*
X126018555Y-154500000D02*
X125541258Y-154022703D01*
X118700000Y-161818555D02*
X118222703Y-161341258D01*
X111381445Y-154500000D02*
X111858742Y-154022703D01*
X118700000Y-161818555D02*
X119177297Y-161341258D01*
X126018555Y-154500000D02*
X125541258Y-154977297D01*
X118700000Y-147181445D02*
X118222703Y-147658742D01*
X111788031Y-154906586D02*
X110886470Y-155808148D01*
D11*
X99080000Y-121380000D02*
X99080000Y-122780000D01*
X100480000Y-121380000D02*
X99080000Y-121380000D01*
X99350000Y-149210000D02*
X99350000Y-124750000D01*
X108550000Y-149210000D02*
X99350000Y-149210000D01*
X108550000Y-121750000D02*
X108550000Y-149210000D01*
X102350000Y-121750000D02*
X108550000Y-121750000D01*
X132250000Y-135050000D02*
X126050000Y-135050000D01*
X126050000Y-135050000D02*
X126050000Y-107590000D01*
X126050000Y-107590000D02*
X135250000Y-107590000D01*
X135250000Y-107590000D02*
X135250000Y-132050000D01*
X134120000Y-135420000D02*
X135520000Y-135420000D01*
X135520000Y-135420000D02*
X135520000Y-134020000D01*
D10*
X108233333Y-160257142D02*
X108185714Y-160304761D01*
X108042857Y-160352380D01*
X107947619Y-160352380D01*
X107804761Y-160304761D01*
X107709523Y-160209523D01*
X107661904Y-160114285D01*
X107614285Y-159923809D01*
X107614285Y-159780952D01*
X107661904Y-159590476D01*
X107709523Y-159495238D01*
X107804761Y-159400000D01*
X107947619Y-159352380D01*
X108042857Y-159352380D01*
X108185714Y-159400000D01*
X108233333Y-159447619D01*
X108614285Y-159447619D02*
X108661904Y-159400000D01*
X108757142Y-159352380D01*
X108995238Y-159352380D01*
X109090476Y-159400000D01*
X109138095Y-159447619D01*
X109185714Y-159542857D01*
X109185714Y-159638095D01*
X109138095Y-159780952D01*
X108566666Y-160352380D01*
X109185714Y-160352380D01*
X127133333Y-152357142D02*
X127085714Y-152404761D01*
X126942857Y-152452380D01*
X126847619Y-152452380D01*
X126704761Y-152404761D01*
X126609523Y-152309523D01*
X126561904Y-152214285D01*
X126514285Y-152023809D01*
X126514285Y-151880952D01*
X126561904Y-151690476D01*
X126609523Y-151595238D01*
X126704761Y-151500000D01*
X126847619Y-151452380D01*
X126942857Y-151452380D01*
X127085714Y-151500000D01*
X127133333Y-151547619D01*
X127466666Y-151452380D02*
X128085714Y-151452380D01*
X127752380Y-151833333D01*
X127895238Y-151833333D01*
X127990476Y-151880952D01*
X128038095Y-151928571D01*
X128085714Y-152023809D01*
X128085714Y-152261904D01*
X128038095Y-152357142D01*
X127990476Y-152404761D01*
X127895238Y-152452380D01*
X127609523Y-152452380D01*
X127514285Y-152404761D01*
X127466666Y-152357142D01*
X129877380Y-140108333D02*
X130591666Y-140108333D01*
X130734523Y-140155952D01*
X130829761Y-140251190D01*
X130877380Y-140394047D01*
X130877380Y-140489285D01*
X129877380Y-139727380D02*
X129877380Y-139108333D01*
X130258333Y-139441666D01*
X130258333Y-139298809D01*
X130305952Y-139203571D01*
X130353571Y-139155952D01*
X130448809Y-139108333D01*
X130686904Y-139108333D01*
X130782142Y-139155952D01*
X130829761Y-139203571D01*
X130877380Y-139298809D01*
X130877380Y-139584523D01*
X130829761Y-139679761D01*
X130782142Y-139727380D01*
D16*
X125703666Y-105313166D02*
X125703666Y-105948166D01*
X125661333Y-106075166D01*
X125576666Y-106159833D01*
X125449666Y-106202166D01*
X125365000Y-106202166D01*
X126169333Y-106202166D02*
X126338666Y-106202166D01*
X126423333Y-106159833D01*
X126465666Y-106117500D01*
X126550333Y-105990500D01*
X126592666Y-105821166D01*
X126592666Y-105482500D01*
X126550333Y-105397833D01*
X126508000Y-105355500D01*
X126423333Y-105313166D01*
X126254000Y-105313166D01*
X126169333Y-105355500D01*
X126127000Y-105397833D01*
X126084666Y-105482500D01*
X126084666Y-105694166D01*
X126127000Y-105778833D01*
X126169333Y-105821166D01*
X126254000Y-105863500D01*
X126423333Y-105863500D01*
X126508000Y-105821166D01*
X126550333Y-105778833D01*
X126592666Y-105694166D01*
D10*
X112516666Y-115402380D02*
X112516666Y-116116666D01*
X112469047Y-116259523D01*
X112373809Y-116354761D01*
X112230952Y-116402380D01*
X112135714Y-116402380D01*
X112992857Y-116402380D02*
X112992857Y-115402380D01*
X113373809Y-115402380D01*
X113469047Y-115450000D01*
X113516666Y-115497619D01*
X113564285Y-115592857D01*
X113564285Y-115735714D01*
X113516666Y-115830952D01*
X113469047Y-115878571D01*
X113373809Y-115926190D01*
X112992857Y-115926190D01*
X114516666Y-116402380D02*
X113945238Y-116402380D01*
X114230952Y-116402380D02*
X114230952Y-115402380D01*
X114135714Y-115545238D01*
X114040476Y-115640476D01*
X113945238Y-115688095D01*
X106702380Y-115009523D02*
X107416666Y-115009523D01*
X107559523Y-115057142D01*
X107654761Y-115152380D01*
X107702380Y-115295238D01*
X107702380Y-115390476D01*
X107702380Y-114009523D02*
X107702380Y-114580952D01*
X107702380Y-114295238D02*
X106702380Y-114295238D01*
X106845238Y-114390476D01*
X106940476Y-114485714D01*
X106988095Y-114580952D01*
X106702380Y-113390476D02*
X106702380Y-113295238D01*
X106750000Y-113200000D01*
X106797619Y-113152380D01*
X106892857Y-113104761D01*
X107083333Y-113057142D01*
X107321428Y-113057142D01*
X107511904Y-113104761D01*
X107607142Y-113152380D01*
X107654761Y-113200000D01*
X107702380Y-113295238D01*
X107702380Y-113390476D01*
X107654761Y-113485714D01*
X107607142Y-113533333D01*
X107511904Y-113580952D01*
X107321428Y-113628571D01*
X107083333Y-113628571D01*
X106892857Y-113580952D01*
X106797619Y-113533333D01*
X106750000Y-113485714D01*
X106702380Y-113390476D01*
X122252380Y-118209523D02*
X122966666Y-118209523D01*
X123109523Y-118257142D01*
X123204761Y-118352380D01*
X123252380Y-118495238D01*
X123252380Y-118590476D01*
X123252380Y-117209523D02*
X123252380Y-117780952D01*
X123252380Y-117495238D02*
X122252380Y-117495238D01*
X122395238Y-117590476D01*
X122490476Y-117685714D01*
X122538095Y-117780952D01*
X123252380Y-116257142D02*
X123252380Y-116828571D01*
X123252380Y-116542857D02*
X122252380Y-116542857D01*
X122395238Y-116638095D01*
X122490476Y-116733333D01*
X122538095Y-116828571D01*
X116052380Y-146159523D02*
X116766666Y-146159523D01*
X116909523Y-146207142D01*
X117004761Y-146302380D01*
X117052380Y-146445238D01*
X117052380Y-146540476D01*
X117052380Y-145159523D02*
X117052380Y-145730952D01*
X117052380Y-145445238D02*
X116052380Y-145445238D01*
X116195238Y-145540476D01*
X116290476Y-145635714D01*
X116338095Y-145730952D01*
X116147619Y-144778571D02*
X116100000Y-144730952D01*
X116052380Y-144635714D01*
X116052380Y-144397619D01*
X116100000Y-144302380D01*
X116147619Y-144254761D01*
X116242857Y-144207142D01*
X116338095Y-144207142D01*
X116480952Y-144254761D01*
X117052380Y-144826190D01*
X117052380Y-144207142D01*
X118002380Y-146209523D02*
X118716666Y-146209523D01*
X118859523Y-146257142D01*
X118954761Y-146352380D01*
X119002380Y-146495238D01*
X119002380Y-146590476D01*
X119002380Y-145209523D02*
X119002380Y-145780952D01*
X119002380Y-145495238D02*
X118002380Y-145495238D01*
X118145238Y-145590476D01*
X118240476Y-145685714D01*
X118288095Y-145780952D01*
X118002380Y-144876190D02*
X118002380Y-144257142D01*
X118383333Y-144590476D01*
X118383333Y-144447619D01*
X118430952Y-144352380D01*
X118478571Y-144304761D01*
X118573809Y-144257142D01*
X118811904Y-144257142D01*
X118907142Y-144304761D01*
X118954761Y-144352380D01*
X119002380Y-144447619D01*
X119002380Y-144733333D01*
X118954761Y-144828571D01*
X118907142Y-144876190D01*
X119752380Y-146109523D02*
X120466666Y-146109523D01*
X120609523Y-146157142D01*
X120704761Y-146252380D01*
X120752380Y-146395238D01*
X120752380Y-146490476D01*
X120752380Y-145109523D02*
X120752380Y-145680952D01*
X120752380Y-145395238D02*
X119752380Y-145395238D01*
X119895238Y-145490476D01*
X119990476Y-145585714D01*
X120038095Y-145680952D01*
X120085714Y-144252380D02*
X120752380Y-144252380D01*
X119704761Y-144490476D02*
X120419047Y-144728571D01*
X120419047Y-144109523D01*
X108674026Y-154551522D02*
X109246446Y-155123942D01*
X109347461Y-155157614D01*
X109414805Y-155157614D01*
X109515820Y-155123942D01*
X109650507Y-154989255D01*
X109684179Y-154888240D01*
X109684179Y-154820896D01*
X109650507Y-154719881D01*
X109078087Y-154147461D01*
X109953553Y-153743400D02*
X110424957Y-154214805D01*
X109515820Y-153642385D02*
X109852538Y-154315820D01*
X110290270Y-153878087D01*
X102166666Y-119802380D02*
X102166666Y-120516666D01*
X102119047Y-120659523D01*
X102023809Y-120754761D01*
X101880952Y-120802380D01*
X101785714Y-120802380D01*
X102595238Y-119897619D02*
X102642857Y-119850000D01*
X102738095Y-119802380D01*
X102976190Y-119802380D01*
X103071428Y-119850000D01*
X103119047Y-119897619D01*
X103166666Y-119992857D01*
X103166666Y-120088095D01*
X103119047Y-120230952D01*
X102547619Y-120802380D01*
X103166666Y-120802380D01*
X130766666Y-135802380D02*
X130766666Y-136516666D01*
X130719047Y-136659523D01*
X130623809Y-136754761D01*
X130480952Y-136802380D01*
X130385714Y-136802380D01*
X131671428Y-136135714D02*
X131671428Y-136802380D01*
X131433333Y-135754761D02*
X131195238Y-136469047D01*
X131814285Y-136469047D01*
M02*
