G04 #@! TF.GenerationSoftware,KiCad,Pcbnew,(5.1.7)-1*
G04 #@! TF.CreationDate,2022-03-27T15:00:40-07:00*
G04 #@! TF.ProjectId,PICBreakout,50494342-7265-4616-9b6f-75742e6b6963,rev?*
G04 #@! TF.SameCoordinates,Original*
G04 #@! TF.FileFunction,Paste,Bot*
G04 #@! TF.FilePolarity,Positive*
%FSLAX46Y46*%
G04 Gerber Fmt 4.6, Leading zero omitted, Abs format (unit mm)*
G04 Created by KiCad (PCBNEW (5.1.7)-1) date 2022-03-27 15:00:40*
%MOMM*%
%LPD*%
G01*
G04 APERTURE LIST*
%ADD10C,1.676400*%
%ADD11C,3.302000*%
%ADD12R,1.750000X0.450000*%
%ADD13R,3.800000X2.000000*%
%ADD14R,1.500000X2.000000*%
G04 APERTURE END LIST*
G36*
G01*
X113825000Y-112600000D02*
X112875000Y-112600000D01*
G75*
G02*
X112625000Y-112350000I0J250000D01*
G01*
X112625000Y-111675000D01*
G75*
G02*
X112875000Y-111425000I250000J0D01*
G01*
X113825000Y-111425000D01*
G75*
G02*
X114075000Y-111675000I0J-250000D01*
G01*
X114075000Y-112350000D01*
G75*
G02*
X113825000Y-112600000I-250000J0D01*
G01*
G37*
G36*
G01*
X113825000Y-114675000D02*
X112875000Y-114675000D01*
G75*
G02*
X112625000Y-114425000I0J250000D01*
G01*
X112625000Y-113750000D01*
G75*
G02*
X112875000Y-113500000I250000J0D01*
G01*
X113825000Y-113500000D01*
G75*
G02*
X114075000Y-113750000I0J-250000D01*
G01*
X114075000Y-114425000D01*
G75*
G02*
X113825000Y-114675000I-250000J0D01*
G01*
G37*
G36*
G01*
X111612500Y-102750000D02*
X112087500Y-102750000D01*
G75*
G02*
X112325000Y-102987500I0J-237500D01*
G01*
X112325000Y-103587500D01*
G75*
G02*
X112087500Y-103825000I-237500J0D01*
G01*
X111612500Y-103825000D01*
G75*
G02*
X111375000Y-103587500I0J237500D01*
G01*
X111375000Y-102987500D01*
G75*
G02*
X111612500Y-102750000I237500J0D01*
G01*
G37*
G36*
G01*
X111612500Y-104475000D02*
X112087500Y-104475000D01*
G75*
G02*
X112325000Y-104712500I0J-237500D01*
G01*
X112325000Y-105312500D01*
G75*
G02*
X112087500Y-105550000I-237500J0D01*
G01*
X111612500Y-105550000D01*
G75*
G02*
X111375000Y-105312500I0J237500D01*
G01*
X111375000Y-104712500D01*
G75*
G02*
X111612500Y-104475000I237500J0D01*
G01*
G37*
D10*
X118599680Y-111650000D03*
X118599680Y-113631200D03*
X116100320Y-111650000D03*
D11*
X111330200Y-108932200D03*
X123369800Y-108932200D03*
D10*
X116100320Y-113631200D03*
D12*
X115000000Y-158075000D03*
X115000000Y-157425000D03*
X115000000Y-156775000D03*
X115000000Y-156125000D03*
X115000000Y-155475000D03*
X115000000Y-154825000D03*
X115000000Y-154175000D03*
X115000000Y-153525000D03*
X115000000Y-152875000D03*
X115000000Y-152225000D03*
X115000000Y-151575000D03*
X115000000Y-150925000D03*
X115000000Y-150275000D03*
X115000000Y-149625000D03*
X122200000Y-149625000D03*
X122200000Y-150275000D03*
X122200000Y-150925000D03*
X122200000Y-151575000D03*
X122200000Y-152225000D03*
X122200000Y-152875000D03*
X122200000Y-153525000D03*
X122200000Y-154175000D03*
X122200000Y-154825000D03*
X122200000Y-155475000D03*
X122200000Y-156125000D03*
X122200000Y-156775000D03*
X122200000Y-157425000D03*
X122200000Y-158075000D03*
D13*
X117150000Y-102300000D03*
D14*
X117150000Y-108600000D03*
X114850000Y-108600000D03*
X119450000Y-108600000D03*
M02*
