M48
; DRILL file {KiCad (5.1.7)-1} date 03/27/22 15:00:47
; FORMAT={-:-/ absolute / metric / decimal}
; #@! TF.CreationDate,2022-03-27T15:00:47-07:00
; #@! TF.GenerationSoftware,Kicad,Pcbnew,(5.1.7)-1
FMAT,2
METRIC
T1C0.300
T2C0.400
T3C0.800
T4C0.889
T5C0.914
T6C0.950
T7C1.000
T8C2.286
T9C3.264
%
G90
G05
T1
X103.0Y-149.45
X103.35Y-152.5
X103.5Y-109.7
X103.85Y-148.75
X104.5Y-162.0
X106.85Y-118.45
X106.892Y-141.7
X106.9Y-137.1
X107.083Y-156.568
X107.15Y-124.25
X107.15Y-162.0
X107.25Y-132.95
X107.35Y-139.35
X107.55Y-158.65
X107.6Y-131.75
X107.713Y-157.198
X107.797Y-143.662
X108.0Y-161.55
X108.148Y-140.55
X108.2Y-129.5
X108.729Y-157.389
X108.864Y-161.363
X109.95Y-152.35
X110.518Y-156.174
X111.5Y-151.5
X111.737Y-158.938
X111.864Y-144.061
X111.886Y-150.764
X111.905Y-122.7
X111.905Y-131.704
X111.905Y-132.869
X112.257Y-144.944
X112.3Y-118.75
X112.436Y-134.402
X112.55Y-160.2
X112.61Y-145.673
X112.7Y-135.45
X113.1Y-121.2
X113.3Y-149.5
X113.3Y-161.9
X113.4Y-130.4
X113.724Y-126.276
X113.8Y-138.95
X113.978Y-148.845
X114.05Y-138.0
X114.307Y-128.927
X114.6Y-113.1
X114.6Y-123.95
X114.879Y-140.834
X115.231Y-143.05
X115.253Y-148.121
X115.4Y-128.4
X116.0Y-133.0
X116.0Y-137.0
X116.1Y-130.9
X116.15Y-146.65
X116.85Y-158.05
X116.902Y-155.7
X116.975Y-153.525
X116.976Y-138.95
X116.977Y-156.853
X117.099Y-154.925
X117.252Y-150.07
X117.593Y-158.443
X117.65Y-159.35
X117.7Y-128.7
X117.749Y-157.063
X117.814Y-155.909
X117.85Y-132.0
X117.904Y-154.405
X117.923Y-149.625
X117.95Y-115.3
X118.024Y-145.163
X118.226Y-150.764
X118.3Y-119.35
X118.35Y-117.15
X118.5Y-122.55
X118.5Y-160.4
X118.525Y-138.857
X118.55Y-127.05
X118.55Y-159.35
X118.7Y-146.8
X118.8Y-136.1
X118.9Y-133.2
X118.9Y-153.85
X118.95Y-125.05
X119.0Y-129.05
X119.009Y-150.169
X119.1Y-130.9
X119.1Y-152.45
X119.207Y-141.407
X119.508Y-150.795
X119.529Y-142.167
X120.15Y-138.75
X120.15Y-159.35
X120.244Y-158.55
X120.695Y-129.303
X120.7Y-146.3
X120.726Y-150.924
X120.726Y-151.724
X120.75Y-136.45
X120.8Y-122.6
X120.8Y-125.1
X120.8Y-127.0
X120.8Y-133.25
X120.825Y-158.0
X120.841Y-153.15
X120.9Y-130.9
X121.1Y-119.3
X121.35Y-142.8
X121.363Y-147.155
X121.367Y-128.868
X121.55Y-114.35
X121.65Y-120.1
X121.888Y-147.759
X121.952Y-122.75
X122.05Y-110.85
X122.471Y-148.306
X122.5Y-119.95
X123.1Y-125.3
X123.1Y-126.683
X123.3Y-147.7
X123.4Y-132.8
X123.6Y-136.8
X123.639Y-153.4
X123.65Y-159.4
X123.9Y-126.7
X124.0Y-141.6
X125.044Y-148.35
X125.674Y-151.921
X125.8Y-161.5
X125.989Y-157.632
X126.507Y-122.729
X126.871Y-125.184
X126.876Y-152.257
X126.889Y-156.639
X126.895Y-140.468
X126.9Y-116.2
X127.086Y-155.046
X127.161Y-128.921
X127.221Y-127.989
X127.245Y-155.83
X127.248Y-135.949
X127.3Y-118.55
X127.6Y-138.381
X127.7Y-121.25
X127.8Y-123.9
X127.95Y-127.05
X128.55Y-131.5
X128.645Y-153.133
X129.15Y-142.982
X129.2Y-145.1
X132.15Y-137.15
X133.1Y-109.55
X133.1Y-141.9
T2
X114.694Y-105.8
T3
X121.35Y-117.4
T4
X125.9Y-101.23
X125.9Y-103.77
T5
X116.1Y-111.65
X116.1Y-113.631
X118.6Y-111.65
X118.6Y-113.631
T6
X129.41Y-112.37
X129.41Y-114.91
X129.41Y-117.45
X129.41Y-119.99
X129.41Y-122.53
X129.41Y-125.07
X129.41Y-127.61
X129.41Y-130.15
X131.95Y-112.37
X131.95Y-114.91
X131.95Y-117.45
X131.95Y-119.99
X131.95Y-122.53
X131.95Y-125.07
X131.95Y-127.61
X131.95Y-130.15
X102.65Y-126.65
X102.65Y-129.19
X102.65Y-131.73
X102.65Y-134.27
X102.65Y-136.81
X102.65Y-139.35
X102.65Y-141.89
X102.65Y-144.43
X105.19Y-126.65
X105.19Y-129.19
X105.19Y-131.73
X105.19Y-134.27
X105.19Y-136.81
X105.19Y-139.35
X105.19Y-141.89
X105.19Y-144.43
T7
X109.85Y-112.45
X109.85Y-114.99
X109.85Y-117.53
X109.85Y-120.07
X109.85Y-122.61
X109.85Y-125.15
X109.85Y-127.69
X109.85Y-130.23
X109.85Y-132.77
X109.85Y-135.31
X109.85Y-137.85
X109.85Y-140.39
X109.85Y-142.93
X109.85Y-145.47
X131.15Y-142.55
X131.15Y-145.09
X131.15Y-147.63
X131.15Y-150.17
X131.15Y-152.71
X131.15Y-155.25
X125.09Y-112.45
X125.09Y-114.99
X125.09Y-117.53
X125.09Y-120.07
X125.09Y-122.61
X125.09Y-125.15
X125.09Y-127.69
X125.09Y-130.23
X125.09Y-132.77
X125.09Y-135.31
X125.09Y-137.85
X125.09Y-140.39
X125.09Y-142.93
X125.09Y-145.47
T8
X111.33Y-108.932
X123.37Y-108.932
T9
X102.85Y-157.75
X131.25Y-160.15
X104.85Y-105.05
X130.85Y-105.05
T0
M30
