G04 #@! TF.GenerationSoftware,KiCad,Pcbnew,(5.1.7)-1*
G04 #@! TF.CreationDate,2022-09-29T08:39:37-07:00*
G04 #@! TF.ProjectId,Peterson_SerialIO,50657465-7273-46f6-9e5f-53657269616c,rev?*
G04 #@! TF.SameCoordinates,Original*
G04 #@! TF.FileFunction,Legend,Bot*
G04 #@! TF.FilePolarity,Positive*
%FSLAX46Y46*%
G04 Gerber Fmt 4.6, Leading zero omitted, Abs format (unit mm)*
G04 Created by KiCad (PCBNEW (5.1.7)-1) date 2022-09-29 08:39:37*
%MOMM*%
%LPD*%
G01*
G04 APERTURE LIST*
%ADD10C,0.300000*%
%ADD11C,0.150000*%
%ADD12C,0.200000*%
%ADD13C,0.250000*%
%ADD14C,0.120000*%
%ADD15C,0.100000*%
%ADD16C,0.127000*%
%ADD17C,0.066040*%
%ADD18C,0.203200*%
%ADD19C,0.101600*%
%ADD20C,0.025400*%
%ADD21R,1.700000X1.700000*%
%ADD22O,1.700000X1.700000*%
%ADD23C,3.263900*%
%ADD24O,2.540000X2.540000*%
%ADD25C,1.600000*%
%ADD26R,0.508000X1.143000*%
%ADD27R,0.900000X1.200000*%
%ADD28R,1.651000X1.651000*%
%ADD29C,1.651000*%
%ADD30C,1.676400*%
%ADD31C,3.302000*%
%ADD32C,1.700000*%
%ADD33R,0.500000X1.800000*%
%ADD34R,1.000000X1.000000*%
G04 APERTURE END LIST*
D10*
X215891451Y-61337451D02*
X215891451Y-59837451D01*
X215320022Y-59837451D01*
X215177165Y-59908880D01*
X215105737Y-59980308D01*
X215034308Y-60123165D01*
X215034308Y-60337451D01*
X215105737Y-60480308D01*
X215177165Y-60551737D01*
X215320022Y-60623165D01*
X215891451Y-60623165D01*
X214391451Y-59837451D02*
X214391451Y-61051737D01*
X214320022Y-61194594D01*
X214248594Y-61266022D01*
X214105737Y-61337451D01*
X213820022Y-61337451D01*
X213677165Y-61266022D01*
X213605737Y-61194594D01*
X213534308Y-61051737D01*
X213534308Y-59837451D01*
D11*
G36*
X142021560Y-40540040D02*
G01*
X142021560Y-51540040D01*
X130978400Y-51531520D01*
X130978400Y-40531520D01*
X142021560Y-40540040D01*
G37*
X142021560Y-40540040D02*
X142021560Y-51540040D01*
X130978400Y-51531520D01*
X130978400Y-40531520D01*
X142021560Y-40540040D01*
D10*
X216005737Y-66187451D02*
X216005737Y-64687451D01*
X215434308Y-64687451D01*
X215291451Y-64758880D01*
X215220022Y-64830308D01*
X215148594Y-64973165D01*
X215148594Y-65187451D01*
X215220022Y-65330308D01*
X215291451Y-65401737D01*
X215434308Y-65473165D01*
X216005737Y-65473165D01*
X214505737Y-66187451D02*
X214505737Y-64687451D01*
X214148594Y-64687451D01*
X213934308Y-64758880D01*
X213791451Y-64901737D01*
X213720022Y-65044594D01*
X213648594Y-65330308D01*
X213648594Y-65544594D01*
X213720022Y-65830308D01*
X213791451Y-65973165D01*
X213934308Y-66116022D01*
X214148594Y-66187451D01*
X214505737Y-66187451D01*
D12*
X220297641Y-60793880D02*
X220345260Y-60936737D01*
X220345260Y-61174832D01*
X220297641Y-61270070D01*
X220250022Y-61317689D01*
X220154784Y-61365308D01*
X220059546Y-61365308D01*
X219964308Y-61317689D01*
X219916689Y-61270070D01*
X219869070Y-61174832D01*
X219821451Y-60984356D01*
X219773832Y-60889118D01*
X219726213Y-60841499D01*
X219630975Y-60793880D01*
X219535737Y-60793880D01*
X219440499Y-60841499D01*
X219392880Y-60889118D01*
X219345260Y-60984356D01*
X219345260Y-61222451D01*
X219392880Y-61365308D01*
X220297641Y-62174832D02*
X220345260Y-62079594D01*
X220345260Y-61889118D01*
X220297641Y-61793880D01*
X220202403Y-61746260D01*
X219821451Y-61746260D01*
X219726213Y-61793880D01*
X219678594Y-61889118D01*
X219678594Y-62079594D01*
X219726213Y-62174832D01*
X219821451Y-62222451D01*
X219916689Y-62222451D01*
X220011927Y-61746260D01*
X219678594Y-62651022D02*
X220345260Y-62651022D01*
X219773832Y-62651022D02*
X219726213Y-62698641D01*
X219678594Y-62793880D01*
X219678594Y-62936737D01*
X219726213Y-63031975D01*
X219821451Y-63079594D01*
X220345260Y-63079594D01*
X220297641Y-63508165D02*
X220345260Y-63603403D01*
X220345260Y-63793880D01*
X220297641Y-63889118D01*
X220202403Y-63936737D01*
X220154784Y-63936737D01*
X220059546Y-63889118D01*
X220011927Y-63793880D01*
X220011927Y-63651022D01*
X219964308Y-63555784D01*
X219869070Y-63508165D01*
X219821451Y-63508165D01*
X219726213Y-63555784D01*
X219678594Y-63651022D01*
X219678594Y-63793880D01*
X219726213Y-63889118D01*
X220297641Y-64746260D02*
X220345260Y-64651022D01*
X220345260Y-64460546D01*
X220297641Y-64365308D01*
X220202403Y-64317689D01*
X219821451Y-64317689D01*
X219726213Y-64365308D01*
X219678594Y-64460546D01*
X219678594Y-64651022D01*
X219726213Y-64746260D01*
X219821451Y-64793880D01*
X219916689Y-64793880D01*
X220011927Y-64317689D01*
D13*
X196692994Y-65418691D02*
X197026327Y-65418691D01*
X197026327Y-65942500D02*
X197026327Y-64942500D01*
X196550137Y-64942500D01*
X196169184Y-65942500D02*
X196169184Y-65275834D01*
X196169184Y-65466310D02*
X196121565Y-65371072D01*
X196073946Y-65323453D01*
X195978708Y-65275834D01*
X195883470Y-65275834D01*
X195407280Y-65942500D02*
X195502518Y-65894881D01*
X195550137Y-65847262D01*
X195597756Y-65752024D01*
X195597756Y-65466310D01*
X195550137Y-65371072D01*
X195502518Y-65323453D01*
X195407280Y-65275834D01*
X195264422Y-65275834D01*
X195169184Y-65323453D01*
X195121565Y-65371072D01*
X195073946Y-65466310D01*
X195073946Y-65752024D01*
X195121565Y-65847262D01*
X195169184Y-65894881D01*
X195264422Y-65942500D01*
X195407280Y-65942500D01*
X194645375Y-65942500D02*
X194645375Y-65275834D01*
X194645375Y-65371072D02*
X194597756Y-65323453D01*
X194502518Y-65275834D01*
X194359660Y-65275834D01*
X194264422Y-65323453D01*
X194216803Y-65418691D01*
X194216803Y-65942500D01*
X194216803Y-65418691D02*
X194169184Y-65323453D01*
X194073946Y-65275834D01*
X193931089Y-65275834D01*
X193835851Y-65323453D01*
X193788232Y-65418691D01*
X193788232Y-65942500D01*
X198692994Y-66692500D02*
X198692994Y-67502024D01*
X198645375Y-67597262D01*
X198597756Y-67644881D01*
X198502518Y-67692500D01*
X198312041Y-67692500D01*
X198216803Y-67644881D01*
X198169184Y-67597262D01*
X198121565Y-67502024D01*
X198121565Y-66692500D01*
X197645375Y-67025834D02*
X197645375Y-68025834D01*
X197645375Y-67073453D02*
X197550137Y-67025834D01*
X197359660Y-67025834D01*
X197264422Y-67073453D01*
X197216803Y-67121072D01*
X197169184Y-67216310D01*
X197169184Y-67502024D01*
X197216803Y-67597262D01*
X197264422Y-67644881D01*
X197359660Y-67692500D01*
X197550137Y-67692500D01*
X197645375Y-67644881D01*
X196788232Y-67644881D02*
X196692994Y-67692500D01*
X196502518Y-67692500D01*
X196407280Y-67644881D01*
X196359660Y-67549643D01*
X196359660Y-67502024D01*
X196407280Y-67406786D01*
X196502518Y-67359167D01*
X196645375Y-67359167D01*
X196740613Y-67311548D01*
X196788232Y-67216310D01*
X196788232Y-67168691D01*
X196740613Y-67073453D01*
X196645375Y-67025834D01*
X196502518Y-67025834D01*
X196407280Y-67073453D01*
X196073946Y-67025834D02*
X195692994Y-67025834D01*
X195931089Y-66692500D02*
X195931089Y-67549643D01*
X195883470Y-67644881D01*
X195788232Y-67692500D01*
X195692994Y-67692500D01*
X195359660Y-67692500D02*
X195359660Y-67025834D01*
X195359660Y-67216310D02*
X195312041Y-67121072D01*
X195264422Y-67073453D01*
X195169184Y-67025834D01*
X195073946Y-67025834D01*
X194359660Y-67644881D02*
X194454899Y-67692500D01*
X194645375Y-67692500D01*
X194740613Y-67644881D01*
X194788232Y-67549643D01*
X194788232Y-67168691D01*
X194740613Y-67073453D01*
X194645375Y-67025834D01*
X194454899Y-67025834D01*
X194359660Y-67073453D01*
X194312041Y-67168691D01*
X194312041Y-67263929D01*
X194788232Y-67359167D01*
X193454899Y-67692500D02*
X193454899Y-67168691D01*
X193502518Y-67073453D01*
X193597756Y-67025834D01*
X193788232Y-67025834D01*
X193883470Y-67073453D01*
X193454899Y-67644881D02*
X193550137Y-67692500D01*
X193788232Y-67692500D01*
X193883470Y-67644881D01*
X193931089Y-67549643D01*
X193931089Y-67454405D01*
X193883470Y-67359167D01*
X193788232Y-67311548D01*
X193550137Y-67311548D01*
X193454899Y-67263929D01*
X192978708Y-67692500D02*
X192978708Y-67025834D01*
X192978708Y-67121072D02*
X192931089Y-67073453D01*
X192835851Y-67025834D01*
X192692994Y-67025834D01*
X192597756Y-67073453D01*
X192550137Y-67168691D01*
X192550137Y-67692500D01*
X192550137Y-67168691D02*
X192502518Y-67073453D01*
X192407280Y-67025834D01*
X192264422Y-67025834D01*
X192169184Y-67073453D01*
X192121565Y-67168691D01*
X192121565Y-67692500D01*
D10*
X224139640Y-71733291D02*
X223568211Y-71733291D01*
X223925354Y-71233291D02*
X223925354Y-72519005D01*
X223853925Y-72661862D01*
X223711068Y-72733291D01*
X223568211Y-72733291D01*
X222853925Y-72733291D02*
X222996782Y-72661862D01*
X223068211Y-72590434D01*
X223139640Y-72447577D01*
X223139640Y-72019005D01*
X223068211Y-71876148D01*
X222996782Y-71804720D01*
X222853925Y-71733291D01*
X222639640Y-71733291D01*
X222496782Y-71804720D01*
X222425354Y-71876148D01*
X222353925Y-72019005D01*
X222353925Y-72447577D01*
X222425354Y-72590434D01*
X222496782Y-72661862D01*
X222639640Y-72733291D01*
X222853925Y-72733291D01*
X221711068Y-72733291D02*
X221711068Y-71233291D01*
X221139640Y-71233291D01*
X220996782Y-71304720D01*
X220925354Y-71376148D01*
X220853925Y-71519005D01*
X220853925Y-71733291D01*
X220925354Y-71876148D01*
X220996782Y-71947577D01*
X221139640Y-72019005D01*
X221711068Y-72019005D01*
X220211068Y-72733291D02*
X220211068Y-71733291D01*
X220211068Y-72019005D02*
X220139640Y-71876148D01*
X220068211Y-71804720D01*
X219925354Y-71733291D01*
X219782497Y-71733291D01*
X219068211Y-72733291D02*
X219211068Y-72661862D01*
X219282497Y-72590434D01*
X219353925Y-72447577D01*
X219353925Y-72019005D01*
X219282497Y-71876148D01*
X219211068Y-71804720D01*
X219068211Y-71733291D01*
X218853925Y-71733291D01*
X218711068Y-71804720D01*
X218639640Y-71876148D01*
X218568211Y-72019005D01*
X218568211Y-72447577D01*
X218639640Y-72590434D01*
X218711068Y-72661862D01*
X218853925Y-72733291D01*
X219068211Y-72733291D01*
X217282497Y-72661862D02*
X217425354Y-72733291D01*
X217711068Y-72733291D01*
X217853925Y-72661862D01*
X217925354Y-72590434D01*
X217996782Y-72447577D01*
X217996782Y-72019005D01*
X217925354Y-71876148D01*
X217853925Y-71804720D01*
X217711068Y-71733291D01*
X217425354Y-71733291D01*
X217282497Y-71804720D01*
X274719462Y-57508611D02*
X274719462Y-56008611D01*
X274148034Y-56008611D01*
X274005177Y-56080040D01*
X273933748Y-56151468D01*
X273862320Y-56294325D01*
X273862320Y-56508611D01*
X273933748Y-56651468D01*
X274005177Y-56722897D01*
X274148034Y-56794325D01*
X274719462Y-56794325D01*
X272648034Y-57437182D02*
X272790891Y-57508611D01*
X273076605Y-57508611D01*
X273219462Y-57437182D01*
X273290891Y-57294325D01*
X273290891Y-56722897D01*
X273219462Y-56580040D01*
X273076605Y-56508611D01*
X272790891Y-56508611D01*
X272648034Y-56580040D01*
X272576605Y-56722897D01*
X272576605Y-56865754D01*
X273290891Y-57008611D01*
X272148034Y-56508611D02*
X271576605Y-56508611D01*
X271933748Y-56008611D02*
X271933748Y-57294325D01*
X271862320Y-57437182D01*
X271719462Y-57508611D01*
X271576605Y-57508611D01*
X270505177Y-57437182D02*
X270648034Y-57508611D01*
X270933748Y-57508611D01*
X271076605Y-57437182D01*
X271148034Y-57294325D01*
X271148034Y-56722897D01*
X271076605Y-56580040D01*
X270933748Y-56508611D01*
X270648034Y-56508611D01*
X270505177Y-56580040D01*
X270433748Y-56722897D01*
X270433748Y-56865754D01*
X271148034Y-57008611D01*
X269790891Y-57508611D02*
X269790891Y-56508611D01*
X269790891Y-56794325D02*
X269719462Y-56651468D01*
X269648034Y-56580040D01*
X269505177Y-56508611D01*
X269362320Y-56508611D01*
X268933748Y-57437182D02*
X268790891Y-57508611D01*
X268505177Y-57508611D01*
X268362319Y-57437182D01*
X268290891Y-57294325D01*
X268290891Y-57222897D01*
X268362319Y-57080040D01*
X268505177Y-57008611D01*
X268719462Y-57008611D01*
X268862320Y-56937182D01*
X268933748Y-56794325D01*
X268933748Y-56722897D01*
X268862320Y-56580040D01*
X268719462Y-56508611D01*
X268505177Y-56508611D01*
X268362319Y-56580040D01*
X267433748Y-57508611D02*
X267576605Y-57437182D01*
X267648034Y-57365754D01*
X267719462Y-57222897D01*
X267719462Y-56794325D01*
X267648034Y-56651468D01*
X267576605Y-56580040D01*
X267433748Y-56508611D01*
X267219462Y-56508611D01*
X267076605Y-56580040D01*
X267005177Y-56651468D01*
X266933748Y-56794325D01*
X266933748Y-57222897D01*
X267005177Y-57365754D01*
X267076605Y-57437182D01*
X267219462Y-57508611D01*
X267433748Y-57508611D01*
X266290891Y-56508611D02*
X266290891Y-57508611D01*
X266290891Y-56651468D02*
X266219462Y-56580040D01*
X266076605Y-56508611D01*
X265862319Y-56508611D01*
X265719462Y-56580040D01*
X265648034Y-56722897D01*
X265648034Y-57508611D01*
X265076605Y-56008611D02*
X264148034Y-56008611D01*
X264648034Y-56580040D01*
X264433748Y-56580040D01*
X264290891Y-56651468D01*
X264219462Y-56722897D01*
X264148034Y-56865754D01*
X264148034Y-57222897D01*
X264219462Y-57365754D01*
X264290891Y-57437182D01*
X264433748Y-57508611D01*
X264862319Y-57508611D01*
X265005177Y-57437182D01*
X265076605Y-57365754D01*
X263576605Y-56151468D02*
X263505177Y-56080040D01*
X263362319Y-56008611D01*
X263005177Y-56008611D01*
X262862319Y-56080040D01*
X262790891Y-56151468D01*
X262719462Y-56294325D01*
X262719462Y-56437182D01*
X262790891Y-56651468D01*
X263648034Y-57508611D01*
X262719462Y-57508611D01*
X262219462Y-56008611D02*
X261862319Y-57508611D01*
X261576605Y-56437182D01*
X261290891Y-57508611D01*
X260933748Y-56008611D01*
X260362319Y-57508611D02*
X260362319Y-56508611D01*
X260362319Y-56008611D02*
X260433748Y-56080040D01*
X260362319Y-56151468D01*
X260290891Y-56080040D01*
X260362319Y-56008611D01*
X260362319Y-56151468D01*
X259862319Y-56508611D02*
X259290891Y-56508611D01*
X259648034Y-56008611D02*
X259648034Y-57294325D01*
X259576605Y-57437182D01*
X259433748Y-57508611D01*
X259290891Y-57508611D01*
X258790891Y-57508611D02*
X258790891Y-56008611D01*
X258148034Y-57508611D02*
X258148034Y-56722897D01*
X258219462Y-56580040D01*
X258362319Y-56508611D01*
X258576605Y-56508611D01*
X258719462Y-56580040D01*
X258790891Y-56651468D01*
X257505177Y-57080040D02*
X256790891Y-57080040D01*
X257648034Y-57508611D02*
X257148034Y-56008611D01*
X256648034Y-57508611D01*
X255505177Y-56508611D02*
X255505177Y-57508611D01*
X256148034Y-56508611D02*
X256148034Y-57294325D01*
X256076605Y-57437182D01*
X255933748Y-57508611D01*
X255719462Y-57508611D01*
X255576605Y-57437182D01*
X255505177Y-57365754D01*
X254148034Y-57508611D02*
X254148034Y-56008611D01*
X254148034Y-57437182D02*
X254290891Y-57508611D01*
X254576605Y-57508611D01*
X254719462Y-57437182D01*
X254790891Y-57365754D01*
X254862319Y-57222897D01*
X254862319Y-56794325D01*
X254790891Y-56651468D01*
X254719462Y-56580040D01*
X254576605Y-56508611D01*
X254290891Y-56508611D01*
X254148034Y-56580040D01*
X253433748Y-57508611D02*
X253433748Y-56508611D01*
X253433748Y-56008611D02*
X253505177Y-56080040D01*
X253433748Y-56151468D01*
X253362319Y-56080040D01*
X253433748Y-56008611D01*
X253433748Y-56151468D01*
X252505177Y-57508611D02*
X252648034Y-57437182D01*
X252719462Y-57365754D01*
X252790891Y-57222897D01*
X252790891Y-56794325D01*
X252719462Y-56651468D01*
X252648034Y-56580040D01*
X252505177Y-56508611D01*
X252290891Y-56508611D01*
X252148034Y-56580040D01*
X252076605Y-56651468D01*
X252005177Y-56794325D01*
X252005177Y-57222897D01*
X252076605Y-57365754D01*
X252148034Y-57437182D01*
X252290891Y-57508611D01*
X252505177Y-57508611D01*
X249362319Y-57508611D02*
X249862319Y-56794325D01*
X250219462Y-57508611D02*
X250219462Y-56008611D01*
X249648034Y-56008611D01*
X249505177Y-56080040D01*
X249433748Y-56151468D01*
X249362319Y-56294325D01*
X249362319Y-56508611D01*
X249433748Y-56651468D01*
X249505177Y-56722897D01*
X249648034Y-56794325D01*
X250219462Y-56794325D01*
X248148034Y-57437182D02*
X248290891Y-57508611D01*
X248576605Y-57508611D01*
X248719462Y-57437182D01*
X248790891Y-57294325D01*
X248790891Y-56722897D01*
X248719462Y-56580040D01*
X248576605Y-56508611D01*
X248290891Y-56508611D01*
X248148034Y-56580040D01*
X248076605Y-56722897D01*
X248076605Y-56865754D01*
X248790891Y-57008611D01*
X247576605Y-56508611D02*
X247219462Y-57508611D01*
X246862319Y-56508611D01*
X246290891Y-57365754D02*
X246219462Y-57437182D01*
X246290891Y-57508611D01*
X246362319Y-57437182D01*
X246290891Y-57365754D01*
X246290891Y-57508611D01*
X245648034Y-57080040D02*
X244933748Y-57080040D01*
X245790891Y-57508611D02*
X245290891Y-56008611D01*
X244790891Y-57508611D01*
X268255177Y-60630040D02*
X268326605Y-60558611D01*
X268469462Y-60344325D01*
X268540891Y-60201468D01*
X268612320Y-59987182D01*
X268683748Y-59630040D01*
X268683748Y-59344325D01*
X268612320Y-58987182D01*
X268540891Y-58772897D01*
X268469462Y-58630040D01*
X268326605Y-58415754D01*
X268255177Y-58344325D01*
X266826605Y-59915754D02*
X266898034Y-59987182D01*
X267112320Y-60058611D01*
X267255177Y-60058611D01*
X267469462Y-59987182D01*
X267612320Y-59844325D01*
X267683748Y-59701468D01*
X267755177Y-59415754D01*
X267755177Y-59201468D01*
X267683748Y-58915754D01*
X267612320Y-58772897D01*
X267469462Y-58630040D01*
X267255177Y-58558611D01*
X267112320Y-58558611D01*
X266898034Y-58630040D01*
X266826605Y-58701468D01*
X266326605Y-60630040D02*
X266255177Y-60558611D01*
X266112320Y-60344325D01*
X266040891Y-60201468D01*
X265969462Y-59987182D01*
X265898034Y-59630040D01*
X265898034Y-59344325D01*
X265969462Y-58987182D01*
X266040891Y-58772897D01*
X266112320Y-58630040D01*
X266255177Y-58415754D01*
X266326605Y-58344325D01*
X264112320Y-58701468D02*
X264040891Y-58630040D01*
X263898034Y-58558611D01*
X263540891Y-58558611D01*
X263398034Y-58630040D01*
X263326605Y-58701468D01*
X263255177Y-58844325D01*
X263255177Y-58987182D01*
X263326605Y-59201468D01*
X264183748Y-60058611D01*
X263255177Y-60058611D01*
X262326605Y-58558611D02*
X262183748Y-58558611D01*
X262040891Y-58630040D01*
X261969462Y-58701468D01*
X261898034Y-58844325D01*
X261826605Y-59130040D01*
X261826605Y-59487182D01*
X261898034Y-59772897D01*
X261969462Y-59915754D01*
X262040891Y-59987182D01*
X262183748Y-60058611D01*
X262326605Y-60058611D01*
X262469462Y-59987182D01*
X262540891Y-59915754D01*
X262612320Y-59772897D01*
X262683748Y-59487182D01*
X262683748Y-59130040D01*
X262612320Y-58844325D01*
X262540891Y-58701468D01*
X262469462Y-58630040D01*
X262326605Y-58558611D01*
X261255177Y-58701468D02*
X261183748Y-58630040D01*
X261040891Y-58558611D01*
X260683748Y-58558611D01*
X260540891Y-58630040D01*
X260469462Y-58701468D01*
X260398034Y-58844325D01*
X260398034Y-58987182D01*
X260469462Y-59201468D01*
X261326605Y-60058611D01*
X260398034Y-60058611D01*
X259826605Y-58701468D02*
X259755177Y-58630040D01*
X259612320Y-58558611D01*
X259255177Y-58558611D01*
X259112320Y-58630040D01*
X259040891Y-58701468D01*
X258969462Y-58844325D01*
X258969462Y-58987182D01*
X259040891Y-59201468D01*
X259898034Y-60058611D01*
X258969462Y-60058611D01*
X256898034Y-58558611D02*
X256755177Y-58558611D01*
X256612320Y-58630040D01*
X256540891Y-58701468D01*
X256469462Y-58844325D01*
X256398034Y-59130040D01*
X256398034Y-59487182D01*
X256469462Y-59772897D01*
X256540891Y-59915754D01*
X256612320Y-59987182D01*
X256755177Y-60058611D01*
X256898034Y-60058611D01*
X257040891Y-59987182D01*
X257112320Y-59915754D01*
X257183748Y-59772897D01*
X257255177Y-59487182D01*
X257255177Y-59130040D01*
X257183748Y-58844325D01*
X257112320Y-58701468D01*
X257040891Y-58630040D01*
X256898034Y-58558611D01*
X255683748Y-60058611D02*
X255398034Y-60058611D01*
X255255177Y-59987182D01*
X255183748Y-59915754D01*
X255040891Y-59701468D01*
X254969462Y-59415754D01*
X254969462Y-58844325D01*
X255040891Y-58701468D01*
X255112320Y-58630040D01*
X255255177Y-58558611D01*
X255540891Y-58558611D01*
X255683748Y-58630040D01*
X255755177Y-58701468D01*
X255826605Y-58844325D01*
X255826605Y-59201468D01*
X255755177Y-59344325D01*
X255683748Y-59415754D01*
X255540891Y-59487182D01*
X255255177Y-59487182D01*
X255112320Y-59415754D01*
X255040891Y-59344325D01*
X254969462Y-59201468D01*
X253255177Y-58701468D02*
X253183748Y-58630040D01*
X253040891Y-58558611D01*
X252683748Y-58558611D01*
X252540891Y-58630040D01*
X252469462Y-58701468D01*
X252398034Y-58844325D01*
X252398034Y-58987182D01*
X252469462Y-59201468D01*
X253326605Y-60058611D01*
X252398034Y-60058611D01*
X251112320Y-58558611D02*
X251398034Y-58558611D01*
X251540891Y-58630040D01*
X251612320Y-58701468D01*
X251755177Y-58915754D01*
X251826605Y-59201468D01*
X251826605Y-59772897D01*
X251755177Y-59915754D01*
X251683748Y-59987182D01*
X251540891Y-60058611D01*
X251255177Y-60058611D01*
X251112320Y-59987182D01*
X251040891Y-59915754D01*
X250969462Y-59772897D01*
X250969462Y-59415754D01*
X251040891Y-59272897D01*
X251112320Y-59201468D01*
X251255177Y-59130040D01*
X251540891Y-59130040D01*
X251683748Y-59201468D01*
X251755177Y-59272897D01*
X251826605Y-59415754D01*
D14*
X145038027Y-46301120D02*
X144745493Y-46301120D01*
X145038027Y-45281120D02*
X144745493Y-45281120D01*
X243465040Y-44842120D02*
X243465040Y-46172120D01*
X244795040Y-44842120D02*
X243465040Y-44842120D01*
X246065040Y-44842120D02*
X246065040Y-47502120D01*
X246065040Y-47502120D02*
X279145040Y-47502120D01*
X246065040Y-44842120D02*
X279145040Y-44842120D01*
X279145040Y-44842120D02*
X279145040Y-47502120D01*
D11*
X141238080Y-76608880D02*
X156813280Y-76608880D01*
X141238080Y-68608880D02*
X141238080Y-76608880D01*
X158313280Y-68608880D02*
X141238080Y-68608880D01*
X158313280Y-75108880D02*
X158313280Y-68608880D01*
X156813280Y-76608880D02*
X158313280Y-75108880D01*
X243809520Y-50893980D02*
X243809520Y-68673980D01*
X279369520Y-50893980D02*
X243809520Y-50893980D01*
X279369520Y-68673980D02*
X279369520Y-50893980D01*
X243809520Y-68673980D02*
X279369520Y-68673980D01*
X231840000Y-39570000D02*
X279160000Y-39570000D01*
X231840000Y-36030000D02*
X231840000Y-39570000D01*
X280160000Y-36030000D02*
X231840000Y-36030000D01*
X280160000Y-38570000D02*
X280160000Y-36030000D01*
X279160000Y-39570000D02*
X280160000Y-38570000D01*
X227680000Y-39570000D02*
X228680000Y-38570000D01*
X228680000Y-38570000D02*
X228680000Y-36030000D01*
X228680000Y-36030000D02*
X180360000Y-36030000D01*
X180360000Y-36030000D02*
X180360000Y-39570000D01*
X180360000Y-39570000D02*
X227680000Y-39570000D01*
X193488000Y-54338000D02*
X192726000Y-54338000D01*
X192726000Y-54338000D02*
X192726000Y-55862000D01*
X192726000Y-55862000D02*
X193488000Y-55862000D01*
X182312000Y-52814000D02*
X182312000Y-57386000D01*
X182312000Y-57386000D02*
X193488000Y-57386000D01*
X193488000Y-57386000D02*
X193488000Y-52814000D01*
X193488000Y-52814000D02*
X182312000Y-52814000D01*
X164218620Y-53881020D02*
X153042620Y-53881020D01*
X164218620Y-58453020D02*
X164218620Y-53881020D01*
X153042620Y-58453020D02*
X164218620Y-58453020D01*
X153042620Y-53881020D02*
X153042620Y-58453020D01*
X163456620Y-56929020D02*
X164218620Y-56929020D01*
X163456620Y-55405020D02*
X163456620Y-56929020D01*
X164218620Y-55405020D02*
X163456620Y-55405020D01*
X231917240Y-51628040D02*
X220741240Y-51628040D01*
X231917240Y-56200040D02*
X231917240Y-51628040D01*
X220741240Y-56200040D02*
X231917240Y-56200040D01*
X220741240Y-51628040D02*
X220741240Y-56200040D01*
X231155240Y-54676040D02*
X231917240Y-54676040D01*
X231155240Y-53152040D02*
X231155240Y-54676040D01*
X231917240Y-53152040D02*
X231155240Y-53152040D01*
X214858600Y-53781960D02*
X214096600Y-53781960D01*
X214096600Y-53781960D02*
X214096600Y-55305960D01*
X214096600Y-55305960D02*
X214858600Y-55305960D01*
X203682600Y-52257960D02*
X203682600Y-56829960D01*
X203682600Y-56829960D02*
X214858600Y-56829960D01*
X214858600Y-56829960D02*
X214858600Y-52257960D01*
X214858600Y-52257960D02*
X203682600Y-52257960D01*
D14*
X146492880Y-56758880D02*
X146492880Y-55758880D01*
X145132880Y-55758880D02*
X145132880Y-56758880D01*
D11*
X128880000Y-39570000D02*
X176200000Y-39570000D01*
X128880000Y-36030000D02*
X128880000Y-39570000D01*
X177200000Y-36030000D02*
X128880000Y-36030000D01*
X177200000Y-38570000D02*
X177200000Y-36030000D01*
X176200000Y-39570000D02*
X177200000Y-38570000D01*
X143450880Y-53922880D02*
X132274880Y-53922880D01*
X143450880Y-58494880D02*
X143450880Y-53922880D01*
X132274880Y-58494880D02*
X143450880Y-58494880D01*
X132274880Y-53922880D02*
X132274880Y-58494880D01*
X142688880Y-56970880D02*
X143450880Y-56970880D01*
X142688880Y-55446880D02*
X142688880Y-56970880D01*
X143450880Y-55446880D02*
X142688880Y-55446880D01*
D15*
X218970000Y-66810000D02*
X218970000Y-59190000D01*
X216430000Y-66810000D02*
X218970000Y-66810000D01*
X216430000Y-59190000D02*
X216430000Y-66810000D01*
X218970000Y-59190000D02*
X216430000Y-59190000D01*
D16*
X218970000Y-66810000D02*
X218970000Y-59190000D01*
X216430000Y-66810000D02*
X218970000Y-66810000D01*
X216430000Y-59190000D02*
X216430000Y-66810000D01*
X218970000Y-59190000D02*
X216430000Y-59190000D01*
D17*
X218970000Y-66810000D02*
X218970000Y-59190000D01*
X218970000Y-59190000D02*
X216430000Y-59190000D01*
X216430000Y-66810000D02*
X216430000Y-59190000D01*
X218970000Y-66810000D02*
X216430000Y-66810000D01*
D18*
X179410360Y-64066420D02*
X179410360Y-67965320D01*
X167411400Y-64066420D02*
X179410360Y-64066420D01*
X167411400Y-67965320D02*
X167411400Y-64066420D01*
X167411400Y-75963780D02*
X167411400Y-72163940D01*
X179410360Y-75963780D02*
X179410360Y-72163940D01*
D14*
X262837880Y-35100000D02*
X262837880Y-28900000D01*
X262837880Y-28900000D02*
X240457880Y-28900000D01*
X240457880Y-28900000D02*
X240457880Y-38100000D01*
X240457880Y-38100000D02*
X259837880Y-38100000D01*
X263207880Y-36970000D02*
X263207880Y-38370000D01*
X263207880Y-38370000D02*
X261807880Y-38370000D01*
X219207880Y-38370000D02*
X217807880Y-38370000D01*
X219207880Y-36970000D02*
X219207880Y-38370000D01*
X196457880Y-38100000D02*
X215837880Y-38100000D01*
X196457880Y-28900000D02*
X196457880Y-38100000D01*
X218837880Y-28900000D02*
X196457880Y-28900000D01*
X218837880Y-35100000D02*
X218837880Y-28900000D01*
X167512880Y-35100000D02*
X167512880Y-28900000D01*
X167512880Y-28900000D02*
X145132880Y-28900000D01*
X145132880Y-28900000D02*
X145132880Y-38100000D01*
X145132880Y-38100000D02*
X164512880Y-38100000D01*
X167882880Y-36970000D02*
X167882880Y-38370000D01*
X167882880Y-38370000D02*
X166482880Y-38370000D01*
X216712880Y-74558880D02*
X216712880Y-68358880D01*
X216712880Y-68358880D02*
X199372880Y-68358880D01*
X199372880Y-68358880D02*
X199372880Y-77558880D01*
X199372880Y-77558880D02*
X213712880Y-77558880D01*
X217082880Y-76428880D02*
X217082880Y-77828880D01*
X217082880Y-77828880D02*
X215682880Y-77828880D01*
X138802880Y-64358881D02*
X133022880Y-64358881D01*
X138802880Y-71258879D02*
X138802880Y-64358881D01*
X132222880Y-71258879D02*
X138802880Y-71258879D01*
X132222880Y-65158881D02*
X132222880Y-71258879D01*
X133022880Y-64358881D02*
X132222880Y-65158881D01*
X191352880Y-60358881D02*
X185572880Y-60358881D01*
X191352880Y-67258879D02*
X191352880Y-60358881D01*
X184772880Y-67258879D02*
X191352880Y-67258879D01*
X184772880Y-61158881D02*
X184772880Y-67258879D01*
X185572880Y-60358881D02*
X184772880Y-61158881D01*
X155472880Y-61558881D02*
X154672880Y-62358881D01*
X154672880Y-62358881D02*
X154672880Y-68458879D01*
X154672880Y-68458879D02*
X161252880Y-68458879D01*
X161252880Y-68458879D02*
X161252880Y-61558881D01*
X161252880Y-61558881D02*
X155472880Y-61558881D01*
X229002880Y-58908881D02*
X223222880Y-58908881D01*
X229002880Y-65808879D02*
X229002880Y-58908881D01*
X222422880Y-65808879D02*
X229002880Y-65808879D01*
X222422880Y-59708881D02*
X222422880Y-65808879D01*
X223222880Y-58908881D02*
X222422880Y-59708881D01*
X206372880Y-60208881D02*
X205572880Y-61008881D01*
X205572880Y-61008881D02*
X205572880Y-67108879D01*
X205572880Y-67108879D02*
X212152880Y-67108879D01*
X212152880Y-67108879D02*
X212152880Y-60208881D01*
X212152880Y-60208881D02*
X206372880Y-60208881D01*
X198852880Y-74608880D02*
X198852880Y-68408880D01*
X198852880Y-68408880D02*
X181512880Y-68408880D01*
X181512880Y-68408880D02*
X181512880Y-77608880D01*
X181512880Y-77608880D02*
X195852880Y-77608880D01*
X199222880Y-76478880D02*
X199222880Y-77878880D01*
X199222880Y-77878880D02*
X197822880Y-77878880D01*
D11*
X252602320Y-69477120D02*
X251102320Y-70977120D01*
X251102320Y-70977120D02*
X251102320Y-77477120D01*
X251102320Y-77477120D02*
X271227520Y-77477120D01*
X271227520Y-77477120D02*
X271227520Y-69477120D01*
X271227520Y-69477120D02*
X252602320Y-69477120D01*
D14*
X209871093Y-43716480D02*
X210163627Y-43716480D01*
X209871093Y-44736480D02*
X210163627Y-44736480D01*
X204890587Y-41867360D02*
X204598053Y-41867360D01*
X204890587Y-42887360D02*
X204598053Y-42887360D01*
X200674187Y-44589160D02*
X200381653Y-44589160D01*
X200674187Y-43569160D02*
X200381653Y-43569160D01*
X200396893Y-41821640D02*
X200689427Y-41821640D01*
X200396893Y-42841640D02*
X200689427Y-42841640D01*
X193226907Y-30410880D02*
X192934373Y-30410880D01*
X193226907Y-29390880D02*
X192934373Y-29390880D01*
X188553307Y-29345160D02*
X188260773Y-29345160D01*
X188553307Y-30365160D02*
X188260773Y-30365160D01*
X184880467Y-31752000D02*
X184587933Y-31752000D01*
X184880467Y-30732000D02*
X184587933Y-30732000D01*
X184664133Y-28938760D02*
X184956667Y-28938760D01*
X184664133Y-29958760D02*
X184956667Y-29958760D01*
X270536453Y-43944000D02*
X270828987Y-43944000D01*
X270536453Y-42924000D02*
X270828987Y-42924000D01*
X265456453Y-42969720D02*
X265748987Y-42969720D01*
X265456453Y-43989720D02*
X265748987Y-43989720D01*
X241353733Y-50310000D02*
X241646267Y-50310000D01*
X241353733Y-49290000D02*
X241646267Y-49290000D01*
X167710000Y-56053733D02*
X167710000Y-56346267D01*
X166690000Y-56053733D02*
X166690000Y-56346267D01*
X195390000Y-54953733D02*
X195390000Y-55246267D01*
X196410000Y-54953733D02*
X196410000Y-55246267D01*
X152766813Y-44761880D02*
X153059347Y-44761880D01*
X152766813Y-43741880D02*
X153059347Y-43741880D01*
X153201587Y-46230000D02*
X152909053Y-46230000D01*
X153201587Y-45210000D02*
X152909053Y-45210000D01*
X157285907Y-44822840D02*
X156993373Y-44822840D01*
X157285907Y-43802840D02*
X156993373Y-43802840D01*
X253414747Y-42603960D02*
X253122213Y-42603960D01*
X253414747Y-43623960D02*
X253122213Y-43623960D01*
X143577093Y-29599160D02*
X143869627Y-29599160D01*
X143577093Y-30619160D02*
X143869627Y-30619160D01*
X140640853Y-32635920D02*
X140933387Y-32635920D01*
X140640853Y-31615920D02*
X140933387Y-31615920D01*
X135858467Y-31767240D02*
X135565933Y-31767240D01*
X135858467Y-30747240D02*
X135565933Y-30747240D01*
X139553733Y-31122080D02*
X139846267Y-31122080D01*
X139553733Y-30102080D02*
X139846267Y-30102080D01*
X216431400Y-54715193D02*
X216431400Y-55007727D01*
X217451400Y-54715193D02*
X217451400Y-55007727D01*
X234310000Y-52653733D02*
X234310000Y-52946267D01*
X233290000Y-52653733D02*
X233290000Y-52946267D01*
X220814360Y-30443387D02*
X220814360Y-30150853D01*
X219794360Y-30443387D02*
X219794360Y-30150853D01*
X219774040Y-34045107D02*
X219774040Y-33752573D01*
X220794040Y-34045107D02*
X220794040Y-33752573D01*
X224074773Y-31177960D02*
X224367307Y-31177960D01*
X224074773Y-30157960D02*
X224367307Y-30157960D01*
X224377467Y-31829280D02*
X224084933Y-31829280D01*
X224377467Y-32849280D02*
X224084933Y-32849280D01*
X253045684Y-49098940D02*
X252536236Y-49098940D01*
X253045684Y-50143940D02*
X252536236Y-50143940D01*
X261707084Y-44002220D02*
X261197636Y-44002220D01*
X261707084Y-42957220D02*
X261197636Y-42957220D01*
X179775380Y-42663656D02*
X179775380Y-43173104D01*
X178730380Y-42663656D02*
X178730380Y-43173104D01*
X129215604Y-41951380D02*
X128706156Y-41951380D01*
X129215604Y-42996380D02*
X128706156Y-42996380D01*
X211398380Y-41139656D02*
X211398380Y-41649104D01*
X210353380Y-41139656D02*
X210353380Y-41649104D01*
X195396380Y-41839604D02*
X195396380Y-41330156D01*
X194351380Y-41839604D02*
X194351380Y-41330156D01*
X239612880Y-65058880D02*
X239612880Y-65858880D01*
X238712880Y-65858880D02*
X239612880Y-65858880D01*
X231967604Y-66036380D02*
X231458156Y-66036380D01*
X231967604Y-67081380D02*
X231458156Y-67081380D01*
X228535380Y-71904156D02*
X228535380Y-72413604D01*
X227490380Y-71904156D02*
X227490380Y-72413604D01*
X239247880Y-72058880D02*
X239247880Y-75508880D01*
X239247880Y-72058880D02*
X239247880Y-70108880D01*
X230377880Y-72058880D02*
X230377880Y-74008880D01*
X230377880Y-72058880D02*
X230377880Y-70108880D01*
X241222880Y-70312613D02*
X241222880Y-70605147D01*
X240202880Y-70312613D02*
X240202880Y-70605147D01*
D11*
X145534617Y-44718262D02*
X145582236Y-44765881D01*
X145725093Y-44813500D01*
X145820331Y-44813500D01*
X145963188Y-44765881D01*
X146058426Y-44670643D01*
X146106045Y-44575405D01*
X146153664Y-44384929D01*
X146153664Y-44242072D01*
X146106045Y-44051596D01*
X146058426Y-43956358D01*
X145963188Y-43861120D01*
X145820331Y-43813500D01*
X145725093Y-43813500D01*
X145582236Y-43861120D01*
X145534617Y-43908739D01*
X144582236Y-44813500D02*
X145153664Y-44813500D01*
X144867950Y-44813500D02*
X144867950Y-43813500D01*
X144963188Y-43956358D01*
X145058426Y-44051596D01*
X145153664Y-44099215D01*
X144248902Y-43813500D02*
X143582236Y-43813500D01*
X144010807Y-44813500D01*
X241917420Y-45838786D02*
X242631706Y-45838786D01*
X242774563Y-45791167D01*
X242869801Y-45695929D01*
X242917420Y-45553072D01*
X242917420Y-45457834D01*
X242012659Y-46267358D02*
X241965040Y-46314977D01*
X241917420Y-46410215D01*
X241917420Y-46648310D01*
X241965040Y-46743548D01*
X242012659Y-46791167D01*
X242107897Y-46838786D01*
X242203135Y-46838786D01*
X242345992Y-46791167D01*
X242917420Y-46219739D01*
X242917420Y-46838786D01*
X159970422Y-72508880D02*
X159113280Y-72508880D01*
X158941851Y-72566022D01*
X158827565Y-72680308D01*
X158770422Y-72851737D01*
X158770422Y-72966022D01*
X159970422Y-72051737D02*
X159970422Y-71308880D01*
X159513280Y-71708880D01*
X159513280Y-71537451D01*
X159456137Y-71423165D01*
X159398994Y-71366022D01*
X159284708Y-71308880D01*
X158998994Y-71308880D01*
X158884708Y-71366022D01*
X158827565Y-71423165D01*
X158770422Y-71537451D01*
X158770422Y-71880308D01*
X158827565Y-71994594D01*
X158884708Y-72051737D01*
X242943284Y-51641760D02*
X242943284Y-52451284D01*
X242895665Y-52546522D01*
X242848046Y-52594141D01*
X242752808Y-52641760D01*
X242562332Y-52641760D01*
X242467094Y-52594141D01*
X242419475Y-52546522D01*
X242371856Y-52451284D01*
X242371856Y-51641760D01*
X241371856Y-52641760D02*
X241943284Y-52641760D01*
X241657570Y-52641760D02*
X241657570Y-51641760D01*
X241752808Y-51784618D01*
X241848046Y-51879856D01*
X241943284Y-51927475D01*
X276312880Y-34201737D02*
X276312880Y-35058880D01*
X276370022Y-35230308D01*
X276484308Y-35344594D01*
X276655737Y-35401737D01*
X276770022Y-35401737D01*
X275227165Y-34201737D02*
X275455737Y-34201737D01*
X275570022Y-34258880D01*
X275627165Y-34316022D01*
X275741451Y-34487451D01*
X275798594Y-34716022D01*
X275798594Y-35173165D01*
X275741451Y-35287451D01*
X275684308Y-35344594D01*
X275570022Y-35401737D01*
X275341451Y-35401737D01*
X275227165Y-35344594D01*
X275170022Y-35287451D01*
X275112880Y-35173165D01*
X275112880Y-34887451D01*
X275170022Y-34773165D01*
X275227165Y-34716022D01*
X275341451Y-34658880D01*
X275570022Y-34658880D01*
X275684308Y-34716022D01*
X275741451Y-34773165D01*
X275798594Y-34887451D01*
X228012880Y-34001737D02*
X228012880Y-34858880D01*
X228070022Y-35030308D01*
X228184308Y-35144594D01*
X228355737Y-35201737D01*
X228470022Y-35201737D01*
X227555737Y-34001737D02*
X226755737Y-34001737D01*
X227270022Y-35201737D01*
X188534904Y-53282380D02*
X188534904Y-54091904D01*
X188487285Y-54187142D01*
X188439666Y-54234761D01*
X188344428Y-54282380D01*
X188153952Y-54282380D01*
X188058714Y-54234761D01*
X188011095Y-54187142D01*
X187963476Y-54091904D01*
X187963476Y-53282380D01*
X187534904Y-53377619D02*
X187487285Y-53330000D01*
X187392047Y-53282380D01*
X187153952Y-53282380D01*
X187058714Y-53330000D01*
X187011095Y-53377619D01*
X186963476Y-53472857D01*
X186963476Y-53568095D01*
X187011095Y-53710952D01*
X187582523Y-54282380D01*
X186963476Y-54282380D01*
X166192104Y-59218580D02*
X166192104Y-60028104D01*
X166144485Y-60123342D01*
X166096866Y-60170961D01*
X166001628Y-60218580D01*
X165811152Y-60218580D01*
X165715914Y-60170961D01*
X165668295Y-60123342D01*
X165620676Y-60028104D01*
X165620676Y-59218580D01*
X165239723Y-59218580D02*
X164620676Y-59218580D01*
X164954009Y-59599533D01*
X164811152Y-59599533D01*
X164715914Y-59647152D01*
X164668295Y-59694771D01*
X164620676Y-59790009D01*
X164620676Y-60028104D01*
X164668295Y-60123342D01*
X164715914Y-60170961D01*
X164811152Y-60218580D01*
X165096866Y-60218580D01*
X165192104Y-60170961D01*
X165239723Y-60123342D01*
X233476704Y-56856380D02*
X233476704Y-57665904D01*
X233429085Y-57761142D01*
X233381466Y-57808761D01*
X233286228Y-57856380D01*
X233095752Y-57856380D01*
X233000514Y-57808761D01*
X232952895Y-57761142D01*
X232905276Y-57665904D01*
X232905276Y-56856380D01*
X232000514Y-57189714D02*
X232000514Y-57856380D01*
X232238609Y-56808761D02*
X232476704Y-57523047D01*
X231857657Y-57523047D01*
X216534904Y-57069740D02*
X216534904Y-57879264D01*
X216487285Y-57974502D01*
X216439666Y-58022121D01*
X216344428Y-58069740D01*
X216153952Y-58069740D01*
X216058714Y-58022121D01*
X216011095Y-57974502D01*
X215963476Y-57879264D01*
X215963476Y-57069740D01*
X215011095Y-57069740D02*
X215487285Y-57069740D01*
X215534904Y-57545931D01*
X215487285Y-57498312D01*
X215392047Y-57450693D01*
X215153952Y-57450693D01*
X215058714Y-57498312D01*
X215011095Y-57545931D01*
X214963476Y-57641169D01*
X214963476Y-57879264D01*
X215011095Y-57974502D01*
X215058714Y-58022121D01*
X215153952Y-58069740D01*
X215392047Y-58069740D01*
X215487285Y-58022121D01*
X215534904Y-57974502D01*
X148135982Y-55665402D02*
X148183601Y-55617783D01*
X148231220Y-55474926D01*
X148231220Y-55379688D01*
X148183601Y-55236831D01*
X148088363Y-55141593D01*
X147993125Y-55093974D01*
X147802649Y-55046355D01*
X147659792Y-55046355D01*
X147469316Y-55093974D01*
X147374078Y-55141593D01*
X147278840Y-55236831D01*
X147231220Y-55379688D01*
X147231220Y-55474926D01*
X147278840Y-55617783D01*
X147326459Y-55665402D01*
X147231220Y-56570164D02*
X147231220Y-56093974D01*
X147707411Y-56046355D01*
X147659792Y-56093974D01*
X147612173Y-56189212D01*
X147612173Y-56427307D01*
X147659792Y-56522545D01*
X147707411Y-56570164D01*
X147802649Y-56617783D01*
X148040744Y-56617783D01*
X148135982Y-56570164D01*
X148183601Y-56522545D01*
X148231220Y-56427307D01*
X148231220Y-56189212D01*
X148183601Y-56093974D01*
X148135982Y-56046355D01*
X147231220Y-57474926D02*
X147231220Y-57284450D01*
X147278840Y-57189212D01*
X147326459Y-57141593D01*
X147469316Y-57046355D01*
X147659792Y-56998736D01*
X148040744Y-56998736D01*
X148135982Y-57046355D01*
X148183601Y-57093974D01*
X148231220Y-57189212D01*
X148231220Y-57379688D01*
X148183601Y-57474926D01*
X148135982Y-57522545D01*
X148040744Y-57570164D01*
X147802649Y-57570164D01*
X147707411Y-57522545D01*
X147659792Y-57474926D01*
X147612173Y-57379688D01*
X147612173Y-57189212D01*
X147659792Y-57093974D01*
X147707411Y-57046355D01*
X147802649Y-56998736D01*
X176612880Y-40301737D02*
X176612880Y-41158880D01*
X176670022Y-41330308D01*
X176784308Y-41444594D01*
X176955737Y-41501737D01*
X177070022Y-41501737D01*
X175984308Y-41501737D02*
X175755737Y-41501737D01*
X175641451Y-41444594D01*
X175584308Y-41387451D01*
X175470022Y-41216022D01*
X175412880Y-40987451D01*
X175412880Y-40530308D01*
X175470022Y-40416022D01*
X175527165Y-40358880D01*
X175641451Y-40301737D01*
X175870022Y-40301737D01*
X175984308Y-40358880D01*
X176041451Y-40416022D01*
X176098594Y-40530308D01*
X176098594Y-40816022D01*
X176041451Y-40930308D01*
X175984308Y-40987451D01*
X175870022Y-41044594D01*
X175641451Y-41044594D01*
X175527165Y-40987451D01*
X175470022Y-40930308D01*
X175412880Y-40816022D01*
X145378644Y-58890720D02*
X145378644Y-59700244D01*
X145331025Y-59795482D01*
X145283406Y-59843101D01*
X145188168Y-59890720D01*
X144997692Y-59890720D01*
X144902454Y-59843101D01*
X144854835Y-59795482D01*
X144807216Y-59700244D01*
X144807216Y-58890720D01*
X143902454Y-58890720D02*
X144092930Y-58890720D01*
X144188168Y-58938340D01*
X144235787Y-58985959D01*
X144331025Y-59128816D01*
X144378644Y-59319292D01*
X144378644Y-59700244D01*
X144331025Y-59795482D01*
X144283406Y-59843101D01*
X144188168Y-59890720D01*
X143997692Y-59890720D01*
X143902454Y-59843101D01*
X143854835Y-59795482D01*
X143807216Y-59700244D01*
X143807216Y-59462149D01*
X143854835Y-59366911D01*
X143902454Y-59319292D01*
X143997692Y-59271673D01*
X144188168Y-59271673D01*
X144283406Y-59319292D01*
X144331025Y-59366911D01*
X144378644Y-59462149D01*
D19*
X218961546Y-57925546D02*
X218961546Y-58560546D01*
X219003880Y-58687546D01*
X219088546Y-58772213D01*
X219215546Y-58814546D01*
X219300213Y-58814546D01*
X218072546Y-58814546D02*
X218580546Y-58814546D01*
X218326546Y-58814546D02*
X218326546Y-57925546D01*
X218411213Y-58052546D01*
X218495880Y-58137213D01*
X218580546Y-58179546D01*
X217733880Y-58010213D02*
X217691546Y-57967880D01*
X217606880Y-57925546D01*
X217395213Y-57925546D01*
X217310546Y-57967880D01*
X217268213Y-58010213D01*
X217225880Y-58094880D01*
X217225880Y-58179546D01*
X217268213Y-58306546D01*
X217776213Y-58814546D01*
X217225880Y-58814546D01*
D20*
X177496046Y-63587327D02*
X177496046Y-63877613D01*
X177515399Y-63935670D01*
X177554103Y-63974375D01*
X177612160Y-63993727D01*
X177650865Y-63993727D01*
X177302522Y-63993727D02*
X177302522Y-63587327D01*
X177147703Y-63587327D01*
X177108999Y-63606680D01*
X177089646Y-63626032D01*
X177070294Y-63664737D01*
X177070294Y-63722794D01*
X177089646Y-63761499D01*
X177108999Y-63780851D01*
X177147703Y-63800203D01*
X177302522Y-63800203D01*
X176683246Y-63993727D02*
X176915475Y-63993727D01*
X176799360Y-63993727D02*
X176799360Y-63587327D01*
X176838065Y-63645384D01*
X176876770Y-63684089D01*
X176915475Y-63703441D01*
D11*
X265122403Y-31111260D02*
X265122403Y-31825546D01*
X265170022Y-31968403D01*
X265265260Y-32063641D01*
X265408118Y-32111260D01*
X265503356Y-32111260D01*
X264693832Y-31206499D02*
X264646213Y-31158880D01*
X264550975Y-31111260D01*
X264312880Y-31111260D01*
X264217641Y-31158880D01*
X264170022Y-31206499D01*
X264122403Y-31301737D01*
X264122403Y-31396975D01*
X264170022Y-31539832D01*
X264741451Y-32111260D01*
X264122403Y-32111260D01*
X263170022Y-32111260D02*
X263741451Y-32111260D01*
X263455737Y-32111260D02*
X263455737Y-31111260D01*
X263550975Y-31254118D01*
X263646213Y-31349356D01*
X263741451Y-31396975D01*
X218365603Y-27493980D02*
X218365603Y-28208266D01*
X218413222Y-28351123D01*
X218508460Y-28446361D01*
X218651318Y-28493980D01*
X218746556Y-28493980D01*
X217937032Y-27589219D02*
X217889413Y-27541600D01*
X217794175Y-27493980D01*
X217556080Y-27493980D01*
X217460841Y-27541600D01*
X217413222Y-27589219D01*
X217365603Y-27684457D01*
X217365603Y-27779695D01*
X217413222Y-27922552D01*
X217984651Y-28493980D01*
X217365603Y-28493980D01*
X216984651Y-27589219D02*
X216937032Y-27541600D01*
X216841794Y-27493980D01*
X216603699Y-27493980D01*
X216508460Y-27541600D01*
X216460841Y-27589219D01*
X216413222Y-27684457D01*
X216413222Y-27779695D01*
X216460841Y-27922552D01*
X217032270Y-28493980D01*
X216413222Y-28493980D01*
X169922403Y-33311260D02*
X169922403Y-34025546D01*
X169970022Y-34168403D01*
X170065260Y-34263641D01*
X170208118Y-34311260D01*
X170303356Y-34311260D01*
X169493832Y-33406499D02*
X169446213Y-33358880D01*
X169350975Y-33311260D01*
X169112880Y-33311260D01*
X169017641Y-33358880D01*
X168970022Y-33406499D01*
X168922403Y-33501737D01*
X168922403Y-33596975D01*
X168970022Y-33739832D01*
X169541451Y-34311260D01*
X168922403Y-34311260D01*
X168589070Y-33311260D02*
X167970022Y-33311260D01*
X168303356Y-33692213D01*
X168160499Y-33692213D01*
X168065260Y-33739832D01*
X168017641Y-33787451D01*
X167970022Y-33882689D01*
X167970022Y-34120784D01*
X168017641Y-34216022D01*
X168065260Y-34263641D01*
X168160499Y-34311260D01*
X168446213Y-34311260D01*
X168541451Y-34263641D01*
X168589070Y-34216022D01*
X205993832Y-67011260D02*
X205803356Y-67011260D01*
X205708118Y-67058880D01*
X205612880Y-67154118D01*
X205565260Y-67344594D01*
X205565260Y-67677927D01*
X205612880Y-67868403D01*
X205708118Y-67963641D01*
X205803356Y-68011260D01*
X205993832Y-68011260D01*
X206089070Y-67963641D01*
X206184308Y-67868403D01*
X206231927Y-67677927D01*
X206231927Y-67344594D01*
X206184308Y-67154118D01*
X206089070Y-67058880D01*
X205993832Y-67011260D01*
X205136689Y-67011260D02*
X205136689Y-67820784D01*
X205089070Y-67916022D01*
X205041451Y-67963641D01*
X204946213Y-68011260D01*
X204755737Y-68011260D01*
X204660499Y-67963641D01*
X204612880Y-67916022D01*
X204565260Y-67820784D01*
X204565260Y-67011260D01*
X204231927Y-67011260D02*
X203660499Y-67011260D01*
X203946213Y-68011260D02*
X203946213Y-67011260D01*
X203327165Y-68011260D02*
X203327165Y-67011260D01*
X202946213Y-67011260D01*
X202850975Y-67058880D01*
X202803356Y-67106499D01*
X202755737Y-67201737D01*
X202755737Y-67344594D01*
X202803356Y-67439832D01*
X202850975Y-67487451D01*
X202946213Y-67535070D01*
X203327165Y-67535070D01*
X202327165Y-67011260D02*
X202327165Y-67820784D01*
X202279546Y-67916022D01*
X202231927Y-67963641D01*
X202136689Y-68011260D01*
X201946213Y-68011260D01*
X201850975Y-67963641D01*
X201803356Y-67916022D01*
X201755737Y-67820784D01*
X201755737Y-67011260D01*
X201422403Y-67011260D02*
X200850975Y-67011260D01*
X201136689Y-68011260D02*
X201136689Y-67011260D01*
X199993832Y-68011260D02*
X200565260Y-68011260D01*
X200279546Y-68011260D02*
X200279546Y-67011260D01*
X200374784Y-67154118D01*
X200470022Y-67249356D01*
X200565260Y-67296975D01*
X131675260Y-66642213D02*
X131199070Y-66308880D01*
X131675260Y-66070784D02*
X130675260Y-66070784D01*
X130675260Y-66451737D01*
X130722880Y-66546975D01*
X130770499Y-66594594D01*
X130865737Y-66642213D01*
X131008594Y-66642213D01*
X131103832Y-66594594D01*
X131151451Y-66546975D01*
X131199070Y-66451737D01*
X131199070Y-66070784D01*
X131675260Y-67070784D02*
X130675260Y-67070784D01*
X131675260Y-67642213D01*
X130675260Y-67642213D01*
X131675260Y-68642213D02*
X131675260Y-68070784D01*
X131675260Y-68356499D02*
X130675260Y-68356499D01*
X130818118Y-68261260D01*
X130913356Y-68166022D01*
X130960975Y-68070784D01*
X131103832Y-69213641D02*
X131056213Y-69118403D01*
X131008594Y-69070784D01*
X130913356Y-69023165D01*
X130865737Y-69023165D01*
X130770499Y-69070784D01*
X130722880Y-69118403D01*
X130675260Y-69213641D01*
X130675260Y-69404118D01*
X130722880Y-69499356D01*
X130770499Y-69546975D01*
X130865737Y-69594594D01*
X130913356Y-69594594D01*
X131008594Y-69546975D01*
X131056213Y-69499356D01*
X131103832Y-69404118D01*
X131103832Y-69213641D01*
X131151451Y-69118403D01*
X131199070Y-69070784D01*
X131294308Y-69023165D01*
X131484784Y-69023165D01*
X131580022Y-69070784D01*
X131627641Y-69118403D01*
X131675260Y-69213641D01*
X131675260Y-69404118D01*
X131627641Y-69499356D01*
X131580022Y-69546975D01*
X131484784Y-69594594D01*
X131294308Y-69594594D01*
X131199070Y-69546975D01*
X131151451Y-69499356D01*
X131103832Y-69404118D01*
X183320499Y-64499356D02*
X183796689Y-64832689D01*
X183320499Y-65070784D02*
X184320499Y-65070784D01*
X184320499Y-64689832D01*
X184272880Y-64594594D01*
X184225260Y-64546975D01*
X184130022Y-64499356D01*
X183987165Y-64499356D01*
X183891927Y-64546975D01*
X183844308Y-64594594D01*
X183796689Y-64689832D01*
X183796689Y-65070784D01*
X183320499Y-64070784D02*
X184320499Y-64070784D01*
X183320499Y-63499356D01*
X184320499Y-63499356D01*
X183320499Y-62499356D02*
X183320499Y-63070784D01*
X183320499Y-62785070D02*
X184320499Y-62785070D01*
X184177641Y-62880308D01*
X184082403Y-62975546D01*
X184034784Y-63070784D01*
X153220499Y-65699356D02*
X153696689Y-66032689D01*
X153220499Y-66270784D02*
X154220499Y-66270784D01*
X154220499Y-65889832D01*
X154172880Y-65794594D01*
X154125260Y-65746975D01*
X154030022Y-65699356D01*
X153887165Y-65699356D01*
X153791927Y-65746975D01*
X153744308Y-65794594D01*
X153696689Y-65889832D01*
X153696689Y-66270784D01*
X153220499Y-65270784D02*
X154220499Y-65270784D01*
X153220499Y-64699356D01*
X154220499Y-64699356D01*
X154220499Y-64318403D02*
X154220499Y-63699356D01*
X153839546Y-64032689D01*
X153839546Y-63889832D01*
X153791927Y-63794594D01*
X153744308Y-63746975D01*
X153649070Y-63699356D01*
X153410975Y-63699356D01*
X153315737Y-63746975D01*
X153268118Y-63794594D01*
X153220499Y-63889832D01*
X153220499Y-64175546D01*
X153268118Y-64270784D01*
X153315737Y-64318403D01*
X220970499Y-63049356D02*
X221446689Y-63382689D01*
X220970499Y-63620784D02*
X221970499Y-63620784D01*
X221970499Y-63239832D01*
X221922880Y-63144594D01*
X221875260Y-63096975D01*
X221780022Y-63049356D01*
X221637165Y-63049356D01*
X221541927Y-63096975D01*
X221494308Y-63144594D01*
X221446689Y-63239832D01*
X221446689Y-63620784D01*
X220970499Y-62620784D02*
X221970499Y-62620784D01*
X220970499Y-62049356D01*
X221970499Y-62049356D01*
X220970499Y-61525546D02*
X220970499Y-61335070D01*
X221018118Y-61239832D01*
X221065737Y-61192213D01*
X221208594Y-61096975D01*
X221399070Y-61049356D01*
X221780022Y-61049356D01*
X221875260Y-61096975D01*
X221922880Y-61144594D01*
X221970499Y-61239832D01*
X221970499Y-61430308D01*
X221922880Y-61525546D01*
X221875260Y-61573165D01*
X221780022Y-61620784D01*
X221541927Y-61620784D01*
X221446689Y-61573165D01*
X221399070Y-61525546D01*
X221351451Y-61430308D01*
X221351451Y-61239832D01*
X221399070Y-61144594D01*
X221446689Y-61096975D01*
X221541927Y-61049356D01*
X204120499Y-64825546D02*
X204596689Y-65158880D01*
X204120499Y-65396975D02*
X205120499Y-65396975D01*
X205120499Y-65016022D01*
X205072880Y-64920784D01*
X205025260Y-64873165D01*
X204930022Y-64825546D01*
X204787165Y-64825546D01*
X204691927Y-64873165D01*
X204644308Y-64920784D01*
X204596689Y-65016022D01*
X204596689Y-65396975D01*
X204120499Y-64396975D02*
X205120499Y-64396975D01*
X204120499Y-63825546D01*
X205120499Y-63825546D01*
X204120499Y-62825546D02*
X204120499Y-63396975D01*
X204120499Y-63111260D02*
X205120499Y-63111260D01*
X204977641Y-63206499D01*
X204882403Y-63301737D01*
X204834784Y-63396975D01*
X205120499Y-61920784D02*
X205120499Y-62396975D01*
X204644308Y-62444594D01*
X204691927Y-62396975D01*
X204739546Y-62301737D01*
X204739546Y-62063641D01*
X204691927Y-61968403D01*
X204644308Y-61920784D01*
X204549070Y-61873165D01*
X204310975Y-61873165D01*
X204215737Y-61920784D01*
X204168118Y-61968403D01*
X204120499Y-62063641D01*
X204120499Y-62301737D01*
X204168118Y-62396975D01*
X204215737Y-62444594D01*
X184817641Y-68061260D02*
X184817641Y-67061260D01*
X184341451Y-68061260D02*
X184341451Y-67061260D01*
X183770022Y-68061260D01*
X183770022Y-67061260D01*
X183293832Y-68061260D02*
X183293832Y-67061260D01*
X182912880Y-67061260D01*
X182817641Y-67108880D01*
X182770022Y-67156499D01*
X182722403Y-67251737D01*
X182722403Y-67394594D01*
X182770022Y-67489832D01*
X182817641Y-67537451D01*
X182912880Y-67585070D01*
X183293832Y-67585070D01*
X182293832Y-67061260D02*
X182293832Y-67870784D01*
X182246213Y-67966022D01*
X182198594Y-68013641D01*
X182103356Y-68061260D01*
X181912880Y-68061260D01*
X181817641Y-68013641D01*
X181770022Y-67966022D01*
X181722403Y-67870784D01*
X181722403Y-67061260D01*
X181389070Y-67061260D02*
X180817641Y-67061260D01*
X181103356Y-68061260D02*
X181103356Y-67061260D01*
X179960499Y-68061260D02*
X180531927Y-68061260D01*
X180246213Y-68061260D02*
X180246213Y-67061260D01*
X180341451Y-67204118D01*
X180436689Y-67299356D01*
X180531927Y-67346975D01*
X250759462Y-74377120D02*
X249902320Y-74377120D01*
X249730891Y-74434262D01*
X249616605Y-74548548D01*
X249559462Y-74719977D01*
X249559462Y-74834262D01*
X249559462Y-73177120D02*
X249559462Y-73862834D01*
X249559462Y-73519977D02*
X250759462Y-73519977D01*
X250588034Y-73634262D01*
X250473748Y-73748548D01*
X250416605Y-73862834D01*
X237094908Y-56164457D02*
X237094908Y-57021600D01*
X237152051Y-57193028D01*
X237266337Y-57307314D01*
X237437765Y-57364457D01*
X237552051Y-57364457D01*
X235894908Y-57364457D02*
X236580622Y-57364457D01*
X236237765Y-57364457D02*
X236237765Y-56164457D01*
X236352051Y-56335885D01*
X236466337Y-56450171D01*
X236580622Y-56507314D01*
X235494908Y-56164457D02*
X234752051Y-56164457D01*
X235152051Y-56621600D01*
X234980622Y-56621600D01*
X234866337Y-56678742D01*
X234809194Y-56735885D01*
X234752051Y-56850171D01*
X234752051Y-57135885D01*
X234809194Y-57250171D01*
X234866337Y-57307314D01*
X234980622Y-57364457D01*
X235323480Y-57364457D01*
X235437765Y-57307314D01*
X235494908Y-57250171D01*
X210184026Y-46013622D02*
X210231645Y-46061241D01*
X210374502Y-46108860D01*
X210469740Y-46108860D01*
X210612598Y-46061241D01*
X210707836Y-45966003D01*
X210755455Y-45870765D01*
X210803074Y-45680289D01*
X210803074Y-45537432D01*
X210755455Y-45346956D01*
X210707836Y-45251718D01*
X210612598Y-45156480D01*
X210469740Y-45108860D01*
X210374502Y-45108860D01*
X210231645Y-45156480D01*
X210184026Y-45204099D01*
X209231645Y-46108860D02*
X209803074Y-46108860D01*
X209517360Y-46108860D02*
X209517360Y-45108860D01*
X209612598Y-45251718D01*
X209707836Y-45346956D01*
X209803074Y-45394575D01*
X204910986Y-41304502D02*
X204958605Y-41352121D01*
X205101462Y-41399740D01*
X205196700Y-41399740D01*
X205339558Y-41352121D01*
X205434796Y-41256883D01*
X205482415Y-41161645D01*
X205530034Y-40971169D01*
X205530034Y-40828312D01*
X205482415Y-40637836D01*
X205434796Y-40542598D01*
X205339558Y-40447360D01*
X205196700Y-40399740D01*
X205101462Y-40399740D01*
X204958605Y-40447360D01*
X204910986Y-40494979D01*
X204530034Y-40494979D02*
X204482415Y-40447360D01*
X204387177Y-40399740D01*
X204149081Y-40399740D01*
X204053843Y-40447360D01*
X204006224Y-40494979D01*
X203958605Y-40590217D01*
X203958605Y-40685455D01*
X204006224Y-40828312D01*
X204577653Y-41399740D01*
X203958605Y-41399740D01*
X200694586Y-43006302D02*
X200742205Y-43053921D01*
X200885062Y-43101540D01*
X200980300Y-43101540D01*
X201123158Y-43053921D01*
X201218396Y-42958683D01*
X201266015Y-42863445D01*
X201313634Y-42672969D01*
X201313634Y-42530112D01*
X201266015Y-42339636D01*
X201218396Y-42244398D01*
X201123158Y-42149160D01*
X200980300Y-42101540D01*
X200885062Y-42101540D01*
X200742205Y-42149160D01*
X200694586Y-42196779D01*
X200361253Y-42101540D02*
X199742205Y-42101540D01*
X200075539Y-42482493D01*
X199932681Y-42482493D01*
X199837443Y-42530112D01*
X199789824Y-42577731D01*
X199742205Y-42672969D01*
X199742205Y-42911064D01*
X199789824Y-43006302D01*
X199837443Y-43053921D01*
X199932681Y-43101540D01*
X200218396Y-43101540D01*
X200313634Y-43053921D01*
X200361253Y-43006302D01*
X200709826Y-44118782D02*
X200757445Y-44166401D01*
X200900302Y-44214020D01*
X200995540Y-44214020D01*
X201138398Y-44166401D01*
X201233636Y-44071163D01*
X201281255Y-43975925D01*
X201328874Y-43785449D01*
X201328874Y-43642592D01*
X201281255Y-43452116D01*
X201233636Y-43356878D01*
X201138398Y-43261640D01*
X200995540Y-43214020D01*
X200900302Y-43214020D01*
X200757445Y-43261640D01*
X200709826Y-43309259D01*
X199852683Y-43547354D02*
X199852683Y-44214020D01*
X200090779Y-43166401D02*
X200328874Y-43880687D01*
X199709826Y-43880687D01*
X193247306Y-28828022D02*
X193294925Y-28875641D01*
X193437782Y-28923260D01*
X193533020Y-28923260D01*
X193675878Y-28875641D01*
X193771116Y-28780403D01*
X193818735Y-28685165D01*
X193866354Y-28494689D01*
X193866354Y-28351832D01*
X193818735Y-28161356D01*
X193771116Y-28066118D01*
X193675878Y-27970880D01*
X193533020Y-27923260D01*
X193437782Y-27923260D01*
X193294925Y-27970880D01*
X193247306Y-28018499D01*
X192342544Y-27923260D02*
X192818735Y-27923260D01*
X192866354Y-28399451D01*
X192818735Y-28351832D01*
X192723497Y-28304213D01*
X192485401Y-28304213D01*
X192390163Y-28351832D01*
X192342544Y-28399451D01*
X192294925Y-28494689D01*
X192294925Y-28732784D01*
X192342544Y-28828022D01*
X192390163Y-28875641D01*
X192485401Y-28923260D01*
X192723497Y-28923260D01*
X192818735Y-28875641D01*
X192866354Y-28828022D01*
X188573706Y-28782302D02*
X188621325Y-28829921D01*
X188764182Y-28877540D01*
X188859420Y-28877540D01*
X189002278Y-28829921D01*
X189097516Y-28734683D01*
X189145135Y-28639445D01*
X189192754Y-28448969D01*
X189192754Y-28306112D01*
X189145135Y-28115636D01*
X189097516Y-28020398D01*
X189002278Y-27925160D01*
X188859420Y-27877540D01*
X188764182Y-27877540D01*
X188621325Y-27925160D01*
X188573706Y-27972779D01*
X187716563Y-27877540D02*
X187907040Y-27877540D01*
X188002278Y-27925160D01*
X188049897Y-27972779D01*
X188145135Y-28115636D01*
X188192754Y-28306112D01*
X188192754Y-28687064D01*
X188145135Y-28782302D01*
X188097516Y-28829921D01*
X188002278Y-28877540D01*
X187811801Y-28877540D01*
X187716563Y-28829921D01*
X187668944Y-28782302D01*
X187621325Y-28687064D01*
X187621325Y-28448969D01*
X187668944Y-28353731D01*
X187716563Y-28306112D01*
X187811801Y-28258493D01*
X188002278Y-28258493D01*
X188097516Y-28306112D01*
X188145135Y-28353731D01*
X188192754Y-28448969D01*
X182040826Y-31634702D02*
X182088445Y-31682321D01*
X182231302Y-31729940D01*
X182326540Y-31729940D01*
X182469398Y-31682321D01*
X182564636Y-31587083D01*
X182612255Y-31491845D01*
X182659874Y-31301369D01*
X182659874Y-31158512D01*
X182612255Y-30968036D01*
X182564636Y-30872798D01*
X182469398Y-30777560D01*
X182326540Y-30729940D01*
X182231302Y-30729940D01*
X182088445Y-30777560D01*
X182040826Y-30825179D01*
X181707493Y-30729940D02*
X181040826Y-30729940D01*
X181469398Y-31729940D01*
X182249106Y-29866862D02*
X182296725Y-29914481D01*
X182439582Y-29962100D01*
X182534820Y-29962100D01*
X182677678Y-29914481D01*
X182772916Y-29819243D01*
X182820535Y-29724005D01*
X182868154Y-29533529D01*
X182868154Y-29390672D01*
X182820535Y-29200196D01*
X182772916Y-29104958D01*
X182677678Y-29009720D01*
X182534820Y-28962100D01*
X182439582Y-28962100D01*
X182296725Y-29009720D01*
X182249106Y-29057339D01*
X181677678Y-29390672D02*
X181772916Y-29343053D01*
X181820535Y-29295434D01*
X181868154Y-29200196D01*
X181868154Y-29152577D01*
X181820535Y-29057339D01*
X181772916Y-29009720D01*
X181677678Y-28962100D01*
X181487201Y-28962100D01*
X181391963Y-29009720D01*
X181344344Y-29057339D01*
X181296725Y-29152577D01*
X181296725Y-29200196D01*
X181344344Y-29295434D01*
X181391963Y-29343053D01*
X181487201Y-29390672D01*
X181677678Y-29390672D01*
X181772916Y-29438291D01*
X181820535Y-29485910D01*
X181868154Y-29581148D01*
X181868154Y-29771624D01*
X181820535Y-29866862D01*
X181772916Y-29914481D01*
X181677678Y-29962100D01*
X181487201Y-29962100D01*
X181391963Y-29914481D01*
X181344344Y-29866862D01*
X181296725Y-29771624D01*
X181296725Y-29581148D01*
X181344344Y-29485910D01*
X181391963Y-29438291D01*
X181487201Y-29390672D01*
X271325577Y-45221142D02*
X271373196Y-45268761D01*
X271516053Y-45316380D01*
X271611291Y-45316380D01*
X271754148Y-45268761D01*
X271849386Y-45173523D01*
X271897005Y-45078285D01*
X271944624Y-44887809D01*
X271944624Y-44744952D01*
X271897005Y-44554476D01*
X271849386Y-44459238D01*
X271754148Y-44364000D01*
X271611291Y-44316380D01*
X271516053Y-44316380D01*
X271373196Y-44364000D01*
X271325577Y-44411619D01*
X270373196Y-45316380D02*
X270944624Y-45316380D01*
X270658910Y-45316380D02*
X270658910Y-44316380D01*
X270754148Y-44459238D01*
X270849386Y-44554476D01*
X270944624Y-44602095D01*
X269420815Y-45316380D02*
X269992243Y-45316380D01*
X269706529Y-45316380D02*
X269706529Y-44316380D01*
X269801767Y-44459238D01*
X269897005Y-44554476D01*
X269992243Y-44602095D01*
X266245577Y-45266862D02*
X266293196Y-45314481D01*
X266436053Y-45362100D01*
X266531291Y-45362100D01*
X266674148Y-45314481D01*
X266769386Y-45219243D01*
X266817005Y-45124005D01*
X266864624Y-44933529D01*
X266864624Y-44790672D01*
X266817005Y-44600196D01*
X266769386Y-44504958D01*
X266674148Y-44409720D01*
X266531291Y-44362100D01*
X266436053Y-44362100D01*
X266293196Y-44409720D01*
X266245577Y-44457339D01*
X265293196Y-45362100D02*
X265864624Y-45362100D01*
X265578910Y-45362100D02*
X265578910Y-44362100D01*
X265674148Y-44504958D01*
X265769386Y-44600196D01*
X265864624Y-44647815D01*
X264959862Y-44362100D02*
X264340815Y-44362100D01*
X264674148Y-44743053D01*
X264531291Y-44743053D01*
X264436053Y-44790672D01*
X264388434Y-44838291D01*
X264340815Y-44933529D01*
X264340815Y-45171624D01*
X264388434Y-45266862D01*
X264436053Y-45314481D01*
X264531291Y-45362100D01*
X264817005Y-45362100D01*
X264912243Y-45314481D01*
X264959862Y-45266862D01*
X242318777Y-48876222D02*
X242366396Y-48923841D01*
X242509253Y-48971460D01*
X242604491Y-48971460D01*
X242747348Y-48923841D01*
X242842586Y-48828603D01*
X242890205Y-48733365D01*
X242937824Y-48542889D01*
X242937824Y-48400032D01*
X242890205Y-48209556D01*
X242842586Y-48114318D01*
X242747348Y-48019080D01*
X242604491Y-47971460D01*
X242509253Y-47971460D01*
X242366396Y-48019080D01*
X242318777Y-48066699D01*
X241366396Y-48971460D02*
X241937824Y-48971460D01*
X241652110Y-48971460D02*
X241652110Y-47971460D01*
X241747348Y-48114318D01*
X241842586Y-48209556D01*
X241937824Y-48257175D01*
X240509253Y-48304794D02*
X240509253Y-48971460D01*
X240747348Y-47923841D02*
X240985443Y-48638127D01*
X240366396Y-48638127D01*
X166127142Y-55557142D02*
X166174761Y-55509523D01*
X166222380Y-55366666D01*
X166222380Y-55271428D01*
X166174761Y-55128571D01*
X166079523Y-55033333D01*
X165984285Y-54985714D01*
X165793809Y-54938095D01*
X165650952Y-54938095D01*
X165460476Y-54985714D01*
X165365238Y-55033333D01*
X165270000Y-55128571D01*
X165222380Y-55271428D01*
X165222380Y-55366666D01*
X165270000Y-55509523D01*
X165317619Y-55557142D01*
X166222380Y-56509523D02*
X166222380Y-55938095D01*
X166222380Y-56223809D02*
X165222380Y-56223809D01*
X165365238Y-56128571D01*
X165460476Y-56033333D01*
X165508095Y-55938095D01*
X165222380Y-57414285D02*
X165222380Y-56938095D01*
X165698571Y-56890476D01*
X165650952Y-56938095D01*
X165603333Y-57033333D01*
X165603333Y-57271428D01*
X165650952Y-57366666D01*
X165698571Y-57414285D01*
X165793809Y-57461904D01*
X166031904Y-57461904D01*
X166127142Y-57414285D01*
X166174761Y-57366666D01*
X166222380Y-57271428D01*
X166222380Y-57033333D01*
X166174761Y-56938095D01*
X166127142Y-56890476D01*
X194827142Y-54457142D02*
X194874761Y-54409523D01*
X194922380Y-54266666D01*
X194922380Y-54171428D01*
X194874761Y-54028571D01*
X194779523Y-53933333D01*
X194684285Y-53885714D01*
X194493809Y-53838095D01*
X194350952Y-53838095D01*
X194160476Y-53885714D01*
X194065238Y-53933333D01*
X193970000Y-54028571D01*
X193922380Y-54171428D01*
X193922380Y-54266666D01*
X193970000Y-54409523D01*
X194017619Y-54457142D01*
X194922380Y-55409523D02*
X194922380Y-54838095D01*
X194922380Y-55123809D02*
X193922380Y-55123809D01*
X194065238Y-55028571D01*
X194160476Y-54933333D01*
X194208095Y-54838095D01*
X193922380Y-56266666D02*
X193922380Y-56076190D01*
X193970000Y-55980952D01*
X194017619Y-55933333D01*
X194160476Y-55838095D01*
X194350952Y-55790476D01*
X194731904Y-55790476D01*
X194827142Y-55838095D01*
X194874761Y-55885714D01*
X194922380Y-55980952D01*
X194922380Y-56171428D01*
X194874761Y-56266666D01*
X194827142Y-56314285D01*
X194731904Y-56361904D01*
X194493809Y-56361904D01*
X194398571Y-56314285D01*
X194350952Y-56266666D01*
X194303333Y-56171428D01*
X194303333Y-55980952D01*
X194350952Y-55885714D01*
X194398571Y-55838095D01*
X194493809Y-55790476D01*
X150507937Y-44527742D02*
X150555556Y-44575361D01*
X150698413Y-44622980D01*
X150793651Y-44622980D01*
X150936508Y-44575361D01*
X151031746Y-44480123D01*
X151079365Y-44384885D01*
X151126984Y-44194409D01*
X151126984Y-44051552D01*
X151079365Y-43861076D01*
X151031746Y-43765838D01*
X150936508Y-43670600D01*
X150793651Y-43622980D01*
X150698413Y-43622980D01*
X150555556Y-43670600D01*
X150507937Y-43718219D01*
X149555556Y-44622980D02*
X150126984Y-44622980D01*
X149841270Y-44622980D02*
X149841270Y-43622980D01*
X149936508Y-43765838D01*
X150031746Y-43861076D01*
X150126984Y-43908695D01*
X148984127Y-44051552D02*
X149079365Y-44003933D01*
X149126984Y-43956314D01*
X149174603Y-43861076D01*
X149174603Y-43813457D01*
X149126984Y-43718219D01*
X149079365Y-43670600D01*
X148984127Y-43622980D01*
X148793651Y-43622980D01*
X148698413Y-43670600D01*
X148650794Y-43718219D01*
X148603175Y-43813457D01*
X148603175Y-43861076D01*
X148650794Y-43956314D01*
X148698413Y-44003933D01*
X148793651Y-44051552D01*
X148984127Y-44051552D01*
X149079365Y-44099171D01*
X149126984Y-44146790D01*
X149174603Y-44242028D01*
X149174603Y-44432504D01*
X149126984Y-44527742D01*
X149079365Y-44575361D01*
X148984127Y-44622980D01*
X148793651Y-44622980D01*
X148698413Y-44575361D01*
X148650794Y-44527742D01*
X148603175Y-44432504D01*
X148603175Y-44242028D01*
X148650794Y-44146790D01*
X148698413Y-44099171D01*
X148793651Y-44051552D01*
X150401257Y-46051742D02*
X150448876Y-46099361D01*
X150591733Y-46146980D01*
X150686971Y-46146980D01*
X150829828Y-46099361D01*
X150925066Y-46004123D01*
X150972685Y-45908885D01*
X151020304Y-45718409D01*
X151020304Y-45575552D01*
X150972685Y-45385076D01*
X150925066Y-45289838D01*
X150829828Y-45194600D01*
X150686971Y-45146980D01*
X150591733Y-45146980D01*
X150448876Y-45194600D01*
X150401257Y-45242219D01*
X149448876Y-46146980D02*
X150020304Y-46146980D01*
X149734590Y-46146980D02*
X149734590Y-45146980D01*
X149829828Y-45289838D01*
X149925066Y-45385076D01*
X150020304Y-45432695D01*
X148972685Y-46146980D02*
X148782209Y-46146980D01*
X148686971Y-46099361D01*
X148639352Y-46051742D01*
X148544114Y-45908885D01*
X148496495Y-45718409D01*
X148496495Y-45337457D01*
X148544114Y-45242219D01*
X148591733Y-45194600D01*
X148686971Y-45146980D01*
X148877447Y-45146980D01*
X148972685Y-45194600D01*
X149020304Y-45242219D01*
X149067923Y-45337457D01*
X149067923Y-45575552D01*
X149020304Y-45670790D01*
X148972685Y-45718409D01*
X148877447Y-45766028D01*
X148686971Y-45766028D01*
X148591733Y-45718409D01*
X148544114Y-45670790D01*
X148496495Y-45575552D01*
X157782497Y-43239982D02*
X157830116Y-43287601D01*
X157972973Y-43335220D01*
X158068211Y-43335220D01*
X158211068Y-43287601D01*
X158306306Y-43192363D01*
X158353925Y-43097125D01*
X158401544Y-42906649D01*
X158401544Y-42763792D01*
X158353925Y-42573316D01*
X158306306Y-42478078D01*
X158211068Y-42382840D01*
X158068211Y-42335220D01*
X157972973Y-42335220D01*
X157830116Y-42382840D01*
X157782497Y-42430459D01*
X157401544Y-42430459D02*
X157353925Y-42382840D01*
X157258687Y-42335220D01*
X157020592Y-42335220D01*
X156925354Y-42382840D01*
X156877735Y-42430459D01*
X156830116Y-42525697D01*
X156830116Y-42620935D01*
X156877735Y-42763792D01*
X157449163Y-43335220D01*
X156830116Y-43335220D01*
X156211068Y-42335220D02*
X156115830Y-42335220D01*
X156020592Y-42382840D01*
X155972973Y-42430459D01*
X155925354Y-42525697D01*
X155877735Y-42716173D01*
X155877735Y-42954268D01*
X155925354Y-43144744D01*
X155972973Y-43239982D01*
X156020592Y-43287601D01*
X156115830Y-43335220D01*
X156211068Y-43335220D01*
X156306306Y-43287601D01*
X156353925Y-43239982D01*
X156401544Y-43144744D01*
X156449163Y-42954268D01*
X156449163Y-42716173D01*
X156401544Y-42525697D01*
X156353925Y-42430459D01*
X156306306Y-42382840D01*
X156211068Y-42335220D01*
X253911337Y-42041102D02*
X253958956Y-42088721D01*
X254101813Y-42136340D01*
X254197051Y-42136340D01*
X254339908Y-42088721D01*
X254435146Y-41993483D01*
X254482765Y-41898245D01*
X254530384Y-41707769D01*
X254530384Y-41564912D01*
X254482765Y-41374436D01*
X254435146Y-41279198D01*
X254339908Y-41183960D01*
X254197051Y-41136340D01*
X254101813Y-41136340D01*
X253958956Y-41183960D01*
X253911337Y-41231579D01*
X253530384Y-41231579D02*
X253482765Y-41183960D01*
X253387527Y-41136340D01*
X253149432Y-41136340D01*
X253054194Y-41183960D01*
X253006575Y-41231579D01*
X252958956Y-41326817D01*
X252958956Y-41422055D01*
X253006575Y-41564912D01*
X253578003Y-42136340D01*
X252958956Y-42136340D01*
X252578003Y-41231579D02*
X252530384Y-41183960D01*
X252435146Y-41136340D01*
X252197051Y-41136340D01*
X252101813Y-41183960D01*
X252054194Y-41231579D01*
X252006575Y-41326817D01*
X252006575Y-41422055D01*
X252054194Y-41564912D01*
X252625622Y-42136340D01*
X252006575Y-42136340D01*
X144366217Y-31896302D02*
X144413836Y-31943921D01*
X144556693Y-31991540D01*
X144651931Y-31991540D01*
X144794788Y-31943921D01*
X144890026Y-31848683D01*
X144937645Y-31753445D01*
X144985264Y-31562969D01*
X144985264Y-31420112D01*
X144937645Y-31229636D01*
X144890026Y-31134398D01*
X144794788Y-31039160D01*
X144651931Y-30991540D01*
X144556693Y-30991540D01*
X144413836Y-31039160D01*
X144366217Y-31086779D01*
X143985264Y-31086779D02*
X143937645Y-31039160D01*
X143842407Y-30991540D01*
X143604312Y-30991540D01*
X143509074Y-31039160D01*
X143461455Y-31086779D01*
X143413836Y-31182017D01*
X143413836Y-31277255D01*
X143461455Y-31420112D01*
X144032883Y-31991540D01*
X143413836Y-31991540D01*
X142556693Y-31324874D02*
X142556693Y-31991540D01*
X142794788Y-30943921D02*
X143032883Y-31658207D01*
X142413836Y-31658207D01*
X141429977Y-33913062D02*
X141477596Y-33960681D01*
X141620453Y-34008300D01*
X141715691Y-34008300D01*
X141858548Y-33960681D01*
X141953786Y-33865443D01*
X142001405Y-33770205D01*
X142049024Y-33579729D01*
X142049024Y-33436872D01*
X142001405Y-33246396D01*
X141953786Y-33151158D01*
X141858548Y-33055920D01*
X141715691Y-33008300D01*
X141620453Y-33008300D01*
X141477596Y-33055920D01*
X141429977Y-33103539D01*
X141049024Y-33103539D02*
X141001405Y-33055920D01*
X140906167Y-33008300D01*
X140668072Y-33008300D01*
X140572834Y-33055920D01*
X140525215Y-33103539D01*
X140477596Y-33198777D01*
X140477596Y-33294015D01*
X140525215Y-33436872D01*
X141096643Y-34008300D01*
X140477596Y-34008300D01*
X139572834Y-33008300D02*
X140049024Y-33008300D01*
X140096643Y-33484491D01*
X140049024Y-33436872D01*
X139953786Y-33389253D01*
X139715691Y-33389253D01*
X139620453Y-33436872D01*
X139572834Y-33484491D01*
X139525215Y-33579729D01*
X139525215Y-33817824D01*
X139572834Y-33913062D01*
X139620453Y-33960681D01*
X139715691Y-34008300D01*
X139953786Y-34008300D01*
X140049024Y-33960681D01*
X140096643Y-33913062D01*
X136355057Y-30184382D02*
X136402676Y-30232001D01*
X136545533Y-30279620D01*
X136640771Y-30279620D01*
X136783628Y-30232001D01*
X136878866Y-30136763D01*
X136926485Y-30041525D01*
X136974104Y-29851049D01*
X136974104Y-29708192D01*
X136926485Y-29517716D01*
X136878866Y-29422478D01*
X136783628Y-29327240D01*
X136640771Y-29279620D01*
X136545533Y-29279620D01*
X136402676Y-29327240D01*
X136355057Y-29374859D01*
X135974104Y-29374859D02*
X135926485Y-29327240D01*
X135831247Y-29279620D01*
X135593152Y-29279620D01*
X135497914Y-29327240D01*
X135450295Y-29374859D01*
X135402676Y-29470097D01*
X135402676Y-29565335D01*
X135450295Y-29708192D01*
X136021723Y-30279620D01*
X135402676Y-30279620D01*
X134545533Y-29279620D02*
X134736009Y-29279620D01*
X134831247Y-29327240D01*
X134878866Y-29374859D01*
X134974104Y-29517716D01*
X135021723Y-29708192D01*
X135021723Y-30089144D01*
X134974104Y-30184382D01*
X134926485Y-30232001D01*
X134831247Y-30279620D01*
X134640771Y-30279620D01*
X134545533Y-30232001D01*
X134497914Y-30184382D01*
X134450295Y-30089144D01*
X134450295Y-29851049D01*
X134497914Y-29755811D01*
X134545533Y-29708192D01*
X134640771Y-29660573D01*
X134831247Y-29660573D01*
X134926485Y-29708192D01*
X134974104Y-29755811D01*
X135021723Y-29851049D01*
X140317457Y-29526502D02*
X140365076Y-29574121D01*
X140507933Y-29621740D01*
X140603171Y-29621740D01*
X140746028Y-29574121D01*
X140841266Y-29478883D01*
X140888885Y-29383645D01*
X140936504Y-29193169D01*
X140936504Y-29050312D01*
X140888885Y-28859836D01*
X140841266Y-28764598D01*
X140746028Y-28669360D01*
X140603171Y-28621740D01*
X140507933Y-28621740D01*
X140365076Y-28669360D01*
X140317457Y-28716979D01*
X139936504Y-28716979D02*
X139888885Y-28669360D01*
X139793647Y-28621740D01*
X139555552Y-28621740D01*
X139460314Y-28669360D01*
X139412695Y-28716979D01*
X139365076Y-28812217D01*
X139365076Y-28907455D01*
X139412695Y-29050312D01*
X139984123Y-29621740D01*
X139365076Y-29621740D01*
X139031742Y-28621740D02*
X138365076Y-28621740D01*
X138793647Y-29621740D01*
X215868542Y-54218602D02*
X215916161Y-54170983D01*
X215963780Y-54028126D01*
X215963780Y-53932888D01*
X215916161Y-53790031D01*
X215820923Y-53694793D01*
X215725685Y-53647174D01*
X215535209Y-53599555D01*
X215392352Y-53599555D01*
X215201876Y-53647174D01*
X215106638Y-53694793D01*
X215011400Y-53790031D01*
X214963780Y-53932888D01*
X214963780Y-54028126D01*
X215011400Y-54170983D01*
X215059019Y-54218602D01*
X214963780Y-54551936D02*
X214963780Y-55170983D01*
X215344733Y-54837650D01*
X215344733Y-54980507D01*
X215392352Y-55075745D01*
X215439971Y-55123364D01*
X215535209Y-55170983D01*
X215773304Y-55170983D01*
X215868542Y-55123364D01*
X215916161Y-55075745D01*
X215963780Y-54980507D01*
X215963780Y-54694793D01*
X215916161Y-54599555D01*
X215868542Y-54551936D01*
X214963780Y-56075745D02*
X214963780Y-55599555D01*
X215439971Y-55551936D01*
X215392352Y-55599555D01*
X215344733Y-55694793D01*
X215344733Y-55932888D01*
X215392352Y-56028126D01*
X215439971Y-56075745D01*
X215535209Y-56123364D01*
X215773304Y-56123364D01*
X215868542Y-56075745D01*
X215916161Y-56028126D01*
X215963780Y-55932888D01*
X215963780Y-55694793D01*
X215916161Y-55599555D01*
X215868542Y-55551936D01*
X232727142Y-52157142D02*
X232774761Y-52109523D01*
X232822380Y-51966666D01*
X232822380Y-51871428D01*
X232774761Y-51728571D01*
X232679523Y-51633333D01*
X232584285Y-51585714D01*
X232393809Y-51538095D01*
X232250952Y-51538095D01*
X232060476Y-51585714D01*
X231965238Y-51633333D01*
X231870000Y-51728571D01*
X231822380Y-51871428D01*
X231822380Y-51966666D01*
X231870000Y-52109523D01*
X231917619Y-52157142D01*
X231822380Y-52490476D02*
X231822380Y-53109523D01*
X232203333Y-52776190D01*
X232203333Y-52919047D01*
X232250952Y-53014285D01*
X232298571Y-53061904D01*
X232393809Y-53109523D01*
X232631904Y-53109523D01*
X232727142Y-53061904D01*
X232774761Y-53014285D01*
X232822380Y-52919047D01*
X232822380Y-52633333D01*
X232774761Y-52538095D01*
X232727142Y-52490476D01*
X231822380Y-53966666D02*
X231822380Y-53776190D01*
X231870000Y-53680952D01*
X231917619Y-53633333D01*
X232060476Y-53538095D01*
X232250952Y-53490476D01*
X232631904Y-53490476D01*
X232727142Y-53538095D01*
X232774761Y-53585714D01*
X232822380Y-53680952D01*
X232822380Y-53871428D01*
X232774761Y-53966666D01*
X232727142Y-54014285D01*
X232631904Y-54061904D01*
X232393809Y-54061904D01*
X232298571Y-54014285D01*
X232250952Y-53966666D01*
X232203333Y-53871428D01*
X232203333Y-53680952D01*
X232250952Y-53585714D01*
X232298571Y-53538095D01*
X232393809Y-53490476D01*
X222091502Y-29654262D02*
X222139121Y-29606643D01*
X222186740Y-29463786D01*
X222186740Y-29368548D01*
X222139121Y-29225691D01*
X222043883Y-29130453D01*
X221948645Y-29082834D01*
X221758169Y-29035215D01*
X221615312Y-29035215D01*
X221424836Y-29082834D01*
X221329598Y-29130453D01*
X221234360Y-29225691D01*
X221186740Y-29368548D01*
X221186740Y-29463786D01*
X221234360Y-29606643D01*
X221281979Y-29654262D01*
X221186740Y-29987596D02*
X221186740Y-30606643D01*
X221567693Y-30273310D01*
X221567693Y-30416167D01*
X221615312Y-30511405D01*
X221662931Y-30559024D01*
X221758169Y-30606643D01*
X221996264Y-30606643D01*
X222091502Y-30559024D01*
X222139121Y-30511405D01*
X222186740Y-30416167D01*
X222186740Y-30130453D01*
X222139121Y-30035215D01*
X222091502Y-29987596D01*
X221186740Y-30939977D02*
X221186740Y-31606643D01*
X222186740Y-31178072D01*
X222210902Y-33555702D02*
X222258521Y-33508083D01*
X222306140Y-33365226D01*
X222306140Y-33269988D01*
X222258521Y-33127131D01*
X222163283Y-33031893D01*
X222068045Y-32984274D01*
X221877569Y-32936655D01*
X221734712Y-32936655D01*
X221544236Y-32984274D01*
X221448998Y-33031893D01*
X221353760Y-33127131D01*
X221306140Y-33269988D01*
X221306140Y-33365226D01*
X221353760Y-33508083D01*
X221401379Y-33555702D01*
X221306140Y-33889036D02*
X221306140Y-34508083D01*
X221687093Y-34174750D01*
X221687093Y-34317607D01*
X221734712Y-34412845D01*
X221782331Y-34460464D01*
X221877569Y-34508083D01*
X222115664Y-34508083D01*
X222210902Y-34460464D01*
X222258521Y-34412845D01*
X222306140Y-34317607D01*
X222306140Y-34031893D01*
X222258521Y-33936655D01*
X222210902Y-33889036D01*
X221734712Y-35079512D02*
X221687093Y-34984274D01*
X221639474Y-34936655D01*
X221544236Y-34889036D01*
X221496617Y-34889036D01*
X221401379Y-34936655D01*
X221353760Y-34984274D01*
X221306140Y-35079512D01*
X221306140Y-35269988D01*
X221353760Y-35365226D01*
X221401379Y-35412845D01*
X221496617Y-35460464D01*
X221544236Y-35460464D01*
X221639474Y-35412845D01*
X221687093Y-35365226D01*
X221734712Y-35269988D01*
X221734712Y-35079512D01*
X221782331Y-34984274D01*
X221829950Y-34936655D01*
X221925188Y-34889036D01*
X222115664Y-34889036D01*
X222210902Y-34936655D01*
X222258521Y-34984274D01*
X222306140Y-35079512D01*
X222306140Y-35269988D01*
X222258521Y-35365226D01*
X222210902Y-35412845D01*
X222115664Y-35460464D01*
X221925188Y-35460464D01*
X221829950Y-35412845D01*
X221782331Y-35365226D01*
X221734712Y-35269988D01*
X224924857Y-34113742D02*
X224972476Y-34161361D01*
X225115333Y-34208980D01*
X225210571Y-34208980D01*
X225353428Y-34161361D01*
X225448666Y-34066123D01*
X225496285Y-33970885D01*
X225543904Y-33780409D01*
X225543904Y-33637552D01*
X225496285Y-33447076D01*
X225448666Y-33351838D01*
X225353428Y-33256600D01*
X225210571Y-33208980D01*
X225115333Y-33208980D01*
X224972476Y-33256600D01*
X224924857Y-33304219D01*
X224591523Y-33208980D02*
X223972476Y-33208980D01*
X224305809Y-33589933D01*
X224162952Y-33589933D01*
X224067714Y-33637552D01*
X224020095Y-33685171D01*
X223972476Y-33780409D01*
X223972476Y-34018504D01*
X224020095Y-34113742D01*
X224067714Y-34161361D01*
X224162952Y-34208980D01*
X224448666Y-34208980D01*
X224543904Y-34161361D01*
X224591523Y-34113742D01*
X223496285Y-34208980D02*
X223305809Y-34208980D01*
X223210571Y-34161361D01*
X223162952Y-34113742D01*
X223067714Y-33970885D01*
X223020095Y-33780409D01*
X223020095Y-33399457D01*
X223067714Y-33304219D01*
X223115333Y-33256600D01*
X223210571Y-33208980D01*
X223401047Y-33208980D01*
X223496285Y-33256600D01*
X223543904Y-33304219D01*
X223591523Y-33399457D01*
X223591523Y-33637552D01*
X223543904Y-33732790D01*
X223496285Y-33780409D01*
X223401047Y-33828028D01*
X223210571Y-33828028D01*
X223115333Y-33780409D01*
X223067714Y-33732790D01*
X223020095Y-33637552D01*
X225133137Y-29673822D02*
X225180756Y-29721441D01*
X225323613Y-29769060D01*
X225418851Y-29769060D01*
X225561708Y-29721441D01*
X225656946Y-29626203D01*
X225704565Y-29530965D01*
X225752184Y-29340489D01*
X225752184Y-29197632D01*
X225704565Y-29007156D01*
X225656946Y-28911918D01*
X225561708Y-28816680D01*
X225418851Y-28769060D01*
X225323613Y-28769060D01*
X225180756Y-28816680D01*
X225133137Y-28864299D01*
X224275994Y-29102394D02*
X224275994Y-29769060D01*
X224514089Y-28721441D02*
X224752184Y-29435727D01*
X224133137Y-29435727D01*
X223561708Y-28769060D02*
X223466470Y-28769060D01*
X223371232Y-28816680D01*
X223323613Y-28864299D01*
X223275994Y-28959537D01*
X223228375Y-29150013D01*
X223228375Y-29388108D01*
X223275994Y-29578584D01*
X223323613Y-29673822D01*
X223371232Y-29721441D01*
X223466470Y-29769060D01*
X223561708Y-29769060D01*
X223656946Y-29721441D01*
X223704565Y-29673822D01*
X223752184Y-29578584D01*
X223799803Y-29388108D01*
X223799803Y-29150013D01*
X223752184Y-28959537D01*
X223704565Y-28864299D01*
X223656946Y-28816680D01*
X223561708Y-28769060D01*
X252957626Y-48643820D02*
X253290960Y-48167630D01*
X253529055Y-48643820D02*
X253529055Y-47643820D01*
X253148102Y-47643820D01*
X253052864Y-47691440D01*
X253005245Y-47739059D01*
X252957626Y-47834297D01*
X252957626Y-47977154D01*
X253005245Y-48072392D01*
X253052864Y-48120011D01*
X253148102Y-48167630D01*
X253529055Y-48167630D01*
X252005245Y-48643820D02*
X252576674Y-48643820D01*
X252290960Y-48643820D02*
X252290960Y-47643820D01*
X252386198Y-47786678D01*
X252481436Y-47881916D01*
X252576674Y-47929535D01*
X261619026Y-42502100D02*
X261952360Y-42025910D01*
X262190455Y-42502100D02*
X262190455Y-41502100D01*
X261809502Y-41502100D01*
X261714264Y-41549720D01*
X261666645Y-41597339D01*
X261619026Y-41692577D01*
X261619026Y-41835434D01*
X261666645Y-41930672D01*
X261714264Y-41978291D01*
X261809502Y-42025910D01*
X262190455Y-42025910D01*
X261238074Y-41597339D02*
X261190455Y-41549720D01*
X261095217Y-41502100D01*
X260857121Y-41502100D01*
X260761883Y-41549720D01*
X260714264Y-41597339D01*
X260666645Y-41692577D01*
X260666645Y-41787815D01*
X260714264Y-41930672D01*
X261285693Y-42502100D01*
X260666645Y-42502100D01*
X178275260Y-42751713D02*
X177799070Y-42418380D01*
X178275260Y-42180284D02*
X177275260Y-42180284D01*
X177275260Y-42561237D01*
X177322880Y-42656475D01*
X177370499Y-42704094D01*
X177465737Y-42751713D01*
X177608594Y-42751713D01*
X177703832Y-42704094D01*
X177751451Y-42656475D01*
X177799070Y-42561237D01*
X177799070Y-42180284D01*
X177275260Y-43608856D02*
X177275260Y-43418380D01*
X177322880Y-43323141D01*
X177370499Y-43275522D01*
X177513356Y-43180284D01*
X177703832Y-43132665D01*
X178084784Y-43132665D01*
X178180022Y-43180284D01*
X178227641Y-43227903D01*
X178275260Y-43323141D01*
X178275260Y-43513618D01*
X178227641Y-43608856D01*
X178180022Y-43656475D01*
X178084784Y-43704094D01*
X177846689Y-43704094D01*
X177751451Y-43656475D01*
X177703832Y-43608856D01*
X177656213Y-43513618D01*
X177656213Y-43323141D01*
X177703832Y-43227903D01*
X177751451Y-43180284D01*
X177846689Y-43132665D01*
X129127546Y-41496260D02*
X129460880Y-41020070D01*
X129698975Y-41496260D02*
X129698975Y-40496260D01*
X129318022Y-40496260D01*
X129222784Y-40543880D01*
X129175165Y-40591499D01*
X129127546Y-40686737D01*
X129127546Y-40829594D01*
X129175165Y-40924832D01*
X129222784Y-40972451D01*
X129318022Y-41020070D01*
X129698975Y-41020070D01*
X128794213Y-40496260D02*
X128127546Y-40496260D01*
X128556118Y-41496260D01*
X209898260Y-41227713D02*
X209422070Y-40894380D01*
X209898260Y-40656284D02*
X208898260Y-40656284D01*
X208898260Y-41037237D01*
X208945880Y-41132475D01*
X208993499Y-41180094D01*
X209088737Y-41227713D01*
X209231594Y-41227713D01*
X209326832Y-41180094D01*
X209374451Y-41132475D01*
X209422070Y-41037237D01*
X209422070Y-40656284D01*
X209326832Y-41799141D02*
X209279213Y-41703903D01*
X209231594Y-41656284D01*
X209136356Y-41608665D01*
X209088737Y-41608665D01*
X208993499Y-41656284D01*
X208945880Y-41703903D01*
X208898260Y-41799141D01*
X208898260Y-41989618D01*
X208945880Y-42084856D01*
X208993499Y-42132475D01*
X209088737Y-42180094D01*
X209136356Y-42180094D01*
X209231594Y-42132475D01*
X209279213Y-42084856D01*
X209326832Y-41989618D01*
X209326832Y-41799141D01*
X209374451Y-41703903D01*
X209422070Y-41656284D01*
X209517308Y-41608665D01*
X209707784Y-41608665D01*
X209803022Y-41656284D01*
X209850641Y-41703903D01*
X209898260Y-41799141D01*
X209898260Y-41989618D01*
X209850641Y-42084856D01*
X209803022Y-42132475D01*
X209707784Y-42180094D01*
X209517308Y-42180094D01*
X209422070Y-42132475D01*
X209374451Y-42084856D01*
X209326832Y-41989618D01*
X196756260Y-41418213D02*
X196280070Y-41084880D01*
X196756260Y-40846784D02*
X195756260Y-40846784D01*
X195756260Y-41227737D01*
X195803880Y-41322975D01*
X195851499Y-41370594D01*
X195946737Y-41418213D01*
X196089594Y-41418213D01*
X196184832Y-41370594D01*
X196232451Y-41322975D01*
X196280070Y-41227737D01*
X196280070Y-40846784D01*
X196756260Y-41894403D02*
X196756260Y-42084880D01*
X196708641Y-42180118D01*
X196661022Y-42227737D01*
X196518165Y-42322975D01*
X196327689Y-42370594D01*
X195946737Y-42370594D01*
X195851499Y-42322975D01*
X195803880Y-42275356D01*
X195756260Y-42180118D01*
X195756260Y-41989641D01*
X195803880Y-41894403D01*
X195851499Y-41846784D01*
X195946737Y-41799165D01*
X196184832Y-41799165D01*
X196280070Y-41846784D01*
X196327689Y-41894403D01*
X196375308Y-41989641D01*
X196375308Y-42180118D01*
X196327689Y-42275356D01*
X196280070Y-42322975D01*
X196184832Y-42370594D01*
X237265260Y-61825546D02*
X237979546Y-61825546D01*
X238122403Y-61777927D01*
X238217641Y-61682689D01*
X238265260Y-61539832D01*
X238265260Y-61444594D01*
X237598594Y-62730308D02*
X238265260Y-62730308D01*
X237217641Y-62492213D02*
X237931927Y-62254118D01*
X237931927Y-62873165D01*
X231879546Y-65581260D02*
X232212880Y-65105070D01*
X232450975Y-65581260D02*
X232450975Y-64581260D01*
X232070022Y-64581260D01*
X231974784Y-64628880D01*
X231927165Y-64676499D01*
X231879546Y-64771737D01*
X231879546Y-64914594D01*
X231927165Y-65009832D01*
X231974784Y-65057451D01*
X232070022Y-65105070D01*
X232450975Y-65105070D01*
X231546213Y-64581260D02*
X230927165Y-64581260D01*
X231260499Y-64962213D01*
X231117641Y-64962213D01*
X231022403Y-65009832D01*
X230974784Y-65057451D01*
X230927165Y-65152689D01*
X230927165Y-65390784D01*
X230974784Y-65486022D01*
X231022403Y-65533641D01*
X231117641Y-65581260D01*
X231403356Y-65581260D01*
X231498594Y-65533641D01*
X231546213Y-65486022D01*
X227035260Y-71992213D02*
X226559070Y-71658880D01*
X227035260Y-71420784D02*
X226035260Y-71420784D01*
X226035260Y-71801737D01*
X226082880Y-71896975D01*
X226130499Y-71944594D01*
X226225737Y-71992213D01*
X226368594Y-71992213D01*
X226463832Y-71944594D01*
X226511451Y-71896975D01*
X226559070Y-71801737D01*
X226559070Y-71420784D01*
X226368594Y-72849356D02*
X227035260Y-72849356D01*
X225987641Y-72611260D02*
X226701927Y-72373165D01*
X226701927Y-72992213D01*
X241174784Y-73811260D02*
X241174784Y-74620784D01*
X241127165Y-74716022D01*
X241079546Y-74763641D01*
X240984308Y-74811260D01*
X240793832Y-74811260D01*
X240698594Y-74763641D01*
X240650975Y-74716022D01*
X240603356Y-74620784D01*
X240603356Y-73811260D01*
X240222403Y-73811260D02*
X239555737Y-73811260D01*
X239984308Y-74811260D01*
X242870022Y-69916022D02*
X242917641Y-69868403D01*
X242965260Y-69725546D01*
X242965260Y-69630308D01*
X242917641Y-69487451D01*
X242822403Y-69392213D01*
X242727165Y-69344594D01*
X242536689Y-69296975D01*
X242393832Y-69296975D01*
X242203356Y-69344594D01*
X242108118Y-69392213D01*
X242012880Y-69487451D01*
X241965260Y-69630308D01*
X241965260Y-69725546D01*
X242012880Y-69868403D01*
X242060499Y-69916022D01*
X241965260Y-70249356D02*
X241965260Y-70868403D01*
X242346213Y-70535070D01*
X242346213Y-70677927D01*
X242393832Y-70773165D01*
X242441451Y-70820784D01*
X242536689Y-70868403D01*
X242774784Y-70868403D01*
X242870022Y-70820784D01*
X242917641Y-70773165D01*
X242965260Y-70677927D01*
X242965260Y-70392213D01*
X242917641Y-70296975D01*
X242870022Y-70249356D01*
X242060499Y-71249356D02*
X242012880Y-71296975D01*
X241965260Y-71392213D01*
X241965260Y-71630308D01*
X242012880Y-71725546D01*
X242060499Y-71773165D01*
X242155737Y-71820784D01*
X242250975Y-71820784D01*
X242393832Y-71773165D01*
X242965260Y-71201737D01*
X242965260Y-71820784D01*
%LPC*%
G36*
G01*
X146291760Y-45553620D02*
X146291760Y-46028620D01*
G75*
G02*
X146054260Y-46266120I-237500J0D01*
G01*
X145454260Y-46266120D01*
G75*
G02*
X145216760Y-46028620I0J237500D01*
G01*
X145216760Y-45553620D01*
G75*
G02*
X145454260Y-45316120I237500J0D01*
G01*
X146054260Y-45316120D01*
G75*
G02*
X146291760Y-45553620I0J-237500D01*
G01*
G37*
G36*
G01*
X144566760Y-45553620D02*
X144566760Y-46028620D01*
G75*
G02*
X144329260Y-46266120I-237500J0D01*
G01*
X143729260Y-46266120D01*
G75*
G02*
X143491760Y-46028620I0J237500D01*
G01*
X143491760Y-45553620D01*
G75*
G02*
X143729260Y-45316120I237500J0D01*
G01*
X144329260Y-45316120D01*
G75*
G02*
X144566760Y-45553620I0J-237500D01*
G01*
G37*
D21*
X244795040Y-46172120D03*
D22*
X247335040Y-46172120D03*
X249875040Y-46172120D03*
X252415040Y-46172120D03*
X254955040Y-46172120D03*
X257495040Y-46172120D03*
X260035040Y-46172120D03*
X262575040Y-46172120D03*
X265115040Y-46172120D03*
X267655040Y-46172120D03*
X270195040Y-46172120D03*
X272735040Y-46172120D03*
X275275040Y-46172120D03*
X277815040Y-46172120D03*
D23*
X175087880Y-30458880D03*
D24*
X156093280Y-72608880D03*
X152133280Y-72608880D03*
X148173280Y-72608880D03*
X144213280Y-72608880D03*
D25*
X278099520Y-59783980D03*
X278099520Y-62323980D03*
X278099520Y-64863980D03*
X278099520Y-67403980D03*
X278099520Y-57243980D03*
X278099520Y-54703980D03*
X278099520Y-52163980D03*
X275559520Y-67403980D03*
X273019520Y-67403980D03*
X270479520Y-67403980D03*
X267939520Y-67403980D03*
X265399520Y-67403980D03*
X262859520Y-67403980D03*
X260319520Y-67403980D03*
X257779520Y-67403980D03*
X255239520Y-67403980D03*
X252699520Y-67403980D03*
X250159520Y-67403980D03*
X247619520Y-67403980D03*
X245079520Y-67403980D03*
X247619520Y-64863980D03*
X252699520Y-64863980D03*
X255239520Y-64863980D03*
X257779520Y-64863980D03*
X275559520Y-52163980D03*
X273019520Y-52163980D03*
X270479520Y-52163980D03*
X267939520Y-52163980D03*
X265399520Y-52163980D03*
X262859520Y-52163980D03*
X260319520Y-52163980D03*
X257779520Y-52163980D03*
X255239520Y-52163980D03*
X252699520Y-52163980D03*
X250159520Y-52163980D03*
X247619520Y-52163980D03*
X245079520Y-52163980D03*
D24*
X277780000Y-37800000D03*
X273820000Y-37800000D03*
X269860000Y-37800000D03*
X265900000Y-37800000D03*
X261940000Y-37800000D03*
X257980000Y-37800000D03*
X254020000Y-37800000D03*
X250060000Y-37800000D03*
X246100000Y-37800000D03*
X242140000Y-37800000D03*
X238180000Y-37800000D03*
X234220000Y-37800000D03*
X182740000Y-37800000D03*
X186700000Y-37800000D03*
X190660000Y-37800000D03*
X194620000Y-37800000D03*
X198580000Y-37800000D03*
X202540000Y-37800000D03*
X206500000Y-37800000D03*
X210460000Y-37800000D03*
X214420000Y-37800000D03*
X218380000Y-37800000D03*
X222340000Y-37800000D03*
X226300000Y-37800000D03*
D23*
X199187880Y-63583880D03*
D26*
X191075000Y-51925000D03*
X192345000Y-58275000D03*
X191075000Y-58275000D03*
X189805000Y-58275000D03*
X188535000Y-58275000D03*
X187265000Y-58275000D03*
X185995000Y-58275000D03*
X184725000Y-58275000D03*
X183455000Y-58275000D03*
X183455000Y-51925000D03*
X184725000Y-51925000D03*
X185995000Y-51925000D03*
X187265000Y-51925000D03*
X188535000Y-51925000D03*
X189805000Y-51925000D03*
X192345000Y-51925000D03*
X163075620Y-52992020D03*
X160535620Y-52992020D03*
X159265620Y-52992020D03*
X157995620Y-52992020D03*
X156725620Y-52992020D03*
X155455620Y-52992020D03*
X154185620Y-52992020D03*
X154185620Y-59342020D03*
X155455620Y-59342020D03*
X156725620Y-59342020D03*
X157995620Y-59342020D03*
X159265620Y-59342020D03*
X160535620Y-59342020D03*
X161805620Y-59342020D03*
X163075620Y-59342020D03*
X161805620Y-52992020D03*
X230774240Y-50739040D03*
X228234240Y-50739040D03*
X226964240Y-50739040D03*
X225694240Y-50739040D03*
X224424240Y-50739040D03*
X223154240Y-50739040D03*
X221884240Y-50739040D03*
X221884240Y-57089040D03*
X223154240Y-57089040D03*
X224424240Y-57089040D03*
X225694240Y-57089040D03*
X226964240Y-57089040D03*
X228234240Y-57089040D03*
X229504240Y-57089040D03*
X230774240Y-57089040D03*
X229504240Y-50739040D03*
X212445600Y-51368960D03*
X213715600Y-57718960D03*
X212445600Y-57718960D03*
X211175600Y-57718960D03*
X209905600Y-57718960D03*
X208635600Y-57718960D03*
X207365600Y-57718960D03*
X206095600Y-57718960D03*
X204825600Y-57718960D03*
X204825600Y-51368960D03*
X206095600Y-51368960D03*
X207365600Y-51368960D03*
X208635600Y-51368960D03*
X209905600Y-51368960D03*
X211175600Y-51368960D03*
X213715600Y-51368960D03*
D27*
X145812880Y-57358880D03*
X145812880Y-55158880D03*
D24*
X174820000Y-37800000D03*
X170860000Y-37800000D03*
X166900000Y-37800000D03*
X162940000Y-37800000D03*
X158980000Y-37800000D03*
X155020000Y-37800000D03*
X151060000Y-37800000D03*
X147100000Y-37800000D03*
X143140000Y-37800000D03*
X139180000Y-37800000D03*
X135220000Y-37800000D03*
X131260000Y-37800000D03*
D26*
X142307880Y-53033880D03*
X139767880Y-53033880D03*
X138497880Y-53033880D03*
X137227880Y-53033880D03*
X135957880Y-53033880D03*
X134687880Y-53033880D03*
X133417880Y-53033880D03*
X133417880Y-59383880D03*
X134687880Y-59383880D03*
X135957880Y-59383880D03*
X137227880Y-59383880D03*
X138497880Y-59383880D03*
X139767880Y-59383880D03*
X141037880Y-59383880D03*
X142307880Y-59383880D03*
X141037880Y-53033880D03*
D23*
X129912880Y-73858880D03*
X230287880Y-30708880D03*
D28*
X217700000Y-60460000D03*
D29*
X217700000Y-63000000D03*
X217700000Y-65540000D03*
D24*
X149262880Y-57508880D03*
X199762880Y-51258880D03*
D28*
X172394880Y-60952380D03*
D29*
X174934880Y-60952380D03*
X177474880Y-60952380D03*
D30*
X174660560Y-67365880D03*
X174660560Y-65384680D03*
X172161200Y-67365880D03*
D31*
X167391080Y-70083680D03*
X179430680Y-70083680D03*
D30*
X172161200Y-65384680D03*
D32*
X245237880Y-32260000D03*
X247777880Y-32260000D03*
X250317880Y-32260000D03*
X252857880Y-32260000D03*
X255397880Y-32260000D03*
X257937880Y-32260000D03*
X245237880Y-34800000D03*
X247777880Y-34800000D03*
X250317880Y-34800000D03*
X252857880Y-34800000D03*
X255397880Y-34800000D03*
D21*
X257937880Y-34800000D03*
X213937880Y-34800000D03*
D32*
X211397880Y-34800000D03*
X208857880Y-34800000D03*
X206317880Y-34800000D03*
X203777880Y-34800000D03*
X201237880Y-34800000D03*
X213937880Y-32260000D03*
X211397880Y-32260000D03*
X208857880Y-32260000D03*
X206317880Y-32260000D03*
X203777880Y-32260000D03*
X201237880Y-32260000D03*
X149912880Y-32260000D03*
X152452880Y-32260000D03*
X154992880Y-32260000D03*
X157532880Y-32260000D03*
X160072880Y-32260000D03*
X162612880Y-32260000D03*
X149912880Y-34800000D03*
X152452880Y-34800000D03*
X154992880Y-34800000D03*
X157532880Y-34800000D03*
X160072880Y-34800000D03*
D21*
X162612880Y-34800000D03*
D32*
X204192880Y-71718880D03*
X206732880Y-71718880D03*
X209272880Y-71718880D03*
X211812880Y-71718880D03*
X204192880Y-74258880D03*
X206732880Y-74258880D03*
X209272880Y-74258880D03*
D21*
X211812880Y-74258880D03*
D33*
X132972880Y-69858879D03*
X132972880Y-65758881D03*
X134242880Y-69858879D03*
X134242880Y-65758881D03*
X135512880Y-69858879D03*
X135512880Y-65758881D03*
X136782880Y-69858879D03*
X136782880Y-65758881D03*
X138052880Y-69858879D03*
X138052880Y-65758881D03*
X185522880Y-65858879D03*
X185522880Y-61758881D03*
X186792880Y-65858879D03*
X186792880Y-61758881D03*
X188062880Y-65858879D03*
X188062880Y-61758881D03*
X189332880Y-65858879D03*
X189332880Y-61758881D03*
X190602880Y-65858879D03*
X190602880Y-61758881D03*
X160502880Y-62958881D03*
X160502880Y-67058879D03*
X159232880Y-62958881D03*
X159232880Y-67058879D03*
X157962880Y-62958881D03*
X157962880Y-67058879D03*
X156692880Y-62958881D03*
X156692880Y-67058879D03*
X155422880Y-62958881D03*
X155422880Y-67058879D03*
X223172880Y-64408879D03*
X223172880Y-60308881D03*
X224442880Y-64408879D03*
X224442880Y-60308881D03*
X225712880Y-64408879D03*
X225712880Y-60308881D03*
X226982880Y-64408879D03*
X226982880Y-60308881D03*
X228252880Y-64408879D03*
X228252880Y-60308881D03*
X211402880Y-61608881D03*
X211402880Y-65708879D03*
X210132880Y-61608881D03*
X210132880Y-65708879D03*
X208862880Y-61608881D03*
X208862880Y-65708879D03*
X207592880Y-61608881D03*
X207592880Y-65708879D03*
X206322880Y-61608881D03*
X206322880Y-65708879D03*
D32*
X186332880Y-71768880D03*
X188872880Y-71768880D03*
X191412880Y-71768880D03*
X193952880Y-71768880D03*
X186332880Y-74308880D03*
X188872880Y-74308880D03*
X191412880Y-74308880D03*
D21*
X193952880Y-74308880D03*
D23*
X275732240Y-73533000D03*
X129962880Y-30458880D03*
X276462880Y-30358880D03*
D24*
X253322320Y-73477120D03*
X257282320Y-73477120D03*
X261242320Y-73477120D03*
X265202320Y-73477120D03*
X269162320Y-73477120D03*
X236123480Y-59791600D03*
G36*
G01*
X208617360Y-44463980D02*
X208617360Y-43988980D01*
G75*
G02*
X208854860Y-43751480I237500J0D01*
G01*
X209454860Y-43751480D01*
G75*
G02*
X209692360Y-43988980I0J-237500D01*
G01*
X209692360Y-44463980D01*
G75*
G02*
X209454860Y-44701480I-237500J0D01*
G01*
X208854860Y-44701480D01*
G75*
G02*
X208617360Y-44463980I0J237500D01*
G01*
G37*
G36*
G01*
X210342360Y-44463980D02*
X210342360Y-43988980D01*
G75*
G02*
X210579860Y-43751480I237500J0D01*
G01*
X211179860Y-43751480D01*
G75*
G02*
X211417360Y-43988980I0J-237500D01*
G01*
X211417360Y-44463980D01*
G75*
G02*
X211179860Y-44701480I-237500J0D01*
G01*
X210579860Y-44701480D01*
G75*
G02*
X210342360Y-44463980I0J237500D01*
G01*
G37*
G36*
G01*
X204419320Y-42139860D02*
X204419320Y-42614860D01*
G75*
G02*
X204181820Y-42852360I-237500J0D01*
G01*
X203581820Y-42852360D01*
G75*
G02*
X203344320Y-42614860I0J237500D01*
G01*
X203344320Y-42139860D01*
G75*
G02*
X203581820Y-41902360I237500J0D01*
G01*
X204181820Y-41902360D01*
G75*
G02*
X204419320Y-42139860I0J-237500D01*
G01*
G37*
G36*
G01*
X206144320Y-42139860D02*
X206144320Y-42614860D01*
G75*
G02*
X205906820Y-42852360I-237500J0D01*
G01*
X205306820Y-42852360D01*
G75*
G02*
X205069320Y-42614860I0J237500D01*
G01*
X205069320Y-42139860D01*
G75*
G02*
X205306820Y-41902360I237500J0D01*
G01*
X205906820Y-41902360D01*
G75*
G02*
X206144320Y-42139860I0J-237500D01*
G01*
G37*
G36*
G01*
X201927920Y-43841660D02*
X201927920Y-44316660D01*
G75*
G02*
X201690420Y-44554160I-237500J0D01*
G01*
X201090420Y-44554160D01*
G75*
G02*
X200852920Y-44316660I0J237500D01*
G01*
X200852920Y-43841660D01*
G75*
G02*
X201090420Y-43604160I237500J0D01*
G01*
X201690420Y-43604160D01*
G75*
G02*
X201927920Y-43841660I0J-237500D01*
G01*
G37*
G36*
G01*
X200202920Y-43841660D02*
X200202920Y-44316660D01*
G75*
G02*
X199965420Y-44554160I-237500J0D01*
G01*
X199365420Y-44554160D01*
G75*
G02*
X199127920Y-44316660I0J237500D01*
G01*
X199127920Y-43841660D01*
G75*
G02*
X199365420Y-43604160I237500J0D01*
G01*
X199965420Y-43604160D01*
G75*
G02*
X200202920Y-43841660I0J-237500D01*
G01*
G37*
G36*
G01*
X199143160Y-42569140D02*
X199143160Y-42094140D01*
G75*
G02*
X199380660Y-41856640I237500J0D01*
G01*
X199980660Y-41856640D01*
G75*
G02*
X200218160Y-42094140I0J-237500D01*
G01*
X200218160Y-42569140D01*
G75*
G02*
X199980660Y-42806640I-237500J0D01*
G01*
X199380660Y-42806640D01*
G75*
G02*
X199143160Y-42569140I0J237500D01*
G01*
G37*
G36*
G01*
X200868160Y-42569140D02*
X200868160Y-42094140D01*
G75*
G02*
X201105660Y-41856640I237500J0D01*
G01*
X201705660Y-41856640D01*
G75*
G02*
X201943160Y-42094140I0J-237500D01*
G01*
X201943160Y-42569140D01*
G75*
G02*
X201705660Y-42806640I-237500J0D01*
G01*
X201105660Y-42806640D01*
G75*
G02*
X200868160Y-42569140I0J237500D01*
G01*
G37*
G36*
G01*
X194480640Y-29663380D02*
X194480640Y-30138380D01*
G75*
G02*
X194243140Y-30375880I-237500J0D01*
G01*
X193643140Y-30375880D01*
G75*
G02*
X193405640Y-30138380I0J237500D01*
G01*
X193405640Y-29663380D01*
G75*
G02*
X193643140Y-29425880I237500J0D01*
G01*
X194243140Y-29425880D01*
G75*
G02*
X194480640Y-29663380I0J-237500D01*
G01*
G37*
G36*
G01*
X192755640Y-29663380D02*
X192755640Y-30138380D01*
G75*
G02*
X192518140Y-30375880I-237500J0D01*
G01*
X191918140Y-30375880D01*
G75*
G02*
X191680640Y-30138380I0J237500D01*
G01*
X191680640Y-29663380D01*
G75*
G02*
X191918140Y-29425880I237500J0D01*
G01*
X192518140Y-29425880D01*
G75*
G02*
X192755640Y-29663380I0J-237500D01*
G01*
G37*
G36*
G01*
X188082040Y-29617660D02*
X188082040Y-30092660D01*
G75*
G02*
X187844540Y-30330160I-237500J0D01*
G01*
X187244540Y-30330160D01*
G75*
G02*
X187007040Y-30092660I0J237500D01*
G01*
X187007040Y-29617660D01*
G75*
G02*
X187244540Y-29380160I237500J0D01*
G01*
X187844540Y-29380160D01*
G75*
G02*
X188082040Y-29617660I0J-237500D01*
G01*
G37*
G36*
G01*
X189807040Y-29617660D02*
X189807040Y-30092660D01*
G75*
G02*
X189569540Y-30330160I-237500J0D01*
G01*
X188969540Y-30330160D01*
G75*
G02*
X188732040Y-30092660I0J237500D01*
G01*
X188732040Y-29617660D01*
G75*
G02*
X188969540Y-29380160I237500J0D01*
G01*
X189569540Y-29380160D01*
G75*
G02*
X189807040Y-29617660I0J-237500D01*
G01*
G37*
G36*
G01*
X186134200Y-31004500D02*
X186134200Y-31479500D01*
G75*
G02*
X185896700Y-31717000I-237500J0D01*
G01*
X185296700Y-31717000D01*
G75*
G02*
X185059200Y-31479500I0J237500D01*
G01*
X185059200Y-31004500D01*
G75*
G02*
X185296700Y-30767000I237500J0D01*
G01*
X185896700Y-30767000D01*
G75*
G02*
X186134200Y-31004500I0J-237500D01*
G01*
G37*
G36*
G01*
X184409200Y-31004500D02*
X184409200Y-31479500D01*
G75*
G02*
X184171700Y-31717000I-237500J0D01*
G01*
X183571700Y-31717000D01*
G75*
G02*
X183334200Y-31479500I0J237500D01*
G01*
X183334200Y-31004500D01*
G75*
G02*
X183571700Y-30767000I237500J0D01*
G01*
X184171700Y-30767000D01*
G75*
G02*
X184409200Y-31004500I0J-237500D01*
G01*
G37*
G36*
G01*
X183410400Y-29686260D02*
X183410400Y-29211260D01*
G75*
G02*
X183647900Y-28973760I237500J0D01*
G01*
X184247900Y-28973760D01*
G75*
G02*
X184485400Y-29211260I0J-237500D01*
G01*
X184485400Y-29686260D01*
G75*
G02*
X184247900Y-29923760I-237500J0D01*
G01*
X183647900Y-29923760D01*
G75*
G02*
X183410400Y-29686260I0J237500D01*
G01*
G37*
G36*
G01*
X185135400Y-29686260D02*
X185135400Y-29211260D01*
G75*
G02*
X185372900Y-28973760I237500J0D01*
G01*
X185972900Y-28973760D01*
G75*
G02*
X186210400Y-29211260I0J-237500D01*
G01*
X186210400Y-29686260D01*
G75*
G02*
X185972900Y-29923760I-237500J0D01*
G01*
X185372900Y-29923760D01*
G75*
G02*
X185135400Y-29686260I0J237500D01*
G01*
G37*
G36*
G01*
X271007720Y-43671500D02*
X271007720Y-43196500D01*
G75*
G02*
X271245220Y-42959000I237500J0D01*
G01*
X271845220Y-42959000D01*
G75*
G02*
X272082720Y-43196500I0J-237500D01*
G01*
X272082720Y-43671500D01*
G75*
G02*
X271845220Y-43909000I-237500J0D01*
G01*
X271245220Y-43909000D01*
G75*
G02*
X271007720Y-43671500I0J237500D01*
G01*
G37*
G36*
G01*
X269282720Y-43671500D02*
X269282720Y-43196500D01*
G75*
G02*
X269520220Y-42959000I237500J0D01*
G01*
X270120220Y-42959000D01*
G75*
G02*
X270357720Y-43196500I0J-237500D01*
G01*
X270357720Y-43671500D01*
G75*
G02*
X270120220Y-43909000I-237500J0D01*
G01*
X269520220Y-43909000D01*
G75*
G02*
X269282720Y-43671500I0J237500D01*
G01*
G37*
G36*
G01*
X264202720Y-43717220D02*
X264202720Y-43242220D01*
G75*
G02*
X264440220Y-43004720I237500J0D01*
G01*
X265040220Y-43004720D01*
G75*
G02*
X265277720Y-43242220I0J-237500D01*
G01*
X265277720Y-43717220D01*
G75*
G02*
X265040220Y-43954720I-237500J0D01*
G01*
X264440220Y-43954720D01*
G75*
G02*
X264202720Y-43717220I0J237500D01*
G01*
G37*
G36*
G01*
X265927720Y-43717220D02*
X265927720Y-43242220D01*
G75*
G02*
X266165220Y-43004720I237500J0D01*
G01*
X266765220Y-43004720D01*
G75*
G02*
X267002720Y-43242220I0J-237500D01*
G01*
X267002720Y-43717220D01*
G75*
G02*
X266765220Y-43954720I-237500J0D01*
G01*
X266165220Y-43954720D01*
G75*
G02*
X265927720Y-43717220I0J237500D01*
G01*
G37*
G36*
G01*
X241825000Y-50037500D02*
X241825000Y-49562500D01*
G75*
G02*
X242062500Y-49325000I237500J0D01*
G01*
X242662500Y-49325000D01*
G75*
G02*
X242900000Y-49562500I0J-237500D01*
G01*
X242900000Y-50037500D01*
G75*
G02*
X242662500Y-50275000I-237500J0D01*
G01*
X242062500Y-50275000D01*
G75*
G02*
X241825000Y-50037500I0J237500D01*
G01*
G37*
G36*
G01*
X240100000Y-50037500D02*
X240100000Y-49562500D01*
G75*
G02*
X240337500Y-49325000I237500J0D01*
G01*
X240937500Y-49325000D01*
G75*
G02*
X241175000Y-49562500I0J-237500D01*
G01*
X241175000Y-50037500D01*
G75*
G02*
X240937500Y-50275000I-237500J0D01*
G01*
X240337500Y-50275000D01*
G75*
G02*
X240100000Y-50037500I0J237500D01*
G01*
G37*
G36*
G01*
X166962500Y-54800000D02*
X167437500Y-54800000D01*
G75*
G02*
X167675000Y-55037500I0J-237500D01*
G01*
X167675000Y-55637500D01*
G75*
G02*
X167437500Y-55875000I-237500J0D01*
G01*
X166962500Y-55875000D01*
G75*
G02*
X166725000Y-55637500I0J237500D01*
G01*
X166725000Y-55037500D01*
G75*
G02*
X166962500Y-54800000I237500J0D01*
G01*
G37*
G36*
G01*
X166962500Y-56525000D02*
X167437500Y-56525000D01*
G75*
G02*
X167675000Y-56762500I0J-237500D01*
G01*
X167675000Y-57362500D01*
G75*
G02*
X167437500Y-57600000I-237500J0D01*
G01*
X166962500Y-57600000D01*
G75*
G02*
X166725000Y-57362500I0J237500D01*
G01*
X166725000Y-56762500D01*
G75*
G02*
X166962500Y-56525000I237500J0D01*
G01*
G37*
G36*
G01*
X195662500Y-55425000D02*
X196137500Y-55425000D01*
G75*
G02*
X196375000Y-55662500I0J-237500D01*
G01*
X196375000Y-56262500D01*
G75*
G02*
X196137500Y-56500000I-237500J0D01*
G01*
X195662500Y-56500000D01*
G75*
G02*
X195425000Y-56262500I0J237500D01*
G01*
X195425000Y-55662500D01*
G75*
G02*
X195662500Y-55425000I237500J0D01*
G01*
G37*
G36*
G01*
X195662500Y-53700000D02*
X196137500Y-53700000D01*
G75*
G02*
X196375000Y-53937500I0J-237500D01*
G01*
X196375000Y-54537500D01*
G75*
G02*
X196137500Y-54775000I-237500J0D01*
G01*
X195662500Y-54775000D01*
G75*
G02*
X195425000Y-54537500I0J237500D01*
G01*
X195425000Y-53937500D01*
G75*
G02*
X195662500Y-53700000I237500J0D01*
G01*
G37*
G36*
G01*
X153238080Y-44489380D02*
X153238080Y-44014380D01*
G75*
G02*
X153475580Y-43776880I237500J0D01*
G01*
X154075580Y-43776880D01*
G75*
G02*
X154313080Y-44014380I0J-237500D01*
G01*
X154313080Y-44489380D01*
G75*
G02*
X154075580Y-44726880I-237500J0D01*
G01*
X153475580Y-44726880D01*
G75*
G02*
X153238080Y-44489380I0J237500D01*
G01*
G37*
G36*
G01*
X151513080Y-44489380D02*
X151513080Y-44014380D01*
G75*
G02*
X151750580Y-43776880I237500J0D01*
G01*
X152350580Y-43776880D01*
G75*
G02*
X152588080Y-44014380I0J-237500D01*
G01*
X152588080Y-44489380D01*
G75*
G02*
X152350580Y-44726880I-237500J0D01*
G01*
X151750580Y-44726880D01*
G75*
G02*
X151513080Y-44489380I0J237500D01*
G01*
G37*
G36*
G01*
X154455320Y-45482500D02*
X154455320Y-45957500D01*
G75*
G02*
X154217820Y-46195000I-237500J0D01*
G01*
X153617820Y-46195000D01*
G75*
G02*
X153380320Y-45957500I0J237500D01*
G01*
X153380320Y-45482500D01*
G75*
G02*
X153617820Y-45245000I237500J0D01*
G01*
X154217820Y-45245000D01*
G75*
G02*
X154455320Y-45482500I0J-237500D01*
G01*
G37*
G36*
G01*
X152730320Y-45482500D02*
X152730320Y-45957500D01*
G75*
G02*
X152492820Y-46195000I-237500J0D01*
G01*
X151892820Y-46195000D01*
G75*
G02*
X151655320Y-45957500I0J237500D01*
G01*
X151655320Y-45482500D01*
G75*
G02*
X151892820Y-45245000I237500J0D01*
G01*
X152492820Y-45245000D01*
G75*
G02*
X152730320Y-45482500I0J-237500D01*
G01*
G37*
G36*
G01*
X158539640Y-44075340D02*
X158539640Y-44550340D01*
G75*
G02*
X158302140Y-44787840I-237500J0D01*
G01*
X157702140Y-44787840D01*
G75*
G02*
X157464640Y-44550340I0J237500D01*
G01*
X157464640Y-44075340D01*
G75*
G02*
X157702140Y-43837840I237500J0D01*
G01*
X158302140Y-43837840D01*
G75*
G02*
X158539640Y-44075340I0J-237500D01*
G01*
G37*
G36*
G01*
X156814640Y-44075340D02*
X156814640Y-44550340D01*
G75*
G02*
X156577140Y-44787840I-237500J0D01*
G01*
X155977140Y-44787840D01*
G75*
G02*
X155739640Y-44550340I0J237500D01*
G01*
X155739640Y-44075340D01*
G75*
G02*
X155977140Y-43837840I237500J0D01*
G01*
X156577140Y-43837840D01*
G75*
G02*
X156814640Y-44075340I0J-237500D01*
G01*
G37*
G36*
G01*
X252943480Y-42876460D02*
X252943480Y-43351460D01*
G75*
G02*
X252705980Y-43588960I-237500J0D01*
G01*
X252105980Y-43588960D01*
G75*
G02*
X251868480Y-43351460I0J237500D01*
G01*
X251868480Y-42876460D01*
G75*
G02*
X252105980Y-42638960I237500J0D01*
G01*
X252705980Y-42638960D01*
G75*
G02*
X252943480Y-42876460I0J-237500D01*
G01*
G37*
G36*
G01*
X254668480Y-42876460D02*
X254668480Y-43351460D01*
G75*
G02*
X254430980Y-43588960I-237500J0D01*
G01*
X253830980Y-43588960D01*
G75*
G02*
X253593480Y-43351460I0J237500D01*
G01*
X253593480Y-42876460D01*
G75*
G02*
X253830980Y-42638960I237500J0D01*
G01*
X254430980Y-42638960D01*
G75*
G02*
X254668480Y-42876460I0J-237500D01*
G01*
G37*
G36*
G01*
X142323360Y-30346660D02*
X142323360Y-29871660D01*
G75*
G02*
X142560860Y-29634160I237500J0D01*
G01*
X143160860Y-29634160D01*
G75*
G02*
X143398360Y-29871660I0J-237500D01*
G01*
X143398360Y-30346660D01*
G75*
G02*
X143160860Y-30584160I-237500J0D01*
G01*
X142560860Y-30584160D01*
G75*
G02*
X142323360Y-30346660I0J237500D01*
G01*
G37*
G36*
G01*
X144048360Y-30346660D02*
X144048360Y-29871660D01*
G75*
G02*
X144285860Y-29634160I237500J0D01*
G01*
X144885860Y-29634160D01*
G75*
G02*
X145123360Y-29871660I0J-237500D01*
G01*
X145123360Y-30346660D01*
G75*
G02*
X144885860Y-30584160I-237500J0D01*
G01*
X144285860Y-30584160D01*
G75*
G02*
X144048360Y-30346660I0J237500D01*
G01*
G37*
G36*
G01*
X141112120Y-32363420D02*
X141112120Y-31888420D01*
G75*
G02*
X141349620Y-31650920I237500J0D01*
G01*
X141949620Y-31650920D01*
G75*
G02*
X142187120Y-31888420I0J-237500D01*
G01*
X142187120Y-32363420D01*
G75*
G02*
X141949620Y-32600920I-237500J0D01*
G01*
X141349620Y-32600920D01*
G75*
G02*
X141112120Y-32363420I0J237500D01*
G01*
G37*
G36*
G01*
X139387120Y-32363420D02*
X139387120Y-31888420D01*
G75*
G02*
X139624620Y-31650920I237500J0D01*
G01*
X140224620Y-31650920D01*
G75*
G02*
X140462120Y-31888420I0J-237500D01*
G01*
X140462120Y-32363420D01*
G75*
G02*
X140224620Y-32600920I-237500J0D01*
G01*
X139624620Y-32600920D01*
G75*
G02*
X139387120Y-32363420I0J237500D01*
G01*
G37*
G36*
G01*
X137112200Y-31019740D02*
X137112200Y-31494740D01*
G75*
G02*
X136874700Y-31732240I-237500J0D01*
G01*
X136274700Y-31732240D01*
G75*
G02*
X136037200Y-31494740I0J237500D01*
G01*
X136037200Y-31019740D01*
G75*
G02*
X136274700Y-30782240I237500J0D01*
G01*
X136874700Y-30782240D01*
G75*
G02*
X137112200Y-31019740I0J-237500D01*
G01*
G37*
G36*
G01*
X135387200Y-31019740D02*
X135387200Y-31494740D01*
G75*
G02*
X135149700Y-31732240I-237500J0D01*
G01*
X134549700Y-31732240D01*
G75*
G02*
X134312200Y-31494740I0J237500D01*
G01*
X134312200Y-31019740D01*
G75*
G02*
X134549700Y-30782240I237500J0D01*
G01*
X135149700Y-30782240D01*
G75*
G02*
X135387200Y-31019740I0J-237500D01*
G01*
G37*
G36*
G01*
X140025000Y-30849580D02*
X140025000Y-30374580D01*
G75*
G02*
X140262500Y-30137080I237500J0D01*
G01*
X140862500Y-30137080D01*
G75*
G02*
X141100000Y-30374580I0J-237500D01*
G01*
X141100000Y-30849580D01*
G75*
G02*
X140862500Y-31087080I-237500J0D01*
G01*
X140262500Y-31087080D01*
G75*
G02*
X140025000Y-30849580I0J237500D01*
G01*
G37*
G36*
G01*
X138300000Y-30849580D02*
X138300000Y-30374580D01*
G75*
G02*
X138537500Y-30137080I237500J0D01*
G01*
X139137500Y-30137080D01*
G75*
G02*
X139375000Y-30374580I0J-237500D01*
G01*
X139375000Y-30849580D01*
G75*
G02*
X139137500Y-31087080I-237500J0D01*
G01*
X138537500Y-31087080D01*
G75*
G02*
X138300000Y-30849580I0J237500D01*
G01*
G37*
G36*
G01*
X216703900Y-55186460D02*
X217178900Y-55186460D01*
G75*
G02*
X217416400Y-55423960I0J-237500D01*
G01*
X217416400Y-56023960D01*
G75*
G02*
X217178900Y-56261460I-237500J0D01*
G01*
X216703900Y-56261460D01*
G75*
G02*
X216466400Y-56023960I0J237500D01*
G01*
X216466400Y-55423960D01*
G75*
G02*
X216703900Y-55186460I237500J0D01*
G01*
G37*
G36*
G01*
X216703900Y-53461460D02*
X217178900Y-53461460D01*
G75*
G02*
X217416400Y-53698960I0J-237500D01*
G01*
X217416400Y-54298960D01*
G75*
G02*
X217178900Y-54536460I-237500J0D01*
G01*
X216703900Y-54536460D01*
G75*
G02*
X216466400Y-54298960I0J237500D01*
G01*
X216466400Y-53698960D01*
G75*
G02*
X216703900Y-53461460I237500J0D01*
G01*
G37*
G36*
G01*
X233562500Y-51400000D02*
X234037500Y-51400000D01*
G75*
G02*
X234275000Y-51637500I0J-237500D01*
G01*
X234275000Y-52237500D01*
G75*
G02*
X234037500Y-52475000I-237500J0D01*
G01*
X233562500Y-52475000D01*
G75*
G02*
X233325000Y-52237500I0J237500D01*
G01*
X233325000Y-51637500D01*
G75*
G02*
X233562500Y-51400000I237500J0D01*
G01*
G37*
G36*
G01*
X233562500Y-53125000D02*
X234037500Y-53125000D01*
G75*
G02*
X234275000Y-53362500I0J-237500D01*
G01*
X234275000Y-53962500D01*
G75*
G02*
X234037500Y-54200000I-237500J0D01*
G01*
X233562500Y-54200000D01*
G75*
G02*
X233325000Y-53962500I0J237500D01*
G01*
X233325000Y-53362500D01*
G75*
G02*
X233562500Y-53125000I237500J0D01*
G01*
G37*
G36*
G01*
X220541860Y-29972120D02*
X220066860Y-29972120D01*
G75*
G02*
X219829360Y-29734620I0J237500D01*
G01*
X219829360Y-29134620D01*
G75*
G02*
X220066860Y-28897120I237500J0D01*
G01*
X220541860Y-28897120D01*
G75*
G02*
X220779360Y-29134620I0J-237500D01*
G01*
X220779360Y-29734620D01*
G75*
G02*
X220541860Y-29972120I-237500J0D01*
G01*
G37*
G36*
G01*
X220541860Y-31697120D02*
X220066860Y-31697120D01*
G75*
G02*
X219829360Y-31459620I0J237500D01*
G01*
X219829360Y-30859620D01*
G75*
G02*
X220066860Y-30622120I237500J0D01*
G01*
X220541860Y-30622120D01*
G75*
G02*
X220779360Y-30859620I0J-237500D01*
G01*
X220779360Y-31459620D01*
G75*
G02*
X220541860Y-31697120I-237500J0D01*
G01*
G37*
G36*
G01*
X220521540Y-35298840D02*
X220046540Y-35298840D01*
G75*
G02*
X219809040Y-35061340I0J237500D01*
G01*
X219809040Y-34461340D01*
G75*
G02*
X220046540Y-34223840I237500J0D01*
G01*
X220521540Y-34223840D01*
G75*
G02*
X220759040Y-34461340I0J-237500D01*
G01*
X220759040Y-35061340D01*
G75*
G02*
X220521540Y-35298840I-237500J0D01*
G01*
G37*
G36*
G01*
X220521540Y-33573840D02*
X220046540Y-33573840D01*
G75*
G02*
X219809040Y-33336340I0J237500D01*
G01*
X219809040Y-32736340D01*
G75*
G02*
X220046540Y-32498840I237500J0D01*
G01*
X220521540Y-32498840D01*
G75*
G02*
X220759040Y-32736340I0J-237500D01*
G01*
X220759040Y-33336340D01*
G75*
G02*
X220521540Y-33573840I-237500J0D01*
G01*
G37*
G36*
G01*
X224546040Y-30905460D02*
X224546040Y-30430460D01*
G75*
G02*
X224783540Y-30192960I237500J0D01*
G01*
X225383540Y-30192960D01*
G75*
G02*
X225621040Y-30430460I0J-237500D01*
G01*
X225621040Y-30905460D01*
G75*
G02*
X225383540Y-31142960I-237500J0D01*
G01*
X224783540Y-31142960D01*
G75*
G02*
X224546040Y-30905460I0J237500D01*
G01*
G37*
G36*
G01*
X222821040Y-30905460D02*
X222821040Y-30430460D01*
G75*
G02*
X223058540Y-30192960I237500J0D01*
G01*
X223658540Y-30192960D01*
G75*
G02*
X223896040Y-30430460I0J-237500D01*
G01*
X223896040Y-30905460D01*
G75*
G02*
X223658540Y-31142960I-237500J0D01*
G01*
X223058540Y-31142960D01*
G75*
G02*
X222821040Y-30905460I0J237500D01*
G01*
G37*
G36*
G01*
X223906200Y-32101780D02*
X223906200Y-32576780D01*
G75*
G02*
X223668700Y-32814280I-237500J0D01*
G01*
X223068700Y-32814280D01*
G75*
G02*
X222831200Y-32576780I0J237500D01*
G01*
X222831200Y-32101780D01*
G75*
G02*
X223068700Y-31864280I237500J0D01*
G01*
X223668700Y-31864280D01*
G75*
G02*
X223906200Y-32101780I0J-237500D01*
G01*
G37*
G36*
G01*
X225631200Y-32101780D02*
X225631200Y-32576780D01*
G75*
G02*
X225393700Y-32814280I-237500J0D01*
G01*
X224793700Y-32814280D01*
G75*
G02*
X224556200Y-32576780I0J237500D01*
G01*
X224556200Y-32101780D01*
G75*
G02*
X224793700Y-31864280I237500J0D01*
G01*
X225393700Y-31864280D01*
G75*
G02*
X225631200Y-32101780I0J-237500D01*
G01*
G37*
G36*
G01*
X252365960Y-49383940D02*
X252365960Y-49858940D01*
G75*
G02*
X252128460Y-50096440I-237500J0D01*
G01*
X251628460Y-50096440D01*
G75*
G02*
X251390960Y-49858940I0J237500D01*
G01*
X251390960Y-49383940D01*
G75*
G02*
X251628460Y-49146440I237500J0D01*
G01*
X252128460Y-49146440D01*
G75*
G02*
X252365960Y-49383940I0J-237500D01*
G01*
G37*
G36*
G01*
X254190960Y-49383940D02*
X254190960Y-49858940D01*
G75*
G02*
X253953460Y-50096440I-237500J0D01*
G01*
X253453460Y-50096440D01*
G75*
G02*
X253215960Y-49858940I0J237500D01*
G01*
X253215960Y-49383940D01*
G75*
G02*
X253453460Y-49146440I237500J0D01*
G01*
X253953460Y-49146440D01*
G75*
G02*
X254190960Y-49383940I0J-237500D01*
G01*
G37*
G36*
G01*
X262852360Y-43242220D02*
X262852360Y-43717220D01*
G75*
G02*
X262614860Y-43954720I-237500J0D01*
G01*
X262114860Y-43954720D01*
G75*
G02*
X261877360Y-43717220I0J237500D01*
G01*
X261877360Y-43242220D01*
G75*
G02*
X262114860Y-43004720I237500J0D01*
G01*
X262614860Y-43004720D01*
G75*
G02*
X262852360Y-43242220I0J-237500D01*
G01*
G37*
G36*
G01*
X261027360Y-43242220D02*
X261027360Y-43717220D01*
G75*
G02*
X260789860Y-43954720I-237500J0D01*
G01*
X260289860Y-43954720D01*
G75*
G02*
X260052360Y-43717220I0J237500D01*
G01*
X260052360Y-43242220D01*
G75*
G02*
X260289860Y-43004720I237500J0D01*
G01*
X260789860Y-43004720D01*
G75*
G02*
X261027360Y-43242220I0J-237500D01*
G01*
G37*
G36*
G01*
X179015380Y-41518380D02*
X179490380Y-41518380D01*
G75*
G02*
X179727880Y-41755880I0J-237500D01*
G01*
X179727880Y-42255880D01*
G75*
G02*
X179490380Y-42493380I-237500J0D01*
G01*
X179015380Y-42493380D01*
G75*
G02*
X178777880Y-42255880I0J237500D01*
G01*
X178777880Y-41755880D01*
G75*
G02*
X179015380Y-41518380I237500J0D01*
G01*
G37*
G36*
G01*
X179015380Y-43343380D02*
X179490380Y-43343380D01*
G75*
G02*
X179727880Y-43580880I0J-237500D01*
G01*
X179727880Y-44080880D01*
G75*
G02*
X179490380Y-44318380I-237500J0D01*
G01*
X179015380Y-44318380D01*
G75*
G02*
X178777880Y-44080880I0J237500D01*
G01*
X178777880Y-43580880D01*
G75*
G02*
X179015380Y-43343380I237500J0D01*
G01*
G37*
G36*
G01*
X128535880Y-42236380D02*
X128535880Y-42711380D01*
G75*
G02*
X128298380Y-42948880I-237500J0D01*
G01*
X127798380Y-42948880D01*
G75*
G02*
X127560880Y-42711380I0J237500D01*
G01*
X127560880Y-42236380D01*
G75*
G02*
X127798380Y-41998880I237500J0D01*
G01*
X128298380Y-41998880D01*
G75*
G02*
X128535880Y-42236380I0J-237500D01*
G01*
G37*
G36*
G01*
X130360880Y-42236380D02*
X130360880Y-42711380D01*
G75*
G02*
X130123380Y-42948880I-237500J0D01*
G01*
X129623380Y-42948880D01*
G75*
G02*
X129385880Y-42711380I0J237500D01*
G01*
X129385880Y-42236380D01*
G75*
G02*
X129623380Y-41998880I237500J0D01*
G01*
X130123380Y-41998880D01*
G75*
G02*
X130360880Y-42236380I0J-237500D01*
G01*
G37*
G36*
G01*
X210638380Y-39994380D02*
X211113380Y-39994380D01*
G75*
G02*
X211350880Y-40231880I0J-237500D01*
G01*
X211350880Y-40731880D01*
G75*
G02*
X211113380Y-40969380I-237500J0D01*
G01*
X210638380Y-40969380D01*
G75*
G02*
X210400880Y-40731880I0J237500D01*
G01*
X210400880Y-40231880D01*
G75*
G02*
X210638380Y-39994380I237500J0D01*
G01*
G37*
G36*
G01*
X210638380Y-41819380D02*
X211113380Y-41819380D01*
G75*
G02*
X211350880Y-42056880I0J-237500D01*
G01*
X211350880Y-42556880D01*
G75*
G02*
X211113380Y-42794380I-237500J0D01*
G01*
X210638380Y-42794380D01*
G75*
G02*
X210400880Y-42556880I0J237500D01*
G01*
X210400880Y-42056880D01*
G75*
G02*
X210638380Y-41819380I237500J0D01*
G01*
G37*
G36*
G01*
X195111380Y-41159880D02*
X194636380Y-41159880D01*
G75*
G02*
X194398880Y-40922380I0J237500D01*
G01*
X194398880Y-40422380D01*
G75*
G02*
X194636380Y-40184880I237500J0D01*
G01*
X195111380Y-40184880D01*
G75*
G02*
X195348880Y-40422380I0J-237500D01*
G01*
X195348880Y-40922380D01*
G75*
G02*
X195111380Y-41159880I-237500J0D01*
G01*
G37*
G36*
G01*
X195111380Y-42984880D02*
X194636380Y-42984880D01*
G75*
G02*
X194398880Y-42747380I0J237500D01*
G01*
X194398880Y-42247380D01*
G75*
G02*
X194636380Y-42009880I237500J0D01*
G01*
X195111380Y-42009880D01*
G75*
G02*
X195348880Y-42247380I0J-237500D01*
G01*
X195348880Y-42747380D01*
G75*
G02*
X195111380Y-42984880I-237500J0D01*
G01*
G37*
D34*
X238712880Y-64858880D03*
X237172880Y-64858880D03*
X235632880Y-64858880D03*
G36*
G01*
X231287880Y-66321380D02*
X231287880Y-66796380D01*
G75*
G02*
X231050380Y-67033880I-237500J0D01*
G01*
X230550380Y-67033880D01*
G75*
G02*
X230312880Y-66796380I0J237500D01*
G01*
X230312880Y-66321380D01*
G75*
G02*
X230550380Y-66083880I237500J0D01*
G01*
X231050380Y-66083880D01*
G75*
G02*
X231287880Y-66321380I0J-237500D01*
G01*
G37*
G36*
G01*
X233112880Y-66321380D02*
X233112880Y-66796380D01*
G75*
G02*
X232875380Y-67033880I-237500J0D01*
G01*
X232375380Y-67033880D01*
G75*
G02*
X232137880Y-66796380I0J237500D01*
G01*
X232137880Y-66321380D01*
G75*
G02*
X232375380Y-66083880I237500J0D01*
G01*
X232875380Y-66083880D01*
G75*
G02*
X233112880Y-66321380I0J-237500D01*
G01*
G37*
G36*
G01*
X227775380Y-70758880D02*
X228250380Y-70758880D01*
G75*
G02*
X228487880Y-70996380I0J-237500D01*
G01*
X228487880Y-71496380D01*
G75*
G02*
X228250380Y-71733880I-237500J0D01*
G01*
X227775380Y-71733880D01*
G75*
G02*
X227537880Y-71496380I0J237500D01*
G01*
X227537880Y-70996380D01*
G75*
G02*
X227775380Y-70758880I237500J0D01*
G01*
G37*
G36*
G01*
X227775380Y-72583880D02*
X228250380Y-72583880D01*
G75*
G02*
X228487880Y-72821380I0J-237500D01*
G01*
X228487880Y-73321380D01*
G75*
G02*
X228250380Y-73558880I-237500J0D01*
G01*
X227775380Y-73558880D01*
G75*
G02*
X227537880Y-73321380I0J237500D01*
G01*
X227537880Y-72821380D01*
G75*
G02*
X227775380Y-72583880I237500J0D01*
G01*
G37*
G36*
G01*
X238772880Y-75508880D02*
X238472880Y-75508880D01*
G75*
G02*
X238322880Y-75358880I0J150000D01*
G01*
X238322880Y-73708880D01*
G75*
G02*
X238472880Y-73558880I150000J0D01*
G01*
X238772880Y-73558880D01*
G75*
G02*
X238922880Y-73708880I0J-150000D01*
G01*
X238922880Y-75358880D01*
G75*
G02*
X238772880Y-75508880I-150000J0D01*
G01*
G37*
G36*
G01*
X237502880Y-75508880D02*
X237202880Y-75508880D01*
G75*
G02*
X237052880Y-75358880I0J150000D01*
G01*
X237052880Y-73708880D01*
G75*
G02*
X237202880Y-73558880I150000J0D01*
G01*
X237502880Y-73558880D01*
G75*
G02*
X237652880Y-73708880I0J-150000D01*
G01*
X237652880Y-75358880D01*
G75*
G02*
X237502880Y-75508880I-150000J0D01*
G01*
G37*
G36*
G01*
X236232880Y-75508880D02*
X235932880Y-75508880D01*
G75*
G02*
X235782880Y-75358880I0J150000D01*
G01*
X235782880Y-73708880D01*
G75*
G02*
X235932880Y-73558880I150000J0D01*
G01*
X236232880Y-73558880D01*
G75*
G02*
X236382880Y-73708880I0J-150000D01*
G01*
X236382880Y-75358880D01*
G75*
G02*
X236232880Y-75508880I-150000J0D01*
G01*
G37*
G36*
G01*
X234962880Y-75508880D02*
X234662880Y-75508880D01*
G75*
G02*
X234512880Y-75358880I0J150000D01*
G01*
X234512880Y-73708880D01*
G75*
G02*
X234662880Y-73558880I150000J0D01*
G01*
X234962880Y-73558880D01*
G75*
G02*
X235112880Y-73708880I0J-150000D01*
G01*
X235112880Y-75358880D01*
G75*
G02*
X234962880Y-75508880I-150000J0D01*
G01*
G37*
G36*
G01*
X233692880Y-75508880D02*
X233392880Y-75508880D01*
G75*
G02*
X233242880Y-75358880I0J150000D01*
G01*
X233242880Y-73708880D01*
G75*
G02*
X233392880Y-73558880I150000J0D01*
G01*
X233692880Y-73558880D01*
G75*
G02*
X233842880Y-73708880I0J-150000D01*
G01*
X233842880Y-75358880D01*
G75*
G02*
X233692880Y-75508880I-150000J0D01*
G01*
G37*
G36*
G01*
X232422880Y-75508880D02*
X232122880Y-75508880D01*
G75*
G02*
X231972880Y-75358880I0J150000D01*
G01*
X231972880Y-73708880D01*
G75*
G02*
X232122880Y-73558880I150000J0D01*
G01*
X232422880Y-73558880D01*
G75*
G02*
X232572880Y-73708880I0J-150000D01*
G01*
X232572880Y-75358880D01*
G75*
G02*
X232422880Y-75508880I-150000J0D01*
G01*
G37*
G36*
G01*
X231152880Y-75508880D02*
X230852880Y-75508880D01*
G75*
G02*
X230702880Y-75358880I0J150000D01*
G01*
X230702880Y-73708880D01*
G75*
G02*
X230852880Y-73558880I150000J0D01*
G01*
X231152880Y-73558880D01*
G75*
G02*
X231302880Y-73708880I0J-150000D01*
G01*
X231302880Y-75358880D01*
G75*
G02*
X231152880Y-75508880I-150000J0D01*
G01*
G37*
G36*
G01*
X231152880Y-70558880D02*
X230852880Y-70558880D01*
G75*
G02*
X230702880Y-70408880I0J150000D01*
G01*
X230702880Y-68758880D01*
G75*
G02*
X230852880Y-68608880I150000J0D01*
G01*
X231152880Y-68608880D01*
G75*
G02*
X231302880Y-68758880I0J-150000D01*
G01*
X231302880Y-70408880D01*
G75*
G02*
X231152880Y-70558880I-150000J0D01*
G01*
G37*
G36*
G01*
X232422880Y-70558880D02*
X232122880Y-70558880D01*
G75*
G02*
X231972880Y-70408880I0J150000D01*
G01*
X231972880Y-68758880D01*
G75*
G02*
X232122880Y-68608880I150000J0D01*
G01*
X232422880Y-68608880D01*
G75*
G02*
X232572880Y-68758880I0J-150000D01*
G01*
X232572880Y-70408880D01*
G75*
G02*
X232422880Y-70558880I-150000J0D01*
G01*
G37*
G36*
G01*
X233692880Y-70558880D02*
X233392880Y-70558880D01*
G75*
G02*
X233242880Y-70408880I0J150000D01*
G01*
X233242880Y-68758880D01*
G75*
G02*
X233392880Y-68608880I150000J0D01*
G01*
X233692880Y-68608880D01*
G75*
G02*
X233842880Y-68758880I0J-150000D01*
G01*
X233842880Y-70408880D01*
G75*
G02*
X233692880Y-70558880I-150000J0D01*
G01*
G37*
G36*
G01*
X234962880Y-70558880D02*
X234662880Y-70558880D01*
G75*
G02*
X234512880Y-70408880I0J150000D01*
G01*
X234512880Y-68758880D01*
G75*
G02*
X234662880Y-68608880I150000J0D01*
G01*
X234962880Y-68608880D01*
G75*
G02*
X235112880Y-68758880I0J-150000D01*
G01*
X235112880Y-70408880D01*
G75*
G02*
X234962880Y-70558880I-150000J0D01*
G01*
G37*
G36*
G01*
X236232880Y-70558880D02*
X235932880Y-70558880D01*
G75*
G02*
X235782880Y-70408880I0J150000D01*
G01*
X235782880Y-68758880D01*
G75*
G02*
X235932880Y-68608880I150000J0D01*
G01*
X236232880Y-68608880D01*
G75*
G02*
X236382880Y-68758880I0J-150000D01*
G01*
X236382880Y-70408880D01*
G75*
G02*
X236232880Y-70558880I-150000J0D01*
G01*
G37*
G36*
G01*
X237502880Y-70558880D02*
X237202880Y-70558880D01*
G75*
G02*
X237052880Y-70408880I0J150000D01*
G01*
X237052880Y-68758880D01*
G75*
G02*
X237202880Y-68608880I150000J0D01*
G01*
X237502880Y-68608880D01*
G75*
G02*
X237652880Y-68758880I0J-150000D01*
G01*
X237652880Y-70408880D01*
G75*
G02*
X237502880Y-70558880I-150000J0D01*
G01*
G37*
G36*
G01*
X238772880Y-70558880D02*
X238472880Y-70558880D01*
G75*
G02*
X238322880Y-70408880I0J150000D01*
G01*
X238322880Y-68758880D01*
G75*
G02*
X238472880Y-68608880I150000J0D01*
G01*
X238772880Y-68608880D01*
G75*
G02*
X238922880Y-68758880I0J-150000D01*
G01*
X238922880Y-70408880D01*
G75*
G02*
X238772880Y-70558880I-150000J0D01*
G01*
G37*
G36*
G01*
X240475380Y-69058880D02*
X240950380Y-69058880D01*
G75*
G02*
X241187880Y-69296380I0J-237500D01*
G01*
X241187880Y-69896380D01*
G75*
G02*
X240950380Y-70133880I-237500J0D01*
G01*
X240475380Y-70133880D01*
G75*
G02*
X240237880Y-69896380I0J237500D01*
G01*
X240237880Y-69296380D01*
G75*
G02*
X240475380Y-69058880I237500J0D01*
G01*
G37*
G36*
G01*
X240475380Y-70783880D02*
X240950380Y-70783880D01*
G75*
G02*
X241187880Y-71021380I0J-237500D01*
G01*
X241187880Y-71621380D01*
G75*
G02*
X240950380Y-71858880I-237500J0D01*
G01*
X240475380Y-71858880D01*
G75*
G02*
X240237880Y-71621380I0J237500D01*
G01*
X240237880Y-71021380D01*
G75*
G02*
X240475380Y-70783880I237500J0D01*
G01*
G37*
M02*
