G04 #@! TF.GenerationSoftware,KiCad,Pcbnew,(5.1.7)-1*
G04 #@! TF.CreationDate,2022-09-29T08:39:37-07:00*
G04 #@! TF.ProjectId,Peterson_SerialIO,50657465-7273-46f6-9e5f-53657269616c,rev?*
G04 #@! TF.SameCoordinates,Original*
G04 #@! TF.FileFunction,Legend,Top*
G04 #@! TF.FilePolarity,Positive*
%FSLAX46Y46*%
G04 Gerber Fmt 4.6, Leading zero omitted, Abs format (unit mm)*
G04 Created by KiCad (PCBNEW (5.1.7)-1) date 2022-09-29 08:39:37*
%MOMM*%
%LPD*%
G01*
G04 APERTURE LIST*
%ADD10C,0.300000*%
%ADD11C,0.100000*%
%ADD12C,0.127000*%
%ADD13C,0.066040*%
%ADD14C,0.120000*%
%ADD15C,0.150000*%
%ADD16C,0.101600*%
%ADD17R,1.700000X1.700000*%
%ADD18O,1.700000X1.700000*%
%ADD19C,3.263900*%
%ADD20O,2.540000X2.540000*%
%ADD21C,1.600000*%
%ADD22R,1.651000X1.651000*%
%ADD23C,1.651000*%
%ADD24C,1.676400*%
%ADD25C,3.302000*%
%ADD26C,1.700000*%
G04 APERTURE END LIST*
D10*
X170900008Y-62467751D02*
X171400008Y-63967751D01*
X171900008Y-62467751D01*
X173542865Y-63967751D02*
X173542865Y-62467751D01*
X173900008Y-62467751D01*
X174114294Y-62539180D01*
X174257151Y-62682037D01*
X174328580Y-62824894D01*
X174400008Y-63110608D01*
X174400008Y-63324894D01*
X174328580Y-63610608D01*
X174257151Y-63753465D01*
X174114294Y-63896322D01*
X173900008Y-63967751D01*
X173542865Y-63967751D01*
X175042865Y-63396322D02*
X176185722Y-63396322D01*
X176900008Y-63967751D02*
X176900008Y-62467751D01*
X177257151Y-62467751D01*
X177471437Y-62539180D01*
X177614294Y-62682037D01*
X177685722Y-62824894D01*
X177757151Y-63110608D01*
X177757151Y-63324894D01*
X177685722Y-63610608D01*
X177614294Y-63753465D01*
X177471437Y-63896322D01*
X177257151Y-63967751D01*
X176900008Y-63967751D01*
X178400008Y-63396322D02*
X179542865Y-63396322D01*
X178971437Y-63967751D02*
X178971437Y-62824894D01*
X203748594Y-63712451D02*
X204605737Y-63712451D01*
X204177165Y-65212451D02*
X204177165Y-63712451D01*
X205320022Y-65212451D02*
X205177165Y-65141022D01*
X205105737Y-65069594D01*
X205034308Y-64926737D01*
X205034308Y-64498165D01*
X205105737Y-64355308D01*
X205177165Y-64283880D01*
X205320022Y-64212451D01*
X205534308Y-64212451D01*
X205677165Y-64283880D01*
X205748594Y-64355308D01*
X205820022Y-64498165D01*
X205820022Y-64926737D01*
X205748594Y-65069594D01*
X205677165Y-65141022D01*
X205534308Y-65212451D01*
X205320022Y-65212451D01*
X206320022Y-64212451D02*
X206605737Y-65212451D01*
X206891451Y-64498165D01*
X207177165Y-65212451D01*
X207462880Y-64212451D01*
X208677165Y-65212451D02*
X208677165Y-64426737D01*
X208605737Y-64283880D01*
X208462880Y-64212451D01*
X208177165Y-64212451D01*
X208034308Y-64283880D01*
X208677165Y-65141022D02*
X208534308Y-65212451D01*
X208177165Y-65212451D01*
X208034308Y-65141022D01*
X207962880Y-64998165D01*
X207962880Y-64855308D01*
X208034308Y-64712451D01*
X208177165Y-64641022D01*
X208534308Y-64641022D01*
X208677165Y-64569594D01*
X209391451Y-65212451D02*
X209391451Y-64212451D01*
X209391451Y-64498165D02*
X209462880Y-64355308D01*
X209534308Y-64283880D01*
X209677165Y-64212451D01*
X209820022Y-64212451D01*
X210962880Y-65212451D02*
X210962880Y-63712451D01*
X210962880Y-65141022D02*
X210820022Y-65212451D01*
X210534308Y-65212451D01*
X210391451Y-65141022D01*
X210320022Y-65069594D01*
X210248594Y-64926737D01*
X210248594Y-64498165D01*
X210320022Y-64355308D01*
X210391451Y-64283880D01*
X210534308Y-64212451D01*
X210820022Y-64212451D01*
X210962880Y-64283880D01*
X204784308Y-67762451D02*
X204784308Y-66262451D01*
X205355737Y-66262451D01*
X205498594Y-66333880D01*
X205570022Y-66405308D01*
X205641451Y-66548165D01*
X205641451Y-66762451D01*
X205570022Y-66905308D01*
X205498594Y-66976737D01*
X205355737Y-67048165D01*
X204784308Y-67048165D01*
X207141451Y-67762451D02*
X206641451Y-67048165D01*
X206284308Y-67762451D02*
X206284308Y-66262451D01*
X206855737Y-66262451D01*
X206998594Y-66333880D01*
X207070022Y-66405308D01*
X207141451Y-66548165D01*
X207141451Y-66762451D01*
X207070022Y-66905308D01*
X206998594Y-66976737D01*
X206855737Y-67048165D01*
X206284308Y-67048165D01*
X208070022Y-66262451D02*
X208355737Y-66262451D01*
X208498594Y-66333880D01*
X208641451Y-66476737D01*
X208712880Y-66762451D01*
X208712880Y-67262451D01*
X208641451Y-67548165D01*
X208498594Y-67691022D01*
X208355737Y-67762451D01*
X208070022Y-67762451D01*
X207927165Y-67691022D01*
X207784308Y-67548165D01*
X207712880Y-67262451D01*
X207712880Y-66762451D01*
X207784308Y-66476737D01*
X207927165Y-66333880D01*
X208070022Y-66262451D01*
X210212880Y-67619594D02*
X210141451Y-67691022D01*
X209927165Y-67762451D01*
X209784308Y-67762451D01*
X209570022Y-67691022D01*
X209427165Y-67548165D01*
X209355737Y-67405308D01*
X209284308Y-67119594D01*
X209284308Y-66905308D01*
X209355737Y-66619594D01*
X209427165Y-66476737D01*
X209570022Y-66333880D01*
X209784308Y-66262451D01*
X209927165Y-66262451D01*
X210141451Y-66333880D01*
X210212880Y-66405308D01*
X187684308Y-64326737D02*
X187184308Y-64326737D01*
X187184308Y-65112451D02*
X187184308Y-63612451D01*
X187898594Y-63612451D01*
X188470022Y-65112451D02*
X188470022Y-64112451D01*
X188470022Y-64398165D02*
X188541451Y-64255308D01*
X188612880Y-64183880D01*
X188755737Y-64112451D01*
X188898594Y-64112451D01*
X189612880Y-65112451D02*
X189470022Y-65041022D01*
X189398594Y-64969594D01*
X189327165Y-64826737D01*
X189327165Y-64398165D01*
X189398594Y-64255308D01*
X189470022Y-64183880D01*
X189612880Y-64112451D01*
X189827165Y-64112451D01*
X189970022Y-64183880D01*
X190041451Y-64255308D01*
X190112880Y-64398165D01*
X190112880Y-64826737D01*
X190041451Y-64969594D01*
X189970022Y-65041022D01*
X189827165Y-65112451D01*
X189612880Y-65112451D01*
X190755737Y-65112451D02*
X190755737Y-64112451D01*
X190755737Y-64255308D02*
X190827165Y-64183880D01*
X190970022Y-64112451D01*
X191184308Y-64112451D01*
X191327165Y-64183880D01*
X191398594Y-64326737D01*
X191398594Y-65112451D01*
X191398594Y-64326737D02*
X191470022Y-64183880D01*
X191612880Y-64112451D01*
X191827165Y-64112451D01*
X191970022Y-64183880D01*
X192041451Y-64326737D01*
X192041451Y-65112451D01*
X184220022Y-66162451D02*
X184220022Y-67376737D01*
X184291451Y-67519594D01*
X184362880Y-67591022D01*
X184505737Y-67662451D01*
X184791451Y-67662451D01*
X184934308Y-67591022D01*
X185005737Y-67519594D01*
X185077165Y-67376737D01*
X185077165Y-66162451D01*
X185791451Y-67662451D02*
X185791451Y-66162451D01*
X186362880Y-66162451D01*
X186505737Y-66233880D01*
X186577165Y-66305308D01*
X186648594Y-66448165D01*
X186648594Y-66662451D01*
X186577165Y-66805308D01*
X186505737Y-66876737D01*
X186362880Y-66948165D01*
X185791451Y-66948165D01*
X187220022Y-67591022D02*
X187434308Y-67662451D01*
X187791451Y-67662451D01*
X187934308Y-67591022D01*
X188005737Y-67519594D01*
X188077165Y-67376737D01*
X188077165Y-67233880D01*
X188005737Y-67091022D01*
X187934308Y-67019594D01*
X187791451Y-66948165D01*
X187505737Y-66876737D01*
X187362880Y-66805308D01*
X187291451Y-66733880D01*
X187220022Y-66591022D01*
X187220022Y-66448165D01*
X187291451Y-66305308D01*
X187362880Y-66233880D01*
X187505737Y-66162451D01*
X187862880Y-66162451D01*
X188077165Y-66233880D01*
X188505737Y-66162451D02*
X189362880Y-66162451D01*
X188934308Y-67662451D02*
X188934308Y-66162451D01*
X190720022Y-67662451D02*
X190220022Y-66948165D01*
X189862880Y-67662451D02*
X189862880Y-66162451D01*
X190434308Y-66162451D01*
X190577165Y-66233880D01*
X190648594Y-66305308D01*
X190720022Y-66448165D01*
X190720022Y-66662451D01*
X190648594Y-66805308D01*
X190577165Y-66876737D01*
X190434308Y-66948165D01*
X189862880Y-66948165D01*
X191362880Y-66876737D02*
X191862880Y-66876737D01*
X192077165Y-67662451D02*
X191362880Y-67662451D01*
X191362880Y-66162451D01*
X192077165Y-66162451D01*
X192648594Y-67233880D02*
X193362880Y-67233880D01*
X192505737Y-67662451D02*
X193005737Y-66162451D01*
X193505737Y-67662451D01*
X194005737Y-67662451D02*
X194005737Y-66162451D01*
X194505737Y-67233880D01*
X195005737Y-66162451D01*
X195005737Y-67662451D01*
D11*
X178744880Y-62222380D02*
X171124880Y-62222380D01*
X178744880Y-59682380D02*
X178744880Y-62222380D01*
X171124880Y-59682380D02*
X178744880Y-59682380D01*
X171124880Y-62222380D02*
X171124880Y-59682380D01*
D12*
X178744880Y-62222380D02*
X171124880Y-62222380D01*
X178744880Y-59682380D02*
X178744880Y-62222380D01*
X171124880Y-59682380D02*
X178744880Y-59682380D01*
X171124880Y-62222380D02*
X171124880Y-59682380D01*
D13*
X178744880Y-62222380D02*
X171124880Y-62222380D01*
X171124880Y-62222380D02*
X171124880Y-59682380D01*
X178744880Y-59682380D02*
X171124880Y-59682380D01*
X178744880Y-62222380D02*
X178744880Y-59682380D01*
D14*
X263740360Y-30237213D02*
X263740360Y-30529747D01*
X262720360Y-30237213D02*
X262720360Y-30529747D01*
X260363240Y-30013693D02*
X260363240Y-30306227D01*
X261383240Y-30013693D02*
X261383240Y-30306227D01*
X257562133Y-28735560D02*
X257854667Y-28735560D01*
X257562133Y-29755560D02*
X257854667Y-29755560D01*
X253442253Y-28735560D02*
X253734787Y-28735560D01*
X253442253Y-29755560D02*
X253734787Y-29755560D01*
X249183107Y-28857480D02*
X248890573Y-28857480D01*
X249183107Y-29877480D02*
X248890573Y-29877480D01*
X152271000Y-65035213D02*
X152271000Y-65327747D01*
X153291000Y-65035213D02*
X153291000Y-65327747D01*
X151040560Y-65177453D02*
X151040560Y-65469987D01*
X150020560Y-65177453D02*
X150020560Y-65469987D01*
X148525960Y-65141893D02*
X148525960Y-65434427D01*
X147505960Y-65141893D02*
X147505960Y-65434427D01*
X143828040Y-65309533D02*
X143828040Y-65602067D01*
X144848040Y-65309533D02*
X144848040Y-65602067D01*
D15*
X174378356Y-32111260D02*
X174378356Y-31111260D01*
X174711689Y-31825546D01*
X175045022Y-31111260D01*
X175045022Y-32111260D01*
X175949784Y-31444594D02*
X175949784Y-32111260D01*
X175711689Y-31063641D02*
X175473594Y-31777927D01*
X176092641Y-31777927D01*
X198478356Y-65236260D02*
X198478356Y-64236260D01*
X198811689Y-64950546D01*
X199145022Y-64236260D01*
X199145022Y-65236260D01*
X200145022Y-65236260D02*
X199573594Y-65236260D01*
X199859308Y-65236260D02*
X199859308Y-64236260D01*
X199764070Y-64379118D01*
X199668832Y-64474356D01*
X199573594Y-64521975D01*
X129003356Y-73111260D02*
X129003356Y-72111260D01*
X129336689Y-72825546D01*
X129670022Y-72111260D01*
X129670022Y-73111260D01*
X130622403Y-72111260D02*
X130146213Y-72111260D01*
X130098594Y-72587451D01*
X130146213Y-72539832D01*
X130241451Y-72492213D01*
X130479546Y-72492213D01*
X130574784Y-72539832D01*
X130622403Y-72587451D01*
X130670022Y-72682689D01*
X130670022Y-72920784D01*
X130622403Y-73016022D01*
X130574784Y-73063641D01*
X130479546Y-73111260D01*
X130241451Y-73111260D01*
X130146213Y-73063641D01*
X130098594Y-73016022D01*
X229578356Y-32361260D02*
X229578356Y-31361260D01*
X229911689Y-32075546D01*
X230245022Y-31361260D01*
X230245022Y-32361260D01*
X231149784Y-31361260D02*
X230959308Y-31361260D01*
X230864070Y-31408880D01*
X230816451Y-31456499D01*
X230721213Y-31599356D01*
X230673594Y-31789832D01*
X230673594Y-32170784D01*
X230721213Y-32266022D01*
X230768832Y-32313641D01*
X230864070Y-32361260D01*
X231054546Y-32361260D01*
X231149784Y-32313641D01*
X231197403Y-32266022D01*
X231245022Y-32170784D01*
X231245022Y-31932689D01*
X231197403Y-31837451D01*
X231149784Y-31789832D01*
X231054546Y-31742213D01*
X230864070Y-31742213D01*
X230768832Y-31789832D01*
X230721213Y-31837451D01*
X230673594Y-31932689D01*
X148291451Y-53881737D02*
X148291451Y-54738880D01*
X148234308Y-54910308D01*
X148120022Y-55024594D01*
X147948594Y-55081737D01*
X147834308Y-55081737D01*
X149491451Y-55081737D02*
X148805737Y-55081737D01*
X149148594Y-55081737D02*
X149148594Y-53881737D01*
X149034308Y-54053165D01*
X148920022Y-54167451D01*
X148805737Y-54224594D01*
X150520022Y-54281737D02*
X150520022Y-55081737D01*
X150234308Y-53824594D02*
X149948594Y-54681737D01*
X150691451Y-54681737D01*
X198791451Y-47631737D02*
X198791451Y-48488880D01*
X198734308Y-48660308D01*
X198620022Y-48774594D01*
X198448594Y-48831737D01*
X198334308Y-48831737D01*
X199991451Y-48831737D02*
X199305737Y-48831737D01*
X199648594Y-48831737D02*
X199648594Y-47631737D01*
X199534308Y-47803165D01*
X199420022Y-47917451D01*
X199305737Y-47974594D01*
X200391451Y-47631737D02*
X201191451Y-47631737D01*
X200677165Y-48831737D01*
D16*
X179612713Y-61583146D02*
X179612713Y-62218146D01*
X179570380Y-62345146D01*
X179485713Y-62429813D01*
X179358713Y-62472146D01*
X179274046Y-62472146D01*
X179993713Y-61667813D02*
X180036046Y-61625480D01*
X180120713Y-61583146D01*
X180332380Y-61583146D01*
X180417046Y-61625480D01*
X180459380Y-61667813D01*
X180501713Y-61752480D01*
X180501713Y-61837146D01*
X180459380Y-61964146D01*
X179951380Y-62472146D01*
X180501713Y-62472146D01*
X181052046Y-61583146D02*
X181136713Y-61583146D01*
X181221380Y-61625480D01*
X181263713Y-61667813D01*
X181306046Y-61752480D01*
X181348380Y-61921813D01*
X181348380Y-62133480D01*
X181306046Y-62302813D01*
X181263713Y-62387480D01*
X181221380Y-62429813D01*
X181136713Y-62472146D01*
X181052046Y-62472146D01*
X180967380Y-62429813D01*
X180925046Y-62387480D01*
X180882713Y-62302813D01*
X180840380Y-62133480D01*
X180840380Y-61921813D01*
X180882713Y-61752480D01*
X180925046Y-61667813D01*
X180967380Y-61625480D01*
X181052046Y-61583146D01*
D15*
X275022716Y-75185380D02*
X275022716Y-74185380D01*
X275356049Y-74899666D01*
X275689382Y-74185380D01*
X275689382Y-75185380D01*
X276117954Y-74280619D02*
X276165573Y-74233000D01*
X276260811Y-74185380D01*
X276498906Y-74185380D01*
X276594144Y-74233000D01*
X276641763Y-74280619D01*
X276689382Y-74375857D01*
X276689382Y-74471095D01*
X276641763Y-74613952D01*
X276070335Y-75185380D01*
X276689382Y-75185380D01*
X129253356Y-32111260D02*
X129253356Y-31111260D01*
X129586689Y-31825546D01*
X129920022Y-31111260D01*
X129920022Y-32111260D01*
X130300975Y-31111260D02*
X130967641Y-31111260D01*
X130539070Y-32111260D01*
X275578356Y-30961260D02*
X275578356Y-29961260D01*
X275911689Y-30675546D01*
X276245022Y-29961260D01*
X276245022Y-30961260D01*
X276864070Y-30389832D02*
X276768832Y-30342213D01*
X276721213Y-30294594D01*
X276673594Y-30199356D01*
X276673594Y-30151737D01*
X276721213Y-30056499D01*
X276768832Y-30008880D01*
X276864070Y-29961260D01*
X277054546Y-29961260D01*
X277149784Y-30008880D01*
X277197403Y-30056499D01*
X277245022Y-30151737D01*
X277245022Y-30199356D01*
X277197403Y-30294594D01*
X277149784Y-30342213D01*
X277054546Y-30389832D01*
X276864070Y-30389832D01*
X276768832Y-30437451D01*
X276721213Y-30485070D01*
X276673594Y-30580308D01*
X276673594Y-30770784D01*
X276721213Y-30866022D01*
X276768832Y-30913641D01*
X276864070Y-30961260D01*
X277054546Y-30961260D01*
X277149784Y-30913641D01*
X277197403Y-30866022D01*
X277245022Y-30770784D01*
X277245022Y-30580308D01*
X277197403Y-30485070D01*
X277149784Y-30437451D01*
X277054546Y-30389832D01*
X263150053Y-28551142D02*
X263102434Y-28598761D01*
X262959577Y-28646380D01*
X262864339Y-28646380D01*
X262721481Y-28598761D01*
X262626243Y-28503523D01*
X262578624Y-28408285D01*
X262531005Y-28217809D01*
X262531005Y-28074952D01*
X262578624Y-27884476D01*
X262626243Y-27789238D01*
X262721481Y-27694000D01*
X262864339Y-27646380D01*
X262959577Y-27646380D01*
X263102434Y-27694000D01*
X263150053Y-27741619D01*
X263626243Y-28646380D02*
X263816720Y-28646380D01*
X263911958Y-28598761D01*
X263959577Y-28551142D01*
X264054815Y-28408285D01*
X264102434Y-28217809D01*
X264102434Y-27836857D01*
X264054815Y-27741619D01*
X264007196Y-27694000D01*
X263911958Y-27646380D01*
X263721481Y-27646380D01*
X263626243Y-27694000D01*
X263578624Y-27741619D01*
X263531005Y-27836857D01*
X263531005Y-28074952D01*
X263578624Y-28170190D01*
X263626243Y-28217809D01*
X263721481Y-28265428D01*
X263911958Y-28265428D01*
X264007196Y-28217809D01*
X264054815Y-28170190D01*
X264102434Y-28074952D01*
X260098302Y-28480022D02*
X260050683Y-28527641D01*
X259907826Y-28575260D01*
X259812588Y-28575260D01*
X259669731Y-28527641D01*
X259574493Y-28432403D01*
X259526874Y-28337165D01*
X259479255Y-28146689D01*
X259479255Y-28003832D01*
X259526874Y-27813356D01*
X259574493Y-27718118D01*
X259669731Y-27622880D01*
X259812588Y-27575260D01*
X259907826Y-27575260D01*
X260050683Y-27622880D01*
X260098302Y-27670499D01*
X261050683Y-28575260D02*
X260479255Y-28575260D01*
X260764969Y-28575260D02*
X260764969Y-27575260D01*
X260669731Y-27718118D01*
X260574493Y-27813356D01*
X260479255Y-27860975D01*
X261669731Y-27575260D02*
X261764969Y-27575260D01*
X261860207Y-27622880D01*
X261907826Y-27670499D01*
X261955445Y-27765737D01*
X262003064Y-27956213D01*
X262003064Y-28194308D01*
X261955445Y-28384784D01*
X261907826Y-28480022D01*
X261860207Y-28527641D01*
X261764969Y-28575260D01*
X261669731Y-28575260D01*
X261574493Y-28527641D01*
X261526874Y-28480022D01*
X261479255Y-28384784D01*
X261431636Y-28194308D01*
X261431636Y-27956213D01*
X261479255Y-27765737D01*
X261526874Y-27670499D01*
X261574493Y-27622880D01*
X261669731Y-27575260D01*
X256984262Y-28302222D02*
X256936643Y-28349841D01*
X256793786Y-28397460D01*
X256698548Y-28397460D01*
X256555691Y-28349841D01*
X256460453Y-28254603D01*
X256412834Y-28159365D01*
X256365215Y-27968889D01*
X256365215Y-27826032D01*
X256412834Y-27635556D01*
X256460453Y-27540318D01*
X256555691Y-27445080D01*
X256698548Y-27397460D01*
X256793786Y-27397460D01*
X256936643Y-27445080D01*
X256984262Y-27492699D01*
X257936643Y-28397460D02*
X257365215Y-28397460D01*
X257650929Y-28397460D02*
X257650929Y-27397460D01*
X257555691Y-27540318D01*
X257460453Y-27635556D01*
X257365215Y-27683175D01*
X258317596Y-27492699D02*
X258365215Y-27445080D01*
X258460453Y-27397460D01*
X258698548Y-27397460D01*
X258793786Y-27445080D01*
X258841405Y-27492699D01*
X258889024Y-27587937D01*
X258889024Y-27683175D01*
X258841405Y-27826032D01*
X258269977Y-28397460D01*
X258889024Y-28397460D01*
X252905022Y-28266662D02*
X252857403Y-28314281D01*
X252714546Y-28361900D01*
X252619308Y-28361900D01*
X252476451Y-28314281D01*
X252381213Y-28219043D01*
X252333594Y-28123805D01*
X252285975Y-27933329D01*
X252285975Y-27790472D01*
X252333594Y-27599996D01*
X252381213Y-27504758D01*
X252476451Y-27409520D01*
X252619308Y-27361900D01*
X252714546Y-27361900D01*
X252857403Y-27409520D01*
X252905022Y-27457139D01*
X253285975Y-27457139D02*
X253333594Y-27409520D01*
X253428832Y-27361900D01*
X253666927Y-27361900D01*
X253762165Y-27409520D01*
X253809784Y-27457139D01*
X253857403Y-27552377D01*
X253857403Y-27647615D01*
X253809784Y-27790472D01*
X253238356Y-28361900D01*
X253857403Y-28361900D01*
X254809784Y-28361900D02*
X254238356Y-28361900D01*
X254524070Y-28361900D02*
X254524070Y-27361900D01*
X254428832Y-27504758D01*
X254333594Y-27599996D01*
X254238356Y-27647615D01*
X248393982Y-28480022D02*
X248346363Y-28527641D01*
X248203506Y-28575260D01*
X248108268Y-28575260D01*
X247965411Y-28527641D01*
X247870173Y-28432403D01*
X247822554Y-28337165D01*
X247774935Y-28146689D01*
X247774935Y-28003832D01*
X247822554Y-27813356D01*
X247870173Y-27718118D01*
X247965411Y-27622880D01*
X248108268Y-27575260D01*
X248203506Y-27575260D01*
X248346363Y-27622880D01*
X248393982Y-27670499D01*
X248774935Y-27670499D02*
X248822554Y-27622880D01*
X248917792Y-27575260D01*
X249155887Y-27575260D01*
X249251125Y-27622880D01*
X249298744Y-27670499D01*
X249346363Y-27765737D01*
X249346363Y-27860975D01*
X249298744Y-28003832D01*
X248727316Y-28575260D01*
X249346363Y-28575260D01*
X249679697Y-27575260D02*
X250298744Y-27575260D01*
X249965411Y-27956213D01*
X250108268Y-27956213D01*
X250203506Y-28003832D01*
X250251125Y-28051451D01*
X250298744Y-28146689D01*
X250298744Y-28384784D01*
X250251125Y-28480022D01*
X250203506Y-28527641D01*
X250108268Y-28575260D01*
X249822554Y-28575260D01*
X249727316Y-28527641D01*
X249679697Y-28480022D01*
X153244822Y-62674737D02*
X153292441Y-62722356D01*
X153340060Y-62865213D01*
X153340060Y-62960451D01*
X153292441Y-63103308D01*
X153197203Y-63198546D01*
X153101965Y-63246165D01*
X152911489Y-63293784D01*
X152768632Y-63293784D01*
X152578156Y-63246165D01*
X152482918Y-63198546D01*
X152387680Y-63103308D01*
X152340060Y-62960451D01*
X152340060Y-62865213D01*
X152387680Y-62722356D01*
X152435299Y-62674737D01*
X152435299Y-62293784D02*
X152387680Y-62246165D01*
X152340060Y-62150927D01*
X152340060Y-61912832D01*
X152387680Y-61817594D01*
X152435299Y-61769975D01*
X152530537Y-61722356D01*
X152625775Y-61722356D01*
X152768632Y-61769975D01*
X153340060Y-62341403D01*
X153340060Y-61722356D01*
X152768632Y-61150927D02*
X152721013Y-61246165D01*
X152673394Y-61293784D01*
X152578156Y-61341403D01*
X152530537Y-61341403D01*
X152435299Y-61293784D01*
X152387680Y-61246165D01*
X152340060Y-61150927D01*
X152340060Y-60960451D01*
X152387680Y-60865213D01*
X152435299Y-60817594D01*
X152530537Y-60769975D01*
X152578156Y-60769975D01*
X152673394Y-60817594D01*
X152721013Y-60865213D01*
X152768632Y-60960451D01*
X152768632Y-61150927D01*
X152816251Y-61246165D01*
X152863870Y-61293784D01*
X152959108Y-61341403D01*
X153149584Y-61341403D01*
X153244822Y-61293784D01*
X153292441Y-61246165D01*
X153340060Y-61150927D01*
X153340060Y-60960451D01*
X153292441Y-60865213D01*
X153244822Y-60817594D01*
X153149584Y-60769975D01*
X152959108Y-60769975D01*
X152863870Y-60817594D01*
X152816251Y-60865213D01*
X152768632Y-60960451D01*
X150852142Y-62928737D02*
X150899761Y-62976356D01*
X150947380Y-63119213D01*
X150947380Y-63214451D01*
X150899761Y-63357308D01*
X150804523Y-63452546D01*
X150709285Y-63500165D01*
X150518809Y-63547784D01*
X150375952Y-63547784D01*
X150185476Y-63500165D01*
X150090238Y-63452546D01*
X149995000Y-63357308D01*
X149947380Y-63214451D01*
X149947380Y-63119213D01*
X149995000Y-62976356D01*
X150042619Y-62928737D01*
X150042619Y-62547784D02*
X149995000Y-62500165D01*
X149947380Y-62404927D01*
X149947380Y-62166832D01*
X149995000Y-62071594D01*
X150042619Y-62023975D01*
X150137857Y-61976356D01*
X150233095Y-61976356D01*
X150375952Y-62023975D01*
X150947380Y-62595403D01*
X150947380Y-61976356D01*
X150947380Y-61500165D02*
X150947380Y-61309689D01*
X150899761Y-61214451D01*
X150852142Y-61166832D01*
X150709285Y-61071594D01*
X150518809Y-61023975D01*
X150137857Y-61023975D01*
X150042619Y-61071594D01*
X149995000Y-61119213D01*
X149947380Y-61214451D01*
X149947380Y-61404927D01*
X149995000Y-61500165D01*
X150042619Y-61547784D01*
X150137857Y-61595403D01*
X150375952Y-61595403D01*
X150471190Y-61547784D01*
X150518809Y-61500165D01*
X150566428Y-61404927D01*
X150566428Y-61214451D01*
X150518809Y-61119213D01*
X150471190Y-61071594D01*
X150375952Y-61023975D01*
X148159742Y-62623937D02*
X148207361Y-62671556D01*
X148254980Y-62814413D01*
X148254980Y-62909651D01*
X148207361Y-63052508D01*
X148112123Y-63147746D01*
X148016885Y-63195365D01*
X147826409Y-63242984D01*
X147683552Y-63242984D01*
X147493076Y-63195365D01*
X147397838Y-63147746D01*
X147302600Y-63052508D01*
X147254980Y-62909651D01*
X147254980Y-62814413D01*
X147302600Y-62671556D01*
X147350219Y-62623937D01*
X147254980Y-62290603D02*
X147254980Y-61671556D01*
X147635933Y-62004889D01*
X147635933Y-61862032D01*
X147683552Y-61766794D01*
X147731171Y-61719175D01*
X147826409Y-61671556D01*
X148064504Y-61671556D01*
X148159742Y-61719175D01*
X148207361Y-61766794D01*
X148254980Y-61862032D01*
X148254980Y-62147746D01*
X148207361Y-62242984D01*
X148159742Y-62290603D01*
X147254980Y-61052508D02*
X147254980Y-60957270D01*
X147302600Y-60862032D01*
X147350219Y-60814413D01*
X147445457Y-60766794D01*
X147635933Y-60719175D01*
X147874028Y-60719175D01*
X148064504Y-60766794D01*
X148159742Y-60814413D01*
X148207361Y-60862032D01*
X148254980Y-60957270D01*
X148254980Y-61052508D01*
X148207361Y-61147746D01*
X148159742Y-61195365D01*
X148064504Y-61242984D01*
X147874028Y-61290603D01*
X147635933Y-61290603D01*
X147445457Y-61242984D01*
X147350219Y-61195365D01*
X147302600Y-61147746D01*
X147254980Y-61052508D01*
X144674862Y-62801737D02*
X144722481Y-62849356D01*
X144770100Y-62992213D01*
X144770100Y-63087451D01*
X144722481Y-63230308D01*
X144627243Y-63325546D01*
X144532005Y-63373165D01*
X144341529Y-63420784D01*
X144198672Y-63420784D01*
X144008196Y-63373165D01*
X143912958Y-63325546D01*
X143817720Y-63230308D01*
X143770100Y-63087451D01*
X143770100Y-62992213D01*
X143817720Y-62849356D01*
X143865339Y-62801737D01*
X143770100Y-62468403D02*
X143770100Y-61849356D01*
X144151053Y-62182689D01*
X144151053Y-62039832D01*
X144198672Y-61944594D01*
X144246291Y-61896975D01*
X144341529Y-61849356D01*
X144579624Y-61849356D01*
X144674862Y-61896975D01*
X144722481Y-61944594D01*
X144770100Y-62039832D01*
X144770100Y-62325546D01*
X144722481Y-62420784D01*
X144674862Y-62468403D01*
X144770100Y-60896975D02*
X144770100Y-61468403D01*
X144770100Y-61182689D02*
X143770100Y-61182689D01*
X143912958Y-61277927D01*
X144008196Y-61373165D01*
X144055815Y-61468403D01*
%LPC*%
D17*
X244795040Y-46172120D03*
D18*
X247335040Y-46172120D03*
X249875040Y-46172120D03*
X252415040Y-46172120D03*
X254955040Y-46172120D03*
X257495040Y-46172120D03*
X260035040Y-46172120D03*
X262575040Y-46172120D03*
X265115040Y-46172120D03*
X267655040Y-46172120D03*
X270195040Y-46172120D03*
X272735040Y-46172120D03*
X275275040Y-46172120D03*
X277815040Y-46172120D03*
D19*
X175087880Y-30458880D03*
D20*
X156093280Y-72608880D03*
X152133280Y-72608880D03*
X148173280Y-72608880D03*
X144213280Y-72608880D03*
D21*
X278099520Y-59783980D03*
X278099520Y-62323980D03*
X278099520Y-64863980D03*
X278099520Y-67403980D03*
X278099520Y-57243980D03*
X278099520Y-54703980D03*
X278099520Y-52163980D03*
X275559520Y-67403980D03*
X273019520Y-67403980D03*
X270479520Y-67403980D03*
X267939520Y-67403980D03*
X265399520Y-67403980D03*
X262859520Y-67403980D03*
X260319520Y-67403980D03*
X257779520Y-67403980D03*
X255239520Y-67403980D03*
X252699520Y-67403980D03*
X250159520Y-67403980D03*
X247619520Y-67403980D03*
X245079520Y-67403980D03*
X247619520Y-64863980D03*
X252699520Y-64863980D03*
X255239520Y-64863980D03*
X257779520Y-64863980D03*
X275559520Y-52163980D03*
X273019520Y-52163980D03*
X270479520Y-52163980D03*
X267939520Y-52163980D03*
X265399520Y-52163980D03*
X262859520Y-52163980D03*
X260319520Y-52163980D03*
X257779520Y-52163980D03*
X255239520Y-52163980D03*
X252699520Y-52163980D03*
X250159520Y-52163980D03*
X247619520Y-52163980D03*
X245079520Y-52163980D03*
D20*
X277780000Y-37800000D03*
X273820000Y-37800000D03*
X269860000Y-37800000D03*
X265900000Y-37800000D03*
X261940000Y-37800000D03*
X257980000Y-37800000D03*
X254020000Y-37800000D03*
X250060000Y-37800000D03*
X246100000Y-37800000D03*
X242140000Y-37800000D03*
X238180000Y-37800000D03*
X234220000Y-37800000D03*
X182740000Y-37800000D03*
X186700000Y-37800000D03*
X190660000Y-37800000D03*
X194620000Y-37800000D03*
X198580000Y-37800000D03*
X202540000Y-37800000D03*
X206500000Y-37800000D03*
X210460000Y-37800000D03*
X214420000Y-37800000D03*
X218380000Y-37800000D03*
X222340000Y-37800000D03*
X226300000Y-37800000D03*
D19*
X199187880Y-63583880D03*
D20*
X174820000Y-37800000D03*
X170860000Y-37800000D03*
X166900000Y-37800000D03*
X162940000Y-37800000D03*
X158980000Y-37800000D03*
X155020000Y-37800000D03*
X151060000Y-37800000D03*
X147100000Y-37800000D03*
X143140000Y-37800000D03*
X139180000Y-37800000D03*
X135220000Y-37800000D03*
X131260000Y-37800000D03*
D19*
X129912880Y-73858880D03*
X230287880Y-30708880D03*
D22*
X217700000Y-60460000D03*
D23*
X217700000Y-63000000D03*
X217700000Y-65540000D03*
D20*
X149262880Y-57508880D03*
X199762880Y-51258880D03*
D22*
X172394880Y-60952380D03*
D23*
X174934880Y-60952380D03*
X177474880Y-60952380D03*
D24*
X174660560Y-67365880D03*
X174660560Y-65384680D03*
X172161200Y-67365880D03*
D25*
X167391080Y-70083680D03*
X179430680Y-70083680D03*
D24*
X172161200Y-65384680D03*
D26*
X245237880Y-32260000D03*
X247777880Y-32260000D03*
X250317880Y-32260000D03*
X252857880Y-32260000D03*
X255397880Y-32260000D03*
X257937880Y-32260000D03*
X245237880Y-34800000D03*
X247777880Y-34800000D03*
X250317880Y-34800000D03*
X252857880Y-34800000D03*
X255397880Y-34800000D03*
D17*
X257937880Y-34800000D03*
X213937880Y-34800000D03*
D26*
X211397880Y-34800000D03*
X208857880Y-34800000D03*
X206317880Y-34800000D03*
X203777880Y-34800000D03*
X201237880Y-34800000D03*
X213937880Y-32260000D03*
X211397880Y-32260000D03*
X208857880Y-32260000D03*
X206317880Y-32260000D03*
X203777880Y-32260000D03*
X201237880Y-32260000D03*
X149912880Y-32260000D03*
X152452880Y-32260000D03*
X154992880Y-32260000D03*
X157532880Y-32260000D03*
X160072880Y-32260000D03*
X162612880Y-32260000D03*
X149912880Y-34800000D03*
X152452880Y-34800000D03*
X154992880Y-34800000D03*
X157532880Y-34800000D03*
X160072880Y-34800000D03*
D17*
X162612880Y-34800000D03*
D26*
X204192880Y-71718880D03*
X206732880Y-71718880D03*
X209272880Y-71718880D03*
X211812880Y-71718880D03*
X204192880Y-74258880D03*
X206732880Y-74258880D03*
X209272880Y-74258880D03*
D17*
X211812880Y-74258880D03*
D26*
X186332880Y-71768880D03*
X188872880Y-71768880D03*
X191412880Y-71768880D03*
X193952880Y-71768880D03*
X186332880Y-74308880D03*
X188872880Y-74308880D03*
X191412880Y-74308880D03*
D17*
X193952880Y-74308880D03*
D19*
X275732240Y-73533000D03*
X129962880Y-30458880D03*
X276462880Y-30358880D03*
D20*
X253322320Y-73477120D03*
X257282320Y-73477120D03*
X261242320Y-73477120D03*
X265202320Y-73477120D03*
X269162320Y-73477120D03*
X236123480Y-59791600D03*
G36*
G01*
X262992860Y-30708480D02*
X263467860Y-30708480D01*
G75*
G02*
X263705360Y-30945980I0J-237500D01*
G01*
X263705360Y-31545980D01*
G75*
G02*
X263467860Y-31783480I-237500J0D01*
G01*
X262992860Y-31783480D01*
G75*
G02*
X262755360Y-31545980I0J237500D01*
G01*
X262755360Y-30945980D01*
G75*
G02*
X262992860Y-30708480I237500J0D01*
G01*
G37*
G36*
G01*
X262992860Y-28983480D02*
X263467860Y-28983480D01*
G75*
G02*
X263705360Y-29220980I0J-237500D01*
G01*
X263705360Y-29820980D01*
G75*
G02*
X263467860Y-30058480I-237500J0D01*
G01*
X262992860Y-30058480D01*
G75*
G02*
X262755360Y-29820980I0J237500D01*
G01*
X262755360Y-29220980D01*
G75*
G02*
X262992860Y-28983480I237500J0D01*
G01*
G37*
G36*
G01*
X260635740Y-28759960D02*
X261110740Y-28759960D01*
G75*
G02*
X261348240Y-28997460I0J-237500D01*
G01*
X261348240Y-29597460D01*
G75*
G02*
X261110740Y-29834960I-237500J0D01*
G01*
X260635740Y-29834960D01*
G75*
G02*
X260398240Y-29597460I0J237500D01*
G01*
X260398240Y-28997460D01*
G75*
G02*
X260635740Y-28759960I237500J0D01*
G01*
G37*
G36*
G01*
X260635740Y-30484960D02*
X261110740Y-30484960D01*
G75*
G02*
X261348240Y-30722460I0J-237500D01*
G01*
X261348240Y-31322460D01*
G75*
G02*
X261110740Y-31559960I-237500J0D01*
G01*
X260635740Y-31559960D01*
G75*
G02*
X260398240Y-31322460I0J237500D01*
G01*
X260398240Y-30722460D01*
G75*
G02*
X260635740Y-30484960I237500J0D01*
G01*
G37*
G36*
G01*
X258033400Y-29483060D02*
X258033400Y-29008060D01*
G75*
G02*
X258270900Y-28770560I237500J0D01*
G01*
X258870900Y-28770560D01*
G75*
G02*
X259108400Y-29008060I0J-237500D01*
G01*
X259108400Y-29483060D01*
G75*
G02*
X258870900Y-29720560I-237500J0D01*
G01*
X258270900Y-29720560D01*
G75*
G02*
X258033400Y-29483060I0J237500D01*
G01*
G37*
G36*
G01*
X256308400Y-29483060D02*
X256308400Y-29008060D01*
G75*
G02*
X256545900Y-28770560I237500J0D01*
G01*
X257145900Y-28770560D01*
G75*
G02*
X257383400Y-29008060I0J-237500D01*
G01*
X257383400Y-29483060D01*
G75*
G02*
X257145900Y-29720560I-237500J0D01*
G01*
X256545900Y-29720560D01*
G75*
G02*
X256308400Y-29483060I0J237500D01*
G01*
G37*
G36*
G01*
X253913520Y-29483060D02*
X253913520Y-29008060D01*
G75*
G02*
X254151020Y-28770560I237500J0D01*
G01*
X254751020Y-28770560D01*
G75*
G02*
X254988520Y-29008060I0J-237500D01*
G01*
X254988520Y-29483060D01*
G75*
G02*
X254751020Y-29720560I-237500J0D01*
G01*
X254151020Y-29720560D01*
G75*
G02*
X253913520Y-29483060I0J237500D01*
G01*
G37*
G36*
G01*
X252188520Y-29483060D02*
X252188520Y-29008060D01*
G75*
G02*
X252426020Y-28770560I237500J0D01*
G01*
X253026020Y-28770560D01*
G75*
G02*
X253263520Y-29008060I0J-237500D01*
G01*
X253263520Y-29483060D01*
G75*
G02*
X253026020Y-29720560I-237500J0D01*
G01*
X252426020Y-29720560D01*
G75*
G02*
X252188520Y-29483060I0J237500D01*
G01*
G37*
G36*
G01*
X250436840Y-29129980D02*
X250436840Y-29604980D01*
G75*
G02*
X250199340Y-29842480I-237500J0D01*
G01*
X249599340Y-29842480D01*
G75*
G02*
X249361840Y-29604980I0J237500D01*
G01*
X249361840Y-29129980D01*
G75*
G02*
X249599340Y-28892480I237500J0D01*
G01*
X250199340Y-28892480D01*
G75*
G02*
X250436840Y-29129980I0J-237500D01*
G01*
G37*
G36*
G01*
X248711840Y-29129980D02*
X248711840Y-29604980D01*
G75*
G02*
X248474340Y-29842480I-237500J0D01*
G01*
X247874340Y-29842480D01*
G75*
G02*
X247636840Y-29604980I0J237500D01*
G01*
X247636840Y-29129980D01*
G75*
G02*
X247874340Y-28892480I237500J0D01*
G01*
X248474340Y-28892480D01*
G75*
G02*
X248711840Y-29129980I0J-237500D01*
G01*
G37*
G36*
G01*
X152543500Y-63781480D02*
X153018500Y-63781480D01*
G75*
G02*
X153256000Y-64018980I0J-237500D01*
G01*
X153256000Y-64618980D01*
G75*
G02*
X153018500Y-64856480I-237500J0D01*
G01*
X152543500Y-64856480D01*
G75*
G02*
X152306000Y-64618980I0J237500D01*
G01*
X152306000Y-64018980D01*
G75*
G02*
X152543500Y-63781480I237500J0D01*
G01*
G37*
G36*
G01*
X152543500Y-65506480D02*
X153018500Y-65506480D01*
G75*
G02*
X153256000Y-65743980I0J-237500D01*
G01*
X153256000Y-66343980D01*
G75*
G02*
X153018500Y-66581480I-237500J0D01*
G01*
X152543500Y-66581480D01*
G75*
G02*
X152306000Y-66343980I0J237500D01*
G01*
X152306000Y-65743980D01*
G75*
G02*
X152543500Y-65506480I237500J0D01*
G01*
G37*
G36*
G01*
X150293060Y-65648720D02*
X150768060Y-65648720D01*
G75*
G02*
X151005560Y-65886220I0J-237500D01*
G01*
X151005560Y-66486220D01*
G75*
G02*
X150768060Y-66723720I-237500J0D01*
G01*
X150293060Y-66723720D01*
G75*
G02*
X150055560Y-66486220I0J237500D01*
G01*
X150055560Y-65886220D01*
G75*
G02*
X150293060Y-65648720I237500J0D01*
G01*
G37*
G36*
G01*
X150293060Y-63923720D02*
X150768060Y-63923720D01*
G75*
G02*
X151005560Y-64161220I0J-237500D01*
G01*
X151005560Y-64761220D01*
G75*
G02*
X150768060Y-64998720I-237500J0D01*
G01*
X150293060Y-64998720D01*
G75*
G02*
X150055560Y-64761220I0J237500D01*
G01*
X150055560Y-64161220D01*
G75*
G02*
X150293060Y-63923720I237500J0D01*
G01*
G37*
G36*
G01*
X147778460Y-65613160D02*
X148253460Y-65613160D01*
G75*
G02*
X148490960Y-65850660I0J-237500D01*
G01*
X148490960Y-66450660D01*
G75*
G02*
X148253460Y-66688160I-237500J0D01*
G01*
X147778460Y-66688160D01*
G75*
G02*
X147540960Y-66450660I0J237500D01*
G01*
X147540960Y-65850660D01*
G75*
G02*
X147778460Y-65613160I237500J0D01*
G01*
G37*
G36*
G01*
X147778460Y-63888160D02*
X148253460Y-63888160D01*
G75*
G02*
X148490960Y-64125660I0J-237500D01*
G01*
X148490960Y-64725660D01*
G75*
G02*
X148253460Y-64963160I-237500J0D01*
G01*
X147778460Y-64963160D01*
G75*
G02*
X147540960Y-64725660I0J237500D01*
G01*
X147540960Y-64125660D01*
G75*
G02*
X147778460Y-63888160I237500J0D01*
G01*
G37*
G36*
G01*
X144100540Y-64055800D02*
X144575540Y-64055800D01*
G75*
G02*
X144813040Y-64293300I0J-237500D01*
G01*
X144813040Y-64893300D01*
G75*
G02*
X144575540Y-65130800I-237500J0D01*
G01*
X144100540Y-65130800D01*
G75*
G02*
X143863040Y-64893300I0J237500D01*
G01*
X143863040Y-64293300D01*
G75*
G02*
X144100540Y-64055800I237500J0D01*
G01*
G37*
G36*
G01*
X144100540Y-65780800D02*
X144575540Y-65780800D01*
G75*
G02*
X144813040Y-66018300I0J-237500D01*
G01*
X144813040Y-66618300D01*
G75*
G02*
X144575540Y-66855800I-237500J0D01*
G01*
X144100540Y-66855800D01*
G75*
G02*
X143863040Y-66618300I0J237500D01*
G01*
X143863040Y-66018300D01*
G75*
G02*
X144100540Y-65780800I237500J0D01*
G01*
G37*
M02*
