M48
; DRILL file {KiCad (5.1.7)-1} date 09/29/22 08:39:39
; FORMAT={-:-/ absolute / metric / decimal}
; #@! TF.CreationDate,2022-09-29T08:39:39-07:00
; #@! TF.GenerationSoftware,Kicad,Pcbnew,(5.1.7)-1
FMAT,2
METRIC
T1C0.400
T2C0.800
T3C0.889
T4C0.914
T5C0.950
T6C1.000
T7C1.100
T8C1.520
T9C2.286
T10C3.264
%
G90
G05
T1
X127.986Y-37.495
X128.961Y-50.311
X128.963Y-39.959
X131.263Y-46.809
X132.568Y-33.853
X132.863Y-68.259
X133.413Y-39.959
X134.438Y-61.834
X134.625Y-55.148
X135.263Y-35.109
X135.263Y-56.809
X135.963Y-50.909
X135.963Y-61.659
X136.763Y-67.559
X137.213Y-54.409
X137.213Y-61.109
X137.313Y-63.859
X137.363Y-68.259
X137.46Y-28.9
X137.907Y-57.821
X138.024Y-55.88
X138.113Y-32.159
X138.363Y-46.809
X138.413Y-60.859
X138.513Y-54.409
X139.113Y-33.359
X139.263Y-46.859
X139.456Y-63.017
X139.71Y-65.588
X139.813Y-50.309
X140.056Y-74.432
X140.863Y-67.359
X141.113Y-56.859
X141.28Y-71.298
X142.21Y-65.837
X142.263Y-55.109
X142.263Y-63.859
X142.575Y-42.149
X143.313Y-35.409
X143.663Y-47.459
X144.113Y-62.236
X144.722Y-55.1
X145.39Y-48.788
X146.207Y-43.19
X146.319Y-65.669
X148.013Y-61.686
X149.515Y-41.925
X149.713Y-50.309
X149.763Y-52.959
X150.038Y-69.637
X150.089Y-65.867
X152.204Y-60.979
X152.522Y-48.611
X152.654Y-41.595
X152.663Y-59.909
X152.817Y-29.378
X153.01Y-52.984
X153.843Y-47.625
X153.909Y-75.169
X155.363Y-68.709
X155.46Y-55.1
X156.667Y-51.308
X157.373Y-47.838
X157.5Y-42.779
X157.927Y-54.271
X159.133Y-54.31
X159.363Y-64.659
X159.507Y-57.394
X159.863Y-68.859
X160.477Y-49.886
X160.713Y-56.059
X161.168Y-47.803
X161.346Y-43.205
X161.849Y-50.8
X162.067Y-63.17
X162.199Y-65.801
X162.204Y-60.655
X162.963Y-62.109
X162.963Y-64.609
X163.093Y-55.1
X164.263Y-56.059
X164.871Y-44.135
X165.364Y-51.567
X165.979Y-48.666
X166.047Y-59.207
X166.487Y-66.223
X166.741Y-64.369
X168.605Y-29.307
X168.605Y-60.655
X169.926Y-62.078
X170.588Y-32.334
X171.221Y-47.777
X171.333Y-58.45
X171.45Y-56.967
X173.431Y-50.597
X173.436Y-54.082
X173.545Y-70.236
X174.788Y-34.884
X174.935Y-47.793
X175.489Y-50.526
X175.88Y-42.987
X176.86Y-58.344
X177.658Y-56.774
X177.678Y-54.132
X178.1Y-33.355
X178.857Y-29.296
X178.923Y-64.582
X179.213Y-39.959
X179.278Y-49.886
X179.913Y-60.228
X180.613Y-33.534
X180.741Y-48.113
X181.107Y-72.503
X181.285Y-54.649
X182.488Y-32.559
X183.286Y-50.597
X183.896Y-33.924
X184.399Y-47.864
X184.831Y-50.607
X184.836Y-54.031
X184.841Y-44.328
X185.085Y-55.966
X185.413Y-67.459
X186.074Y-53.422
X186.763Y-34.834
X186.944Y-55.59
X187.091Y-53.963
X187.848Y-33.508
X188.592Y-53.965
X188.631Y-44.663
X188.722Y-47.274
X188.813Y-68.759
X188.879Y-31.283
X189.746Y-55.067
X189.998Y-67.667
X190.297Y-54.254
X190.438Y-33.659
X191.075Y-55.762
X191.16Y-50.089
X192.013Y-59.759
X192.207Y-61.742
X192.263Y-31.105
X193.406Y-45.552
X193.963Y-34.184
X194.513Y-35.559
X195.072Y-51.651
X195.123Y-62.367
X196.513Y-39.959
X196.682Y-58.73
X196.687Y-45.552
X197.11Y-54.49
X197.414Y-70.419
X198.272Y-55.606
X198.463Y-34.134
X199.68Y-58.039
X199.807Y-66.726
X200.447Y-40.584
X200.482Y-45.959
X201.056Y-70.074
X202.313Y-53.459
X202.579Y-55.762
X202.611Y-29.606
X203.066Y-69.806
X203.205Y-59.802
X203.916Y-60.432
X203.942Y-52.659
X203.947Y-44.501
X204.267Y-49.682
X204.272Y-40.716
X204.673Y-54.61
X204.704Y-56.012
X204.897Y-35.953
X205.103Y-58.993
X205.537Y-49.632
X206.35Y-50.211
X206.471Y-67.667
X207.095Y-53.146
X207.315Y-55.535
X207.315Y-59.284
X208.209Y-52.824
X208.483Y-53.978
X209.193Y-49.248
X209.948Y-53.95
X210.444Y-48.616
X211.143Y-55.824
X211.226Y-52.883
X211.854Y-69.082
X212.126Y-39.456
X212.405Y-56.251
X212.557Y-46.289
X212.755Y-67.667
X213.293Y-48.893
X213.38Y-42.748
X214.388Y-50.215
X214.813Y-56.409
X214.922Y-51.536
X215.672Y-55.853
X215.7Y-49.438
X215.702Y-56.932
X215.779Y-67.983
X215.888Y-33.359
X216.002Y-46.985
X216.317Y-42.931
X216.491Y-51.516
X216.794Y-71.824
X217.094Y-50.201
X218.885Y-70.236
X218.999Y-58.064
X219.613Y-53.899
X219.822Y-46.233
X220.101Y-50.241
X220.114Y-48.861
X220.233Y-36.18
X220.787Y-56.85
X221.285Y-63.597
X221.844Y-52.677
X221.988Y-32.034
X223.098Y-51.811
X223.125Y-68.021
X223.713Y-33.609
X223.759Y-35.257
X223.838Y-73.759
X224.285Y-53.271
X224.546Y-35.54
X224.572Y-46.175
X224.819Y-34.386
X225.113Y-58.809
X225.654Y-53.899
X225.723Y-58.194
X226.37Y-40.536
X226.963Y-62.209
X227.533Y-40.89
X227.726Y-32.979
X228.013Y-70.059
X228.113Y-75.359
X228.136Y-52.694
X228.194Y-66.538
X228.295Y-55.118
X228.844Y-42.342
X229.113Y-72.759
X229.504Y-49.378
X229.563Y-67.909
X229.865Y-37.765
X229.967Y-41.211
X230.14Y-65.709
X230.434Y-45.339
X230.469Y-54.524
X230.813Y-70.959
X230.835Y-51.798
X230.913Y-62.209
X230.94Y-59.791
X230.998Y-34.656
X232.014Y-40.857
X232.161Y-72.182
X232.298Y-33.086
X232.657Y-55.242
X233.513Y-67.559
X233.613Y-72.759
X234.112Y-49.357
X234.913Y-72.059
X236.113Y-71.459
X236.438Y-32.684
X236.977Y-44.145
X237.213Y-67.359
X237.313Y-72.759
X238.138Y-34.609
X238.613Y-71.959
X238.795Y-48.437
X238.978Y-55.56
X239.813Y-48.437
X240.279Y-35.585
X240.294Y-39.382
X240.413Y-63.534
X242.138Y-33.684
X244.099Y-43.348
X244.638Y-74.884
X246.113Y-72.309
X247.086Y-55.667
X247.548Y-48.377
X248.046Y-58.334
X248.976Y-60.93
X250.515Y-63.297
X251.008Y-30.277
X251.493Y-51.087
X252.623Y-30.475
X252.854Y-53.322
X253.393Y-70.772
X254.046Y-39.382
X255.047Y-47.814
X255.768Y-39.517
X255.996Y-30.363
X256.797Y-48.591
X257.312Y-70.024
X257.49Y-49.198
X258.003Y-40.033
X258.003Y-54.661
X259.177Y-43.485
X259.578Y-41.788
X259.913Y-47.935
X260.291Y-54.032
X261.361Y-69.291
X261.584Y-58.562
X261.777Y-55.936
X262.204Y-40.414
X262.738Y-61.057
X263.119Y-64.13
X265.176Y-48.044
X265.786Y-41.043
X265.813Y-33.284
X267.198Y-65.552
X267.538Y-47.69
X268.071Y-69.588
X268.09Y-34.8
X268.158Y-29.464
X269.281Y-64.75
X269.788Y-34.184
X270.112Y-32.26
X270.302Y-48.798
X270.337Y-50.236
X270.54Y-70.592
X271.892Y-55.616
X272.532Y-58.496
X272.882Y-49.071
X273.05Y-32.624
X273.167Y-63.363
X273.365Y-40.742
X274.904Y-48.494
X275.382Y-69.753
X275.504Y-49.235
X275.915Y-43.993
X277.525Y-50.175
X277.538Y-34.734
X277.759Y-41.509
X278.102Y-48.738
T2
X165.588Y-55.1
X166.969Y-51.677
X214.804Y-73.009
X235.453Y-51.798
X240.97Y-51.829
X242.213Y-70.709
X249.326Y-70.072
X254.363Y-49.622
X265.105Y-70.912
T3
X217.7Y-60.46
X217.7Y-63.0
X217.7Y-65.54
X172.395Y-60.952
X174.935Y-60.952
X177.475Y-60.952
T4
X172.161Y-65.385
X172.161Y-67.366
X174.661Y-65.385
X174.661Y-67.366
T5
X186.333Y-71.769
X186.333Y-74.309
X188.873Y-71.769
X188.873Y-74.309
X191.413Y-71.769
X191.413Y-74.309
X193.953Y-71.769
X193.953Y-74.309
X201.238Y-32.26
X201.238Y-34.8
X203.778Y-32.26
X203.778Y-34.8
X206.318Y-32.26
X206.318Y-34.8
X208.858Y-32.26
X208.858Y-34.8
X211.398Y-32.26
X211.398Y-34.8
X213.938Y-32.26
X213.938Y-34.8
X204.193Y-71.719
X204.193Y-74.259
X206.733Y-71.719
X206.733Y-74.259
X209.273Y-71.719
X209.273Y-74.259
X211.813Y-71.719
X211.813Y-74.259
X245.238Y-32.26
X245.238Y-34.8
X247.778Y-32.26
X247.778Y-34.8
X250.318Y-32.26
X250.318Y-34.8
X252.858Y-32.26
X252.858Y-34.8
X255.398Y-32.26
X255.398Y-34.8
X257.938Y-32.26
X257.938Y-34.8
X149.913Y-32.26
X149.913Y-34.8
X152.453Y-32.26
X152.453Y-34.8
X154.993Y-32.26
X154.993Y-34.8
X157.533Y-32.26
X157.533Y-34.8
X160.073Y-32.26
X160.073Y-34.8
X162.613Y-32.26
X162.613Y-34.8
T6
X244.795Y-46.172
X247.335Y-46.172
X249.875Y-46.172
X252.415Y-46.172
X254.955Y-46.172
X257.495Y-46.172
X260.035Y-46.172
X262.575Y-46.172
X265.115Y-46.172
X267.655Y-46.172
X270.195Y-46.172
X272.735Y-46.172
X275.275Y-46.172
X277.815Y-46.172
T7
X245.08Y-52.164
X245.08Y-67.404
X247.62Y-52.164
X247.62Y-64.864
X247.62Y-67.404
X250.16Y-52.164
X250.16Y-67.404
X252.7Y-52.164
X252.7Y-64.864
X252.7Y-67.404
X255.24Y-52.164
X255.24Y-64.864
X255.24Y-67.404
X257.78Y-52.164
X257.78Y-64.864
X257.78Y-67.404
X260.32Y-52.164
X260.32Y-67.404
X262.86Y-52.164
X262.86Y-67.404
X265.4Y-52.164
X265.4Y-67.404
X267.94Y-52.164
X267.94Y-67.404
X270.48Y-52.164
X270.48Y-67.404
X273.02Y-52.164
X273.02Y-67.404
X275.56Y-52.164
X275.56Y-67.404
X278.1Y-52.164
X278.1Y-54.704
X278.1Y-57.244
X278.1Y-59.784
X278.1Y-62.324
X278.1Y-64.864
X278.1Y-67.404
T8
X253.322Y-73.477
X257.282Y-73.477
X261.242Y-73.477
X265.202Y-73.477
X269.162Y-73.477
X149.263Y-57.509
X144.213Y-72.609
X148.173Y-72.609
X152.133Y-72.609
X156.093Y-72.609
X234.22Y-37.8
X238.18Y-37.8
X242.14Y-37.8
X246.1Y-37.8
X250.06Y-37.8
X254.02Y-37.8
X257.98Y-37.8
X261.94Y-37.8
X265.9Y-37.8
X269.86Y-37.8
X273.82Y-37.8
X277.78Y-37.8
X182.74Y-37.8
X186.7Y-37.8
X190.66Y-37.8
X194.62Y-37.8
X198.58Y-37.8
X202.54Y-37.8
X206.5Y-37.8
X210.46Y-37.8
X214.42Y-37.8
X218.38Y-37.8
X222.34Y-37.8
X226.3Y-37.8
X236.123Y-59.792
X199.763Y-51.259
X131.26Y-37.8
X135.22Y-37.8
X139.18Y-37.8
X143.14Y-37.8
X147.1Y-37.8
X151.06Y-37.8
X155.02Y-37.8
X158.98Y-37.8
X162.94Y-37.8
X166.9Y-37.8
X170.86Y-37.8
X174.82Y-37.8
T9
X167.391Y-70.084
X179.431Y-70.084
T10
X276.463Y-30.359
X129.963Y-30.459
X275.732Y-73.533
X129.913Y-73.859
X199.188Y-63.584
X175.088Y-30.459
X230.288Y-30.709
T0
M30
