G04 #@! TF.GenerationSoftware,KiCad,Pcbnew,(5.1.7)-1*
G04 #@! TF.CreationDate,2022-09-29T08:39:37-07:00*
G04 #@! TF.ProjectId,Peterson_SerialIO,50657465-7273-46f6-9e5f-53657269616c,rev?*
G04 #@! TF.SameCoordinates,Original*
G04 #@! TF.FileFunction,Soldermask,Top*
G04 #@! TF.FilePolarity,Negative*
%FSLAX46Y46*%
G04 Gerber Fmt 4.6, Leading zero omitted, Abs format (unit mm)*
G04 Created by KiCad (PCBNEW (5.1.7)-1) date 2022-09-29 08:39:37*
%MOMM*%
%LPD*%
G01*
G04 APERTURE LIST*
%ADD10R,1.700000X1.700000*%
%ADD11O,1.700000X1.700000*%
%ADD12C,3.263900*%
%ADD13O,2.540000X2.540000*%
%ADD14C,1.600000*%
%ADD15R,1.651000X1.651000*%
%ADD16C,1.651000*%
%ADD17C,1.676400*%
%ADD18C,3.302000*%
%ADD19C,1.700000*%
G04 APERTURE END LIST*
D10*
X244795040Y-46172120D03*
D11*
X247335040Y-46172120D03*
X249875040Y-46172120D03*
X252415040Y-46172120D03*
X254955040Y-46172120D03*
X257495040Y-46172120D03*
X260035040Y-46172120D03*
X262575040Y-46172120D03*
X265115040Y-46172120D03*
X267655040Y-46172120D03*
X270195040Y-46172120D03*
X272735040Y-46172120D03*
X275275040Y-46172120D03*
X277815040Y-46172120D03*
D12*
X175087880Y-30458880D03*
D13*
X156093280Y-72608880D03*
X152133280Y-72608880D03*
X148173280Y-72608880D03*
X144213280Y-72608880D03*
D14*
X278099520Y-59783980D03*
X278099520Y-62323980D03*
X278099520Y-64863980D03*
X278099520Y-67403980D03*
X278099520Y-57243980D03*
X278099520Y-54703980D03*
X278099520Y-52163980D03*
X275559520Y-67403980D03*
X273019520Y-67403980D03*
X270479520Y-67403980D03*
X267939520Y-67403980D03*
X265399520Y-67403980D03*
X262859520Y-67403980D03*
X260319520Y-67403980D03*
X257779520Y-67403980D03*
X255239520Y-67403980D03*
X252699520Y-67403980D03*
X250159520Y-67403980D03*
X247619520Y-67403980D03*
X245079520Y-67403980D03*
X247619520Y-64863980D03*
X252699520Y-64863980D03*
X255239520Y-64863980D03*
X257779520Y-64863980D03*
X275559520Y-52163980D03*
X273019520Y-52163980D03*
X270479520Y-52163980D03*
X267939520Y-52163980D03*
X265399520Y-52163980D03*
X262859520Y-52163980D03*
X260319520Y-52163980D03*
X257779520Y-52163980D03*
X255239520Y-52163980D03*
X252699520Y-52163980D03*
X250159520Y-52163980D03*
X247619520Y-52163980D03*
X245079520Y-52163980D03*
D13*
X277780000Y-37800000D03*
X273820000Y-37800000D03*
X269860000Y-37800000D03*
X265900000Y-37800000D03*
X261940000Y-37800000D03*
X257980000Y-37800000D03*
X254020000Y-37800000D03*
X250060000Y-37800000D03*
X246100000Y-37800000D03*
X242140000Y-37800000D03*
X238180000Y-37800000D03*
X234220000Y-37800000D03*
X182740000Y-37800000D03*
X186700000Y-37800000D03*
X190660000Y-37800000D03*
X194620000Y-37800000D03*
X198580000Y-37800000D03*
X202540000Y-37800000D03*
X206500000Y-37800000D03*
X210460000Y-37800000D03*
X214420000Y-37800000D03*
X218380000Y-37800000D03*
X222340000Y-37800000D03*
X226300000Y-37800000D03*
D12*
X199187880Y-63583880D03*
D13*
X174820000Y-37800000D03*
X170860000Y-37800000D03*
X166900000Y-37800000D03*
X162940000Y-37800000D03*
X158980000Y-37800000D03*
X155020000Y-37800000D03*
X151060000Y-37800000D03*
X147100000Y-37800000D03*
X143140000Y-37800000D03*
X139180000Y-37800000D03*
X135220000Y-37800000D03*
X131260000Y-37800000D03*
D12*
X129912880Y-73858880D03*
X230287880Y-30708880D03*
D15*
X217700000Y-60460000D03*
D16*
X217700000Y-63000000D03*
X217700000Y-65540000D03*
D13*
X149262880Y-57508880D03*
X199762880Y-51258880D03*
D15*
X172394880Y-60952380D03*
D16*
X174934880Y-60952380D03*
X177474880Y-60952380D03*
D17*
X174660560Y-67365880D03*
X174660560Y-65384680D03*
X172161200Y-67365880D03*
D18*
X167391080Y-70083680D03*
X179430680Y-70083680D03*
D17*
X172161200Y-65384680D03*
D19*
X245237880Y-32260000D03*
X247777880Y-32260000D03*
X250317880Y-32260000D03*
X252857880Y-32260000D03*
X255397880Y-32260000D03*
X257937880Y-32260000D03*
X245237880Y-34800000D03*
X247777880Y-34800000D03*
X250317880Y-34800000D03*
X252857880Y-34800000D03*
X255397880Y-34800000D03*
D10*
X257937880Y-34800000D03*
X213937880Y-34800000D03*
D19*
X211397880Y-34800000D03*
X208857880Y-34800000D03*
X206317880Y-34800000D03*
X203777880Y-34800000D03*
X201237880Y-34800000D03*
X213937880Y-32260000D03*
X211397880Y-32260000D03*
X208857880Y-32260000D03*
X206317880Y-32260000D03*
X203777880Y-32260000D03*
X201237880Y-32260000D03*
X149912880Y-32260000D03*
X152452880Y-32260000D03*
X154992880Y-32260000D03*
X157532880Y-32260000D03*
X160072880Y-32260000D03*
X162612880Y-32260000D03*
X149912880Y-34800000D03*
X152452880Y-34800000D03*
X154992880Y-34800000D03*
X157532880Y-34800000D03*
X160072880Y-34800000D03*
D10*
X162612880Y-34800000D03*
D19*
X204192880Y-71718880D03*
X206732880Y-71718880D03*
X209272880Y-71718880D03*
X211812880Y-71718880D03*
X204192880Y-74258880D03*
X206732880Y-74258880D03*
X209272880Y-74258880D03*
D10*
X211812880Y-74258880D03*
D19*
X186332880Y-71768880D03*
X188872880Y-71768880D03*
X191412880Y-71768880D03*
X193952880Y-71768880D03*
X186332880Y-74308880D03*
X188872880Y-74308880D03*
X191412880Y-74308880D03*
D10*
X193952880Y-74308880D03*
D12*
X275732240Y-73533000D03*
X129962880Y-30458880D03*
X276462880Y-30358880D03*
D13*
X253322320Y-73477120D03*
X257282320Y-73477120D03*
X261242320Y-73477120D03*
X265202320Y-73477120D03*
X269162320Y-73477120D03*
X236123480Y-59791600D03*
G36*
G01*
X262992860Y-30708480D02*
X263467860Y-30708480D01*
G75*
G02*
X263705360Y-30945980I0J-237500D01*
G01*
X263705360Y-31545980D01*
G75*
G02*
X263467860Y-31783480I-237500J0D01*
G01*
X262992860Y-31783480D01*
G75*
G02*
X262755360Y-31545980I0J237500D01*
G01*
X262755360Y-30945980D01*
G75*
G02*
X262992860Y-30708480I237500J0D01*
G01*
G37*
G36*
G01*
X262992860Y-28983480D02*
X263467860Y-28983480D01*
G75*
G02*
X263705360Y-29220980I0J-237500D01*
G01*
X263705360Y-29820980D01*
G75*
G02*
X263467860Y-30058480I-237500J0D01*
G01*
X262992860Y-30058480D01*
G75*
G02*
X262755360Y-29820980I0J237500D01*
G01*
X262755360Y-29220980D01*
G75*
G02*
X262992860Y-28983480I237500J0D01*
G01*
G37*
G36*
G01*
X260635740Y-28759960D02*
X261110740Y-28759960D01*
G75*
G02*
X261348240Y-28997460I0J-237500D01*
G01*
X261348240Y-29597460D01*
G75*
G02*
X261110740Y-29834960I-237500J0D01*
G01*
X260635740Y-29834960D01*
G75*
G02*
X260398240Y-29597460I0J237500D01*
G01*
X260398240Y-28997460D01*
G75*
G02*
X260635740Y-28759960I237500J0D01*
G01*
G37*
G36*
G01*
X260635740Y-30484960D02*
X261110740Y-30484960D01*
G75*
G02*
X261348240Y-30722460I0J-237500D01*
G01*
X261348240Y-31322460D01*
G75*
G02*
X261110740Y-31559960I-237500J0D01*
G01*
X260635740Y-31559960D01*
G75*
G02*
X260398240Y-31322460I0J237500D01*
G01*
X260398240Y-30722460D01*
G75*
G02*
X260635740Y-30484960I237500J0D01*
G01*
G37*
G36*
G01*
X258033400Y-29483060D02*
X258033400Y-29008060D01*
G75*
G02*
X258270900Y-28770560I237500J0D01*
G01*
X258870900Y-28770560D01*
G75*
G02*
X259108400Y-29008060I0J-237500D01*
G01*
X259108400Y-29483060D01*
G75*
G02*
X258870900Y-29720560I-237500J0D01*
G01*
X258270900Y-29720560D01*
G75*
G02*
X258033400Y-29483060I0J237500D01*
G01*
G37*
G36*
G01*
X256308400Y-29483060D02*
X256308400Y-29008060D01*
G75*
G02*
X256545900Y-28770560I237500J0D01*
G01*
X257145900Y-28770560D01*
G75*
G02*
X257383400Y-29008060I0J-237500D01*
G01*
X257383400Y-29483060D01*
G75*
G02*
X257145900Y-29720560I-237500J0D01*
G01*
X256545900Y-29720560D01*
G75*
G02*
X256308400Y-29483060I0J237500D01*
G01*
G37*
G36*
G01*
X253913520Y-29483060D02*
X253913520Y-29008060D01*
G75*
G02*
X254151020Y-28770560I237500J0D01*
G01*
X254751020Y-28770560D01*
G75*
G02*
X254988520Y-29008060I0J-237500D01*
G01*
X254988520Y-29483060D01*
G75*
G02*
X254751020Y-29720560I-237500J0D01*
G01*
X254151020Y-29720560D01*
G75*
G02*
X253913520Y-29483060I0J237500D01*
G01*
G37*
G36*
G01*
X252188520Y-29483060D02*
X252188520Y-29008060D01*
G75*
G02*
X252426020Y-28770560I237500J0D01*
G01*
X253026020Y-28770560D01*
G75*
G02*
X253263520Y-29008060I0J-237500D01*
G01*
X253263520Y-29483060D01*
G75*
G02*
X253026020Y-29720560I-237500J0D01*
G01*
X252426020Y-29720560D01*
G75*
G02*
X252188520Y-29483060I0J237500D01*
G01*
G37*
G36*
G01*
X250436840Y-29129980D02*
X250436840Y-29604980D01*
G75*
G02*
X250199340Y-29842480I-237500J0D01*
G01*
X249599340Y-29842480D01*
G75*
G02*
X249361840Y-29604980I0J237500D01*
G01*
X249361840Y-29129980D01*
G75*
G02*
X249599340Y-28892480I237500J0D01*
G01*
X250199340Y-28892480D01*
G75*
G02*
X250436840Y-29129980I0J-237500D01*
G01*
G37*
G36*
G01*
X248711840Y-29129980D02*
X248711840Y-29604980D01*
G75*
G02*
X248474340Y-29842480I-237500J0D01*
G01*
X247874340Y-29842480D01*
G75*
G02*
X247636840Y-29604980I0J237500D01*
G01*
X247636840Y-29129980D01*
G75*
G02*
X247874340Y-28892480I237500J0D01*
G01*
X248474340Y-28892480D01*
G75*
G02*
X248711840Y-29129980I0J-237500D01*
G01*
G37*
G36*
G01*
X152543500Y-63781480D02*
X153018500Y-63781480D01*
G75*
G02*
X153256000Y-64018980I0J-237500D01*
G01*
X153256000Y-64618980D01*
G75*
G02*
X153018500Y-64856480I-237500J0D01*
G01*
X152543500Y-64856480D01*
G75*
G02*
X152306000Y-64618980I0J237500D01*
G01*
X152306000Y-64018980D01*
G75*
G02*
X152543500Y-63781480I237500J0D01*
G01*
G37*
G36*
G01*
X152543500Y-65506480D02*
X153018500Y-65506480D01*
G75*
G02*
X153256000Y-65743980I0J-237500D01*
G01*
X153256000Y-66343980D01*
G75*
G02*
X153018500Y-66581480I-237500J0D01*
G01*
X152543500Y-66581480D01*
G75*
G02*
X152306000Y-66343980I0J237500D01*
G01*
X152306000Y-65743980D01*
G75*
G02*
X152543500Y-65506480I237500J0D01*
G01*
G37*
G36*
G01*
X150293060Y-65648720D02*
X150768060Y-65648720D01*
G75*
G02*
X151005560Y-65886220I0J-237500D01*
G01*
X151005560Y-66486220D01*
G75*
G02*
X150768060Y-66723720I-237500J0D01*
G01*
X150293060Y-66723720D01*
G75*
G02*
X150055560Y-66486220I0J237500D01*
G01*
X150055560Y-65886220D01*
G75*
G02*
X150293060Y-65648720I237500J0D01*
G01*
G37*
G36*
G01*
X150293060Y-63923720D02*
X150768060Y-63923720D01*
G75*
G02*
X151005560Y-64161220I0J-237500D01*
G01*
X151005560Y-64761220D01*
G75*
G02*
X150768060Y-64998720I-237500J0D01*
G01*
X150293060Y-64998720D01*
G75*
G02*
X150055560Y-64761220I0J237500D01*
G01*
X150055560Y-64161220D01*
G75*
G02*
X150293060Y-63923720I237500J0D01*
G01*
G37*
G36*
G01*
X147778460Y-65613160D02*
X148253460Y-65613160D01*
G75*
G02*
X148490960Y-65850660I0J-237500D01*
G01*
X148490960Y-66450660D01*
G75*
G02*
X148253460Y-66688160I-237500J0D01*
G01*
X147778460Y-66688160D01*
G75*
G02*
X147540960Y-66450660I0J237500D01*
G01*
X147540960Y-65850660D01*
G75*
G02*
X147778460Y-65613160I237500J0D01*
G01*
G37*
G36*
G01*
X147778460Y-63888160D02*
X148253460Y-63888160D01*
G75*
G02*
X148490960Y-64125660I0J-237500D01*
G01*
X148490960Y-64725660D01*
G75*
G02*
X148253460Y-64963160I-237500J0D01*
G01*
X147778460Y-64963160D01*
G75*
G02*
X147540960Y-64725660I0J237500D01*
G01*
X147540960Y-64125660D01*
G75*
G02*
X147778460Y-63888160I237500J0D01*
G01*
G37*
G36*
G01*
X144100540Y-64055800D02*
X144575540Y-64055800D01*
G75*
G02*
X144813040Y-64293300I0J-237500D01*
G01*
X144813040Y-64893300D01*
G75*
G02*
X144575540Y-65130800I-237500J0D01*
G01*
X144100540Y-65130800D01*
G75*
G02*
X143863040Y-64893300I0J237500D01*
G01*
X143863040Y-64293300D01*
G75*
G02*
X144100540Y-64055800I237500J0D01*
G01*
G37*
G36*
G01*
X144100540Y-65780800D02*
X144575540Y-65780800D01*
G75*
G02*
X144813040Y-66018300I0J-237500D01*
G01*
X144813040Y-66618300D01*
G75*
G02*
X144575540Y-66855800I-237500J0D01*
G01*
X144100540Y-66855800D01*
G75*
G02*
X143863040Y-66618300I0J237500D01*
G01*
X143863040Y-66018300D01*
G75*
G02*
X144100540Y-65780800I237500J0D01*
G01*
G37*
M02*
