G04 #@! TF.GenerationSoftware,KiCad,Pcbnew,(5.1.7)-1*
G04 #@! TF.CreationDate,2022-09-29T08:39:37-07:00*
G04 #@! TF.ProjectId,Peterson_SerialIO,50657465-7273-46f6-9e5f-53657269616c,rev?*
G04 #@! TF.SameCoordinates,Original*
G04 #@! TF.FileFunction,Paste,Top*
G04 #@! TF.FilePolarity,Positive*
%FSLAX46Y46*%
G04 Gerber Fmt 4.6, Leading zero omitted, Abs format (unit mm)*
G04 Created by KiCad (PCBNEW (5.1.7)-1) date 2022-09-29 08:39:37*
%MOMM*%
%LPD*%
G01*
G04 APERTURE LIST*
%ADD10R,1.651000X1.651000*%
%ADD11C,1.651000*%
%ADD12C,1.676400*%
%ADD13C,3.302000*%
G04 APERTURE END LIST*
D10*
X217700000Y-60460000D03*
D11*
X217700000Y-63000000D03*
X217700000Y-65540000D03*
D10*
X172394880Y-60952380D03*
D11*
X174934880Y-60952380D03*
X177474880Y-60952380D03*
D12*
X174660560Y-67365880D03*
X174660560Y-65384680D03*
X172161200Y-67365880D03*
D13*
X167391080Y-70083680D03*
X179430680Y-70083680D03*
D12*
X172161200Y-65384680D03*
G36*
G01*
X262992860Y-30708480D02*
X263467860Y-30708480D01*
G75*
G02*
X263705360Y-30945980I0J-237500D01*
G01*
X263705360Y-31545980D01*
G75*
G02*
X263467860Y-31783480I-237500J0D01*
G01*
X262992860Y-31783480D01*
G75*
G02*
X262755360Y-31545980I0J237500D01*
G01*
X262755360Y-30945980D01*
G75*
G02*
X262992860Y-30708480I237500J0D01*
G01*
G37*
G36*
G01*
X262992860Y-28983480D02*
X263467860Y-28983480D01*
G75*
G02*
X263705360Y-29220980I0J-237500D01*
G01*
X263705360Y-29820980D01*
G75*
G02*
X263467860Y-30058480I-237500J0D01*
G01*
X262992860Y-30058480D01*
G75*
G02*
X262755360Y-29820980I0J237500D01*
G01*
X262755360Y-29220980D01*
G75*
G02*
X262992860Y-28983480I237500J0D01*
G01*
G37*
G36*
G01*
X260635740Y-28759960D02*
X261110740Y-28759960D01*
G75*
G02*
X261348240Y-28997460I0J-237500D01*
G01*
X261348240Y-29597460D01*
G75*
G02*
X261110740Y-29834960I-237500J0D01*
G01*
X260635740Y-29834960D01*
G75*
G02*
X260398240Y-29597460I0J237500D01*
G01*
X260398240Y-28997460D01*
G75*
G02*
X260635740Y-28759960I237500J0D01*
G01*
G37*
G36*
G01*
X260635740Y-30484960D02*
X261110740Y-30484960D01*
G75*
G02*
X261348240Y-30722460I0J-237500D01*
G01*
X261348240Y-31322460D01*
G75*
G02*
X261110740Y-31559960I-237500J0D01*
G01*
X260635740Y-31559960D01*
G75*
G02*
X260398240Y-31322460I0J237500D01*
G01*
X260398240Y-30722460D01*
G75*
G02*
X260635740Y-30484960I237500J0D01*
G01*
G37*
G36*
G01*
X258033400Y-29483060D02*
X258033400Y-29008060D01*
G75*
G02*
X258270900Y-28770560I237500J0D01*
G01*
X258870900Y-28770560D01*
G75*
G02*
X259108400Y-29008060I0J-237500D01*
G01*
X259108400Y-29483060D01*
G75*
G02*
X258870900Y-29720560I-237500J0D01*
G01*
X258270900Y-29720560D01*
G75*
G02*
X258033400Y-29483060I0J237500D01*
G01*
G37*
G36*
G01*
X256308400Y-29483060D02*
X256308400Y-29008060D01*
G75*
G02*
X256545900Y-28770560I237500J0D01*
G01*
X257145900Y-28770560D01*
G75*
G02*
X257383400Y-29008060I0J-237500D01*
G01*
X257383400Y-29483060D01*
G75*
G02*
X257145900Y-29720560I-237500J0D01*
G01*
X256545900Y-29720560D01*
G75*
G02*
X256308400Y-29483060I0J237500D01*
G01*
G37*
G36*
G01*
X253913520Y-29483060D02*
X253913520Y-29008060D01*
G75*
G02*
X254151020Y-28770560I237500J0D01*
G01*
X254751020Y-28770560D01*
G75*
G02*
X254988520Y-29008060I0J-237500D01*
G01*
X254988520Y-29483060D01*
G75*
G02*
X254751020Y-29720560I-237500J0D01*
G01*
X254151020Y-29720560D01*
G75*
G02*
X253913520Y-29483060I0J237500D01*
G01*
G37*
G36*
G01*
X252188520Y-29483060D02*
X252188520Y-29008060D01*
G75*
G02*
X252426020Y-28770560I237500J0D01*
G01*
X253026020Y-28770560D01*
G75*
G02*
X253263520Y-29008060I0J-237500D01*
G01*
X253263520Y-29483060D01*
G75*
G02*
X253026020Y-29720560I-237500J0D01*
G01*
X252426020Y-29720560D01*
G75*
G02*
X252188520Y-29483060I0J237500D01*
G01*
G37*
G36*
G01*
X250436840Y-29129980D02*
X250436840Y-29604980D01*
G75*
G02*
X250199340Y-29842480I-237500J0D01*
G01*
X249599340Y-29842480D01*
G75*
G02*
X249361840Y-29604980I0J237500D01*
G01*
X249361840Y-29129980D01*
G75*
G02*
X249599340Y-28892480I237500J0D01*
G01*
X250199340Y-28892480D01*
G75*
G02*
X250436840Y-29129980I0J-237500D01*
G01*
G37*
G36*
G01*
X248711840Y-29129980D02*
X248711840Y-29604980D01*
G75*
G02*
X248474340Y-29842480I-237500J0D01*
G01*
X247874340Y-29842480D01*
G75*
G02*
X247636840Y-29604980I0J237500D01*
G01*
X247636840Y-29129980D01*
G75*
G02*
X247874340Y-28892480I237500J0D01*
G01*
X248474340Y-28892480D01*
G75*
G02*
X248711840Y-29129980I0J-237500D01*
G01*
G37*
G36*
G01*
X152543500Y-63781480D02*
X153018500Y-63781480D01*
G75*
G02*
X153256000Y-64018980I0J-237500D01*
G01*
X153256000Y-64618980D01*
G75*
G02*
X153018500Y-64856480I-237500J0D01*
G01*
X152543500Y-64856480D01*
G75*
G02*
X152306000Y-64618980I0J237500D01*
G01*
X152306000Y-64018980D01*
G75*
G02*
X152543500Y-63781480I237500J0D01*
G01*
G37*
G36*
G01*
X152543500Y-65506480D02*
X153018500Y-65506480D01*
G75*
G02*
X153256000Y-65743980I0J-237500D01*
G01*
X153256000Y-66343980D01*
G75*
G02*
X153018500Y-66581480I-237500J0D01*
G01*
X152543500Y-66581480D01*
G75*
G02*
X152306000Y-66343980I0J237500D01*
G01*
X152306000Y-65743980D01*
G75*
G02*
X152543500Y-65506480I237500J0D01*
G01*
G37*
G36*
G01*
X150293060Y-65648720D02*
X150768060Y-65648720D01*
G75*
G02*
X151005560Y-65886220I0J-237500D01*
G01*
X151005560Y-66486220D01*
G75*
G02*
X150768060Y-66723720I-237500J0D01*
G01*
X150293060Y-66723720D01*
G75*
G02*
X150055560Y-66486220I0J237500D01*
G01*
X150055560Y-65886220D01*
G75*
G02*
X150293060Y-65648720I237500J0D01*
G01*
G37*
G36*
G01*
X150293060Y-63923720D02*
X150768060Y-63923720D01*
G75*
G02*
X151005560Y-64161220I0J-237500D01*
G01*
X151005560Y-64761220D01*
G75*
G02*
X150768060Y-64998720I-237500J0D01*
G01*
X150293060Y-64998720D01*
G75*
G02*
X150055560Y-64761220I0J237500D01*
G01*
X150055560Y-64161220D01*
G75*
G02*
X150293060Y-63923720I237500J0D01*
G01*
G37*
G36*
G01*
X147778460Y-65613160D02*
X148253460Y-65613160D01*
G75*
G02*
X148490960Y-65850660I0J-237500D01*
G01*
X148490960Y-66450660D01*
G75*
G02*
X148253460Y-66688160I-237500J0D01*
G01*
X147778460Y-66688160D01*
G75*
G02*
X147540960Y-66450660I0J237500D01*
G01*
X147540960Y-65850660D01*
G75*
G02*
X147778460Y-65613160I237500J0D01*
G01*
G37*
G36*
G01*
X147778460Y-63888160D02*
X148253460Y-63888160D01*
G75*
G02*
X148490960Y-64125660I0J-237500D01*
G01*
X148490960Y-64725660D01*
G75*
G02*
X148253460Y-64963160I-237500J0D01*
G01*
X147778460Y-64963160D01*
G75*
G02*
X147540960Y-64725660I0J237500D01*
G01*
X147540960Y-64125660D01*
G75*
G02*
X147778460Y-63888160I237500J0D01*
G01*
G37*
G36*
G01*
X144100540Y-64055800D02*
X144575540Y-64055800D01*
G75*
G02*
X144813040Y-64293300I0J-237500D01*
G01*
X144813040Y-64893300D01*
G75*
G02*
X144575540Y-65130800I-237500J0D01*
G01*
X144100540Y-65130800D01*
G75*
G02*
X143863040Y-64893300I0J237500D01*
G01*
X143863040Y-64293300D01*
G75*
G02*
X144100540Y-64055800I237500J0D01*
G01*
G37*
G36*
G01*
X144100540Y-65780800D02*
X144575540Y-65780800D01*
G75*
G02*
X144813040Y-66018300I0J-237500D01*
G01*
X144813040Y-66618300D01*
G75*
G02*
X144575540Y-66855800I-237500J0D01*
G01*
X144100540Y-66855800D01*
G75*
G02*
X143863040Y-66618300I0J237500D01*
G01*
X143863040Y-66018300D01*
G75*
G02*
X144100540Y-65780800I237500J0D01*
G01*
G37*
M02*
